<svg width="11" height="16" viewBox="0 0 11 16" fill="none" xmlns="http://www.w3.org/2000/svg">
<g id="Figma-logo 1" clip-path="url(#clip0_128_620)">
<path id="path0_fill" d="M2.75055 16C4.26824 16 5.5 14.8054 5.5 13.3334V10.6667H2.75055C1.23285 10.6667 0.00109863 11.8614 0.00109863 13.3334C0.00109863 14.8054 1.23285 16 2.75055 16Z" fill="#0ACF83"/>
<path id="path1_fill" d="M0.00109863 7.99998C0.00109863 6.52798 1.23285 5.33331 2.75055 5.33331H5.5V10.6666H2.75055C1.23285 10.6666 0.00109863 9.47198 0.00109863 7.99998Z" fill="#A259FF"/>
<path id="path1_fill_1_" d="M0.00109863 2.66667C0.00109863 1.19467 1.23285 0 2.75055 0H5.5V5.33333H2.75055C1.23285 5.33333 0.00109863 4.13867 0.00109863 2.66667Z" fill="#F24E1E"/>
<path id="path2_fill" d="M5.5 0H8.24945C9.76715 0 10.9989 1.19467 10.9989 2.66667C10.9989 4.13867 9.76715 5.33333 8.24945 5.33333H5.5V0Z" fill="#FF7262"/>
<path id="path3_fill" d="M10.9989 7.99998C10.9989 9.47198 9.76715 10.6666 8.24945 10.6666C6.73175 10.6666 5.5 9.47198 5.5 7.99998C5.5 6.52798 6.73175 5.33331 8.24945 5.33331C9.76715 5.33331 10.9989 6.52798 10.9989 7.99998Z" fill="#1ABCFE"/>
</g>
<defs>
<clipPath id="clip0_128_620">
<rect width="11" height="16" fill="white"/>
</clipPath>
</defs>
</svg>
