<svg width="132" height="29" viewBox="0 0 132 29" fill="none" xmlns="http://www.w3.org/2000/svg">
<g id="rosetka 1" clip-path="url(#clip0_245_2546)">
<g id="Clip path group">
<mask id="mask0_245_2546" style="mask-type:luminance" maskUnits="userSpaceOnUse" x="0" y="0" width="132" height="29">
<g id="clip0_608_59">
<path id="Vector" d="M132 0H0V29H132V0Z" fill="white"/>
</g>
</mask>
<g mask="url(#mask0_245_2546)">
<g id="Group">
<path id="Vector_2" d="M4.76215 28.9995H24.2332C24.8565 29.0011 25.474 28.88 26.0505 28.6428C26.6269 28.4057 27.151 28.0573 27.5928 27.6175C28.0347 27.1777 28.3856 26.6552 28.6256 26.0797C28.8655 25.5042 28.9899 24.8871 28.9915 24.2636V4.75983C28.9931 4.13629 28.8719 3.51855 28.6349 2.94187C28.3979 2.3652 28.0496 1.84087 27.61 1.39883C27.1704 0.9568 26.6482 0.605714 26.0729 0.365623C25.4977 0.125532 24.8809 0.00113632 24.2575 -0.000460436H4.76215C4.13888 -0.00259581 3.52129 0.118104 2.94466 0.354749C2.36801 0.591393 1.84362 0.939347 1.40139 1.37875C0.959172 1.81814 0.607789 2.34037 0.367308 2.91562C0.126828 3.49088 0.00195972 4.10789 -0.000167462 4.73142V24.2393C-0.00176763 24.8628 0.11941 25.4805 0.356446 26.0572C0.593482 26.634 0.941734 27.1583 1.38132 27.6003C1.82091 28.0422 2.34321 28.3934 2.91842 28.6335C3.49363 28.8735 4.11048 28.998 4.73375 28.9995H4.76215ZM2.59598 4.75983C2.59036 4.19181 2.8105 3.64482 3.20798 3.23919C3.60546 2.83355 4.14773 2.60248 4.71549 2.5968H24.2293C24.797 2.59118 25.3437 2.8114 25.7492 3.20906C26.1546 3.60671 26.3857 4.1492 26.3913 4.71722V24.2393C26.3969 24.8072 26.1767 25.3543 25.7794 25.7599C25.3819 26.1656 24.8395 26.3966 24.2718 26.4022H4.76011C4.47881 26.4054 4.19967 26.3528 3.93863 26.2479C3.6776 26.143 3.4398 25.9876 3.23882 25.7908C3.03784 25.5938 2.87761 25.3592 2.76731 25.1004C2.65701 24.8414 2.59879 24.5633 2.59598 24.2818V4.76186V4.75983Z" fill="#D9002A"/>
<path id="Vector_3" d="M9.4354 22.2918C9.6504 22.4217 9.91001 22.5069 10.1291 22.5069H18.8708C19.1186 22.5083 19.3608 22.4332 19.5644 22.2918C22.1971 20.559 23.7994 17.6613 23.7994 14.5001C23.7994 11.3387 22.1971 8.44114 19.5603 6.70828C19.3454 6.57841 19.0858 6.49318 18.8667 6.49318H10.125C9.87717 6.49175 9.63493 6.56686 9.43134 6.70828C6.79057 8.44114 5.19232 11.3387 5.19232 14.5001C5.19232 17.6613 6.79463 20.559 9.4354 22.2918ZM10.5591 9.09045H18.4773C19.3347 9.70778 20.0331 10.5203 20.5149 11.4609C20.9966 12.4015 21.2479 13.4432 21.2479 14.5001C21.2479 15.5569 20.9966 16.5986 20.5149 17.5392C20.0331 18.4798 19.3347 19.2923 18.4773 19.9097H10.5591C9.70158 19.2923 9.00317 18.4798 8.52144 17.5392C8.03971 16.5986 7.78847 15.5569 7.78847 14.5001C7.78847 13.4432 8.03971 12.4015 8.52144 11.4609C9.00317 10.5203 9.70158 9.70778 10.5591 9.09045Z" fill="#B8B8B8"/>
<path id="Vector_4" d="M11.6827 15.149C12.0212 15.1548 12.3481 15.0258 12.5916 14.7903C12.835 14.5549 12.975 14.2324 12.9807 13.8938C12.9807 13.8792 12.9807 13.8649 12.9807 13.8503V11.6873C12.9807 11.3429 12.844 11.0126 12.6006 10.769C12.3571 10.5255 12.0269 10.3887 11.6827 10.3887C11.3384 10.3887 11.0082 10.5255 10.7648 10.769C10.5214 11.0126 10.3846 11.3429 10.3846 11.6873V13.8503C10.3846 14.5442 10.9931 15.149 11.6827 15.149Z" fill="#B8B8B8"/>
<path id="Vector_5" d="M17.3089 15.149C17.6475 15.1548 17.9744 15.0258 18.2179 14.7903C18.4613 14.5549 18.6013 14.2324 18.6071 13.8938C18.6071 13.8792 18.6071 13.8649 18.6071 13.8503V11.6873C18.6071 11.3429 18.4703 11.0126 18.2269 10.769C17.9834 10.5255 17.6533 10.3887 17.3089 10.3887C16.9647 10.3887 16.6346 10.5255 16.3911 10.769C16.1477 11.0126 16.0109 11.3429 16.0109 11.6873V13.8503C16.0109 14.5442 16.6153 15.149 17.3089 15.149Z" fill="#B8B8B8"/>
<path id="Vector_6" d="M12.9807 18.6109H16.0109V17.0972C16.0109 16.2733 15.3173 15.5835 14.4979 15.5835C13.6784 15.5835 12.9848 16.2774 12.9848 17.0972V18.6109H12.9807Z" fill="#B8B8B8"/>
<path id="Vector_7" d="M34.4878 11.2977V14.7439H32.5842V5.7627H35.1997C36.4194 5.7627 37.3221 5.98494 37.9079 6.42945C38.4936 6.87396 38.7863 7.54858 38.7857 8.45328C38.7931 8.9575 38.6406 9.4511 38.35 9.8631C38.0593 10.2749 37.6483 10.5975 37.1169 10.831C38.4676 12.8501 39.3478 14.1544 39.7572 14.7439H37.6442L35.5012 11.2977H34.4878ZM34.4878 9.74988H35.1016C35.7036 9.74988 36.1478 9.64952 36.4342 9.44876C36.7205 9.24802 36.8637 8.9327 36.8637 8.5028C36.8637 8.07695 36.7175 7.77394 36.4248 7.59376C36.1322 7.41358 35.6788 7.32348 35.0647 7.32348H34.4878V9.74988Z" fill="#D9002A"/>
<path id="Vector_8" d="M49.0336 10.241C49.0336 11.7274 48.6652 12.87 47.9286 13.6686C47.1919 14.4673 46.1358 14.8666 44.76 14.8666C43.385 14.8666 42.329 14.4673 41.592 13.6686C40.8551 12.87 40.4866 11.7234 40.4866 10.2289C40.4866 8.73382 40.8561 7.59224 41.5948 6.80414C42.3336 6.01604 43.3929 5.62184 44.7726 5.62158C46.1519 5.62158 47.2065 6.01887 47.9368 6.81347C48.6669 7.60807 49.0325 8.7506 49.0336 10.241ZM42.4824 10.241C42.4824 11.2442 42.6726 11.9997 43.0531 12.5076C43.4336 13.0154 44.0026 13.2696 44.76 13.2701C46.2789 13.2701 47.0382 12.2607 47.0382 10.2419C47.0382 8.2187 46.2831 7.20712 44.7726 7.20712C44.0155 7.20712 43.4443 7.46211 43.0592 7.9721C42.6741 8.48208 42.4819 9.23839 42.4824 10.241Z" fill="#D9002A"/>
<path id="Vector_9" d="M56.7458 14.7439H50.0652V13.5094L54.3695 7.33566H50.182V5.7627H56.6286V6.99111L52.3287 13.171H56.7433L56.7458 14.7439Z" fill="#D9002A"/>
<path id="Vector_10" d="M63.3465 14.7439H58.1765V5.7627H63.3465V7.32307H60.0798V9.29496H63.1188V10.8549H60.0794V13.171H63.3461L63.3465 14.7439Z" fill="#D9002A"/>
<path id="Vector_11" d="M68.6824 14.7439H66.779V7.34783H64.3411V5.7627H71.12V7.34742H68.6824V14.7439Z" fill="#D9002A"/>
<path id="Vector_12" d="M79.7225 14.7439H77.56L75.2072 10.96L74.4028 11.5375V14.7435H72.5016V5.7627H74.4048V9.87284L75.1541 8.81771L77.5855 5.7627H79.6978L76.5662 9.73974L79.7225 14.7439Z" fill="#D9002A"/>
<path id="Vector_13" d="M86.3475 14.7438L85.6985 12.606H82.4257L81.7747 14.7438H79.7242L82.8922 5.72607H85.2194L88.4001 14.7438H86.3475ZM85.2426 11.0103C84.6406 9.07343 84.3017 7.97771 84.226 7.72312C84.1503 7.46854 84.0962 7.26778 84.0638 7.12088C83.9285 7.6452 83.5418 8.9414 82.9037 11.0095L85.2426 11.0103Z" fill="#D9002A"/>
<path id="Vector_14" d="M95.1773 14.7439H88.9019V13.4234L91.1553 11.1443C91.8224 10.4604 92.2583 9.98689 92.4631 9.72392C92.6435 9.50069 92.7923 9.25366 92.9052 8.9898C92.9948 8.76717 93.0407 8.52934 93.0403 8.28934C93.0403 7.92897 92.9411 7.66072 92.7426 7.4846C92.544 7.30847 92.2791 7.22055 91.9476 7.22081C91.5956 7.22144 91.2485 7.30338 90.9334 7.46026C90.5659 7.64621 90.2219 7.87506 89.9083 8.14203L88.8775 6.91808C89.3194 6.54148 89.6858 6.27525 89.9764 6.11942C90.2773 5.96012 90.5971 5.83946 90.928 5.76027C91.3065 5.67232 91.6941 5.62995 92.0826 5.63406C92.6432 5.63406 93.1384 5.73647 93.5684 5.94127C93.9985 6.14606 94.332 6.43271 94.5692 6.8012C94.8069 7.16968 94.9256 7.59147 94.9254 8.06655C94.9282 8.46505 94.8543 8.86038 94.7075 9.23086C94.5623 9.59312 94.3372 9.96472 94.0321 10.3456C93.7271 10.7266 93.1897 11.2686 92.4201 11.9718L91.266 13.0594V13.1487H95.1773V14.7439Z" fill="#D9002A"/>
<path id="Vector_15" d="M102.558 12.8824H101.477V14.7435H99.6228V12.8824H95.7914V11.5615L99.7263 5.7627H101.476V11.4081H102.557L102.558 12.8824ZM99.6228 11.4081V9.88462C99.6228 9.63058 99.6331 9.26196 99.6536 8.77876C99.6742 8.29556 99.6905 8.01513 99.7026 7.93749H99.6536C99.4985 8.27939 99.3155 8.60798 99.1067 8.91999L97.4615 11.4081H99.6228Z" fill="#D9002A"/>
<path id="Vector_16" d="M103.473 13.865C103.473 13.5211 103.565 13.2611 103.749 13.085C103.933 12.9089 104.201 12.8208 104.553 12.8208C104.893 12.8208 105.156 12.9109 105.342 13.0911C105.529 13.2713 105.622 13.5292 105.622 13.865C105.622 14.1896 105.527 14.4446 105.338 14.6299C105.148 14.8153 104.886 14.9084 104.552 14.9095C104.208 14.9095 103.942 14.8184 103.754 14.6361C103.565 14.4537 103.472 14.1967 103.473 13.865Z" fill="#D9002A"/>
<path id="Vector_17" d="M110.11 14.8667C107.974 14.8667 106.905 13.6935 106.905 11.3467C106.905 10.1796 107.196 9.28783 107.777 8.67153C108.358 8.05522 109.191 7.74707 110.276 7.74707C111.071 7.74707 111.783 7.90277 112.413 8.21418L111.86 9.66377C111.566 9.54473 111.292 9.44745 111.038 9.37197C110.791 9.29717 110.534 9.2589 110.276 9.25835C109.303 9.25835 108.816 9.95041 108.816 11.3345C108.816 12.6778 109.303 13.3494 110.276 13.3494C110.615 13.3527 110.953 13.304 111.277 13.205C111.604 13.099 111.914 12.9471 112.198 12.7537V14.3566C111.917 14.5402 111.606 14.6752 111.28 14.7561C110.971 14.8298 110.581 14.8667 110.11 14.8667Z" fill="#D9002A"/>
<path id="Vector_18" d="M120.027 11.2976C120.027 12.4158 119.732 13.2902 119.142 13.9208C118.553 14.5514 117.732 14.8667 116.68 14.8667C116.021 14.8667 115.44 14.7224 114.936 14.4338C114.433 14.145 114.029 13.7112 113.776 13.1891C113.505 12.648 113.37 12.0174 113.37 11.2972C113.37 10.1752 113.663 9.30299 114.248 8.68046C114.834 8.05793 115.657 7.7468 116.716 7.74707C117.376 7.74707 117.957 7.89046 118.461 8.17724C118.963 8.46233 119.368 8.89264 119.621 9.41175C119.891 9.94824 120.027 10.5769 120.027 11.2976ZM115.28 11.2976C115.28 11.9778 115.392 12.4918 115.615 12.8397C115.838 13.1876 116.201 13.3616 116.705 13.3616C117.205 13.3616 117.564 13.1886 117.783 12.8426C118.002 12.4965 118.111 11.9815 118.111 11.2976C118.111 10.618 118.001 10.1081 117.78 9.76806C117.558 9.42798 117.196 9.25808 116.693 9.25835C116.194 9.25835 115.833 9.42731 115.612 9.76522C115.391 10.1031 115.28 10.6139 115.28 11.2976Z" fill="#D9002A"/>
<path id="Vector_19" d="M127.72 14.7437H125.848V10.7326C125.848 10.2369 125.765 9.86519 125.599 9.61738C125.433 9.36955 125.172 9.24578 124.816 9.24605C124.337 9.24605 123.989 9.4219 123.772 9.77362C123.556 10.1253 123.447 10.7048 123.448 11.5122V14.7433H121.573V7.876H123.003L123.255 8.7546H123.359C123.548 8.43549 123.825 8.17827 124.158 8.01438C124.506 7.83609 124.905 7.74695 125.355 7.74695C126.383 7.74695 127.079 8.08283 127.443 8.7546H127.608C127.798 8.42996 128.082 8.17069 128.422 8.01113C128.8 7.83051 129.216 7.74008 129.635 7.74695C130.412 7.74695 131.001 7.94661 131.4 8.34593C131.799 8.74527 131.999 9.3851 131.999 10.2655V14.7437H130.12V10.7326C130.12 10.2369 130.037 9.86519 129.871 9.61738C129.705 9.36955 129.444 9.24578 129.088 9.24605C128.629 9.24605 128.286 9.40986 128.06 9.73749C127.834 10.0651 127.72 10.5851 127.719 11.2975L127.72 14.7437Z" fill="#D9002A"/>
<path id="Vector_20" d="M33.1528 17.9585H34.0149V20.1406L34.0023 20.725L33.9714 21.3898H33.9901L36.0755 17.9585H37.222V22.4777H36.37V20.3078C36.37 20.0172 36.3885 19.5866 36.4256 19.0156H36.4008L34.3061 22.4777H33.1528V17.9585Z" fill="#B8B8B8"/>
<path id="Vector_21" d="M39.2307 19.022V20.351H40.5466V19.022H41.4893V22.4779H40.5466V21.0527H39.2307V22.4779H38.2879V19.022H39.2307Z" fill="#B8B8B8"/>
<path id="Vector_22" d="M45.3361 19.022V19.7297H44.2051V22.4779H43.2628V19.7297H42.127V19.022H45.3361Z" fill="#B8B8B8"/>
<path id="Vector_23" d="M47.542 22.5396C46.9857 22.5396 46.551 22.3861 46.2378 22.079C45.9247 21.7719 45.7682 21.3372 45.7685 20.7747C45.7685 20.1954 45.9132 19.7477 46.2026 19.4314C46.4919 19.1152 46.892 18.957 47.4029 18.957C47.8913 18.957 48.2713 19.0961 48.5431 19.3742C48.8149 19.6523 48.9501 20.0367 48.9488 20.5275V20.985H46.7209C46.7315 21.2528 46.8108 21.4618 46.9591 21.6123C47.1073 21.7628 47.3152 21.838 47.583 21.838C47.7815 21.8391 47.9795 21.8174 48.1732 21.773C48.3735 21.7246 48.5682 21.6553 48.754 21.5661V22.2965C48.5868 22.3799 48.4096 22.4417 48.2267 22.4804C48.0011 22.5236 47.7717 22.5436 47.542 22.5396ZM47.4089 19.6279C47.2094 19.6279 47.0528 19.6912 46.9392 19.8177C46.8256 19.9444 46.7608 20.1243 46.7449 20.3575H48.0693C48.0648 20.1246 48.0044 19.9448 47.8868 19.8177C47.7691 19.6908 47.6094 19.6279 47.4093 19.6279H47.4089Z" fill="#B8B8B8"/>
<path id="Vector_24" d="M51.6147 22.5398C51.209 22.5398 50.8909 22.3925 50.6602 22.0978H50.6106C50.6434 22.3863 50.66 22.5532 50.6602 22.5986V23.9991H49.7175V19.0222H50.4837L50.6168 19.4685H50.6602C50.8804 19.1268 51.2067 18.9558 51.6395 18.9556C52.0475 18.9556 52.367 19.1132 52.5976 19.4283C52.8283 19.7436 52.9436 20.1816 52.9436 20.7425C52.9436 21.1111 52.8895 21.4316 52.7814 21.7039C52.6732 21.9759 52.5192 22.183 52.3193 22.3252C52.1132 22.4698 51.8664 22.5449 51.6147 22.5398ZM51.3368 19.7116C51.1039 19.7116 50.9339 19.7832 50.827 19.9264C50.7198 20.0695 50.6642 20.3058 50.6602 20.6357V20.7376C50.6602 21.1088 50.7152 21.3747 50.8253 21.5355C50.9353 21.6961 51.11 21.7765 51.3489 21.7765C51.7715 21.7765 51.9826 21.4281 51.9826 20.7315C51.9826 20.3913 51.9305 20.1364 51.8264 19.9665C51.7223 19.7966 51.5591 19.7116 51.3368 19.7116Z" fill="#B8B8B8"/>
<path id="Vector_25" d="M54.6644 19.022V20.351H55.9795V19.022H56.9222V22.4779H55.9795V21.0527H54.6632V22.4779H53.7209V19.022H54.6644Z" fill="#B8B8B8"/>
<path id="Vector_26" d="M59.4753 22.5396C58.9191 22.5396 58.4845 22.3861 58.1716 22.079C57.8588 21.7719 57.7022 21.3372 57.7019 20.7747C57.7019 20.1954 57.8466 19.7477 58.1359 19.4314C58.4253 19.1152 58.8255 18.957 59.3366 18.957C59.8233 18.957 60.2033 19.0961 60.4765 19.3742C60.7497 19.6523 60.8856 20.0367 60.8845 20.5275V20.985H58.6568C58.667 21.2528 58.7463 21.4618 58.8944 21.6123C59.0427 21.7628 59.2508 21.838 59.5187 21.838C59.7173 21.8391 59.9154 21.8174 60.1089 21.773C60.3092 21.7245 60.504 21.6551 60.6898 21.5661V22.2965C60.5225 22.3799 60.3453 22.4415 60.1625 22.4804C59.9361 22.5239 59.7058 22.5437 59.4753 22.5396ZM59.3427 19.6279C59.1426 19.6279 58.986 19.6912 58.873 19.8177C58.76 19.9444 58.695 20.1243 58.6782 20.3575H60.0007C59.9966 20.1246 59.9359 19.9447 59.8185 19.8177C59.7012 19.6909 59.5425 19.6276 59.3427 19.6279Z" fill="#B8B8B8"/>
<path id="Vector_27" d="M64.5091 19.022V19.7297H63.378V22.4779H62.4357V19.7297H61.2999V19.022H64.5091Z" fill="#B8B8B8"/>
<path id="Vector_28" d="M64.8458 21.167V20.396H66.5048V21.167H64.8458Z" fill="#B8B8B8"/>
<path id="Vector_29" d="M71.5414 22.4782H70.6611V19.7548L70.6117 19.9463C70.5312 20.2807 70.4312 20.6099 70.3119 20.9325L69.7001 22.4782H69.0296L68.4085 20.9203C68.2942 20.608 68.1993 20.289 68.1246 19.9649L68.0658 19.7548V22.4782H67.1884V19.0223H68.4864L69.0799 20.4967C69.1479 20.6754 69.2052 20.8583 69.2511 21.0441C69.2973 21.2176 69.3329 21.3937 69.3578 21.5716C69.4259 21.2624 69.4789 21.0404 69.5167 20.9057C69.552 20.7794 69.5938 20.6551 69.6422 20.5332C69.6875 20.4198 69.8925 19.9158 70.2571 19.0215H71.5422L71.5414 22.4782Z" fill="#B8B8B8"/>
<path id="Vector_30" d="M74.724 22.4777L74.5419 22.0077H74.5176C74.3589 22.2079 74.1956 22.3465 74.028 22.4237C73.8603 22.5008 73.6414 22.5394 73.3712 22.5394C73.0395 22.5394 72.7783 22.4446 72.588 22.2553C72.3976 22.0659 72.3023 21.7954 72.302 21.4437C72.302 21.0768 72.4303 20.8062 72.6869 20.632C72.9435 20.4578 73.3303 20.3614 73.8471 20.343L74.4467 20.3243V20.173C74.4467 19.823 74.2674 19.6477 73.9088 19.6475C73.6329 19.6475 73.3084 19.7309 72.9352 19.8978L72.6228 19.2612C73.0318 19.0512 73.486 18.9449 73.9457 18.9515C74.4089 18.9515 74.7642 19.0524 75.0117 19.2542C75.2592 19.4561 75.3827 19.7632 75.3824 20.1755V22.4785L74.724 22.4777ZM74.4462 20.8763L74.0811 20.8888C73.8069 20.8969 73.603 20.9463 73.4695 21.037C73.3359 21.1277 73.2682 21.2657 73.2666 21.4513C73.2666 21.717 73.4191 21.85 73.7242 21.8502C73.9424 21.8502 74.1169 21.7873 74.2478 21.6616C74.3787 21.5357 74.4442 21.3689 74.4442 21.1608L74.4462 20.8763Z" fill="#B8B8B8"/>
<path id="Vector_31" d="M78.7364 19.022V19.7297H77.2935V22.4779H76.3508V19.022H78.7364Z" fill="#B8B8B8"/>
<path id="Vector_32" d="M81.5714 22.478L81.3889 22.0081H81.3645C81.2056 22.2084 81.0421 22.347 80.8745 22.4241C80.7068 22.5013 80.488 22.5397 80.2182 22.5397C79.8864 22.5397 79.6252 22.445 79.4349 22.2557C79.2445 22.0663 79.1499 21.7957 79.1509 21.444C79.1509 21.0771 79.2791 20.8067 79.5355 20.6324C79.7918 20.4581 80.1787 20.3618 80.696 20.3435L81.2952 20.3248V20.1735C81.2952 19.8233 81.1161 19.6482 80.7576 19.6479C80.4816 19.6479 80.1571 19.7314 79.7842 19.8982L79.4718 19.2615C79.8804 19.0508 80.3344 18.9436 80.7943 18.9494C81.2578 18.9494 81.613 19.0504 81.8602 19.2522C82.1074 19.4541 82.2309 19.761 82.2309 20.1735V22.4765L81.5714 22.478ZM81.2919 20.8767L80.9268 20.8893C80.6532 20.8974 80.4492 20.9468 80.3152 21.0374C80.181 21.128 80.1133 21.2662 80.1122 21.4518C80.1122 21.7174 80.2649 21.8504 80.5699 21.8507C80.7881 21.8507 80.9627 21.7878 81.0935 21.6619C81.2244 21.5362 81.2897 21.3692 81.2895 21.1612L81.2919 20.8767Z" fill="#B8B8B8"/>
<path id="Vector_33" d="M84.0589 20.3509C84.415 20.3509 84.6679 20.3222 84.8174 20.2644C84.967 20.2069 85.0416 20.1152 85.0414 19.9894C85.0422 19.9363 85.0271 19.884 84.9983 19.8394C84.9693 19.7948 84.9279 19.76 84.879 19.739C84.7709 19.6832 84.5907 19.6553 84.3383 19.6553C84.1573 19.6579 83.9767 19.6776 83.7992 19.7143C83.6115 19.7502 83.4278 19.8045 83.2507 19.8765L82.9725 19.2183C83.2037 19.1295 83.4427 19.0627 83.6865 19.0191C83.9412 18.977 84.1991 18.9567 84.4572 18.9586C84.888 18.9586 85.2331 19.041 85.4924 19.2057C85.7518 19.3705 85.8816 19.594 85.8819 19.8765C85.8819 20.2661 85.652 20.5196 85.1922 20.6371V20.6678C85.4745 20.7383 85.6759 20.8376 85.7962 20.9662C85.9166 21.0946 85.9768 21.2632 85.9771 21.4718C85.9793 21.6767 85.9073 21.8753 85.7743 22.031C85.6392 22.1934 85.4424 22.3192 85.1841 22.4084C84.8908 22.5024 84.5839 22.5472 84.2759 22.5412C83.6991 22.5412 83.2562 22.4701 82.9474 22.3281V21.5489C83.1339 21.6346 83.329 21.6998 83.5295 21.7437C83.7306 21.79 83.9364 21.8138 84.1428 21.8147C84.4498 21.8147 84.6796 21.7802 84.8324 21.7113C84.9852 21.6422 85.0614 21.5439 85.0612 21.4162C85.0612 21.2757 84.981 21.1722 84.8203 21.1053C84.6596 21.0386 84.4124 21.0052 84.0783 21.0052H83.7133V20.3509H84.0589Z" fill="#B8B8B8"/>
<path id="Vector_34" d="M87.6245 19.022V20.3883C87.6245 20.5326 87.6009 20.8849 87.5536 21.4455L89.1477 19.022H90.2836V22.4779H89.3721V21.0981C89.3721 20.8527 89.3927 20.5064 89.4337 20.0591L87.8456 22.4767H86.7147V19.022H87.6245Z" fill="#B8B8B8"/>
<path id="Vector_35" d="M92.2128 19.022V20.351H93.5291V19.022H94.4718V22.4779H93.5291V21.0527H92.2128V22.4779H91.2709V19.022H92.2128Z" fill="#B8B8B8"/>
<path id="Vector_36" d="M97.9016 22.5396C97.4689 22.5396 97.1146 22.4686 96.8384 22.3266V21.5896C97.197 21.7543 97.5338 21.8368 97.8489 21.8368C98.0757 21.8368 98.2516 21.7709 98.3762 21.6391C98.5008 21.5074 98.573 21.3095 98.5924 21.0454H97.2866V20.4192H98.5903C98.5742 20.1657 98.5108 19.975 98.4005 19.8474C98.2903 19.7196 98.1322 19.6558 97.9264 19.6555C97.6808 19.6555 97.4129 19.7203 97.1228 19.8503L96.857 19.2042C97.0253 19.1276 97.2007 19.0681 97.3808 19.0264C97.5715 18.9807 97.7671 18.9573 97.9633 18.957C98.5041 18.957 98.9059 19.1034 99.1685 19.3961C99.431 19.6889 99.5629 20.1278 99.5639 20.713C99.5639 21.3145 99.4244 21.7693 99.1453 22.0778C98.8662 22.3863 98.4516 22.5402 97.9016 22.5396Z" fill="#B8B8B8"/>
<path id="Vector_37" d="M103.44 22.4779H102.498V19.7297H101.629C101.563 20.5026 101.483 21.0792 101.389 21.4593C101.294 21.8394 101.168 22.1146 101.01 22.2847C100.852 22.4549 100.646 22.5399 100.391 22.5396C100.172 22.5396 99.9926 22.5068 99.8528 22.441V21.6866C99.9487 21.7268 100.052 21.7477 100.156 21.7482C100.273 21.7482 100.372 21.6638 100.451 21.495C100.53 21.3262 100.601 21.0443 100.664 20.6493C100.727 20.2547 100.781 19.7124 100.826 19.022H103.44V22.4779Z" fill="#B8B8B8"/>
<path id="Vector_38" d="M105.991 22.5396C105.435 22.5396 105 22.3861 104.687 22.079C104.374 21.7719 104.217 21.3372 104.217 20.7747C104.217 20.1954 104.362 19.7477 104.651 19.4314C104.941 19.1152 105.341 18.957 105.852 18.957C106.339 18.957 106.719 19.0961 106.992 19.3742C107.265 19.6523 107.401 20.0367 107.4 20.5275V20.985H105.172C105.182 21.2528 105.262 21.4618 105.41 21.6123C105.558 21.7628 105.766 21.838 106.034 21.838C106.233 21.8391 106.431 21.8174 106.624 21.773C106.825 21.7245 107.019 21.6551 107.205 21.5661V22.2965C107.038 22.3799 106.861 22.4417 106.678 22.4804C106.452 22.5238 106.221 22.5436 105.991 22.5396ZM105.858 19.6279C105.658 19.6279 105.502 19.6912 105.388 19.8177C105.275 19.9444 105.21 20.1243 105.193 20.3575H106.516C106.512 20.1246 106.451 19.9447 106.334 19.8177C106.217 19.6912 106.058 19.6279 105.858 19.6279Z" fill="#B8B8B8"/>
<path id="Vector_39" d="M110.431 19.022H111.469L110.1 20.6789L111.59 22.4779H110.52L109.108 20.7252V22.4779H108.166V19.022H109.108V20.7004L110.431 19.022Z" fill="#B8B8B8"/>
<path id="Vector_40" d="M114.942 19.022V19.7297H113.812V22.4779H112.869V19.7297H111.735V19.022H114.942Z" fill="#B8B8B8"/>
<path id="Vector_41" d="M117.482 22.5398C117.077 22.5398 116.758 22.3925 116.527 22.0978H116.478C116.511 22.3863 116.527 22.5532 116.527 22.5986V23.9991H115.585V19.0222H116.351L116.484 19.4685H116.527C116.748 19.1268 117.074 18.9558 117.507 18.9556C117.915 18.9556 118.234 19.1132 118.465 19.4283C118.695 19.7436 118.811 20.1816 118.811 20.7425C118.811 21.1111 118.757 21.4316 118.649 21.7039C118.54 21.9759 118.387 22.183 118.187 22.3252C117.981 22.4698 117.734 22.5449 117.482 22.5398ZM117.204 19.7116C116.971 19.7116 116.801 19.7832 116.694 19.9264C116.587 20.0695 116.531 20.3058 116.527 20.6357V20.7376C116.527 21.1088 116.583 21.3747 116.693 21.5355C116.803 21.6961 116.978 21.7765 117.217 21.7765C117.639 21.7765 117.85 21.4281 117.85 20.7315C117.85 20.3913 117.798 20.1364 117.694 19.9665C117.59 19.7966 117.427 19.7116 117.204 19.7116Z" fill="#B8B8B8"/>
<path id="Vector_42" d="M120.501 19.022V20.3883C120.501 20.5326 120.477 20.8849 120.43 21.4455L122.024 19.022H123.16V22.4779H122.249V21.0981C122.249 20.8527 122.269 20.5064 122.31 20.0591L120.721 22.4779H119.59V19.022H120.501Z" fill="#B8B8B8"/>
<path id="Vector_43" d="M126.412 19.022H127.45L126.081 20.6789L127.571 22.4779H126.502L125.089 20.7252V22.4779H124.147V19.022H125.089V20.7004L126.412 19.022Z" fill="#B8B8B8"/>
<path id="Vector_44" d="M128.977 19.022V20.3883C128.977 20.5326 128.953 20.8849 128.906 21.4455L130.5 19.022H131.636V22.4779H130.724V21.0981C130.724 20.8527 130.745 20.5064 130.786 20.0591L129.198 22.4767H128.067V19.022H128.977Z" fill="#B8B8B8"/>
</g>
</g>
</g>
</g>
<defs>
<clipPath id="clip0_245_2546">
<rect width="132" height="29" fill="white"/>
</clipPath>
</defs>
</svg>
