<svg width="154" height="54" viewBox="0 0 154 54" fill="none" xmlns="http://www.w3.org/2000/svg">
<g id="tochka sily 1">
<g id="&#208;&#159;&#208;&#190;&#208;&#180;&#208;&#187;&#208;&#190;&#208;&#182;&#208;&#186;&#208;&#176; &#208;&#177;&#209;&#131;&#208;&#186;&#208;&#178;">
<path id="Vector" d="M58.8741 11.9941H14.9577L13.2092 13.7367V17.9268H60.6225V13.7367L58.8741 11.9941Z" fill="#FF7F30"/>
<path id="Vector_2" d="M130.72 24.9454V17.4941H78.2096L74.9621 20.5539H70.9246L70.4113 17.4941H13.2092V26.0285H16.4949V31.5212H15.5201V38.9733H68.9669H73.5314V35.9126H74.9667L78.2132 38.9733H130.72V31.5212H129.325V24.9454H130.72Z" fill="#FF7F30"/>
</g>
<g id="&#208;&#155;&#208;&#190;&#208;&#179;&#208;&#190;&#209;&#130;&#208;&#184;&#208;&#191;">
<path id="Vector_3" d="M25.0459 24.6679H22.6504V23.5857H21.7593V32.882H22.7341V37.6127H16.8854V32.882H17.8602V23.5857H16.9691V24.6688H14.5745V18.855H25.0459V24.6679ZM47.8692 23.5857V18.855H42.6868V23.5857H43.3657L43.4031 25.8925L42.8078 26.503H41.904L41.2842 25.8925V23.5857H42.006V18.855H36.8526V23.5857H37.5489V28.1577L40.0427 30.6976H43.3821V32.882H42.6868V37.6127H47.8747V32.882H47.2867V23.5857H47.8692ZM58.7166 32.882H59.8998V37.6127H55.6111L53.5177 30.5824L52.8806 31.1095V32.882H53.5487V37.6127H48.4481V32.882H48.9833V23.5857H48.4481V18.855H53.5505V23.5857H52.8806V25.4127L55.0386 23.5812H54.1639V18.855H60.6261V23.5803H58.6511L56.3256 25.4952L58.7166 32.882ZM71.3597 32.882H71.9167V37.6127H66.1827V32.882H67.1921L66.798 30.1171H64.8866L64.5089 32.8802H65.5173V37.6109H60.4814V32.882H61.0384L63.3912 18.855H69.006L71.3597 32.882ZM65.2397 27.5299H66.4621L65.916 23.5857H65.7767L65.2397 27.5299ZM76.787 35.4129V21.0738L79.0934 18.855H84.9412L87.3486 21.2063V26.5185H83.3712V24.1953L82.7632 23.5857H81.6864L81.0748 24.1962V32.2216L81.6864 32.8321H82.7632L83.3748 32.2216V29.8241H87.3495V35.2306L84.9421 37.6127H79.0934L76.787 35.4129ZM122.69 37.6127V32.882H125.155V23.5857H122.69V18.855H129.379V23.5857H126.913V32.882H129.379V37.6127H122.69ZM112.861 18.855H118.793V23.5857H117.456V25.9442H120.321L122.695 28.3391V35.1299L120.27 37.6091H112.862V32.882H113.559V23.5857H112.862L112.861 18.855ZM117.456 29.9048V32.882H118.031L118.643 32.2724V30.5153L118.031 29.9048H117.456ZM99.2253 23.5857V18.855H93.9336V23.5857H94.6299V24.7378L92.5283 26.7389V23.5857H93.2246V18.855H87.9329V23.5857H88.6292V32.882H87.9329V37.6127H93.2246V32.882H92.5283V31.7309L94.6299 29.7297V32.882H93.9336V37.6127H99.2253V32.882H98.5291V23.5857H99.2253ZM112.293 23.5857V18.855H100.88V23.5857H102.133L102.121 31.8751L101.126 32.8829H99.8078V37.6136H103.83L106.295 35.1508V23.5857H107.696V32.882H107V37.6118H112.291V32.882H111.594V23.5857H112.293ZM36.2737 21.4576L33.4522 18.855H28.0959L25.6384 21.3668L25.6275 35.1916L27.994 37.6127H33.8937L36.2601 35.1916L36.2737 21.4576ZM32.0087 32.2724L31.4007 32.882H30.506L29.8944 32.2724V24.1989L30.506 23.5884H31.4007L32.0132 24.1989L32.0087 32.2724Z" fill="#414042"/>
<path id="Vector_4" d="M18.2697 13.9399V14.6956H17.8329L17.8092 14.379H17.2868V16.3747L17.5908 16.4328V16.7729H16.413V16.4328L16.717 16.3747V14.379H16.2009L16.1736 14.6956H15.7386V13.9418L18.2697 13.9399Z" fill="#414042"/>
<path id="Vector_5" d="M19.8061 13.9399C20.1307 13.9399 20.3871 14.0231 20.5752 14.1894C20.6677 14.271 20.7409 14.3719 20.7897 14.485C20.8384 14.598 20.8616 14.7204 20.8574 14.8434C20.862 14.9664 20.8391 15.0888 20.7903 15.2018C20.7415 15.3148 20.668 15.4155 20.5752 15.4966C20.3877 15.6605 20.1313 15.7427 19.8061 15.7433H19.3265V16.3711L19.6304 16.4291V16.7693H18.4545V16.4291L18.7567 16.3711V14.34L18.4545 14.2819V13.9399H19.8061ZM19.3265 15.3061H19.8061C19.8692 15.313 19.9331 15.306 19.9932 15.2857C20.0533 15.2653 20.1083 15.2321 20.1542 15.1884C20.2 15.1447 20.2358 15.0914 20.2588 15.0325C20.2819 14.9735 20.2917 14.9102 20.2876 14.8471C20.2919 14.7234 20.2482 14.6029 20.1656 14.5105C20.1188 14.4639 20.0625 14.4279 20.0004 14.4049C19.9384 14.3818 19.8721 14.3724 19.8061 14.3772H19.3265V15.3061Z" fill="#414042"/>
<path id="Vector_6" d="M22.8715 15.5256H21.9104V16.3339H22.826L22.8515 15.9964H23.2848V16.7693H21.0385V16.4291L21.3406 16.3711V14.34L21.0385 14.2819V13.9399H23.2811V14.7155H22.8451L22.8197 14.3772H21.9095V15.0884H22.8706L22.8715 15.5256Z" fill="#414042"/>
<path id="Vector_7" d="M23.5888 14.2819V13.9399H24.7647V14.2819L24.4607 14.34V15.1564H25.6184V14.34L25.3144 14.2819V13.9399H26.4904V14.2819L26.1864 14.34V16.3711L26.4904 16.4291V16.7693H25.3144V16.4291L25.6184 16.3711V15.5937H24.4607V16.3711L24.7647 16.4291V16.7693H23.5888V16.4291L23.8909 16.3711V14.34L23.5888 14.2819Z" fill="#414042"/>
<path id="Vector_8" d="M26.6815 16.4291L26.8845 16.4001L27.7482 13.9399H28.3307L29.189 16.4001L29.392 16.4291V16.7693H28.4245V16.4291L28.622 16.3947L28.4973 16.0055H27.578L27.4533 16.3947L27.6508 16.4291V16.7693H26.6815V16.4291ZM27.7109 15.5882H28.3626L28.0422 14.5904H28.0331L27.7109 15.5882Z" fill="#414042"/>
<path id="Vector_9" d="M30.9383 15.6111L30.5097 16.4084L30.6189 16.4293V16.7695H29.5458V16.4293L29.8289 16.3885L30.5033 15.2328L30.1392 14.6531C30.0941 14.5826 30.0389 14.519 29.9754 14.4644C29.9322 14.4318 29.8794 14.4143 29.8252 14.4145C29.7999 14.4141 29.7746 14.4162 29.7497 14.4209L29.6787 14.4372L29.5949 14.0118C29.6434 13.9805 29.6961 13.9564 29.7515 13.9401C29.8141 13.9215 29.8791 13.9123 29.9444 13.9129C30.0641 13.9066 30.1827 13.9384 30.283 14.0036C30.3949 14.0936 30.4877 14.205 30.5561 14.3311L30.9966 15.0949H31.2915V14.3383L30.9866 14.2803V13.9383H32.1625V14.2803L31.8585 14.3383V15.0949H32.1534L32.5839 14.3329C32.6483 14.207 32.7378 14.0956 32.847 14.0054C32.9483 13.9401 33.0678 13.9084 33.1883 13.9147C33.2524 13.9141 33.3162 13.9233 33.3776 13.9419C33.4343 13.9591 33.4887 13.9832 33.5396 14.0136L33.4595 14.439L33.3858 14.4227C33.3618 14.4182 33.3374 14.416 33.313 14.4164C33.2582 14.4159 33.2048 14.4334 33.161 14.4662C33.0983 14.5205 33.0446 14.5842 33.0017 14.6549L32.6376 15.2418L33.2966 16.3903L33.5915 16.4311V16.7713H32.5084V16.4311L32.6212 16.4102L32.1998 15.6129H31.8558V16.373L32.1598 16.4311V16.7713H30.9866V16.4311L31.2915 16.373V15.6129L30.9383 15.6111Z" fill="#414042"/>
<path id="Vector_10" d="M35.6048 15.5254H34.6427V16.3337H35.5593L35.5847 15.9962H36.018V16.7691H33.7717V16.4289L34.0739 16.3709V14.3398L33.7717 14.2818V13.9398H36.0143V14.7154H35.5775L35.552 14.377H34.6418V15.0882H35.6039L35.6048 15.5254ZM34.6609 13.6576H34.1403V13.2612H34.6609V13.6576ZM35.6357 13.6576H35.1151V13.2612H35.6357V13.6576Z" fill="#414042"/>
<path id="Vector_11" d="M37.6736 13.9399C37.9985 13.9399 38.2542 14.0234 38.4426 14.1894C38.5349 14.2711 38.608 14.372 38.6566 14.4851C38.7052 14.5982 38.7282 14.7205 38.7239 14.8434C38.7287 14.9663 38.706 15.0887 38.6573 15.2017C38.6087 15.3147 38.5353 15.4154 38.4426 15.4966C38.2542 15.6608 37.9985 15.7433 37.6736 15.7433H37.1939V16.3711L37.4979 16.4291V16.7693H36.322V16.4291L36.6241 16.3711V14.34L36.322 14.2819V13.9399H37.6736ZM37.1939 15.3061H37.6736C37.7367 15.313 37.8005 15.306 37.8607 15.2857C37.9208 15.2653 37.9757 15.2321 38.0216 15.1884C38.0675 15.1447 38.1032 15.0914 38.1263 15.0325C38.1493 14.9735 38.1591 14.9102 38.155 14.8471C38.1593 14.7234 38.1157 14.6029 38.0331 14.5105C37.9862 14.4639 37.9299 14.4279 37.8679 14.4049C37.8058 14.3818 37.7396 14.3724 37.6736 14.3772H37.1939V15.3061Z" fill="#414042"/>
<path id="Vector_12" d="M38.9059 14.2819V13.9399H40.0819V14.2819L39.777 14.34V15.1564H40.9356V14.34L40.6316 14.2819V13.9399H41.8076V14.2819L41.5026 14.34V16.3711L41.8076 16.4291V16.7693H40.6316V16.4291L40.9356 16.3711V15.5937H39.7742V16.3711L40.0791 16.4291V16.7693H38.9059V16.4291L39.2081 16.3711V14.34L38.9059 14.2819Z" fill="#414042"/>
<path id="Vector_13" d="M42.8852 13.9399V14.9877H43.373C43.7013 14.9877 43.9613 15.0675 44.153 15.2272C44.2467 15.305 44.3213 15.4032 44.371 15.5142C44.4207 15.6252 44.4442 15.7461 44.4397 15.8676C44.4442 15.9912 44.4206 16.1143 44.3706 16.2276C44.3207 16.3408 44.2457 16.4413 44.1512 16.5217C43.9308 16.696 43.654 16.7841 43.373 16.7693H42.0078V16.4291L42.3118 16.3711V14.34L42.0078 14.2819V13.9399H42.8806H42.8852ZM43.1901 13.9399V14.2819L42.8852 14.34V13.9399H43.1901ZM42.8852 15.4213V16.3284H43.373C43.4404 16.3327 43.508 16.3232 43.5716 16.3004C43.6351 16.2777 43.6933 16.2421 43.7426 16.196C43.7856 16.1512 43.8192 16.0983 43.8414 16.0403C43.8636 15.9823 43.874 15.9205 43.8718 15.8585C43.874 15.7997 43.8636 15.7411 43.8415 15.6866C43.8194 15.632 43.786 15.5827 43.7435 15.5419C43.6409 15.4543 43.5078 15.4103 43.373 15.4195L42.8852 15.4213ZM44.4379 16.4255L44.7419 16.3674V14.34L44.4379 14.2819V13.9399H45.6139V14.2819L45.309 14.34V16.3711L45.6139 16.4291V16.7693H44.4379V16.4255Z" fill="#414042"/>
<path id="Vector_14" d="M47.0119 13.9399V14.2819L46.707 14.3399V15.6498H46.7188L47.8638 14.4932V14.3354L47.5616 14.2773V13.9354H48.7375V14.2773L48.4354 14.3354V16.3665L48.7375 16.4245V16.7647H47.5616V16.4245L47.8638 16.3665V15.0874H47.852L46.707 16.2467V16.371L47.0119 16.4291V16.7692H45.8359V16.4291L46.1399 16.371V14.3399L45.8359 14.2819V13.9399H47.0119ZM47.9375 13.1099V13.1217C47.9428 13.1978 47.9299 13.2741 47.8999 13.3443C47.8698 13.4144 47.8234 13.4765 47.7646 13.5253C47.6208 13.6269 47.4489 13.6814 47.2726 13.6814C47.0964 13.6814 46.9245 13.6269 46.7807 13.5253C46.7218 13.4767 46.6755 13.4146 46.6457 13.3443C46.6159 13.2741 46.6035 13.1977 46.6096 13.1217V13.1099H46.9955C46.9927 13.1458 46.9979 13.1819 47.0108 13.2156C47.0237 13.2493 47.0439 13.2797 47.07 13.3046C47.0962 13.3295 47.1275 13.3483 47.1619 13.3597C47.1962 13.371 47.2326 13.3746 47.2685 13.3702C47.3059 13.3734 47.3435 13.3685 47.3788 13.356C47.4141 13.3435 47.4464 13.3236 47.4733 13.2976C47.5185 13.2457 47.5422 13.1786 47.5398 13.1099H47.9375Z" fill="#414042"/>
<path id="Vector_15" d="M50.9956 15.1136C51.1174 15.1235 51.2381 15.0857 51.3324 15.0083C51.37 14.9697 51.3991 14.9237 51.4179 14.8733C51.4367 14.8228 51.4448 14.7691 51.4416 14.7153C51.4428 14.6632 51.4318 14.6115 51.4096 14.5642C51.3873 14.517 51.3543 14.4756 51.3133 14.4432C51.2002 14.3635 51.0628 14.3256 50.9246 14.3362C50.8241 14.3341 50.724 14.351 50.6298 14.386C50.5519 14.4123 50.4812 14.456 50.4231 14.514L50.3649 14.8659H49.9417V14.3325C50.0598 14.1969 50.2069 14.0893 50.3722 14.0178C50.5574 13.9355 50.7583 13.8943 50.9611 13.8971C51.2842 13.8971 51.5381 13.967 51.7256 14.1067C51.818 14.1759 51.892 14.2667 51.941 14.3711C51.99 14.4755 52.0126 14.5903 52.0068 14.7054C52.0074 14.8334 51.9662 14.9583 51.8894 15.061C51.807 15.1725 51.696 15.2599 51.5681 15.3141C51.7102 15.3602 51.8351 15.4477 51.9267 15.5653C52.0119 15.6845 52.0557 15.8282 52.0514 15.9744C52.0559 16.0935 52.0306 16.2117 51.9778 16.3186C51.9251 16.4255 51.8465 16.5176 51.7493 16.5868C51.5207 16.7292 51.2571 16.8058 50.9876 16.8082C50.718 16.8106 50.4531 16.7387 50.222 16.6004C50.1218 16.5356 50.0408 16.4452 49.9877 16.3386C49.9345 16.232 49.9111 16.1131 49.9198 15.9944V15.9826H50.4732C50.473 16.0361 50.485 16.089 50.5086 16.1371C50.5321 16.1853 50.5664 16.2274 50.6088 16.2602C50.7074 16.3381 50.8308 16.3781 50.9565 16.3727C51.0927 16.3804 51.2273 16.3403 51.337 16.2593C51.3815 16.2252 51.4174 16.1812 51.4417 16.1308C51.4661 16.0804 51.4782 16.0249 51.4771 15.969C51.4824 15.9087 51.4741 15.8481 51.4528 15.7914C51.4316 15.7348 51.3979 15.6836 51.3542 15.6415C51.2493 15.5646 51.1201 15.5276 50.9902 15.5372H50.6443V15.1118L50.9956 15.1136Z" fill="#414042"/>
<path id="Vector_16" d="M52.2708 16.4291L52.4738 16.4001L53.3357 13.9399H53.9182L54.7765 16.4001L54.9795 16.4291V16.7693H54.0138V16.4291L54.2104 16.3947L54.0857 16.0055H53.1655L53.0408 16.3947L53.2374 16.4291V16.7693H52.2708V16.4291ZM53.3002 15.5882H53.951L53.6315 14.5904H53.6197L53.3002 15.5882Z" fill="#414042"/>
<path id="Vector_17" d="M56.291 14.3773L56.2837 15.2281C56.2777 15.7779 56.1973 16.171 56.0425 16.4074C55.8887 16.6469 55.6502 16.7703 55.3262 16.7703H55.1861V16.3349H55.2616C55.3392 16.3342 55.4148 16.31 55.4782 16.2654C55.5416 16.2208 55.5899 16.158 55.6166 16.0854C55.6766 15.933 55.7076 15.6481 55.714 15.2291L55.724 14.341L55.4254 14.2829V13.9409H57.9621V14.2829L57.6581 14.341V16.372L57.9621 16.4301V16.7703H56.787V16.4301L57.091 16.372V14.3763L56.291 14.3773Z" fill="#414042"/>
</g>
<g id="&#208;&#160;&#209;&#131;&#208;&#186;&#208;&#176;">
<path id="Vector_18" d="M127.104 29.2767L123.626 29.02L123.58 29.8319L123.904 30.6601L126.978 30.7799L127.494 29.9607L127.104 29.2767Z" fill="#414042"/>
<path id="Vector_19" d="M127.045 27.5022L123.167 27.3398L122.903 28.3078L123.394 29.0126L127.104 29.2766L127.494 28.1862L127.045 27.5022Z" fill="#414042"/>
<path id="Vector_20" d="M126.999 30.7798L124.406 30.6719L124.385 31.5282L124.754 32.0843L126.805 32.0607L127.166 31.4266L126.999 30.7798Z" fill="#414042"/>
<path id="Vector_21" d="M138.01 25.0966L129.78 26.3521L128.812 24.9361L125.94 24.2539L125.028 25.0105L124.293 25.914L123.604 26.0401L123.392 27.34L123.057 27.7981L123.279 28.795L123.696 29.1588L123.762 30.0804L124.293 30.6683L124.786 30.7018L124.726 31.5536L125.189 32.0607L128.885 31.9591L130.018 31.0456L147.272 31.6915L135.08 29.3801L141.833 29.7992L137.801 27.2565L136.1 27.1422L137.755 26.6905L138.01 25.0966Z" fill="#414042"/>
<path id="Vector_22" d="M125.816 31.7659H128.584L129.207 30.3226L129.858 30.0469L150.442 31.8113L129.952 31.6716L128.763 32.3555L124.757 32.4263L125.816 31.7659Z" fill="#FF7F30"/>
<path id="Vector_23" d="M126.968 31.1216L123.894 31.0019L123.589 30.7842L123.264 29.956L123.241 29.8126L123.287 29.0007L123.651 28.6787L127.128 28.9354L127.401 29.1069L127.793 29.7909L127.785 30.1428L127.268 30.9593L126.968 31.1216ZM124.147 30.327L126.797 30.4295L127.098 29.9514L126.9 29.604L123.954 29.3863L123.932 29.7773L124.147 30.327Z" fill="#FF7F30"/>
<path id="Vector_24" d="M127.079 29.6177L123.369 29.3537L123.168 29.1859L122.735 28.3767L122.689 28.1953L122.918 27.2283L123.264 26.9761L127.059 27.1575L127.332 27.3117L127.759 27.9077L127.817 28.2987L127.423 29.3909L127.079 29.6177ZM123.651 28.6788L126.868 28.9164L127.114 28.2316L126.854 27.8369L123.487 27.6936L123.337 28.2442L123.651 28.6788Z" fill="#FF7F30"/>
<path id="Vector_25" d="M126.639 26.04H123.536L123.319 26.6315L123.345 27.34L127.045 27.5023L126.755 26.724L126.639 26.04Z" fill="#414042"/>
<path id="Vector_26" d="M127.03 27.8491L123.327 27.6821L123 27.3519L122.975 26.6435L122.995 26.5147L123.211 25.9232L123.534 25.6982H126.638L126.976 25.9831L127.086 26.6353L127.365 27.3837L127.03 27.8491ZM123.677 27.0172L126.771 27.244L126.433 26.8476L126.417 26.785L126.349 26.3868H123.776L123.665 26.6906L123.677 27.0172Z" fill="#FF7F30"/>
<path id="Vector_27" d="M124.757 32.4265L124.467 32.2732L124.103 31.7171L124.046 31.5202L124.067 30.6639L124.425 30.3301L127.018 30.438L127.336 30.6947L127.503 31.3415L127.469 31.5955L127.105 32.2305L126.832 32.3911L124.757 32.4265ZM124.731 31.4286L124.937 31.7389L126.604 31.7198L126.799 31.3778L126.73 31.1057L124.741 31.0231L124.731 31.4286Z" fill="#FF7F30"/>
<path id="Vector_28" d="M128.151 26.5926L127.868 27.5705L125.778 26.1318L125.445 26.3767L125.816 27.6158L124.889 28.2554L123.548 26.8502L123.477 26.1626L124.251 25.0105L125.827 24.2295L128.812 24.9362L129.608 26.4121L137.101 24.8754L142.57 24.7003" fill="#414042"/>
<path id="Vector_29" d="M128.151 26.5925L128.198 27.6647L127.759 27.9106L125.875 26.6143L126.144 27.5178L126.011 27.897L125.085 28.5365L124.641 28.4911L123.298 27.0851L123.205 26.8846L123.135 26.1979L123.192 25.972L123.966 24.8199L124.098 24.7038L125.674 23.9228L125.906 23.8965L128.891 24.6031L129.115 24.7746L129.792 26.031L137.066 24.7093L137.095 24.7057L142.57 24.7002L137.106 25.044L137.135 25.0404L129.678 26.7467L129.305 26.5734L128.583 25.2336L125.869 24.5904L124.486 25.2762L123.831 26.2505L123.877 26.6986L124.936 27.8071L125.415 27.4751L125.117 26.4737L125.242 26.1008L125.574 25.8568L125.972 25.8505L127.841 27.223L128.151 26.5925Z" fill="#FF7F30"/>
<path id="Vector_30" d="M147.409 31.7743L132.648 29.0374L141.833 29.7994L137.95 27.3502L135.74 27.2032L137.777 26.5519L137.954 25.4497L137.995 26.6907L136.894 27.01L138.071 27.0753L143.069 30.2049L138.274 29.7795L147.531 31.5928L147.409 31.7743Z" fill="#FF7F30"/>
</g>
</g>
</svg>
