<svg width="37" height="10" viewBox="0 0 37 10" fill="none" xmlns="http://www.w3.org/2000/svg">
<g id="&#208;&#145;&#208;&#181;&#208;&#187;&#208;&#186;&#208;&#176;&#209;&#128;&#209;&#130; &#208;&#152;&#208;&#189;&#209;&#130;&#208;&#181;&#209;&#128;&#208;&#189;&#208;&#181;&#209;&#130;">
<path id="Vector" d="M7.16226 0.901393H1.25825C1.1472 0.90113 1.03719 0.92276 0.934504 0.965044C0.831818 1.00733 0.738474 1.06944 0.65981 1.14783C0.581146 1.22621 0.518704 1.31933 0.476055 1.42187C0.433406 1.5244 0.411386 1.63434 0.411255 1.74539V7.62639C0.411255 8.09239 0.791255 8.47039 1.25825 8.47039H7.16226C7.27331 8.47066 7.38332 8.44903 7.48601 8.40674C7.58869 8.36446 7.68203 8.30235 7.7607 8.22396C7.83936 8.14557 7.90181 8.05245 7.94446 7.94992C7.9871 7.84738 8.00912 7.73744 8.00925 7.62639V1.74539C8.00925 1.63426 7.98733 1.52421 7.94474 1.42156C7.90215 1.31891 7.83973 1.22567 7.76105 1.14718C7.68238 1.06869 7.58899 1.00649 7.48624 0.964139C7.38349 0.921792 7.27339 0.90013 7.16226 0.900393V0.901393Z" fill="#B2B2B2"/>
<path id="Vector_2" fill-rule="evenodd" clip-rule="evenodd" d="M5.55627 6.52855H4.65027C4.63788 6.52829 4.62608 6.52326 4.61732 6.5145C4.60856 6.50574 4.60352 6.49393 4.60327 6.48155V6.25755L3.92127 6.93754C3.91231 6.94628 3.90028 6.95117 3.88777 6.95117C3.87525 6.95117 3.86323 6.94628 3.85427 6.93754L3.21427 6.30155C3.20553 6.29258 3.20065 6.28056 3.20065 6.26805C3.20065 6.25553 3.20553 6.24351 3.21427 6.23454L3.37227 6.07654H2.40827C2.39555 6.07647 2.38336 6.07145 2.37427 6.06254C2.36552 6.05377 2.3605 6.04194 2.36027 6.02954V5.12455C2.36027 5.11829 2.36152 5.11209 2.36394 5.10633C2.36636 5.10056 2.36992 5.09533 2.37439 5.09095C2.37886 5.08658 2.38416 5.08313 2.38998 5.08083C2.39579 5.07853 2.40201 5.07741 2.40827 5.07755H2.63227L1.95027 4.39754C1.94153 4.38858 1.93665 4.37656 1.93665 4.36405C1.93665 4.35153 1.94153 4.33951 1.95027 4.33055L2.59027 3.69254C2.59473 3.68807 2.60003 3.68452 2.60586 3.6821C2.6117 3.67967 2.61795 3.67843 2.62427 3.67843C2.63059 3.67843 2.63684 3.67967 2.64268 3.6821C2.64851 3.68452 2.65381 3.68807 2.65827 3.69254L2.81627 3.85054V2.89054C2.81623 2.88104 2.81908 2.87174 2.82444 2.86389C2.82979 2.85603 2.8374 2.84998 2.84627 2.84655C2.85202 2.8444 2.85813 2.84338 2.86427 2.84354H3.77027C3.77644 2.84354 3.78255 2.84476 3.78825 2.84712C3.79396 2.84949 3.79914 2.85295 3.8035 2.85731C3.80787 2.86168 3.81133 2.86686 3.81369 2.87256C3.81605 2.87826 3.81727 2.88437 3.81727 2.89054V3.11355L4.49927 2.43355C4.50823 2.42481 4.52025 2.41992 4.53277 2.41992C4.54528 2.41992 4.55731 2.42481 4.56627 2.43355L5.20727 3.07355C5.21571 3.08246 5.22041 3.09427 5.22041 3.10655C5.22041 3.11882 5.21571 3.13063 5.20727 3.13955L5.04827 3.29755H6.01327C6.02565 3.2978 6.03746 3.30283 6.04622 3.31159C6.05498 3.32035 6.06001 3.33216 6.06027 3.34455V4.24755C6.06001 4.25993 6.05498 4.27174 6.04622 4.2805C6.03746 4.28926 6.02565 4.29429 6.01327 4.29455H5.78827L6.47027 4.97455C6.47871 4.98346 6.48341 4.99527 6.48341 5.00755C6.48341 5.01982 6.47871 5.03163 6.47027 5.04055L5.83027 5.67854C5.82583 5.68304 5.82054 5.6866 5.81469 5.68901C5.80885 5.69141 5.80259 5.69262 5.79627 5.69254C5.78996 5.69256 5.78371 5.69133 5.77788 5.68893C5.77204 5.68653 5.76674 5.683 5.76227 5.67854L5.60427 5.52055V6.48155C5.60401 6.4941 5.59883 6.50606 5.58986 6.51484C5.58089 6.52363 5.56883 6.52855 5.55627 6.52855ZM5.43927 4.01355L5.08527 4.29455H4.65127C4.63888 4.29429 4.62708 4.28926 4.61832 4.2805C4.60956 4.27174 4.60452 4.25993 4.60427 4.24755V3.34455L4.55327 3.79255L4.24527 4.09855C4.23614 4.10734 4.22395 4.11226 4.21127 4.11226C4.19859 4.11226 4.1864 4.10734 4.17727 4.09855L3.81827 3.74255L3.53827 3.46154L3.81827 3.81454V4.24854C3.81801 4.26093 3.81298 4.27274 3.80422 4.2815C3.79546 4.29026 3.78365 4.29529 3.77127 4.29555H2.86527L3.31527 4.34655L3.62227 4.65254C3.62684 4.65685 3.63048 4.66204 3.63297 4.6678C3.63546 4.67356 3.63675 4.67977 3.63675 4.68604C3.63675 4.69232 3.63546 4.69853 3.63297 4.70429C3.63048 4.71005 3.62684 4.71524 3.62227 4.71955L2.98227 5.35754L3.33627 5.07755H3.77127C3.77753 5.07754 3.78372 5.07879 3.78949 5.08122C3.79526 5.08364 3.80048 5.08719 3.80486 5.09166C3.80924 5.09613 3.81268 5.10143 3.81498 5.10725C3.81728 5.11307 3.8184 5.11929 3.81827 5.12555V6.02754L3.87027 5.58055L4.17727 5.27254C4.18651 5.26397 4.19866 5.25921 4.21127 5.25921C4.22388 5.25921 4.23602 5.26397 4.24527 5.27254L4.88527 5.91154L4.60427 5.55855V5.12555C4.60427 5.11308 4.60922 5.10113 4.61804 5.09231C4.62685 5.0835 4.6388 5.07855 4.65127 5.07855H5.55727L5.10727 5.02655L4.80027 4.71955C4.79585 4.71526 4.79233 4.71013 4.78992 4.70446C4.78752 4.6988 4.78628 4.6927 4.78627 4.68655C4.7862 4.68023 4.7874 4.67396 4.78981 4.66812C4.79221 4.66228 4.79577 4.65698 4.80027 4.65254L5.16027 4.29555L5.44027 4.01355H5.43927Z" fill="white"/>
<path id="Vector_3" fill-rule="evenodd" clip-rule="evenodd" d="M12.0663 3.93239C12.0763 4.28439 11.7983 4.53939 11.4443 4.53939H10.5143V3.34939H11.4503C11.5292 3.34659 11.6079 3.35951 11.6817 3.38741C11.7555 3.4153 11.8231 3.45761 11.8804 3.51187C11.9378 3.56613 11.9837 3.63125 12.0156 3.70345C12.0476 3.77565 12.0648 3.85347 12.0663 3.93239ZM35.1213 1.74639V5.28639C35.1212 5.30833 35.1143 5.32969 35.1016 5.34757C35.0889 5.36546 35.071 5.37901 35.0503 5.38639C35.0366 5.39162 35.022 5.394 35.0073 5.39339H34.2613C34.2325 5.39478 34.2043 5.38491 34.1827 5.36588C34.161 5.34684 34.1476 5.32013 34.1453 5.29139V1.74639H32.9783C32.9498 1.74409 32.9232 1.73084 32.9042 1.7094C32.8852 1.68797 32.8752 1.66002 32.8763 1.63139V1.02439C32.8753 1.00993 32.8772 0.995426 32.8818 0.981697C32.8865 0.967968 32.8938 0.95529 32.9033 0.94439C32.9128 0.933729 32.9243 0.925059 32.9372 0.91888C32.9501 0.9127 32.9641 0.909135 32.9783 0.908391H36.3083C36.3373 0.910194 36.3645 0.923407 36.3838 0.945143C36.4031 0.966878 36.413 0.995369 36.4113 1.02439V1.63139C36.4127 1.66024 36.4027 1.68848 36.3834 1.71C36.3641 1.73151 36.3372 1.74458 36.3083 1.74639H35.1213ZM16.4843 5.24239V4.65039C16.4843 4.62175 16.4729 4.59428 16.4527 4.57402C16.4324 4.55377 16.405 4.54239 16.3763 4.54239H14.6363C14.5925 4.54209 14.5493 4.53282 14.5092 4.51513C14.4692 4.49745 14.4332 4.47174 14.4035 4.43959C14.3738 4.40744 14.351 4.36953 14.3365 4.32822C14.322 4.2869 14.3162 4.24306 14.3193 4.19939V3.35039H16.1713C16.1989 3.34966 16.2251 3.33853 16.2448 3.31923C16.2644 3.29994 16.2761 3.27391 16.2773 3.24639V2.64839C16.2779 2.62498 16.2708 2.60204 16.257 2.58307C16.2433 2.56411 16.2237 2.55017 16.2013 2.54339C16.1865 2.53879 16.1708 2.53742 16.1553 2.53939H14.3163V2.06239C14.3161 2.02078 14.3241 1.97953 14.3399 1.94106C14.3558 1.90259 14.3792 1.86767 14.4087 1.83834C14.4382 1.80901 14.4733 1.78586 14.5118 1.77024C14.5504 1.75463 14.5917 1.74686 14.6333 1.74739H16.3733C16.3881 1.74821 16.4029 1.74599 16.4167 1.74087C16.4306 1.73575 16.4433 1.72784 16.454 1.71762C16.4647 1.7074 16.4731 1.69509 16.4789 1.68147C16.4846 1.66784 16.4875 1.65318 16.4873 1.63839V1.01839C16.4874 1.00288 16.4842 0.987521 16.478 0.973328C16.4717 0.959135 16.4625 0.946426 16.451 0.936038C16.4395 0.92565 16.4259 0.917817 16.4111 0.913052C16.3963 0.908287 16.3807 0.906698 16.3653 0.908391L14.5553 0.900391C14.2378 0.90135 13.9332 1.02629 13.7064 1.24857C13.4796 1.47086 13.3486 1.77292 13.3413 2.09039V4.21239C13.3437 4.52574 13.4696 4.82552 13.6916 5.04663C13.9137 5.26774 14.214 5.39235 14.5273 5.39339H16.3743C16.3887 5.3938 16.403 5.39129 16.4164 5.38603C16.4298 5.38077 16.442 5.37287 16.4523 5.36278C16.4626 5.3527 16.4707 5.34065 16.4762 5.32735C16.4817 5.31405 16.4845 5.29978 16.4843 5.28539V5.24239ZM23.8653 3.00539V2.97339C24.0023 2.89139 24.1203 2.78039 24.2103 2.64839C24.3063 2.50539 24.3743 2.34539 24.4103 2.17639L24.7063 1.03639C24.7111 1.01271 24.7077 0.98811 24.6966 0.96665C24.6855 0.94519 24.6674 0.928164 24.6453 0.91839C24.6309 0.911684 24.6152 0.908268 24.5993 0.908391H23.9023C23.8769 0.907534 23.8517 0.912315 23.8283 0.922391C23.8137 0.929733 23.8011 0.940468 23.7916 0.953692C23.782 0.966917 23.7757 0.982245 23.7733 0.99839L23.4853 2.07239C23.4593 2.18394 23.4128 2.28972 23.3483 2.38439C23.2986 2.45517 23.2337 2.51394 23.1583 2.55639C23.093 2.59283 23.022 2.61785 22.9483 2.63039C22.8823 2.64039 22.8153 2.64539 22.7483 2.64539H22.2363V1.01739C22.2364 0.996319 22.2302 0.975704 22.2184 0.958226C22.2066 0.940749 22.1899 0.927217 22.1703 0.919391C22.1573 0.914373 22.1433 0.911994 22.1293 0.912391H21.3763C21.3476 0.91073 21.3194 0.92037 21.2977 0.939246C21.2761 0.958123 21.2626 0.984737 21.2603 1.01339V5.28939C21.2626 5.31813 21.276 5.34484 21.2977 5.36388C21.3193 5.38291 21.3475 5.39278 21.3763 5.39139H22.1223C22.1438 5.39315 22.1654 5.38836 22.1841 5.37765C22.2029 5.36694 22.2179 5.35081 22.2273 5.33139C22.2335 5.31822 22.2369 5.30393 22.2373 5.28939V3.39039H22.7573C22.8843 3.38539 23.0123 3.40039 23.1353 3.43139C23.2353 3.45839 23.3233 3.51439 23.3913 3.59139C23.4694 3.69066 23.5259 3.80509 23.5573 3.92739L23.9513 5.31439C23.9577 5.33674 23.9712 5.35638 23.9898 5.37029C24.0084 5.38421 24.0311 5.39162 24.0543 5.39139H24.8003C24.8251 5.39269 24.8495 5.38545 24.8695 5.37088C24.8895 5.35632 24.9039 5.33532 24.9103 5.31139C24.9146 5.29575 24.9153 5.27934 24.9123 5.26339L24.5143 3.77639C24.4911 3.68837 24.4634 3.60159 24.4313 3.51639C24.4036 3.44056 24.3656 3.36889 24.3183 3.30339C24.2693 3.23715 24.209 3.17996 24.1403 3.13439C24.0543 3.07943 23.9615 3.03574 23.8643 3.00439L23.8653 3.00539ZM26.5653 3.66539L26.8093 2.85539L27.0533 1.94839H27.0913L27.3293 2.85639L27.5733 3.66639H26.5653V3.66539ZM27.8033 4.45839L28.0533 5.28939C28.0733 5.36539 28.1143 5.39139 28.1633 5.39139H28.9753C28.9925 5.39185 29.0095 5.3882 29.025 5.38076C29.0405 5.37333 29.0539 5.36231 29.0643 5.34862C29.0747 5.33493 29.0816 5.31897 29.0846 5.30207C29.0875 5.28516 29.0864 5.26778 29.0813 5.25139L27.7513 1.26139C27.6873 1.06839 27.5953 0.91139 27.3673 0.91139H26.7923C26.7361 0.905916 26.6794 0.915324 26.628 0.938668C26.5766 0.962013 26.5322 0.998473 26.4993 1.04439C26.4528 1.10979 26.4183 1.18292 26.3973 1.26039L25.0713 5.24539C25.0654 5.26195 25.0636 5.2797 25.066 5.29711C25.0685 5.31452 25.0751 5.33109 25.0853 5.34539C25.0956 5.35957 25.1092 5.37106 25.1248 5.3789C25.1405 5.38673 25.1578 5.39067 25.1753 5.39039H25.9553C25.9785 5.39315 26.002 5.38818 26.022 5.37625C26.0421 5.36431 26.0577 5.34608 26.0663 5.32439C26.0744 5.30626 26.0811 5.28754 26.0863 5.26839L26.3353 4.45739L27.8033 4.45839ZM31.8003 2.33539C31.8008 2.45177 31.7664 2.56562 31.7015 2.66224C31.6366 2.75885 31.5442 2.8338 31.4363 2.87739C31.365 2.90697 31.2885 2.92226 31.2113 2.92239H30.3363V1.75039H31.1713C31.2516 1.74551 31.332 1.75699 31.4077 1.78416C31.4834 1.81133 31.5527 1.8536 31.6116 1.90841C31.6704 1.96323 31.7175 2.02943 31.7499 2.10301C31.7824 2.17658 31.7995 2.25598 31.8003 2.33639V2.33539ZM30.3363 5.25739V3.75739H31.4033C31.592 3.75588 31.7785 3.71711 31.9522 3.64332C32.1259 3.56953 32.2833 3.46216 32.4153 3.32739C32.6151 3.12249 32.7485 2.86207 32.7979 2.58018C32.8473 2.29828 32.8105 2.00804 32.6923 1.74739C32.6109 1.56193 32.49 1.39649 32.338 1.26263C32.186 1.12877 32.0066 1.02971 31.8123 0.97239C31.6515 0.928008 31.4852 0.906464 31.3183 0.908391H29.6913C29.6497 0.906924 29.6082 0.913723 29.5692 0.928396C29.5303 0.943069 29.4946 0.965325 29.4643 0.993875C29.434 1.02242 29.4096 1.0567 29.3926 1.09472C29.3756 1.13275 29.3664 1.17376 29.3653 1.21539C29.3653 1.24239 29.3613 1.26939 29.3653 1.29839V5.28039C29.3651 5.302 29.3715 5.32317 29.3837 5.34104C29.3958 5.35891 29.4131 5.37264 29.4333 5.38039C29.4466 5.38583 29.4609 5.38855 29.4753 5.38839H30.2333C30.2527 5.38797 30.2717 5.38238 30.2882 5.37218C30.3047 5.36198 30.3182 5.34756 30.3273 5.33039C30.3373 5.30637 30.3414 5.28032 30.3393 5.25439L30.3363 5.25739ZM9.85632 5.39339H11.5403C12.3693 5.42239 13.0523 4.84639 13.0803 3.98939C13.0843 3.90339 13.0803 3.81739 13.0653 3.73239C12.9173 3.02839 12.3593 2.54539 11.6483 2.54539H10.5143V1.74639H12.4513C12.4672 1.74734 12.4832 1.74482 12.498 1.73901C12.5129 1.73319 12.5263 1.72422 12.5373 1.71271C12.5483 1.7012 12.5567 1.68743 12.5619 1.67235C12.5671 1.65728 12.5689 1.64125 12.5673 1.62539V1.05639C12.5673 0.973391 12.5393 0.913391 12.4513 0.915391H9.88232C9.83879 0.911771 9.79497 0.917277 9.75369 0.931555C9.7124 0.945833 9.67454 0.968569 9.64254 0.99831C9.61054 1.02805 9.5851 1.06414 9.56784 1.10428C9.55059 1.14441 9.54189 1.18771 9.54232 1.23139V5.08139C9.5417 5.1439 9.55998 5.20514 9.59478 5.25707C9.62958 5.30901 9.67927 5.3492 9.73732 5.37239C9.77603 5.38829 9.81748 5.39644 9.85932 5.39639L9.85632 5.39339ZM17.5483 1.34139L17.4903 2.31339C17.4713 2.64339 17.4503 2.93039 17.4273 3.17539C17.3923 3.57939 17.3513 4.54939 16.8253 4.54939H16.8043C16.7763 4.54987 16.7496 4.561 16.7295 4.58051C16.7095 4.60001 16.6976 4.62643 16.6963 4.65439V5.27739C16.6948 5.29988 16.7003 5.3223 16.7122 5.34148C16.724 5.36067 16.7415 5.37568 16.7623 5.38439C16.7762 5.39038 16.7912 5.39345 16.8063 5.39339H16.8523C17.2483 5.39339 17.5983 5.34939 17.8963 4.89839C17.9963 4.74839 18.0753 4.58839 18.1313 4.41839C18.1953 4.22039 18.2413 4.01839 18.2713 3.81239C18.3091 3.56827 18.3371 3.32274 18.3553 3.07639C18.3763 2.80939 18.3983 2.51839 18.4193 2.20339L18.4443 1.75539H19.6963V5.28439C19.6962 5.30663 19.703 5.32837 19.7157 5.34663C19.7284 5.36488 19.7464 5.37877 19.7673 5.38639C19.7814 5.39131 19.7964 5.39335 19.8113 5.39239H20.5573C20.5806 5.39376 20.6036 5.38772 20.6232 5.37514C20.6428 5.36256 20.6579 5.34409 20.6663 5.32239C20.6718 5.30806 20.6742 5.29272 20.6733 5.27739V1.23039C20.672 1.16542 20.651 1.10238 20.6132 1.04955C20.5753 0.996721 20.5224 0.956576 20.4613 0.934391C20.4207 0.919386 20.3776 0.912588 20.3343 0.914391H17.8713C17.7914 0.917015 17.7154 0.949471 17.6582 1.00537C17.601 1.06126 17.5668 1.13655 17.5623 1.21639C17.5593 1.24839 17.5503 1.29039 17.5473 1.33639V1.34039L17.5483 1.34139ZM10.9603 6.91139L10.6693 7.40139L10.1163 8.29339C10.1001 8.31851 10.0828 8.34286 10.0643 8.36639C10.05 8.38356 10.0332 8.39841 10.0143 8.41039C9.99594 8.42136 9.97553 8.4285 9.95432 8.43139C9.92681 8.43497 9.89907 8.43664 9.87132 8.43639H9.74132C9.71026 8.44056 9.67865 8.43729 9.6491 8.42686C9.61954 8.41643 9.59289 8.39913 9.57132 8.37639C9.54037 8.32712 9.52535 8.2695 9.52832 8.21139V6.21939C9.52832 6.17739 9.55132 6.15739 9.59732 6.15739H9.94732C9.97732 6.15739 9.99732 6.16139 10.0043 6.17039C10.0143 6.18439 10.0173 6.20239 10.0163 6.21939V7.68039H10.0353L10.3133 7.22439L10.8783 6.30039C10.8983 6.27039 10.9163 6.24439 10.9313 6.22539C10.9438 6.2074 10.9598 6.19216 10.9783 6.18063C10.9969 6.1691 11.0177 6.16153 11.0393 6.15839C11.0665 6.15476 11.0939 6.15309 11.1213 6.15339H11.2553C11.2849 6.15016 11.3149 6.15293 11.3434 6.16152C11.3719 6.17011 11.3984 6.18435 11.4213 6.20339C11.4592 6.25537 11.477 6.31932 11.4713 6.38339V8.37839C11.4713 8.41939 11.4483 8.44039 11.4013 8.44039H11.0473C11.027 8.4423 11.0066 8.43737 10.9893 8.42639C10.9791 8.41258 10.9741 8.39555 10.9753 8.37839V6.91039H10.9603V6.91139ZM12.3973 8.37139C12.3973 8.39939 12.3933 8.41739 12.3833 8.42539C12.3648 8.43464 12.344 8.43845 12.3233 8.43639H11.9953C11.9473 8.43639 11.9233 8.41439 11.9233 8.37139V6.78839C11.9233 6.74639 11.9473 6.72639 11.9953 6.72639H12.3233C12.344 6.72433 12.3648 6.72814 12.3833 6.73739C12.3933 6.74539 12.3973 6.76239 12.3973 6.78739V7.34539H13.0093V6.78839C13.0093 6.74639 13.0333 6.72639 13.0823 6.72639H13.4143C13.4343 6.72343 13.4548 6.72731 13.4723 6.73739C13.4834 6.75155 13.4885 6.76953 13.4863 6.78739V8.37139C13.4863 8.39939 13.4863 8.41739 13.4723 8.42539C13.4543 8.43507 13.4337 8.43892 13.4133 8.43639H13.0823C13.0333 8.43639 13.0093 8.41439 13.0093 8.37139V7.71639H12.3973V8.37139ZM14.7293 7.11139V8.37139C14.7293 8.39939 14.7243 8.41739 14.7143 8.42539C14.6958 8.43486 14.675 8.43868 14.6543 8.43639H14.3303C14.2803 8.43639 14.2553 8.41439 14.2553 8.37139V7.11139H13.7913C13.7473 7.11139 13.7253 7.08639 13.7253 7.03939V6.80039C13.7236 6.77966 13.7277 6.75885 13.7373 6.74039C13.7443 6.73039 13.7623 6.72539 13.7913 6.72539H15.1993C15.2086 6.72379 15.2182 6.72421 15.2273 6.72663C15.2365 6.72904 15.245 6.7334 15.2523 6.73939C15.2623 6.75739 15.2673 6.77939 15.2653 6.79939V7.03839C15.2653 7.08539 15.2433 7.10939 15.1993 7.10939H14.7293V7.11139ZM16.1613 6.68339C16.4163 6.68339 16.6073 6.74739 16.7343 6.87439C16.8015 6.94773 16.8532 7.03392 16.8862 7.12775C16.9192 7.22159 16.9328 7.32114 16.9263 7.42039C16.9357 7.50309 16.912 7.58613 16.8603 7.65139C16.8108 7.69499 16.7462 7.71727 16.6803 7.71339H15.8443C15.8443 7.77339 15.8563 7.83139 15.8783 7.88639C15.8973 7.92839 15.9253 7.96639 15.9613 7.99639C15.9974 8.02503 16.0394 8.0452 16.0843 8.05539C16.1989 8.07736 16.3168 8.07498 16.4303 8.04839C16.4923 8.03439 16.5533 8.01439 16.6123 7.99039C16.6293 7.98289 16.6479 7.97979 16.6663 7.98139C16.6793 7.98821 16.6893 7.99961 16.6943 8.01339L16.7983 8.24739C16.8027 8.25412 16.8055 8.2618 16.8063 8.26979C16.8072 8.27778 16.8062 8.28587 16.8033 8.29339C16.7952 8.30706 16.7835 8.31815 16.7693 8.32539C16.6837 8.37986 16.5888 8.41816 16.4893 8.43839C16.3914 8.45988 16.2916 8.47127 16.1913 8.47239C15.9053 8.47239 15.6933 8.40139 15.5563 8.26139C15.4183 8.12139 15.3503 7.89639 15.3503 7.58939C15.3483 7.45939 15.3683 7.32939 15.4083 7.20639C15.4434 7.10118 15.4995 7.00421 15.5733 6.92139C15.6439 6.8435 15.7315 6.78293 15.8293 6.74439C15.9349 6.70365 16.0472 6.68329 16.1603 6.68439L16.1613 6.68339ZM16.1713 7.07539C16.1302 7.07398 16.0892 7.08168 16.0513 7.09793C16.0135 7.11418 15.9797 7.13858 15.9523 7.16939C15.8935 7.23655 15.8587 7.32131 15.8533 7.41039H16.4653C16.4657 7.36528 16.4607 7.3203 16.4503 7.27639C16.4419 7.23859 16.4259 7.20287 16.4033 7.17139C16.3803 7.14069 16.3496 7.11656 16.3143 7.10139C16.2691 7.08243 16.2203 7.07355 16.1713 7.07539ZM17.7453 9.04539C17.7453 9.06939 17.7453 9.08539 17.7353 9.09039C17.7174 9.09924 17.6972 9.10271 17.6773 9.10039H17.3403C17.3224 9.10165 17.3045 9.0982 17.2883 9.09039C17.2783 9.08439 17.2713 9.06939 17.2713 9.04539V6.92039C17.2713 6.90039 17.2753 6.88139 17.2833 6.86339C17.297 6.84435 17.3157 6.82946 17.3373 6.82039C17.4493 6.77039 17.5673 6.73639 17.6883 6.71939C17.8113 6.69939 17.9353 6.68939 18.0603 6.68939C18.1938 6.68544 18.3266 6.70928 18.4503 6.75939C18.5489 6.80029 18.6362 6.86436 18.7048 6.94618C18.7734 7.02799 18.8213 7.12515 18.8443 7.22939C18.9023 7.45688 18.9013 7.69541 18.8413 7.92239C18.8134 8.02428 18.7658 8.11974 18.7013 8.20339C18.6367 8.28506 18.5538 8.35046 18.4593 8.39439C18.3518 8.44341 18.2345 8.46735 18.1163 8.46439C17.992 8.46439 17.8679 8.45132 17.7463 8.42539V9.04439L17.7453 9.04539ZM18.3903 7.56939C18.392 7.49388 18.3833 7.41851 18.3643 7.34539C18.3501 7.29119 18.3238 7.24093 18.2873 7.19839C18.253 7.16162 18.2095 7.13469 18.1613 7.12039C18.1078 7.10439 18.0522 7.09663 17.9963 7.09739C17.9117 7.09859 17.8276 7.11104 17.7463 7.13439V8.02339C17.8356 8.04783 17.9278 8.05961 18.0203 8.05839C18.0701 8.05991 18.1196 8.0509 18.1656 8.03194C18.2116 8.01298 18.2531 7.98451 18.2873 7.94839C18.3573 7.87339 18.3913 7.74839 18.3913 7.56939H18.3903ZM19.7203 8.37139C19.7203 8.39939 19.7153 8.41739 19.7053 8.42539C19.6868 8.43464 19.666 8.43845 19.6453 8.43639H19.3183C19.2703 8.43639 19.2463 8.41439 19.2463 8.37139V6.78839C19.2463 6.74639 19.2703 6.72639 19.3183 6.72639H19.6453C19.666 6.72433 19.6868 6.72814 19.7053 6.73739C19.7113 6.74417 19.7157 6.75214 19.7182 6.76076C19.7208 6.76939 19.7215 6.77847 19.7203 6.78739V7.34539H20.3323V6.78839C20.3323 6.74639 20.3563 6.72639 20.4043 6.72639H20.7363C20.757 6.72385 20.7779 6.72769 20.7963 6.73739C20.8017 6.74445 20.8056 6.7525 20.8078 6.76109C20.8101 6.76967 20.8106 6.77861 20.8093 6.78739V8.37139C20.8093 8.39939 20.8043 8.41739 20.7953 8.42539C20.7769 8.43509 20.756 8.43893 20.7353 8.43639H20.4053C20.3563 8.43639 20.3323 8.41439 20.3323 8.37139V7.71639H19.7203V8.37139ZM21.9733 6.68339C22.2283 6.68339 22.4203 6.74739 22.5473 6.87439C22.6141 6.94797 22.6654 7.03422 22.6982 7.12801C22.731 7.2218 22.7447 7.32123 22.7383 7.42039C22.7477 7.50309 22.724 7.58613 22.6723 7.65139C22.6228 7.69499 22.5582 7.71727 22.4923 7.71339H21.6563C21.6563 7.77339 21.6683 7.83139 21.6903 7.88639C21.7086 7.92886 21.7367 7.96635 21.7723 7.99575C21.808 8.02514 21.8502 8.04559 21.8953 8.05539C22.0099 8.07736 22.1278 8.07498 22.2413 8.04839C22.3033 8.03439 22.3653 8.01439 22.4243 7.99039C22.4412 7.98267 22.4598 7.97956 22.4783 7.98139C22.4909 7.9884 22.5005 7.99978 22.5053 8.01339L22.6093 8.24739C22.6137 8.25412 22.6165 8.2618 22.6173 8.26979C22.6182 8.27778 22.6172 8.28587 22.6143 8.29339C22.6062 8.30706 22.5945 8.31815 22.5803 8.32539C22.4947 8.37998 22.3998 8.41829 22.3003 8.43839C22.2024 8.45987 22.1026 8.47126 22.0023 8.47239C21.7163 8.47239 21.5053 8.40139 21.3673 8.26139C21.2303 8.12139 21.1673 7.89639 21.1673 7.58939C21.1653 7.45939 21.1843 7.32939 21.2243 7.20639C21.2597 7.10109 21.3162 7.00412 21.3903 6.92139C21.4608 6.84384 21.548 6.78332 21.6453 6.74439C21.7509 6.70365 21.8632 6.68329 21.9763 6.68439H21.9733V6.68339ZM21.9833 7.07539C21.9422 7.07398 21.9012 7.08168 21.8633 7.09793C21.8255 7.11418 21.7917 7.13858 21.7643 7.16939C21.7056 7.23655 21.6707 7.32131 21.6653 7.41039H22.2773C22.2776 7.36529 22.2726 7.32031 22.2623 7.27639C22.2539 7.23859 22.2379 7.20287 22.2153 7.17139C22.1924 7.14095 22.1621 7.11686 22.1273 7.10139C22.0817 7.0825 22.0326 7.07363 21.9833 7.07539ZM23.9093 7.11039V8.37139C23.9093 8.39939 23.9043 8.41739 23.8943 8.42539C23.8758 8.43464 23.855 8.43845 23.8343 8.43639H23.5103C23.4603 8.43639 23.4353 8.41439 23.4353 8.37139V7.11139H22.9703C22.9273 7.11139 22.9053 7.08639 22.9053 7.03939V6.80039C22.9032 6.77975 22.907 6.75894 22.9163 6.74039C22.9243 6.73039 22.9423 6.72539 22.9703 6.72539H24.3833C24.3925 6.72418 24.4018 6.72479 24.4107 6.72719C24.4197 6.72959 24.428 6.73374 24.4353 6.73939C24.4458 6.75753 24.4504 6.77852 24.4483 6.79939V7.03839C24.4483 7.08539 24.4263 7.10939 24.3833 7.10939H23.9093V7.11039ZM26.6063 8.37439C26.6076 8.38317 26.6071 8.39211 26.6048 8.40069C26.6026 8.40928 26.5987 8.41733 26.5933 8.42439C26.5753 8.43528 26.5541 8.43952 26.5333 8.43639H26.1773C26.1323 8.43639 26.1093 8.41639 26.1093 8.37439V6.58639H25.2283V8.37439C25.2304 8.3921 25.2258 8.40995 25.2153 8.42439C25.1975 8.43475 25.1768 8.43897 25.1563 8.43639H24.7963C24.7503 8.43639 24.7283 8.41639 24.7283 8.37439V6.37439C24.7238 6.31554 24.7404 6.25701 24.7753 6.20939C24.7974 6.18879 24.8236 6.17327 24.8523 6.16394C24.881 6.15461 24.9114 6.15169 24.9413 6.15539H26.4033C26.4331 6.15191 26.4633 6.15493 26.4918 6.16426C26.5202 6.17358 26.5464 6.18898 26.5683 6.20939C26.6023 6.25739 26.6183 6.31539 26.6143 6.37439V8.37439H26.6063ZM28.5193 8.22439C28.5197 8.24892 28.5157 8.27332 28.5073 8.29639C28.4951 8.32065 28.475 8.34004 28.4503 8.35139C28.3984 8.37641 28.3442 8.39617 28.2883 8.41039C28.1713 8.43984 28.0518 8.45826 27.9313 8.46539C27.8713 8.46539 27.8123 8.47239 27.7593 8.47239C27.6356 8.47535 27.5121 8.46122 27.3923 8.43039C27.3073 8.40785 27.2277 8.3684 27.1583 8.31439C27.1027 8.26883 27.06 8.20954 27.0343 8.14239C26.9845 7.99713 26.987 7.83902 27.0413 7.69539C27.0694 7.62509 27.1132 7.56215 27.1693 7.51139C27.2311 7.45643 27.3037 7.41489 27.3823 7.38939C27.4813 7.35834 27.5846 7.34348 27.6883 7.34539H28.0453V7.29239C28.0453 7.26239 28.0423 7.23239 28.0353 7.20439C28.0292 7.17673 28.0154 7.1514 27.9953 7.13139C27.9704 7.10822 27.9407 7.09081 27.9083 7.08039C27.8607 7.06608 27.8111 7.05933 27.7613 7.06039C27.7283 7.06039 27.6913 7.06239 27.6493 7.06639L27.5263 7.07839C27.4503 7.08969 27.3749 7.10471 27.3003 7.12339C27.281 7.13078 27.2596 7.13078 27.2403 7.12339C27.2339 7.11814 27.2286 7.1116 27.2248 7.1042C27.221 7.0968 27.2188 7.08869 27.2183 7.08039L27.1663 6.85239C27.1602 6.83629 27.1602 6.81849 27.1663 6.80239C27.1741 6.79025 27.1863 6.78163 27.2003 6.77839C27.3003 6.74239 27.4043 6.71739 27.5103 6.70339C27.6163 6.68739 27.7233 6.67939 27.8303 6.67939C28.0683 6.67939 28.2423 6.73039 28.3523 6.83139C28.4103 6.88992 28.4551 6.96017 28.4838 7.03744C28.5124 7.1147 28.5242 7.1972 28.5183 7.27939V8.22439H28.5193ZM28.0453 7.66139H27.7873C27.7545 7.66136 27.7218 7.6637 27.6893 7.66839C27.6556 7.67176 27.6229 7.68196 27.5933 7.69839C27.5589 7.71701 27.5307 7.74531 27.5122 7.7798C27.4937 7.81428 27.4858 7.85343 27.4893 7.89239C27.4862 7.92357 27.4917 7.95501 27.5053 7.98324C27.5189 8.01148 27.54 8.03541 27.5663 8.05239C27.6304 8.08571 27.7022 8.10125 27.7743 8.09739H27.8273C27.8493 8.09739 27.8713 8.09739 27.8973 8.09039C27.9213 8.08439 27.9473 8.08339 27.9733 8.07839C27.9979 8.07327 28.022 8.06591 28.0453 8.05639V7.66139ZM29.4223 9.04539C29.4223 9.06939 29.4183 9.08539 29.4103 9.09039C29.393 9.09908 29.3736 9.10255 29.3543 9.10039H29.0163C28.9984 9.10151 28.9805 9.09807 28.9643 9.09039C28.9533 9.08439 28.9483 9.06939 28.9483 9.04539V6.92039C28.9471 6.90087 28.9505 6.88133 28.9583 6.86339C28.9724 6.84435 28.9914 6.82948 29.0133 6.82039C29.1253 6.77039 29.2433 6.73539 29.3653 6.71939C29.4873 6.69939 29.6113 6.68939 29.7353 6.68939C29.8691 6.68527 30.0023 6.70911 30.1263 6.75939C30.2246 6.80085 30.3116 6.8651 30.3801 6.94682C30.4486 7.02855 30.4967 7.12541 30.5203 7.22939C30.5783 7.45688 30.5773 7.69541 30.5173 7.92239C30.4891 8.02436 30.4412 8.11982 30.3763 8.20339C30.3121 8.28509 30.2295 8.35052 30.1353 8.39439C30.0278 8.44355 29.9105 8.46749 29.7923 8.46439C29.668 8.46428 29.544 8.45121 29.4223 8.42539V9.04439V9.04539ZM30.0663 7.56939C30.0677 7.49383 30.0586 7.41845 30.0393 7.34539C30.0255 7.29104 29.9991 7.24068 29.9623 7.19839C29.9285 7.16154 29.8853 7.13458 29.8373 7.12039C29.7835 7.1042 29.7275 7.09644 29.6713 7.09739C29.587 7.09859 29.5033 7.11103 29.4223 7.13439V8.02339C29.5112 8.04789 29.6031 8.05968 29.6953 8.05839C29.7451 8.05985 29.7945 8.05081 29.8405 8.03185C29.8866 8.0129 29.928 7.98446 29.9623 7.94839C30.0323 7.87339 30.0663 7.74839 30.0663 7.56939ZM32.5083 7.56939C32.5083 7.85639 32.4393 8.07839 32.3023 8.22939C32.1643 8.38239 31.9563 8.46439 31.6753 8.46439C31.3943 8.46439 31.1843 8.38639 31.0533 8.23039C30.9233 8.07439 30.8573 7.85439 30.8573 7.57039C30.8558 7.44239 30.8754 7.31502 30.9153 7.19339C30.9469 7.09015 31.0015 6.9954 31.0749 6.91625C31.1483 6.8371 31.2387 6.77561 31.3393 6.73639C31.4493 6.69368 31.5664 6.67263 31.6843 6.67439C31.9583 6.67439 32.1643 6.75639 32.3033 6.91039C32.4413 7.06339 32.5113 7.28539 32.5113 7.56339L32.5083 7.56939ZM32.0113 7.57939C32.0113 7.51239 32.0063 7.44439 31.9943 7.37739C31.9857 7.32246 31.9671 7.26957 31.9393 7.22139C31.9149 7.17936 31.8801 7.14425 31.8383 7.11939C31.7914 7.0929 31.7382 7.07976 31.6843 7.08139C31.6338 7.07857 31.5834 7.08932 31.5383 7.11253C31.4933 7.13574 31.4553 7.17056 31.4283 7.21339C31.3679 7.32197 31.3392 7.4453 31.3453 7.56939C31.3376 7.69802 31.3641 7.82641 31.4223 7.94139C31.449 7.98351 31.4867 8.01758 31.5312 8.03995C31.5758 8.06232 31.6256 8.07215 31.6753 8.06839C31.7295 8.07021 31.7831 8.05706 31.8303 8.03039C31.8735 8.00506 31.9096 7.9693 31.9353 7.92639C31.964 7.87897 31.984 7.82682 31.9943 7.77239C32.007 7.70886 32.013 7.64417 32.0123 7.57939H32.0113ZM34.1913 6.72239C34.2192 6.71897 34.2476 6.72148 34.2744 6.72975C34.3013 6.73802 34.3262 6.75187 34.3473 6.77039C34.3784 6.81431 34.3929 6.8678 34.3883 6.92139V8.37139C34.3896 8.38031 34.3889 8.38941 34.3863 8.39805C34.3838 8.40668 34.3793 8.41465 34.3733 8.42139C34.3549 8.43098 34.3341 8.43515 34.3133 8.43339H33.9813C33.9602 8.43581 33.9388 8.43049 33.9213 8.41839C33.9101 8.40428 33.9047 8.38637 33.9063 8.36839V7.11039H33.5043L33.4943 7.27539C33.4843 7.46539 33.4693 7.62739 33.4523 7.76539C33.4386 7.88565 33.4083 8.00344 33.3623 8.11539C33.3242 8.20747 33.2637 8.28859 33.1863 8.35139C33.0952 8.41968 32.9921 8.47022 32.8823 8.50039C32.8523 8.51139 32.8303 8.51339 32.8173 8.50539C32.8016 8.4949 32.79 8.47938 32.7843 8.46139L32.6963 8.24039C32.6871 8.22183 32.6833 8.20103 32.6853 8.18039C32.6853 8.16739 32.7043 8.15439 32.7323 8.14039C32.784 8.1179 32.8319 8.08754 32.8743 8.05039C32.9145 8.01147 32.9447 7.96345 32.9623 7.91039C32.9903 7.83239 33.0083 7.75039 33.0163 7.66839C33.0303 7.56739 33.0413 7.43439 33.0523 7.26839L33.0753 6.91439C33.073 6.85995 33.0908 6.80656 33.1253 6.76439C33.1692 6.73149 33.2237 6.71616 33.2783 6.72139L34.1923 6.72239H34.1913ZM35.0213 8.43339C34.9916 8.43756 34.9613 8.43515 34.9327 8.42634C34.904 8.41752 34.8776 8.40252 34.8553 8.38239C34.8269 8.3422 34.8128 8.29358 34.8153 8.24439V6.78839C34.8153 6.74639 34.8403 6.72639 34.8883 6.72639H35.2143C35.235 6.72433 35.2558 6.72814 35.2743 6.73739C35.2803 6.74413 35.2848 6.7521 35.2873 6.76073C35.2899 6.76937 35.2906 6.77847 35.2893 6.78739V7.26039H35.6953C35.8247 7.25477 35.9538 7.27764 36.0733 7.32739C36.1554 7.36492 36.2274 7.42148 36.2833 7.49239C36.3281 7.54874 36.3589 7.61487 36.3733 7.68539C36.3843 7.73939 36.3903 7.79539 36.3913 7.85039C36.3924 7.92957 36.3765 8.00806 36.3445 8.08053C36.3126 8.153 36.2655 8.21775 36.2063 8.27039C36.0786 8.38083 35.9152 8.44123 35.7463 8.44039L35.0203 8.43339H35.0213ZM35.9033 7.83739C35.9047 7.78037 35.8843 7.72496 35.8463 7.68239C35.824 7.65997 35.797 7.64264 35.7673 7.6316C35.7376 7.62055 35.7059 7.61605 35.6743 7.61839H35.2893V8.06239H35.6703C35.7097 8.06348 35.7487 8.05526 35.7843 8.03839C35.8112 8.02639 35.8349 8.00846 35.8538 7.98594C35.8727 7.96342 35.8862 7.9369 35.8933 7.90839C35.9001 7.8863 35.9041 7.86346 35.9053 7.84039L35.9033 7.83739Z" fill="#B2B2B2"/>
</g>
</svg>
