<svg width="13" height="15" fill="none" xmlns="http://www.w3.org/2000/svg"><g clip-path="url(#a)"><path d="m12.644 9.381.352-.237L13 .414l-.342-.37-.006 3.585-.008 5.752ZM10.75 3.476l-.013.013-.008.01-.012.011-.01.01-.012.013-.012.012-.013.013-.012.013-.014.013a3.96 3.96 0 0 1-.014.014l-.014.013-.016.015-.015.014-.016.015-.016.015-.018.016a3.441 3.441 0 0 1-.073.064l-.02.016-.02.017-.02.017a8.147 8.147 0 0 1-.022.017l-.02.017-.024.018a1.599 1.599 0 0 1-.046.036l-.023.017a1.794 1.794 0 0 1-.025.019l-.024.017-.026.02-.026.017-.026.02c-.01.005-.018.011-.027.017l-.028.02a4.154 4.154 0 0 1-.055.036l-.027.017c-.01.007-.02.014-.032.02l-.03.018-.03.02-.031.018-.032.02c-.01.005-.022.011-.032.018l-.033.018-.033.019-.035.019a3.862 3.862 0 0 1-.14.072l-.036.018a3.971 3.971 0 0 1-.075.036l-.04.017a5.18 5.18 0 0 1-.116.052l-.018.007.576.08c.07-.032.606-.272.907-.509l-.001-.58-.017.018-.006.007Z" fill="#BDBDC0"/><path d="M9.18 2.573v1.853l.03-.012a4.628 4.628 0 0 0 .425-.195l.03-.016.055-.03.024-.013.059-.034.017-.01.062-.036.01-.007.065-.04.005-.004c.548-.348.814-.689.817-.693l.059-.076.002.809.014 5.184 1.724.154.008-5.781L12.591 0l-1.438.235c-.249 1.392-1.78 2.237-1.972 2.338Z" fill="#fff"/><path d="m5.852 6.306.791 3.215.75-.014-1.166-4.715-.375 1.514Z" fill="#8D0F14"/><path d="m6.593 9.596-1.634.03.824-3.32.444-1.792L7.48 9.58l-.886.017Zm3.98 4.128L7.44 2.012l-2.494-.494L3.73 5.504.83 15l2.89-.375.694-2.8 2.738-.18.824-.053.007.028.573 2.319 2.017-.215Z" fill="#E81C24"/><path d="M3.903 2.103 0 14.495l.764.494 2.937-9.62 1.166-3.818-.964.552Z" fill="#C1171D"/><path d="m7.237 11.714.536 2.143.714.08-.56-2.268-.69.045Z" fill="#8D0F14"/></g><defs><clipPath id="a"><path fill="#fff" d="M0 0h13v15H0z"/></clipPath></defs></svg>