<svg width="50" height="50" fill="none" xmlns="http://www.w3.org/2000/svg"><g clip-path="url(#a)"><path d="M8.854 0h32.292C46.042 0 50 4.06 50 9.081V40.92c0 5.02-3.958 9.08-8.854 9.08H8.854C3.958 50 0 45.94 0 40.919V9.08C0 4.06 3.958 0 8.854 0Z" fill="#001E36"/><path d="M11.25 35.064V13.077c0-.15.063-.235.208-.235.354 0 .688 0 1.167-.022.5-.02 1.02-.02 1.583-.042.563-.022 1.167-.022 1.813-.043.646-.021 1.27-.021 1.896-.021 1.708 0 3.125.213 4.291.662A7.41 7.41 0 0 1 25 15.128a6.826 6.826 0 0 1 1.52 2.436c.313.898.48 1.816.48 2.778 0 1.838-.417 3.355-1.25 4.551a7.16 7.16 0 0 1-3.354 2.607c-1.417.534-2.98.727-4.688.727-.5 0-.833 0-1.041-.022-.209-.021-.5-.021-.896-.021v6.859a.265.265 0 0 1-.23.299H11.5c-.167 0-.25-.086-.25-.278Zm4.542-18.098v7.18c.291.02.562.042.812.042h1.104c.813 0 1.625-.128 2.396-.385.667-.192 1.25-.598 1.709-1.132.437-.534.645-1.26.645-2.2a3.587 3.587 0 0 0-.479-1.903 3.039 3.039 0 0 0-1.458-1.218c-.771-.32-1.604-.448-2.459-.427-.541 0-1.02 0-1.416.022-.417-.022-.709 0-.854.02ZM40 22.842a7.254 7.254 0 0 0-2-.727 10.717 10.717 0 0 0-2.333-.277 4.092 4.092 0 0 0-1.25.15c-.271.063-.5.213-.646.427a1.154 1.154 0 0 0-.167.576c0 .193.084.385.209.556.187.235.437.427.708.577.479.256.979.491 1.479.705 1.125.385 2.208.919 3.208 1.56a4.921 4.921 0 0 1 1.646 1.773c.334.684.5 1.432.48 2.201a5.063 5.063 0 0 1-.813 2.842 5.245 5.245 0 0 1-2.334 1.902c-1.02.449-2.27.684-3.77.684-.959 0-1.896-.086-2.834-.278a8.254 8.254 0 0 1-2.125-.684c-.145-.085-.25-.235-.229-.406v-3.718c0-.064.021-.15.084-.192.062-.043.125-.022.187.021a8.791 8.791 0 0 0 2.583 1.047 9.47 9.47 0 0 0 2.459.32c.791 0 1.354-.106 1.729-.298a.994.994 0 0 0 .562-.898c0-.299-.166-.577-.5-.855-.333-.277-1.02-.598-2.041-1.004a12.634 12.634 0 0 1-2.959-1.538 5.488 5.488 0 0 1-1.583-1.817 4.683 4.683 0 0 1-.48-2.179c0-.919.25-1.795.71-2.585a5.177 5.177 0 0 1 2.187-1.966c.979-.513 2.208-.748 3.687-.748.854 0 1.73.064 2.584.192a7.212 7.212 0 0 1 1.791.492c.084.02.167.106.209.192.02.085.041.17.041.256v3.483a.264.264 0 0 1-.104.214c-.188.043-.292.043-.375 0Z" fill="#31A8FF"/></g><defs><clipPath id="a"><path fill="#fff" d="M0 0h50v50H0z"/></clipPath></defs></svg>