<svg width="50" height="50" fill="none" xmlns="http://www.w3.org/2000/svg"><g clip-path="url(#a)"><path d="M8.854 0h32.292C46.042 0 50 4.06 50 9.081V40.92c0 5.02-3.958 9.08-8.854 9.08H8.854C3.958 50 0 45.94 0 40.919V9.08C0 4.06 3.958 0 8.854 0Z" fill="#300"/><path d="M24.167 29.915h-7.75l-1.584 5.02a.366.366 0 0 1-.396.3h-3.916c-.23 0-.292-.128-.23-.385L17 15.043c.063-.214.125-.449.208-.705.084-.45.125-.92.125-1.39-.02-.106.063-.213.167-.234h5.396c.166 0 .25.064.27.17l7.605 22.01c.062.234 0 .341-.209.341h-4.354c-.145.021-.291-.085-.333-.235l-1.708-5.085Zm-6.542-4.338h5.292a30.916 30.916 0 0 0-.48-1.539 65.683 65.683 0 0 1-.562-1.837c-.208-.663-.396-1.304-.604-1.966a46.854 46.854 0 0 1-.563-1.902c-.166-.598-.312-1.153-.458-1.666h-.042a26.77 26.77 0 0 1-.708 2.756c-.313 1.026-.625 2.094-.958 3.163a42.74 42.74 0 0 1-.917 2.99Zm17.792-9.124a2.544 2.544 0 0 1-1.855-.748 2.818 2.818 0 0 1-.708-1.966 2.55 2.55 0 0 1 .75-1.901 2.632 2.632 0 0 1 1.854-.748c.813 0 1.438.256 1.896.748.459.512.709 1.196.688 1.901.02.727-.23 1.432-.73 1.966a2.417 2.417 0 0 1-1.895.748ZM33.083 35V18.547c0-.214.084-.3.271-.3h4.125c.188 0 .271.108.271.3V35c0 .235-.083.342-.27.342h-4.084c-.209 0-.313-.128-.313-.342Z" fill="#FF9A00"/></g><defs><clipPath id="a"><path fill="#fff" d="M0 0h50v50H0z"/></clipPath></defs></svg>