<svg width="40" height="40" fill="none" xmlns="http://www.w3.org/2000/svg"><defs><clipPath id="a"><rect rx="10" width="39" height="39" transform="translate(.5 .5)" fill="#fff" fill-opacity="0"/></clipPath></defs><rect rx="10" width="39" height="39" transform="translate(.5 .5)" fill="#1E1E1E"/><g clip-path="url(#a)"><path d="M20 28.333a7.5 7.5 0 1 1 0-15 7.5 7.5 0 0 1 0 15Zm0-1.666A5.833 5.833 0 1 0 20 15a5.833 5.833 0 0 0 0 11.666Zm.833-5.834h2.5V22.5h-4.166v-5.833h1.666v4.166Zm-9.377-5.598 2.946-2.946 1.179 1.178-2.948 2.947-1.177-1.179Zm14.141-2.946 2.947 2.946-1.178 1.18-2.947-2.947 1.18-1.179h-.002Z" fill="#BDBDC0"/></g><rect rx="10" width="39" height="39" transform="translate(.5 .5)" stroke="#323232"/></svg>