<svg width="75" height="49" fill="none" xmlns="http://www.w3.org/2000/svg"><g clip-path="url(#a)"><mask id="b" style="mask-type:luminance" maskUnits="userSpaceOnUse" x="0" y="0" width="75" height="49"><path d="M75 0H0v49h75V0Z" fill="#fff"/></mask><g mask="url(#b)"><path d="M14.339 29.979c.002.102-.005.205-.02.307a.483.483 0 0 1-.118.307.18.18 0 0 1-.091.038h-2.502v2.122h2.347a.15.15 0 0 1 .098.038c.03.032.054.07.07.112.024.058.04.121.046.185.012.1.016.201.014.302.002.102-.002.206-.014.308a.944.944 0 0 1-.046.2.296.296 0 0 1-.07.109.146.146 0 0 1-.097.035h-2.347v2.943a.206.206 0 0 1-.035.124.263.263 0 0 1-.122.084c-.07.015-.146.035-.245.05-.126.013-.25.02-.376.018-.15 0-.27 0-.371-.018a4.084 4.084 0 0 1-.245-.05.245.245 0 0 1-.122-.084.182.182 0 0 1-.042-.125v-7.158a.526.526 0 0 1 .132-.39.498.498 0 0 1 .33-.123h3.597a.203.203 0 0 1 .09.036.44.44 0 0 1 .074.111.517.517 0 0 1 .045.204c.014.104.022.21.02.315Zm5.821 6.915a.18.18 0 0 1-.048.125.245.245 0 0 1-.126.08c-.08.022-.163.039-.245.051-.098 0-.228.018-.377.018-.15 0-.275 0-.379-.018a1.755 1.755 0 0 1-.233-.05.231.231 0 0 1-.112-.082.153.153 0 0 1-.042-.111v-7.474a.205.205 0 0 1 .042-.115.256.256 0 0 1 .133-.076c.075-.023.153-.04.233-.05.25-.02.503-.02.755 0 .082.009.165.026.245.05a.29.29 0 0 1 .125.076.26.26 0 0 1 .04.115l-.01 7.461Zm9.762-7.022c.005.102.005.204 0 .307a.808.808 0 0 1-.047.195.255.255 0 0 1-.07.112.202.202 0 0 1-.094.037h-1.92v6.37a.157.157 0 0 1-.037.112.23.23 0 0 1-.13.08 2.008 2.008 0 0 1-.233.051c-.103 0-.223.018-.38.018-.158 0-.27 0-.373-.018-.103-.017-.18-.035-.245-.05a.243.243 0 0 1-.128-.081.177.177 0 0 1-.032-.112v-6.37H24.32a.192.192 0 0 1-.105-.037.305.305 0 0 1-.07-.112.97.97 0 0 1-.041-.195 2.319 2.319 0 0 1 0-.307 2.444 2.444 0 0 1 0-.316.858.858 0 0 1 .042-.2.448.448 0 0 1 .069-.114.24.24 0 0 1 .104-.036h5.397a.256.256 0 0 1 .093.036c.03.033.055.071.07.114a.739.739 0 0 1 .048.2c.004.105.002.21-.005.316Zm9.987 6.688a.642.642 0 0 1-.047.254.511.511 0 0 1-.125.188.767.767 0 0 1-.189.108c-.072.02-.146.032-.22.036h-.66c-.12.002-.24-.015-.355-.05a.623.623 0 0 1-.282-.155 1.46 1.46 0 0 1-.246-.31 3.345 3.345 0 0 1-.267-.495l-1.904-3.699c-.1-.223-.216-.448-.336-.703a9.931 9.931 0 0 1-.306-.741c0 .29.03.579.04.866.009.286 0 .594 0 .905v4.134a.175.175 0 0 1-.03.113.195.195 0 0 1-.109.084 1.43 1.43 0 0 1-.215.051 3.24 3.24 0 0 1-.692 0 1.905 1.905 0 0 1-.216-.05c-.044-.023-.086-.049-.098-.085a.195.195 0 0 1-.034-.113v-7.109a.577.577 0 0 1 .16-.428.591.591 0 0 1 .402-.15h.829c.127.002.253.017.377.046a.578.578 0 0 1 .278.137.97.97 0 0 1 .225.253c.083.127.157.261.22.399l1.487 2.886c.091.175.174.35.258.508l.245.508c.073.165.154.338.226.507.07.17.152.328.22.485 0-.276-.02-.573-.026-.889v-4.599a.18.18 0 0 1 .026-.112.293.293 0 0 1 .125-.089.713.713 0 0 1 .212-.05 2.566 2.566 0 0 1 .685 0 .755.755 0 0 1 .217.051c.04.02.076.05.1.088a.2.2 0 0 1 .027.112l-.002 7.108Zm8.974-.074c0 .117 0 .208-.015.3a1.047 1.047 0 0 1-.044.188.355.355 0 0 1-.07.111.27.27 0 0 1-.1.031H44.82a.515.515 0 0 1-.338-.122.535.535 0 0 1-.125-.39v-6.885a.553.553 0 0 1 .125-.39.514.514 0 0 1 .338-.123h3.807c.035.005.07.017.1.036a.182.182 0 0 1 .064.109.522.522 0 0 1 .044.196c.014.098.018.197.014.296.004.098-.001.194-.014.29a.455.455 0 0 1-.045.188.207.207 0 0 1-.063.111.132.132 0 0 1-.1.033h-2.728V32.4h2.31a.188.188 0 0 1 .104.043c.03.024.051.057.063.094.027.06.043.124.047.19.026.195.026.393 0 .587a.577.577 0 0 1-.047.185.2.2 0 0 1-.064.093.192.192 0 0 1-.102.042H45.9v2.223h2.756c.035 0 .07.012.098.033.026.032.05.067.071.102.02.063.035.127.044.192.008.087.015.191.015.303Zm8.915-1.74c.006.375-.072.747-.228 1.086a2.16 2.16 0 0 1-.608.787 2.65 2.65 0 0 1-.898.48c-.353.107-.72.161-1.088.16a4.053 4.053 0 0 1-1.337-.226 3.876 3.876 0 0 1-.437-.213 1.189 1.189 0 0 1-.245-.177.494.494 0 0 1-.114-.225 2.354 2.354 0 0 1-.024-.433v-.32c.008-.07.021-.14.04-.207a.695.695 0 0 1 .07-.115.182.182 0 0 1 .106-.02.386.386 0 0 1 .234.096c.102.056.23.139.387.218.183.085.37.16.562.224.246.07.501.103.758.1.173.004.346-.021.512-.072.136-.045.264-.113.38-.199a.894.894 0 0 0 .246-.317 1.11 1.11 0 0 0 .083-.434.704.704 0 0 0-.143-.444 1.37 1.37 0 0 0-.379-.348c-.165-.108-.34-.2-.521-.274-.191-.091-.397-.185-.594-.284-.196-.1-.404-.201-.603-.326a2.453 2.453 0 0 1-.514-.464 2.074 2.074 0 0 1-.369-.606 2.46 2.46 0 0 1-.132-.848 2.27 2.27 0 0 1 .202-.998c.13-.278.32-.521.554-.713a2.38 2.38 0 0 1 .812-.432 3.72 3.72 0 0 1 .992-.132c.183 0 .365.01.545.036.172.029.342.07.508.124.145.04.287.095.422.165a.936.936 0 0 1 .245.153.386.386 0 0 1 .07.099c.02.034.033.073.038.113a.72.72 0 0 1 .022.175v.567c0 .083-.022.152-.027.205a.37.37 0 0 1-.066.115c-.024.03-.054.035-.106.035a.442.442 0 0 1-.196-.081c-.1-.056-.218-.122-.353-.191a3.622 3.622 0 0 0-.49-.183 1.964 1.964 0 0 0-.592-.085c-.151 0-.302.02-.449.06a.927.927 0 0 0-.316.186.669.669 0 0 0-.184.274.853.853 0 0 0-.062.33.743.743 0 0 0 .137.457c.103.136.23.25.374.335.167.108.342.203.522.284.199.087.403.18.604.285.21.097.412.207.608.332.194.123.37.274.522.449.16.177.285.382.371.606.105.264.155.547.15.83Zm8.496.002c.01.376-.068.75-.23 1.086a2.21 2.21 0 0 1-.606.787 2.72 2.72 0 0 1-.897.48 3.722 3.722 0 0 1-1.097.16 4.126 4.126 0 0 1-.736-.07 5.667 5.667 0 0 1-.598-.156 3.636 3.636 0 0 1-.437-.214c-.087-.05-.17-.11-.245-.177a.428.428 0 0 1-.108-.224 3.023 3.023 0 0 1-.032-.433 1.77 1.77 0 0 1 .017-.32.829.829 0 0 1 .03-.209.324.324 0 0 1 .073-.114.17.17 0 0 1 .105-.02.38.38 0 0 1 .23.096c.1.056.232.14.384.219.187.085.379.16.574.223.244.07.497.104.75.101.173.005.345-.02.51-.073.137-.043.267-.11.383-.198a.938.938 0 0 0 .246-.318c.053-.137.08-.285.078-.434a.694.694 0 0 0-.148-.444 1.227 1.227 0 0 0-.358-.347 3.482 3.482 0 0 0-.517-.274 13.15 13.15 0 0 1-.593-.285 6.28 6.28 0 0 1-.604-.324 2.236 2.236 0 0 1-.508-.465 1.812 1.812 0 0 1-.377-.605 2.605 2.605 0 0 1 .061-1.845c.129-.278.317-.523.552-.714.242-.196.519-.342.815-.431a3.88 3.88 0 0 1 1.53-.096c.174.027.346.069.516.125.144.039.284.093.419.164.088.037.17.089.244.153a.52.52 0 0 1 .084.099.456.456 0 0 1 .027.113.644.644 0 0 1 .024.176v.553c0 .07-.01.139-.03.206a.207.207 0 0 1-.064.114.107.107 0 0 1-.097.035.511.511 0 0 1-.21-.08 3.97 3.97 0 0 0-.342-.191 3.507 3.507 0 0 0-.49-.183 2.044 2.044 0 0 0-.601-.086c-.148 0-.296.02-.44.061a.856.856 0 0 0-.318.185.65.65 0 0 0-.186.274.853.853 0 0 0-.054.33.78.78 0 0 0 .127.457c.102.139.23.252.377.335.167.11.342.205.523.284.198.087.405.18.606.285.207.097.408.209.6.332a2.2 2.2 0 0 1 .528.449 2 2 0 0 1 .37.607c.103.267.15.554.14.841ZM0 21.418 8.376.463h4.951l8.375 20.956h-5.038l-1.948-4.869H7.012L5.07 21.418H0ZM10.868 5.495 7.983 12.81h5.771l-2.887-7.317Zm11.89-5.03h4.52v11.744c0 1.754 0 3.14.54 4.028.667 1.077 2.109 1.443 4.69 1.443h3.677v3.739h-5.65c-.932 0-4.524.127-6.33-1.805-1.55-1.663-1.448-3.922-1.448-7.405V.463h.001Zm30.65 0V4.2h-5.609c-2.334 0-3.26.089-4.443 1.015-.651.508-1.323 1.983-1.323 3.904h9.298v3.754h-9.299c0 1.853.687 3.029 1.519 3.77 1.177 1.04 2.337 1.036 4.431 1.036h5.425v3.739h-5.609c-3.434 0-5.273-.09-7.65-2.046-2.008-1.648-3.004-4.49-3.004-8.547 0-3.513.895-6.138 2.605-7.946C41.591.95 43.43.462 46.126.462l7.282.001Zm9.29 10.36L56.05.465h5.285L65.31 7.34 69.625.463h5.215l-6.855 10.362 6.855 10.593h-5.065L65.31 14.22l-4.37 7.197h-5.13l6.888-10.593Z" fill="#fff"/><path d="M53.87 49.163v-3.73h-4.62v3.73h4.62Z" fill="#A81C6D"/><path d="M13.468 49.163v-3.73H0v3.73h13.468Z" fill="#DB0720"/><path d="M49.254 49.163v-3.73h-2.887v3.73h2.887Z" fill="#0075BC"/><path d="M74.838 49.163v-3.73H55.022v3.73h19.816Zm-20.392 0v-3.73h-.577v3.73h.577Z" fill="#E8308A"/><path d="M55.024 49.163v-3.73h-.576v3.73h.577Z" fill="#A81C6D"/><path d="M22.704 49.163v-3.73h-4.81v3.73h4.81Z" fill="#FAB600"/><path d="M33.09 49.163v-3.73h-7.502v3.73h7.503Z" fill="#BBD043"/><path d="M17.892 49.159v-3.73h-4.425v3.73h4.425Z" fill="#EE7326"/><path d="M37.709 49.163v-3.73H33.09v3.73h4.619Z" fill="#00983A"/><path d="M25.589 49.163v-3.73h-1.732v3.73h1.732Z" fill="#FFE111"/><path d="M45.212 49.163v-3.73h-7.503v3.73h7.503Z" fill="#5FC4E1"/><path d="M45.795 49.163v-3.73h-.584v3.73h.584Z" fill="#0075BC"/><path d="M46.37 49.163v-3.73h-.582v3.73h.584-.001Zm-9.238 0v-3.73h-.576v3.73h.576Z" fill="#5FC4E1"/><path d="M12.891 49.163v-3.73h-.581v3.73h.581Z" fill="#EE7326"/><path d="M23.28 49.163v-3.73h-.576v3.73h.576Z" fill="#FFE111"/><path d="M23.857 49.163v-3.73h-.576v3.73h.576Z" fill="#FAB600"/></g></g><defs><clipPath id="a"><path fill="#fff" d="M0 0h75v49H0z"/></clipPath></defs></svg>