<svg width="75" height="49" viewBox="0 0 75 49" fill="none" xmlns="http://www.w3.org/2000/svg">
<g id="alex fit" clip-path="url(#clip0_245_301)">
<g id="Clip path group">
<mask id="mask0_245_301" style="mask-type:luminance" maskUnits="userSpaceOnUse" x="0" y="0" width="75" height="49">
<g id="clip0_1159_2">
<path id="Vector" d="M75 0H0V49H75V0Z" fill="white"/>
</g>
</mask>
<g mask="url(#mask0_245_301)">
<g id="Group">
<path id="Vector_2" d="M14.3387 29.9786C14.3406 30.0815 14.3339 30.1844 14.3185 30.286C14.3163 30.3996 14.2745 30.5086 14.2008 30.5933C14.1743 30.614 14.1428 30.6269 14.1097 30.6306H11.6081V32.7534H13.9548C13.9911 32.7534 14.0258 32.7667 14.0532 32.7908C14.0834 32.823 14.1069 32.8611 14.1226 32.9029C14.1468 32.961 14.1629 33.0241 14.1685 33.0881C14.1806 33.1878 14.1855 33.2891 14.1831 33.3904C14.1855 33.4925 14.1806 33.5955 14.1685 33.6977C14.1605 33.7658 14.1452 33.833 14.1226 33.8979C14.1076 33.939 14.0839 33.9761 14.0532 34.0066C14.0259 34.0302 13.9913 34.0428 13.9556 34.0424H11.6089V36.9849C11.6109 37.0291 11.5988 37.073 11.5742 37.1094C11.5418 37.1485 11.4993 37.1773 11.4516 37.1925C11.3822 37.2083 11.3065 37.2281 11.2065 37.2431C11.0815 37.2564 10.9565 37.2623 10.8306 37.2614C10.6815 37.2614 10.5613 37.2614 10.4597 37.2431C10.3778 37.229 10.2963 37.2124 10.2153 37.1933C10.167 37.1787 10.1241 37.1491 10.0928 37.1086C10.0639 37.0741 10.0489 37.0296 10.0508 36.984V29.8259C10.0452 29.7549 10.0541 29.6835 10.0768 29.6163C10.0996 29.5491 10.1358 29.4874 10.1831 29.4355C10.2752 29.3559 10.3918 29.3126 10.5121 29.3134H14.1097C14.1419 29.3176 14.1742 29.33 14.2008 29.3491C14.2298 29.3824 14.2548 29.4198 14.2742 29.4604C14.3024 29.5244 14.3178 29.5933 14.3185 29.6639C14.3331 29.7677 14.3411 29.8732 14.3387 29.9786ZM20.1605 36.8943C20.1609 36.9408 20.1435 36.9856 20.1121 37.0189C20.0792 37.0585 20.0353 37.0866 19.9863 37.0995C19.9056 37.121 19.8234 37.1376 19.7411 37.1501C19.6428 37.1501 19.5129 37.1684 19.3637 37.1684C19.2137 37.1684 19.0887 37.1684 18.9855 37.1501C18.9068 37.1388 18.829 37.1222 18.7524 37.1003C18.7075 37.0854 18.6681 37.0567 18.6395 37.018C18.6258 37.0033 18.615 36.9859 18.6079 36.9667C18.6009 36.9476 18.5976 36.9272 18.5984 36.9068V29.433C18.6002 29.3913 18.6146 29.3513 18.6395 29.3184C18.6754 29.2797 18.7218 29.2531 18.7726 29.242C18.8484 29.2188 18.9258 29.2013 19.0056 29.1921C19.2565 29.1714 19.5089 29.1714 19.7605 29.1921C19.8435 29.2005 19.9258 29.2179 20.0056 29.242C20.0532 29.2556 20.0964 29.2819 20.1306 29.3184C20.1528 29.3527 20.1667 29.392 20.1709 29.433L20.1605 36.8943ZM29.9218 29.8715C29.9274 29.9737 29.9274 30.0759 29.9218 30.1789C29.9144 30.2456 29.8986 30.3112 29.875 30.374C29.8615 30.4172 29.837 30.456 29.8041 30.4861C29.7766 30.5062 29.7447 30.5191 29.7113 30.5235H27.7903V36.8935C27.7917 36.9136 27.7892 36.9338 27.783 36.9529C27.7768 36.972 27.767 36.9896 27.754 37.0048C27.7206 37.0461 27.6746 37.0745 27.6234 37.0854C27.547 37.1068 27.4694 37.1238 27.3911 37.136C27.2879 37.136 27.1678 37.1543 27.0105 37.1543C26.8532 37.1543 26.7403 37.1543 26.6379 37.136C26.5347 37.1194 26.4589 37.1011 26.3928 37.0861C26.343 37.0734 26.2985 37.045 26.2653 37.0048C26.2423 36.9724 26.2309 36.9328 26.2331 36.8926V30.5235H24.3202C24.2822 30.5219 24.2454 30.5089 24.2145 30.4861C24.1839 30.4545 24.1605 30.4161 24.1459 30.374C24.1253 30.3106 24.1112 30.2452 24.104 30.1789C24.0972 30.0766 24.0972 29.9738 24.104 29.8715C24.0972 29.7665 24.0972 29.661 24.104 29.5559C24.11 29.488 24.1241 29.4211 24.1459 29.3566C24.163 29.3151 24.1861 29.2764 24.2145 29.242C24.2464 29.2221 24.2822 29.2098 24.3194 29.2063H29.7161C29.7484 29.2121 29.7806 29.2238 29.8089 29.242C29.8395 29.2753 29.8637 29.3134 29.8798 29.3558C29.9048 29.4206 29.9202 29.4879 29.9266 29.5568C29.9306 29.6614 29.9291 29.7669 29.9218 29.8715ZM39.9089 36.5596C39.9107 36.6468 39.8947 36.7333 39.8621 36.8138C39.8347 36.8852 39.792 36.9494 39.7371 37.0015C39.6795 37.0467 39.6159 37.0833 39.5484 37.1103C39.4758 37.1301 39.4024 37.1418 39.3274 37.146H38.6678C38.5477 37.1479 38.428 37.1311 38.3129 37.0961C38.2074 37.0703 38.1102 37.0168 38.0306 36.9408C37.9353 36.8496 37.8526 36.7454 37.7847 36.631C37.6822 36.4741 37.5929 36.3086 37.5178 36.136L35.6145 32.437C35.5137 32.2136 35.3984 31.9885 35.2782 31.7344C35.1581 31.4802 35.0605 31.2261 34.9718 30.9928C34.9718 31.2826 35.0016 31.5716 35.0113 31.8589C35.0209 32.1455 35.0113 32.4528 35.0113 32.7642V36.8976C35.0148 36.938 35.0042 36.9783 34.9815 37.0114C34.9564 37.0518 34.918 37.0817 34.8734 37.0953C34.8028 37.1172 34.7309 37.1341 34.6581 37.146C34.428 37.1707 34.1961 37.1707 33.9661 37.146C33.8932 37.1336 33.821 37.1169 33.75 37.0961C33.7065 37.0729 33.6645 37.0471 33.6524 37.0114C33.6294 36.9782 33.6172 36.9384 33.6178 36.8976V29.7893C33.6136 29.7103 33.6258 29.6313 33.6533 29.5575C33.6808 29.4837 33.7231 29.4167 33.7774 29.3608C33.8892 29.2619 34.0324 29.2087 34.1798 29.2113H35.0089C35.1355 29.213 35.2621 29.2279 35.3863 29.257C35.4887 29.276 35.5839 29.3234 35.6637 29.394C35.7524 29.4638 35.8291 29.5493 35.8895 29.6473C35.9718 29.7744 36.0459 29.9081 36.1097 30.0459L37.5959 32.932C37.6871 33.1072 37.7702 33.2824 37.8541 33.4403L38.0992 33.9476C38.1718 34.1129 38.2532 34.2857 38.325 34.4551C38.3959 34.6254 38.4766 34.7831 38.5452 34.9401C38.5452 34.6636 38.5258 34.3671 38.5185 34.0515V29.4521C38.5149 29.4127 38.5243 29.3733 38.5452 29.34C38.5785 29.2996 38.6216 29.269 38.6702 29.2511C38.7378 29.2238 38.809 29.207 38.8815 29.2013C38.9959 29.1864 39.1113 29.1789 39.2274 29.178C39.3411 29.178 39.4548 29.1864 39.5678 29.2005C39.6418 29.2069 39.7146 29.2242 39.7839 29.252C39.8242 29.2711 39.8597 29.3018 39.8847 29.34C39.9041 29.3733 39.9137 29.4131 39.9113 29.4521L39.9089 36.5596ZM48.8831 36.4865C48.8831 36.6028 48.8831 36.6941 48.8685 36.7855C48.8597 36.8503 48.8443 36.9134 48.8242 36.974C48.8076 37.0155 48.7835 37.0532 48.7532 37.0854C48.7226 37.1018 48.6892 37.1123 48.6548 37.116H44.8193C44.696 37.1177 44.5761 37.0744 44.4806 36.994C44.4356 36.9408 44.4013 36.8789 44.3798 36.8118C44.3584 36.7448 44.3502 36.674 44.3556 36.6036V29.7187C44.3505 29.6484 44.3589 29.5777 44.3803 29.5107C44.4018 29.4438 44.4359 29.3818 44.4806 29.3284C44.576 29.2479 44.696 29.2046 44.8193 29.2063H48.6258C48.6613 29.2105 48.6952 29.2229 48.7258 29.242C48.7597 29.2686 48.7822 29.3085 48.7903 29.3508C48.8173 29.4125 48.8322 29.4792 48.8339 29.5468C48.8476 29.6448 48.8524 29.7445 48.8484 29.8433C48.8524 29.9405 48.8468 30.0368 48.8339 30.1331C48.8327 30.1983 48.8175 30.2624 48.7895 30.3209C48.7804 30.364 48.7581 30.403 48.7258 30.4321C48.7122 30.4443 48.6963 30.4536 48.6791 30.4593C48.6619 30.4649 48.6438 30.467 48.6258 30.4654H45.8984V32.4004H48.2089C48.2465 32.4037 48.2824 32.4183 48.312 32.4426C48.3416 32.4668 48.3634 32.4996 48.375 32.5366C48.4016 32.5964 48.4178 32.6612 48.4218 32.7276C48.4481 32.9222 48.4481 33.1195 48.4218 33.314C48.4165 33.378 48.4008 33.4407 48.375 33.4992C48.3628 33.5357 48.3407 33.5678 48.3112 33.5917C48.2817 33.6156 48.2462 33.6302 48.2089 33.6338H45.8984V35.857H48.6548C48.6903 35.857 48.725 35.8686 48.7532 35.8903C48.779 35.9218 48.8032 35.9566 48.8242 35.9915C48.8443 36.0546 48.8589 36.1186 48.8685 36.1843C48.8758 36.2706 48.8831 36.3753 48.8831 36.4865ZM57.7984 34.7458C57.804 35.1211 57.7258 35.4933 57.5702 35.8321C57.4302 36.14 57.2219 36.4097 56.9621 36.6194C56.6953 36.8367 56.3906 36.9997 56.0645 37.0995C55.7109 37.2064 55.3443 37.26 54.9758 37.2589C54.7282 37.2589 54.4822 37.2356 54.2395 37.1908C54.0363 37.1493 53.8363 37.0961 53.6387 37.033C53.4891 36.9712 53.3434 36.8998 53.2024 36.8196C53.1135 36.7715 53.0309 36.7121 52.9565 36.6426C52.9004 36.5794 52.8615 36.5021 52.8435 36.4184C52.8221 36.2751 52.814 36.1299 52.8193 35.9849V35.6651C52.8274 35.5946 52.8403 35.5248 52.8589 35.4575C52.8788 35.417 52.9026 35.3786 52.9298 35.3429C52.9621 35.3256 52.9985 35.3183 53.0347 35.3221C53.1208 35.3269 53.203 35.3607 53.2685 35.4185C53.3709 35.475 53.4984 35.558 53.6556 35.6369C53.8387 35.7225 54.0266 35.7964 54.2178 35.8611C54.4645 35.9301 54.7193 35.9641 54.9758 35.9616C55.1492 35.965 55.3218 35.94 55.4879 35.8886C55.6242 35.8438 55.7524 35.7765 55.8678 35.6901C55.9726 35.6054 56.0556 35.4966 56.1137 35.3729C56.1702 35.2358 56.1992 35.088 56.1968 34.9393C56.2009 34.7786 56.1504 34.6214 56.0541 34.495C55.95 34.3546 55.8209 34.2375 55.675 34.147C55.5103 34.0386 55.3359 33.9468 55.154 33.8729C54.9629 33.7816 54.7572 33.6877 54.5605 33.5889C54.3645 33.4893 54.1565 33.3879 53.9572 33.2634C53.7653 33.1344 53.5921 32.978 53.4428 32.7991C53.2865 32.6206 53.1619 32.4154 53.0742 32.1928C52.9809 31.9207 52.936 31.6334 52.9419 31.3449C52.9328 31.0005 53.0018 30.6586 53.1435 30.3466C53.2742 30.0692 53.4637 29.8259 53.6976 29.634C53.9395 29.438 54.2145 29.291 54.5097 29.2021C54.8331 29.1133 55.1678 29.0693 55.5024 29.0701C55.6847 29.0693 55.8669 29.0809 56.0468 29.1058C56.2185 29.1349 56.3887 29.1764 56.5548 29.2304C56.7 29.2694 56.8419 29.325 56.9766 29.3948C57.0653 29.433 57.1484 29.4837 57.2218 29.5476C57.2499 29.5769 57.2738 29.6102 57.2928 29.6465C57.3127 29.6813 57.3253 29.7201 57.3298 29.7603C57.3443 29.8184 57.3516 29.8765 57.3516 29.9355V30.5019C57.3516 30.5849 57.3298 30.6539 57.325 30.707C57.3099 30.7491 57.2875 30.7879 57.2589 30.8216C57.2347 30.8524 57.2048 30.8574 57.1532 30.8574C57.0825 30.8467 57.0153 30.8188 56.9572 30.776C56.8565 30.7203 56.7387 30.6539 56.604 30.585C56.445 30.5122 56.2811 30.4512 56.1137 30.4022C55.9216 30.3436 55.7222 30.3148 55.5218 30.3167C55.3709 30.3167 55.2202 30.3366 55.0734 30.3773C54.9572 30.4171 54.8498 30.48 54.7572 30.5625C54.6745 30.6364 54.6112 30.7307 54.5734 30.8366C54.531 30.9413 54.5099 31.0537 54.5113 31.1671C54.5058 31.331 54.5541 31.4919 54.6484 31.6239C54.7508 31.7601 54.8774 31.8739 55.0218 31.9586C55.1887 32.0666 55.3637 32.1621 55.5443 32.2435C55.7428 32.3299 55.9468 32.4237 56.1476 32.5275C56.3572 32.6246 56.5605 32.7351 56.7556 32.8597C56.95 32.9826 57.1266 33.1338 57.2782 33.309C57.4371 33.4859 57.5629 33.691 57.6492 33.9153C57.7541 34.1785 57.804 34.4618 57.7984 34.7458ZM66.2943 34.7483C66.3048 35.1236 66.2258 35.4974 66.0637 35.8338C65.9226 36.141 65.7153 36.4101 65.458 36.6211C65.1903 36.837 64.8855 36.9998 64.5605 37.1011C64.204 37.2091 63.8347 37.2623 63.4637 37.2606C63.2171 37.2596 62.9709 37.2366 62.7282 37.1916C62.5262 37.1503 62.3265 37.0978 62.1298 37.0346C61.98 36.9734 61.8343 36.9021 61.6935 36.8212C61.6057 36.7711 61.5233 36.7115 61.4476 36.6435C61.3909 36.5818 61.3535 36.504 61.3403 36.4201C61.3192 36.2766 61.3084 36.1317 61.3081 35.9866C61.3041 35.8797 61.3097 35.7726 61.325 35.6669C61.326 35.5963 61.3361 35.5262 61.3548 35.4584C61.371 35.4152 61.3961 35.3761 61.4282 35.3438C61.4603 35.3261 61.497 35.3191 61.5331 35.3239C61.6176 35.3292 61.6981 35.3631 61.7621 35.4201C61.8621 35.4758 61.9952 35.5597 62.1468 35.6386C62.3339 35.7241 62.5258 35.7989 62.7209 35.862C62.9653 35.9318 63.2178 35.9658 63.4709 35.9633C63.6443 35.9675 63.8161 35.9425 63.9815 35.8903C64.1185 35.847 64.2484 35.7806 64.3637 35.6918C64.4669 35.6062 64.5508 35.4974 64.6096 35.3745C64.6629 35.2366 64.6895 35.0888 64.6879 34.9401C64.6914 34.7787 64.6391 34.6212 64.5403 34.4958C64.4453 34.3561 64.3234 34.238 64.1822 34.1486C64.0176 34.0428 63.8447 33.9511 63.6653 33.8746C63.4637 33.7832 63.2653 33.6894 63.0718 33.5897C62.8652 33.493 62.6638 33.3848 62.4685 33.2659C62.2769 33.1387 62.1055 32.9818 61.9605 32.8008C61.7966 32.6273 61.6682 32.4218 61.583 32.1961C61.3775 31.595 61.3993 30.936 61.6444 30.3508C61.7726 30.0725 61.9613 29.8275 62.1959 29.6374C62.4384 29.4414 62.7148 29.2949 63.0105 29.2055C63.5097 29.0726 64.0291 29.0394 64.5403 29.11C64.7153 29.1374 64.8871 29.1789 65.0565 29.2345C65.2008 29.2736 65.3411 29.3284 65.4758 29.399C65.5645 29.4364 65.6467 29.4879 65.7202 29.5518C65.7524 29.5809 65.7798 29.6141 65.8041 29.6506C65.8178 29.6871 65.8266 29.7254 65.8306 29.7644C65.8468 29.8217 65.8548 29.8806 65.8548 29.9396V30.4928C65.8547 30.5625 65.8449 30.6318 65.8258 30.6988C65.8172 30.7432 65.7945 30.7835 65.7613 30.8134C65.7491 30.8269 65.7341 30.8372 65.7172 30.8433C65.7003 30.8493 65.6822 30.851 65.6645 30.8482C65.5892 30.8375 65.5171 30.8101 65.4532 30.7676C65.3426 30.6983 65.2288 30.6346 65.1121 30.5766C64.9532 30.5035 64.7893 30.4424 64.6218 30.3939C64.4266 30.3353 64.2242 30.3062 64.0209 30.3075C63.8726 30.3075 63.725 30.3275 63.5815 30.369C63.4637 30.4064 63.3556 30.4695 63.2629 30.5542C63.1786 30.6272 63.1144 30.7217 63.0766 30.8283C63.0371 30.9333 63.0187 31.0455 63.0226 31.158C63.0168 31.3203 63.0615 31.4804 63.15 31.6148C63.2516 31.7535 63.3798 31.8673 63.5274 31.9503C63.6943 32.0591 63.8693 32.1546 64.05 32.2344C64.2484 32.3207 64.4548 32.4145 64.6556 32.5192C64.8629 32.6164 65.0637 32.7276 65.2565 32.8514C65.4541 32.9719 65.6322 33.123 65.7839 33.2999C65.9419 33.4784 66.0678 33.6836 66.1548 33.907C66.2565 34.1744 66.304 34.4609 66.2943 34.7483ZM0 21.4186L8.3758 0.462402H13.3274L21.7016 21.4178H16.6637L14.7161 16.5494H7.01209L5.06935 21.4178L0 21.4186ZM10.8678 5.49362L7.98306 12.8096H13.7541L10.8669 5.49279L10.8678 5.49362ZM22.7581 0.463233H27.2782V12.2083C27.2782 13.9623 27.2782 15.3484 27.8178 16.2363C28.4847 17.3134 29.9266 17.6789 32.5072 17.6789H36.1855V21.4178H30.5347C29.6032 21.4178 26.0105 21.5449 24.2041 19.6131C22.6548 17.9504 22.7572 15.6914 22.7572 12.2083V0.463233H22.7581ZM53.408 0.463233V4.19969H47.7992C45.4645 4.19969 44.5395 4.28856 43.3556 5.21457C42.7048 5.72284 42.0331 7.19782 42.0331 9.11882H51.3315V12.8727H42.0322C42.0322 14.7264 42.7193 15.9015 43.5508 16.6432C44.7282 17.6839 45.8879 17.6789 47.9822 17.6789H53.4072V21.4178H47.7984C44.3645 21.4178 42.525 21.3289 40.1484 19.3723C38.1403 17.7245 37.1443 14.8817 37.1443 10.8246C37.1443 7.31161 38.0395 4.6872 39.7492 2.87918C41.5911 0.949913 43.4282 0.462402 46.1258 0.462402L53.408 0.463233ZM62.6984 10.8246L56.05 0.463233H61.3347L65.3105 7.33984L69.625 0.463233H74.8395L67.9846 10.8246L74.8395 21.4178H69.775L65.3105 14.2214L60.9395 21.4178H55.8097L62.6984 10.8246Z" fill="white"/>
<path id="Vector_3" d="M53.8693 49.1628V45.4321H49.2508V49.1636L53.8693 49.1628Z" fill="#A81C6D"/>
<path id="Vector_4" d="M13.4678 49.1628V45.4321H0V49.1636L13.4678 49.1628Z" fill="#DB0720"/>
<path id="Vector_5" d="M49.2536 49.1628V45.4321H46.3666V49.1636L49.2536 49.1628Z" fill="#0075BC"/>
<path id="Vector_6" d="M74.8385 49.1628V45.4321H55.0216V49.1636L74.8385 49.1628ZM54.4458 49.1628V45.4321H53.8692V49.1636L54.4458 49.1628Z" fill="#E8308A"/>
<path id="Vector_7" d="M55.0242 49.1628V45.4321H54.4484V49.1636H55.025L55.0242 49.1628Z" fill="#A81C6D"/>
<path id="Vector_8" d="M22.7043 49.1628V45.4321H17.8947V49.1636L22.7043 49.1628Z" fill="#FAB600"/>
<path id="Vector_9" d="M33.0901 49.1628V45.4321H25.5884V49.1636H33.0909L33.0901 49.1628Z" fill="#BBD043"/>
<path id="Vector_10" d="M17.8923 49.1588V45.4282H13.4673V49.1588H17.8923Z" fill="#EE7326"/>
<path id="Vector_11" d="M37.7089 49.1628V45.4321H33.0903V49.1636L37.7089 49.1628Z" fill="#00983A"/>
<path id="Vector_12" d="M25.589 49.1628V45.4321H23.8568V49.1636H25.5882L25.589 49.1628Z" fill="#FFE111"/>
<path id="Vector_13" d="M45.212 49.1628V45.4321H37.7088V49.1636H45.2112L45.212 49.1628Z" fill="#5FC4E1"/>
<path id="Vector_14" d="M45.7954 49.1628V45.4321H45.2115V49.1636L45.7954 49.1628Z" fill="#0075BC"/>
<path id="Vector_15" d="M46.3708 49.1628V45.4321H45.7877V49.1636H46.3715L46.3708 49.1628ZM37.1321 49.1628V45.4321H36.5563V49.1636L37.1321 49.1628Z" fill="#5FC4E1"/>
<path id="Vector_16" d="M12.8912 49.1628V45.4321H12.3098V49.1636H12.8904L12.8912 49.1628Z" fill="#EE7326"/>
<path id="Vector_17" d="M23.2801 49.1628V45.4321H22.7042V49.1636L23.2801 49.1628Z" fill="#FFE111"/>
<path id="Vector_18" d="M23.8567 49.1628V45.4321H23.2809V49.1636L23.8567 49.1628Z" fill="#FAB600"/>
</g>
</g>
</g>
</g>
<defs>
<clipPath id="clip0_245_301">
<rect width="75" height="49" fill="white"/>
</clipPath>
</defs>
</svg>
