<svg width="14" height="20" fill="none" xmlns="http://www.w3.org/2000/svg"><path fill-rule="evenodd" clip-rule="evenodd" d="M7.089.5c1.373 0 1.816.93 2.181 1.86.092.23 1.418 3.633 2.488 6.38v.002l.003.008 1.355 3.473a.175.175 0 0 1-.005.149.182.182 0 0 1-.117.095c-.063.02-.483.174-.93.337-.532.195-1.103.405-1.161.42a.219.219 0 0 1-.152-.009.21.21 0 0 1-.107-.105 66.559 66.559 0 0 1-.4-1.029 96.166 96.166 0 0 0-.5-1.287h-5.31c-.303.771-.603 1.543-.9 2.316a.208.208 0 0 1-.26.114c-.054-.021-.55-.2-1.045-.378a158.65 158.65 0 0 1-1.045-.38.204.204 0 0 1-.11-.098.196.196 0 0 1-.012-.145c.138-.342 3.662-9.392 3.845-9.864C5.257 1.444 5.716.5 7.09.5ZM.787 16.956a.207.207 0 0 0-.142.06.195.195 0 0 0-.056.14V19.3c0 .114.092.2.198.2H13.39a.205.205 0 0 0 .142-.06.196.196 0 0 0 .057-.14v-2.145a.191.191 0 0 0-.057-.14.203.203 0 0 0-.142-.06H.787ZM5.288 8.55l1.8-5.047h.016l1.8 5.047H5.29Z" fill="#C9C9C9"/></svg>