<svg width="130" height="44" viewBox="0 0 130 44" fill="none" xmlns="http://www.w3.org/2000/svg">
<g id="autosolution" clip-path="url(#clip0_245_249)">
<path id="Vector" d="M0.0313197 33.1106L2.23768 24.7198C2.83488 22.4336 4.78088 21.2874 8.07407 21.2827H12.8111C13.0279 21.2827 13.2087 21.3656 13.3522 21.5298C13.4956 21.694 13.5674 21.8847 13.5674 22.1021V33.1122C13.5674 33.3421 13.4847 33.5344 13.321 33.6892C13.1573 33.8456 12.9608 33.9222 12.7316 33.9222H11.0788C10.8387 33.9222 10.6407 33.8441 10.4863 33.6892C10.3304 33.5329 10.2539 33.3359 10.2539 33.095V30.873H4.00435L3.41494 33.095C3.35569 33.3359 3.2247 33.5344 3.01888 33.6892C2.81305 33.8456 2.59633 33.9222 2.36867 33.9222H0.637861C0.408648 33.9222 0.244937 33.8565 0.145143 33.7236C0.0453501 33.5907 -0.00297677 33.475 0.000141781 33.375C0.00326034 33.2748 0.0126084 33.1857 0.0313197 33.1106ZM4.65455 28.3773H10.2539V23.7768H7.74817C7.18527 23.7768 6.69411 23.9363 6.27622 24.2569C5.85678 24.5774 5.57456 25.0075 5.42799 25.5485L4.65455 28.3773Z" fill="white"/>
<path id="Vector_2" d="M15.9048 29.8579V24.8071C15.9048 24.6491 15.9563 24.5177 16.0592 24.4146C16.1621 24.3113 16.2884 24.2598 16.4413 24.2598H18.4106C18.5634 24.2598 18.6897 24.3113 18.7926 24.4146C18.8955 24.5177 18.947 24.6475 18.947 24.8071V29.8579C18.947 31.2683 19.5037 31.9735 20.6169 31.9735C21.3498 31.9735 22.1372 31.5498 22.9808 30.7038V24.8071C22.9808 24.6491 23.0323 24.5177 23.1352 24.4146C23.2381 24.3113 23.3644 24.2598 23.5172 24.2598H25.4772C25.6347 24.2598 25.7657 24.3113 25.8686 24.4146C25.9715 24.5177 26.023 24.6475 26.023 24.8071V33.384C26.023 33.5372 25.9715 33.664 25.8686 33.7672C25.7657 33.8703 25.6362 33.9219 25.4772 33.9219H23.5172C23.3644 33.9219 23.2381 33.8703 23.1352 33.7672C23.0323 33.664 22.9808 33.5372 22.9808 33.384V32.8196C21.9735 33.6718 20.8992 34.0971 19.7593 34.0971C18.6196 34.0971 17.6918 33.7484 16.9776 33.0525C16.2619 32.3567 15.9048 31.2902 15.9048 29.8579Z" fill="white"/>
<path id="Vector_3" d="M32.771 32.008L33.9747 31.9016H34.3007C34.4581 31.9016 34.5891 31.9517 34.692 32.0518C34.7949 32.1519 34.8463 32.2817 34.8463 32.4396V33.3826C34.8463 33.5123 34.7949 33.6281 34.692 33.7312C34.5891 33.8345 34.4597 33.8969 34.3007 33.9204C33.7034 34.0377 32.9238 34.0971 31.9633 34.0971C29.4435 34.0971 28.1836 32.7742 28.1836 30.13V21.8266C28.1836 21.6687 28.235 21.5373 28.338 21.4341C28.4409 21.331 28.5672 21.2793 28.72 21.2793H30.6893C30.8422 21.2793 30.9684 21.331 31.0714 21.4341C31.1743 21.5373 31.2258 21.6671 31.2258 21.8266V24.7711H33.6785C33.8313 24.7711 33.9575 24.8211 34.0605 24.9212C34.1634 25.0213 34.2149 25.1511 34.2149 25.309V26.3583C34.2149 26.5162 34.1634 26.646 34.0605 26.7461C33.9575 26.8462 33.8297 26.8962 33.6785 26.8962H31.2258V30.1315C31.2258 30.7304 31.3661 31.1933 31.6483 31.5201C31.9274 31.8453 32.3016 32.008 32.771 32.008Z" fill="white"/>
<path id="Vector_4" d="M37.0254 32.8274C36.1117 31.9813 35.6548 30.7334 35.6548 29.0853C35.6548 27.4372 36.1117 26.1909 37.0254 25.3481C37.9391 24.5052 39.2536 24.083 40.9672 24.083C42.6809 24.083 43.9953 24.5052 44.9091 25.3481C45.8228 26.1909 46.2797 27.4372 46.2797 29.0853C46.2797 30.7334 45.8228 31.9813 44.9091 32.8274C43.9953 33.6733 42.6809 34.0971 40.9672 34.0971C39.2536 34.0971 37.9407 33.6733 37.0254 32.8274ZM39.2505 26.7992C38.8872 27.2746 38.7047 28.0361 38.7047 29.0822C38.7047 30.1284 38.8856 30.8914 39.2505 31.3746C39.6138 31.8563 40.1861 32.097 40.9688 32.097C41.7515 32.097 42.3254 31.8563 42.6918 31.3746C43.0583 30.893 43.2407 30.1284 43.2407 29.0822C43.2407 28.0361 43.0567 27.2746 42.6918 26.7992C42.3254 26.3238 41.7515 26.0846 40.9688 26.0846C40.1861 26.0846 39.6122 26.3223 39.2505 26.7992Z" fill="white"/>
<path id="Vector_5" d="M51.0606 30.6848C51.0606 30.3376 51.1635 30.0906 51.3677 29.9405C51.572 29.7903 51.7716 29.7152 51.9649 29.7152H53.0113C53.5382 29.7152 53.9405 30.003 54.215 30.5784C54.491 31.1539 55.1085 31.4416 56.0689 31.4416L59.1454 31.5026C60.1761 31.5026 60.6922 31.1648 60.6922 30.4893C60.6922 29.9779 60.0622 29.5761 58.8024 29.2821C58.2395 29.1476 57.6189 29.0131 56.939 28.8818C56.2591 28.7489 55.584 28.5831 54.9136 28.3829C54.243 28.1828 53.6256 27.9482 53.0627 27.6777C52.4998 27.4072 52.0445 27.0351 51.6952 26.5628C51.346 26.0905 51.1728 25.5323 51.1728 24.8928C51.1728 23.7122 51.5923 22.802 52.4296 22.164C53.267 21.526 54.7093 21.207 56.7535 21.207L58.9864 21.2602C60.187 21.2602 61.2707 21.5699 62.2344 22.1907C63.198 22.8115 63.6798 23.5855 63.6798 24.5127C63.6798 24.8599 63.5768 25.1085 63.3726 25.2618C63.1668 25.4151 62.9719 25.4917 62.7832 25.4917H61.7369C61.21 25.4917 60.8076 25.2024 60.5331 24.6238C60.2571 24.0452 59.6397 23.7559 58.6792 23.7559L56.0331 23.7027C55.0024 23.7027 54.4863 24.0406 54.4863 24.716C54.4863 25.0866 54.8122 25.3884 55.4671 25.6246C56.1204 25.8591 56.9109 26.0671 57.8403 26.2454C58.7696 26.4252 59.7021 26.641 60.6392 26.8927C61.5763 27.1461 62.3716 27.562 63.0249 28.1406C63.6782 28.7192 64.0057 29.44 64.0057 30.3048C64.0057 31.4853 63.5847 32.3954 62.7443 33.0334C61.9038 33.6714 60.463 33.9905 58.4235 33.9905L55.7602 33.9373C54.5596 33.9373 53.4743 33.6277 52.5076 33.0069C51.544 32.3877 51.0606 31.6136 51.0606 30.6848Z" fill="white"/>
<path id="Vector_6" d="M66.4507 32.8274C65.537 31.9813 65.0801 30.7334 65.0801 29.0853C65.0801 27.4372 65.537 26.1909 66.4507 25.3481C67.3645 24.5052 68.6789 24.083 70.3926 24.083C72.1062 24.083 73.4207 24.5052 74.3344 25.3481C75.2482 26.1909 75.705 27.4372 75.705 29.0853C75.705 30.7334 75.2482 31.9813 74.3344 32.8274C73.4207 33.6733 72.1062 34.0971 70.3926 34.0971C68.6789 34.0971 67.3645 33.6733 66.4507 32.8274ZM68.6742 26.7992C68.311 27.2746 68.1301 28.0361 68.1301 29.0822C68.1301 30.1284 68.311 30.8914 68.6742 31.3746C69.0376 31.8563 69.6098 32.097 70.3926 32.097C71.1754 32.097 71.7491 31.8563 72.1156 31.3746C72.482 30.893 72.6644 30.1284 72.6644 29.0822C72.6644 28.0361 72.482 27.2746 72.1156 26.7992C71.7491 26.3238 71.1754 26.0846 70.3926 26.0846C69.6098 26.0846 69.0376 26.3223 68.6742 26.7992Z" fill="white"/>
<path id="Vector_7" d="M77.324 33.3826V21.8266C77.324 21.6687 77.3754 21.5373 77.4783 21.4341C77.5812 21.331 77.7076 21.2793 77.8603 21.2793H79.8296C79.9825 21.2793 80.1088 21.331 80.2118 21.4341C80.3146 21.5373 80.3661 21.6671 80.3661 21.8266V33.3826C80.3661 33.5357 80.3146 33.6624 80.2118 33.7656C80.1088 33.8688 79.9809 33.9204 79.8296 33.9204H77.8603C77.7076 33.9204 77.5812 33.8688 77.4783 33.7656C77.3754 33.664 77.324 33.5357 77.324 33.3826Z" fill="white"/>
<path id="Vector_8" d="M82.5264 29.8579V24.8071C82.5264 24.6491 82.5784 24.5177 82.6808 24.4146C82.784 24.3113 82.9099 24.2598 83.0635 24.2598H85.0322C85.1849 24.2598 85.3117 24.3113 85.4141 24.4146C85.5172 24.5177 85.5692 24.6475 85.5692 24.8071V29.8579C85.5692 31.2683 86.1258 31.9735 87.2389 31.9735C87.9718 31.9735 88.7591 31.5498 89.6025 30.7038V24.8071C89.6025 24.6491 89.6545 24.5177 89.7569 24.4146C89.8601 24.3113 89.986 24.2598 90.1387 24.2598H92.0993C92.2569 24.2598 92.3877 24.3113 92.4901 24.4146C92.5933 24.5177 92.6445 24.6475 92.6445 24.8071V33.384C92.6445 33.5372 92.5933 33.664 92.4901 33.7672C92.3877 33.8703 92.2577 33.9219 92.0993 33.9219H90.1387C89.986 33.9219 89.8584 33.8703 89.7569 33.7672C89.6545 33.664 89.6025 33.5372 89.6025 33.384V32.8196C88.5958 33.6718 87.5209 34.0971 86.3809 34.0971C85.241 34.0971 84.3139 33.7484 83.5997 33.0525C82.8839 32.3567 82.5264 31.2902 82.5264 29.8579Z" fill="white"/>
<path id="Vector_9" d="M99.394 32.008L100.597 31.9016H100.923C101.081 31.9016 101.212 31.9517 101.315 32.0518C101.418 32.1519 101.469 32.2817 101.469 32.4396V33.3826C101.469 33.5123 101.418 33.6281 101.315 33.7312C101.212 33.8345 101.082 33.8969 100.923 33.9204C100.326 34.0377 99.5467 34.0971 98.5863 34.0971C96.066 34.0971 94.8066 32.7742 94.8066 30.13V21.8266C94.8066 21.6687 94.8578 21.5373 94.961 21.4341C95.0633 21.331 95.1901 21.2793 95.3428 21.2793H97.3123C97.4651 21.2793 97.591 21.331 97.6942 21.4341C97.7966 21.5373 97.8486 21.6671 97.8486 21.8266V24.7711H100.302C100.454 24.7711 100.58 24.8211 100.683 24.9212C100.786 25.0213 100.838 25.1511 100.838 25.309V26.3583C100.838 26.5162 100.786 26.646 100.683 26.7461C100.58 26.8462 100.453 26.8962 100.302 26.8962H97.8486V30.1315C97.8486 30.7304 97.9891 31.1933 98.2711 31.5201C98.553 31.847 98.9243 32.008 99.394 32.008Z" fill="white"/>
<path id="Vector_10" d="M102.91 22.4176V22.1174C102.91 21.8062 102.999 21.5592 103.178 21.3762C103.357 21.1948 103.603 21.1025 103.92 21.1025H105.01C105.32 21.1025 105.566 21.1917 105.748 21.3715C105.929 21.5513 106.021 21.7984 106.021 22.1158V22.416C106.021 22.7272 105.931 22.9743 105.753 23.1573C105.573 23.3402 105.327 23.4309 105.01 23.4309H103.92C103.61 23.4309 103.364 23.3402 103.181 23.1573C103 22.9758 102.91 22.7287 102.91 22.4176ZM102.945 33.3824V25.0181C102.945 24.8601 102.997 24.7303 103.1 24.6302C103.203 24.5301 103.329 24.4801 103.482 24.4801H105.451C105.609 24.4801 105.738 24.5318 105.838 24.6349C105.938 24.7382 105.987 24.8663 105.987 25.0181V33.3824C105.987 33.5404 105.936 33.6701 105.834 33.7702C105.731 33.8703 105.602 33.9203 105.451 33.9203H103.482C103.325 33.9203 103.195 33.8703 103.096 33.7702C102.994 33.6701 102.945 33.5419 102.945 33.3824Z" fill="white"/>
<path id="Vector_11" d="M109.009 32.8274C108.096 31.9813 107.639 30.7334 107.639 29.0853C107.639 27.4372 108.096 26.1909 109.009 25.3481C109.923 24.5052 111.238 24.083 112.951 24.083C114.665 24.083 115.979 24.5052 116.893 25.3481C117.807 26.1909 118.263 27.4372 118.263 29.0853C118.263 30.7334 117.807 31.9813 116.893 32.8274C115.979 33.6733 114.665 34.0971 112.951 34.0971C111.238 34.0971 109.923 33.6733 109.009 32.8274ZM111.233 26.7992C110.87 27.2746 110.687 28.0361 110.687 29.0822C110.687 30.1284 110.868 30.8914 111.233 31.3746C111.596 31.8563 112.168 32.097 112.951 32.097C113.734 32.097 114.308 31.8563 114.675 31.3746C115.041 30.893 115.223 30.1284 115.223 29.0822C115.223 28.0361 115.041 27.2746 114.675 26.7992C114.308 26.3238 113.734 26.0846 112.951 26.0846C112.168 26.0846 111.596 26.3223 111.233 26.7992Z" fill="white"/>
<path id="Vector_12" d="M119.883 33.3825V24.8054C119.883 24.6475 119.934 24.5162 120.037 24.4129C120.14 24.3098 120.266 24.2581 120.419 24.2581H122.389C122.541 24.2581 122.667 24.3098 122.77 24.4129C122.874 24.5162 122.925 24.646 122.925 24.8054V25.3606C123.932 24.5083 125.006 24.083 126.146 24.083C127.286 24.083 128.214 24.4317 128.928 25.1276C129.642 25.8235 130.001 26.8899 130.001 28.3222V33.3825C130.001 33.5357 129.95 33.6624 129.846 33.7655C129.743 33.8688 129.614 33.9203 129.455 33.9203H127.495C127.342 33.9203 127.215 33.8688 127.113 33.7655C127.01 33.6624 126.959 33.5357 126.959 33.3825V28.3222C126.959 26.918 126.399 26.2159 125.279 26.2159C124.547 26.2159 123.762 26.6366 122.923 27.4763V33.3825C122.923 33.5357 122.872 33.6624 122.769 33.7655C122.666 33.8688 122.538 33.9203 122.387 33.9203H120.417C120.265 33.9203 120.139 33.8688 120.035 33.7655C119.934 33.6639 119.883 33.5357 119.883 33.3825Z" fill="white"/>
<path id="Vector_13" d="M43.9126 7.89519H40.0082C39.3814 7.89519 38.8746 7.38546 38.8746 6.75684H42.779C43.4059 6.75528 43.9126 7.26658 43.9126 7.89519Z" fill="#FDB234"/>
<path id="Vector_14" d="M45.4374 5.92345H38.8371C38.2102 5.92345 37.7018 5.41368 37.7018 4.78662H44.3023C44.9291 4.78507 45.4374 5.29328 45.4374 5.92345Z" fill="#FDB234"/>
<path id="Vector_15" d="M44.4646 10.0157C43.1657 9.83437 41.7701 10.5865 40.9297 9.0572C42.4547 8.39573 44.0467 8.7413 44.4646 10.0157Z" fill="#FDB234"/>
<path id="Vector_16" d="M88.1132 6.75537H92.0172C92.0172 7.38398 91.511 7.89376 90.8838 7.89376H86.9797C86.9797 7.26671 87.4859 6.75537 88.1132 6.75537Z" fill="#FDB234"/>
<path id="Vector_17" d="M93.1897 4.78516V5.1276C93.1897 5.567 92.8346 5.92198 92.3983 5.92198H85.4547C85.4547 5.29336 85.9625 4.78516 86.5881 4.78516H93.1897Z" fill="#FDB234"/>
<path id="Vector_18" d="M89.9624 9.05563C89.1199 10.585 87.7264 9.8328 86.4272 10.0142C86.8449 8.74135 88.4374 8.39579 89.9624 9.05563Z" fill="#FDB234"/>
<path id="Vector_19" d="M80.688 6.88818C80.6022 7.13682 80.4962 7.41048 80.3714 7.71696C79.6791 9.41362 78.6407 12.3925 78.2945 12.6599C77.9484 12.9273 77.1765 13.4105 76.5637 13.5637C76.5185 13.5746 76.4389 13.5934 76.3314 13.6185C76.52 13.7357 76.7477 13.8029 76.994 13.7982L79.8553 13.742C80.4681 13.7295 80.9593 13.2744 80.9593 12.7177V7.55277C80.9609 7.30101 80.8579 7.06801 80.688 6.88818Z" fill="white"/>
<path id="Vector_20" d="M80.0597 4.8853C78.2681 3.85167 75.9666 4.48501 75.9666 4.48501C74.1438 5.42793 72.6703 6.93065 71.7628 8.77586L71.2592 9.79853L65.4244 10.1082L59.5927 9.79853L59.0905 8.77741C58.183 6.93222 56.708 5.42793 54.8836 4.48501C54.8836 4.48501 52.5837 3.85167 50.7905 4.8853C50.2011 5.22618 50.3041 5.96427 50.9698 7.5921C51.6357 9.22303 52.6336 12.0847 52.9657 12.3427C53.2979 12.6007 54.0417 13.0636 54.6295 13.2106C55.2189 13.3607 61.4872 14.7243 63.0215 14.8368C63.7902 14.8915 64.6088 14.9197 65.4259 14.9197C66.243 14.9197 67.0646 14.8915 67.8303 14.8368C69.3678 14.7243 75.636 13.3607 76.2255 13.2106C76.8149 13.0636 77.5555 12.6007 77.8892 12.3427C78.2213 12.0847 79.2192 9.22303 79.885 7.5921C80.5461 5.9627 80.6491 5.22462 80.0597 4.8853ZM53.5972 8.70709C52.5167 7.9721 51.3519 5.64058 51.3519 5.64058C51.3519 5.64058 52.3747 5.27311 52.8862 6.02838C53.3977 6.78678 53.7812 6.94941 55.4699 7.16364C57.1586 7.38099 57.7231 9.65309 57.7231 9.65309C57.7231 9.65309 54.9725 9.64372 53.5972 8.70709ZM77.2514 8.70709C75.8762 9.64217 73.1272 9.65309 73.1272 9.65309C73.1272 9.65309 73.6886 7.38099 75.3773 7.16364C77.066 6.94785 77.4494 6.78522 77.9609 6.02838C78.4724 5.27311 79.4968 5.64058 79.4968 5.64058C79.4968 5.64058 78.3336 7.9721 77.2514 8.70709Z" fill="white"/>
<path id="Vector_21" d="M59.5833 4.11279H55.7943L55.7023 4.32391L58.0848 5.7547L59.956 9.56083L63.2835 9.75785L65.4244 9.83445L61.969 6.22382L60.4004 6.28169L59.0688 4.60226L59.5802 4.59287L59.5833 4.11279Z" fill="white"/>
<path id="Vector_22" d="M52.7906 12.6599C52.4445 12.3925 51.406 9.41362 50.7137 7.71696C50.5889 7.41204 50.4829 7.13682 50.3972 6.88818C50.2272 7.06801 50.1243 7.30101 50.1243 7.55434V12.7193C50.1243 13.276 50.6154 13.731 51.2282 13.7435L54.0895 13.7998C54.3359 13.8045 54.5635 13.7373 54.7522 13.62C54.6446 13.595 54.5666 13.5762 54.5199 13.5653C53.9087 13.4105 53.1368 12.9288 52.7906 12.6599Z" fill="white"/>
<path id="Vector_23" d="M54.5374 2.85084C53.237 2.66945 51.843 3.42314 51.001 1.8907C52.5276 1.23081 54.118 1.57798 54.5374 2.85084Z" fill="white"/>
<path id="Vector_24" d="M76.3124 2.85084C77.6128 2.66945 79.0067 3.42314 79.8487 1.8907C78.3206 1.23081 76.7302 1.57798 76.3124 2.85084Z" fill="white"/>
<path id="Vector_25" d="M75.4959 3.36826H55.5793C55.5793 1.509 57.084 0 58.9379 0H72.1388C73.0666 0 73.9054 0.376863 74.512 0.985152C75.1201 1.59656 75.4959 2.43941 75.4959 3.36826Z" fill="white"/>
<path id="Vector_26" d="M75.2927 4.11084L75.3847 4.32509L73.0006 5.7543L71.1294 9.56044L67.8019 9.75747L65.6625 9.83406L69.1163 6.22343L70.685 6.28287L72.0166 4.6003L71.5052 4.56903V4.11084H75.2927Z" fill="white"/>
<path id="Vector_27" d="M66.728 10.5944C66.7311 10.5929 66.7295 10.5944 66.7014 10.5944H64.2923C63.3053 10.596 62.7222 10.94 62.5429 11.6249L62.3307 12.4318H63.3474L63.5002 11.8735C63.5439 11.711 63.6297 11.5827 63.7544 11.4858C63.8807 11.3903 64.0273 11.3419 64.1957 11.3419H64.9472V12.7211H62.2543L62.0579 13.4685H64.9457L64.9519 14.1363C64.9519 14.2082 64.9878 14.2785 65.0143 14.3129C65.0549 14.3646 65.1546 14.3802 65.1983 14.3787L65.6879 14.3818C65.6989 14.3818 65.7097 14.3818 65.719 14.3802C65.7751 14.3755 65.8236 14.352 65.8641 14.3129C65.8657 14.3114 65.8672 14.3098 65.8703 14.3083C65.8703 14.3067 65.8719 14.3067 65.8719 14.3067C65.9172 14.2613 65.9389 14.2067 65.9389 14.141V13.7954C65.9389 13.7344 65.9389 13.6827 65.9389 13.6827L65.942 10.671C65.942 10.671 66.7248 10.5975 66.728 10.5944ZM61.8816 14.1394C61.877 14.1628 61.8723 14.1894 61.8723 14.2191C61.8708 14.2489 61.8864 14.2833 61.916 14.3239C61.9457 14.3646 61.9956 14.3833 62.0626 14.3833H62.5819C62.6504 14.3833 62.7159 14.3599 62.7768 14.3129C62.8376 14.2661 62.8781 14.2066 62.8952 14.1347L62.995 13.7594H61.9815L61.8816 14.1394Z" fill="#005154"/>
<path id="Vector_28" d="M68.6836 12.6505C68.4872 12.477 68.2486 12.3518 67.968 12.2768C67.6873 12.2017 67.4065 12.1361 67.129 12.0829C66.8514 12.0297 66.613 11.9672 66.4181 11.8968C66.2216 11.8264 66.1234 11.7357 66.1234 11.6248C66.1234 11.4215 66.2777 11.3214 66.588 11.3214L67.3801 11.337C68.0272 11.3417 68.3219 11.3933 68.3219 11.0273C68.3235 10.563 67.8338 10.5942 67.4737 10.5942H66.8032C66.7782 10.5942 66.7533 10.5942 66.7283 10.5942C66.1545 10.6005 65.746 10.6756 65.5059 10.8601C65.2548 11.0509 65.1285 11.3245 65.1285 11.6779C65.1285 11.8703 65.1815 12.0376 65.286 12.1783C65.3905 12.319 65.5276 12.4316 65.6961 12.5129C65.774 12.5505 65.8552 12.5849 65.9393 12.6177C66.0376 12.6568 66.1421 12.6912 66.2496 12.724C66.4508 12.7834 66.6535 12.8335 66.8578 12.8726C67.062 12.9117 67.2476 12.9523 67.416 12.993C68.0927 13.0946 67.8338 13.6795 67.5235 13.6795L65.9393 13.6826C65.9393 13.6826 65.9393 13.7326 65.9393 13.7952C65.9393 13.8561 65.9393 13.9281 65.9378 13.9687C65.9347 14.1751 65.916 14.2596 65.8723 14.3065L65.8708 14.308C65.8364 14.3424 65.788 14.355 65.7195 14.3816C65.7178 14.3832 65.7164 14.3832 65.7148 14.3832C65.7148 14.391 67.3006 14.3956 67.3006 14.3956C68.0552 14.405 68.3438 14.3097 68.5964 14.1188C68.8474 13.9281 68.9752 13.6544 68.9752 13.301C68.9768 13.0415 68.8785 12.8241 68.6836 12.6505Z" fill="#FDB234"/>
<path id="Vector_29" d="M29.2257 40.7803L28.0921 43.3464H27.8255L26.6919 40.7803H26.985L27.9642 43.0102L28.9512 40.7803H29.2257Z" fill="white"/>
<path id="Vector_30" d="M32.4016 42.6614H30.9764L30.6693 43.3464H30.387L31.5565 40.7803H31.8231L32.9926 43.3464H32.7073L32.4016 42.6614ZM32.3034 42.4409L31.6891 41.0618L31.0747 42.4409H32.3034Z" fill="white"/>
<path id="Vector_31" d="M34.6987 40.7803H34.97V43.1119H36.4029V43.3464H34.6987V40.7803Z" fill="white"/>
<path id="Vector_32" d="M38.3397 43.0835C38.1541 42.8927 38.0621 42.616 38.0621 42.2516V40.7817H38.3334V42.2407C38.3334 42.5393 38.4005 42.7614 38.5346 42.9084C38.6687 43.0554 38.862 43.1288 39.1162 43.1288C39.372 43.1288 39.5668 43.0554 39.7009 42.9084C39.835 42.7614 39.9021 42.5393 39.9021 42.2407V40.7817H40.1656V42.2516C40.1656 42.616 40.0736 42.8927 39.8896 43.0835C39.7057 43.2743 39.4483 43.3697 39.1162 43.3697C38.7841 43.3697 38.5253 43.2743 38.3397 43.0835Z" fill="white"/>
<path id="Vector_33" d="M44.0682 43.1119V43.3464H42.2579V40.7803H44.0121V41.0149H42.5277V41.9281H43.8515V42.1595H42.5277V43.1134H44.0682V43.1119Z" fill="white"/>
<path id="Vector_34" d="M50.6178 43.2773C50.4431 43.2164 50.3091 43.135 50.214 43.035L50.3199 42.8254C50.412 42.9177 50.5352 42.9928 50.6895 43.0506C50.8424 43.1085 51.0014 43.1366 51.1651 43.1366C51.3943 43.1366 51.5658 43.0944 51.6812 43.01C51.795 42.9255 51.8527 42.816 51.8527 42.6816C51.8527 42.5784 51.8215 42.497 51.7592 42.4361C51.6968 42.3751 51.6204 42.3282 51.53 42.2954C51.4396 42.2625 51.3148 42.2265 51.1542 42.1874C50.9608 42.1389 50.808 42.0921 50.6942 42.0467C50.5803 42.0014 50.4821 41.9325 50.3995 41.8403C50.3184 41.7481 50.2763 41.6214 50.2763 41.4634C50.2763 41.3336 50.3106 41.2164 50.3792 41.1101C50.4478 41.0037 50.5523 40.9192 50.6942 40.8551C50.836 40.7911 51.0107 40.7598 51.2212 40.7598C51.3678 40.7598 51.5112 40.7801 51.65 40.8207C51.7904 40.8614 51.912 40.9161 52.0134 40.9881L51.9214 41.2038C51.8138 41.1334 51.7 41.0803 51.5783 41.0444C51.4567 41.0084 51.3366 40.9912 51.2197 40.9912C50.9951 40.9912 50.8268 41.035 50.7129 41.121C50.5991 41.207 50.543 41.3195 50.543 41.4572C50.543 41.5604 50.5742 41.6417 50.6365 41.7042C50.6989 41.7668 50.7768 41.8137 50.8704 41.8466C50.9639 41.8794 51.0903 41.9153 51.2493 41.9544C51.4364 42.0013 51.5892 42.0467 51.7046 42.0921C51.82 42.1374 51.9182 42.2061 51.9993 42.2968C52.0804 42.3892 52.1194 42.5127 52.1194 42.669C52.1194 42.7988 52.0851 42.9161 52.0149 43.0224C51.9448 43.1288 51.8387 43.2132 51.6953 43.2758C51.5519 43.3383 51.374 43.3696 51.1651 43.3696C50.9749 43.3681 50.7924 43.3383 50.6178 43.2773Z" fill="white"/>
<path id="Vector_35" d="M55.7956 43.1119V43.3464H53.9852V40.7803H55.7394V41.0149H54.2565V41.9281H55.5803V42.1595H54.2565V43.1134H55.7956V43.1119Z" fill="white"/>
<path id="Vector_36" d="M57.7121 40.7803H57.9834V43.1119H59.4163V43.3464H57.7121V40.7803Z" fill="white"/>
<path id="Vector_37" d="M62.9541 43.1119V43.3464H61.1438V40.7803H62.898V41.0149H61.4135V41.9281H62.7374V42.1595H61.4135V43.1134H62.9541V43.1119Z" fill="white"/>
<path id="Vector_38" d="M65.2804 43.2008C65.0762 43.0883 64.9171 42.9318 64.8017 42.7333C64.6863 42.5347 64.6287 42.3111 64.6287 42.064C64.6287 41.8169 64.6863 41.5949 64.8017 41.3948C64.9171 41.1962 65.0777 41.0398 65.282 40.9272C65.4863 40.8146 65.7155 40.7583 65.9696 40.7583C66.1599 40.7583 66.3345 40.7896 66.4967 40.8536C66.6572 40.9178 66.7945 41.0101 66.9068 41.1321L66.7351 41.3041C66.5356 41.1008 66.2831 40.9992 65.979 40.9992C65.7763 40.9992 65.5923 41.046 65.427 41.1382C65.2617 41.2306 65.1307 41.3587 65.0372 41.5198C64.9437 41.6809 64.8969 41.8623 64.8969 42.0624C64.8969 42.2626 64.9437 42.444 65.0372 42.6051C65.1307 42.7662 65.2601 42.8928 65.427 42.9866C65.5923 43.0789 65.7763 43.1257 65.979 43.1257C66.2862 43.1257 66.5387 43.0226 66.7351 42.8177L66.9068 42.9898C66.7945 43.1117 66.6573 43.2055 66.4951 43.2696C66.333 43.3338 66.1567 43.3666 65.9665 43.3666C65.7124 43.3682 65.4832 43.3134 65.2804 43.2008Z" fill="white"/>
<path id="Vector_39" d="M69.2274 41.0149H68.3278V40.7803H70.3969V41.0149H69.4972V43.3464H69.2274V41.0149Z" fill="white"/>
<path id="Vector_40" d="M72.107 40.7803H72.3767V43.3464H72.107V40.7803Z" fill="white"/>
<path id="Vector_41" d="M74.9216 43.1978C74.7158 43.0836 74.5552 42.9288 74.4399 42.7302C74.3245 42.5316 74.2668 42.3095 74.2668 42.0625C74.2668 41.8154 74.3245 41.5934 74.4399 41.3948C74.5552 41.1962 74.7158 41.0414 74.9216 40.9273C75.1275 40.8131 75.3568 40.7568 75.6109 40.7568C75.8651 40.7568 76.0927 40.8131 76.297 40.9257C76.5012 41.0383 76.6603 41.1946 76.7773 41.3932C76.8942 41.5919 76.9534 41.8154 76.9534 42.0625C76.9534 42.3095 76.8942 42.5331 76.7773 42.7318C76.6603 42.9304 76.4996 43.0867 76.297 43.1993C76.0943 43.3119 75.8651 43.3682 75.6109 43.3682C75.3568 43.3682 75.1275 43.3119 74.9216 43.1978ZM76.1581 42.9898C76.3218 42.8975 76.4497 42.7709 76.5417 42.6083C76.6337 42.4456 76.6805 42.2642 76.6805 42.064C76.6805 41.8639 76.6337 41.6825 76.5417 41.5199C76.4497 41.3573 76.3218 41.2306 76.1581 41.1383C75.9944 41.0461 75.812 41.0007 75.6093 41.0007C75.4066 41.0007 75.2242 41.0461 75.0589 41.1383C74.8936 41.2306 74.7657 41.3573 74.6706 41.5199C74.577 41.6825 74.5303 41.8639 74.5303 42.064C74.5303 42.2642 74.577 42.4456 74.6706 42.6083C74.7641 42.7709 74.8936 42.8975 75.0589 42.9898C75.2226 43.0821 75.4066 43.1274 75.6093 43.1274C75.812 43.1274 75.996 43.0805 76.1581 42.9898Z" fill="white"/>
<path id="Vector_42" d="M80.9764 40.7803V43.3464H80.7535L79.1084 41.2635V43.3464H78.8387V40.7803H79.0617L80.7099 42.8632V40.7803H80.9764Z" fill="white"/>
<path id="Vector_43" d="M88.062 41.0149H87.1617V40.7803H89.2312V41.0149H88.3317V43.3464H88.062V41.0149Z" fill="white"/>
<path id="Vector_44" d="M92.6892 43.3465L92.1042 42.5208C92.0392 42.5286 91.9702 42.5317 91.9003 42.5317H91.2129V43.3449H90.9415V40.7788H91.8987C92.2245 40.7788 92.482 40.857 92.6657 41.0134C92.8517 41.1698 92.9435 41.3855 92.9435 41.6592C92.9435 41.8593 92.8932 42.0282 92.7924 42.1674C92.6908 42.305 92.547 42.4051 92.3585 42.466L92.9842 43.3465H92.6892ZM92.4739 42.133C92.608 42.0204 92.6754 41.8625 92.6754 41.6608C92.6754 41.4528 92.608 41.2933 92.4739 41.1823C92.3398 41.0712 92.1465 41.0149 91.8922 41.0149H91.2129V42.3019H91.8922C92.1465 42.3019 92.3398 42.2456 92.4739 42.133Z" fill="white"/>
<path id="Vector_45" d="M95.1202 43.0835C94.9349 42.8927 94.8423 42.616 94.8423 42.2516V40.7817H95.112V42.2407C95.112 42.5393 95.1795 42.7614 95.3135 42.9084C95.4476 43.0554 95.641 43.1288 95.8953 43.1288C96.1512 43.1288 96.3462 43.0554 96.4803 42.9084C96.6144 42.7614 96.681 42.5393 96.681 42.2407V40.7817H96.9442V42.2516C96.9442 42.616 96.8524 42.8927 96.6688 43.0835C96.4843 43.2743 96.2276 43.3697 95.8953 43.3697C95.5646 43.3681 95.3054 43.2743 95.1202 43.0835Z" fill="white"/>
<path id="Vector_46" d="M99.1998 43.2773C99.0251 43.2164 98.891 43.135 98.796 43.035L98.9016 42.8254C98.9934 42.9177 99.1169 42.9928 99.2713 43.0506C99.424 43.1085 99.5833 43.1366 99.7466 43.1366C99.9765 43.1366 100.148 43.0944 100.263 43.01C100.379 42.9255 100.435 42.816 100.435 42.6816C100.435 42.5784 100.403 42.497 100.341 42.4361C100.279 42.3751 100.202 42.3282 100.111 42.2954C100.021 42.2625 99.8969 42.2265 99.7344 42.1874C99.5426 42.1389 99.3883 42.0921 99.2745 42.0467C99.1608 42.0014 99.0625 41.9325 98.9796 41.8403C98.8983 41.7481 98.8569 41.6214 98.8569 41.4634C98.8569 41.3336 98.891 41.2164 98.9593 41.1101C99.0283 41.0037 99.1323 40.9192 99.2745 40.8551C99.4159 40.7911 99.5906 40.7598 99.801 40.7598C99.9481 40.7598 100.091 40.7801 100.232 40.8207C100.372 40.8614 100.494 40.9161 100.595 40.9881L100.503 41.2038C100.396 41.1334 100.282 41.0803 100.16 41.0444C100.038 41.0084 99.918 40.9912 99.801 40.9912C99.5768 40.9912 99.4086 41.035 99.2948 41.121C99.1811 41.207 99.125 41.3195 99.125 41.4572C99.125 41.5604 99.1559 41.6417 99.2185 41.7042C99.281 41.7668 99.359 41.8137 99.4525 41.8466C99.5459 41.8794 99.6718 41.9153 99.8311 41.9544C100.018 42.0013 100.171 42.0467 100.286 42.0921C100.401 42.1374 100.5 42.2061 100.581 42.2968C100.662 42.3892 100.701 42.5127 100.701 42.669C100.701 42.7988 100.667 42.9161 100.596 43.0224C100.527 43.1288 100.42 43.2132 100.277 43.2758C100.133 43.3383 99.9562 43.3696 99.7466 43.3696C99.5548 43.3681 99.3728 43.3383 99.1998 43.2773Z" fill="white"/>
<path id="Vector_47" d="M103.029 41.0149H102.129V40.7803H104.198V41.0149H103.299V43.3464H103.029V41.0149Z" fill="white"/>
<path id="Vector_48" d="M20.1631 42.2765H8.00698C7.96332 42.2765 7.92902 42.2421 7.92902 42.1983C7.92902 42.1545 7.96332 42.1201 8.00698 42.1201H20.1631C20.2068 42.1201 20.2411 42.1545 20.2411 42.1983C20.2411 42.2421 20.2068 42.2765 20.1631 42.2765Z" fill="white"/>
<path id="Vector_49" d="M122.882 42.2765H110.726C110.682 42.2765 110.648 42.2421 110.648 42.1983C110.648 42.1545 110.682 42.1201 110.726 42.1201H122.882C122.926 42.1201 122.96 42.1545 122.96 42.1983C122.96 42.2421 122.926 42.2765 122.882 42.2765Z" fill="white"/>
<path id="Vector_50" d="M47.1729 42.547C47.3882 42.547 47.5627 42.3719 47.5627 42.1561C47.5627 41.9402 47.3882 41.7651 47.1729 41.7651C46.9575 41.7651 46.783 41.9402 46.783 42.1561C46.783 42.3719 46.9575 42.547 47.1729 42.547Z" fill="white"/>
<path id="Vector_51" d="M84.1571 42.547C84.3724 42.547 84.5471 42.3719 84.5471 42.1561C84.5471 41.9402 84.3724 41.7651 84.1571 41.7651C83.9418 41.7651 83.7679 41.9402 83.7679 42.1561C83.7679 42.3719 83.9418 42.547 84.1571 42.547Z" fill="white"/>
</g>
<defs>
<clipPath id="clip0_245_249">
<rect width="130" height="44" fill="white"/>
</clipPath>
</defs>
</svg>
