<svg width="130" height="44" fill="none" xmlns="http://www.w3.org/2000/svg"><g clip-path="url(#a)"><path d="m.031 33.11 2.207-8.39c.597-2.286 2.543-3.433 5.836-3.437h4.737a.69.69 0 0 1 .541.247.843.843 0 0 1 .215.572v11.01c0 .23-.082.422-.246.577a.822.822 0 0 1-.59.233H11.08a.802.802 0 0 1-.593-.233.803.803 0 0 1-.232-.594v-2.222h-6.25l-.59 2.222c-.058.24-.19.44-.395.594a1.056 1.056 0 0 1-.65.233H.638c-.23 0-.393-.066-.493-.198-.1-.133-.148-.249-.145-.349.003-.1.013-.19.031-.264Zm4.624-4.733h5.599v-4.6H7.748c-.563 0-1.054.16-1.472.48-.42.32-.701.75-.848 1.291l-.773 2.83Zm11.25 1.481v-5.05c0-.159.051-.29.154-.393a.516.516 0 0 1 .382-.155h1.97a.53.53 0 0 1 .536.547v5.05c0 1.411.557 2.117 1.67 2.117.733 0 1.52-.424 2.364-1.27v-5.897a.53.53 0 0 1 .154-.392.516.516 0 0 1 .382-.155h1.96a.53.53 0 0 1 .546.547v8.577a.528.528 0 0 1-.546.538h-1.96a.517.517 0 0 1-.382-.155.52.52 0 0 1-.154-.383v-.564c-1.008.852-2.082 1.277-3.222 1.277-1.14 0-2.067-.349-2.781-1.044-.716-.696-1.073-1.763-1.073-3.195Zm16.866 2.15 1.204-.106h.326a.518.518 0 0 1 .546.538v.943a.48.48 0 0 1-.155.348.672.672 0 0 1-.391.19c-.598.117-1.377.176-2.338.176-2.52 0-3.78-1.323-3.78-3.967v-8.303c0-.158.052-.29.155-.393a.517.517 0 0 1 .382-.155h1.97a.531.531 0 0 1 .537.547v2.945h2.451a.518.518 0 0 1 .536.538v1.05a.518.518 0 0 1-.535.537h-2.453v3.235c0 .6.14 1.062.422 1.39.28.324.654.487 1.123.487Zm4.254.819c-.913-.846-1.37-2.094-1.37-3.742 0-1.648.457-2.894 1.37-3.737.914-.843 2.229-1.265 3.942-1.265 1.714 0 3.028.422 3.942 1.265.914.843 1.37 2.09 1.37 3.737 0 1.648-.456 2.896-1.37 3.742-.914.846-2.228 1.27-3.942 1.27-1.713 0-3.026-.424-3.942-1.27Zm2.226-6.028c-.364.476-.546 1.237-.546 2.283 0 1.046.18 1.81.546 2.293.363.481.935.722 1.718.722.782 0 1.356-.24 1.723-.722.366-.482.549-1.247.549-2.293s-.184-1.807-.55-2.283c-.366-.475-.94-.714-1.722-.714-.783 0-1.357.237-1.718.714Zm11.809 3.886c0-.347.103-.594.308-.744.204-.15.404-.226.597-.226h1.046c.527 0 .93.288 1.204.863.276.576.893.864 1.854.864l3.076.06c1.031 0 1.547-.337 1.547-1.013 0-.511-.63-.913-1.89-1.207a43.627 43.627 0 0 0-1.863-.4 21.462 21.462 0 0 1-2.025-.5 12.6 12.6 0 0 1-1.851-.704 3.615 3.615 0 0 1-1.368-1.115c-.349-.473-.522-1.03-.522-1.67 0-1.18.42-2.091 1.257-2.729.837-.638 2.28-.957 4.324-.957l2.232.053c1.201 0 2.285.31 3.248.93.964.621 1.446 1.395 1.446 2.323 0 .347-.103.595-.307.749-.206.153-.401.23-.59.23h-1.046c-.527 0-.93-.29-1.204-.868-.276-.579-.893-.868-1.854-.868l-2.646-.053c-1.03 0-1.547.338-1.547 1.013 0 .37.326.672.981.909.653.234 1.444.442 2.373.62.93.18 1.862.396 2.8.648.936.253 1.732.669 2.385 1.248.653.578.98 1.299.98 2.164 0 1.18-.42 2.09-1.26 2.728-.841.638-2.282.957-4.322.957l-2.663-.053c-1.2 0-2.286-.31-3.252-.93-.964-.62-1.447-1.393-1.447-2.322Zm15.39 2.142c-.913-.846-1.37-2.094-1.37-3.742 0-1.648.457-2.894 1.37-3.737.915-.843 2.229-1.265 3.943-1.265 1.713 0 3.028.422 3.941 1.265.914.843 1.371 2.09 1.371 3.737 0 1.648-.457 2.896-1.37 3.742-.914.846-2.229 1.27-3.942 1.27-1.714 0-3.028-.424-3.942-1.27Zm2.224-6.028c-.363.476-.544 1.237-.544 2.283 0 1.046.181 1.81.544 2.293.364.481.936.722 1.719.722.782 0 1.356-.24 1.723-.722.366-.482.548-1.247.548-2.293s-.182-1.807-.548-2.283c-.367-.475-.94-.714-1.723-.714-.783 0-1.355.237-1.719.714Zm8.65 6.584V21.827c0-.158.051-.29.154-.393a.517.517 0 0 1 .382-.155h1.97a.531.531 0 0 1 .537.547v11.557a.52.52 0 0 1-.155.383.52.52 0 0 1-.382.154h-1.97a.517.517 0 0 1-.382-.154.517.517 0 0 1-.154-.383Zm5.202-3.525v-5.05c0-.159.052-.29.155-.393a.517.517 0 0 1 .383-.155h1.968a.53.53 0 0 1 .537.547v5.05c0 1.411.557 2.117 1.67 2.117.733 0 1.52-.424 2.364-1.27v-5.897c0-.158.052-.29.154-.392a.516.516 0 0 1 .382-.155h1.96a.528.528 0 0 1 .545.547v8.577a.527.527 0 0 1-.545.538h-1.96a.514.514 0 0 1-.382-.155.522.522 0 0 1-.154-.383v-.564c-1.007.852-2.082 1.277-3.222 1.277-1.14 0-2.067-.349-2.781-1.044-.716-.696-1.074-1.763-1.074-3.195Zm16.868 2.15 1.203-.106h.326a.517.517 0 0 1 .546.538v.943a.48.48 0 0 1-.154.348.674.674 0 0 1-.392.19c-.597.117-1.376.176-2.337.176-2.52 0-3.78-1.323-3.78-3.967v-8.303a.532.532 0 0 1 .537-.548h1.97c.152 0 .278.052.381.155a.533.533 0 0 1 .155.393v2.944h2.453a.524.524 0 0 1 .536.538v1.05a.518.518 0 0 1-.536.537h-2.453v3.235c0 .6.14 1.062.422 1.39.282.326.653.487 1.123.487Zm3.516-9.59v-.3c0-.312.089-.559.268-.742.179-.181.425-.274.742-.274h1.09c.31 0 .556.09.738.27.181.18.273.426.273.744v.3c0 .311-.09.558-.268.741-.18.183-.426.274-.743.274h-1.09c-.31 0-.556-.09-.739-.274-.181-.181-.271-.428-.271-.74Zm.035 10.964v-8.364a.518.518 0 0 1 .537-.538h1.969c.158 0 .287.052.387.155a.53.53 0 0 1 .149.383v8.364a.52.52 0 0 1-.536.538h-1.969a.516.516 0 0 1-.537-.538Zm6.064-.555c-.913-.846-1.37-2.094-1.37-3.742 0-1.648.457-2.894 1.37-3.737.914-.843 2.229-1.265 3.942-1.265 1.714 0 3.028.422 3.942 1.265.914.843 1.37 2.09 1.37 3.737 0 1.648-.456 2.896-1.37 3.742-.914.846-2.228 1.27-3.942 1.27-1.713 0-3.028-.424-3.942-1.27Zm2.224-6.028c-.363.476-.546 1.237-.546 2.283 0 1.046.181 1.81.546 2.293.363.481.935.722 1.718.722.783 0 1.357-.24 1.724-.722.366-.482.548-1.247.548-2.293s-.182-1.807-.548-2.283c-.367-.475-.941-.714-1.724-.714s-1.355.237-1.718.714Zm8.65 6.584v-8.578c0-.157.051-.289.154-.392a.517.517 0 0 1 .382-.155h1.97a.528.528 0 0 1 .536.547v.556c1.007-.853 2.081-1.278 3.221-1.278 1.14 0 2.068.349 2.782 1.045.714.695 1.073 1.762 1.073 3.194v5.06a.527.527 0 0 1-.546.538h-1.96a.514.514 0 0 1-.382-.154.518.518 0 0 1-.154-.383v-5.06c0-1.405-.56-2.107-1.68-2.107-.732 0-1.517.42-2.356 1.26v5.907c0 .153-.051.28-.154.383a.52.52 0 0 1-.382.154h-1.97a.522.522 0 0 1-.534-.538Z" fill="#fff"/><path d="M43.913 7.895h-3.905c-.627 0-1.133-.51-1.133-1.138h3.904a1.135 1.135 0 0 1 1.134 1.138Zm1.524-1.972h-6.6c-.627 0-1.135-.51-1.135-1.136h6.6a1.134 1.134 0 0 1 1.135 1.136Zm-.972 4.093c-1.3-.182-2.695.57-3.535-.959 1.525-.661 3.117-.316 3.535.959Zm43.648-3.261h3.904c0 .629-.506 1.139-1.133 1.139H86.98c0-.627.506-1.139 1.133-1.139Zm5.077-1.97v.343a.793.793 0 0 1-.792.794h-6.943c0-.629.508-1.137 1.133-1.137h6.602Zm-3.228 4.271c-.842 1.529-2.236.777-3.535.958.418-1.273 2.01-1.618 3.535-.958Z" fill="#FDB234"/><path d="M80.688 6.888a16.66 16.66 0 0 1-.317.829c-.692 1.697-1.73 4.676-2.076 4.943-.347.267-1.118.75-1.731.904-.045.01-.125.03-.233.054.189.118.417.185.663.18l2.861-.056c.613-.013 1.104-.468 1.104-1.024V7.553a.958.958 0 0 0-.271-.665Z" fill="#fff"/><path d="M80.06 4.885c-1.792-1.033-4.093-.4-4.093-.4a9.6 9.6 0 0 0-4.204 4.29L71.259 9.8l-5.835.31-5.831-.31-.503-1.022a9.601 9.601 0 0 0-4.206-4.292s-2.3-.633-4.093.4c-.59.341-.487 1.08.179 2.707.666 1.631 1.664 4.493 1.996 4.75.332.259 1.076.722 1.663.869.59.15 6.858 1.513 8.393 1.626a34.25 34.25 0 0 0 2.404.083c.817 0 1.639-.028 2.404-.083 1.538-.113 7.806-1.476 8.395-1.626.59-.147 1.33-.61 1.664-.868.332-.258 1.33-3.12 1.996-4.75.661-1.63.764-2.368.175-2.708ZM53.597 8.707c-1.08-.735-2.245-3.066-2.245-3.066s1.023-.368 1.534.387c.512.759.895.921 2.584 1.136 1.689.217 2.253 2.49 2.253 2.49s-2.75-.01-4.126-.947Zm23.654 0c-1.375.935-4.124.946-4.124.946s.562-2.272 2.25-2.49c1.689-.215 2.072-.378 2.584-1.135.511-.755 1.536-.387 1.536-.387s-1.163 2.331-2.246 3.066Z" fill="#fff"/><path d="M59.583 4.113h-3.789l-.092.21 2.383 1.432 1.871 3.806 3.327.197 2.141.076-3.455-3.61-1.569.058-1.331-1.68.511-.01.003-.48ZM52.79 12.66c-.346-.268-1.384-3.246-2.076-4.943-.125-.305-.231-.58-.317-.829a.968.968 0 0 0-.273.666v5.165c0 .557.491 1.012 1.104 1.024l2.861.057c.247.005.474-.063.663-.18l-.232-.055c-.611-.154-1.383-.636-1.73-.905Zm1.747-9.81c-1.3-.18-2.694.573-3.536-.96 1.527-.66 3.117-.312 3.536.96Zm21.775 0c1.3-.18 2.695.573 3.537-.96-1.528-.66-3.119-.312-3.537.96Zm-.816.518H55.579A3.365 3.365 0 0 1 58.938 0h13.2a3.34 3.34 0 0 1 2.374.985 3.37 3.37 0 0 1 .984 2.383Zm-.203.742.092.215L73 5.755 71.129 9.56l-3.327.197-2.14.077 3.454-3.61 1.569.059L72.017 4.6l-.512-.031v-.458h3.788Z" fill="#fff"/><path d="M66.728 10.594h-2.436c-.987.002-1.57.346-1.75 1.03l-.211.808h1.016l.153-.559a.71.71 0 0 1 .254-.387.71.71 0 0 1 .442-.144h.751v1.38h-2.693l-.196.747h2.888l.006.667a.32.32 0 0 0 .062.177c.04.052.14.067.184.066l.49.003c.01 0 .022 0 .031-.002a.233.233 0 0 0 .145-.067l.006-.005.002-.001a.224.224 0 0 0 .067-.166v-.458l.003-3.012s.783-.073.786-.077Zm-4.846 3.545a.405.405 0 0 0-.01.08c-.001.03.014.064.044.105.03.04.08.06.147.06h.519a.314.314 0 0 0 .195-.071.313.313 0 0 0 .118-.178l.1-.376h-1.014l-.1.38Z" fill="#005154"/><path d="M68.684 12.65a1.743 1.743 0 0 0-.716-.373c-.28-.075-.562-.14-.839-.194a4.768 4.768 0 0 1-.71-.186c-.197-.07-.296-.161-.296-.272 0-.204.155-.304.465-.304l.792.016c.647.005.942.056.942-.31.001-.464-.488-.433-.848-.433h-.746c-.573.007-.982.082-1.222.266-.251.19-.377.465-.377.818 0 .192.052.36.157.5.105.141.242.254.41.335a4.011 4.011 0 0 0 .553.211c.202.06.404.11.609.149.204.039.39.08.558.12.677.102.418.687.108.687l-1.585.003v.112l-.001.174c-.003.206-.022.29-.066.338l-.001.001c-.035.034-.083.047-.151.074l-.005.001c0 .008 1.586.013 1.586.013.754.009 1.043-.086 1.295-.277.251-.19.38-.465.38-.818a.83.83 0 0 0-.292-.65Z" fill="#FDB234"/><path d="m29.226 40.78-1.134 2.566h-.266l-1.134-2.566h.293l.98 2.23.986-2.23h.275Zm3.176 1.881h-1.426l-.307.685h-.282l1.17-2.566h.266l1.17 2.566h-.286l-.305-.685Zm-.099-.22-.614-1.38-.614 1.38h1.228Zm2.396-1.661h.271v2.332h1.433v.234h-1.704V40.78Zm3.641 2.304c-.186-.191-.278-.468-.278-.832v-1.47h.271v1.459c0 .298.068.52.202.667.134.147.327.22.581.22.256 0 .45-.073.585-.22.134-.147.201-.369.201-.667v-1.46h.264v1.47c0 .365-.092.642-.276.833-.184.19-.442.286-.774.286s-.59-.096-.776-.286Zm5.728.028v.234h-1.81V40.78h1.754v.235h-1.484v.913h1.324v.232h-1.324v.953h1.54v-.001Zm6.55.165a1 1 0 0 1-.404-.242l.106-.21c.092.093.215.168.37.226.152.057.311.086.475.086.23 0 .4-.043.516-.127a.392.392 0 0 0 .172-.328.327.327 0 0 0-.094-.246.63.63 0 0 0-.229-.14 3.73 3.73 0 0 0-.376-.109 3.745 3.745 0 0 1-.46-.14.776.776 0 0 1-.294-.207.553.553 0 0 1-.124-.377.64.64 0 0 1 .103-.353.706.706 0 0 1 .315-.255 1.28 1.28 0 0 1 .527-.095c.147 0 .29.02.429.06.14.041.262.096.363.168l-.092.216a1.288 1.288 0 0 0-.701-.213c-.225 0-.393.044-.507.13a.402.402 0 0 0-.17.336c0 .103.031.185.093.247.063.063.14.11.234.143.094.032.22.068.38.107.186.047.34.093.455.138a.765.765 0 0 1 .294.205c.081.092.12.216.12.372 0 .13-.034.247-.104.353a.707.707 0 0 1-.32.254 1.331 1.331 0 0 1-.53.094 1.687 1.687 0 0 1-.547-.093Zm5.178-.165v.234h-1.81V40.78h1.753v.235h-1.482v.913h1.323v.232h-1.323v.953h1.539v-.001Zm1.916-2.332h.271v2.332h1.433v.234h-1.704V40.78Zm5.242 2.332v.234h-1.81V40.78h1.754v.235h-1.485v.913h1.324v.232h-1.324v.953h1.541v-.001Zm2.326.088a1.23 1.23 0 0 1-.478-.467 1.309 1.309 0 0 1-.173-.669c0-.247.057-.47.173-.67.115-.198.276-.354.48-.467a1.4 1.4 0 0 1 .688-.169c.19 0 .365.032.527.096.16.064.297.156.41.278l-.172.172A1.015 1.015 0 0 0 65.98 41c-.203 0-.387.047-.552.14a1.024 1.024 0 0 0-.53.923 1.023 1.023 0 0 0 .53.925c.165.092.35.139.552.139.307 0 .56-.103.756-.308l.172.172c-.112.122-.25.215-.412.28a1.423 1.423 0 0 1-.529.097 1.372 1.372 0 0 1-.686-.166Zm3.947-2.185h-.9v-.235h2.07v.235h-.9v2.331h-.27v-2.331Zm2.88-.235h.27v2.566h-.27V40.78Zm2.815 2.418a1.239 1.239 0 0 1-.482-.468 1.303 1.303 0 0 1-.173-.667c0-.248.058-.47.173-.668.115-.199.276-.354.482-.468.206-.114.435-.17.689-.17.254 0 .482.056.686.169.204.112.363.269.48.467.117.199.176.422.176.67 0 .246-.059.47-.176.669a1.257 1.257 0 0 1-.48.467 1.39 1.39 0 0 1-.686.17 1.4 1.4 0 0 1-.69-.171Zm1.236-.208a.99.99 0 0 0 .384-.382c.092-.162.138-.344.138-.544 0-.2-.046-.382-.138-.544a.99.99 0 0 0-.384-.382 1.097 1.097 0 0 0-.549-.137c-.202 0-.385.045-.55.137a1.013 1.013 0 0 0-.388.382 1.07 1.07 0 0 0-.14.544c0 .2.046.382.14.544.093.163.223.29.388.382.164.092.348.137.55.137.203 0 .387-.047.55-.137Zm4.818-2.21v2.566h-.222l-1.646-2.082v2.082h-.27V40.78h.224l1.648 2.083V40.78h.266Zm7.086.235h-.9v-.235h2.07v.235h-.9v2.331h-.27v-2.331Zm4.628 2.331-.586-.825a1.69 1.69 0 0 1-.204.01h-.687v.814h-.271v-2.566h.957c.326 0 .583.078.767.234.186.157.278.373.278.646 0 .2-.05.37-.152.508a.842.842 0 0 1-.433.299l.625.88h-.295Zm-.216-1.213a.584.584 0 0 0 .201-.472c0-.208-.067-.368-.201-.479-.134-.11-.328-.167-.582-.167h-.68v1.287h.68c.255 0 .448-.056.582-.169Zm2.646.951c-.185-.191-.278-.468-.278-.832v-1.47h.27v1.459c0 .298.068.52.202.667.134.147.327.22.581.22.256 0 .451-.073.585-.22.134-.147.201-.369.201-.667v-1.46h.263v1.47c0 .365-.092.642-.275.833-.185.19-.441.286-.774.286-.33-.002-.59-.096-.775-.286Zm4.08.193a1 1 0 0 1-.404-.242l.106-.21a.999.999 0 0 0 .37.226c.152.057.311.086.475.086.23 0 .401-.043.516-.127a.387.387 0 0 0 .172-.328.328.328 0 0 0-.094-.246.625.625 0 0 0-.23-.14 3.582 3.582 0 0 0-.377-.109 3.833 3.833 0 0 1-.46-.14.78.78 0 0 1-.294-.207.552.552 0 0 1-.123-.377c0-.13.034-.247.102-.353a.707.707 0 0 1 .316-.255c.14-.064.316-.095.526-.095.147 0 .29.02.431.06.14.041.262.096.363.168l-.092.216a1.275 1.275 0 0 0-.702-.213c-.224 0-.392.044-.506.13a.402.402 0 0 0-.17.336c0 .103.03.185.094.247a.61.61 0 0 0 .234.143c.093.032.219.068.378.107.187.047.34.093.455.138a.769.769 0 0 1 .295.205c.081.092.12.216.12.372a.62.62 0 0 1-.105.353.702.702 0 0 1-.319.254c-.144.062-.32.094-.53.094a1.67 1.67 0 0 1-.547-.093Zm3.829-2.262h-.9v-.235h2.069v.235h-.899v2.331h-.27v-2.331Zm-82.866 1.261H8.007a.077.077 0 0 1-.078-.078c0-.044.034-.078.078-.078h12.156c.044 0 .078.035.078.078a.077.077 0 0 1-.078.078Zm102.719 0h-12.156a.077.077 0 0 1-.078-.078c0-.044.034-.078.078-.078h12.156c.044 0 .078.035.078.078a.077.077 0 0 1-.078.078Zm-75.709.271a.39.39 0 1 0-.001-.78.39.39 0 0 0 0 .78Zm36.984 0a.39.39 0 1 0-.001-.781.39.39 0 0 0 .001.781Z" fill="#fff"/></g><defs><clipPath id="a"><path fill="#fff" d="M0 0h130v44H0z"/></clipPath></defs></svg>