<svg width="50" height="50" fill="none" xmlns="http://www.w3.org/2000/svg"><g clip-path="url(#a)"><path d="M20.175 49.712c-4.374-.905-8.455-2.922-11.658-5.763C.292 36.656-2.25 25.2 2.095 15.003 3.162 12.5 4.897 9.96 7.046 7.752l1.895-1.946.134 11.39c.128 10.902.156 11.451.673 12.825 1.033 2.749 2.141 4.498 4.048 6.395 4.926 4.898 12.152 6.12 18.294 3.095 5.774-2.844 9.413-9.028 8.99-15.274-.284-4.196-1.697-7.273-4.748-10.338-2.307-2.318-5.021-3.832-7.977-4.45-3.006-.628-2.862-.72-2.862 1.821v2.194l1.648.303c6.384 1.175 10.606 7.434 9.275 13.75-.425 2.018-1.372 3.8-2.894 5.44-2.313 2.494-5.566 3.686-8.407 3.68-4.697-.008-8.62-2.673-10.52-6.615 0 0-.498-1.126-.658-1.822-.941-4.094-.34-12.712-.34-12.712l-.073-12.6.745-.386c.41-.211.803-.384.874-.384.07 0 .16 5.787.199 12.861 0 0-.905 9.273.213 12.826.161.513.468 1.39.468 1.39.98 1.993 2.55 3.747 4.591 4.712 1.55.733 2.33 1.065 4.622 1.065 1.497 0 2.824-.472 4.35-1.173 1.8-.827 3.864-3.018 4.627-5.018 2.102-5.512-.825-11.441-6.463-13.095-2.304-.676-2.257-.713-2.257 1.789v2.185l1.106.295c3.987 1.065 5.203 6.4 2.074 9.142-1.106.969-2.102 1.397-3.845 1.397-1.863 0-3.65-1.125-4.57-2.852a5.259 5.259 0 0 1-.598-2.471c0-4.162-.09-11.646-.09-11.646L19.494.687l.572-.142c.315-.078 1.587-.272 2.828-.43 4.206-.536 10.43.839 14.61 3.227 5.7 3.257 10.013 8.85 11.808 15.316.618 2.224.687 2.87.687 6.448 0 3.562-.07 4.23-.675 6.405-2.442 8.788-8.655 15.07-17.539 17.734-1.87.56-2.745.668-6.044.738-2.662.057-4.388-.027-5.567-.271Z" fill="#C60C30"/></g><defs><clipPath id="a"><path fill="#fff" d="M0 0h50v50H0z"/></clipPath></defs></svg>