<svg width="385" height="180" fill="none" xmlns="http://www.w3.org/2000/svg"><defs><filter id="a" x="0" y="0" width="385" height="180" filterUnits="userSpaceOnUse" color-interpolation-filters="sRGB"><feFlood flood-opacity="0" result="BackgroundImageFix"/><feBlend in="SourceGraphic" in2="BackgroundImageFix" result="shape"/><feColorMatrix in="SourceAlpha" values="0 0 0 0 0 0 0 0 0 0 0 0 0 0 0 0 0 0 127 0" result="hardAlpha"/><feOffset dy="4"/><feGaussianBlur stdDeviation="3.333"/><feComposite in2="hardAlpha" operator="arithmetic" k2="-1" k3="1"/><feColorMatrix values="0 0 0 0 1 0 0 0 0 1 0 0 0 0 1 0 0 0 0.1 0"/><feBlend in2="shape" result="effect_innerShadow_1"/></filter></defs><g filter="url(#a)"><rect x=".5" y=".5" rx="10" width="384" height="179" fill="#1E1E1E"/></g><rect x=".5" y=".5" rx="10" width="384" height="179" stroke="#323232"/><path stroke="#323232" d="M30 149.5h325m-325-30h325m-325-30h325m-325-30h325m-325-30h325"/><path d="M34.41 146.709c-1.113 0-1.974-.451-2.585-1.354-.61-.902-.916-2.173-.916-3.814 0-1.627.308-2.894.923-3.801s1.474-1.36 2.577-1.36c1.099 0 1.953.456 2.564 1.367.615.912.922 2.183.922 3.815 0 1.636-.303 2.903-.909 3.8-.61.898-1.47 1.347-2.577 1.347Zm0-1.073c.728 0 1.284-.351 1.667-1.053.388-.706.581-1.72.581-3.042 0-1.308-.194-2.315-.58-3.021-.393-.707-.949-1.06-1.669-1.06-.72 0-1.278.355-1.675 1.066-.392.707-.587 1.712-.587 3.015 0 1.317.195 2.329.587 3.035.388.707.946 1.06 1.675 1.06Zm-.958-38.657h-.11l-2.508 1.819v-1.299l2.625-1.887h1.224v9.865h-1.23v-8.498Zm-2.42-27.591c0-.875.299-1.595.896-2.16.592-.566 1.346-.848 2.262-.848.885 0 1.627.267 2.229.8.597.528.896 1.185.896 1.968 0 .515-.146 1.019-.438 1.511-.292.501-.84 1.185-1.648 2.051l-2.372 2.55v.11h4.621v1.107h-6.384v-.848l3.41-3.726c.634-.688 1.056-1.212 1.266-1.572.21-.36.314-.738.314-1.135a1.62 1.62 0 0 0-.554-1.244c-.373-.332-.831-.499-1.374-.499-.578 0-1.046.178-1.401.533-.356.356-.533.823-.533 1.402v.006h-1.19v-.006Zm2.078-28.51h1.197c.56 0 1.02-.164 1.38-.492.356-.328.534-.748.534-1.258 0-.501-.173-.907-.52-1.217-.346-.305-.804-.458-1.374-.458-.57 0-1.03.148-1.38.444-.352.301-.552.716-.602 1.245h-1.197c.064-.857.383-1.532.957-2.024.575-.492 1.331-.738 2.27-.738.861 0 1.593.25 2.194.752.602.501.903 1.112.903 1.832 0 .588-.153 1.084-.458 1.49-.306.406-.73.675-1.272.807v.11c.67.086 1.197.346 1.58.778.382.438.573.994.573 1.668 0 .812-.335 1.498-1.004 2.058-.67.556-1.493.834-2.468.834-1.003 0-1.82-.255-2.454-.766-.634-.515-.973-1.194-1.019-2.037h1.19c.054.524.287.944.697 1.258.41.314.934.472 1.572.472.647 0 1.18-.173 1.6-.52a1.66 1.66 0 0 0 .622-1.333c0-.57-.203-1.02-.608-1.353-.406-.333-.96-.5-1.662-.5h-1.25v-1.052Zm2.489-26.445h-4.806V23.31c.902-1.604 2.31-3.837 4.225-6.699h1.784v6.72h1.401v1.1h-1.401v2.045h-1.203v-2.044Zm-3.548-1.094h3.554v-5.585h-.082c-1.066 1.55-2.224 3.384-3.472 5.503v.082Z" fill="#BDBDC0" fill-rule="evenodd"/><rect x="50" y="97" rx="2" width="10" height="53" fill="#3F94FF"/><rect x="70" y="73" rx="2" width="10" height="77" fill="#3F94FF"/><rect x="90" y="81" rx="2" width="10" height="69" fill="#3F94FF"/><rect x="110" y="45" rx="2" width="10" height="105" fill="#3F94FF"/><rect x="130" y="60" rx="2" width="10" height="90" fill="#3F94FF"/><rect x="150" y="104" rx="2" width="10" height="46" fill="#3F94FF"/><rect x="170" y="86" rx="2" width="10" height="64" fill="#3F94FF"/><rect x="190" y="130" rx="2" width="10" height="20" fill="#3F94FF"/><rect x="210" y="73" rx="2" width="10" height="77" fill="#3F94FF"/><rect x="230" y="88" rx="2" width="10" height="62" fill="#3F94FF"/><rect x="250" y="43" rx="2" width="10" height="107" fill="#3F94FF"/><rect x="270" y="32" rx="2" width="10" height="118" fill="#3F94FF"/><rect x="290" y="49" rx="2" width="10" height="101" fill="#3F94FF"/><rect x="310" y="64" rx="2" width="10" height="86" fill="#3F94FF"/><rect x="330" y="41" rx="2" width="10" height="109" fill="#3F94FF"/></svg>