<svg width="518" height="187" fill="none" xmlns="http://www.w3.org/2000/svg"><g clip-path="url(#a)"><path d="M132.661 32.396V53.95h42.155v107.614h28.715V53.951h42.688V32.396H132.661Z" fill="#fff"/><path opacity=".4" d="M189.381 32.396v129.169h-14.565V53.951h-42.155V32.396h56.72Z" fill="#fff"/><path d="m101.518 64.83-9-21.72-3.907-9.709-.414-1.042H61.553l-3.611 8.995-32.86 82.054-15.275 38.23h30.136l9.828-26.657 25.163-8.391.296-.11 24.867 8.501 9.059 26.438 32.267.219-39.905-96.808Zm-26.525 41.575-.177-.055-17.288 7.076 7.341-20.459 10.006-27.863.118.274 5.625 15.577L92.4 113.481l-17.407-7.076Zm300.06-74.011v129.169h-28.775V75.779l-55.891 85.784h-28.716V32.503l14.032 11.245.296.219 14.388-11.792v86.167l49.97-76.898 5.447-8.337.474-.713h28.775Zm129.426 84.25a33.516 33.516 0 0 0-.355-3.511c-.829-5.485-2.724-10.366-5.743-14.7-1.836-2.577-3.967-4.99-6.631-7.184-.474-.44-1.007-.823-1.599-1.262-6.927-5.32-15.63-8.72-26.11-10.202-3.73-.548-7.697-.822-11.841-.822h-23.565V53.95h63.825l-11.308-10.256 11.131-11.3h-92.6V161.62H452.2c6.808-.055 13.084-.823 18.709-2.249 1.066-.274 2.131-.549 3.197-.932 6.098-1.92 11.486-4.718 16.104-8.392 9.533-7.624 14.328-17.662 14.328-30.222.06-1.097 0-2.139-.059-3.181Zm-35.287 17.935c-4.263 3.62-9.888 5.485-16.933 5.595h-23.505v-39.766h23.564c7.282.11 13.025 1.865 17.17 5.321 4.204 3.4 6.276 8.008 6.276 13.877 0 6.252-2.191 11.244-6.572 14.973Z" fill="#fff"/><path d="M489.23 109.341v6.966h7.519v-6.966h-7.519Z" fill="#FBBF0D"/><path d="M481.815 116.194v6.966h7.519v-6.966h-7.519Z" fill="#FBBF0D"/><path d="M489.218 123.12v6.965h7.52v-6.965h-7.52Z" fill="#FBBF0D"/><path d="M348.201 47.58h7.519v-6.967h-7.519v6.966Z" fill="#3F94FF"/><path d="M355.617 54.445h7.519V47.48h-7.519v6.965Z" fill="#3F94FF"/><path d="M363.088 47.58h7.519v-6.967h-7.519v6.966Z" fill="#3F94FF"/><path d="M200.634 146.477h-7.52v6.965h7.52v-6.965Z" fill="#FF2C60"/><path d="M193.167 139.569h-7.52v6.966h7.52v-6.966Z" fill="#FF2C60"/><path d="M185.769 146.477h-7.519v6.965h7.519v-6.965Z" fill="#FF2C60"/><path d="M71.445 40.568h-7.519v6.965h7.52v-6.965Z" fill="#7053FF"/><path d="M71.34 54.403h7.519v-6.966h-7.52v6.966Z" fill="#7053FF"/><path d="M78.752 47.538h7.52v-6.966h-7.52v6.966Z" fill="#7053FF"/><path opacity=".4" d="M415.669 32.396h-15.986V161.62h15.986V32.396Zm-139.966 11.35V161.56h-14.032V32.501l14.032 11.245Z" fill="#fff"/></g><path stroke="#18A0FB" d="M3.5 7.5h511v176H3.5z"/><path fill="#fff" stroke="#18A0FB" stroke-linecap="square" d="M.5 4.5h7v7h-7zm0 175h7v7h-7zm510-175h7v7h-7zm0 175h7v7h-7z"/><defs><clipPath id="a"><path fill="#fff" transform="translate(10)" d="M0 0h499v185H0z"/></clipPath></defs></svg>