<svg width="160" height="100" fill="none" xmlns="http://www.w3.org/2000/svg"><g style="mix-blend-mode:luminosity"><path d="M145.597 58.908a5.48 5.48 0 0 1-.237 1.674 4.79 4.79 0 0 1-.628 1.311 4.094 4.094 0 0 1-.907.963 5.06 5.06 0 0 1-1.088.655 5.158 5.158 0 0 1-1.13.363 5.086 5.086 0 0 1-1.089.126h-6.543v-3.627h6.543c.484 0 .847-.126 1.089-.377.241-.251.362-.614.362-1.088V42.376h3.628v16.532Zm-5.079-1.451h-6.543a5.9 5.9 0 0 1-1.674-.265 5.01 5.01 0 0 1-1.646-.865 4.866 4.866 0 0 1-1.27-1.577c-.334-.65-.502-1.446-.502-2.386v-9.988h3.627v9.989c0 .474.126.837.377 1.088.251.25.623.376 1.116.376h6.515v3.628Zm-14.648-5.092c0 .344-.042.707-.126 1.088a5.374 5.374 0 0 1-.363 1.144c-.167.372-.386.73-.655 1.074a4.352 4.352 0 0 1-.963.92c-.372.261-.804.47-1.297.629a5.473 5.473 0 0 1-1.674.237h-6.544c-.344 0-.706-.037-1.088-.112a5.556 5.556 0 0 1-2.218-1.018 4.787 4.787 0 0 1-.921-.963 5.08 5.08 0 0 1-.628-1.311 5.612 5.612 0 0 1-.237-1.688V36h3.628v16.365c0 .446.139.804.418 1.074.279.26.628.39 1.046.39h6.544c.455 0 .809-.134 1.06-.404.26-.27.39-.623.39-1.06v-4.911c0-.456-.134-.81-.404-1.06-.27-.26-.619-.391-1.046-.391h-6.544v-3.627h6.544c.344 0 .706.041 1.088.125.381.075.758.196 1.13.363a5.06 5.06 0 0 1 1.088.656c.344.26.646.581.907.962.26.372.469.805.628 1.298.158.493.237 1.05.237 1.674v4.91Zm-19.462 3.265c0 .25-.051.488-.154.71a1.846 1.846 0 0 1-.39.573 1.751 1.751 0 0 1-.572.377 1.829 1.829 0 0 1-1.395 0 1.964 1.964 0 0 1-.572-.377 1.974 1.974 0 0 1-.377-.572 1.832 1.832 0 0 1-.14-.712c0-.241.047-.47.14-.683.093-.224.219-.414.377-.572.167-.168.358-.298.572-.39.223-.103.46-.154.711-.154.242 0 .47.05.684.153.223.093.414.223.572.39.167.159.297.35.39.573.103.214.154.442.154.683Zm-6.027 1.827h-9.836c-.502 0-1.05-.089-1.646-.265a4.98 4.98 0 0 1-1.66-.865 5.123 5.123 0 0 1-1.27-1.577c-.334-.65-.502-1.446-.502-2.386v-4.91c0-.344.037-.707.112-1.089.084-.38.209-.758.377-1.13.167-.38.38-.744.641-1.088.27-.344.59-.646.963-.907.381-.26.818-.47 1.311-.627a5.47 5.47 0 0 1 1.674-.237h9.836v3.627h-9.836c-.474 0-.837.12-1.088.362-.242.242-.362.614-.362 1.117v4.883c0 .474.125.837.376 1.088.251.25.619.376 1.102.376h9.808v3.628Zm-17.704-5.093a5.65 5.65 0 0 1-.237 1.689 5.04 5.04 0 0 1-.628 1.311c-.26.372-.563.693-.907.963a5.39 5.39 0 0 1-1.088.641 5.761 5.761 0 0 1-1.13.377 5.689 5.689 0 0 1-1.088.112h-6.543v-3.628h6.543c.483 0 .846-.125 1.088-.376.242-.251.363-.614.363-1.089v-4.882c0-.503-.126-.875-.377-1.117-.242-.241-.6-.362-1.074-.362h-6.516c-.492 0-.864.125-1.116.377-.25.241-.376.6-.376 1.074v14.718h-3.628V47.454c0-.623.08-1.181.238-1.674.158-.493.367-.926.627-1.298a4.33 4.33 0 0 1 .921-.962 5.2 5.2 0 0 1 1.074-.656 5.439 5.439 0 0 1 1.144-.363 5.201 5.201 0 0 1 1.089-.125h6.543a5.47 5.47 0 0 1 1.674.237 4.81 4.81 0 0 1 1.297.627c.382.26.703.563.963.907.27.344.488.707.656 1.089.167.372.288.748.362 1.13.084.38.126.744.126 1.088v4.91Zm-19.629 5.093h-9.836c-.502 0-1.05-.089-1.646-.265a4.981 4.981 0 0 1-1.66-.865 5.125 5.125 0 0 1-1.27-1.577c-.335-.65-.502-1.446-.502-2.386v-4.91c0-.344.037-.707.111-1.089a5.835 5.835 0 0 1 1.019-2.218c.27-.344.59-.646.962-.907.382-.26.819-.47 1.312-.627a5.47 5.47 0 0 1 1.674-.237h9.836v3.627h-9.836c-.474 0-.837.12-1.088.362-.242.242-.363.614-.363 1.117v4.883c0 .474.126.837.377 1.088.251.25.618.376 1.102.376h9.808v3.628Z" fill="#787171"/><path d="m25.905 50.314 6.548-3.572v6.548l-6.548 3.571v-6.547Z" fill="url(#a)"/><path d="m25.905 50.314-6.548-3.572v6.548l6.548 3.571v-6.547Z" fill="url(#b)"/><path d="m25.905 43.171-6.548 3.572 6.548 3.571 6.548-3.571-6.548-3.572Z" fill="url(#c)"/><path d="m25.905 56.862 6.548-3.572 5.357 3.274-11.905 6.846v-6.548Z" fill="#D84315"/><path d="m19.357 53.29 6.548 3.572v6.547L14 56.565l5.357-3.274Z" fill="#C6151B"/><path d="m25.905 43.171 6.548 3.572 5.357-3.87-11.905-6.845v7.143Z" fill="#575757"/><path d="M19.357 46.742v6.548L14 56.564V42.873l5.357 3.87Z" fill="#96141D"/><path d="m19.357 46.742 6.548-3.571v-7.143L14 42.873l5.357 3.87Z" fill="#333"/></g><defs><linearGradient id="a" x1="26.5" y1="50.909" x2="32.453" y2="51.802" gradientUnits="userSpaceOnUse"><stop stop-color="#FEE7E0"/><stop offset="1" stop-color="#FFF4F4" stop-opacity="0"/></linearGradient><linearGradient id="b" x1="19.953" y1="52.992" x2="24.119" y2="50.314" gradientUnits="userSpaceOnUse"><stop stop-color="#FABCBC"/><stop offset="1" stop-color="#FFEDED" stop-opacity=".44"/></linearGradient><linearGradient id="c" x1="26.203" y1="44.064" x2="26.203" y2="50.017" gradientUnits="userSpaceOnUse"><stop stop-color="#C1BDBD"/><stop offset="1" stop-color="#fff" stop-opacity="0"/></linearGradient></defs></svg>