<svg width="20" height="20" fill="none" xmlns="http://www.w3.org/2000/svg"><path d="M16.657 9.643a6.631 6.631 0 0 0-1.31-3.625c-.24.257-.496.5-.767.724a10.952 10.952 0 0 1-2.76 1.675c.138.292.266.575.378.841v.003c.032.074.063.15.092.225 1.262-.142 2.592-.09 3.88.084.172.023.334.048.487.073Zm-7.82-6.208a38.435 38.435 0 0 1 2.243 3.558c1.02-.402 1.862-.908 2.54-1.472.236-.194.457-.405.663-.63A6.64 6.64 0 0 0 10 3.334c-.39 0-.78.034-1.163.101v.001ZM3.544 8.331a24.111 24.111 0 0 0 1.7-.103 26.23 26.23 0 0 0 4.052-.685 45.372 45.372 0 0 0-2.25-3.522 6.681 6.681 0 0 0-3.502 4.31Zm1.275 5.865c.324-.473.749-1.005 1.313-1.583 1.211-1.241 2.641-2.208 4.296-2.741l.052-.016a19.952 19.952 0 0 0-.397-.829c-1.53.446-3.141.724-4.747.869-.783.07-1.486.102-2.003.106a6.64 6.64 0 0 0 1.487 4.194Zm7.685 1.983a29.979 29.979 0 0 0-1.36-4.758c-1.668.606-2.997 1.492-4.025 2.549a8.16 8.16 0 0 0-1.097 1.38A6.636 6.636 0 0 0 10 16.665a6.64 6.64 0 0 0 2.504-.485v-.002Zm1.561-.896a6.664 6.664 0 0 0 2.49-4.058 10.166 10.166 0 0 0-1.038-.197 10.035 10.035 0 0 0-2.65-.027c.496 1.399.896 2.83 1.198 4.283ZM10 18.333a8.333 8.333 0 1 1 0-16.666 8.333 8.333 0 0 1 0 16.666Z" fill="#BDBDC0"/></svg>