<svg width="117" height="47" fill="none" xmlns="http://www.w3.org/2000/svg"><g clip-path="url(#a)"><path d="M9.023 1.485A1.987 1.987 0 0 1 10.946 0H29.29c1.3 0 2.25 1.229 1.922 2.487L26.55 20.36a1.987 1.987 0 0 1-1.922 1.485H6.283a1.986 1.986 0 0 1-1.922-2.487L9.023 1.485Zm8.28 25.155a1.987 1.987 0 0 1 1.923-1.485H37.57a1.987 1.987 0 0 1 1.923 2.487l-4.662 17.873A1.987 1.987 0 0 1 32.908 47H14.564a1.986 1.986 0 0 1-1.923-2.487l4.662-17.873ZM31.31 11.077A1.987 1.987 0 0 1 33.23 9.6h8.304a1.986 1.986 0 0 1 1.921 2.493l-2.1 7.944a1.987 1.987 0 0 1-1.921 1.478H31.13a1.986 1.986 0 0 1-1.921-2.493l2.1-7.944ZM2.168 26.633a1.987 1.987 0 0 1 1.92-1.478h8.304a1.986 1.986 0 0 1 1.921 2.493l-2.1 7.944a1.987 1.987 0 0 1-1.921 1.478H1.988a1.986 1.986 0 0 1-1.921-2.493l2.1-7.944Zm52.278-16.326v1.595h-4.449v8.288h-2.03v-9.883h6.479Zm-5.148 3.604h2.309c.779 0 1.449.13 2.01.387.562.258.994.62 1.297 1.086.304.466.455 1.01.455 1.63 0 .47-.086.9-.258 1.29a2.851 2.851 0 0 1-.754 1.004 3.47 3.47 0 0 1-1.181.651 4.951 4.951 0 0 1-1.57.231h-3.64v-9.883h2.045v8.295h1.596c.39 0 .71-.073.964-.217.254-.145.444-.338.57-.577A1.68 1.68 0 0 0 53.34 17c0-.28-.066-.534-.197-.76a1.325 1.325 0 0 0-.57-.543c-.254-.132-.576-.197-.965-.197h-2.31v-1.588Zm9.234.001h2.31c.773 0 1.441.128 2.003.386.566.258.998.62 1.297 1.086.303.466.455 1.01.455 1.63 0 .47-.086.9-.258 1.29a2.89 2.89 0 0 1-.747 1.004 3.47 3.47 0 0 1-1.182.651 4.95 4.95 0 0 1-1.569.231h-3.64v-9.883h2.044v8.295h1.596c.385 0 .704-.073.958-.217.258-.145.45-.338.577-.577.127-.245.19-.514.19-.808 0-.28-.063-.534-.19-.76a1.318 1.318 0 0 0-.577-.543c-.254-.132-.573-.197-.958-.197h-2.309v-1.588Zm8.972-3.605v9.883h-2.031v-9.883h2.03Zm7.991 6.605h2.03a3.68 3.68 0 0 1-.55 1.771 3.28 3.28 0 0 1-1.35 1.209c-.576.29-1.269.434-2.08.434-.633 0-1.201-.109-1.704-.326a3.627 3.627 0 0 1-1.29-.95 4.231 4.231 0 0 1-.808-1.494c-.186-.583-.279-1.237-.279-1.961v-.686c0-.724.095-1.378.285-1.962a4.336 4.336 0 0 1 .829-1.5 3.695 3.695 0 0 1 1.297-.95 4.13 4.13 0 0 1 1.684-.332c.825 0 1.52.149 2.085.448.57.298 1.012.71 1.325 1.235a4.18 4.18 0 0 1 .57 1.792h-2.037c-.023-.398-.102-.736-.238-1.011a1.348 1.348 0 0 0-.618-.632c-.272-.145-.634-.217-1.087-.217-.34 0-.636.063-.89.19a1.65 1.65 0 0 0-.638.577c-.172.258-.3.584-.387.977-.081.39-.122.847-.122 1.372v.699c0 .511.038.961.115 1.35.078.385.195.711.354.978.163.262.37.462.624.597.259.131.569.197.93.197.427 0 .777-.068 1.054-.203a1.41 1.41 0 0 0 .631-.605c.15-.267.238-.6.265-.997Zm8.073-6.605v9.883h-2.03v-9.883h2.03Zm3.043 0v1.595h-8.069v-1.595h8.069Zm5.499 6.36h-2.52V15.08h2.52c.389 0 .706-.063.95-.19a1.22 1.22 0 0 0 .537-.543c.113-.23.17-.491.17-.78 0-.295-.057-.569-.17-.822a1.372 1.372 0 0 0-.537-.611c-.244-.154-.561-.23-.95-.23h-1.814v8.287H88.26v-9.883h3.85c.775 0 1.438.14 1.99.421.557.276.983.658 1.277 1.147.295.489.442 1.048.442 1.677 0 .638-.147 1.19-.442 1.656-.294.466-.72.826-1.276 1.08-.553.253-1.216.38-1.99.38Zm6.945-2.755h2.309c.774 0 1.442.128 2.004.386.566.258.998.62 1.297 1.086.303.466.455 1.01.455 1.63 0 .47-.086.9-.258 1.29a2.89 2.89 0 0 1-.747 1.004 3.47 3.47 0 0 1-1.182.651 4.95 4.95 0 0 1-1.569.231h-3.64v-9.883h2.044v8.295h1.596c.385 0 .704-.073.958-.217.258-.145.45-.338.577-.577.127-.245.19-.514.19-.808 0-.28-.063-.534-.19-.76a1.32 1.32 0 0 0-.577-.543c-.254-.132-.573-.197-.958-.197h-2.309v-1.588Zm8.972-3.605v9.883h-2.031v-9.883h2.031Zm8.894 8.295v1.588h-5.263v-1.588h5.263Zm-4.597-8.295v9.883h-2.038v-9.883h2.038Zm3.912 4.025v1.548h-4.578v-1.548h4.578Zm.679-4.025v1.595h-5.257v-1.595h5.257Zm-69.52 16.446h2.2c.59 0 1.133.097 1.63.292.498.19.93.466 1.298.828.37.357.658.79.862 1.296.204.503.306 1.064.306 1.684a4.33 4.33 0 0 1-.306 1.656 3.65 3.65 0 0 1-.862 1.27c-.367.352-.8.624-1.298.814a4.533 4.533 0 0 1-1.63.285h-2.2a4.554 4.554 0 0 1-1.637-.285 3.93 3.93 0 0 1-1.304-.808 3.726 3.726 0 0 1-.869-1.27 4.282 4.282 0 0 1-.306-1.649c0-.62.102-1.18.306-1.683a3.812 3.812 0 0 1 2.173-2.138 4.462 4.462 0 0 1 1.637-.292Zm0 1.63c-.435 0-.817.094-1.148.284a1.9 1.9 0 0 0-.767.842c-.181.366-.272.819-.272 1.357 0 .39.052.733.156 1.032.11.294.26.541.456.74.194.2.425.35.692.455.267.104.562.156.883.156h2.214c.43 0 .806-.093 1.127-.278a1.89 1.89 0 0 0 .761-.815c.181-.357.272-.792.272-1.303a3.32 3.32 0 0 0-.156-1.066 2.15 2.15 0 0 0-.442-.774 1.803 1.803 0 0 0-.686-.468 2.274 2.274 0 0 0-.876-.163h-2.214Zm2.078-2.927v10.698h-1.956V25.456h1.956Zm8.005 7.087 3.973-6.68h2.038v9.884H61.45v-6.68l-3.973 6.68H55.44v-9.883h2.037v6.679Zm14.858-2.654v1.588h-5.162V29.89h5.162Zm-4.557-4.025v9.883h-2.037v-9.883h2.037Zm6.01 0v9.883h-2.03v-9.883h2.03Zm6.403 1.69-2.69 8.193h-2.166l3.674-9.883h1.379l-.197 1.69Zm2.234 8.193-2.696-8.193-.218-1.69h1.393l3.694 9.883h-2.173Zm-.122-3.68v1.596H77.08v-1.595h5.223Zm10.293-2.178v1.588h-5.161V29.89h5.161Zm-4.557-4.025v9.883h-2.037v-9.883h2.037Zm6.01 0v9.883h-2.03v-9.883h2.03Zm7.992 6.604h2.031a3.682 3.682 0 0 1-.55 1.772 3.275 3.275 0 0 1-1.352 1.208c-.574.29-1.267.434-2.078.434-.634 0-1.202-.108-1.704-.325a3.627 3.627 0 0 1-1.29-.95 4.233 4.233 0 0 1-.809-1.494c-.186-.584-.278-1.238-.278-1.962v-.685c0-.724.095-1.378.285-1.962a4.33 4.33 0 0 1 .828-1.5 3.693 3.693 0 0 1 1.298-.95 4.13 4.13 0 0 1 1.684-.333c.824 0 1.519.15 2.085.448.57.299 1.012.71 1.324 1.235.317.525.507 1.123.571 1.792h-2.038c-.022-.398-.102-.735-.237-1.01a1.347 1.347 0 0 0-.619-.632c-.271-.145-.633-.217-1.086-.217-.34 0-.636.063-.89.19a1.652 1.652 0 0 0-.638.577c-.172.258-.301.584-.387.977-.082.39-.123.846-.123 1.371v.7c0 .51.039.96.116 1.35.077.385.195.71.353.978.163.262.371.461.625.597.258.131.568.197.93.197.426 0 .777-.068 1.053-.204a1.41 1.41 0 0 0 .632-.604c.149-.267.237-.6.264-.998Zm5.201-3h2.309c.774 0 1.442.13 2.003.387.566.258.999.62 1.297 1.086.304.466.455 1.01.455 1.63 0 .47-.086.9-.258 1.289-.172.384-.421.72-.747 1.004-.326.281-.72.498-1.181.652a4.95 4.95 0 0 1-1.569.23h-3.641v-9.882h2.045v8.294h1.596c.385 0 .704-.072.957-.217a1.42 1.42 0 0 0 .578-.577c.126-.244.19-.513.19-.807a1.53 1.53 0 0 0-.19-.76 1.323 1.323 0 0 0-.578-.544c-.253-.131-.572-.197-.957-.197h-2.309v-1.588Zm8.971-3.604v9.883h-2.031v-9.883h2.031Z" fill="#E01010"/><path d="M41.59 43.916h-.956l-.005-.4h.867a.904.904 0 0 0 .375-.073.566.566 0 0 0 .248-.207.58.58 0 0 0 .091-.326.631.631 0 0 0-.08-.336.443.443 0 0 0-.24-.191 1.148 1.148 0 0 0-.41-.062h-.734v3.356h-.5v-3.765h1.234c.194 0 .366.02.518.06.152.038.28.098.386.18a.771.771 0 0 1 .243.311c.055.126.082.277.082.452 0 .156-.04.296-.119.422a.915.915 0 0 1-.33.305c-.14.08-.304.13-.492.153l-.179.121Zm-.024 1.761h-1.128l.282-.406h.846a.894.894 0 0 0 .403-.083.59.59 0 0 0 .257-.232.707.707 0 0 0 .088-.36c0-.14-.026-.26-.075-.362a.518.518 0 0 0-.236-.235.903.903 0 0 0-.414-.083h-.711l.005-.4h.973l.106.144a.928.928 0 0 1 .46.155.843.843 0 0 1 .287.331.98.98 0 0 1 .101.445c0 .234-.052.433-.155.595a.973.973 0 0 1-.432.367 1.606 1.606 0 0 1-.657.124Zm3.906-3.431-1.247 3.431h-.51l1.436-3.765h.329l-.008.334Zm1.045 3.431-1.25-3.431-.007-.334h.329l1.44 3.765h-.512Zm-.064-1.394v.409h-2.117v-.409h2.117Zm1.629-2.371h.502v3.36h1.294v-3.36h.496v3.36h1.286v-3.36h.5v3.765h-4.078v-3.765Zm7.867 0v3.765h-.5v-3.765h.5Zm2.32 0-1.634 2.071h-.885l-.078-.413h.665l1.314-1.658h.619Zm-.501 3.765-1.416-1.758.28-.437 1.746 2.195h-.61ZM60.75 44.2h-1.006v-.405h1.006c.195 0 .353-.032.474-.093a.58.58 0 0 0 .264-.26.811.811 0 0 0 .085-.377.802.802 0 0 0-.085-.364.63.63 0 0 0-.264-.274.93.93 0 0 0-.474-.106h-.89v3.356h-.499v-3.765h1.39c.284 0 .525.05.721.148.197.098.346.234.448.408.102.172.152.37.152.592 0 .242-.05.448-.152.618a.975.975 0 0 1-.448.39 1.765 1.765 0 0 1-.722.133Zm4.877 1.071v.406h-1.995v-.406h1.995Zm-1.894-3.359v3.765h-.5v-3.765h.5Zm1.63 1.619v.406h-1.731v-.406h1.73Zm.238-1.619v.409h-1.969v-.409h1.969Zm4.136 3.359v.406h-2.85v-.406h2.85Zm-2.77 0v1.332h-.495l-.002-1.332h.496Zm3.205 0-.005 1.33h-.494v-1.33h.499Zm-.924-3.359v.409h-1.65v-.409h1.65Zm.43 0v3.765h-.497v-3.765h.497Zm-2.251 0h.5l-.078 1.515c-.01.228-.032.438-.065.631a4.263 4.263 0 0 1-.122.525 2.799 2.799 0 0 1-.165.427 1.956 1.956 0 0 1-.2.323 1.24 1.24 0 0 1-.222.223.765.765 0 0 1-.23.121h-.228v-.406h.16a1.979 1.979 0 0 0 .327-.564c.058-.146.11-.325.152-.535.045-.21.075-.458.09-.745l.081-1.515Zm4.383 2.901 1.854-2.9h.5v3.764h-.5v-2.904l-1.855 2.904h-.496v-3.765h.496v2.901Zm5.106-2.901v3.765h-.492v-3.765h.492Zm1.21 0v.409h-2.91v-.409h2.91Zm3.55 1.618v.407h-2.039v-.406h2.039Zm-1.961-1.618v3.765h-.5v-3.765h.5Zm2.396 0v3.765h-.497v-3.765h.497Zm1.82 1.534h1.028c.276 0 .509.046.698.14.19.09.334.219.432.385.099.165.148.359.148.581 0 .166-.028.318-.083.455a.994.994 0 0 1-.246.357c-.109.1-.242.178-.4.233a1.74 1.74 0 0 1-.55.08h-1.407v-3.765h.5v3.36h.908a.873.873 0 0 0 .447-.102.631.631 0 0 0 .254-.269.8.8 0 0 0 0-.7.583.583 0 0 0-.254-.251.911.911 0 0 0-.447-.096H83.93v-.408Zm3.26-1.534v3.765h-.499v-3.765h.5Zm1.971 2.901 1.855-2.901h.5v3.765h-.5v-2.904l-1.855 2.904h-.496v-3.765h.496v2.901Zm1.325-3.835h.388a.64.64 0 0 1-.36.603.9.9 0 0 1-.41.088c-.24 0-.43-.064-.57-.191a.653.653 0 0 1-.207-.5h.388c0 .102.03.192.088.27.059.077.159.116.3.116.138 0 .237-.039.295-.116a.434.434 0 0 0 .088-.27Zm6.61.934v.409H95.28v3.356h-.496v-3.765h2.313Zm-1.933 1.534h1.027c.276 0 .509.046.698.14.19.09.334.219.433.385.098.165.147.359.147.581 0 .166-.028.318-.083.455a.995.995 0 0 1-.245.357 1.13 1.13 0 0 1-.402.233c-.158.053-.341.08-.548.08h-1.407v-3.765h.499v3.36h.908a.874.874 0 0 0 .448-.102.634.634 0 0 0 .253-.269.802.802 0 0 0 0-.7.585.585 0 0 0-.253-.251.912.912 0 0 0-.448-.096h-1.027v-.408Zm4.897.754h-1.006v-.405h1.006c.195 0 .353-.032.473-.093a.579.579 0 0 0 .264-.26.81.81 0 0 0 .086-.377.802.802 0 0 0-.086-.364.628.628 0 0 0-.264-.274.926.926 0 0 0-.473-.106h-.89v3.356h-.5v-3.765h1.39c.285 0 .525.05.722.148.196.098.346.234.447.408.102.172.153.37.153.592 0 .242-.051.448-.153.618a.973.973 0 0 1-.447.39 1.766 1.766 0 0 1-.722.133Zm5.384-.524v.238c0 .282-.036.536-.106.76a1.635 1.635 0 0 1-.306.571 1.32 1.32 0 0 1-.479.36 1.497 1.497 0 0 1-.62.124 1.51 1.51 0 0 1-.614-.124 1.38 1.38 0 0 1-.481-.36 1.68 1.68 0 0 1-.313-.571 2.419 2.419 0 0 1-.111-.76v-.238c0-.283.036-.536.108-.758.075-.224.179-.415.314-.572a1.34 1.34 0 0 1 .478-.361 1.49 1.49 0 0 1 .613-.125c.23 0 .437.042.621.125.187.082.346.203.479.361.135.157.237.348.308.572.072.222.109.475.109.758Zm-.495.238v-.244c0-.224-.023-.422-.069-.594a1.237 1.237 0 0 0-.2-.435.856.856 0 0 0-.323-.266.983.983 0 0 0-.43-.09.89.89 0 0 0-.742.357 1.317 1.317 0 0 0-.205.434c-.048.172-.072.37-.072.594v.244c0 .225.024.425.072.6.049.172.118.317.207.436.092.118.2.206.324.267.126.06.266.09.422.09.162 0 .306-.03.432-.09a.839.839 0 0 0 .318-.267c.088-.119.154-.264.199-.437a2.41 2.41 0 0 0 .067-.6Zm2.295-2.002v3.765h-.5v-3.765h.5Zm2.321 0-1.636 2.071h-.884l-.078-.413h.665l1.314-1.658h.619Zm-.502 3.765-1.416-1.758.28-.437 1.746 2.195h-.61Zm3.986-.406v.406h-1.995v-.406h1.995Zm-1.894-3.359v3.765h-.499v-3.765h.499Zm1.63 1.619v.406h-1.731v-.406h1.731Zm.238-1.619v.409h-1.969v-.409h1.969Zm2.564 2.288h-1.007v-.405h1.007c.194 0 .352-.032.473-.093a.579.579 0 0 0 .264-.26.81.81 0 0 0 .085-.377.802.802 0 0 0-.085-.364.628.628 0 0 0-.264-.274.931.931 0 0 0-.473-.106h-.89v3.356h-.5v-3.765h1.39c.284 0 .525.05.721.148.197.098.346.234.448.408.102.172.153.37.153.592 0 .242-.051.448-.153.618a.976.976 0 0 1-.448.39 1.76 1.76 0 0 1-.721.133Z" fill="#ACACAC"/></g><defs><clipPath id="a"><path fill="#fff" d="M0 0h117v47H0z"/></clipPath></defs></svg>