<svg width="117" height="47" viewBox="0 0 117 47" fill="none" xmlns="http://www.w3.org/2000/svg">
<g id="express credit" clip-path="url(#clip0_245_2923)">
<path id="Vector" d="M9.02286 1.48492C9.25099 0.610319 10.0413 0 10.9456 0H29.2898C30.5907 0 31.5407 1.22874 31.2125 2.48691L26.5502 20.3601C26.3221 21.2348 25.5318 21.8451 24.6276 21.8451H6.28338C4.98243 21.8451 4.03245 20.6163 4.36064 19.3582L9.02286 1.48492Z" fill="#E01010"/>
<path id="Vector_2" d="M17.3035 26.6397C17.5316 25.7652 18.3218 25.1548 19.2262 25.1548H37.5704C38.8713 25.1548 39.8214 26.3836 39.4931 27.6418L34.8309 45.5151C34.6028 46.3896 33.8125 46.9999 32.9082 46.9999H14.5641C13.263 46.9999 12.3131 45.7712 12.6413 44.513L17.3035 26.6397Z" fill="#E01010"/>
<path id="Vector_3" d="M31.3096 11.0771C31.54 10.2057 32.3287 9.59863 33.2306 9.59863H41.5343C42.8379 9.59863 43.7884 10.8322 43.4553 12.092L41.3548 20.0356C41.1243 20.9071 40.3355 21.5142 39.4336 21.5142H31.13C29.8264 21.5142 28.8759 20.2805 29.209 19.0208L31.3096 11.0771Z" fill="#E01010"/>
<path id="Vector_4" d="M2.16756 26.6333C2.398 25.7619 3.18675 25.1548 4.08862 25.1548H12.3922C13.6959 25.1548 14.6464 26.3884 14.3133 27.6482L12.2128 35.5918C11.9823 36.4632 11.1936 37.0704 10.2917 37.0704H1.98808C0.684386 37.0704 -0.266083 35.8367 0.0670266 34.577L2.16756 26.6333Z" fill="#E01010"/>
<path id="Vector_5" d="M54.4456 10.3071V11.9023H49.9973V20.1902H47.9665V10.3071H54.4456ZM49.2976 13.9115H51.6068C52.3855 13.9115 53.0557 14.0404 53.6171 14.2984C54.1785 14.5563 54.6109 14.9183 54.9143 15.3844C55.2176 15.8505 55.3693 16.3936 55.3693 17.0135C55.3693 17.4841 55.2833 17.914 55.1113 18.3032C54.9392 18.6878 54.6879 19.0227 54.3573 19.3078C54.0314 19.5883 53.6374 19.8055 53.1757 19.9594C52.7138 20.1132 52.1909 20.1902 51.6068 20.1902H47.9665V10.3071H50.0108V18.6018H51.6068C51.9962 18.6018 52.3177 18.5294 52.5712 18.3846C52.8248 18.2399 53.0149 18.0475 53.1417 17.8077C53.273 17.5633 53.3386 17.2941 53.3386 16.9999C53.3386 16.7193 53.273 16.4659 53.1417 16.2397C53.0149 16.0089 52.8248 15.8278 52.5712 15.6966C52.3177 15.5654 51.9962 15.4998 51.6068 15.4998H49.2976V13.9115Z" fill="#E01010"/>
<path id="Vector_6" d="M58.532 13.9115H60.8411C61.6154 13.9115 62.2831 14.0404 62.8447 14.2984C63.4106 14.5563 63.843 14.9183 64.1418 15.3844C64.4452 15.8505 64.5968 16.3936 64.5968 17.0135C64.5968 17.4841 64.5108 17.914 64.3387 18.3032C64.1667 18.6878 63.9176 19.0227 63.5917 19.3078C63.2656 19.5883 62.8718 19.8055 62.4099 19.9594C61.9482 20.1132 61.4251 20.1902 60.8411 20.1902H57.2008V10.3071H59.2451V18.6018H60.8411C61.226 18.6018 61.5451 18.5294 61.7987 18.3846C62.0568 18.2399 62.2493 18.0475 62.376 17.8077C62.5028 17.5633 62.5662 17.2941 62.5662 16.9999C62.5662 16.7193 62.5028 16.4659 62.376 16.2397C62.2493 16.0089 62.0568 15.8278 61.7987 15.6966C61.5451 15.5654 61.226 15.4998 60.8411 15.4998H58.532V13.9115ZM67.5036 10.3071V20.1902H65.473V10.3071H67.5036Z" fill="#E01010"/>
<path id="Vector_7" d="M75.4951 16.9117H77.5257C77.485 17.5768 77.3016 18.1674 76.9756 18.6833C76.6542 19.1991 76.2036 19.6018 75.6241 19.8915C75.049 20.1811 74.3563 20.3259 73.5459 20.3259C72.9121 20.3259 72.3437 20.2173 71.8413 20.0001C71.3386 19.7783 70.9085 19.4616 70.5509 19.0499C70.1976 18.638 69.9283 18.1402 69.7427 17.5565C69.5571 16.9727 69.4641 16.3188 69.4641 15.5948V14.9092C69.4641 14.1852 69.5593 13.5313 69.7494 12.9475C69.9442 12.3593 70.2203 11.8592 70.578 11.4474C70.9403 11.0357 71.3726 10.7189 71.8751 10.4971C72.3777 10.2754 72.9392 10.1646 73.5595 10.1646C74.3835 10.1646 75.0785 10.3139 75.6445 10.6125C76.2149 10.9112 76.6564 11.323 76.9688 11.8479C77.2857 12.3728 77.4759 12.9702 77.5393 13.64H75.5019C75.4792 13.2417 75.4 12.9045 75.2641 12.6285C75.1283 12.348 74.9223 12.1375 74.6461 11.9973C74.3745 11.8525 74.0122 11.78 73.5595 11.78C73.2199 11.78 72.9234 11.8434 72.6698 11.9701C72.4162 12.0968 72.2034 12.2891 72.0314 12.5471C71.8593 12.805 71.7303 13.1309 71.6443 13.5245C71.5627 13.9137 71.522 14.3708 71.522 14.8957V15.5948C71.522 16.1062 71.5605 16.5563 71.6375 16.9456C71.7145 17.3302 71.8321 17.656 71.9906 17.923C72.1536 18.1854 72.3619 18.3846 72.6155 18.5203C72.8736 18.6515 73.1837 18.7172 73.5459 18.7172C73.9715 18.7172 74.3223 18.6493 74.5986 18.5136C74.8747 18.3778 75.0853 18.1764 75.2303 17.9094C75.3796 17.6425 75.4679 17.3099 75.4951 16.9117Z" fill="#E01010"/>
<path id="Vector_8" d="M83.568 10.3071V20.1902H81.5373V10.3071H83.568ZM86.6106 10.3071V11.9023H78.5422V10.3071H86.6106Z" fill="#E01010"/>
<path id="Vector_9" d="M92.1096 16.6673H89.5899V15.079H92.1096C92.499 15.079 92.8159 15.0157 93.0604 14.889C93.3049 14.7577 93.4838 14.5766 93.597 14.3459C93.7101 14.1151 93.7668 13.855 93.7668 13.5653C93.7668 13.2711 93.7101 12.9974 93.597 12.744C93.4838 12.4905 93.3049 12.2869 93.0604 12.133C92.8159 11.9792 92.499 11.9023 92.1096 11.9023H90.2963V20.1902H88.2588V10.3071H92.1096C92.8838 10.3071 93.5471 10.4474 94.0995 10.728C94.6564 11.004 95.082 11.3864 95.3763 11.8751C95.6706 12.3638 95.8177 12.9227 95.8177 13.5516C95.8177 14.1897 95.6706 14.7418 95.3763 15.2079C95.082 15.674 94.6564 16.0337 94.0995 16.2872C93.5471 16.5406 92.8838 16.6673 92.1096 16.6673Z" fill="#E01010"/>
<path id="Vector_10" d="M99.0551 13.9115H101.364C102.138 13.9115 102.806 14.0404 103.368 14.2984C103.934 14.5563 104.366 14.9183 104.665 15.3844C104.968 15.8505 105.12 16.3936 105.12 17.0135C105.12 17.4841 105.034 17.914 104.862 18.3032C104.69 18.6878 104.441 19.0227 104.115 19.3078C103.789 19.5883 103.395 19.8055 102.933 19.9594C102.471 20.1132 101.948 20.1902 101.364 20.1902H97.724V10.3071H99.7683V18.6018H101.364C101.749 18.6018 102.068 18.5294 102.322 18.3846C102.58 18.2399 102.772 18.0475 102.899 17.8077C103.026 17.5633 103.089 17.2941 103.089 16.9999C103.089 16.7193 103.026 16.4659 102.899 16.2397C102.772 16.0089 102.58 15.8278 102.322 15.6966C102.068 15.5654 101.749 15.4998 101.364 15.4998H99.0551V13.9115ZM108.027 10.3071V20.1902H105.996V10.3071H108.027Z" fill="#E01010"/>
<path id="Vector_11" d="M116.921 18.6018V20.1902H111.658V18.6018H116.921ZM112.324 10.3071V20.1902H110.286V10.3071H112.324ZM116.236 14.3323V15.88H111.658V14.3323H116.236ZM116.915 10.3071V11.9023H111.658V10.3071H116.915Z" fill="#E01010"/>
<path id="Vector_12" d="M47.395 26.7531H49.5956C50.1841 26.7531 50.7275 26.8504 51.2254 27.0449C51.7235 27.235 52.1559 27.511 52.5227 27.8731C52.8939 28.2305 53.1815 28.6627 53.3852 29.1695C53.5889 29.6719 53.6908 30.233 53.6908 30.8529C53.6908 31.4593 53.5889 32.0114 53.3852 32.5092C53.1815 33.0024 52.8939 33.4255 52.5227 33.7784C52.1559 34.1314 51.7235 34.403 51.2254 34.593C50.7275 34.7831 50.1841 34.8781 49.5956 34.8781H47.395C46.8019 34.8781 46.2564 34.7831 45.7583 34.593C45.2603 34.403 44.8255 34.1336 44.4544 33.7852C44.083 33.4323 43.7932 33.0091 43.5851 32.5159C43.3813 32.0226 43.2793 31.4728 43.2793 30.8664C43.2793 30.2465 43.3813 29.6854 43.5851 29.1831C43.7932 28.6762 44.083 28.2418 44.4544 27.8799C44.8255 27.5178 45.2603 27.2395 45.7583 27.0449C46.2564 26.8504 46.8019 26.7531 47.395 26.7531ZM47.395 28.3821C46.9604 28.3821 46.5778 28.4772 46.2474 28.6672C45.9168 28.8573 45.661 29.1378 45.4799 29.5089C45.2987 29.8754 45.2082 30.328 45.2082 30.8664C45.2082 31.2556 45.2603 31.5995 45.3644 31.8982C45.4731 32.1923 45.6247 32.439 45.8195 32.6381C46.0141 32.8372 46.2451 32.9888 46.5122 33.0929C46.7793 33.197 47.0736 33.249 47.395 33.249H49.6091C50.0393 33.249 50.4151 33.1563 50.7365 32.9707C51.0625 32.7852 51.3161 32.5137 51.4972 32.1561C51.6783 31.7987 51.7688 31.3643 51.7688 30.8529C51.7688 30.4502 51.7168 30.0949 51.6126 29.7872C51.5085 29.4795 51.3614 29.2216 51.1711 29.0134C50.981 28.8052 50.7523 28.6492 50.4852 28.545C50.2226 28.4365 49.9305 28.3821 49.6091 28.3821H47.395ZM49.4733 25.4565V36.1542H47.5173V25.4565H49.4733Z" fill="#E01010"/>
<path id="Vector_13" d="M57.4783 32.5429L61.4513 25.8638H63.4889V35.7468H61.4513V29.0675L57.4783 35.7468H55.4408V25.8638H57.4783V32.5429Z" fill="#E01010"/>
<path id="Vector_14" d="M72.336 29.889V31.4773H67.1744V29.889H72.336ZM67.7789 25.8638V35.7468H65.7415V25.8638H67.7789ZM73.7894 25.8638V35.7468H71.7587V25.8638H73.7894Z" fill="#E01010"/>
<path id="Vector_15" d="M80.1917 27.5539L77.5022 35.7468H75.3357L79.0099 25.8638H80.3887L80.1917 27.5539ZM82.4261 35.7468L79.7298 27.5539L79.5125 25.8638H80.9048L84.5994 35.7468H82.4261ZM82.3038 32.0678V33.6629H77.0812V32.0678H82.3038Z" fill="#E01010"/>
<path id="Vector_16" d="M92.5975 29.889V31.4773H87.436V29.889H92.5975ZM88.0404 25.8638V35.7468H86.003V25.8638H88.0404ZM94.0509 25.8638V35.7468H92.0203V25.8638H94.0509Z" fill="#E01010"/>
<path id="Vector_17" d="M102.042 32.4683H104.073C104.032 33.1334 103.849 33.724 103.523 34.2398C103.202 34.7557 102.751 35.1584 102.171 35.4481C101.597 35.7377 100.904 35.8825 100.093 35.8825C99.4594 35.8825 98.8912 35.7739 98.3886 35.5567C97.886 35.3349 97.4559 35.0182 97.0982 34.6063C96.7451 34.1946 96.4757 33.6968 96.29 33.1131C96.1044 32.5293 96.0116 31.8754 96.0116 31.1514V30.4658C96.0116 29.7418 96.1067 29.0879 96.2968 28.5041C96.4915 27.9159 96.7676 27.4158 97.1254 27.004C97.4876 26.5923 97.92 26.2754 98.4226 26.0537C98.9252 25.832 99.4866 25.7212 100.107 25.7212C100.931 25.7212 101.626 25.8705 102.192 26.1691C102.762 26.4678 103.204 26.8795 103.516 27.4045C103.833 27.9294 104.023 28.5268 104.087 29.1964H102.049C102.027 28.7982 101.947 28.4611 101.812 28.1851C101.676 27.9045 101.47 27.6941 101.193 27.5538C100.922 27.4091 100.56 27.3366 100.107 27.3366C99.7673 27.3366 99.4707 27.4 99.2171 27.5267C98.9636 27.6535 98.7508 27.8457 98.5787 28.1037C98.4066 28.3616 98.2776 28.6875 98.1916 29.0811C98.1102 29.4703 98.0694 29.9273 98.0694 30.4523V31.1514C98.0694 31.6627 98.1079 32.1129 98.1848 32.5021C98.2618 32.8867 98.3796 33.2126 98.5381 33.4796C98.701 33.742 98.9093 33.9412 99.1628 34.0769C99.4209 34.2081 99.731 34.2738 100.093 34.2738C100.519 34.2738 100.87 34.2059 101.146 34.0701C101.422 33.9344 101.633 33.733 101.778 33.466C101.927 33.1991 102.015 32.8664 102.042 32.4683Z" fill="#E01010"/>
<path id="Vector_18" d="M107.243 29.4681H109.552C110.326 29.4681 110.994 29.5971 111.555 29.855C112.121 30.1129 112.554 30.4749 112.852 30.941C113.156 31.4071 113.307 31.9502 113.307 32.5701C113.307 33.0407 113.221 33.4706 113.049 33.8598C112.877 34.2444 112.628 34.5793 112.302 34.8643C111.976 35.145 111.582 35.3622 111.121 35.5161C110.659 35.6698 110.136 35.7468 109.552 35.7468H105.911V25.8638H107.956V34.1585H109.552C109.937 34.1585 110.256 34.086 110.509 33.9413C110.767 33.7965 110.96 33.6041 111.087 33.3643C111.213 33.1199 111.277 32.8507 111.277 32.5566C111.277 32.2759 111.213 32.0225 111.087 31.7963C110.96 31.5656 110.767 31.3845 110.509 31.2532C110.256 31.122 109.937 31.0565 109.552 31.0565H107.243V29.4681ZM116.214 25.8638V35.7468H114.183V25.8638H116.214Z" fill="#E01010"/>
<path id="Vector_19" d="M41.5892 43.9162H40.6345L40.6292 43.5154H41.496C41.6392 43.5154 41.7642 43.4912 41.8712 43.4429C41.978 43.3947 42.0609 43.3257 42.1195 43.236C42.1799 43.1448 42.21 43.0361 42.21 42.9103C42.21 42.7724 42.1833 42.6604 42.1299 42.5741C42.0781 42.4861 41.998 42.4223 41.8893 42.3827C41.7823 42.3414 41.6461 42.3207 41.4804 42.3207H40.7457V45.6771H40.2464V41.9121H41.4804C41.6737 41.9121 41.8461 41.9319 41.998 41.9716C42.1497 42.0095 42.2783 42.0699 42.3835 42.1526C42.4903 42.2336 42.5714 42.3371 42.6266 42.463C42.6818 42.5888 42.7094 42.7396 42.7094 42.9154C42.7094 43.0706 42.6698 43.2111 42.5904 43.3369C42.5111 43.461 42.4006 43.5628 42.2592 43.6421C42.1195 43.7213 41.9557 43.7722 41.7676 43.7946L41.5892 43.9162ZM41.5658 45.6771H40.4379L40.7199 45.2712H41.5658C41.7246 45.2712 41.859 45.2436 41.9695 45.1883C42.0816 45.1332 42.167 45.0556 42.2256 44.9557C42.2843 44.8539 42.3136 44.7341 42.3136 44.5963C42.3136 44.4566 42.2885 44.3359 42.2385 44.2342C42.1885 44.1325 42.1101 44.0541 42.0031 43.9989C41.8962 43.9438 41.7582 43.9162 41.5892 43.9162H40.8776L40.8828 43.5154H41.8557L41.9617 43.6601C42.1428 43.6757 42.2963 43.7274 42.4222 43.8153C42.5481 43.9015 42.6439 44.0118 42.7094 44.1463C42.7767 44.2808 42.8103 44.4291 42.8103 44.591C42.8103 44.8255 42.7585 45.0238 42.6551 45.1858C42.5534 45.3461 42.4093 45.4684 42.2231 45.5529C42.0367 45.6358 41.8177 45.6771 41.5658 45.6771Z" fill="#ACACAC"/>
<path id="Vector_20" d="M45.4721 42.2457L44.225 45.6771H43.7154L45.1512 41.9121H45.4799L45.4721 42.2457ZM46.5173 45.6771L45.2677 42.2457L45.2599 41.9121H45.5885L47.0296 45.6771H46.5173ZM46.4526 44.2833V44.6919H44.3362V44.2833H46.4526Z" fill="#ACACAC"/>
<path id="Vector_21" d="M48.0821 41.9121H48.5841V45.2712H49.8776V41.9121H50.3745V45.2712H51.6603V41.9121H52.1595V45.6771H48.0821V41.9121Z" fill="#ACACAC"/>
<path id="Vector_22" d="M55.949 41.9121V45.6771H55.4496V41.9121H55.949ZM58.2696 41.9121L56.6345 43.9834H55.7497L55.6721 43.5696H56.3369L57.6513 41.9121H58.2696ZM57.7678 45.6771L56.3525 43.9187L56.6319 43.4817L58.3784 45.6771H57.7678Z" fill="#ACACAC"/>
<path id="Vector_23" d="M60.7503 44.2006H59.7439V43.7946H60.7503C60.9452 43.7946 61.1031 43.7635 61.2237 43.7015C61.3445 43.6395 61.4325 43.5532 61.4877 43.4429C61.5446 43.3326 61.5731 43.2068 61.5731 43.0654C61.5731 42.9361 61.5446 42.8146 61.4877 42.7008C61.4325 42.587 61.3445 42.4957 61.2237 42.4267C61.1031 42.356 60.9452 42.3207 60.7503 42.3207H59.8604V45.6771H59.361V41.9121H60.7503C61.0349 41.9121 61.2755 41.9612 61.4721 42.0595C61.6688 42.1578 61.818 42.294 61.9197 42.4681C62.0215 42.6404 62.0724 42.8378 62.0724 43.0603C62.0724 43.3016 62.0215 43.5076 61.9197 43.6783C61.818 43.8489 61.6688 43.9791 61.4721 44.0687C61.2755 44.1566 61.0349 44.2006 60.7503 44.2006Z" fill="#ACACAC"/>
<path id="Vector_24" d="M65.6267 45.2712V45.6771H63.632V45.2712H65.6267ZM63.7329 41.9121V45.6771H63.2336V41.9121H63.7329ZM65.3629 43.5308V43.9369H63.632V43.5308H65.3629ZM65.6009 41.9121V42.3207H63.632V41.9121H65.6009Z" fill="#ACACAC"/>
<path id="Vector_25" d="M69.7374 45.2712V45.6771H66.8863V45.2712H69.7374ZM66.9664 45.2712V46.6028H66.4723L66.4697 45.2712H66.9664ZM70.172 45.2712L70.1669 46.6002H69.6727V45.2712H70.172ZM69.2484 41.9121V42.3207H67.5978V41.9121H69.2484ZM69.6778 41.9121V45.6771H69.1811V41.9121H69.6778ZM67.427 41.9121H67.9263L67.8487 43.4274C67.8383 43.655 67.8167 43.8653 67.784 44.0583C67.7513 44.2497 67.7108 44.4247 67.6624 44.5833C67.6141 44.7419 67.5589 44.8841 67.4968 45.01C67.4348 45.1341 67.3683 45.2418 67.2976 45.3332C67.2268 45.4228 67.1527 45.4969 67.0751 45.5556C66.9992 45.6125 66.9225 45.6529 66.8449 45.6771H66.6171V45.2712H66.7775C66.8224 45.2228 66.8733 45.153 66.9303 45.0616C66.9888 44.9702 67.0466 44.8522 67.1036 44.7074C67.1623 44.5609 67.2131 44.3824 67.2562 44.1721C67.3011 43.9618 67.3313 43.7135 67.3467 43.4274L67.427 41.9121Z" fill="#ACACAC"/>
<path id="Vector_26" d="M71.8093 44.8135L73.6644 41.9121H74.1637V45.6771H73.6644V42.7731L71.8093 45.6771H71.3126V41.9121H71.8093V44.8135Z" fill="#ACACAC"/>
<path id="Vector_27" d="M76.916 41.9121V45.6771H76.4245V41.9121H76.916ZM78.1268 41.9121V42.3207H75.2162V41.9121H78.1268Z" fill="#ACACAC"/>
<path id="Vector_28" d="M81.676 43.5308V43.9369H79.6372V43.5308H81.676ZM79.7149 41.9121V45.6771H79.2155V41.9121H79.7149ZM82.1107 41.9121V45.6771H81.6139V41.9121H82.1107Z" fill="#ACACAC"/>
<path id="Vector_29" d="M83.9315 43.4456H84.9587C85.2347 43.4456 85.4676 43.4921 85.6573 43.5852C85.847 43.6766 85.991 43.8049 86.0893 43.9705C86.1876 44.1359 86.2368 44.3299 86.2368 44.5523C86.2368 44.7177 86.2092 44.8695 86.154 45.0073C86.0988 45.1436 86.017 45.2625 85.9082 45.3642C85.7995 45.4642 85.6658 45.5418 85.5072 45.5969C85.3486 45.6504 85.1657 45.6771 84.9587 45.6771H83.5513V41.9121H84.0505V45.2712H84.9587C85.1433 45.2712 85.2925 45.2375 85.4062 45.1703C85.5219 45.1013 85.6064 45.0117 85.6598 44.9013C85.7134 44.791 85.7401 44.673 85.7401 44.5471C85.7401 44.4213 85.7134 44.3057 85.6598 44.2006C85.6064 44.0954 85.5219 44.0118 85.4062 43.9498C85.2925 43.886 85.1433 43.854 84.9587 43.854H83.9315V43.4456ZM87.1915 41.9121V45.6771H86.6921V41.9121H87.1915Z" fill="#ACACAC"/>
<path id="Vector_30" d="M89.1624 44.8133L91.0175 41.912H91.5168V45.677H91.0175V42.773L89.1624 45.677H88.6657V41.912H89.1624V44.8133ZM90.4871 40.9785H90.8753C90.8753 41.113 90.8442 41.2328 90.7821 41.338C90.72 41.4414 90.6311 41.5225 90.5156 41.581C90.4 41.6396 90.2629 41.669 90.1042 41.669C89.8645 41.669 89.6748 41.6052 89.535 41.4776C89.397 41.3482 89.3281 41.1819 89.3281 40.9785H89.7162C89.7162 41.0803 89.7454 41.1699 89.8041 41.2475C89.8628 41.3251 89.9628 41.3638 90.1042 41.3638C90.2422 41.3638 90.3405 41.3251 90.3991 41.2475C90.4578 41.1699 90.4871 41.0803 90.4871 40.9785Z" fill="#ACACAC"/>
<path id="Vector_31" d="M97.0966 41.9121V42.3207H95.2803V45.6771H94.7835V41.9121H97.0966ZM95.1639 43.4456H96.1909C96.4669 43.4456 96.6998 43.4921 96.8895 43.5852C97.0793 43.6766 97.2232 43.8049 97.3216 43.9705C97.4199 44.1359 97.469 44.3299 97.469 44.5523C97.469 44.7177 97.4414 44.8695 97.3863 45.0073C97.3311 45.1436 97.2492 45.2625 97.1405 45.3642C97.0319 45.4642 96.8982 45.5418 96.7394 45.5969C96.5808 45.6504 96.398 45.6771 96.1909 45.6771H94.7835V41.9121H95.2829V45.2712H96.1909C96.3755 45.2712 96.5247 45.2375 96.6386 45.1703C96.7541 45.1013 96.8386 45.0117 96.8922 44.9013C96.9456 44.791 96.9723 44.673 96.9723 44.5471C96.9723 44.4213 96.9456 44.3057 96.8922 44.2006C96.8386 44.0954 96.7541 44.0118 96.6386 43.9498C96.5247 43.886 96.3755 43.854 96.1909 43.854H95.1639V43.4456Z" fill="#ACACAC"/>
<path id="Vector_32" d="M100.061 44.2006H99.0546V43.7946H100.061C100.256 43.7946 100.414 43.7635 100.534 43.7015C100.655 43.6395 100.743 43.5532 100.798 43.4429C100.855 43.3326 100.884 43.2068 100.884 43.0654C100.884 42.9361 100.855 42.8146 100.798 42.7008C100.743 42.587 100.655 42.4957 100.534 42.4267C100.414 42.356 100.256 42.3207 100.061 42.3207H99.171V45.6771H98.6716V41.9121H100.061C100.346 41.9121 100.586 41.9612 100.783 42.0595C100.979 42.1578 101.129 42.294 101.23 42.4681C101.332 42.6404 101.383 42.8378 101.383 43.0603C101.383 43.3016 101.332 43.5076 101.23 43.6783C101.129 43.8489 100.979 43.9791 100.783 44.0687C100.586 44.1566 100.346 44.2006 100.061 44.2006Z" fill="#ACACAC"/>
<path id="Vector_33" d="M105.445 43.6757V43.9136C105.445 44.1963 105.409 44.4497 105.339 44.6738C105.268 44.8979 105.166 45.0884 105.033 45.2452C104.9 45.4021 104.741 45.522 104.554 45.6047C104.37 45.6874 104.163 45.7288 103.934 45.7288C103.711 45.7288 103.507 45.6874 103.32 45.6047C103.136 45.522 102.975 45.4021 102.839 45.2452C102.705 45.0884 102.6 44.8979 102.526 44.6738C102.452 44.4497 102.415 44.1963 102.415 43.9136V43.6757C102.415 43.3929 102.451 43.1404 102.523 42.918C102.598 42.6939 102.702 42.5034 102.837 42.3465C102.971 42.188 103.131 42.0673 103.315 41.9846C103.501 41.9018 103.706 41.8604 103.928 41.8604C104.158 41.8604 104.365 41.9018 104.549 41.9846C104.736 42.0673 104.895 42.188 105.028 42.3465C105.163 42.5034 105.265 42.6939 105.336 42.918C105.408 43.1404 105.445 43.3929 105.445 43.6757ZM104.95 43.9136V43.6705C104.95 43.4464 104.927 43.2482 104.881 43.0757C104.836 42.9034 104.769 42.7586 104.681 42.6413C104.593 42.5241 104.486 42.4354 104.358 42.375C104.232 42.3147 104.089 42.2845 103.928 42.2845C103.773 42.2845 103.633 42.3147 103.507 42.375C103.382 42.4354 103.276 42.5241 103.186 42.6413C103.098 42.7586 103.03 42.9034 102.981 43.0757C102.933 43.2482 102.909 43.4464 102.909 43.6705V43.9136C102.909 44.1394 102.933 44.3393 102.981 44.5135C103.03 44.6859 103.099 44.8315 103.188 44.9504C103.28 45.0678 103.388 45.1565 103.512 45.2168C103.638 45.2772 103.778 45.3073 103.934 45.3073C104.096 45.3073 104.24 45.2772 104.366 45.2168C104.492 45.1565 104.598 45.0678 104.684 44.9504C104.772 44.8315 104.838 44.6859 104.883 44.5135C104.928 44.3393 104.95 44.1394 104.95 43.9136Z" fill="#ACACAC"/>
<path id="Vector_34" d="M107.245 41.9121V45.6771H106.745V41.9121H107.245ZM109.566 41.9121L107.93 43.9834H107.046L106.968 43.5696H107.633L108.947 41.9121H109.566ZM109.064 45.6771L107.648 43.9187L107.928 43.4817L109.674 45.6771H109.064Z" fill="#ACACAC"/>
<path id="Vector_35" d="M113.05 45.2712V45.6771H111.055V45.2712H113.05ZM111.156 41.9121V45.6771H110.657V41.9121H111.156ZM112.786 43.5308V43.9369H111.055V43.5308H112.786ZM113.024 41.9121V42.3207H111.055V41.9121H113.024Z" fill="#ACACAC"/>
<path id="Vector_36" d="M115.588 44.2006H114.581V43.7946H115.588C115.782 43.7946 115.94 43.7635 116.061 43.7015C116.182 43.6395 116.27 43.5532 116.325 43.4429C116.382 43.3326 116.41 43.2068 116.41 43.0654C116.41 42.9361 116.382 42.8146 116.325 42.7008C116.27 42.587 116.182 42.4957 116.061 42.4267C115.94 42.356 115.782 42.3207 115.588 42.3207H114.698V45.6771H114.198V41.9121H115.588C115.872 41.9121 116.113 41.9612 116.309 42.0595C116.506 42.1578 116.655 42.294 116.757 42.4681C116.859 42.6404 116.91 42.8378 116.91 43.0603C116.91 43.3016 116.859 43.5076 116.757 43.6783C116.655 43.8489 116.506 43.9791 116.309 44.0687C116.113 44.1566 115.872 44.2006 115.588 44.2006Z" fill="#ACACAC"/>
</g>
<defs>
<clipPath id="clip0_245_2923">
<rect width="117" height="47" fill="white"/>
</clipPath>
</defs>
</svg>
