<svg width="40" height="60" fill="none" xmlns="http://www.w3.org/2000/svg"><g clip-path="url(#a)"><path d="M10.002 60C15.521 60 20 55.52 20 50V40h-9.998C4.483 40 .004 44.48.004 50s4.48 10 9.998 10Z" fill="#0ACF83"/><path d="M.004 30c0-5.52 4.48-10 9.998-10H20v20h-9.998C4.483 40 .004 35.52.004 30Z" fill="#A259FF"/><path d="M.004 10c0-5.52 4.48-10 9.998-10H20v20h-9.998C4.483 20 .004 15.52.004 10Z" fill="#F24E1E"/><path d="M20 0h9.998c5.519 0 9.998 4.48 9.998 10s-4.48 10-9.998 10H20V0Z" fill="#FF7262"/><path d="M39.996 30c0 5.52-4.48 10-9.998 10C24.479 40 20 35.52 20 30s4.48-10 9.998-10c5.519 0 9.998 4.48 9.998 10Z" fill="#1ABCFE"/></g><defs><clipPath id="a"><path fill="#fff" d="M0 0h40v60H0z"/></clipPath></defs></svg>