<svg width="11" height="16" fill="none" xmlns="http://www.w3.org/2000/svg"><defs><clipPath id="a"><path fill="#fff" fill-opacity="0" d="M0 0h11v16H0z"/></clipPath></defs><path d="M0 0h11v16H0z"/><g clip-path="url(#a)"><path d="M2.75 16c1.518 0 2.75-1.195 2.75-2.667v-2.666H2.75c-1.517 0-2.749 1.194-2.749 2.666S1.233 16 2.751 16Z" fill="#0ACF83"/><path d="M.001 8c0-1.472 1.232-2.667 2.75-2.667H5.5v5.334H2.75C1.234 10.667.002 9.472.002 8Z" fill="#A259FF"/><path d="M.001 2.667C.001 1.195 1.233 0 2.751 0H5.5v5.333H2.75C1.234 5.333.002 4.14.002 2.667Z" fill="#F24E1E"/><path d="M5.5 0h2.75c1.517 0 2.749 1.195 2.749 2.667 0 1.472-1.232 2.666-2.75 2.666H5.5V0Z" fill="#FF7262"/><path d="M10.999 8c0 1.472-1.232 2.667-2.75 2.667C6.732 10.667 5.5 9.472 5.5 8c0-1.472 1.232-2.667 2.75-2.667 1.517 0 2.749 1.195 2.749 2.667Z" fill="#1ABCFE"/></g></svg>