<svg width="20" height="20" fill="none" xmlns="http://www.w3.org/2000/svg"><path d="M10 1.667c2.264 0 2.547.008 3.435.05.887.041 1.492.18 2.023.387a4.07 4.07 0 0 1 1.477.96c.424.417.752.921.96 1.478.207.53.347 1.135.388 2.023.04.888.05 1.17.05 3.435 0 2.264-.008 2.546-.05 3.435-.041.887-.181 1.491-.387 2.023a4.072 4.072 0 0 1-.961 1.477 4.08 4.08 0 0 1-1.477.96c-.53.207-1.136.347-2.023.388-.888.04-1.17.05-3.435.05-2.264 0-2.547-.008-3.435-.05-.887-.041-1.492-.181-2.023-.388a4.074 4.074 0 0 1-1.477-.96 4.088 4.088 0 0 1-.96-1.477c-.207-.53-.347-1.136-.388-2.023-.04-.889-.05-1.17-.05-3.435 0-2.264.008-2.547.05-3.435.041-.889.18-1.492.387-2.024.209-.556.537-1.06.961-1.476.416-.424.92-.752 1.477-.961.531-.207 1.135-.346 2.023-.388.888-.039 1.17-.05 3.435-.05Zm0 4.166a4.166 4.166 0 1 0 0 8.331 4.166 4.166 0 0 0 0-8.331Zm5.417-.208a1.042 1.042 0 1 0-2.085 0 1.042 1.042 0 0 0 2.085 0ZM10 7.5a2.5 2.5 0 1 1 0 5 2.5 2.5 0 0 1 0-5Z" fill="#BDBDC0"/></svg>