<svg width="160" height="34" fill="none" xmlns="http://www.w3.org/2000/svg"><path d="M27.133 5.954v3.961h7.746v19.778h5.277V9.915H48V5.954H27.133Z" fill="#fff"/><path opacity=".4" d="M37.555 5.954v23.739H34.88V9.915h-7.746V5.954h10.422Z" fill="#fff"/><path d="m21.41 11.915-1.653-3.992-.718-1.784-.076-.192h-4.896L13.403 7.6 7.365 22.68l-2.807 7.026h5.538l1.806-4.899 4.624-1.542.054-.02 4.57 1.562 1.664 4.86 5.93.04-7.334-17.792Zm-4.873 7.64-.033-.01-3.177 1.3 1.35-3.76 1.838-5.12.021.05 1.034 2.863 2.165 5.978-3.198-1.3Z" fill="#fff"/><path opacity=".4" d="m14.676 17.082-1.349 3.76 3.177-1.31.032.02v3.71l-4.634 1.542-1.806 4.9H4.558l2.807-7.017 6.038-15.08.664-1.653h2.47v6.048l-.022-.05-1.839 5.13Z" fill="#fff"/><path d="M71.673 5.953v23.74h-5.287V13.927l-10.27 15.766h-5.277V5.973l2.578 2.067.055.04 2.643-2.167V21.75l9.183-14.132 1-1.532.088-.132h5.287Zm23.783 15.484a6.205 6.205 0 0 0-.066-.645 6.288 6.288 0 0 0-1.055-2.701 6.761 6.761 0 0 0-1.218-1.32c-.088-.082-.186-.152-.294-.233-1.273-.978-2.872-1.603-4.798-1.875-.686-.1-1.414-.15-2.176-.15h-4.33V9.914h11.728L91.169 8.03l2.045-2.076H76.2v23.75h9.65c1.251-.011 2.404-.152 3.438-.414a6.4 6.4 0 0 0 .587-.171c1.121-.353 2.111-.867 2.96-1.543 1.751-1.401 2.632-3.246 2.632-5.554.011-.202 0-.393-.01-.585Zm-6.485 3.296c-.783.666-1.816 1.008-3.111 1.029h-4.32v-7.309h4.33c1.338.02 2.393.343 3.155.978.772.625 1.153 1.472 1.153 2.55 0 1.15-.403 2.067-1.208 2.752Z" fill="#fff"/><path d="M92.653 20.095v1.28h1.382v-1.28h-1.382Z" fill="#0B0B0C"/><path d="M91.29 21.355v1.28h1.383v-1.28H91.29Z" fill="#0B0B0C"/><path d="M92.651 22.627v1.28h1.382v-1.28h-1.382ZM66.739 8.744h1.382v-1.28h-1.382v1.28Z" fill="#0B0B0C"/><path d="M68.102 10.006h1.381v-1.28h-1.381v1.28Z" fill="#0B0B0C"/><path d="M69.475 8.744h1.381v-1.28h-1.381v1.28ZM39.623 26.92h-1.381v1.28h1.381v-1.28Z" fill="#0B0B0C"/><path d="M38.251 25.65H36.87v1.28h1.382v-1.28Z" fill="#0B0B0C"/><path d="M36.892 26.92H35.51v1.28h1.382v-1.28ZM15.884 7.456h-1.381v1.28h1.381v-1.28Z" fill="#0B0B0C"/><path d="M15.865 9.998h1.382v-1.28h-1.382v1.28Z" fill="#0B0B0C"/><path d="M17.227 8.737h1.382v-1.28h-1.382v1.28Z" fill="#0B0B0C"/><path opacity=".4" d="M79.136 5.954H76.2v23.75h2.938V5.953Z" fill="#fff"/><path d="M37.566 25.65h-.697v1.28h.697v-1.28ZM15.873 9.998h.685v-1.28h-.685v1.28Z" fill="#0B0B0C"/><path opacity=".4" d="M53.417 8.04v21.652H50.84V5.973l2.578 2.067Z" fill="#fff"/><path d="M107.256 17.157h1.447v1.337h-1.447v-1.337Z" fill="#fff"/><path d="M109 18h42" stroke="#fff" stroke-width=".5" stroke-miterlimit="10"/><path d="M109 17v2h-2v-2h2Z" fill="#0B0B0C" stroke="#fff" stroke-width=".5" stroke-miterlimit="10"/><path d="M109.51 10.178c-.056.836-.215 1.41-.479 1.718v.04h3.076V7.013h-2.397l-.2 3.164Zm-1.236 4.214h-1.147v-2.457h.503c.42-.263.657-.875.713-1.835l.254-4.146h4.765v5.981h.879v2.457h-1.142V13h-4.825v1.392Zm11.812-6.46h-.064L116.599 13h-1.22V5.954h1.255v5.083h.063l3.418-5.083h1.221V13h-1.25V7.932Zm4.238.962h.937c.384 0 .695-.1.933-.298a.962.962 0 0 0 .356-.777c0-.315-.112-.566-.337-.752-.221-.182-.525-.273-.913-.273-.39 0-.706.096-.947.288a1.064 1.064 0 0 0-.4.786h-1.177c.033-.641.278-1.15.737-1.528.459-.375 1.066-.562 1.822-.562.719 0 1.305.178 1.757.533.453.351.679.807.679 1.367a1.655 1.655 0 0 1-1.318 1.62v.04c.472.055.846.24 1.123.552.276.312.415.706.415 1.181 0 .603-.254 1.104-.762 1.504-.511.4-1.151.6-1.919.6-.784 0-1.422-.193-1.914-.58-.495-.388-.758-.9-.791-1.538h1.211c.026.328.176.59.449.786.27.192.62.288 1.05.288.413 0 .747-.104 1.001-.313a1.01 1.01 0 0 0 .381-.82c0-.342-.125-.609-.376-.8-.247-.193-.593-.289-1.035-.289h-.962V8.894Zm8.852 2.285h-2.593l-.6 1.821h-1.299l2.5-7.046h1.421l2.5 7.046h-1.328l-.601-1.821Zm-2.3-.972h2.002l-.981-3.008h-.034l-.987 3.008Zm7.412-6.206a.9.9 0 0 0 .249.63c.16.166.365.249.616.249.25 0 .455-.083.615-.25a.9.9 0 0 0 .249-.629h.762c0 .446-.152.807-.455 1.084-.299.273-.69.41-1.171.41-.482 0-.873-.137-1.172-.41-.303-.277-.454-.638-.454-1.084h.761Zm2.613 3.93h-.064L137.414 13h-1.22V5.954h1.254v5.083h.064l3.418-5.083h1.221V13h-1.25V7.932ZM148.42 13V9.943h-3.428V13h-1.26V5.954h1.26v2.93h3.428v-2.93h1.255V13h-1.255Zm-37.709 17.142c-1.006 0-1.803-.33-2.393-.987-.589-.657-.883-1.55-.883-2.68 0-1.123.296-2.015.888-2.676.589-.658 1.385-.986 2.388-.986.794 0 1.47.223 2.026.668.557.45.887 1.036.992 1.758h-1.25a1.728 1.728 0 0 0-.64-.971 1.819 1.819 0 0 0-1.128-.362c-.606 0-1.089.231-1.45.694-.362.465-.542 1.09-.542 1.875 0 .79.179 1.417.537 1.88.361.462.848.693 1.46.693.443 0 .82-.108 1.133-.322a1.64 1.64 0 0 0 .634-.909h1.25c-.136.726-.472 1.294-1.005 1.704-.538.414-1.21.62-2.017.62Zm6.022-.142v-5.981h-2.138v-1.065h5.537v1.065h-2.139V30h-1.26Zm5.769.059c-.254 0-.431-.023-.532-.069v-1.05c.12.026.259.04.415.04.465 0 .817-.2 1.054-.596l-2.363-5.43h1.333l1.68 4.15h.039l1.616-4.15h1.323l-2.158 5.03c-.325.755-.659 1.285-1.001 1.591-.364.323-.833.484-1.406.484Zm7.346-2.881c-.056.836-.215 1.41-.479 1.718v.04h3.076v-4.922h-2.397l-.2 3.164Zm-1.236 4.214h-1.147v-2.456h.503c.42-.264.657-.876.713-1.836l.254-4.146h4.765v5.982h.879v2.456h-1.142V30h-4.825v1.392Zm12.112-6.46h-.064L137.237 30h-1.22v-7.046h1.254v5.083h.064l3.418-5.083h1.221V30h-1.25v-5.068Zm7.082-.952h-1.343c-.433 0-.77.107-1.011.322-.244.211-.366.51-.366.893 0 .384.12.684.361.899.241.211.58.317 1.016.317h1.343V23.98ZM144.871 30h-1.416l1.914-2.773a2.122 2.122 0 0 1-1.133-.738 2.04 2.04 0 0 1-.434-1.299c0-.667.223-1.206.669-1.616.449-.413 1.041-.62 1.777-.62h2.808V30h-1.25v-2.602h-1.162L144.871 30Z" fill="#fff"/></svg>