<svg width="15.000000" height="18.106445" viewBox="0 0 15 18.1064" fill="none" xmlns="http://www.w3.org/2000/svg" xmlns:xlink="http://www.w3.org/1999/xlink">
	<desc>
			Created with Pixso.
	</desc>
	<defs/>
	<path id="Vector" d="M7.5 18.1064L2.19666 12.8032C1.1478 11.7544 0.433502 10.418 0.144104 8.96338C-0.145264 7.5083 0.00326538 6.00049 0.570923 4.62988C1.13858 3.25928 2.09988 2.08789 3.33322 1.26416C4.56659 0.439941 6.01666 0 7.5 0C8.98337 0 10.4334 0.439941 11.6668 1.26416C12.9001 2.08789 13.8614 3.25928 14.4291 4.62988C14.9968 6.00049 15.1453 7.5083 14.8559 8.96338C14.5665 10.418 13.8522 11.7544 12.8033 12.8032L7.5 18.1064ZM11.625 11.625C12.4408 10.8091 12.9963 9.76953 13.2213 8.63818C13.4463 7.50684 13.3308 6.33398 12.8893 5.26807C12.4477 4.20215 11.7 3.29102 10.7408 2.6499C9.78149 2.00928 8.65372 1.66699 7.5 1.66699C6.34631 1.66699 5.21851 2.00928 4.25925 2.6499C3.29996 3.29102 2.55231 4.20215 2.11075 5.26807C1.66922 6.33398 1.55368 7.50684 1.77872 8.63818C2.00375 9.76953 2.55927 10.8091 3.375 11.625L7.5 15.75L11.625 11.625ZM7.5 9.1665C7.05798 9.1665 6.63406 8.99121 6.3215 8.67822C6.00894 8.36572 5.83334 7.94189 5.83334 7.5C5.83334 7.05811 6.00894 6.63379 6.3215 6.32129C6.63406 6.00879 7.05798 5.8335 7.5 5.8335C7.94202 5.8335 8.36597 6.00879 8.67853 6.32129C8.99109 6.63379 9.16666 7.05811 9.16666 7.5C9.16666 7.94189 8.99109 8.36572 8.67853 8.67822C8.36597 8.99121 7.94202 9.1665 7.5 9.1665Z" fill="#BDBDC0" fill-opacity="1.000000" fill-rule="nonzero"/>
</svg>
