<svg width="39" height="24" fill="none" xmlns="http://www.w3.org/2000/svg"><path d="M13.768 2.88h11.246v18.238H13.768V2.88Z" fill="#D6D6D6"/><path d="M14.927 12a11.549 11.549 0 0 1 4.46-9.115c-4.79-3.737-11.666-3.193-15.8 1.25a11.537 11.537 0 0 0 0 15.736c4.134 4.443 11.01 4.988 15.8 1.25a11.549 11.549 0 0 1-4.46-9.12Z" fill="#B2B2B2"/><path d="M38.289 12c0 4.44-2.554 8.492-6.577 10.433a11.75 11.75 0 0 1-12.323-1.315A11.567 11.567 0 0 0 23.85 12c0-3.56-1.645-6.92-4.463-9.12a11.75 11.75 0 0 1 12.324-1.313c4.023 1.94 6.577 5.99 6.577 10.43V12Z" fill="#E2E2E2"/></svg>