<svg width="24" height="24" fill="none" xmlns="http://www.w3.org/2000/svg"><path fill-rule="evenodd" clip-rule="evenodd" d="M22.713 17.434V15.69h-.42v1.012a.734.734 0 0 0-.607-.283 1.011 1.011 0 0 0 0 2.022.734.734 0 0 0 .607-.283v.235h.42v-.96Zm-12.547-.968h.688v.378h-.684v.89c0 .194.077.324.279.324a.775.775 0 0 0 .368-.126l.12.36a.986.986 0 0 1-.524.15c-.498 0-.672-.267-.672-.716v-.88h-.392v-.378h.392v-.586h.425v.586-.002Zm-5.594 1.94v-1.214a.72.72 0 0 0-.76-.768.749.749 0 0 0-.68.343.71.71 0 0 0-.64-.343.64.64 0 0 0-.566.287v-.24h-.42v1.935h.424v-1.072a.453.453 0 0 1 .474-.514c.279 0 .42.182.42.51v1.076h.425v-1.072a.455.455 0 0 1 .473-.514c.288 0 .425.182.425.51v1.076h.425Zm16.68 3.988h-.385l.002-2.273h-.287v3.64h.303v-1.114h.386l1.01 1.114h.368l-1.153-1.255 1.132-1.122h-.364l-1.01 1.01h-.001Zm-8.675-.795a.918.918 0 0 0-.166.202l-.01-1.668h-.288v3.64h.288v-1.355a.762.762 0 0 1 .485-.732.849.849 0 0 1 .312-.056c.11-.003.22.015.323.052a.644.644 0 0 1 .39.398.975.975 0 0 1 .05.324v1.37h.29v-1.458a1.053 1.053 0 0 0-.072-.404.835.835 0 0 0-.52-.492 1.182 1.182 0 0 0-.88.04.894.894 0 0 0-.202.14v-.001Zm-2.638-1.415c.29 0 .577.067.838.196.12.06.234.138.335.228.1.089.186.19.257.304l-.257.17a1.34 1.34 0 0 0-.815-.56 1.57 1.57 0 0 0-.947.068 1.4 1.4 0 0 0-.788.785 1.71 1.71 0 0 0 0 1.233 1.396 1.396 0 0 0 .789.785 1.578 1.578 0 0 0 .944.069 1.37 1.37 0 0 0 .607-.308c.084-.074.156-.16.216-.252l.253.184c-.073.11-.161.21-.26.297-.21.179-.458.305-.726.368a1.975 1.975 0 0 1-1.155-.085 1.736 1.736 0 0 1-.575-.372 1.71 1.71 0 0 1-.38-.572 2.01 2.01 0 0 1 0-1.463 1.72 1.72 0 0 1 .38-.572c.165-.16.36-.287.575-.372.225-.09.466-.133.709-.131Zm0 0H9.93h.008Zm-5.7.04c.27-.004.54.038.798.123.225.075.43.195.607.354.167.156.297.347.382.558.178.474.178.996 0 1.469a1.547 1.547 0 0 1-.382.558c-.176.159-.382.28-.607.354a2.4 2.4 0 0 1-.797.123H2.948v-3.54H4.24Zm-2.661 3.54h.31v-3.54h-.31v3.54Zm21.439-.12h-.045v.12h-.022v-.12h-.045v-.022h.114l-.002.022Zm.174.12h-.023v-.116l-.04.1h-.024l-.04-.1v.115h-.023v-.141h.034l.04.1.04-.1h.036v.142ZM3.256 23.47v-2.953l.985.004a2.08 2.08 0 0 1 .682.103c.185.063.355.164.497.298.136.13.24.29.306.467.137.393.137.82 0 1.213a1.24 1.24 0 0 1-.306.466 1.382 1.382 0 0 1-.497.297c-.22.074-.452.11-.684.105h-.983Zm12.883-2.117a1.051 1.051 0 0 1 .793.34c.102.11.182.242.235.384.059.156.089.322.089.489v.119h-1.994a1 1 0 0 0 .093.368.851.851 0 0 0 .487.445 1.074 1.074 0 0 0 .789-.032 1.26 1.26 0 0 0 .356-.25l.153.203a1.248 1.248 0 0 1-.72.374 1.81 1.81 0 0 1-.254.019 1.256 1.256 0 0 1-.48-.09 1.117 1.117 0 0 1-.625-.636 1.349 1.349 0 0 1-.09-.498 1.33 1.33 0 0 1 .33-.89 1.188 1.188 0 0 1 .846-.352l-.008.007Zm-.331.317a.869.869 0 0 1 .636-.004c.097.04.184.097.259.17a.849.849 0 0 1 .178.263c.047.107.075.22.083.338h-1.7a1.02 1.02 0 0 1 .093-.334.835.835 0 0 1 .45-.433Zm3.21-.317c.17-.002.337.03.493.095.148.06.28.155.386.275l-.186.202a.94.94 0 0 0-.698-.293.892.892 0 0 0-.653.275.913.913 0 0 0-.202.303 1.09 1.09 0 0 0 0 .767.908.908 0 0 0 .847.572.936.936 0 0 0 .39-.081c.117-.052.224-.125.316-.214l.18.202c-.107.12-.24.213-.386.275a1.25 1.25 0 0 1-.49.095 1.263 1.263 0 0 1-.491-.093 1.148 1.148 0 0 1-.637-.645 1.365 1.365 0 0 1 0-.975c.114-.294.344-.528.637-.647.156-.074.326-.114.5-.12l-.005.007Zm-4.578-4.935a.57.57 0 0 0-.51.283v-.235h-.416V18.4h.42v-1.084c0-.32.138-.498.405-.498.09-.001.18.015.263.049l.13-.405a.902.902 0 0 0-.3-.053l.008.009Zm-6.213 0c.277-.01.55.06.79.202l-.187.34a1.248 1.248 0 0 0-.607-.166c-.23 0-.368.097-.368.226 0 .13.146.166.328.19l.202.029c.42.06.676.21.676.578s-.324.63-.882.63a1.395 1.395 0 0 1-.838-.25l.203-.327c.185.137.412.209.643.202.287 0 .44-.085.44-.235 0-.11-.108-.17-.34-.202l-.201-.028c-.433-.06-.668-.255-.668-.57 0-.385.32-.62.81-.62h-.001Zm12.056 0a.57.57 0 0 0-.51.283v-.235h-.416V18.4h.42v-1.084c0-.32.138-.498.405-.498.09-.001.18.015.263.049l.13-.405a.905.905 0 0 0-.3-.053l.008.009Zm-5.127 1.745a.978.978 0 0 1-.292-.733v-.008a.977.977 0 0 1 1.032-1.012c.252-.012.5.07.695.23l-.202.34a.85.85 0 0 0-.506-.173.62.62 0 0 0 0 1.238.848.848 0 0 0 .506-.174l.202.34a1.01 1.01 0 0 1-.695.23.976.976 0 0 1-.74-.278Zm3.648-.733v-.967h-.42v.235a.735.735 0 0 0-.608-.283 1.011 1.011 0 0 0 0 2.022.734.734 0 0 0 .607-.283v.235h.42v-.96Zm-.96-.55a.585.585 0 1 0-.044 1.17.585.585 0 0 0 .044-1.17Zm-5.682-.461a1.013 1.013 0 0 0-.691 1.736 1.01 1.01 0 0 0 .719.286c.289.01.57-.086.793-.27l-.202-.312a.92.92 0 0 1-.562.202.536.536 0 0 1-.58-.473h1.439v-.162c0-.607-.376-1.011-.918-1.011l.002.004Zm.342.509a.48.48 0 0 0-.342-.133h-.008a.498.498 0 0 0-.514.469h1.01a.48.48 0 0 0-.146-.336Zm9.25-.044a.587.587 0 0 0-.468.99.584.584 0 1 0 .467-.99Zm-14.81.55v-.967h-.42v.235a.734.734 0 0 0-.607-.283 1.011 1.011 0 0 0 0 2.022.734.734 0 0 0 .606-.283v.235h.42v-.96Zm-.96-.55a.586.586 0 0 0-.468.99.583.583 0 0 0 1.004-.385.585.585 0 0 0-.536-.605Zm17.43 1.235c.051 0 .101.02.139.055a.188.188 0 0 1-.063.31.19.19 0 0 1-.185-.014.202.202 0 0 1-.074-.085.19.19 0 0 1 .182-.265v-.001Zm.058.33a.143.143 0 0 1-.06.012v.002a.149.149 0 0 1-.058-.014.149.149 0 0 1-.048-.032.15.15 0 0 1 0-.202.15.15 0 0 1 .164-.033.158.158 0 0 1 .048.033.15.15 0 0 1 0 .202.152.152 0 0 1-.046.032Zm-.047-.228a.081.081 0 0 1 .053.016.05.05 0 0 1 .018.042.047.047 0 0 1-.014.037.07.07 0 0 1-.043.018l.059.067h-.047l-.054-.067h-.018v.067h-.04v-.178l.086-.002Zm-.044.083v-.05l.044.013a.043.043 0 0 1 .025 0 .02.02 0 0 1 0 .018.02.02 0 0 1 0 .019.043.043 0 0 1-.025 0h-.044Z" fill="#B2B2B2"/><path d="M8.882 1.734h6.37v11.449h-6.37V1.733Z" fill="#D6D6D6"/><path d="M9.286 7.459a7.27 7.27 0 0 1 2.78-5.725 7.28 7.28 0 1 0 0 11.449 7.268 7.268 0 0 1-2.78-5.724Z" fill="#B2B2B2"/><path d="M23.848 7.459a7.28 7.28 0 0 1-11.781 5.724 7.28 7.28 0 0 0 0-11.45 7.28 7.28 0 0 1 11.78 5.724v.002Z" fill="#E2E2E2"/></svg>