<svg width="39" height="24" viewBox="0 0 39 24" fill="none" xmlns="http://www.w3.org/2000/svg">
<g id="Master">
<path id="Vector" d="M13.7678 2.88086H25.0138V21.1179H13.7678V2.88086Z" fill="#D6D6D6"/>
<path id="Vector_2" d="M14.9269 12.0006C14.9272 10.2417 15.3292 8.50613 16.1023 6.92627C16.8754 5.34641 17.9992 3.96402 19.3879 2.8846C14.5979 -0.852403 7.72093 -0.308403 3.58793 4.1346C1.59628 6.27048 0.488754 9.08221 0.488754 12.0026C0.488754 14.923 1.59628 17.7347 3.58793 19.8706C7.72093 24.3136 14.5979 24.8586 19.3879 21.1206C17.9987 20.0408 16.8746 18.6577 16.1014 17.0771C15.3283 15.4965 14.9266 13.7602 14.9269 12.0006Z" fill="#B2B2B2"/>
<path id="Vector_3" d="M38.2889 12.0006C38.2889 16.4406 35.7349 20.4916 31.7119 22.4326C29.7394 23.3835 27.5404 23.7642 25.363 23.5319C23.1856 23.2995 21.1164 22.4633 19.3889 21.1176C20.7769 20.0372 21.9002 18.6545 22.6734 17.0747C23.4466 15.4949 23.8493 13.7595 23.8509 12.0006C23.8509 8.44162 22.2059 5.08062 19.3879 2.88162C21.1156 1.5359 23.185 0.699775 25.3626 0.467597C27.5402 0.235418 29.7393 0.616422 31.7119 1.56762C35.7349 3.50762 38.2889 7.55762 38.2889 11.9986V12.0006Z" fill="#E2E2E2"/>
</g>
</svg>
