<svg width="50" height="50" fill="none" xmlns="http://www.w3.org/2000/svg"><g clip-path="url(#a)"><path d="M38.207 20.925 48.261 4.839H24.078L20.736 10.2l17.471 10.725Z" fill="url(#b)"/><path opacity=".15" d="m20.738 10.2 1.712-2.752 15.76 13.477L20.737 10.2Z" fill="#9D2A2A"/><path d="M43.525 50.088V25.906l-5.217-3.26-10.97 17.327 16.187 10.115Z" fill="url(#c)"/><path opacity=".15" d="m27.338 39.973 2.71 1.692 8.26-19.02-10.97 17.328Z" fill="#9D2A2A"/><path d="M4.575 0v24.182l5.596 3.26 28.032-6.52L4.575 0Z" fill="url(#d)"/><path d="M10.053 29.286 0 45.1h24.182l14.13-22.455-28.259 6.641Z" fill="url(#e)"/></g><defs><linearGradient id="b" x1="44.162" y1="13.812" x2="26.226" y2="2.133" gradientUnits="userSpaceOnUse"><stop stop-color="#80C3E6"/><stop offset="1" stop-color="#3380C2"/></linearGradient><linearGradient id="c" x1="47.309" y1="40.784" x2="33.902" y2="31.93" gradientUnits="userSpaceOnUse"><stop stop-color="#F38649"/><stop offset=".185" stop-color="#F28147"/><stop offset=".409" stop-color="#EF7242"/><stop offset=".654" stop-color="#EA5A3A"/><stop offset=".911" stop-color="#E4382E"/><stop offset="1" stop-color="#E12A29"/></linearGradient><linearGradient id="d" x1="3.13" y1="21.87" x2="28.78" y2="5.842" gradientUnits="userSpaceOnUse"><stop stop-color="#42AB4A"/><stop offset="1" stop-color="#ADD155"/></linearGradient><linearGradient id="e" x1="8.731" y1="50.556" x2="29.58" y2="17.19" gradientUnits="userSpaceOnUse"><stop stop-color="#42AB4A"/><stop offset="1" stop-color="#ADD155"/></linearGradient><clipPath id="a"><path fill="#fff" d="M0 0h50v50H0z"/></clipPath></defs></svg>