<svg width="33" height="14" fill="none" xmlns="http://www.w3.org/2000/svg"><path d="M6.895 1.955C7.272 1.483 7.527.849 7.46.2c-.552.028-1.225.365-1.614.837-.35.405-.66 1.065-.58 1.686.62.054 1.24-.31 1.63-.77Zm.558.89c-.9-.054-1.664.51-2.093.51-.43 0-1.087-.483-1.798-.47-.926.014-1.785.538-2.254 1.372-.966 1.668-.255 4.142.684 5.5.456.673 1.006 1.413 1.73 1.387.685-.027.954-.444 1.786-.444.831 0 1.073.444 1.797.43.752-.013 1.221-.672 1.678-1.345.523-.766.737-1.506.75-1.547-.013-.013-1.448-.565-1.46-2.22-.015-1.384 1.126-2.043 1.18-2.084-.645-.954-1.65-1.062-2-1.09ZM15.281.97c1.954 0 3.315 1.349 3.315 3.314 0 1.97-1.389 3.328-3.364 3.328H13.07v3.447h-1.564V.97h3.776ZM13.07 6.298h1.793c1.361 0 2.136-.734 2.136-2.006 0-1.273-.775-2-2.129-2h-1.8v4.006Zm5.935 2.67c0-1.285.985-2.075 2.73-2.173l2.01-.12V6.11c0-.82-.552-1.308-1.473-1.308-.873 0-1.417.42-1.55 1.077h-1.423c.083-1.33 1.214-2.308 3.03-2.308 1.78 0 2.916.944 2.916 2.42v5.07H23.8V9.85h-.035c-.425.818-1.354 1.335-2.317 1.335-1.438 0-2.443-.895-2.443-2.217Zm4.74-.663v-.58l-1.808.112c-.9.063-1.41.46-1.41 1.09 0 .644.53 1.063 1.34 1.063 1.054 0 1.877-.727 1.877-1.685h.001Zm2.863 5.46v-1.223c.112.028.363.028.49.028.697 0 1.074-.293 1.304-1.048 0-.014.133-.448.133-.455l-2.652-7.363h1.633l1.856 5.986h.028l1.857-5.986h1.591l-2.75 7.74c-.628 1.784-1.354 2.357-2.875 2.357a6 6 0 0 1-.614-.035Z" fill="#B2B2B2"/></svg>