<svg width="49" height="38" fill="none" xmlns="http://www.w3.org/2000/svg"><path d="M4.412 33.911C1.622 30.948.125 27.625.125 22.238c0-9.48 6.654-17.975 16.331-22.176l2.419 3.732C9.842 8.68 8.077 15.02 7.372 19.018c1.455-.753 3.359-1.016 5.225-.842 4.886.452 8.737 4.463 8.737 9.449a9.479 9.479 0 0 1-9.48 9.48c-2.905 0-5.684-1.328-7.442-3.194Zm27.084 0c-2.79-2.963-4.288-6.286-4.288-11.673 0-9.48 6.655-17.975 16.332-22.176l2.418 3.732C36.926 8.68 35.16 15.02 34.456 19.018c1.454-.753 3.358-1.016 5.224-.842 4.886.452 8.737 4.463 8.737 9.449a9.479 9.479 0 0 1-9.479 9.48c-2.906 0-5.685-1.328-7.442-3.194Z" fill="#323232"/></svg>