<svg width="119" height="48" viewBox="0 0 119 48" fill="none" xmlns="http://www.w3.org/2000/svg">
<g id="rei 1" clip-path="url(#clip0_245_2509)">
<g id="Group" filter="url(#filter0_i_245_2509)">
<path id="Vector" fill-rule="evenodd" clip-rule="evenodd" d="M46.8504 10.6806C45.5459 9.4882 44.0913 8.41516 42.4939 7.48939C30.5693 0.578631 15.2014 4.49042 8.16878 16.2266C1.75014 26.9382 4.49329 40.4655 14.0873 48C5.7254 43.8007 0 35.2486 0 25.3813C0 11.3636 11.555 0 25.8088 0C34.4913 0 42.1723 4.21636 46.8504 10.6806Z" fill="#E71717"/>
</g>
<path id="Vector_2" d="M67.0898 27.9121C67.2341 27.9189 67.4231 27.9258 67.657 27.9326C67.8907 27.9394 68.121 27.9428 68.3478 27.9428C68.671 27.9428 68.9804 27.9394 69.276 27.9326C69.5715 27.9258 69.7812 27.9224 69.9051 27.9224C70.4619 27.9224 70.9225 28.0004 71.287 28.1565C71.6582 28.3125 71.9331 28.5263 72.1119 28.7977C72.2975 29.0624 72.3904 29.361 72.3904 29.6936C72.3904 29.8971 72.349 30.1144 72.2665 30.345C72.1841 30.5757 72.0398 30.7928 71.8334 30.9965C71.6341 31.2001 71.3591 31.3698 71.0085 31.5055C70.6579 31.6345 70.2145 31.6989 69.6781 31.6989H68.6881V31.4953H69.5751C70.0633 31.4953 70.4345 31.4207 70.6888 31.2714C70.95 31.1154 71.1253 30.9117 71.2146 30.6607C71.311 30.4028 71.3591 30.1177 71.3591 29.8055C71.3591 29.2694 71.2285 28.8555 70.9673 28.5636C70.7128 28.2651 70.2728 28.1157 69.6472 28.1157C69.3309 28.1157 69.1247 28.1735 69.0284 28.2889C68.9323 28.4041 68.8841 28.6384 68.8841 28.9912V34.04C68.8841 34.2845 68.9047 34.4676 68.946 34.5898C68.9872 34.712 69.0663 34.7935 69.1832 34.8341C69.3069 34.8749 69.4857 34.902 69.7194 34.9155V35.1191C69.5612 35.1056 69.362 35.0988 69.1214 35.0988C68.8875 35.092 68.6504 35.0887 68.4098 35.0887C68.1416 35.0887 67.8907 35.092 67.657 35.0988C67.4231 35.0988 67.2341 35.1056 67.0898 35.1191V34.9155C67.3234 34.902 67.4988 34.8749 67.6156 34.8341C67.7395 34.7935 67.8219 34.712 67.8632 34.5898C67.9044 34.4676 67.925 34.2845 67.925 34.04V28.9912C67.925 28.7401 67.9044 28.557 67.8632 28.4416C67.8219 28.3194 67.7395 28.238 67.6156 28.1972C67.4988 28.1497 67.3234 28.1226 67.0898 28.1157V27.9121ZM68.7295 31.5258C69.1008 31.5394 69.3929 31.5564 69.606 31.5767C69.8191 31.5904 69.9909 31.6039 70.1215 31.6175C70.2591 31.631 70.3897 31.648 70.5134 31.6683C70.974 31.7431 71.304 31.8821 71.5034 32.0857C71.7098 32.2825 71.861 32.5914 71.9571 33.0121L72.215 34.0504C72.2838 34.3489 72.3526 34.566 72.4213 34.7017C72.4969 34.8308 72.6104 34.8919 72.7616 34.885C72.8784 34.8782 72.9747 34.8409 73.0502 34.773C73.1329 34.7052 73.2187 34.6136 73.3081 34.4983L73.4629 34.6101C73.3184 34.8206 73.1672 34.9834 73.009 35.0988C72.8578 35.2074 72.6413 35.2616 72.3593 35.2616C72.105 35.2616 71.8816 35.1871 71.6891 35.0377C71.4965 34.8884 71.3522 34.5967 71.2559 34.1623L71.0291 33.1443C70.9673 32.8526 70.8949 32.6015 70.8125 32.3911C70.737 32.174 70.627 32.0043 70.4825 31.8821C70.3451 31.76 70.1388 31.6989 69.8639 31.6989H68.7501L68.7295 31.5258Z" fill="white"/>
<path id="Vector_3" d="M76.1486 29.7344C76.7535 29.7344 77.2244 29.9177 77.5614 30.2842C77.9051 30.6438 78.0769 31.2071 78.0769 31.9738H74.4367L74.4264 31.7805H77.0871C77.1008 31.448 77.0732 31.1426 77.0044 30.8642C76.9357 30.5794 76.8257 30.3519 76.6744 30.1823C76.5301 30.0126 76.341 29.9279 76.1073 29.9279C75.791 29.9279 75.5092 30.0839 75.2618 30.396C75.0212 30.7082 74.8767 31.2035 74.8285 31.8822L74.8594 31.923C74.8458 32.0247 74.8355 32.1368 74.8285 32.2588C74.8218 32.381 74.8182 32.5032 74.8182 32.6253C74.8182 33.0868 74.8939 33.4837 75.0452 33.8162C75.1964 34.1489 75.3924 34.4033 75.633 34.5798C75.8804 34.7495 76.1349 34.8342 76.3961 34.8342C76.6023 34.8342 76.7983 34.8037 76.9838 34.7426C77.1695 34.6747 77.3414 34.5661 77.4996 34.417C77.6575 34.2676 77.7951 34.0673 77.912 33.8162L78.1182 33.8978C78.0426 34.1218 77.9188 34.3389 77.7469 34.5491C77.5751 34.7596 77.3586 34.9326 77.0974 35.0683C76.8362 35.1973 76.5335 35.2618 76.1898 35.2618C75.6949 35.2618 75.2685 35.1497 74.9112 34.9258C74.5605 34.7018 74.289 34.3931 74.0963 33.9995C73.9108 33.5991 73.8181 33.1411 73.8181 32.6253C73.8181 32.0282 73.9142 31.5157 74.1066 31.0882C74.2993 30.6539 74.5708 30.3215 74.9215 30.0907C75.2721 29.8531 75.681 29.7344 76.1486 29.7344Z" fill="white"/>
<path id="Vector_4" d="M80.3237 35.1905C80.0418 35.1905 79.7977 35.1395 79.5915 35.0378C79.3852 34.9293 79.227 34.7799 79.117 34.5899C79.0139 34.4 78.9624 34.1794 78.9624 33.9283C78.9624 33.6298 79.0312 33.3853 79.1687 33.1954C79.313 33.0054 79.4952 32.8527 79.7152 32.7373C79.9352 32.6219 80.1655 32.5269 80.4061 32.4523C80.6537 32.3709 80.8874 32.2963 81.1074 32.2283C81.3274 32.1538 81.5062 32.0688 81.6436 31.9738C81.788 31.8789 81.8602 31.7533 81.8602 31.5971V30.9661C81.8602 30.6811 81.8154 30.464 81.7262 30.3146C81.6436 30.1653 81.5302 30.0669 81.3859 30.0194C81.2414 29.9651 81.0799 29.938 80.9011 29.938C80.7292 29.938 80.5437 29.9618 80.3443 30.0093C80.1518 30.0567 79.997 30.1551 79.8801 30.3045C80.0107 30.3316 80.1243 30.3994 80.2204 30.5081C80.3168 30.6167 80.3649 30.7557 80.3649 30.9253C80.3649 31.095 80.3098 31.2307 80.1998 31.3326C80.0898 31.4275 79.9489 31.4751 79.777 31.4751C79.5776 31.4751 79.43 31.414 79.3336 31.2918C79.2443 31.1629 79.1997 31.0204 79.1997 30.8642C79.1997 30.6879 79.2443 30.5454 79.3336 30.4368C79.423 30.3283 79.5364 30.2264 79.674 30.1315C79.8321 30.0227 80.0349 29.9312 80.2825 29.8566C80.5368 29.7752 80.822 29.7344 81.1383 29.7344C81.4202 29.7344 81.6608 29.7683 81.8602 29.8363C82.0596 29.8972 82.2245 29.989 82.3551 30.111C82.5339 30.2738 82.6508 30.4741 82.7057 30.7115C82.7608 30.9423 82.7882 31.2205 82.7882 31.5464V34.3762C82.7882 34.5458 82.8124 34.668 82.8605 34.7426C82.9155 34.8172 82.9979 34.8545 83.1079 34.8545C83.1836 34.8545 83.2558 34.8377 83.3246 34.8037C83.3933 34.7698 83.4758 34.7155 83.5721 34.6409L83.6855 34.8139C83.5412 34.9224 83.4036 35.014 83.273 35.0888C83.1424 35.1565 82.967 35.1905 82.747 35.1905C82.5476 35.1905 82.3827 35.1565 82.252 35.0888C82.1214 35.0208 82.0217 34.9224 81.953 34.7936C81.8911 34.6577 81.8602 34.4882 81.8602 34.2846C81.6745 34.5899 81.4511 34.8172 81.1899 34.9666C80.9356 35.1159 80.6468 35.1905 80.3237 35.1905ZM80.6949 34.7834C80.9217 34.7834 81.1314 34.7188 81.3238 34.5899C81.5232 34.4609 81.702 34.2676 81.8602 34.0097V32.0146C81.7777 32.1299 81.6574 32.2283 81.4993 32.3098C81.3411 32.3843 81.1692 32.4624 80.9837 32.5439C80.798 32.6186 80.6192 32.7102 80.4474 32.8187C80.2825 32.9205 80.1449 33.0562 80.0349 33.2258C79.9249 33.3955 79.8698 33.6161 79.8698 33.8875C79.8698 34.1591 79.9421 34.3762 80.0864 34.539C80.2377 34.7018 80.4404 34.7834 80.6949 34.7834Z" fill="white"/>
<path id="Vector_5" d="M85.635 27.1387V34.1725C85.635 34.4576 85.6935 34.651 85.8102 34.7528C85.9341 34.8545 86.1369 34.9054 86.4187 34.9054V35.1192C86.3018 35.1124 86.1232 35.1057 85.8826 35.0989C85.6487 35.0853 85.4116 35.0786 85.171 35.0786C84.9371 35.0786 84.7001 35.0853 84.4594 35.0989C84.2188 35.1057 84.04 35.1124 83.9231 35.1192V34.9054C84.2049 34.9054 84.4043 34.8545 84.5213 34.7528C84.645 34.651 84.7068 34.4576 84.7068 34.1725V28.3603C84.7068 28.0547 84.6519 27.8308 84.5419 27.6883C84.4319 27.5391 84.2256 27.4643 83.9231 27.4643V27.2507C84.1431 27.271 84.3562 27.2812 84.5625 27.2812C84.7619 27.2812 84.951 27.271 85.1296 27.2507C85.3153 27.2234 85.4838 27.1861 85.635 27.1387Z" fill="white"/>
<path id="Vector_6" d="M94.7941 27.9121C94.7665 28.1497 94.7459 28.3805 94.732 28.6044C94.7253 28.8284 94.7217 28.998 94.7217 29.1134C94.7217 29.2354 94.7253 29.3543 94.732 29.4697C94.739 29.5783 94.7459 29.6698 94.7528 29.7444H94.5156C94.4744 29.3442 94.4159 29.0285 94.3402 28.7977C94.2646 28.5603 94.134 28.394 93.9483 28.2991C93.7695 28.1972 93.498 28.1464 93.1337 28.1464H92.2778C92.0439 28.1464 91.8653 28.1667 91.7415 28.2073C91.6247 28.2413 91.5456 28.3194 91.5044 28.4416C91.463 28.557 91.4424 28.7401 91.4424 28.9912V34.04C91.4424 34.2845 91.463 34.4676 91.5044 34.5898C91.5456 34.712 91.6247 34.7935 91.7415 34.8341C91.8653 34.868 92.0439 34.885 92.2778 34.885H93.0306C93.4637 34.885 93.7903 34.8272 94.0102 34.712C94.2371 34.5967 94.3986 34.41 94.495 34.1521C94.598 33.8874 94.6737 33.5312 94.7217 33.0834H94.959C94.9384 33.2665 94.9281 33.5108 94.9281 33.8161C94.9281 33.9452 94.9314 34.1318 94.9384 34.376C94.952 34.6136 94.9727 34.8612 95.0002 35.1191C94.6496 35.1056 94.2543 35.0988 93.8143 35.0988C93.3743 35.092 92.9824 35.0887 92.6388 35.0887C92.4875 35.0887 92.2915 35.0887 92.0509 35.0887C91.8172 35.0887 91.5627 35.092 91.2878 35.0988C91.0129 35.0988 90.7344 35.1021 90.4525 35.109C90.1707 35.109 89.9025 35.1123 89.648 35.1191V34.9155C89.8819 34.902 90.0571 34.8749 90.174 34.8341C90.2977 34.7935 90.3802 34.712 90.4216 34.5898C90.4628 34.4676 90.4834 34.2845 90.4834 34.04V28.9912C90.4834 28.7401 90.4628 28.557 90.4216 28.4416C90.3802 28.3194 90.2977 28.238 90.174 28.1972C90.0571 28.1497 89.8819 28.1226 89.648 28.1157V27.9121C89.9025 27.9189 90.1707 27.9258 90.4525 27.9326C90.7344 27.9326 91.0129 27.9359 91.2878 27.9428C91.5627 27.9428 91.8172 27.9428 92.0509 27.9428C92.2915 27.9428 92.4875 27.9428 92.6388 27.9428C92.9549 27.9428 93.3125 27.9428 93.7113 27.9428C94.1168 27.9359 94.4777 27.9258 94.7941 27.9121ZM93.0203 31.3936C93.0203 31.3936 93.0203 31.4274 93.0203 31.4953C93.0203 31.5632 93.0203 31.597 93.0203 31.597H91.1332C91.1332 31.597 91.1332 31.5632 91.1332 31.4953C91.1332 31.4274 91.1332 31.3936 91.1332 31.3936H93.0203ZM93.3194 30.0498C93.2918 30.4367 93.278 30.7319 93.278 30.9354C93.2849 31.139 93.2883 31.3256 93.2883 31.4953C93.2883 31.665 93.2918 31.8516 93.2988 32.0552C93.3055 32.2587 93.3228 32.5539 93.3503 32.9408H93.1131C93.0855 32.7236 93.0512 32.5133 93.01 32.3096C92.9755 32.0994 92.8931 31.9297 92.7624 31.8007C92.6388 31.665 92.4255 31.597 92.123 31.597V31.3936C92.35 31.3936 92.5218 31.3495 92.6388 31.2612C92.7624 31.1661 92.8518 31.0474 92.9067 30.9049C92.9618 30.7624 92.9997 30.6165 93.0203 30.4672C93.0409 30.3112 93.0615 30.172 93.0821 30.0498H93.3194Z" fill="white"/>
<path id="Vector_7" d="M97.6441 29.7344C97.919 29.7344 98.1529 29.7785 98.3453 29.8667C98.5378 29.955 98.6787 30.0364 98.7681 30.111C98.9951 30.2943 99.1324 30.1721 99.1806 29.7445H99.4179C99.4042 29.9347 99.3939 30.1619 99.3869 30.4267C99.38 30.6844 99.3766 31.0339 99.3766 31.4751H99.1394C99.0981 31.224 99.026 30.9796 98.9229 30.7422C98.8266 30.5046 98.6823 30.3113 98.4897 30.1619C98.2972 30.0058 98.0463 29.9279 97.7369 29.9279C97.4962 29.9279 97.2935 29.9956 97.1286 30.1315C96.9704 30.2603 96.8913 30.4538 96.8913 30.7115C96.8913 30.9152 96.9531 31.0917 97.077 31.241C97.2007 31.3834 97.3622 31.5192 97.5616 31.6481C97.761 31.7703 97.9775 31.906 98.2113 32.0554C98.4726 32.2182 98.7097 32.3843 98.9229 32.554C99.136 32.7237 99.3045 32.9103 99.4282 33.1139C99.5588 33.3176 99.6242 33.5585 99.6242 33.8367C99.6242 34.1489 99.5415 34.4101 99.3766 34.6204C99.2115 34.8309 98.9951 34.9904 98.7269 35.0989C98.4657 35.2075 98.1769 35.2618 97.8607 35.2618C97.7095 35.2618 97.565 35.2481 97.4275 35.221C97.2968 35.2007 97.1698 35.1667 97.0459 35.1192C96.9773 35.0853 96.905 35.0447 96.8295 34.997C96.7607 34.9496 96.6919 34.8986 96.6231 34.8443C96.5543 34.7901 96.4925 34.7936 96.4376 34.8545C96.3825 34.909 96.3413 35.0208 96.3137 35.1905H96.0767C96.0903 34.9734 96.1007 34.7087 96.1076 34.3965C96.1145 34.0843 96.1179 33.6704 96.1179 33.1546H96.3551C96.4031 33.5347 96.4719 33.8672 96.5613 34.1522C96.6507 34.4373 96.7916 34.6612 96.9841 34.824C97.1765 34.9802 97.4447 35.0581 97.7884 35.0581C97.9259 35.0581 98.0635 35.0277 98.201 34.9666C98.3453 34.9055 98.4657 34.8037 98.562 34.6612C98.6581 34.5187 98.7063 34.3287 98.7063 34.0911C98.7063 33.7926 98.5963 33.5482 98.3763 33.3582C98.1563 33.1682 97.8778 32.9681 97.541 32.7576C97.2935 32.6016 97.0598 32.4455 96.8398 32.2895C96.6267 32.1333 96.4513 31.957 96.3137 31.7602C96.1831 31.5634 96.1179 31.3258 96.1179 31.0475C96.1179 30.7422 96.1867 30.4944 96.324 30.3045C96.4685 30.1077 96.6576 29.9651 96.8913 29.8769C97.125 29.7818 97.3759 29.7344 97.6441 29.7344Z" fill="white"/>
<path id="Vector_8" d="M102.071 28.187V29.8869H103.597V30.0906H102.071V34.0299C102.071 34.3489 102.129 34.5729 102.246 34.7017C102.363 34.8308 102.525 34.8952 102.731 34.8952C102.937 34.8952 103.116 34.8138 103.267 34.651C103.418 34.4813 103.549 34.1996 103.659 33.806L103.865 33.8569C103.796 34.2505 103.659 34.583 103.453 34.8544C103.253 35.126 102.944 35.2617 102.525 35.2617C102.291 35.2617 102.098 35.2312 101.947 35.1701C101.796 35.1158 101.662 35.0344 101.545 34.9257C101.394 34.7697 101.287 34.583 101.225 34.3659C101.17 34.1488 101.143 33.8602 101.143 33.5006V30.0906H100.153V29.8869H101.143V28.3295C101.315 28.3227 101.48 28.3092 101.638 28.2889C101.796 28.2684 101.94 28.2346 102.071 28.187Z" fill="white"/>
<path id="Vector_9" d="M105.521 35.1905C105.239 35.1905 104.995 35.1395 104.788 35.0378C104.582 34.9293 104.424 34.7799 104.314 34.5899C104.211 34.4 104.159 34.1794 104.159 33.9283C104.159 33.6298 104.228 33.3853 104.365 33.1954C104.51 33.0054 104.692 32.8527 104.912 32.7373C105.132 32.6219 105.362 32.5269 105.603 32.4523C105.851 32.3709 106.084 32.2963 106.304 32.2283C106.524 32.1538 106.703 32.0688 106.84 31.9738C106.985 31.8789 107.057 31.7533 107.057 31.5971V30.9661C107.057 30.6811 107.012 30.464 106.923 30.3146C106.84 30.1653 106.727 30.0669 106.583 30.0194C106.438 29.9651 106.277 29.938 106.098 29.938C105.926 29.938 105.741 29.9618 105.541 30.0093C105.349 30.0567 105.194 30.1551 105.077 30.3045C105.208 30.3316 105.321 30.3994 105.417 30.5081C105.514 30.6167 105.562 30.7557 105.562 30.9253C105.562 31.095 105.507 31.2307 105.397 31.3326C105.287 31.4275 105.146 31.4751 104.974 31.4751C104.775 31.4751 104.627 31.414 104.531 31.2918C104.441 31.1629 104.397 31.0204 104.397 30.8642C104.397 30.6879 104.441 30.5454 104.531 30.4368C104.62 30.3283 104.733 30.2264 104.871 30.1315C105.029 30.0227 105.232 29.9312 105.479 29.8566C105.734 29.7752 106.019 29.7344 106.335 29.7344C106.617 29.7344 106.858 29.7683 107.057 29.8363C107.256 29.8972 107.421 29.989 107.552 30.111C107.731 30.2738 107.848 30.4741 107.903 30.7115C107.958 30.9423 107.985 31.2205 107.985 31.5464V34.3762C107.985 34.5458 108.009 34.668 108.057 34.7426C108.112 34.8172 108.195 34.8545 108.305 34.8545C108.381 34.8545 108.453 34.8377 108.521 34.8037C108.59 34.7698 108.673 34.7155 108.769 34.6409L108.882 34.8139C108.738 34.9224 108.601 35.014 108.47 35.0888C108.339 35.1565 108.164 35.1905 107.944 35.1905C107.744 35.1905 107.58 35.1565 107.449 35.0888C107.318 35.0208 107.219 34.9224 107.15 34.7936C107.088 34.6577 107.057 34.4882 107.057 34.2846C106.871 34.5899 106.648 34.8172 106.387 34.9666C106.132 35.1159 105.844 35.1905 105.521 35.1905ZM105.892 34.7834C106.119 34.7834 106.328 34.7188 106.521 34.5899C106.72 34.4609 106.899 34.2676 107.057 34.0097V32.0146C106.975 32.1299 106.854 32.2283 106.696 32.3098C106.538 32.3843 106.366 32.4624 106.18 32.5439C105.995 32.6186 105.816 32.7102 105.644 32.8187C105.479 32.9205 105.342 33.0562 105.232 33.2258C105.122 33.3955 105.067 33.6161 105.067 33.8875C105.067 34.1591 105.139 34.3762 105.283 34.539C105.435 34.7018 105.637 34.7834 105.892 34.7834Z" fill="white"/>
<path id="Vector_10" d="M110.853 28.187V29.8869H112.379V30.0906H110.853V34.0299C110.853 34.3489 110.911 34.5729 111.028 34.7017C111.145 34.8308 111.306 34.8952 111.513 34.8952C111.719 34.8952 111.897 34.8138 112.049 34.651C112.2 34.4813 112.331 34.1996 112.441 33.806L112.647 33.8569C112.578 34.2505 112.441 34.583 112.234 34.8544C112.035 35.126 111.726 35.2617 111.306 35.2617C111.073 35.2617 110.88 35.2312 110.729 35.1701C110.577 35.1158 110.443 35.0344 110.326 34.9257C110.175 34.7697 110.069 34.583 110.007 34.3659C109.952 34.1488 109.924 33.8602 109.924 33.5006V30.0906H108.934V29.8869H109.924V28.3295C110.096 28.3227 110.261 28.3092 110.419 28.2889C110.577 28.2684 110.722 28.2346 110.853 28.187Z" fill="white"/>
<path id="Vector_11" d="M115.344 29.7344C115.949 29.7344 116.42 29.9177 116.757 30.2842C117.1 30.6438 117.272 31.2071 117.272 31.9738H113.632L113.622 31.7805H116.282C116.296 31.448 116.268 31.1426 116.2 30.8642C116.131 30.5794 116.021 30.3519 115.87 30.1823C115.725 30.0126 115.536 29.9279 115.303 29.9279C114.986 29.9279 114.704 30.0839 114.457 30.396C114.216 30.7082 114.072 31.2035 114.024 31.8822L114.055 31.923C114.041 32.0247 114.031 32.1368 114.024 32.2588C114.017 32.381 114.013 32.5032 114.013 32.6253C114.013 33.0868 114.089 33.4837 114.24 33.8162C114.392 34.1489 114.587 34.4033 114.828 34.5798C115.076 34.7495 115.33 34.8342 115.591 34.8342C115.797 34.8342 115.993 34.8037 116.179 34.7426C116.365 34.6747 116.537 34.5661 116.695 34.417C116.853 34.2676 116.99 34.0673 117.107 33.8162L117.313 33.8978C117.238 34.1218 117.114 34.3389 116.942 34.5491C116.77 34.7596 116.554 34.9326 116.292 35.0683C116.031 35.1973 115.729 35.2618 115.385 35.2618C114.89 35.2618 114.464 35.1497 114.106 34.9258C113.756 34.7018 113.484 34.3931 113.292 33.9995C113.106 33.5991 113.013 33.1411 113.013 32.6253C113.013 32.0282 113.109 31.5157 113.302 31.0882C113.494 30.6539 113.766 30.3215 114.116 30.0907C114.467 29.8531 114.876 29.7344 115.344 29.7344Z" fill="white"/>
<path id="Vector_12" d="M18.7966 39.6924V39.9123C18.5417 39.9196 18.3468 39.949 18.2118 40.0003C18.0844 40.0443 17.9982 40.1321 17.9532 40.2641C17.9082 40.3888 17.8857 40.5867 17.8857 40.8579V46.3114C17.8857 46.5754 17.9082 46.7733 17.9532 46.9051C17.9982 47.0371 18.0844 47.125 18.2118 47.1691C18.3468 47.2131 18.5417 47.2424 18.7966 47.257V47.4769C18.6241 47.4623 18.4067 47.4549 18.1444 47.4549C17.8895 47.4475 17.6309 47.444 17.3685 47.444C17.0761 47.444 16.8025 47.4475 16.5476 47.4549C16.2927 47.4549 16.0866 47.4623 15.9291 47.4769V47.257C16.184 47.2424 16.3752 47.2131 16.5026 47.1691C16.6376 47.125 16.7275 47.0371 16.7725 46.9051C16.8175 46.7733 16.84 46.5754 16.84 46.3114V40.8579C16.84 40.5867 16.8175 40.3888 16.7725 40.2641C16.7275 40.1321 16.6376 40.0443 16.5026 40.0003C16.3752 39.949 16.184 39.9196 15.9291 39.9123V39.6924C16.0866 39.6998 16.2927 39.707 16.5476 39.7144C16.8025 39.7217 17.0761 39.7254 17.3685 39.7254C17.6309 39.7254 17.8895 39.7217 18.1444 39.7144C18.4067 39.707 18.6241 39.6998 18.7966 39.6924Z" fill="white"/>
<path id="Vector_13" d="M28.5443 41.6606C28.8291 41.6606 29.0652 41.6972 29.2526 41.7705C29.4475 41.8438 29.6089 41.9464 29.7363 42.0784C29.8787 42.225 29.9799 42.4083 30.0399 42.6282C30.0999 42.8481 30.1299 43.145 30.1299 43.5188V46.4544C30.1299 46.7623 30.1936 46.9713 30.321 47.0811C30.4559 47.1912 30.6771 47.2462 30.9844 47.2462V47.477C30.857 47.4696 30.6621 47.4624 30.3997 47.455C30.1374 47.4404 29.8825 47.433 29.6351 47.433C29.3876 47.433 29.1439 47.4404 28.9041 47.455C28.6717 47.4624 28.4955 47.4696 28.3756 47.477V47.2462C28.6455 47.2462 28.8366 47.1912 28.949 47.0811C29.0615 46.9713 29.1177 46.7623 29.1177 46.4544V43.277C29.1177 43.0497 29.099 42.8407 29.0615 42.6502C29.024 42.4595 28.9378 42.3057 28.8029 42.1883C28.6754 42.071 28.4768 42.0123 28.2069 42.0123C27.8921 42.0123 27.6147 42.1004 27.3749 42.2763C27.1425 42.4523 26.9588 42.6941 26.8239 43.0021C26.6965 43.3024 26.6328 43.6397 26.6328 44.0136V46.4544C26.6328 46.7623 26.689 46.9713 26.8014 47.0811C26.9139 47.1912 27.105 47.2462 27.3749 47.2462V47.477C27.2549 47.4696 27.075 47.4624 26.8352 47.455C26.6028 47.4404 26.3627 47.433 26.1153 47.433C25.868 47.433 25.6131 47.4404 25.3507 47.455C25.0884 47.4624 24.8935 47.4696 24.7661 47.477V47.2462C25.0734 47.2462 25.2908 47.1912 25.4182 47.0811C25.5531 46.9713 25.6206 46.7623 25.6206 46.4544V43.013C25.6206 42.683 25.5606 42.4412 25.4407 42.2872C25.3208 42.1261 25.0959 42.0454 24.7661 42.0454V41.8144C25.0059 41.8366 25.2383 41.8475 25.4632 41.8475C25.6806 41.8475 25.8867 41.8366 26.0816 41.8144C26.284 41.7853 26.4678 41.7448 26.6328 41.6935V42.991C26.8277 42.4925 27.0975 42.148 27.4423 41.9575C27.7947 41.7596 28.162 41.6606 28.5443 41.6606Z" fill="white"/>
<path id="Vector_14" d="M41.6882 41.8145V42.0345C41.5458 42.0491 41.4146 42.1113 41.2947 42.2213C41.1748 42.3314 41.0623 42.5256 40.9574 42.8042L39.1132 47.532C39.0832 47.532 39.0532 47.532 39.0232 47.532C38.9932 47.532 38.9595 47.532 38.922 47.532L36.8529 42.6611C36.733 42.3753 36.613 42.2031 36.4931 42.1444C36.3806 42.0785 36.2832 42.0454 36.2007 42.0454V41.8145C36.3507 41.8218 36.5043 41.8329 36.6618 41.8475C36.8267 41.8549 37.0028 41.8586 37.1902 41.8586C37.4228 41.8586 37.6664 41.8549 37.9213 41.8475C38.1836 41.8401 38.4273 41.8292 38.6521 41.8145V42.0454C38.4647 42.0454 38.2961 42.0602 38.1462 42.0893C38.0037 42.1113 37.91 42.1811 37.8651 42.2983C37.8276 42.4156 37.8651 42.6172 37.9775 42.9031L39.383 46.3006L39.3155 46.3554L40.5976 43.068C40.695 42.8261 40.7325 42.6354 40.71 42.4962C40.695 42.3497 40.62 42.2396 40.4851 42.1663C40.3577 42.093 40.1589 42.0491 39.889 42.0345V41.8145C40.0239 41.8218 40.1401 41.8292 40.2376 41.8366C40.3352 41.8366 40.4289 41.8401 40.5189 41.8475C40.6163 41.8475 40.7212 41.8475 40.8337 41.8475C41.0061 41.8475 41.1598 41.8438 41.2947 41.8366C41.4371 41.8292 41.5683 41.8218 41.6882 41.8145Z" fill="white"/>
<path id="Vector_15" d="M49.8572 41.6606C50.5169 41.6606 51.0304 41.8586 51.3977 42.2544C51.7725 42.6428 51.9599 43.2513 51.9599 44.0795H47.9905L47.9793 43.8707H50.8805C50.8954 43.5114 50.8655 43.1815 50.7905 42.881C50.7155 42.5732 50.5956 42.3277 50.4307 42.1443C50.2733 41.9612 50.0671 41.8694 49.8123 41.8694C49.4674 41.8694 49.1601 42.038 48.8901 42.3753C48.6277 42.7124 48.4703 43.2476 48.4178 43.9805L48.4515 44.0245C48.4366 44.1345 48.4253 44.2554 48.4178 44.3874C48.4103 44.5192 48.4066 44.6512 48.4066 44.7832C48.4066 45.2817 48.489 45.7104 48.6539 46.0696C48.8188 46.4287 49.0325 46.7036 49.295 46.8943C49.5649 47.0774 49.8422 47.1692 50.1271 47.1692C50.352 47.1692 50.5656 47.1362 50.768 47.0702C50.9704 46.997 51.1578 46.8795 51.3302 46.7184C51.5026 46.557 51.6525 46.3408 51.78 46.0696L52.0049 46.1575C51.9224 46.3995 51.7875 46.634 51.6001 46.8613C51.4127 47.0885 51.1765 47.2754 50.8917 47.4219C50.6068 47.5613 50.277 47.6309 49.9022 47.6309C49.3625 47.6309 48.8976 47.51 48.5078 47.2682C48.1255 47.0261 47.8294 46.6927 47.6195 46.2675C47.4171 45.835 47.3159 45.3402 47.3159 44.7832C47.3159 44.1382 47.4208 43.5847 47.6307 43.123C47.8406 42.6539 48.1367 42.2946 48.519 42.0454C48.9013 41.7888 49.3475 41.6606 49.8572 41.6606Z" fill="white"/>
<path id="Vector_16" d="M59.9985 41.6606C60.2983 41.6606 60.5532 41.7083 60.7631 41.8035C60.973 41.8988 61.1266 41.9869 61.2241 42.0674C61.4715 42.2653 61.6214 42.1334 61.6738 41.6715H61.9325C61.9175 41.8768 61.9062 42.1224 61.8987 42.4083C61.8912 42.6867 61.8875 43.0643 61.8875 43.5408H61.6289C61.5839 43.2696 61.5052 43.0056 61.3927 42.7491C61.2878 42.4925 61.1304 42.2837 60.9205 42.1224C60.7106 41.9538 60.437 41.8694 60.0997 41.8694C59.8373 41.8694 59.6162 41.9427 59.4361 42.0893C59.2637 42.2287 59.1775 42.4375 59.1775 42.7161C59.1775 42.936 59.2449 43.1267 59.3799 43.2878C59.5148 43.4418 59.6911 43.5884 59.9085 43.7276C60.1259 43.8596 60.362 44.0062 60.6169 44.1675C60.9017 44.3435 61.1604 44.5229 61.3927 44.7062C61.6251 44.8896 61.8088 45.091 61.9437 45.311C62.0861 45.5309 62.1573 45.791 62.1573 46.0916C62.1573 46.4287 62.0674 46.711 61.8875 46.9382C61.7076 47.1655 61.4714 47.3378 61.1791 47.455C60.8943 47.5722 60.5794 47.6309 60.2346 47.6309C60.0697 47.6309 59.9123 47.6163 59.7623 47.587C59.6199 47.565 59.4811 47.5283 59.3461 47.477C59.2712 47.4404 59.1925 47.3963 59.11 47.3451C59.035 47.2938 58.9601 47.2388 58.8851 47.1801C58.8102 47.1216 58.7427 47.1251 58.6827 47.1912C58.6228 47.2497 58.5778 47.3706 58.5478 47.5539H58.2892C58.3042 47.3195 58.3154 47.0335 58.3229 46.6964C58.3304 46.3591 58.3342 45.912 58.3342 45.355H58.5928C58.6452 45.7654 58.7202 46.1246 58.8177 46.4324C58.9151 46.7403 59.0688 46.9822 59.2787 47.1581C59.4886 47.3267 59.7811 47.411 60.1559 47.411C60.3058 47.411 60.4557 47.378 60.6057 47.3121C60.7631 47.2462 60.8943 47.1362 60.9992 46.9822C61.1041 46.8282 61.1566 46.6231 61.1566 46.3665C61.1566 46.044 61.0367 45.7802 60.7968 45.5749C60.5569 45.3696 60.2533 45.1534 59.886 44.9261C59.6162 44.7576 59.3611 44.589 59.1212 44.4203C58.8889 44.2517 58.6977 44.0612 58.5478 43.8485C58.4054 43.636 58.3342 43.3794 58.3342 43.0789C58.3342 42.7491 58.4091 42.4816 58.559 42.2763C58.7165 42.0637 58.9226 41.9099 59.1775 41.8144C59.4323 41.712 59.7061 41.6606 59.9985 41.6606Z" fill="white"/>
<path id="Vector_17" d="M69.9981 39.9893V41.8254H71.6622V42.0453H69.9981V46.3005C69.9981 46.645 70.0618 46.8869 70.1892 47.0261C70.3166 47.1654 70.4928 47.235 70.7177 47.235C70.9426 47.235 71.1375 47.147 71.3024 46.9712C71.4673 46.7879 71.6097 46.4837 71.7296 46.0585L71.9547 46.1135C71.8796 46.5387 71.7296 46.8979 71.5048 47.1911C71.2874 47.4843 70.9501 47.6309 70.4928 47.6309C70.2379 47.6309 70.028 47.5978 69.8631 47.5319C69.6982 47.4732 69.552 47.3853 69.4246 47.2681C69.2597 47.0993 69.1435 46.8979 69.076 46.6633C69.0161 46.4286 68.9861 46.1172 68.9861 45.7288V42.0453H67.9065V41.8254H68.9861V40.1432C69.1735 40.1358 69.3534 40.1213 69.5258 40.0993C69.6982 40.0771 69.8556 40.0406 69.9981 39.9893Z" fill="white"/>
<path id="Vector_18" d="M81.0461 41.6606C81.3087 41.6606 81.5373 41.6972 81.7322 41.7705C81.9271 41.8438 82.0883 41.9464 82.2157 42.0784C82.3581 42.225 82.4556 42.4155 82.508 42.6502C82.5605 42.8846 82.5868 43.1743 82.5868 43.5188V46.4544C82.5868 46.7623 82.6505 46.9713 82.7779 47.0811C82.9128 47.1912 83.134 47.2462 83.4413 47.2462V47.477C83.3139 47.4696 83.119 47.4624 82.8566 47.455C82.5943 47.4404 82.3394 47.433 82.092 47.433C81.8446 47.433 81.601 47.4404 81.3611 47.455C81.1286 47.4624 80.9524 47.4696 80.8325 47.477V47.2462C81.1023 47.2462 81.2937 47.1912 81.4061 47.0811C81.5186 46.9713 81.5748 46.7623 81.5748 46.4544V43.277C81.5748 43.0497 81.5598 42.8407 81.5298 42.6502C81.4998 42.4595 81.4249 42.3057 81.3049 42.1883C81.185 42.071 80.9899 42.0123 80.72 42.0123C80.4277 42.0123 80.1653 42.1004 79.933 42.2763C79.7081 42.4523 79.5282 42.6941 79.3932 43.0021C79.2658 43.3024 79.2021 43.6397 79.2021 44.0136V46.4544C79.2021 46.7623 79.2583 46.9713 79.3708 47.0811C79.4832 47.1912 79.6743 47.2462 79.9442 47.2462V47.477C79.8243 47.4696 79.6444 47.4624 79.4045 47.455C79.1721 47.4404 78.9322 47.433 78.6849 47.433C78.4375 47.433 78.1826 47.4404 77.9201 47.455C77.6577 47.4624 77.4628 47.4696 77.3354 47.477V47.2462C77.6427 47.2462 77.8601 47.1912 77.9875 47.0811C78.1225 46.9713 78.1901 46.7623 78.1901 46.4544V43.013C78.1901 42.683 78.1302 42.4412 78.01 42.2872C77.8901 42.1261 77.6652 42.0454 77.3354 42.0454V41.8144C77.5753 41.8366 77.8076 41.8475 78.0325 41.8475C78.2501 41.8475 78.4562 41.8366 78.6511 41.8144C78.8535 41.7853 79.0372 41.7448 79.2021 41.6935V42.991C79.397 42.5145 79.6631 42.1737 80.0004 41.9684C80.3378 41.7633 80.6863 41.6606 81.0461 41.6606ZM84.431 41.6606C84.6933 41.6606 84.922 41.6972 85.1169 41.7705C85.3118 41.8438 85.4729 41.9464 85.6004 42.0784C85.7428 42.225 85.8402 42.4155 85.8927 42.6502C85.9452 42.8846 85.9714 43.1743 85.9714 43.5188V46.4544C85.9714 46.7623 86.0351 46.9713 86.1626 47.0811C86.2975 47.1912 86.5186 47.2462 86.826 47.2462V47.477C86.6985 47.4696 86.5036 47.4624 86.2413 47.455C85.9789 47.4404 85.724 47.433 85.4767 47.433C85.2293 47.433 84.9857 47.4404 84.7458 47.455C84.5134 47.4624 84.3373 47.4696 84.2173 47.477V47.2462C84.4872 47.2462 84.6783 47.1912 84.7908 47.0811C84.9032 46.9713 84.9594 46.7623 84.9594 46.4544V43.277C84.9594 43.0497 84.9445 42.8407 84.9145 42.6502C84.8845 42.4595 84.8095 42.3057 84.6896 42.1883C84.5697 42.071 84.3748 42.0123 84.1047 42.0123C83.8124 42.0123 83.55 42.1004 83.3176 42.2763C83.0927 42.4523 82.9128 42.6904 82.7779 42.991C82.6505 43.2915 82.5868 43.6286 82.5868 44.0025L82.553 42.9799C82.7554 42.4742 83.029 42.1298 83.3738 41.9464C83.7187 41.7559 84.071 41.6606 84.431 41.6606Z" fill="white"/>
<path id="Vector_19" d="M95.2225 41.6606C95.8822 41.6606 96.3956 41.8586 96.763 42.2544C97.1378 42.6428 97.3253 43.2513 97.3253 44.0795H93.3558L93.3446 43.8707H96.2457C96.2607 43.5114 96.2307 43.1815 96.1558 42.881C96.0808 42.5732 95.9609 42.3277 95.796 42.1443C95.6385 41.9612 95.4324 41.8694 95.1775 41.8694C94.8327 41.8694 94.5254 42.038 94.2555 42.3753C93.993 42.7124 93.8355 43.2476 93.7831 43.9805L93.8168 44.0245C93.8018 44.1345 93.7906 44.2554 93.7831 44.3874C93.7756 44.5192 93.7718 44.6512 93.7718 44.7832C93.7718 45.2817 93.8543 45.7104 94.0192 46.0696C94.1841 46.4287 94.3979 46.7036 94.6603 46.8943C94.9302 47.0774 95.2075 47.1692 95.4924 47.1692C95.7172 47.1692 95.9309 47.1362 96.1333 47.0702C96.3357 46.997 96.5231 46.8795 96.6955 46.7184C96.8679 46.557 97.0178 46.3408 97.1452 46.0696L97.3703 46.1575C97.2879 46.3995 97.1527 46.634 96.9653 46.8613C96.7779 47.0885 96.5418 47.2754 96.257 47.4219C95.9721 47.5613 95.6423 47.6309 95.2675 47.6309C94.7278 47.6309 94.2628 47.51 93.873 47.2682C93.4907 47.0261 93.1946 46.6927 92.9847 46.2675C92.7823 45.835 92.6812 45.3402 92.6812 44.7832C92.6812 44.1382 92.7861 43.5847 92.996 43.123C93.2059 42.6539 93.502 42.2946 93.8843 42.0454C94.2668 41.7888 94.7128 41.6606 95.2225 41.6606Z" fill="white"/>
<path id="Vector_20" d="M107.129 41.6606C107.414 41.6606 107.65 41.6972 107.838 41.7705C108.032 41.8438 108.194 41.9464 108.321 42.0784C108.464 42.225 108.565 42.4083 108.625 42.6282C108.685 42.8481 108.715 43.145 108.715 43.5188V46.4544C108.715 46.7623 108.778 46.9713 108.906 47.0811C109.041 47.1912 109.262 47.2462 109.569 47.2462V47.477C109.442 47.4696 109.247 47.4624 108.984 47.455C108.722 47.4404 108.467 47.433 108.22 47.433C107.973 47.433 107.729 47.4404 107.489 47.455C107.256 47.4624 107.08 47.4696 106.96 47.477V47.2462C107.23 47.2462 107.421 47.1912 107.534 47.0811C107.646 46.9713 107.702 46.7623 107.702 46.4544V43.277C107.702 43.0497 107.684 42.8407 107.646 42.6502C107.609 42.4595 107.523 42.3057 107.388 42.1883C107.26 42.071 107.062 42.0123 106.792 42.0123C106.477 42.0123 106.2 42.1004 105.96 42.2763C105.727 42.4523 105.544 42.6941 105.409 43.0021C105.281 43.3024 105.218 43.6397 105.218 44.0136V46.4544C105.218 46.7623 105.274 46.9713 105.386 47.0811C105.499 47.1912 105.69 47.2462 105.96 47.2462V47.477C105.84 47.4696 105.66 47.4624 105.42 47.455C105.188 47.4404 104.948 47.433 104.7 47.433C104.453 47.433 104.198 47.4404 103.936 47.455C103.673 47.4624 103.478 47.4696 103.351 47.477V47.2462C103.658 47.2462 103.876 47.1912 104.003 47.0811C104.138 46.9713 104.205 46.7623 104.205 46.4544V43.013C104.205 42.683 104.145 42.4412 104.025 42.2872C103.906 42.1261 103.681 42.0454 103.351 42.0454V41.8144C103.591 41.8366 103.823 41.8475 104.048 41.8475C104.265 41.8475 104.471 41.8366 104.666 41.8144C104.869 41.7853 105.053 41.7448 105.218 41.6935V42.991C105.412 42.4925 105.682 42.148 106.027 41.9575C106.379 41.7596 106.747 41.6606 107.129 41.6606Z" fill="white"/>
<path id="Vector_21" d="M117.043 39.9893V41.8254H118.708V42.0453H117.043V46.3005C117.043 46.645 117.107 46.8869 117.234 47.0261C117.362 47.1654 117.538 47.235 117.763 47.235C117.988 47.235 118.183 47.147 118.348 46.9712C118.513 46.7879 118.655 46.4837 118.775 46.0585L119 46.1135C118.925 46.5387 118.775 46.8979 118.55 47.1911C118.333 47.4843 117.995 47.6309 117.538 47.6309C117.283 47.6309 117.073 47.5978 116.908 47.5319C116.743 47.4732 116.597 47.3853 116.47 47.2681C116.305 47.0993 116.189 46.8979 116.121 46.6633C116.061 46.4286 116.031 46.1172 116.031 45.7288V42.0453H114.952V41.8254H116.031V40.1432C116.219 40.1358 116.399 40.1213 116.571 40.0993C116.743 40.0771 116.901 40.0406 117.043 39.9893Z" fill="white"/>
<path id="Vector_22" d="M16.3039 14.0308C16.7236 14.0505 17.2732 14.0703 17.9527 14.0901C18.6322 14.1099 19.3018 14.1197 19.9613 14.1197C20.9005 14.1197 21.7999 14.1099 22.6593 14.0901C23.5187 14.0703 24.1281 14.0604 24.4879 14.0604C26.1067 14.0604 27.4457 14.2878 28.5051 14.7426C29.5841 15.1974 30.3836 15.8203 30.9033 16.6113C31.4428 17.3825 31.7126 18.2525 31.7126 19.2214C31.7126 19.8148 31.5927 20.4474 31.3528 21.1198C31.1131 21.7922 30.6934 22.4249 30.0939 23.018C29.5142 23.6114 28.7148 24.1056 27.6955 24.5012C26.6764 24.8769 25.3873 25.0647 23.8285 25.0647H20.9505V24.4715H23.5286C24.9476 24.4715 26.0269 24.254 26.7662 23.8189C27.5257 23.3642 28.0353 22.771 28.2952 22.0392C28.575 21.2878 28.7148 20.4574 28.7148 19.5478C28.7148 17.9856 28.3351 16.7794 27.5758 15.9291C26.8363 15.059 25.5571 14.624 23.7385 14.624C22.8191 14.624 22.2196 14.7921 21.9398 15.1282C21.66 15.4644 21.5201 16.1466 21.5201 17.1749V31.8868C21.5201 32.5986 21.58 33.1325 21.7 33.4885C21.8199 33.8444 22.0497 34.0817 22.3894 34.2004C22.7492 34.3191 23.2689 34.3981 23.9484 34.4376V35.0309C23.4887 34.9913 22.9091 34.9715 22.2095 34.9715C21.5302 34.9517 20.8405 34.942 20.1412 34.942C19.3618 34.942 18.6322 34.9517 17.9527 34.9715C17.2732 34.9715 16.7236 34.9913 16.3039 35.0309V34.4376C16.9834 34.3981 17.4931 34.3191 17.8328 34.2004C18.1925 34.0817 18.4324 33.8444 18.5523 33.4885C18.6722 33.1325 18.7321 32.5986 18.7321 31.8868V17.1749C18.7321 16.4432 18.6722 15.9093 18.5523 15.5731C18.4324 15.2172 18.1925 14.9799 17.8328 14.8613C17.4931 14.7228 16.9834 14.6438 16.3039 14.624V14.0308ZM21.0705 24.5605C22.1497 24.6 22.999 24.6495 23.6186 24.7087C24.2381 24.7484 24.7377 24.7879 25.1174 24.8274C25.5171 24.8669 25.8968 24.9164 26.2566 24.9757C27.5956 25.1933 28.5549 25.5986 29.1346 26.1919C29.7341 26.7653 30.1737 27.665 30.4535 28.891L31.2031 31.9165C31.4029 32.7866 31.6026 33.4193 31.8026 33.8147C32.0224 34.1906 32.3522 34.3685 32.7919 34.3486C33.1316 34.3289 33.4114 34.2201 33.6313 34.0224C33.8711 33.8247 34.1209 33.5577 34.3807 33.2215L34.8304 33.5477C34.4107 34.1609 33.971 34.6353 33.5113 34.9715C33.0717 35.2879 32.4422 35.4461 31.6227 35.4461C30.8832 35.4461 30.2337 35.2287 29.6741 34.7935C29.1145 34.3586 28.6949 33.5082 28.4151 32.2427L27.7555 29.2767C27.5758 28.4263 27.3659 27.6947 27.126 27.0818C26.9062 26.4489 26.5865 25.9545 26.1667 25.5986C25.767 25.2426 25.1675 25.0647 24.368 25.0647H21.1305L21.0705 24.5605Z" fill="white"/>
<path id="Vector_23" d="M50.7019 14.0308C50.6219 14.7228 50.5621 15.3952 50.522 16.0477C50.5021 16.7003 50.492 17.1946 50.492 17.5308C50.492 17.8867 50.5021 18.2328 50.522 18.569C50.542 18.8852 50.5621 19.1522 50.5819 19.3698H49.8925C49.7726 18.2031 49.6028 17.2836 49.3829 16.6113C49.1629 15.9192 48.7833 15.4347 48.2437 15.1579C47.7241 14.8613 46.9347 14.713 45.8753 14.713H43.3872C42.7077 14.713 42.188 14.7723 41.8284 14.8909C41.4887 14.9898 41.2587 15.2172 41.139 15.5731C41.019 15.9093 40.9591 16.4432 40.9591 17.1749V31.8868C40.9591 32.5986 41.019 33.1325 41.139 33.4885C41.2587 33.8444 41.4887 34.0817 41.8284 34.2004C42.188 34.2993 42.7077 34.3486 43.3872 34.3486H45.5757C46.8347 34.3486 47.784 34.1806 48.4236 33.8444C49.0831 33.5082 49.5527 32.9645 49.8325 32.2132C50.1324 31.4418 50.3522 30.4037 50.492 29.0987H51.1816C51.1217 29.6326 51.0917 30.3445 51.0917 31.2343C51.0917 31.61 51.1016 32.1537 51.1217 32.8656C51.1616 33.5577 51.2215 34.2796 51.3014 35.0309C50.2823 34.9913 49.1329 34.9715 47.8539 34.9715C46.5749 34.9517 45.4357 34.942 44.4365 34.942C43.9968 34.942 43.4271 34.942 42.7278 34.942C42.0482 34.942 41.3087 34.9517 40.5093 34.9715C39.71 34.9715 38.9004 34.9815 38.0811 35.0012C37.2618 35.0012 36.4822 35.0112 35.7429 35.0309V34.4376C36.4223 34.3981 36.932 34.3191 37.2717 34.2004C37.6314 34.0817 37.8712 33.8444 37.9912 33.4885C38.1111 33.1325 38.1711 32.5986 38.1711 31.8868V17.1749C38.1711 16.4432 38.1111 15.9093 37.9912 15.5731C37.8712 15.2172 37.6314 14.9799 37.2717 14.8613C36.932 14.7228 36.4223 14.6438 35.7429 14.624V14.0308C36.4822 14.0505 37.2618 14.0703 38.0811 14.0901C38.9004 14.0901 39.71 14.1 40.5093 14.1197C41.3087 14.1197 42.0482 14.1197 42.7278 14.1197C43.4271 14.1197 43.9968 14.1197 44.4365 14.1197C45.3559 14.1197 46.395 14.1197 47.5543 14.1197C48.7334 14.1 49.7825 14.0703 50.7019 14.0308ZM45.5457 24.1748C45.5457 24.1748 45.5457 24.2738 45.5457 24.4715C45.5457 24.6692 45.5457 24.7682 45.5457 24.7682H40.0597C40.0597 24.7682 40.0597 24.6692 40.0597 24.4715C40.0597 24.2738 40.0597 24.1748 40.0597 24.1748H45.5457ZM46.4151 20.2597C46.335 21.3868 46.2951 22.2469 46.2951 22.8401C46.3152 23.4334 46.3251 23.9771 46.3251 24.4715C46.3251 24.9659 46.335 25.5096 46.3551 26.1029C46.3751 26.6961 46.425 27.5562 46.505 28.6833H45.8154C45.7355 28.0506 45.6357 27.4375 45.5157 26.8444C45.4158 26.2314 45.176 25.737 44.7963 25.3613C44.4365 24.9659 43.8169 24.7682 42.9376 24.7682V24.1748C43.5971 24.1748 44.0967 24.0463 44.4365 23.7893C44.7963 23.5124 45.056 23.1665 45.2159 22.7511C45.3757 22.3359 45.4857 21.9107 45.5457 21.4757C45.6057 21.0209 45.6656 20.6156 45.7256 20.2597H46.4151Z" fill="white"/>
<path id="Vector_24" d="M61.6551 14.0308V14.624C60.9756 14.6438 60.4559 14.7228 60.0963 14.8613C59.7565 14.9799 59.5266 15.2172 59.4067 15.5731C59.2869 15.9093 59.2269 16.4432 59.2269 17.1749V31.8868C59.2269 32.5986 59.2869 33.1325 59.4067 33.4885C59.5266 33.8444 59.7565 34.0817 60.0963 34.2004C60.4559 34.3191 60.9756 34.3981 61.6551 34.4376V35.0309C61.1954 34.9913 60.6158 34.9715 59.9164 34.9715C59.2369 34.9517 58.5474 34.942 57.8479 34.942C57.0684 34.942 56.3391 34.9517 55.6596 34.9715C54.98 34.9715 54.4304 34.9913 54.0106 35.0309V34.4376C54.6901 34.3981 55.1999 34.3191 55.5396 34.2004C55.8993 34.0817 56.1391 33.8444 56.2591 33.4885C56.379 33.1325 56.439 32.5986 56.439 31.8868V17.1749C56.439 16.4432 56.379 15.9093 56.2591 15.5731C56.1391 15.2172 55.8993 14.9799 55.5396 14.8613C55.1999 14.7228 54.6901 14.6438 54.0106 14.624V14.0308C54.4304 14.0505 54.98 14.0703 55.6596 14.0901C56.3391 14.1099 57.0684 14.1197 57.8479 14.1197C58.5474 14.1197 59.2369 14.1099 59.9164 14.0901C60.6158 14.0703 61.1954 14.0505 61.6551 14.0308Z" fill="white"/>
</g>
<defs>
<filter id="filter0_i_245_2509" x="-2" y="-2" width="48.8504" height="50" filterUnits="userSpaceOnUse" color-interpolation-filters="sRGB">
<feFlood flood-opacity="0" result="BackgroundImageFix"/>
<feBlend mode="normal" in="SourceGraphic" in2="BackgroundImageFix" result="shape"/>
<feColorMatrix in="SourceAlpha" type="matrix" values="0 0 0 0 0 0 0 0 0 0 0 0 0 0 0 0 0 0 127 0" result="hardAlpha"/>
<feOffset dx="-2" dy="-2"/>
<feGaussianBlur stdDeviation="7.5"/>
<feComposite in2="hardAlpha" operator="arithmetic" k2="-1" k3="1"/>
<feColorMatrix type="matrix" values="0 0 0 0 0 0 0 0 0 0 0 0 0 0 0 0 0 0 0.25 0"/>
<feBlend mode="normal" in2="shape" result="effect1_innerShadow_245_2509"/>
</filter>
<clipPath id="clip0_245_2509">
<rect width="119" height="48" fill="white"/>
</clipPath>
</defs>
</svg>
