<svg width="119" height="48" fill="none" xmlns="http://www.w3.org/2000/svg"><g clip-path="url(#a)"><g filter="url(#b)"><path fill-rule="evenodd" clip-rule="evenodd" d="M46.85 10.68a25.112 25.112 0 0 0-4.356-3.19C30.569.578 15.2 4.49 8.169 16.226 1.75 26.938 4.493 40.465 14.087 48 5.725 43.8 0 35.249 0 25.381 0 11.364 11.555 0 25.809 0 34.49 0 42.172 4.216 46.85 10.68Z" fill="#E71717"/></g><path d="M67.09 27.912a32.716 32.716 0 0 0 1.258.03c.323 0 .632-.003.928-.01.296-.006.505-.01.63-.01.556 0 1.016.078 1.381.235.371.155.646.37.825.64.186.265.278.564.278.897 0 .203-.041.42-.124.651-.082.23-.226.448-.433.652-.199.203-.474.373-.825.509-.35.128-.793.193-1.33.193h-.99v-.204h.887c.488 0 .86-.074 1.114-.224a1.16 1.16 0 0 0 .526-.61c.096-.258.144-.543.144-.856 0-.536-.13-.95-.392-1.241-.254-.299-.694-.448-1.32-.448-.316 0-.522.058-.619.173-.096.115-.144.35-.144.702v5.049c0 .245.02.428.062.55.041.122.12.203.237.244.124.04.303.068.536.081v.204a7.253 7.253 0 0 0-.598-.02 24.487 24.487 0 0 0-1.464 0c-.234 0-.423.007-.567.02v-.203c.233-.014.409-.041.526-.082a.37.37 0 0 0 .247-.244c.041-.122.062-.306.062-.55v-5.049c0-.25-.02-.434-.062-.55a.37.37 0 0 0-.247-.244c-.117-.047-.293-.074-.526-.081v-.204Zm1.64 3.614c.37.013.663.03.876.05.213.014.385.028.516.041a6.1 6.1 0 0 1 .391.051c.461.075.791.214.99.418.207.197.358.505.454.926l.258 1.038c.069.299.138.516.206.652a.35.35 0 0 0 .34.183.457.457 0 0 0 .29-.112c.082-.068.168-.16.257-.275l.155.112c-.145.21-.296.373-.454.489-.151.108-.368.163-.65.163-.254 0-.477-.075-.67-.224-.192-.15-.337-.441-.433-.876l-.227-1.018a4.829 4.829 0 0 0-.216-.753 1.138 1.138 0 0 0-.33-.509c-.138-.122-.344-.183-.62-.183H68.75l-.02-.173Zm7.419-1.792c.605 0 1.075.184 1.412.55.344.36.516.923.516 1.69h-3.64l-.01-.194h2.66a3.254 3.254 0 0 0-.083-.916 1.54 1.54 0 0 0-.33-.682.708.708 0 0 0-.567-.254c-.316 0-.598.156-.845.468-.24.312-.385.807-.433 1.486l.03.041a4.488 4.488 0 0 0-.03.336c-.007.122-.01.244-.01.366 0 .462.075.859.226 1.191.151.333.347.587.588.764.247.17.502.254.763.254.206 0 .402-.03.588-.091.186-.068.357-.177.516-.326.157-.15.295-.35.412-.6l.206.08a2.08 2.08 0 0 1-.371.652c-.172.21-.388.384-.65.52a2.025 2.025 0 0 1-.907.193c-.495 0-.921-.112-1.279-.336a2.243 2.243 0 0 1-.815-.927 3.239 3.239 0 0 1-.278-1.374c0-.597.096-1.11.289-1.537.192-.434.464-.767.814-.997.351-.238.76-.357 1.228-.357Zm4.175 5.456a1.64 1.64 0 0 1-.733-.152 1.155 1.155 0 0 1-.474-.448 1.365 1.365 0 0 1-.155-.662c0-.298.07-.543.207-.733.144-.19.326-.342.546-.458.22-.115.45-.21.691-.285.248-.081.481-.156.701-.224.22-.074.4-.16.537-.254a.433.433 0 0 0 .216-.377v-.63c0-.286-.045-.503-.134-.652a.598.598 0 0 0-.34-.296 1.37 1.37 0 0 0-.485-.081c-.172 0-.357.024-.557.071a.82.82 0 0 0-.464.296.614.614 0 0 1 .485.62.53.53 0 0 1-.165.408.624.624 0 0 1-.423.142c-.2 0-.347-.061-.443-.183a.734.734 0 0 1-.134-.428c0-.176.044-.319.134-.427.089-.109.202-.21.34-.306.158-.108.36-.2.608-.274a2.8 2.8 0 0 1 .856-.123c.282 0 .523.034.722.102.2.061.365.153.495.275.179.163.296.363.35.6a3.6 3.6 0 0 1 .083.835v2.83c0 .17.024.292.073.367.054.074.137.111.247.111a.483.483 0 0 0 .217-.05c.068-.034.15-.089.247-.163l.114.173a4.16 4.16 0 0 1-.413.275c-.13.068-.306.102-.526.102-.2 0-.364-.035-.495-.102a.695.695 0 0 1-.299-.295 1.228 1.228 0 0 1-.093-.51 1.901 1.901 0 0 1-.67.683 1.68 1.68 0 0 1-.866.224Zm.37-.407c.228 0 .437-.064.63-.193.2-.13.378-.322.536-.58v-1.995a.99.99 0 0 1-.36.295c-.159.074-.33.152-.516.234a3.33 3.33 0 0 0-.537.275 1.306 1.306 0 0 0-.412.407c-.11.17-.165.39-.165.662 0 .271.072.488.216.651.152.163.354.244.609.244Zm4.941-7.644v7.034c0 .285.058.478.175.58.124.102.327.152.609.152v.214a19.886 19.886 0 0 0-.536-.02 12.256 12.256 0 0 0-1.424 0c-.24.007-.419.013-.536.02v-.214c.282 0 .481-.05.598-.152.124-.102.186-.295.186-.58V28.36c0-.305-.055-.53-.165-.672-.11-.149-.316-.224-.619-.224v-.213c.22.02.433.03.64.03.199 0 .388-.01.567-.03a3.44 3.44 0 0 0 .505-.112Zm9.159.773c-.028.238-.048.469-.062.692-.007.224-.01.394-.01.51a6.149 6.149 0 0 0 .03.63h-.236c-.042-.4-.1-.715-.176-.946-.075-.238-.206-.404-.392-.499-.178-.102-.45-.153-.814-.153h-.856c-.234 0-.413.02-.537.061a.341.341 0 0 0-.237.235c-.041.115-.062.298-.062.55v5.048c0 .245.021.428.062.55a.37.37 0 0 0 .237.244c.124.034.303.051.537.051h.753c.433 0 .76-.058.98-.173a.988.988 0 0 0 .484-.56c.103-.265.179-.62.227-1.069h.237c-.02.184-.03.428-.03.733 0 .13.002.316.01.56.013.238.034.485.061.743-.35-.013-.746-.02-1.186-.02-.44-.007-.832-.01-1.175-.01h-.588c-.234 0-.488.003-.763.01-.275 0-.554.003-.835.01-.282 0-.55.003-.805.01v-.203c.234-.014.41-.041.526-.082a.37.37 0 0 0 .248-.244 1.88 1.88 0 0 0 .061-.55v-5.049c0-.25-.02-.434-.061-.55a.37.37 0 0 0-.248-.244c-.117-.047-.292-.074-.526-.081v-.204c.255.007.523.014.805.02.281 0 .56.004.835.01h2.423a37.16 37.16 0 0 0 1.083-.03Zm-1.774 3.482v.203h-1.887v-.203h1.887Zm.3-1.344c-.028.387-.042.682-.042.885.007.204.01.39.01.56 0 .17.004.357.01.56.007.204.025.499.052.886h-.237a8.743 8.743 0 0 0-.103-.631.896.896 0 0 0-.248-.51c-.123-.135-.337-.203-.639-.203v-.203c.227 0 .399-.044.516-.133a.81.81 0 0 0 .268-.356c.055-.143.093-.289.113-.438.02-.156.041-.295.062-.417h.237Zm4.324-.316c.275 0 .509.044.701.133.193.088.334.17.423.244.227.183.364.061.413-.367h.237c-.014.19-.024.418-.031.683-.007.257-.01.607-.01 1.048h-.238a3.095 3.095 0 0 0-.216-.733 1.37 1.37 0 0 0-.433-.58c-.193-.156-.444-.234-.753-.234a.925.925 0 0 0-.608.203c-.159.13-.238.323-.238.58 0 .204.062.38.186.53.124.142.285.278.485.407.199.122.416.258.65.407.26.163.498.33.71.499.214.17.383.356.506.56.13.204.196.445.196.723 0 .312-.082.573-.247.783-.165.21-.382.37-.65.479-.261.109-.55.163-.866.163-.151 0-.296-.014-.434-.041a1.86 1.86 0 0 1-.381-.102 2.385 2.385 0 0 1-.217-.122 3.962 3.962 0 0 1-.206-.153c-.069-.054-.13-.05-.185.01-.056.055-.097.167-.124.337h-.237c.013-.218.024-.482.03-.794.008-.313.01-.727.01-1.242h.238c.048.38.117.712.206.997.09.285.23.51.423.672.193.156.46.234.804.234.138 0 .276-.03.413-.091a.817.817 0 0 0 .361-.306c.096-.142.144-.332.144-.57a.924.924 0 0 0-.33-.733c-.22-.19-.498-.39-.835-.6a15.514 15.514 0 0 1-.701-.469 2.273 2.273 0 0 1-.526-.529 1.26 1.26 0 0 1-.196-.713c0-.305.069-.553.206-.742.145-.197.334-.34.567-.428.234-.095.485-.143.753-.143Zm4.427-1.547v1.7h1.526v.204h-1.526v3.939c0 .319.058.543.175.672.117.129.279.193.485.193a.708.708 0 0 0 .536-.244c.151-.17.282-.451.392-.845l.206.05a2.27 2.27 0 0 1-.412.998c-.2.272-.509.408-.928.408-.234 0-.427-.03-.578-.092a1.162 1.162 0 0 1-.402-.244 1.308 1.308 0 0 1-.32-.56 3.654 3.654 0 0 1-.082-.865v-3.41h-.99v-.204h.99v-1.558c.172-.006.337-.02.495-.04a2.03 2.03 0 0 0 .433-.102Zm3.45 7.003a1.64 1.64 0 0 1-.733-.152 1.156 1.156 0 0 1-.474-.448 1.367 1.367 0 0 1-.155-.662c0-.298.069-.543.206-.733a1.63 1.63 0 0 1 .547-.458c.22-.115.45-.21.691-.285.248-.081.481-.156.701-.224.22-.074.399-.16.536-.254a.432.432 0 0 0 .217-.377v-.63c0-.286-.045-.503-.134-.652a.6.6 0 0 0-.34-.296 1.371 1.371 0 0 0-.485-.081c-.172 0-.357.024-.557.071a.822.822 0 0 0-.464.296.611.611 0 0 1 .485.62.53.53 0 0 1-.165.408.625.625 0 0 1-.423.142c-.199 0-.347-.061-.443-.183a.73.73 0 0 1-.134-.428c0-.176.044-.319.134-.427.089-.109.202-.21.34-.306.158-.108.361-.2.608-.274.255-.082.54-.123.856-.123.282 0 .523.034.722.102.199.061.364.153.495.275.179.163.296.363.351.6.055.231.082.51.082.835v2.83c0 .17.024.292.072.367.055.074.138.111.248.111a.476.476 0 0 0 .216-.05c.069-.034.152-.089.248-.163l.113.173c-.144.108-.281.2-.412.275-.131.068-.306.102-.526.102-.2 0-.364-.035-.495-.102a.694.694 0 0 1-.299-.295 1.226 1.226 0 0 1-.093-.51 1.899 1.899 0 0 1-.67.683 1.68 1.68 0 0 1-.866.224Zm.371-.407c.227 0 .436-.064.629-.193.199-.13.378-.322.536-.58v-1.995a.986.986 0 0 1-.361.295c-.158.074-.33.152-.516.234a3.365 3.365 0 0 0-.536.275 1.303 1.303 0 0 0-.412.407c-.11.17-.165.39-.165.662 0 .271.072.488.216.651.152.163.354.244.609.244Zm4.961-6.596v1.7h1.526v.204h-1.526v3.939c0 .319.058.543.175.672.117.129.278.193.485.193a.71.71 0 0 0 .536-.244c.151-.17.282-.451.392-.845l.206.05a2.259 2.259 0 0 1-.413.998c-.199.272-.508.408-.928.408-.233 0-.426-.03-.577-.092a1.157 1.157 0 0 1-.403-.244 1.306 1.306 0 0 1-.319-.56 3.647 3.647 0 0 1-.083-.865v-3.41h-.99v-.204h.99v-1.558c.172-.006.337-.02.495-.04.158-.02.303-.054.434-.102Zm4.491 1.547c.605 0 1.076.184 1.413.55.343.36.515.923.515 1.69h-3.64l-.01-.194h2.66a3.273 3.273 0 0 0-.082-.916 1.56 1.56 0 0 0-.33-.682.71.71 0 0 0-.567-.254c-.317 0-.599.156-.846.468-.241.312-.385.807-.433 1.486l.031.041a6.409 6.409 0 0 0-.042.702c0 .462.076.859.227 1.191.152.333.347.587.588.764.248.17.502.254.763.254.206 0 .402-.03.588-.091.186-.068.358-.177.516-.326.158-.15.295-.35.412-.6l.206.08a2.07 2.07 0 0 1-.371.652c-.172.21-.388.384-.65.52a2.021 2.021 0 0 1-.907.193c-.495 0-.921-.112-1.279-.336a2.24 2.24 0 0 1-.814-.927c-.186-.4-.279-.858-.279-1.374 0-.597.096-1.11.289-1.537.192-.434.464-.767.814-.997.351-.238.76-.357 1.228-.357Zm-96.547 9.958v.22c-.255.008-.45.037-.585.088a.4.4 0 0 0-.259.264c-.045.125-.067.323-.067.594v5.453c0 .264.022.462.067.594a.4.4 0 0 0 .259.264c.135.044.33.073.585.088v.22a7.975 7.975 0 0 0-.653-.022 26.745 26.745 0 0 0-1.596 0c-.255 0-.461.007-.619.022v-.22c.255-.015.446-.044.574-.088a.401.401 0 0 0 .27-.264c.044-.132.067-.33.067-.594v-5.453c0-.271-.023-.47-.067-.594a.4.4 0 0 0-.27-.264c-.128-.051-.319-.08-.574-.088v-.22a36.363 36.363 0 0 0 1.44.033 28.244 28.244 0 0 0 1.428-.033Zm9.747 1.968c.285 0 .521.037.709.11.195.074.356.176.483.308.143.147.244.33.304.55.06.22.09.517.09.89v2.936c0 .308.064.517.191.627.135.11.356.165.663.165v.231a21.811 21.811 0 0 0-.584-.022 13.768 13.768 0 0 0-.765-.022c-.247 0-.491.007-.73.022-.233.007-.41.015-.53.022v-.23c.27 0 .462-.056.574-.166.112-.11.169-.319.169-.627v-3.177a3.3 3.3 0 0 0-.056-.627.796.796 0 0 0-.26-.462c-.127-.117-.325-.176-.595-.176a1.37 1.37 0 0 0-.832.264 1.785 1.785 0 0 0-.551.726c-.128.3-.191.638-.191 1.012v2.44c0 .308.056.517.168.627.113.11.304.165.574.165v.231c-.12-.007-.3-.015-.54-.022a11.488 11.488 0 0 0-.72-.022c-.247 0-.502.007-.764.022-.263.007-.457.015-.585.022v-.23c.307 0 .525-.056.652-.166.135-.11.203-.319.203-.627v-3.441c0-.33-.06-.572-.18-.726-.12-.16-.345-.242-.675-.242v-.23c.24.022.472.032.697.032.218 0 .424-.01.619-.033a3.69 3.69 0 0 0 .55-.12v1.297c.196-.498.465-.843.81-1.033a2.22 2.22 0 0 1 1.102-.297Zm13.144.155v.22a.677.677 0 0 0-.393.186c-.12.11-.233.305-.338.583l-1.844 4.728h-.191l-2.07-4.87c-.119-.287-.239-.459-.359-.518a.603.603 0 0 0-.292-.099v-.23c.15.007.303.018.46.032.166.008.342.012.53.012a25.228 25.228 0 0 0 1.461-.044v.23c-.187 0-.356.015-.506.044-.142.022-.236.092-.28.21-.038.117 0 .318.111.604l1.406 3.398-.068.054 1.283-3.287c.097-.242.135-.433.112-.572a.405.405 0 0 0-.225-.33c-.127-.073-.326-.117-.596-.131v-.22c.135.007.251.014.349.022.097 0 .19.003.28.01h.316c.172 0 .326-.003.46-.01l.394-.023Zm8.169-.155c.66 0 1.173.199 1.54.594.376.389.563.997.563 1.826h-3.97l-.01-.21h2.9a3.478 3.478 0 0 0-.09-.989c-.075-.308-.194-.553-.36-.737a.777.777 0 0 0-.618-.275c-.345 0-.652.169-.922.506-.262.337-.42.873-.472 1.605l.034.045a4.39 4.39 0 0 0-.034.362 6.967 6.967 0 0 0-.011.396c0 .499.082.927.247 1.287.165.359.378.634.641.824.27.183.547.275.832.275.225 0 .439-.033.641-.099.202-.073.39-.19.562-.352a2.1 2.1 0 0 0 .45-.648l.225.087a2.252 2.252 0 0 1-.405.704 2.22 2.22 0 0 1-.708.56c-.285.14-.615.21-.99.21-.54 0-1.004-.121-1.394-.363a2.43 2.43 0 0 1-.889-1c-.202-.433-.303-.928-.303-1.485 0-.645.105-1.198.315-1.66.21-.47.506-.828.888-1.078.382-.256.828-.384 1.338-.384Zm10.141 0c.3 0 .555.048.765.144.21.095.364.183.461.263.248.198.397.066.45-.395h.258c-.015.205-.026.45-.033.736-.008.279-.011.656-.011 1.133h-.26a3.316 3.316 0 0 0-.235-.792 1.48 1.48 0 0 0-.473-.627c-.21-.168-.483-.253-.82-.253a1.02 1.02 0 0 0-.664.22c-.172.14-.258.349-.258.627 0 .22.067.41.202.572.135.154.311.3.528.44.218.132.454.278.709.44.285.175.543.355.776.538.232.184.416.385.55.605.143.22.214.48.214.78 0 .338-.09.62-.27.847-.18.227-.416.4-.708.517a2.46 2.46 0 0 1-.944.176 2.46 2.46 0 0 1-.473-.044 2.05 2.05 0 0 1-.416-.11 2.695 2.695 0 0 1-.236-.132 4.347 4.347 0 0 1-.225-.165c-.075-.058-.142-.055-.202.011-.06.059-.105.18-.135.363h-.259c.015-.235.026-.52.034-.858.007-.337.011-.784.011-1.341h.259c.052.41.127.77.225 1.077.097.308.25.55.46.726.21.169.503.253.878.253.15 0 .3-.033.45-.099a.887.887 0 0 0 .393-.33c.105-.154.158-.359.158-.615a.994.994 0 0 0-.36-.792 7.409 7.409 0 0 0-.911-.649c-.27-.168-.525-.337-.765-.506a2.46 2.46 0 0 1-.573-.572 1.35 1.35 0 0 1-.214-.77c0-.329.075-.596.225-.802.158-.212.364-.366.619-.462.254-.102.528-.153.82-.153Zm10-1.67v1.835h1.664v.22h-1.664V46.3c0 .345.064.587.191.726.128.14.304.209.529.209.225 0 .42-.088.584-.264.165-.183.308-.487.428-.912l.225.055a2.436 2.436 0 0 1-.45 1.077c-.218.293-.555.44-1.012.44a1.69 1.69 0 0 1-.63-.1 1.27 1.27 0 0 1-.438-.263 1.407 1.407 0 0 1-.349-.605c-.06-.234-.09-.546-.09-.934v-3.684h-1.08v-.22h1.08v-1.682c.188-.007.367-.022.54-.044.172-.022.33-.058.472-.11Zm11.048 1.67c.263 0 .491.037.686.11.195.074.356.176.484.308.142.147.24.337.292.572.053.235.079.524.079.869v2.935c0 .308.063.517.19.627.136.11.357.165.664.165v.231a21.811 21.811 0 0 0-.584-.022 13.768 13.768 0 0 0-.765-.022c-.247 0-.491.007-.73.022a19.42 19.42 0 0 0-.53.022v-.23c.27 0 .462-.056.574-.166.113-.11.169-.319.169-.627v-3.177c0-.227-.015-.436-.045-.627a.799.799 0 0 0-.225-.462c-.12-.117-.315-.176-.585-.176a1.27 1.27 0 0 0-.787.264 1.832 1.832 0 0 0-.54.726c-.127.3-.19.638-.19 1.012v2.44c0 .308.055.517.168.627.112.11.303.165.573.165v.231c-.12-.007-.3-.015-.54-.022a11.481 11.481 0 0 0-.72-.022c-.246 0-.501.007-.764.022-.262.007-.457.015-.585.022v-.23c.308 0 .525-.056.653-.166.135-.11.202-.319.202-.627v-3.441c0-.33-.06-.572-.18-.726-.12-.16-.345-.242-.675-.242v-.23c.24.022.473.032.698.032.217 0 .423-.01.618-.033.203-.029.386-.07.551-.12v1.297c.195-.477.461-.817.798-1.023a1.987 1.987 0 0 1 1.046-.307Zm3.385 0c.262 0 .491.037.686.11.195.074.356.176.483.308.143.147.24.337.293.572.052.235.078.524.078.869v2.935c0 .308.064.517.192.627.135.11.356.165.663.165v.231a21.846 21.846 0 0 0-.585-.022 13.773 13.773 0 0 0-.764-.022c-.248 0-.491.007-.731.022-.233.007-.409.015-.529.022v-.23c.27 0 .461-.056.574-.166.112-.11.168-.319.168-.627v-3.177c0-.227-.014-.436-.044-.627a.8.8 0 0 0-.225-.462c-.12-.117-.315-.176-.585-.176-.293 0-.555.088-.787.264a1.845 1.845 0 0 0-.54.715c-.128.3-.191.638-.191 1.011l-.034-1.022c.202-.506.476-.85.82-1.034.346-.19.698-.285 1.058-.285Zm10.791 0c.66 0 1.174.199 1.541.594.375.389.562.997.562 1.826h-3.97l-.01-.21h2.9a3.407 3.407 0 0 0-.09-.989c-.074-.308-.194-.553-.359-.737a.777.777 0 0 0-.619-.275c-.344 0-.652.169-.922.506-.262.337-.42.873-.472 1.605l.034.045c-.015.11-.026.23-.034.362a6.967 6.967 0 0 0-.011.396c0 .499.082.927.247 1.287.165.359.379.634.641.824.27.183.547.275.832.275.225 0 .439-.033.641-.099.203-.073.39-.19.563-.352.172-.161.322-.377.45-.648l.224.087a2.25 2.25 0 0 1-.405.704 2.22 2.22 0 0 1-.708.56c-.285.14-.615.21-.99.21-.54 0-1.004-.121-1.394-.363a2.43 2.43 0 0 1-.888-1c-.203-.433-.304-.928-.304-1.485 0-.645.105-1.198.315-1.66.21-.47.506-.828.888-1.078.383-.256.829-.384 1.338-.384Zm11.907 0c.285 0 .521.037.709.11.194.074.356.176.483.308.143.147.244.33.304.55.06.22.09.517.09.89v2.936c0 .308.063.517.191.627.135.11.356.165.663.165v.231a21.675 21.675 0 0 0-.585-.022 12.045 12.045 0 0 0-1.495 0c-.233.007-.409.015-.529.022v-.23c.27 0 .461-.056.574-.166.112-.11.168-.319.168-.627v-3.177a3.22 3.22 0 0 0-.056-.627.792.792 0 0 0-.258-.462c-.128-.117-.326-.176-.596-.176a1.37 1.37 0 0 0-.832.264 1.78 1.78 0 0 0-.551.726c-.128.3-.191.638-.191 1.012v2.44c0 .308.056.517.168.627.113.11.304.165.574.165v.231c-.12-.007-.3-.015-.54-.022a11.468 11.468 0 0 0-.72-.022c-.247 0-.502.007-.764.022-.263.007-.458.015-.585.022v-.23c.307 0 .525-.056.652-.166.135-.11.202-.319.202-.627v-3.441c0-.33-.06-.572-.18-.726-.119-.16-.344-.242-.674-.242v-.23c.24.022.472.032.697.032.217 0 .423-.01.618-.033.203-.029.387-.07.552-.12v1.297c.194-.498.464-.843.809-1.033a2.22 2.22 0 0 1 1.102-.297Zm9.914-1.67v1.835h1.665v.22h-1.665V46.3c0 .345.064.587.191.726.128.14.304.209.529.209.225 0 .42-.088.585-.264.165-.183.307-.487.427-.912l.225.055a2.433 2.433 0 0 1-.45 1.077c-.217.293-.555.44-1.012.44a1.69 1.69 0 0 1-.63-.1 1.263 1.263 0 0 1-.438-.263 1.412 1.412 0 0 1-.349-.605c-.06-.234-.09-.546-.09-.934v-3.684h-1.079v-.22h1.079v-1.682c.188-.007.368-.022.54-.044.172-.022.33-.058.472-.11ZM16.304 14.03c.42.02.97.04 1.649.06.68.02 1.349.03 2.008.03.94 0 1.839-.01 2.698-.03.86-.02 1.47-.03 1.829-.03 1.619 0 2.958.228 4.017.683 1.08.454 1.879 1.077 2.398 1.868.54.771.81 1.642.81 2.61 0 .594-.12 1.226-.36 1.899-.24.672-.66 1.305-1.26 1.898-.579.593-1.378 1.088-2.398 1.483-1.019.376-2.308.564-3.867.564h-2.877v-.594h2.578c1.419 0 2.498-.217 3.237-.652.76-.455 1.27-1.048 1.53-1.78.279-.751.419-1.582.419-2.491 0-1.562-.38-2.769-1.14-3.619-.739-.87-2.018-1.305-3.837-1.305-.919 0-1.518.168-1.798.504-.28.336-.42 1.019-.42 2.047v14.712c0 .712.06 1.245.18 1.602.12.355.35.593.69.711.36.12.879.198 1.558.238v.593c-.46-.04-1.039-.06-1.739-.06a75.434 75.434 0 0 0-4.257 0c-.679 0-1.228.02-1.648.06v-.593c.68-.04 1.19-.119 1.529-.238.36-.118.6-.356.72-.712.12-.355.18-.89.18-1.601V17.175c0-.732-.06-1.266-.18-1.602a1.075 1.075 0 0 0-.72-.712c-.34-.138-.85-.217-1.53-.237v-.593Zm4.767 10.53c1.079.04 1.928.09 2.548.149.62.04 1.119.079 1.498.118.4.04.78.09 1.14.149 1.339.217 2.298.623 2.878 1.216.6.573 1.039 1.473 1.318 2.699l.75 3.026c.2.87.4 1.502.6 1.898.22.376.55.553.989.534.34-.02.62-.129.84-.327.24-.197.489-.464.749-.8l.45.326c-.42.613-.86 1.087-1.32 1.423-.44.317-1.069.475-1.888.475-.74 0-1.39-.217-1.949-.652-.56-.435-.98-1.286-1.259-2.551l-.66-2.966c-.18-.85-.39-1.582-.629-2.195-.22-.633-.54-1.128-.96-1.483-.399-.356-.998-.534-1.798-.534h-3.237l-.06-.505Zm29.631-10.53c-.08.693-.14 1.365-.18 2.018a52.53 52.53 0 0 0-.03 1.483c0 .356.01.702.03 1.038.02.316.04.583.06.8h-.69c-.12-1.166-.29-2.085-.51-2.758-.22-.692-.599-1.176-1.138-1.453-.52-.297-1.31-.445-2.369-.445h-2.488c-.68 0-1.199.06-1.559.178-.34.099-.57.326-.689.682-.12.336-.18.87-.18 1.602v14.712c0 .712.06 1.245.18 1.602.12.355.35.593.69.711.359.1.879.149 1.558.149h2.189c1.259 0 2.208-.168 2.848-.505.66-.336 1.129-.88 1.409-1.63.3-.772.52-1.81.659-3.115h.69c-.06.534-.09 1.245-.09 2.135 0 .376.01.92.03 1.632.04.692.1 1.414.18 2.165-1.02-.04-2.17-.06-3.448-.06a220.13 220.13 0 0 0-3.417-.029h-1.71c-.679 0-1.418.01-2.218.03-.799 0-1.609.01-2.428.03-.82 0-1.599.01-2.338.029v-.593c.68-.04 1.189-.119 1.529-.238.36-.118.6-.356.72-.712.12-.355.18-.89.18-1.601V17.175c0-.732-.06-1.266-.18-1.602a1.076 1.076 0 0 0-.72-.712c-.34-.138-.85-.217-1.53-.237v-.593c.74.02 1.52.04 2.34.06.818 0 1.628.009 2.427.029h7.045c1.18-.02 2.228-.05 3.148-.09Zm-5.156 10.145v.593H40.06v-.593h5.486Zm.87-3.915a38.681 38.681 0 0 0-.12 2.58c.02.593.03 1.137.03 1.631 0 .495.009 1.039.03 1.632.02.593.069 1.453.149 2.58h-.69c-.08-.632-.18-1.245-.3-1.839-.1-.613-.339-1.107-.719-1.483-.36-.395-.98-.593-1.858-.593v-.593c.66 0 1.159-.129 1.498-.386.36-.277.62-.623.78-1.038.16-.415.27-.84.33-1.275.06-.455.12-.86.18-1.216h.69Zm15.239-6.23v.594c-.68.02-1.2.099-1.559.237-.34.119-.57.356-.69.712-.12.336-.18.87-.18 1.602v14.712c0 .712.06 1.245.18 1.602.12.355.35.593.69.711.36.12.88.198 1.56.238v.593c-.46-.04-1.04-.06-1.74-.06a75.415 75.415 0 0 0-4.257 0c-.679 0-1.229.02-1.648.06v-.593c.68-.04 1.189-.119 1.529-.238.36-.118.6-.356.72-.712.119-.355.179-.89.179-1.601V17.175c0-.732-.06-1.266-.18-1.602a1.076 1.076 0 0 0-.72-.712c-.34-.138-.849-.217-1.528-.237v-.593c.42.02.969.04 1.649.06a75.398 75.398 0 0 0 4.256 0c.7-.02 1.28-.04 1.74-.06Z" fill="#fff"/></g><defs><clipPath id="a"><path fill="#fff" d="M0 0h119v48H0z"/></clipPath><filter id="b" x="-2" y="-2" width="48.85" height="50" filterUnits="userSpaceOnUse" color-interpolation-filters="sRGB"><feFlood flood-opacity="0" result="BackgroundImageFix"/><feBlend in="SourceGraphic" in2="BackgroundImageFix" result="shape"/><feColorMatrix in="SourceAlpha" values="0 0 0 0 0 0 0 0 0 0 0 0 0 0 0 0 0 0 127 0" result="hardAlpha"/><feOffset dx="-2" dy="-2"/><feGaussianBlur stdDeviation="7.5"/><feComposite in2="hardAlpha" operator="arithmetic" k2="-1" k3="1"/><feColorMatrix values="0 0 0 0 0 0 0 0 0 0 0 0 0 0 0 0 0 0 0.25 0"/><feBlend in2="shape" result="effect1_innerShadow_245_2509"/></filter></defs></svg>