<svg width="35" height="16" fill="none" xmlns="http://www.w3.org/2000/svg"><path d="M11.494 8.486h1.78c1.073 0 1.882.81 1.882 1.822 0 1.013-.794 1.837-1.883 1.837h-.808v1.461h-.97v-5.12Zm.97.882v1.88h.736c.573 0 .97-.42.97-.94s-.396-.94-.97-.94h-.735Zm2.942 2.199c0-1.36 1.014-2.141 2.073-2.141.544 0 1.044.231 1.34.578v-.491h.955v4.108h-.956v-.536a1.761 1.761 0 0 1-1.353.622 2.091 2.091 0 0 1-2.06-2.14h.001Zm3.456-.015c0-.694-.53-1.258-1.25-1.258-.706 0-1.265.55-1.265 1.258 0 .709.544 1.273 1.265 1.273.72 0 1.25-.564 1.25-1.273Zm3.015 1.852L20.17 9.498h1.03l1.162 2.763 1.103-2.763h1.014l-2.485 6.003h-.97l.852-2.097h.001ZM2.141 1.875a.45.45 0 0 1 0-.246c.03-.159.132-.318.441-.318.28 0 .456.174.456.434v.29h1.206v-.334C4.244.659 3.288.5 2.597.5 1.73.5 1.023.775.891 1.57c-.03.217-.044.405.015.651.206.984 1.941 1.259 2.191 1.88.044.116.03.261.015.348-.044.159-.147.318-.47.318-.31 0-.486-.174-.486-.434V3.87H.847v.362c0 1.07.853 1.389 1.765 1.389.882 0 1.603-.29 1.72-1.1.06-.42.015-.68 0-.78-.206-1.013-2.044-1.303-2.19-1.867v.001Zm15.824.015a.683.683 0 0 1 0-.246c.03-.16.132-.319.44-.319.28 0 .442.174.442.434v.29h1.206v-.333c0-1.027-.94-1.186-1.618-1.186-.853 0-1.559.275-1.69 1.056-.03.217-.045.405.014.636.206.97 1.926 1.244 2.162 1.866.044.116.03.26.014.347-.044.16-.147.319-.47.319-.31 0-.486-.174-.486-.434v-.463h-1.294v.361c0 1.056.838 1.375 1.75 1.375.868 0 1.588-.29 1.706-1.085.06-.405.015-.68-.015-.781-.206-.984-2.029-1.288-2.16-1.837ZM29.01 4.493 27.862.646h-1.81v4.73h1.192l-.073-3.978 1.235 3.978h1.735V.646h-1.206l.074 3.847ZM6.053.646l-.897 4.787h1.31l.675-4.426.662 4.426h1.31L8.214.646H6.053Zm7.353 0-.618 3.746L12.17.646H10.2l-.103 4.787h1.22l.03-4.426.838 4.426h1.236l.838-4.426.03 4.426h1.22L15.406.646h-2Zm11.294 0h-1.235v3.543c0 .058 0 .13-.015.189a.448.448 0 0 1-.47.347c-.339 0-.442-.232-.47-.347-.016-.058-.016-.116-.016-.188V.645H21.26v3.428c0 .087 0 .275.015.318.088.897.794 1.186 1.69 1.186.898 0 1.618-.29 1.692-1.186 0-.043.014-.231.014-.318V.646h.03Zm8.456 2.097v.694h.5v.695c0 .058 0 .13-.015.188-.015.13-.147.347-.5.347s-.47-.217-.5-.347c-.015-.058-.015-.116-.015-.188V1.947c0-.072 0-.159.015-.231.03-.116.133-.347.485-.347.368 0 .471.246.486.347.014.072.014.188.014.188v.26h1.221v-.159s0-.159-.015-.318C34.744.791 33.994.501 33.127.501c-.867 0-1.603.29-1.706 1.186a2.473 2.473 0 0 0-.029.318v2.01c0 .088 0 .16.015.32.073.867.853 1.185 1.706 1.185.867 0 1.632-.304 1.706-1.186.014-.159.014-.231.014-.318V2.743h-1.676Z" fill="#B2B2B2"/></svg>