<svg width="88" height="51" fill="none" xmlns="http://www.w3.org/2000/svg"><g clip-path="url(#a)"><path d="M77.727 3.15C75.574 1.002 71.34 0 64.4 0H36.633C21.313 0 13.055 5.325 9.858 17.266l-.63 2.339c-1.297 4.84-.879 8.678 1.245 11.408 2.426 3.121 7.041 4.704 13.716 4.704h11.928c-1.347-1.006-2.413-2.875-1.202-6.882h-8.888c-3.724 0-6.266-.883-7.552-2.626-1.169-1.58-1.295-3.83-.375-6.683l.682-2.13c2.29-7.173 7.811-10.514 17.379-10.514h28.975c4.203 0 5.842.965 5.842 3.442 0 3.41-3.24 5.366-8.888 5.366h-5.87l-1.73 4.285h7.704c2.622 0 4.238.411 5.088 1.296.522.545.752 1.27.702 2.216-.215 3.6-3.225 5.348-9.204 5.348H47.171l.17-.442 6.972-18.054h-8.382l-6.008 14.965-.003.009-.005.008c-1.707 3.655-2.01 6.377-.903 8.091.989 1.53 3.152 2.305 6.433 2.305h12.392c6.03 0 10.71-1.079 13.908-3.205 3.165-2.105 4.77-5.183 4.77-9.147 0-2.567-1.986-4.736-4.941-5.396l-1.236-.276 1.215-.354c3.636-1.062 7.902-4.121 7.955-9.252.018-2.107-.564-3.722-1.78-4.936Z" fill="#F03F53"/><path d="M3.215 50.893h1.78l.184-.92h.069c2.458 0 4.65-1.193 4.65-3.818 0-1.955-1.389-2.863-3.41-2.863l.138-.693h-1.78l-.138.693C1.63 43.292 0 44.916 0 47.098c0 1.966 1.492 2.874 3.352 2.874H3.4l-.184.92Zm2.975-5.955c.965 0 1.86.285 1.86 1.399 0 1.273-.873 1.989-2.48 1.989H5.5l.667-3.388h.023Zm-4.342 1.967c0-1.273.907-1.967 2.538-1.967l-.666 3.388h-.034c-1.218 0-1.838-.5-1.838-1.421Zm10.52 3.817 4.835-4.647-.919 4.647h1.78l1.562-7.953h-1.482l-4.811 4.67.918-4.67h-1.78l-1.562 7.953h1.459Zm8.544-6.306h2.572l-1.24 6.306h1.78l1.24-6.306h2.585l.321-1.647h-6.936l-.322 1.647Zm12.656 6.306h1.78l1.562-7.953h-1.78l-.609 3.125h-3.572l.609-3.125h-1.78l-1.562 7.953h1.78l.62-3.182h3.572l-.62 3.182Zm4.134 0h6.247l.322-1.645h-4.467l.31-1.594h4.077l.32-1.589h-4.076l.287-1.478h4.365l.32-1.647h-6.143L37.7 50.722Zm14.986-2.566c-.552.636-1.366 1-2.32 1-1.332 0-2.216-.864-2.216-2.091 0-1.49 1.148-2.729 2.883-2.729.93 0 1.504.34 1.917.852l1.287-1.011c-.552-.908-1.482-1.544-3.09-1.544-2.894 0-4.845 2.032-4.845 4.567 0 2.614 1.974 3.659 3.984 3.659 1.562 0 2.768-.602 3.457-1.601l-1.057-1.102Zm15.96 0c-.551.636-1.366 1-2.32 1-1.332 0-2.216-.864-2.216-2.091 0-1.49 1.148-2.729 2.883-2.729.93 0 1.504.34 1.917.852l1.286-1.011c-.55-.908-1.48-1.544-3.089-1.544-2.893 0-4.845 2.032-4.845 4.567 0 2.614 1.975 3.659 3.984 3.659 1.562 0 2.768-.602 3.457-1.601l-1.057-1.102Zm7.638 2.566h1.78l1.562-7.953h-7.12l-1.562 7.953h1.78l1.24-6.306h3.56l-1.24 6.306Zm3.342 0h1.975l.942-1.477h3.307l.368 1.477H88l-1.964-7.953h-1.321l-5.087 7.953Zm5.306-5.282.562 2.318h-2.032l1.47-2.318Z" fill="#444142"/><path d="M58.02 48.212c.86 0 1.559-.691 1.559-1.544 0-.852-.699-1.543-1.56-1.543-.861 0-1.56.691-1.56 1.543 0 .853.699 1.544 1.56 1.544Z" fill="#F03F53"/></g><defs><clipPath id="a"><path fill="#fff" d="M0 0h88v51H0z"/></clipPath></defs></svg>