<svg width="100" height="58" fill="none" xmlns="http://www.w3.org/2000/svg"><g clip-path="url(#a)"><path d="M8.347 18.842H6.876v-3.388h9.728c1.152 0 1.649.495 1.649 1.646v3.115h-3.61v-.877a.452.452 0 0 0-.497-.496h-1.75v3.407h4.616v3.37h-4.616V31.6h-4.05V18.842Zm11.198 9.37h1.694v-9.37h-1.694v-3.388h7.195v3.388h-1.675v9.37h1.675V31.6h-7.195v-3.388Zm18.445 0h.974a.453.453 0 0 0 .509-.496V15.454h3.629l4.456 6.929c.5.78.962 1.583 1.382 2.409h.044a22.981 22.981 0 0 1-.184-2.422V17.1c0-1.15.496-1.646 1.655-1.646h3.865v3.388h-.974a.454.454 0 0 0-.497.496V31.6h-3.616l-4.501-6.91a24.57 24.57 0 0 1-1.363-2.44h-.044c.104.8.166 1.607.184 2.415v5.263c0 1.15-.496 1.647-1.655 1.647h-3.865v-3.363Zm18.864-9.37h-1.465v-3.388h10.187c1.152 0 1.649.495 1.649 1.646v3.115h-3.63v-.877a.45.45 0 0 0-.496-.496h-2.196v2.937h4.616v3.388h-4.616v2.543a.45.45 0 0 0 .496.495h2.267a.452.452 0 0 0 .496-.495v-.878h3.623v3.122c0 1.15-.503 1.646-1.655 1.646h-7.627c-1.153 0-1.65-.496-1.65-1.646V18.842Zm14.344 7.539s1.674 1.907 3.705 1.907c.815 0 1.63-.292 1.63-1.195 0-1.786-7.328-1.99-7.328-7.05 0-2.911 2.546-4.856 5.768-4.856 2.152 0 5.157 1.036 5.157 3.502v1.761h-3.616v-.7c0-.59-.84-.946-1.585-.946s-1.65.337-1.65 1.08c0 1.965 7.328 1.698 7.328 6.993 0 2.683-2.107 4.99-5.73 4.99a7.905 7.905 0 0 1-5.92-2.625l2.24-2.861Zm12.758 0s1.668 1.907 3.706 1.907c.814 0 1.63-.292 1.63-1.195 0-1.786-7.329-1.99-7.329-7.05 0-2.911 2.547-4.856 5.769-4.856 2.145 0 5.156 1.036 5.156 3.502v1.761h-3.616v-.7c0-.59-.84-.946-1.585-.946s-1.655.337-1.655 1.08c0 1.965 7.334 1.698 7.334 6.993 0 2.683-2.107 4.99-5.73 4.99a7.904 7.904 0 0 1-5.92-2.625l2.24-2.861Zm-38.161 6.986c1.808 0 5.832.706 5.832 3.554v1.996H48.22v-.827c0-.87-1.362-1.214-2.342-1.214-2.216 0-3.999 1.424-3.999 4.19 0 2.485 1.847 4.506 4.088 4.506a6.205 6.205 0 0 0 4.342-1.907l1.91 2.721a8.741 8.741 0 0 1-6.367 2.72c-4.813 0-7.983-3.445-7.983-8.015a7.617 7.617 0 0 1 2.303-5.56 7.643 7.643 0 0 1 5.623-2.164Zm8.575 3.916a.426.426 0 0 0-.464-.47h-.917v-3.179h3.674c1.082 0 1.553.464 1.553 1.551v9.98a.426.426 0 0 0 .465.471h2.005a.428.428 0 0 0 .465-.47v-.827h3.406v2.93c0 1.088-.465 1.552-1.553 1.552h-7.08c-1.082 0-1.553-.464-1.553-1.551v-9.987Zm11.543 0a.426.426 0 0 0-.47-.47h-.918v-3.179h3.642c1.089 0 1.553.464 1.553 1.551v7.947a2.446 2.446 0 0 0 2.448 2.572 2.454 2.454 0 0 0 2.299-1.598 2.47 2.47 0 0 0 .15-.974v-7.953c0-1.087.47-1.551 1.553-1.551h3.642v3.178h-.917a.428.428 0 0 0-.444.285c-.02.06-.028.123-.02.186v5.95c0 3.42-2.471 5.848-6.24 5.848-3.77 0-6.278-2.428-6.278-5.848v-5.944Zm16.369-.47H80.9v-3.179h6.66c3.043 0 5.176 1.36 5.176 3.973a3.65 3.65 0 0 1-1.77 3.23v.044a3.402 3.402 0 0 1 2.387 3.42c0 3.319-2.77 4.526-5.793 4.526h-3.725c-1.082 0-1.553-.464-1.553-1.55V36.812Zm5.322 2.701a1.274 1.274 0 0 0 1.218-.877c.055-.17.074-.35.055-.527a1.223 1.223 0 0 0-1.362-1.271H86.07v2.7l1.534-.025Zm-1.019 6.122h1.363a1.468 1.468 0 0 0 1.441-.983c.068-.196.093-.405.074-.612a1.415 1.415 0 0 0-.388-1.122 1.411 1.411 0 0 0-1.108-.43H86.12v2.677a.433.433 0 0 0 .12.345.429.429 0 0 0 .344.125Z" fill="#fff"/><path d="M96.657 57.378H3.342a3.347 3.347 0 0 1-3.09-2.065A3.333 3.333 0 0 1 0 54.033V3.338A3.341 3.341 0 0 1 .98.98 3.351 3.351 0 0 1 3.343 0h93.315a3.352 3.352 0 0 1 2.362.98 3.34 3.34 0 0 1 .98 2.356v50.697a3.35 3.35 0 0 1-3.343 3.344ZM3.342 1.5a1.841 1.841 0 0 0-1.84 1.837v50.697a1.834 1.834 0 0 0 1.135 1.703c.224.093.463.14.705.14h93.315a1.84 1.84 0 0 0 1.84-1.843V3.337a1.836 1.836 0 0 0-1.84-1.837H3.342Z" fill="#F18916"/><path d="m34.914 6.065-4.908 23.813-2.413 11.728-1.203 5.855c-.357 1.71-1.108 4.253.986 5.225a2.205 2.205 0 0 0 2.929-.769 2.152 2.152 0 0 0-.77-2.924l.14.102.547.94a.508.508 0 0 1-.05.236l.133-.636.3-1.462.515-2.543 1.12-5.435 2.286-11.08 4.52-21.95a2.197 2.197 0 0 0-1.483-2.594 2.174 2.174 0 0 0-2.636 1.494h-.013Z" fill="#F18916"/><path d="M17.826 13.63a296.4 296.4 0 0 1 18.718-2.95c3.065-.373 6.136-.702 9.213-.986 1.532-.14 3.07-.269 4.616-.388l2.546-.171 1.273-.083.637-.044c1.815-.102 4.234-.528 5.329-2.187.993-1.52-.872-2.371-2.19-2.32A298.392 298.392 0 0 0 18.94 9.23c-1.49.285-4.202.915-4.59 2.714-.39 1.799 2.45 1.875 3.47 1.684h.005Z" fill="#F18916"/></g><defs><clipPath id="a"><path fill="#fff" d="M0 0h100v58H0z"/></clipPath></defs></svg>