<svg width="50" height="50" fill="none" xmlns="http://www.w3.org/2000/svg"><g fill="#F28147" clip-path="url(#a)"><path d="M26.217 22.183v17.334h-3.234v-18.55l3.234 1.216Z"/><path d="M13.3 20.567c0-4.434 2.417-6.85 5.25-6.85s3.233.4 6.45 2.016c3.217 1.617 4.033 2.017 5.65 2.017s2.417-1.217 2.417-3.633h2.816c.4 4.833-2.416 6.85-5.25 6.85-2.833 0-3.633-.4-6.45-2.017-2.816-1.617-3.633-2.017-5.25-2.017-1.616 0-2.416 1.217-2.816 4.034l-2.817-.4Z"/><path d="M25 50C11.217 50 0 38.783 0 25S11.217 0 25 0s25 11.217 25 25-11.217 25-25 25Zm0-48.383C12.1 1.617 1.617 12.1 1.617 25 1.617 37.9 12.1 48.383 25 48.383 37.9 48.383 48.383 37.9 48.383 25 48.383 12.1 37.9 1.617 25 1.617Z"/></g><defs><clipPath id="a"><path fill="#fff" d="M0 0h50v50H0z"/></clipPath></defs></svg>