<svg width="154" height="54" fill="none" xmlns="http://www.w3.org/2000/svg"><g fill="#FF7F30"><path d="M58.874 11.994H14.958l-1.749 1.743v4.19h47.414v-4.19l-1.749-1.743Z"/><path d="M130.72 24.945v-7.45H78.21l-3.248 3.059h-4.037l-.514-3.06H13.21v8.535h3.286v5.492h-.975v7.452h58.011v-3.06h1.436l3.246 3.06h52.507v-7.452h-1.395v-6.576h1.395Z"/></g><path d="M25.046 24.668H22.65v-1.082h-.89v9.296h.974v4.73h-5.849v-4.73h.975v-9.296h-.89v1.083h-2.395v-5.814h10.47v5.813Zm22.823-1.082v-4.731h-5.182v4.73h.679l.037 2.307-.595.611h-.904l-.62-.61v-2.307h.722v-4.731h-5.153v4.73h.696v4.573l2.494 2.54h3.34v2.184h-.696v4.73h5.188v-4.73h-.588v-9.296h.582Zm10.848 9.296H59.9v4.73h-4.29l-2.093-7.03-.637.527v1.773h.668v4.73h-5.1v-4.73h.534v-9.296h-.535v-4.731h5.102v4.73h-.67v1.828l2.159-1.832h-.875v-4.726h6.462v4.725H58.65l-2.325 1.915 2.39 7.387Zm12.643 0h.557v4.73h-5.734v-4.73h1.01l-.395-2.765h-1.911l-.378 2.763h1.008v4.73h-5.036v-4.728h.557l2.353-14.027h5.615l2.354 14.027Zm-6.12-5.352h1.222l-.546-3.944h-.14l-.536 3.944Zm11.547 7.883v-14.34l2.306-2.218h5.848l2.408 2.351v5.313H83.37v-2.324l-.608-.61h-1.077l-.611.611v8.026l.611.61h1.077l.612-.61v-2.398h3.975v5.407l-2.408 2.382h-5.849l-2.306-2.2Zm45.903 2.2v-4.731h2.465v-9.296h-2.465v-4.731h6.689v4.73h-2.466v9.297h2.466v4.73h-6.689Zm-9.829-18.758h5.932v4.73h-1.337v2.36h2.865l2.374 2.394v6.79l-2.425 2.48h-7.408v-4.727h.697v-9.296h-.697l-.001-4.731Zm4.595 11.05v2.977h.575l.612-.61v-1.757l-.612-.61h-.575Zm-18.23-6.32v-4.73h-5.292v4.73h.696v1.153l-2.102 2v-3.152h.697v-4.731h-5.292v4.73h.696v9.297h-.696v4.73h5.292v-4.73h-.697v-1.151l2.102-2.001v3.152h-.696v4.73h5.291v-4.73h-.696v-9.296h.696Zm13.067 0v-4.73H100.88v4.73h1.253l-.012 8.29-.995 1.008h-1.318v4.73h4.022l2.465-2.462V23.586h1.401v9.296H107v4.73h5.291v-4.73h-.697v-9.296h.699Zm-76.02-2.127-2.82-2.603h-5.357l-2.458 2.512-.01 13.825 2.366 2.42h5.9l2.366-2.42.014-13.734ZM32.01 32.272l-.608.61h-.895l-.612-.61V24.2l.612-.61h.895l.612.61-.004 8.073ZM18.27 13.94v.756h-.437l-.024-.317h-.522v1.996l.304.058v.34h-1.178v-.34l.304-.058v-1.996h-.516l-.027.317h-.435v-.754l2.53-.002Zm1.536 0c.325 0 .581.083.77.25a.835.835 0 0 1 .281.653.826.826 0 0 1-.282.654c-.187.164-.444.246-.769.246h-.48v.628l.304.058v.34h-1.175v-.34l.302-.058V14.34l-.303-.058v-.342h1.352Zm-.48 1.366h.48a.437.437 0 0 0 .482-.459.48.48 0 0 0-.122-.336.46.46 0 0 0-.36-.134h-.48v.93Zm3.546.22h-.962v.808h.916l.026-.338h.433v.773h-2.247v-.34l.303-.058V14.34l-.303-.058v-.342h2.243v.776h-.436l-.025-.339h-.91v.711h.96l.002.438Zm.717-1.244v-.342h1.176v.342l-.304.058v.816h1.157v-.816l-.304-.058v-.342h1.176v.342l-.304.058v2.031l.304.058v.34h-1.176v-.34l.304-.058v-.777h-1.157v.777l.304.058v.34h-1.176v-.34l.302-.058V14.34l-.302-.058Zm3.092 2.148.203-.03.864-2.46h.583l.858 2.46.203.03v.34h-.968v-.34l.198-.035-.125-.39h-.919l-.125.39.198.034v.34h-.97v-.34Zm1.03-.842h.652l-.32-.998h-.01l-.322.998Zm3.227.023-.428.797.109.021v.34h-1.073v-.34l.283-.04.674-1.156-.364-.58a.86.86 0 0 0-.164-.189.248.248 0 0 0-.15-.05.375.375 0 0 0-.075.007l-.071.016-.084-.425a.656.656 0 0 1 .35-.099.567.567 0 0 1 .338.09c.112.09.205.202.273.328l.44.764h.296v-.757l-.305-.058v-.342h1.176v.342l-.304.058v.757h.294l.43-.762c.065-.126.155-.237.264-.328a.575.575 0 0 1 .341-.09c.064 0 .128.008.19.027a.728.728 0 0 1 .162.072l-.08.425-.074-.016a.363.363 0 0 0-.073-.007.25.25 0 0 0-.152.05.796.796 0 0 0-.16.189l-.363.587.659 1.148.295.041v.34h-1.084v-.34l.113-.02-.421-.798h-.344v.76l.304.058v.34h-1.173v-.34l.305-.058v-.76l-.354-.002Zm4.667-.086h-.962v.809h.916l.026-.338h.433v.773h-2.246v-.34l.302-.058V14.34l-.302-.058v-.342h2.242v.775h-.437l-.025-.338h-.91v.711h.962v.437Zm-.944-1.867h-.52v-.397h.52v.397Zm.975 0h-.52v-.397h.52v.397Zm2.038.282c.325 0 .58.083.769.25a.835.835 0 0 1 .28.653.824.824 0 0 1-.28.654c-.189.164-.444.246-.77.246h-.48v.628l.305.058v.34h-1.176v-.34l.302-.058V14.34l-.302-.058v-.342h1.352Zm-.48 1.366h.48a.437.437 0 0 0 .481-.459.48.48 0 0 0-.122-.336.463.463 0 0 0-.36-.134h-.48v.93Zm1.712-1.024v-.342h1.176v.342l-.305.058v.816h1.159v-.816l-.304-.058v-.342h1.176v.342l-.305.058v2.031l.305.058v.34h-1.176v-.34l.304-.058v-.777h-1.162v.777l.305.058v.34h-1.173v-.34l.302-.058V14.34l-.302-.058Zm3.979-.342v1.048h.488c.328 0 .588.08.78.24a.796.796 0 0 1 .287.64.818.818 0 0 1-.289.654c-.22.174-.497.262-.778.247h-1.365v-.34l.304-.058V14.34l-.304-.058v-.342h.877Zm.305 0v.342l-.305.058v-.4h.305Zm-.305 1.481v.907h.488a.495.495 0 0 0 .37-.132.465.465 0 0 0 .129-.338.416.416 0 0 0-.129-.316.517.517 0 0 0-.37-.123l-.488.002Zm1.553 1.005.304-.059V14.34l-.304-.058v-.342h1.176v.342l-.305.058v2.031l.305.058v.34h-1.176v-.343Zm2.574-2.486v.342l-.305.058v1.31h.012l1.145-1.157v-.158l-.302-.058v-.342h1.175v.342l-.302.058v2.031l.302.058v.34h-1.175v-.34l.302-.058v-1.279h-.012l-1.145 1.16v.124l.305.058v.34h-1.176v-.34l.304-.058V14.34l-.304-.058v-.342h1.176Zm.925-.83v.012a.481.481 0 0 1-.172.403.853.853 0 0 1-.984 0 .475.475 0 0 1-.171-.403v-.012h.386a.243.243 0 0 0 .273.26.263.263 0 0 0 .204-.072.271.271 0 0 0 .067-.188h.398Zm3.059 2.004a.47.47 0 0 0 .336-.106.388.388 0 0 0 .11-.293.337.337 0 0 0-.129-.272.596.596 0 0 0-.388-.107.799.799 0 0 0-.295.05.534.534 0 0 0-.207.128l-.058.352h-.423v-.534c.118-.135.265-.243.43-.314.185-.083.386-.124.59-.12.322 0 .576.069.764.209a.704.704 0 0 1 .28.598.59.59 0 0 1-.117.356.776.776 0 0 1-.32.253.746.746 0 0 1 .358.251.67.67 0 0 1 .124.41.716.716 0 0 1-.302.612 1.465 1.465 0 0 1-1.527.013.665.665 0 0 1-.302-.606v-.011h.553a.348.348 0 0 0 .136.277.525.525 0 0 0 .347.113.585.585 0 0 0 .381-.114.358.358 0 0 0 .14-.29.404.404 0 0 0-.123-.327.548.548 0 0 0-.364-.105h-.346v-.425l.352.002Zm1.274 1.316.204-.03.862-2.46h.582l.858 2.46.203.03v.34h-.965v-.34l.196-.035-.124-.39h-.92l-.125.39.196.034v.34h-.966v-.34Zm1.03-.842h.651l-.32-.998h-.011l-.32.998Zm2.991-1.211-.007.851c-.006.55-.087.943-.242 1.18-.153.239-.392.362-.716.362h-.14v-.435h.076a.382.382 0 0 0 .355-.25c.06-.152.09-.437.097-.856l.01-.888-.299-.058v-.342h2.537v.342l-.304.058v2.031l.304.058v.34h-1.175v-.34l.304-.058v-1.996l-.8.001Z" fill="#414042"/><path d="m127.104 29.277-3.478-.257-.046.812.324.828 3.074.12.516-.82-.39-.683Z" fill="#414042"/><path d="m127.045 27.502-3.878-.162-.264.968.491.705 3.71.264.39-1.09-.449-.685Zm-.046 3.278-2.593-.108-.021.856.369.556 2.051-.023.361-.634-.167-.647Z" fill="#414042"/><path d="m138.01 25.097-8.23 1.255-.968-1.416-2.872-.682-.912.756-.735.904-.689.126-.212 1.3-.335.458.222.997.417.364.066.921.531.588.493.034-.06.852.463.507 3.696-.102 1.133-.913 17.254.646-12.192-2.312 6.753.42-4.032-2.544-1.701-.114 1.655-.451.255-1.594Z" fill="#414042"/><path d="M125.816 31.766h2.768l.623-1.443.651-.276 20.584 1.764-20.49-.14-1.189.684-4.006.071 1.059-.66Zm1.152-.644-3.074-.12-.305-.218-.325-.828-.023-.143.046-.812.364-.322 3.477.256.273.172.392.684-.008.352-.517.816-.3.163Zm-2.821-.795 2.65.102.301-.478-.198-.347-2.946-.218-.022.391.215.55Z" fill="#FF7F30"/><path d="m127.079 29.618-3.71-.264-.201-.168-.433-.81-.046-.18.229-.968.346-.252 3.795.181.273.155.427.596.058.39-.394 1.093-.344.227Zm-3.428-.94 3.217.238.246-.684-.26-.395-3.367-.143-.15.55.314.435Z" fill="#FF7F30"/><path d="M126.639 26.04h-3.103l-.217.591.026.709 3.7.162-.29-.778-.116-.684Z" fill="#414042"/><path d="m127.03 27.85-3.703-.168-.327-.33-.025-.709.02-.128.216-.592.323-.225h3.104l.338.285.11.652.279.749-.335.465Zm-3.353-.833 3.094.227-.338-.396-.016-.063-.068-.398h-2.573l-.111.304.012.326Zm1.08 5.409-.29-.153-.364-.556-.057-.197.021-.856.358-.334 2.593.108.318.257.167.646-.034.255-.364.634-.273.161-2.075.035Zm-.026-.997.206.31 1.667-.02.195-.341-.069-.272-1.989-.083-.01.406Z" fill="#FF7F30"/><path d="m128.151 26.593-.283.977-2.09-1.438-.333.245.371 1.239-.927.64-1.341-1.406-.071-.687.774-1.152 1.576-.781 2.985.706.796 1.476 7.493-1.537 5.469-.175" fill="#414042"/><path d="m128.151 26.593.047 1.072-.439.246-1.884-1.297.269.904-.133.379-.926.64-.444-.046-1.343-1.406-.093-.2-.07-.687.057-.226.774-1.152.132-.116 1.576-.781.232-.026 2.985.706.224.172.677 1.256 7.274-1.322.029-.003 5.475-.006-5.464.344.029-.004-7.457 1.707-.373-.174-.722-1.34-2.714-.643-1.383.686-.655.974.046.449 1.059 1.108.479-.332-.298-1.001.125-.373.332-.244.398-.006 1.869 1.372.31-.63Z" fill="#FF7F30"/><path d="m147.409 31.774-14.761-2.737 9.185.762-3.883-2.449-2.21-.147 2.037-.651.177-1.102.041 1.24-1.101.32 1.177.065 4.998 3.13-4.795-.425 9.257 1.813-.122.181Z" fill="#FF7F30"/></svg>