<svg width="20" height="20" fill="none" xmlns="http://www.w3.org/2000/svg"><path fill-rule="evenodd" clip-rule="evenodd" d="M14.223 2.418a17.338 17.338 0 0 0-7.565 0l-.268.059a3.883 3.883 0 0 0-2.916 2.834 15.411 15.411 0 0 0 0 7.582A3.883 3.883 0 0 0 6.2 15.68l.368 2.197a.396.396 0 0 0 .654.23l2.162-1.934a17.333 17.333 0 0 0 4.839-.386l.269-.06a3.884 3.884 0 0 0 2.916-2.833 15.413 15.413 0 0 0 0-7.582 3.883 3.883 0 0 0-2.917-2.834l-.268-.06ZM7.327 5.247a.65.65 0 0 0-.426.084h-.01a3.252 3.252 0 0 0-.793.651c-.19.22-.293.441-.32.655a.9.9 0 0 0 .033.376l.014.008a9.4 9.4 0 0 0 .833 1.8c.439.799.979 1.537 1.607 2.197l.019.027.03.022.018.022.022.019c.663.63 1.403 1.172 2.203 1.615.914.498 1.469.733 1.802.83v.006a.92.92 0 0 0 .276.043c.284-.02.552-.136.763-.328.257-.227.475-.496.644-.794v-.006c.16-.3.106-.584-.124-.777a9.61 9.61 0 0 0-1.49-1.068c-.354-.193-.714-.076-.86.119l-.31.392c-.16.195-.45.168-.45.168l-.008.005c-2.162-.552-2.74-2.741-2.74-2.741s-.026-.298.174-.45l.39-.313c.186-.152.316-.512.116-.866a9.346 9.346 0 0 0-1.067-1.489.592.592 0 0 0-.348-.208l.002.001Zm3.652-.952a.396.396 0 1 0 0 .792c1.002 0 1.833.327 2.49.954a3.49 3.49 0 0 1 1.007 2.592.395.395 0 1 0 .792.033 4.244 4.244 0 0 0-.286-1.718 4.309 4.309 0 0 0-.953-1.467l-.008-.008c-.816-.78-1.85-1.178-3.042-1.178Zm-.027 1.302a.396.396 0 1 0 0 .792h.014c.722.051 1.248.292 1.616.687.377.407.573.913.558 1.538a.396.396 0 1 0 .791.018c.02-.82-.245-1.53-.77-2.095v-.001c-.535-.575-1.27-.879-2.156-.938l-.013-.002h-.04Zm-.015 1.326a.396.396 0 1 0-.04.79c.33.017.541.117.675.251.133.135.233.35.251.689a.397.397 0 0 0 .695.252.396.396 0 0 0 .095-.294c-.025-.475-.174-.895-.479-1.204-.306-.308-.723-.459-1.197-.484Z" fill="#BDBDC0"/></svg>