<svg width="47" height="16" fill="none" xmlns="http://www.w3.org/2000/svg"><path fill-rule="evenodd" clip-rule="evenodd" d="M23.317 1.057 20.25 14.984h-3.71l3.07-13.927h3.708-.001Zm15.604 8.992 1.953-5.23 1.123 5.23H38.92Zm4.138 4.935h3.43L43.497 1.057H40.33a1.69 1.69 0 0 0-1.58 1.022l-5.564 12.905h3.895l.773-2.08h4.759l.446 2.08Zm-9.68-4.548c.017-3.676-5.232-3.88-5.196-5.52.01-.5.5-1.032 1.573-1.168.532-.067 1.995-.12 3.657.624l.65-2.953A10.216 10.216 0 0 0 30.595.8c-3.666 0-6.246 1.893-6.268 4.604-.023 2.005 1.84 3.124 3.247 3.79 1.445.683 1.93 1.12 1.924 1.73-.01.936-1.153 1.348-2.22 1.364-1.864.029-2.946-.49-3.81-.88l-.671 3.052c.866.387 2.466.723 4.125.74 3.896 0 6.445-1.87 6.458-4.765h-.001Zm-15.361-9.38L12.01 14.985H8.089L5.129 3.869c-.18-.684-.335-.935-.881-1.223-.89-.47-2.363-.91-3.66-1.184l.09-.405h6.31c.804 0 1.528.52 1.71 1.42l1.563 8.06 3.859-9.48h3.898Z" fill="#C9C9C9"/></svg>