<svg width="42" height="22" fill="none" xmlns="http://www.w3.org/2000/svg"><path d="M.489 9.275h41v9c0 .796-.32 1.56-.89 2.122a3.056 3.056 0 0 1-2.147.878H3.526a3.056 3.056 0 0 1-2.148-.878 2.982 2.982 0 0 1-.89-2.122v-9Z" fill="#C9C9C9"/><path d="M14.117 15.974a1.4 1.4 0 0 0 .664.172c.318 0 .497-.148.497-.367 0-.205-.139-.324-.485-.449-.455-.155-.745-.395-.745-.778 0-.444.375-.776.974-.776.297 0 .512.064.655.132l-.118.4a1.212 1.212 0 0 0-.55-.128c-.318 0-.452.164-.452.323 0 .208.16.304.526.44.476.18.704.416.704.799 0 .436-.334.808-1.039.808-.293 0-.593-.08-.744-.168l.114-.408Zm3.617-.66H16.7v.792h1.156v.403h-1.658v-2.693h1.596v.403h-1.095v.696h1.034v.4Zm2.488 1.115c-.118.055-.378.12-.712.12-.872 0-1.401-.536-1.401-1.355 0-.887.63-1.419 1.47-1.419.33 0 .562.064.663.116l-.106.392a1.373 1.373 0 0 0-.537-.104c-.558 0-.96.344-.96.991 0 .591.35.967.956.967.2 0 .411-.04.547-.096l.08.388Zm.884-2.613v1.57c0 .528.224.771.562.771.363 0 .578-.243.578-.77v-1.571h.501v1.538c0 .831-.436 1.199-1.095 1.199-.635 0-1.047-.348-1.047-1.195v-1.542h.502Zm2.176.04c.19-.036.468-.06.757-.06.395 0 .659.063.846.216.15.123.236.31.236.543 0 .347-.24.583-.5.67v.013c.2.072.318.26.383.52.089.335.162.647.215.751h-.513c-.04-.08-.11-.3-.183-.636-.082-.352-.208-.463-.493-.47h-.252v1.106h-.497v-2.653Zm.496 1.186h.297c.338 0 .545-.176.545-.443 0-.293-.207-.432-.533-.432-.16 0-.26.012-.31.024v.851Zm3.315.272h-1.035v.792h1.157v.403h-1.658v-2.693h1.596v.403h-1.095v.696h1.035v.4Z" fill="#fff"/><path d="m17.976.824-2.285 5.368h-1.492l-1.126-4.284c-.068-.263-.127-.36-.335-.472-.339-.18-.9-.35-1.392-.456l.034-.156h2.4c.306 0 .581.2.652.548l.593 3.106L16.494.825h1.482Zm5.845 3.615c.006-1.416-1.99-1.494-1.977-2.127.004-.192.19-.398.598-.45.202-.026.76-.046 1.392.24L24.08.964a3.858 3.858 0 0 0-1.32-.238c-1.395 0-2.377.73-2.384 1.775-.01.772.701 1.203 1.235 1.46.55.263.734.433.732.668-.004.36-.44.52-.844.525-.71.01-1.122-.189-1.45-.339l-.256 1.177c.33.148.939.277 1.57.285 1.483 0 2.451-.722 2.457-1.838Zm3.683 1.753h1.305L27.67.824h-1.204a.648.648 0 0 0-.6.394l-2.119 4.974h1.483l.294-.802h1.81l.171.802Zm-1.575-1.901.743-2.016.427 2.016h-1.17ZM19.993.824l-1.167 5.368h-1.411L18.582.824h1.41Z" fill="#C9C9C9"/></svg>