<svg width="128" height="31" fill="none" xmlns="http://www.w3.org/2000/svg"><g clip-path="url(#a)"><path d="M8.885 8.09c-.226 0-.377.152-.377.378V22.23c0 .227.15.378.377.378h2.258c.226 0 .377-.15.377-.378V8.47c0-.227-.15-.379-.377-.379H8.886Zm10.767 5.444c0 .227-.15.378-.377.378h-5.044a.325.325 0 0 0-.302.302v2.42c0 .151.151.302.302.302h5.044c.226 0 .377.151.377.378v1.059a.763.763 0 0 1-.076.227l-.978.907c-.076.076-.15.076-.226.076h-5.045c-.15 0-.301.15-.301.302v2.571c0 .151.15.302.301.302h6.024c.075 0 .15 0 .226-.075l2.936-2.722c.075-.076.075-.152.075-.227V16.86c0-.076 0-.152-.075-.227l-.904-.908v-.151l.904-.907c.075-.076.075-.151.075-.227v-3.25c0-.076 0-.151-.075-.227l-2.937-2.722c-.075-.075-.15-.075-.225-.075h-6.024c-.15 0-.301.15-.301.302v2.571c0 .15.15.302.301.302h5.045c.075 0 .15 0 .226.076l.979.907c.075.076.075.151.075.227v.983Z" fill="#DB1915"/><path d="M27.859 15.349c0 6.956-5.647 12.627-12.574 12.627S2.71 22.305 2.71 15.349 8.358 2.722 15.285 2.722s12.574 5.67 12.574 12.627ZM15.285 0C6.852 0 0 6.88 0 15.349c0 8.468 6.852 15.349 15.285 15.349s15.284-6.88 15.284-15.35C30.57 6.88 23.718 0 15.285 0Zm26.654 11.643c0-.076.075-.151.15-.151h5.271c.377 0 .678.075.904.302.225.151.3.454.3.832 0 .756-.376 1.058-1.204 1.058h-5.27c-.076 0-.151-.075-.151-.15v-1.891Zm5.044-1.89h-4.969c-.075 0-.15-.076-.15-.152V8.014c0-.076.075-.152.15-.152h4.97c1.054 0 1.204.53 1.204 1.059 0 .302-.15.832-1.205.832Zm2.56.831c-.075-.075-.075-.15 0-.226.302-.303.528-.757.528-1.513 0-.907-.302-1.587-.904-2.117-.527-.453-1.28-.68-2.108-.68h-6.777c-.075 0-.15.075-.15.151v8.922c0 .076.075.151.15.151h7.078c1.958 0 3.012-.983 3.012-2.797 0-.53-.15-.983-.377-1.361-.15-.152-.3-.378-.451-.53Zm10.617 1.665c0 .756-.15 1.21-.452 1.285-.15.076-.753.227-2.86.227-1.206 0-1.959-.076-2.335-.151-.527-.152-.828-.454-.979-1.059-.075-.302-.075-.907-.075-1.815 0-1.134.075-1.89.226-2.268.15-.378.376-.605.828-.68.301-.076 1.13-.152 2.334-.152 2.108 0 2.71.152 2.861.227.301.152.452.605.452 1.286 0 .075.075.15.15.15h1.506c.076 0 .151-.075.151-.15 0-.908-.15-1.588-.527-2.117-.377-.605-1.054-.983-2.033-1.059-.301-.076-1.205-.076-2.56-.076-1.506 0-2.485.076-3.087.227-.904.227-1.506.908-1.807 1.89-.15.53-.226 1.437-.226 2.571 0 1.21.075 2.042.226 2.571.301.983.903 1.663 1.807 1.89.602.152 1.657.227 3.087.227 1.355 0 2.259 0 2.56-.075.979-.076 1.657-.454 2.033-1.06.301-.453.527-1.209.527-2.116 0-.076-.075-.151-.15-.151H60.31c0 .15-.151.302-.151.378Zm28.762 0c0 .756-.15 1.21-.451 1.285-.151.076-.753.227-2.862.227-1.204 0-1.957-.076-2.334-.151-.527-.152-.828-.454-.979-1.059-.075-.302-.075-.907-.075-1.815 0-1.134.075-1.89.226-2.268.15-.378.376-.605.828-.68.301-.076 1.13-.152 2.334-.152 2.109 0 2.711.152 2.862.227.3.152.451.605.451 1.286 0 .075.076.15.15.15h1.507c.075 0 .15-.075.15-.15 0-.908-.15-1.588-.527-2.117-.376-.605-1.054-.983-2.033-1.059-.3-.076-1.204-.076-2.56-.076-1.505 0-2.484.076-3.087.227-.903.227-1.506.908-1.807 1.89-.15.53-.226 1.437-.226 2.571 0 1.21.076 2.042.226 2.571.301.983.904 1.663 1.807 1.89.603.152 1.657.227 3.087.227 1.356 0 2.26 0 2.56-.075.98-.076 1.657-.454 2.033-1.06.302-.453.527-1.209.527-2.116 0-.076-.075-.151-.15-.151h-1.506c-.075.15-.15.302-.15.378Zm-25.148 3.099h8.508c.076 0 .15-.076.15-.151V13.76c0-.076-.074-.151-.15-.151h-6.7c-.076 0-.151-.076-.151-.151v-1.815c0-.076.075-.151.15-.151h6.475c.076 0 .151-.076.151-.152V9.905c0-.076-.075-.151-.15-.151H65.58c-.075 0-.15-.076-.15-.152V7.938c0-.076.075-.151.15-.151h6.701c.076 0 .15-.076.15-.151V6.199c0-.076-.074-.151-.15-.151h-8.508c-.075 0-.15.075-.15.151v8.922c0 .151.075.227.15.227Zm30.494-3.705c0-.076.076-.151.15-.151h5.271c.377 0 .678.075.904.302.226.151.301.454.301.832 0 .756-.376 1.058-1.205 1.058h-5.27a.161.161 0 0 1-.15-.15v-1.891Zm5.12-1.89h-4.97c-.075 0-.15-.076-.15-.152V8.014c0-.076.076-.152.15-.152h4.97c1.054 0 1.205.53 1.205 1.059 0 .302-.151.832-1.205.832Zm2.485.831c-.075-.075-.075-.15 0-.226.301-.303.527-.757.527-1.513 0-.907-.301-1.587-.904-2.117-.527-.453-1.204-.68-2.108-.68h-6.776c-.075 0-.15.075-.15.151v8.922c0 .076.075.151.15.151h7.077c1.958 0 3.012-.983 3.012-2.797 0-.53-.15-.983-.376-1.361a1.422 1.422 0 0 0-.452-.53Zm7.981-2.872c2.485 0 3.162.227 3.388.378.151.075.452.605.452 2.646 0 .983-.075 1.588-.15 1.89-.151.605-.528.908-1.13 1.059-.15 0-.753.075-2.485.075-1.355 0-2.183 0-2.484-.075-.603-.076-.979-.454-1.13-1.059-.075-.302-.15-.983-.15-1.89 0-.983.075-1.588.15-1.89.151-.605.527-.983 1.13-1.059.15-.075.979-.075 2.409-.075Zm2.937-1.588c-.527-.076-1.506-.151-2.937-.151-1.43 0-2.409.075-3.012.15-1.355.228-2.183.833-2.409 1.74-.151.454-.226 1.436-.226 2.873 0 1.437.075 2.42.226 2.873.301.908 1.129 1.512 2.409 1.74.527.075 1.506.15 3.012.15s2.485-.075 2.937-.15c1.355-.228 2.183-.832 2.409-1.74.151-.453.226-1.436.226-2.873 0-1.437-.075-2.42-.226-2.873-.226-.907-1.054-1.512-2.409-1.74Zm12.574 0-6.174 6.956c-.076.076-.302 0-.302-.075v-6.73c0-.075-.075-.151-.15-.151h-1.506c-.075 0-.151.076-.151.151v8.922c0 .076.076.151.151.151h2.108c.075 0 .075 0 .075-.075l6.099-6.805c.076-.076.226 0 .226.076v6.653c0 .076.075.151.151.151h1.506c.075 0 .15-.075.15-.15V6.274c0-.075-.075-.151-.15-.151h-2.033Z" fill="#DB1915"/><path d="M52.179 26.085h-.527v-3.402l-3.389 3.402h-.828v-3.932h.527v3.478l3.389-3.478h.828v3.932Zm4.894-3.402H55.34v3.402h-.602v-3.402h-1.732v-.53h4.066v.53Zm5.346 3.402h-.602v-1.739h-3.389v1.739h-.602v-3.932h.602v1.664h3.389v-1.664h.602v3.932Zm4.668 0h-3.69v-3.932h3.69v.53h-3.162v1.134h3.087v.529h-3.087v1.21h3.162v.529Zm5.421-1.361c0 .454-.075.756-.226.983-.15.227-.451.378-.828.454h-1.13c-.677 0-1.129 0-1.355-.076-.376-.076-.602-.378-.752-.756-.076-.227-.076-.605-.076-1.134 0-.53 0-.907.075-1.134.151-.378.377-.68.753-.756.226-.076.678-.076 1.356-.076h1.13c.376.076.677.227.827.454.15.227.226.529.226.983h-.602c0-.454-.075-.68-.301-.756-.15-.076-.603-.152-1.356-.152-.527 0-.903 0-1.054.076-.226.076-.376.151-.451.378-.076.151-.076.53-.076 1.058 0 .454 0 .757.075.832.076.303.226.53.528.605.15 0 .527.076 1.054.076.753 0 1.204 0 1.355-.076.15-.076.301-.378.301-.756h.527v-.227Zm2.786-.378h-1.957v-.53h1.957v.53Zm5.722 1.739h-.903l-2.635-1.815h-.603v1.815h-.527v-3.932h.527v1.588h.603l2.41-1.588h.978l-2.71 1.815 2.86 2.117Zm5.271 0h-.602v-3.402h-2.862v.756c0 1.739-.225 2.646-.677 2.646h-.603v-.53h.226c.302 0 .452-.604.452-1.738v-1.739h3.99v4.007h.076Zm6.25-3.932-1.883 3.252c-.301.453-.677.68-1.28.68h-1.28v-.53h1.28c.301 0 .527-.075.678-.302l-2.861-3.1h.828l2.334 2.647 1.506-2.647h.678Zm4.517 2.797c0-.226-.075-.302-.15-.453-.151-.075-.302-.151-.452-.151h-2.56v1.21h2.56c.226 0 .376-.076.451-.152.076-.15.151-.302.151-.453Zm.527 0c0 .757-.376 1.135-1.205 1.135h-3.162v-3.932h3.99v.53h-3.387v1.134h2.56c.828 0 1.204.378 1.204 1.134Zm-51.878-.15c-.075.15-.3.226-.602.226h-1.506v-2.343h1.506c.301 0 .527.075.602.226.076.152.151.379.151.68v.455c0 .378-.075.604-.15.756Zm-4.216.226c-.301 0-.527-.075-.602-.226a1.515 1.515 0 0 1-.15-.68v-.454c0-.303.074-.53.15-.681.075-.151.3-.227.602-.227h1.506v2.344h-1.506v-.076Zm4.593-2.646c-.15-.151-.527-.227-.979-.227h-3.614c-.452 0-.753.076-.979.227-.226.227-.376.605-.376 1.21v.454c0 .604.15.982.376 1.21.15.15.527.226.98.226h1.505v.53h.602v-.53h1.506c.452 0 .753-.076.979-.227.226-.227.377-.605.377-1.21v-.453c0-.605-.151-.983-.377-1.21Z" fill="#fff"/></g><defs><clipPath id="a"><path fill="#fff" d="M0 0h128v31H0z"/></clipPath></defs></svg>