<svg width="19" height="20" fill="none" xmlns="http://www.w3.org/2000/svg"><path d="m1.586 17.917 1.07-3.933a7.917 7.917 0 1 1 2.861 2.86l-3.93 1.073ZM6.643 6.285a.76.76 0 0 0-.294.08c-.086.048-.164.11-.233.18-.095.09-.148.167-.206.242a2.16 2.16 0 0 0-.448 1.329c.002.388.103.765.262 1.118.324.715.856 1.47 1.56 2.171.17.169.335.338.513.496a7.48 7.48 0 0 0 3.04 1.62l.45.068c.147.008.293-.003.44-.01.231-.012.456-.074.66-.183a3.82 3.82 0 0 0 .303-.174s.034-.022.1-.071c.106-.08.172-.136.26-.228a.91.91 0 0 0 .167-.24c.062-.128.123-.374.149-.58.019-.156.013-.242.01-.295-.002-.085-.073-.172-.15-.21l-.46-.206s-.69-.3-1.11-.492a.396.396 0 0 0-.14-.032.383.383 0 0 0-.299.1v-.001c-.004 0-.057.045-.63.738a.277.277 0 0 1-.29.103 1.107 1.107 0 0 1-.152-.052c-.098-.041-.132-.057-.2-.086l-.003-.002a4.758 4.758 0 0 1-1.243-.792c-.1-.087-.193-.182-.288-.274A4.982 4.982 0 0 1 7.604 9.6l-.047-.076a.73.73 0 0 1-.08-.162c-.03-.116.048-.21.048-.21s.192-.21.282-.324c.074-.095.144-.194.208-.296.093-.15.123-.304.073-.424a65.918 65.918 0 0 0-.687-1.616c-.046-.106-.185-.182-.31-.197a3.521 3.521 0 0 0-.13-.012 2.68 2.68 0 0 0-.318.003Z" fill="#BDBDC0"/></svg>