<svg width="50" height="50" fill="none" xmlns="http://www.w3.org/2000/svg"><g fill="#fff" clip-path="url(#a)"><path d="M3.554 25c0 8.49 4.933 15.826 12.087 19.302l-10.23-28.03A21.366 21.366 0 0 0 3.554 25Zm35.926-1.082c0-2.65-.953-4.486-1.77-5.915-1.087-1.767-2.106-3.263-2.106-5.03 0-1.971 1.496-3.806 3.602-3.806.095 0 .185.011.278.017A21.368 21.368 0 0 0 25 3.554c-7.493 0-14.085 3.844-17.92 9.667.503.015.978.025 1.38.025 2.244 0 5.716-.272 5.716-.272 1.156-.068 1.293 1.63.138 1.767 0 0-1.162.137-2.455.204l7.81 23.231L24.364 24.1l-3.342-9.156a39.009 39.009 0 0 1-2.249-.204c-1.155-.068-1.02-1.835.136-1.767 0 0 3.542.273 5.649.273 2.243 0 5.716-.273 5.716-.273 1.157-.068 1.293 1.63.137 1.767 0 0-1.164.137-2.454.204L35.707 38l2.14-7.148c.927-2.967 1.632-5.097 1.632-6.933Z"/><path d="m25.377 26.876-6.435 18.699a21.446 21.446 0 0 0 13.18-.342 1.881 1.881 0 0 1-.152-.296l-6.593-18.061ZM43.82 14.71c.092.683.144 1.417.144 2.206 0 2.176-.406 4.622-1.63 7.682l-6.552 18.94C42.16 39.82 46.447 32.914 46.447 25a21.34 21.34 0 0 0-2.627-10.29Z"/><path d="M25 0C11.217 0 0 11.215 0 25c0 13.787 11.216 25.001 25 25.001 13.785 0 25.003-11.214 25.003-25.001C50.003 11.215 38.785 0 25 0Zm0 48.855C11.849 48.855 1.147 38.154 1.147 25c0-13.153 10.701-23.854 23.855-23.854 13.152 0 23.853 10.701 23.853 23.854 0 13.154-10.7 23.855-23.853 23.855Z"/></g><defs><clipPath id="a"><path fill="#fff" d="M0 0h50v50.001H0z"/></clipPath></defs></svg>