<svg width="100" height="54" fill="none" xmlns="http://www.w3.org/2000/svg"><g clip-path="url(#a)"><path d="M3.333 16.674c.304-1.347 3.598-14.61 13.368-14.79 8.66-.165 10.559 13.799 10.559 13.799s6.683-5.119 11.39-8.177C42.998 4.677 49.032.54 52.432 0c0 0-6.993 6.197-12.813 11.262-2.846 2.479-9.543 8.861-11.52 10.742 0 0 1.547 18.43-11.05 24.934 0 0 3.677-10.127 2.904-17.415 0 0-7.296 7.544-18.04 24.477 0 0-1.837-1.441-1.911-5.453C-.091 43.428 3.497 35.194 18.9 21.62c0 0-1.138-13.053-6.885-12.932-5.253.097-7.98 8.352-7.98 8.352l-.705-.364.003-.003Zm60.463 11.529a2.823 2.823 0 0 1-.954 1.683 2.72 2.72 0 0 1-1.797.648c-1.388 0-2.505-1.183-2.27-2.536.137-.67.496-1.27 1.017-1.7a2.867 2.867 0 0 1 1.842-.66 2.163 2.163 0 0 1 1.658.776 2.259 2.259 0 0 1 .504 1.789Z" fill="#2DE000"/><path d="M86.685 15.589a3.128 3.128 0 0 1-1.047 1.754 3.017 3.017 0 0 1-1.888.708c-1.386 0-2.323-1.096-2.088-2.449a3.13 3.13 0 0 1 1.051-1.743 3.02 3.02 0 0 1 1.884-.703c1.386 0 2.323 1.096 2.088 2.446v-.013Zm-26.901 5.226h-4.81l-3.331 4.451-1.8-4.45h-4.507l3.237 7.444-6.293 7.845h4.983l3.633-4.717 1.845 4.717h4.725l-3.524-7.862 5.842-7.428Zm22.868 15.29h-4.028l2.737-15.29h4.028l-2.737 15.29Zm-7.521-18.973h3.96l.678-3.963h-4.952c-3.387 0-5.612 2.694-6.087 5.388-.36 1.997-2.872 17.545-2.872 17.545h4.028l1.848-11.316h5.75l.68-3.966h-5.778c.105-.63.174-1.053.195-1.185.211-1.29 1.138-2.498 2.55-2.498v-.005Zm17.288 7.654h6.216l.62-3.968H93.13c.702-3.923 1.375-7.65 1.375-7.65H90.46s-2.61 14.655-2.954 16.651c-.686 4.001 1.246 6.286 5.657 6.286h3.592l.679-3.963h-4.192c-1.53 0-1.993-1.164-1.723-2.444.094-.46.459-2.46.9-4.912Zm6.573 9.944h-.172V35h.172c.092 0 .113-.032.113-.1v-.067c-.005-.078-.035-.102-.113-.102Zm-.032.462h-.14v.315h-.206v-.97h.378c.21 0 .309.094.309.27v.104a.247.247 0 0 1-.03.139.236.236 0 0 1-.102.096l.245.355h-.24l-.225-.315.01.005Zm0 .627c.2 0 .392-.081.534-.226a.777.777 0 0 0 0-1.09.748.748 0 0 0-1.068 0 .78.78 0 0 0 0 1.09.749.749 0 0 0 .534.226Zm0-1.826c.205-.002.406.06.577.175a1.064 1.064 0 0 1 .444 1.084c-.04.206-.138.394-.283.543a1.017 1.017 0 0 1-1.13.23 1.05 1.05 0 0 1-.464-.391 1.077 1.077 0 0 1-.174-.588 1.032 1.032 0 0 1 .284-.752.992.992 0 0 1 .732-.301h.014Z" fill="#FEFEFE"/><path d="m42.456 42.03-.79-.003.11-.64.711.006a.521.521 0 0 0 .482-.3.922.922 0 0 0 .093-.297c.01-.081.012-.167.003-.258a.475.475 0 0 0-.083-.237c-.044-.067-.117-.103-.216-.11l-.547-.006-.541 3.192h-.735l.647-3.831 1.21.003c.228.007.42.066.577.178.158.111.273.26.345.445.074.186.102.392.083.618a1.403 1.403 0 0 1-.217.658c-.12.184-.277.328-.472.432a1.379 1.379 0 0 1-.66.15Zm2.736-2.484 1.135.003c.225.007.414.057.567.15a.825.825 0 0 1 .343.389c.075.167.103.365.084.594a1.5 1.5 0 0 1-.12.503 1.142 1.142 0 0 1-.269.374 1.7 1.7 0 0 1-.422.276l-.25.137h-.985l.108-.64.624.006a.543.543 0 0 0 .294-.082.553.553 0 0 0 .19-.213.847.847 0 0 0 .093-.297 1.11 1.11 0 0 0 .003-.25.393.393 0 0 0-.078-.213c-.044-.058-.115-.09-.214-.095l-.471-.003-.541 3.192h-.738l.647-3.831Zm1.021 3.83-.379-1.707.742-.002.423 1.668v.042h-.786Zm4.053-.636-.11.637h-1.584l.106-.637h1.588Zm-.814-3.194-.65 3.83h-.737l.647-3.83h.74Zm.881 1.552-.106.619h-1.374l.103-.619h1.377Zm.47-1.552-.112.64h-1.58l.111-.64h1.58Zm1.457 0h.6l.227 2.765 1.157-2.765h.642l-1.711 3.83h-.503l-.413-3.83Zm-.346 0h.619l-.356 2.82-.175 1.01h-.735l.647-3.83Zm2.676 0h.621l-.65 3.83h-.737l.186-1.078.58-2.752Zm2.66 0-.651 3.83h-.735l.652-3.83h.735Zm2.94 0h.735l-.438 2.628a1.71 1.71 0 0 1-.227.674c-.115.19-.27.335-.462.437-.192.101-.419.15-.68.147a1.164 1.164 0 0 1-.616-.166.887.887 0 0 1-.35-.44 1.416 1.416 0 0 1-.063-.649l.438-2.631h.733l-.431 2.634a1.447 1.447 0 0 0-.005.297c.009.091.04.166.093.224.053.056.14.086.263.092a.503.503 0 0 0 .309-.071.479.479 0 0 0 .178-.221c.041-.097.071-.204.09-.321l.433-2.634Zm2.32 0h.602l.226 2.765 1.158-2.765h.642l-1.712 3.83h-.503l-.412-3.83Zm-.344 0h.618l-.356 2.82-.175 1.01h-.735l.648-3.83Zm2.675 0h.622l-.65 3.83h-.737l.185-1.078.58-2.752Zm4.129 3.831h-.68l.112-.637.604.003c.203.001.364-.04.484-.127a.792.792 0 0 0 .274-.352 2.2 2.2 0 0 0 .131-.505l.083-.6c.013-.11.023-.222.028-.334a1.009 1.009 0 0 0-.026-.31.416.416 0 0 0-.144-.23.508.508 0 0 0-.315-.097l-.704-.003.111-.64.624.004c.227.005.42.052.578.142.158.09.284.21.379.36.096.15.16.322.193.513s.036.392.01.603l-.087.594a2.492 2.492 0 0 1-.183.637 1.784 1.784 0 0 1-.338.516 1.478 1.478 0 0 1-1.134.463Zm.397-3.831-.65 3.83h-.737l.647-3.83h.74Zm4.478 0h.735l-.439 2.628a1.71 1.71 0 0 1-.226.674c-.116.19-.27.335-.462.437a1.41 1.41 0 0 1-.68.147 1.163 1.163 0 0 1-.617-.166.887.887 0 0 1-.35-.44 1.416 1.416 0 0 1-.062-.649l.438-2.631h.732l-.43 2.634a1.447 1.447 0 0 0-.005.297.37.37 0 0 0 .093.224c.053.056.14.086.263.092a.503.503 0 0 0 .309-.071.48.48 0 0 0 .178-.221c.041-.097.071-.204.09-.321l.433-2.634Zm3.048 2.802a.53.53 0 0 0-.008-.205.355.355 0 0 0-.077-.153.569.569 0 0 0-.135-.12 1.266 1.266 0 0 0-.18-.103 2.76 2.76 0 0 1-.345-.203 1.575 1.575 0 0 1-.284-.25.958.958 0 0 1-.23-.726 1.121 1.121 0 0 1 .418-.81 1.356 1.356 0 0 1 .864-.285 1 1 0 0 1 .567.169.942.942 0 0 1 .34.423c.076.176.11.373.103.593l-.734-.003c.005-.084 0-.17-.016-.255a.386.386 0 0 0-.098-.21c-.05-.057-.126-.086-.23-.088a.45.45 0 0 0-.239.063.48.48 0 0 0-.167.166.607.607 0 0 0-.083.237.36.36 0 0 0 .02.184.52.52 0 0 0 .099.148.961.961 0 0 0 .304.202c.129.065.247.135.356.21.11.074.202.16.278.256a.885.885 0 0 1 .168.329c.036.124.048.266.038.426a1.203 1.203 0 0 1-.126.468 1.083 1.083 0 0 1-.663.555c-.146.048-.302.07-.469.066a1.254 1.254 0 0 1-.48-.102 1.027 1.027 0 0 1-.355-.266 1.134 1.134 0 0 1-.211-.4 1.428 1.428 0 0 1-.055-.497l.735.002a1.6 1.6 0 0 0 .003.24.526.526 0 0 0 .056.202.36.36 0 0 0 .134.14.448.448 0 0 0 .233.052c.09 0 .169-.019.234-.057a.457.457 0 0 0 .157-.164.635.635 0 0 0 .078-.234Zm4.14-1.25-.11.637h-1.498l.108-.637h1.5Zm-1.023-1.552-.65 3.83h-.737l.647-3.83h.74Zm1.817 0-.652 3.83h-.73l.653-3.83h.73Zm2.525.721-1.302 3.11h-.8l1.79-3.831h.502l-.19.72Zm.095 3.11-.258-3.173.041-.658h.477l.498 3.83h-.758Zm.266-1.429-.111.64h-1.65l.11-.64h1.65Zm4.733-2.402-.652 3.83h-.72l-.66-2.551-.432 2.552h-.738l.647-3.831h.722l.665 2.555.433-2.555h.735Zm2.164 2.16h-.779l.096-.558.602.005a.612.612 0 0 0 .268-.06.473.473 0 0 0 .186-.171.648.648 0 0 0 .09-.266.732.732 0 0 0 0-.234.246.246 0 0 0-.09-.163.345.345 0 0 0-.213-.071l-.426-.003-.541 3.192h-.738l.648-3.831 1.087.003c.158.003.303.027.433.07a.858.858 0 0 1 .333.193.78.78 0 0 1 .209.318c.046.126.063.274.05.445a.991.991 0 0 1-.154.492.902.902 0 0 1-.348.307 1.22 1.22 0 0 1-.492.127l-.221.205Zm-.302 1.67h-.98l.394-.633.622.002a.493.493 0 0 0 .436-.258.72.72 0 0 0 .087-.268c.01-.074.013-.148.008-.224a.372.372 0 0 0-.064-.194c-.038-.055-.104-.085-.197-.092l-.664-.003.1-.558.746.003.125.218a.677.677 0 0 1 .398.124.64.64 0 0 1 .221.308c.045.126.06.269.05.429-.017.249-.081.46-.195.631-.111.17-.26.3-.448.39-.187.087-.4.13-.639.126Zm4.522-.636-.11.637h-1.583l.105-.637h1.588Zm-.815-3.194-.649 3.83h-.737l.647-3.83h.74Zm.882 1.552-.106.619h-1.373l.102-.619h1.377Zm.469-1.552-.11.64h-1.581l.11-.64h1.581Z" fill="#fff"/></g><defs><clipPath id="a"><path fill="#fff" d="M0 0h100v54H0z"/></clipPath></defs></svg>