<svg width="86" height="70" viewBox="0 0 86 70" fill="none" xmlns="http://www.w3.org/2000/svg">
<g id="zaruba 1" clip-path="url(#clip0_245_2664)">
<path id="Vector" fill-rule="evenodd" clip-rule="evenodd" d="M10.7484 52.6367V50.2054H3.77857L10.7484 40.8237V38.6597H0.344733V41.091H6.99546L0.0511169 50.4345V52.6367H10.7484ZM26.1179 52.6367L20.182 38.6597H17.6928L11.7697 52.6367H15.0887L16.0716 50.1672H21.8543L22.8117 52.6367H26.1179ZM21.0117 47.8759H16.9652L19.0204 42.7968L21.0117 47.8759ZM40.4534 52.6367L36.8153 46.6156C38.3981 46.1192 39.7896 44.9099 39.7896 42.9495C39.7896 40.62 37.8237 38.6724 34.5047 38.6724H28.1349V52.6495H31.3134V47.0739H33.5984L36.7769 52.6495H40.4534V52.6367ZM36.611 42.9495C36.611 44.0316 35.6919 44.7953 34.3005 44.7953H31.3134V41.1037H34.3005C35.7047 41.1037 36.611 41.8675 36.611 42.9495ZM54.8014 47.8504V38.6724H51.6485V47.7613C51.6485 49.3652 50.5252 50.3327 48.8147 50.3327C47.1041 50.3327 46.0063 49.3652 46.0063 47.7613V38.6724H42.8277V47.8504C42.8277 50.8164 45.4829 52.7513 48.8147 52.7513C52.1464 52.764 54.8014 50.8164 54.8014 47.8504ZM70.133 48.6142C70.133 46.7557 68.8817 45.8646 67.8986 45.47C68.7156 45.139 69.9159 44.1334 69.9159 42.5804C69.9159 40.1872 68.0647 38.6597 64.8865 38.6597H58.3505V52.6367H65.1541C68.0518 52.6367 70.133 51.2238 70.133 48.6142ZM66.9542 48.4869C66.9542 49.4289 66.2646 50.2181 64.8225 50.2181H61.5034V46.7811H64.8225C66.2775 46.7811 66.9542 47.5449 66.9542 48.4869ZM66.7371 42.7077C66.7371 43.6751 65.984 44.3116 64.6312 44.3116H61.5163V41.091H64.6312C65.9711 41.1037 66.7371 41.753 66.7371 42.7077ZM85.9489 52.6367L80.0133 38.6597H77.5236L71.6009 52.6367H74.92L75.9025 50.1672H81.6855L82.6428 52.6367H85.9489ZM80.8303 47.8759H76.7835L78.8389 42.7968L80.8303 47.8759Z" fill="white"/>
<path id="Vector_2" fill-rule="evenodd" clip-rule="evenodd" d="M10.7484 50.2055H10.7994V50.1546H10.7484V50.2055ZM3.77853 50.2055L3.74023 50.18L3.67642 50.2564H3.77853V50.2055ZM10.7484 40.8238L10.7867 40.8493L10.7994 40.8365V40.8238H10.7484ZM10.7484 38.6725H10.7994V38.6216H10.7484V38.6725ZM0.344689 38.6725V38.6216H0.293616V38.6725H0.344689ZM0.344689 41.1039H0.293616V41.1548H0.344689V41.1039ZM6.9954 41.1039L7.03373 41.1293L7.09753 41.053H6.9954V41.1039ZM0.0510722 50.4474L0.0127778 50.4219L0 50.4346V50.4474H0.0510722ZM0.0510722 52.6368H0V52.6878H0.0510722V52.6368ZM20.182 38.6725L20.2331 38.647L20.2203 38.6216H20.182V38.6725ZM17.6928 38.6725V38.6216H17.6545L17.6417 38.647L17.6928 38.6725ZM11.7696 52.6368L11.7186 52.6114L11.693 52.6878H11.7696V52.6368ZM15.0886 52.6368V52.6878H15.1269L15.1397 52.6496L15.0886 52.6368ZM16.0715 50.1673V50.1164H16.0332L16.0205 50.1546L16.0715 50.1673ZM21.8542 50.1673L21.9053 50.1546L21.8925 50.1164H21.8542V50.1673ZM22.8116 52.6368L22.7606 52.6496L22.7733 52.6878H22.8116V52.6368ZM21.0117 47.876V47.927H21.0883L21.0628 47.8633L21.0117 47.876ZM16.9651 47.876L16.9141 47.8633L16.8885 47.9396H16.9651V47.876ZM19.0204 42.7969L19.0714 42.7842L19.0204 42.6696L18.9693 42.7842L19.0204 42.7969ZM36.8152 46.6158L36.8025 46.5648L36.7386 46.5903L36.7769 46.6413L36.8152 46.6158ZM28.1348 38.6725V38.6216H28.0837V38.6725H28.1348ZM28.1348 52.6368H28.0837V52.6878H28.1348V52.6368ZM31.3134 52.6368V52.6878H31.3644V52.6368H31.3134ZM31.3134 47.074V47.0231H31.2623V47.074H31.3134ZM33.5984 47.074L33.6366 47.0486L33.6239 47.0231H33.5984V47.074ZM36.7769 52.6368L36.7259 52.6623L36.7386 52.6878H36.7641V52.6368H36.7769ZM31.3134 44.7954H31.2623V44.8464H31.3134V44.7954ZM31.3134 41.1039V41.053H31.2623V41.1039H31.3134ZM54.8014 38.6725H54.8524V38.6216H54.8014V38.6725ZM51.6485 38.6725V38.6216H51.5975V38.6725H51.6485ZM46.0062 38.6725H46.0573V38.6216H46.0062V38.6725ZM42.8277 38.6725V38.6216H42.7766V38.6725H42.8277ZM67.8986 45.4828L67.8734 45.4319L67.7583 45.4828L67.8734 45.5338L67.8986 45.4828ZM58.3505 38.6725V38.6216H58.2994V38.6725H58.3505ZM58.3505 52.6368H58.2994V52.6878H58.3505V52.6368ZM61.5163 50.2055H61.4653V50.2564H61.5163V50.2055ZM61.5163 46.7813V46.7303H61.4653V46.7813H61.5163ZM61.5163 44.3245H61.4653V44.3754H61.5163V44.3245ZM61.5163 41.1039V41.053H61.4653V41.1039H61.5163ZM80.0128 38.6725L80.0644 38.647L80.0515 38.6216H80.0128V38.6725ZM77.5113 38.6725V38.6216H77.4726L77.4602 38.647L77.5113 38.6725ZM71.6009 52.6368L71.5499 52.6114L71.524 52.6878H71.6009V52.6368ZM74.9071 52.6368V52.6878H74.9452L74.9581 52.6496L74.9071 52.6368ZM75.8896 50.1673V50.1164H75.8515L75.8386 50.1546L75.8896 50.1673ZM81.6726 50.1673L81.7237 50.1546L81.7108 50.1164H81.6726V50.1673ZM82.6299 52.6368L82.5788 52.6496L82.5917 52.6878H82.6299V52.6368ZM80.8303 47.876V47.927H80.9067L80.8814 47.8633L80.8303 47.876ZM76.7835 47.876L76.7324 47.8633L76.7066 47.9396H76.7835V47.876ZM78.8389 42.7969L78.89 42.7842L78.8389 42.6696L78.7878 42.7842L78.8389 42.7969ZM10.7994 52.6368H10.6973V50.2055H10.7994V52.6368ZM10.7484 50.1546V50.2564H3.77853V50.1546H10.7484ZM3.81686 50.2437L3.74023 50.18L10.7101 40.7984L10.7867 40.862L3.81686 50.2437ZM10.7994 40.8238H10.6973V38.6598H10.7994V40.8238ZM10.7484 38.6216V38.7235H0.344689V38.6216H10.7484ZM0.293616 38.6725H0.395722V41.1039H0.293616V38.6725ZM0.344689 41.1548V41.053H6.9954V41.1548H0.344689ZM6.95713 41.0784L7.03373 41.142L0.0893669 50.4855L0.0127778 50.4219L6.95713 41.0784ZM0 50.4474H0.102144V52.6496H0V50.4474ZM0.0510722 52.6878V52.5859H10.7484V52.6878H0.0510722ZM26.1689 52.6241L26.0796 52.6623L20.1437 38.6852L20.2331 38.647L26.1689 52.6241ZM20.182 38.6216V38.7235H17.6928V38.6216H20.182ZM17.6417 38.647L17.7311 38.6852L11.8079 52.6623L11.7186 52.6241L17.6417 38.647ZM11.7696 52.6878V52.5859H15.0886V52.6878H11.7696ZM15.1397 52.6623L15.0503 52.6241L16.0332 50.1546L16.1226 50.1928L15.1397 52.6623ZM16.0715 50.2183V50.1164H21.8542V50.2183H16.0715ZM21.8032 50.1928L21.8925 50.1546L22.8499 52.6241L22.7606 52.6623L21.8032 50.1928ZM22.8116 52.6878V52.5859H26.1306V52.6878H22.8116ZM21.0117 47.8251V47.927H16.9651V47.8251H21.0117ZM17.0034 47.8887L16.9141 47.8505L18.9693 42.7714L19.0586 42.8096L17.0034 47.8887ZM18.9693 42.8096L19.0586 42.7714L21.0501 47.8505L20.9607 47.8887L18.9693 42.8096ZM40.4916 52.6114L40.4023 52.6623L36.7641 46.6413L36.8535 46.5903L40.4916 52.6114ZM36.8407 46.6667L36.8152 46.5648C38.3726 46.0811 39.7512 44.8719 39.7512 42.9497H39.8534C39.8406 44.9355 38.4237 46.1702 36.8407 46.6667ZM39.8406 42.9497C39.8406 40.582 37.8492 38.6216 34.5047 38.6216V38.7235C37.7981 38.7235 39.7257 40.6456 39.7257 42.9497H39.8406ZM34.5047 38.6216V38.7235H28.1348V38.6216H34.5047ZM28.0837 38.6725H28.1859V52.6496H28.0837V38.6725ZM28.1348 52.6878V52.5859H31.3134V52.6878H28.1348ZM31.3644 52.6368H31.2623V47.0613H31.3644V52.6368ZM31.3134 47.1249V47.0231H33.5984V47.1249H31.3134ZM33.5473 47.0995L33.6366 47.0486L36.8152 52.6241L36.7259 52.675L33.5473 47.0995ZM36.7769 52.6878V52.5859H40.4533V52.6878H36.7769ZM36.5599 42.9497H36.662C36.662 43.5098 36.4322 43.9807 36.011 44.3117C35.6025 44.6427 35.0025 44.8464 34.3004 44.8464V44.7445C34.9897 44.7445 35.5514 44.5535 35.9471 44.2353C36.3429 43.9171 36.5599 43.4716 36.5599 42.9497ZM34.3004 44.7445V44.8464H31.3134V44.7445H34.3004ZM31.3644 44.7954H31.2623V41.1039H31.3644V44.7954ZM31.3134 41.1548V41.053H34.3004V41.1548H31.3134ZM34.3004 41.1548V41.053C35.0025 41.053 35.5897 41.2439 36.011 41.5876C36.4194 41.9186 36.662 42.4023 36.662 42.9497H36.5599C36.5599 42.4277 36.3429 41.9822 35.9471 41.664C35.5514 41.3457 34.9897 41.1548 34.3004 41.1548ZM54.8524 47.8505H54.7503V38.6725H54.8524V47.8505ZM54.8014 38.6216V38.7235H51.6485V38.6216H54.8014ZM51.5975 38.6725H51.6996V47.7615H51.5975V38.6725ZM51.5975 47.7615C51.5975 48.5507 51.3166 49.1871 50.8443 49.6072C50.3592 50.04 49.6699 50.2819 48.8146 50.2819V50.3837C49.6827 50.3837 50.3975 50.1418 50.9081 49.6836C51.4188 49.2253 51.6996 48.5761 51.6996 47.7615H51.5975ZM48.8146 50.2819V50.3837C47.9466 50.3837 47.2317 50.1418 46.7339 49.6836C46.236 49.2253 45.9552 48.5761 45.9552 47.7615H46.0573C46.0573 48.5507 46.3254 49.1871 46.7977 49.6072C47.2827 50.04 47.9721 50.2819 48.8146 50.2819ZM46.0573 47.7615H45.9552V38.6725H46.0573V47.7615ZM46.0062 38.6216V38.7235H42.8277V38.6216H46.0062ZM42.7766 38.6725H42.8787V47.8505H42.7766V38.6725ZM42.7766 47.8505H42.8787C42.8787 50.7783 45.4957 52.7005 48.8146 52.7005V52.8023C45.4573 52.8151 42.7766 50.8547 42.7766 47.8505ZM48.8146 52.8151C52.1719 52.8151 54.8524 50.8547 54.8524 47.8633H54.7503C54.7503 50.7911 52.1336 52.7132 48.8146 52.7132V52.8151ZM70.1835 48.6143H70.0814C70.0814 46.7813 68.8435 45.9157 67.8734 45.521L67.9115 45.4319C68.9075 45.8265 70.1835 46.7303 70.1835 48.6143ZM67.9115 45.5338L67.8734 45.4447C68.6904 45.1137 69.8519 44.1335 69.8519 42.6059H69.954C69.954 44.1717 68.7543 45.1901 67.9115 45.5338ZM69.954 42.5932C69.954 41.3839 69.4816 40.391 68.6135 39.6909C67.7454 39.0035 66.4689 38.6089 64.8736 38.6089V38.7107C66.4565 38.7107 67.6944 39.0926 68.5501 39.7673C69.3923 40.4419 69.8519 41.4094 69.8519 42.5932H69.954ZM64.8736 38.6216V38.7235H58.3376V38.6216H64.8736ZM58.2994 38.6725H58.4015V52.6496H58.2994V38.6725ZM58.3505 52.6878V52.5859H65.1541V52.6878H58.3505ZM65.1541 52.6878C66.6097 52.6878 67.8734 52.3313 68.7667 51.644C69.6605 50.9566 70.1835 49.9382 70.1835 48.6143H70.0814C70.0814 49.9 69.5708 50.8929 68.7033 51.5676C67.8352 52.2423 66.5968 52.5859 65.1541 52.5859V52.6878ZM66.9032 48.487H67.0053C67.0053 48.9707 66.8263 49.4163 66.4689 49.7473C66.1114 50.0655 65.5626 50.2692 64.8349 50.2692V50.1673C65.5497 50.1673 66.0604 49.9764 66.4054 49.6709C66.75 49.3654 66.9032 48.9453 66.9032 48.487ZM64.8349 50.1546V50.2564H61.5163V50.1546H64.8349ZM61.5674 50.2055H61.4653V46.7685H61.5674V50.2055ZM61.5163 46.8322V46.7303H64.8349V46.8322H61.5163ZM64.8349 46.8322C65.5497 46.8322 66.0604 47.0231 66.4054 47.3159C66.75 47.6087 66.9161 48.0287 66.9161 48.487H67.0182C67.0182 48.0033 66.8392 47.5578 66.4818 47.2395C66.1243 46.9213 65.5755 46.7303 64.8478 46.7303V46.8322H64.8349ZM66.686 42.7078C66.686 43.1788 66.5076 43.5607 66.1625 43.828C65.818 44.0953 65.3073 44.2608 64.6435 44.2608V44.3626C65.3202 44.3626 65.869 44.1972 66.2264 43.9044C66.5968 43.6116 66.7881 43.1915 66.7881 42.6951H66.686V42.7078ZM64.6306 44.2735V44.3754H61.5163V44.2735H64.6306ZM61.5674 44.3245H61.4653V41.1039H61.5674V44.3245ZM61.5163 41.1548V41.053H64.6306V41.1548H61.5163ZM64.6306 41.1548V41.053C65.3073 41.053 65.8561 41.2184 66.2136 41.5112C66.5839 41.804 66.7752 42.224 66.7752 42.7205H66.6731C66.6731 42.2495 66.4947 41.8677 66.1501 41.6003C65.8051 41.3203 65.2944 41.1548 64.6306 41.1548ZM86 52.6241L85.9108 52.6623L79.9746 38.6852L80.0644 38.647L86 52.6241ZM80.0128 38.6216V38.7235H77.5236V38.6216H80.0128ZM77.4726 38.647L77.5623 38.6852L71.6391 52.6623L71.5499 52.6241L77.4726 38.647ZM71.6009 52.6878V52.5859H74.9194V52.6878H71.6009ZM74.9581 52.6623L74.8684 52.6241L75.8515 50.1546L75.9407 50.1928L74.9581 52.6623ZM75.8896 50.2183V50.1164H81.6726V50.2183H75.8896ZM81.6344 50.1928L81.7237 50.1546L82.6809 52.6241L82.5917 52.6623L81.6344 50.1928ZM82.6299 52.6878V52.5859H85.9489V52.6878H82.6299ZM80.8303 47.8251V47.927H76.7835V47.8251H80.8303ZM76.8345 47.8887L76.7453 47.8505L78.8002 42.7714L78.89 42.8096L76.8345 47.8887ZM78.8002 42.8096L78.89 42.7714L80.8814 47.8505L80.7916 47.8887L78.8002 42.8096Z" fill="white"/>
<path id="Vector_3" fill-rule="evenodd" clip-rule="evenodd" d="M66.099 0C66.4436 0.0127296 66.6478 0.241856 66.8773 0.470988C68.0518 1.74395 68.6264 3.4879 68.5753 5.20639C68.3963 7.25585 66.9666 10.5783 65.3842 11.9276C64.8606 12.2585 64.0307 12.0295 63.4562 11.9149C62.9455 11.8003 62.5499 11.5712 62.2054 11.1765C61.8222 10.5401 61.784 9.68725 61.9501 8.97437C62.3075 7.71416 63.2137 6.63215 64.0307 5.63922C64.937 4.54449 65.5497 3.53885 65.7927 2.1386C65.805 2.04949 65.805 2.04946 65.8308 1.94762C65.8819 1.55301 65.869 1.1584 65.8819 0.76378C65.8819 0.700134 65.8819 0.636492 65.8819 0.572846C65.8819 0.509199 65.8819 0.458262 65.8819 0.394613C65.9201 0.2164 65.9711 0.127296 66.099 0ZM66.9413 3.50064C66.7623 3.72977 66.6349 3.97165 66.5199 4.23897C66.0861 5.13004 65.4605 5.89379 64.8348 6.64482C63.5459 8.18514 63.5459 8.18514 63.0864 10.0946C63.1245 10.3619 63.2519 10.5019 63.4562 10.6546C63.7625 10.8583 64.0565 10.9856 64.4263 10.9984C64.9117 10.8202 65.1541 10.26 65.3842 9.82725C65.4352 9.73812 65.4352 9.73812 65.4863 9.64905C65.5755 9.47084 65.6647 9.30535 65.754 9.13986C65.7798 9.08894 65.805 9.05073 65.8308 8.99981C66.571 7.57411 67.2095 6.17384 67.2095 4.55721V4.37897C67.2095 4.0862 67.1966 3.83161 67.0692 3.55156C66.9924 3.53883 66.9924 3.53882 66.9413 3.50064Z" fill="white"/>
<path id="Vector_4" fill-rule="evenodd" clip-rule="evenodd" d="M27.4327 2.24038C27.471 2.25311 27.522 2.27858 27.5603 2.29131C28.0837 2.53317 28.5943 2.82593 29.1049 3.10598C30.7899 4.02251 32.4877 4.83722 34.2493 5.58828C34.7217 5.77921 35.1812 5.9829 35.6408 6.18654C35.6918 6.21203 35.7429 6.23747 35.8067 6.26295C36.4705 6.54295 37.1215 6.82301 37.7725 7.11578C40.415 8.29963 43.083 9.41985 45.7765 10.4764C47.27 11.0492 48.7635 11.6476 50.2315 12.284C50.2698 12.2967 50.3081 12.3095 50.3464 12.3349C50.3847 12.3477 50.423 12.3604 50.4613 12.3859C50.8187 12.5514 51.189 12.7041 51.5592 12.8568C51.623 12.8823 51.6868 12.9078 51.7506 12.946C51.8527 12.9841 51.9421 13.0223 52.0442 13.0605C53.0144 13.4679 53.9843 13.8752 54.9293 14.308C55.2996 14.4735 55.657 14.639 56.0268 14.7917C59.3077 16.2047 62.0012 18.1014 63.3798 21.5002C63.7754 22.5059 64.0566 23.5624 64.171 24.6317C64.171 24.6699 64.1839 24.7208 64.1839 24.7718C64.3882 26.783 63.7625 28.8961 62.4865 30.4746C61.4395 31.7221 59.8436 32.4604 58.2354 32.6386C55.9247 32.8423 53.8822 32.053 52.1208 30.6018C51.623 30.1945 51.1634 29.7617 50.7166 29.3035C50.6145 29.1889 50.4996 29.0871 50.3847 28.9725C50.3081 28.8961 50.2443 28.8325 50.1805 28.7561C50.1422 28.7179 50.1167 28.6925 50.0783 28.667C49.9124 28.5015 49.7592 28.336 49.606 28.1578C49.2997 27.8141 48.9933 27.5086 48.6742 27.1903L48.4699 26.9867C48.3295 26.8466 48.1763 26.7066 48.0359 26.5666C47.8572 26.3884 47.6784 26.2102 47.4997 26.0192C47.3593 25.8792 47.2189 25.7392 47.0785 25.5991C47.0147 25.5228 46.9508 25.4591 46.8742 25.3955C46.5551 25.0772 46.2232 24.759 45.8786 24.4662C45.7892 24.3771 45.6999 24.3007 45.6105 24.2244C45.2786 23.9188 44.9467 23.6261 44.5892 23.3587C44.551 23.3333 44.5126 23.3078 44.4744 23.2696C44.2701 23.1042 44.2701 23.1042 44.0148 23.0659C43.8233 23.1551 43.6702 23.2569 43.517 23.3842C43.4914 23.4096 43.4532 23.4351 43.4148 23.4606C43.3127 23.5497 43.1978 23.6388 43.0829 23.7279C43.0574 23.7534 43.0319 23.7788 42.9936 23.8043C42.2404 24.4153 41.5639 25.1027 40.8746 25.7901C40.7469 25.9174 40.6192 26.0574 40.4788 26.1847C40.3511 26.312 40.2235 26.4393 40.0959 26.5666C40.032 26.6302 39.9682 26.6812 39.9044 26.7448C39.598 27.0503 39.3044 27.3558 39.0108 27.6868C38.9087 27.8141 38.7938 27.9286 38.6789 28.0432C38.2194 28.5524 37.8236 29.0998 37.4152 29.6472C37.0705 30.1054 36.7386 30.5255 36.3428 30.9329C36.3046 30.971 36.2663 31.0092 36.228 31.0602C35.462 31.8621 34.3387 32.3713 33.2281 32.4222C31.9643 32.4604 30.7644 32.0658 29.8325 31.1874C28.2241 29.6217 28.0581 27.5595 28.0454 25.4464C28.0837 24.1734 28.0837 24.1734 27.7262 22.9642C27.7007 22.9132 27.7007 22.9132 27.6752 22.8623C27.4582 22.4677 27.1518 22.1494 26.82 21.8439C26.7816 21.8057 26.7434 21.7548 26.705 21.7166C26.1178 21.1693 25.3136 20.9019 24.5221 20.8638C23.5903 20.9019 22.8755 21.3475 22.2372 21.9839C21.4968 22.7859 20.9989 23.8552 20.7053 24.8863C20.6926 24.9372 20.6798 24.9754 20.667 25.0263C20.6415 25.1154 20.616 25.2045 20.5904 25.2936C20.5138 25.5482 20.45 25.7519 20.233 25.9301C19.8884 26.0701 19.5181 26.0701 19.1479 26.0701H18.0757C17.9608 26.0701 17.8459 26.0701 17.731 26.0701H17.2842C17.131 26.0447 17.0927 25.981 16.9906 25.8665C16.9651 25.7519 16.9651 25.7519 16.9651 25.6119C16.9651 25.5609 16.9651 25.51 16.9651 25.4591V25.2936C16.9651 25.2427 16.9651 25.1791 16.9651 25.1282C16.9523 24.5681 16.9396 24.0207 16.9396 23.4606V14.4608C16.9396 13.1878 17.1438 12.6404 18.0502 11.7112C18.2671 11.4821 18.4714 11.2402 18.6756 10.9856C18.7905 10.8328 18.9182 10.6928 19.0331 10.5528C19.3267 10.2218 19.5947 9.87816 19.8628 9.53447C20.1053 9.20349 20.3607 8.89795 20.6542 8.5924C20.8202 8.4142 20.9607 8.22327 21.1138 8.0323C21.3436 7.73953 21.5734 7.47224 21.8287 7.20491C22.0201 7.00121 22.1989 6.78485 22.3648 6.58116C22.5563 6.33931 22.7606 6.11013 22.9648 5.881C23.0031 5.84285 23.0414 5.80464 23.0669 5.76643C23.1308 5.69008 23.2074 5.61372 23.2712 5.53736C23.4244 5.3591 23.5903 5.18091 23.7435 4.98997C23.769 4.96451 23.8073 4.9263 23.8329 4.88811C24.0116 4.68444 24.1775 4.48078 24.3435 4.26438C24.5987 3.94614 24.8796 3.65337 25.1604 3.36059C25.3519 3.16964 25.5179 2.97871 25.6966 2.77504C26.2455 2.12583 26.6412 1.88395 27.4327 2.24038ZM26.654 3.55152L26.5646 3.64064C26.5008 3.71702 26.4242 3.79338 26.3476 3.85702C26.0795 4.12434 25.8242 4.39169 25.5817 4.68448C25.4413 4.86269 25.2881 5.02814 25.1477 5.20635C24.9434 5.43551 24.7519 5.66464 24.5477 5.90649C24.152 6.41567 23.7307 6.89942 23.3095 7.38311C23.2329 7.48496 23.1435 7.57404 23.0669 7.67588C22.8116 7.98143 22.5563 8.2742 22.301 8.56697C22.0074 8.89795 21.7266 9.22892 21.4585 9.5599C21.2925 9.76354 21.1266 9.95447 20.9607 10.1454C20.7181 10.4255 20.4756 10.7183 20.2458 11.0111C20.1309 11.1511 20.016 11.2784 19.8884 11.4184C19.5948 11.7621 19.3139 12.1058 19.0458 12.4495C19.0076 12.4877 18.982 12.5259 18.9437 12.5768C18.8544 12.6914 18.765 12.8186 18.6756 12.9332C18.6501 12.9714 18.6246 13.0096 18.5863 13.0478C18.1395 13.6842 18.1651 14.4226 18.1778 15.1609V17.1722C18.1778 17.6559 18.1778 18.1524 18.1778 18.6361V22.6586C18.1778 22.9259 18.1778 23.1932 18.1778 23.4733V24.3007C18.1651 24.4916 18.165 24.4917 18.2416 24.6444C18.6501 24.6699 18.9565 24.4789 19.2628 24.2244C19.4415 24.0334 19.5564 23.8425 19.6713 23.6006C19.6968 23.537 19.7352 23.4861 19.7607 23.4224C19.7735 23.397 19.7862 23.3588 19.8118 23.3333C20.2713 22.4168 20.8074 21.5766 21.535 20.8383C21.5861 20.7874 21.6244 20.7492 21.6627 20.6982C22.352 19.9727 23.1818 19.578 24.1775 19.5271C25.5051 19.5017 26.8327 19.8836 27.8284 20.7874C27.8795 20.8256 27.9177 20.8765 27.9688 20.9147C28.7858 21.7294 29.2326 22.9259 29.3347 24.0589C29.3347 24.1098 29.3475 24.1607 29.3475 24.2116C29.4113 24.9245 29.424 25.6374 29.4496 26.3502C29.4879 27.865 29.7176 29.1252 30.8282 30.2454L30.9304 30.3473C31.5175 30.8946 32.2963 31.0474 33.0877 31.0347C34.1727 30.971 35.0025 30.2072 35.6918 29.4435C35.9854 29.1125 36.2535 28.7561 36.5216 28.3996C36.9429 27.8523 37.4024 27.3304 37.8875 26.8212C37.964 26.7321 38.0534 26.643 38.13 26.5539C38.4874 26.1593 38.8576 25.7774 39.2406 25.4082C39.4321 25.23 39.598 25.0518 39.7767 24.8481C40.0704 24.5044 40.4022 24.1862 40.7341 23.8552C40.849 23.7407 40.9512 23.6261 41.066 23.5242C41.4235 23.1678 41.7809 22.8241 42.1639 22.5059C42.1894 22.4804 42.2277 22.4549 42.2532 22.4295C42.5724 22.1621 42.8915 21.9076 43.2361 21.6657C43.2617 21.653 43.3 21.6275 43.3255 21.602C43.8233 21.2711 43.8233 21.2711 44.168 21.3348C44.6914 21.5002 45.1509 21.9203 45.5594 22.264C45.5977 22.2895 45.6233 22.3149 45.6616 22.3404C46.07 22.6841 46.4785 23.0405 46.8742 23.3969C47.0274 23.537 47.1806 23.677 47.3465 23.817C47.6146 24.0462 47.8572 24.288 48.1125 24.5426C48.1635 24.5808 48.2146 24.6317 48.2529 24.6826C48.3551 24.7718 48.4444 24.8736 48.5465 24.9754C48.6997 25.1154 48.8401 25.2682 48.9933 25.4082L49.4145 25.8283C49.6571 26.0701 49.8869 26.312 50.1039 26.5666C50.2315 26.7066 50.3592 26.8339 50.4996 26.9613C50.7166 27.1649 50.9081 27.3813 51.1123 27.6104C51.2655 27.7887 51.4314 27.9414 51.6102 28.1069C51.7506 28.2469 51.891 28.3997 52.0187 28.5525C53.2186 29.9272 54.8911 30.9965 56.7417 31.2384C56.9841 31.2511 57.2271 31.2511 57.4695 31.2511H57.7888C58.4015 31.2511 59.0014 31.162 59.5502 30.8692C59.5883 30.8565 59.627 30.831 59.6523 30.8055C61.0057 30.0927 62.1162 28.807 62.5881 27.3558C62.9455 26.1465 62.9713 24.8353 62.665 23.6261C62.6521 23.5751 62.6392 23.5242 62.6268 23.4733C62.4478 22.7605 62.2183 22.0858 61.8861 21.4239C61.8738 21.3857 61.848 21.3348 61.8222 21.2966C61.5163 20.6728 61.1713 20.1254 60.7375 19.5781C60.6993 19.5272 60.6483 19.4635 60.6096 19.4126C59.3588 17.8341 57.7888 16.9176 55.9505 16.1665C55.6312 16.0392 55.3249 15.8992 55.0056 15.7719C54.9545 15.7592 54.9164 15.7337 54.8524 15.7083C54.7503 15.67 54.6482 15.6192 54.546 15.581C51.8272 14.4226 51.8272 14.4226 49.0827 13.3406C47.9721 12.9332 46.8742 12.4622 45.7892 11.9913C45.1764 11.7239 44.551 11.4693 43.9255 11.2147C43.3382 10.9728 42.751 10.731 42.1639 10.4891C41.8192 10.3491 41.4745 10.2091 41.1171 10.0691C40.1597 9.68718 39.2278 9.26708 38.2832 8.83431C37.9768 8.69425 37.6577 8.55425 37.3386 8.40148C37.3002 8.37605 37.2492 8.36333 37.2109 8.33784C37.1215 8.29969 37.0322 8.26148 36.9428 8.22327C36.2024 7.87958 35.4493 7.5486 34.7089 7.20491C34.6323 7.17947 34.5684 7.14127 34.5046 7.11578C34.4663 7.10306 34.4408 7.09034 34.4025 7.06491C34.1727 6.96306 33.9302 6.8485 33.7004 6.74665C31.441 5.71556 31.441 5.71556 30.5346 5.23184C30.1262 5.01544 29.7177 4.82448 29.2964 4.6208C28.8879 4.42986 28.4922 4.22618 28.0965 4.02251C27.3816 3.55152 27.3816 3.55152 26.654 3.55152Z" fill="white"/>
<path id="Vector_5" fill-rule="evenodd" clip-rule="evenodd" d="M24.2159 63.6733V62.3625H18.7523V69.9236H20.3735V66.8559H23.6414V65.5446H20.3735V63.6861H24.2159V63.6733ZM27.2412 69.9236V62.3625H25.62V69.9236H27.2412ZM34.5047 63.6733V62.3625H28.5561V63.6733H30.7262V69.9108H32.3473V63.6733H34.5047ZM42.1639 69.9236V62.3625H40.5427V66.9959L37.262 62.3625H35.8195V69.9236H37.4407V65.2903L40.7214 69.9236H42.1639ZM49.5422 69.9236V68.6123H45.6999V66.7795H48.9679V65.4682H45.6999V63.699H49.5422V62.3877H44.0915V69.9493H49.5422V69.9236ZM56.4864 67.6831C56.4864 67.0087 56.2822 66.461 55.8484 66.0795C55.5039 65.7867 55.0185 65.5954 54.2655 65.4938L53.2825 65.3667C52.9506 65.3282 52.6826 65.201 52.5166 65.0738C52.3379 64.921 52.2741 64.7174 52.2741 64.5261C52.2741 64.0046 52.6953 63.5718 53.5506 63.5718C54.0994 63.5718 54.725 63.6354 55.2485 64.0933L56.2698 63.1641C55.5549 62.5405 54.7379 62.2861 53.5889 62.2861C51.8017 62.2861 50.7039 63.2277 50.7039 64.5774C50.7039 65.2138 50.8954 65.6974 51.2911 66.0667C51.6613 66.3974 52.1847 66.601 52.8996 66.6903L53.8951 66.8174C54.2784 66.8687 54.4697 66.9451 54.6229 67.0851C54.8013 67.238 54.8782 67.4544 54.8782 67.7216C54.8782 68.3323 54.3676 68.6508 53.4101 68.6508C52.6442 68.6508 51.9294 68.498 51.406 68.0144L50.3592 68.9687C51.1762 69.72 52.1336 69.9621 53.3847 69.9621C55.1464 69.9872 56.4864 69.1472 56.4864 67.6831Z" fill="white"/>
<path id="Vector_6" fill-rule="evenodd" clip-rule="evenodd" d="M24.2158 62.3627H24.2414V62.337H24.2158V62.3627ZM18.765 62.3627V62.337H18.7395V62.3627H18.765ZM18.765 69.9237H18.7395V69.9494H18.765V69.9237ZM20.3734 69.9237V69.9494H20.399V69.9237H20.3734ZM20.3734 66.856V66.8304H20.3479V66.856H20.3734ZM23.6414 66.856V66.8811H23.6669V66.856H23.6414ZM23.6414 65.5319H23.6669V65.5068H23.6414V65.5319ZM20.3734 65.5319H20.3479V65.5576H20.3734V65.5319ZM20.3734 63.6734V63.6606H20.3479V63.6863H20.3734V63.6734ZM27.2412 69.9237V69.9494H27.2668V69.9237H27.2412ZM27.2412 62.3627H27.2668V62.337H27.2412V62.3627ZM25.62 62.3627V62.337H25.5945V62.3627H25.62ZM25.62 69.9237H25.5945V69.9494H25.62V69.9237ZM34.5047 63.6734V63.6863H34.5302V63.6734H34.5047ZM34.5047 62.3627H34.5302V62.337H34.5047V62.3627ZM28.556 62.3627V62.337H28.5305V62.3627H28.556ZM28.556 63.6734H28.5305V63.6863H28.556V63.6734ZM30.7262 63.6734H30.7517V63.6606H30.7262V63.6734ZM30.7262 69.9237H30.7007V69.9494H30.7262V69.9237ZM32.3346 69.9237V69.9494H32.3601V69.9237H32.3346ZM32.3346 63.6734V63.6606H32.3091V63.6863H32.3346V63.6734ZM42.1639 69.9237V69.9494H42.1894V69.9237H42.1639ZM42.1639 62.3627H42.1894V62.337H42.1639V62.3627ZM40.5427 62.3627V62.337H40.5172V62.3627H40.5427ZM40.5427 66.9832L40.5299 66.996L40.5682 67.0468V66.9832H40.5427ZM37.262 62.3627L37.2748 62.3498V62.337H37.262V62.3627ZM35.8195 62.3627V62.337H35.794V62.3627H35.8195ZM35.8195 69.9237H35.794V69.9494H35.8195V69.9237ZM37.4279 69.9237V69.9494H37.4535V69.9237H37.4279ZM37.4279 65.2776L37.4407 65.2647L37.4024 65.214V65.2776H37.4279ZM40.7214 69.9237L40.7086 69.9366V69.9494H40.7214V69.9237ZM49.5422 68.6002H49.5678V68.5745H49.5422V68.6002ZM45.7126 68.6002H45.6871V68.6253H45.7126V68.6002ZM45.7126 66.7668V66.7411H45.6871V66.7668H45.7126ZM48.9805 66.7668V66.7924H49.0061V66.7668H48.9805ZM48.9805 65.4555H49.0061V65.4304H48.9805V65.4555ZM45.7126 65.4555H45.6871V65.4811H45.7126V65.4555ZM45.7126 63.6734V63.6606H45.6871V63.6863H45.7126V63.6734ZM49.5422 63.6734V63.6863H49.5678V63.6734H49.5422ZM49.5422 62.3627H49.5678V62.337H49.5422V62.3627ZM44.0914 62.3627V62.337H44.066V62.3627H44.0914ZM44.0914 69.9237H44.066V69.9494H44.0914V69.9237ZM55.2485 64.1063L55.2356 64.1191L55.2485 64.1319L55.2609 64.1191L55.2485 64.1063ZM56.2698 63.177L56.2822 63.1898L56.2951 63.177L56.2822 63.1642L56.2698 63.177ZM51.4315 68.0268L51.4443 68.0145L51.4315 68.0017L51.4188 68.0145L51.4315 68.0268ZM50.3848 68.9817L50.372 68.9689L50.3592 68.9817L50.372 68.9945L50.3848 68.9817ZM24.2414 63.6734H24.2031V62.3627H24.2414V63.6734ZM24.2158 62.337V62.375H18.7523V62.337H24.2158ZM18.7395 62.3627H18.7778V69.9237H18.7395V62.3627ZM18.765 69.9366V69.8981H20.3862V69.9366H18.765ZM20.399 69.9237H20.3607V66.856H20.399V69.9237ZM20.3734 66.8689V66.8304H23.6414V66.8689H20.3734ZM23.6669 66.856H23.6287V65.5447H23.6669V66.856ZM23.6414 65.5191V65.5576H20.3734V65.5191H23.6414ZM20.399 65.5319H20.3607V63.6734H20.399V65.5319ZM20.3734 63.6991V63.6606H24.2158V63.6991H20.3734ZM27.2668 69.9237H27.2285V62.3627H27.2668V69.9237ZM27.2412 62.337V62.375H25.62V62.337H27.2412ZM25.6072 62.3627H25.6456V69.9237H25.6072V62.3627ZM25.62 69.9366V69.8981H27.2412V69.9366H25.62ZM34.5174 63.6734H34.4792V62.3627H34.5174V63.6734ZM34.5047 62.337V62.375H28.556V62.337H34.5047ZM28.5433 62.3627H28.5816V63.6734H28.5433V62.3627ZM28.556 63.6991V63.6606H30.7262V63.6991H28.556ZM30.7007 63.6734H30.7389V69.9109H30.7007V63.6734ZM30.7262 69.9366V69.8981H32.3473V69.9366H30.7262ZM32.3601 69.9237H32.3218V63.6863H32.3601V69.9237ZM32.3346 63.6991V63.6606H34.5047V63.6991H32.3346ZM42.1767 69.9237H42.1384V62.3627H42.1767V69.9237ZM42.1639 62.337V62.375H40.5427V62.337H42.1639ZM40.5172 62.3627H40.5555V66.996H40.5172V62.3627ZM40.5555 66.9832L40.5172 67.0089L37.2365 62.375L37.262 62.3498L40.5555 66.9832ZM37.262 62.337V62.375H35.8195V62.337H37.262ZM35.794 62.3627H35.8323V69.9237H35.794V62.3627ZM35.8195 69.9366V69.8981H37.4407V69.9366H35.8195ZM37.4535 69.9237H37.4152V65.2904H37.4535V69.9237ZM37.4152 65.2904L37.4407 65.2647L40.7214 69.8981L40.6959 69.9237L37.4152 65.2904ZM40.7214 69.9366V69.8981H42.1639V69.9366H40.7214ZM49.5678 69.9237H49.5295V68.6124H49.5678V69.9237ZM49.5422 68.5873V68.6253H45.6999V68.5873H49.5422ZM45.7254 68.6002H45.6871V66.7668H45.7254V68.6002ZM45.7126 66.7796V66.7411H48.9805V66.7796H45.7126ZM48.9933 66.7668H48.9551V65.4555H48.9933V66.7668ZM48.9805 65.4304V65.4683H45.7126V65.4304H48.9805ZM45.7254 65.4555H45.6871V63.6863H45.7254V65.4555ZM45.7126 63.6991V63.6606H49.555V63.6991H45.7126ZM49.5678 63.6734H49.5295V62.3627H49.5678V63.6734ZM49.5422 62.337V62.375H44.0914V62.337H49.5422ZM44.066 62.3627H44.1042V69.9237H44.066V62.3627ZM44.0914 69.9366V69.8981H49.5422V69.9366H44.0914ZM56.4993 67.6832C56.4993 67.0089 56.2951 66.4489 55.8484 66.0668L55.8226 66.0919C56.2569 66.474 56.4611 67.0217 56.4611 67.6832H56.4993ZM55.8484 66.0668C55.491 65.7611 55.0185 65.5704 54.2526 65.4811V65.5191C55.0056 65.6083 55.4781 65.7996 55.8226 66.0919L55.8484 66.0668ZM54.2655 65.4811L53.2825 65.354V65.3919L54.2655 65.5191V65.4811ZM53.2825 65.354C52.9506 65.3155 52.6825 65.2011 52.5293 65.0611L52.5038 65.0863C52.6697 65.2268 52.9378 65.3411 53.2825 65.3919V65.354ZM52.5293 65.0611C52.3633 64.9211 52.2868 64.7176 52.2868 64.5391H52.2485C52.2485 64.7298 52.3251 64.9463 52.5038 65.0991L52.5293 65.0611ZM52.2868 64.5391H52.2485C52.2485 64.2719 52.3506 64.0299 52.5676 63.8519C52.7846 63.6734 53.1038 63.5591 53.5378 63.5591V63.597C53.1038 63.597 52.7974 63.6991 52.5932 63.877C52.3889 64.0555 52.2868 64.2847 52.2868 64.5391ZM53.5506 63.597V63.5591C54.0994 63.5591 54.7379 63.6227 55.2609 64.0806L55.2356 64.1063C54.7121 63.6606 54.0994 63.597 53.5506 63.597ZM55.2609 64.1191L55.2356 64.0934L56.2569 63.1642L56.2822 63.1898L55.2609 64.1191ZM56.2822 63.1642L56.2569 63.1898C55.5549 62.5663 54.725 62.3114 53.5888 62.3114V62.2734C54.7379 62.2734 55.5673 62.5278 56.2822 63.1642ZM53.6016 62.2734V62.3114C52.708 62.3114 51.9932 62.5406 51.4953 62.9478C50.9975 63.3427 50.7295 63.9155 50.7295 64.5898H50.6911C50.6911 63.9155 50.972 63.3298 51.4698 62.9227C51.9676 62.515 52.6953 62.2734 53.6016 62.2734ZM50.6911 64.5898H50.7295C50.7295 65.2268 50.9209 65.7104 51.3166 66.0668L51.2911 66.0919C50.8953 65.7232 50.6911 65.2268 50.6911 64.5898ZM51.2911 66.0919L51.3166 66.0668C51.6869 66.3976 52.2102 66.5889 52.9123 66.6904V66.7289C52.1974 66.6268 51.6613 66.4232 51.2911 66.0919ZM52.9123 66.716V66.6776L53.908 66.8053V66.8432L52.9123 66.716ZM53.908 66.8432V66.8053C54.2907 66.856 54.4826 66.9324 54.6482 67.0724L54.6229 67.0976C54.4697 66.9704 54.2907 66.9068 53.908 66.8432ZM54.6358 67.1104L54.6611 67.0853C54.84 67.2381 54.9293 67.4668 54.9293 67.7345H54.8911C54.8782 67.4668 54.8013 67.2504 54.6358 67.1104ZM54.8782 67.7345C54.8782 68.0273 54.7503 68.256 54.5079 68.4089C54.2655 68.5617 53.908 68.6509 53.4229 68.6509V68.6889C53.908 68.6889 54.2784 68.6124 54.5208 68.4473C54.7761 68.2817 54.9035 68.0396 54.9035 67.7345H54.8782ZM53.4357 68.6509V68.6889C52.6698 68.6889 51.9549 68.5237 51.4188 68.0524L51.4443 68.0268C51.9677 68.4853 52.6698 68.6509 53.4357 68.6509ZM51.4188 68.0145L51.4443 68.0396L50.3976 68.9945L50.372 68.9689L51.4188 68.0145ZM50.372 68.9945L50.3976 68.9689C51.2018 69.7202 52.1591 69.9622 53.4101 69.9622V70.0002C52.1464 70.0002 51.189 69.7581 50.372 68.9945ZM53.4101 70.0002V69.9622C54.2784 69.9622 55.0443 69.7581 55.5802 69.3637C56.129 68.9817 56.4611 68.4089 56.4611 67.6832H56.4993C56.4993 68.4217 56.1677 69.0073 55.606 69.3889C55.0567 69.7966 54.2784 70.0002 53.4101 70.0002Z" fill="white"/>
<path id="Vector_7" fill-rule="evenodd" clip-rule="evenodd" d="M63.2906 67.6831C63.2906 67.0087 63.0993 66.461 62.6521 66.0795C62.3075 65.7867 61.8227 65.5954 61.0691 65.4938L60.0866 65.3667C59.7544 65.3282 59.4862 65.201 59.3206 65.0738C59.1417 64.921 59.0777 64.7174 59.0777 64.5261C59.0777 64.0046 59.4991 63.5718 60.3543 63.5718C60.9036 63.5718 61.5287 63.6354 62.0522 64.0933L63.0735 63.1641C62.3586 62.5405 61.5416 62.2861 60.393 62.2861C58.6058 62.2861 57.5077 63.2277 57.5077 64.5774C57.5077 65.2138 57.7119 65.6974 58.0951 66.0667C58.4655 66.3974 58.9885 66.601 59.7033 66.6903L60.6993 66.8174C61.082 66.8687 61.2734 66.9451 61.4266 67.0851C61.6056 67.238 61.6819 67.4544 61.6819 67.7216C61.6819 68.3323 61.1713 68.6508 60.214 68.6508C59.448 68.6508 58.7332 68.498 58.2102 68.0144L57.1631 68.9687C57.9801 69.72 58.9374 69.9621 60.1887 69.9621C61.9501 69.9872 63.2906 69.1472 63.2906 67.6831Z" fill="white"/>
<path id="Vector_8" fill-rule="evenodd" clip-rule="evenodd" d="M62.0522 64.1063L62.0393 64.1191L62.0522 64.1319L62.0651 64.1191L62.0522 64.1063ZM63.0864 63.177L63.0993 63.1898L63.1116 63.177L63.0993 63.1642L63.0864 63.177ZM58.2354 68.0268L58.2483 68.0145L58.2354 68.0017L58.2225 68.0145L58.2354 68.0268ZM57.1889 68.9817L57.176 68.9689L57.1631 68.9817L57.176 68.9945L57.1889 68.9817ZM63.3035 67.6832C63.3035 67.0089 63.0993 66.4489 62.6521 66.0668L62.6268 66.0919C63.0606 66.474 63.2648 67.0217 63.2648 67.6832H63.3035ZM62.665 66.0668C62.3075 65.7611 61.8351 65.5704 61.0691 65.4811V65.5191C61.8227 65.6083 62.2946 65.7996 62.6397 66.0919L62.665 66.0668ZM61.0691 65.4811V65.5191L60.0866 65.3919V65.354L61.0691 65.4811ZM60.0866 65.354C59.7544 65.3155 59.4867 65.2011 59.3335 65.0611L59.3077 65.0863C59.4738 65.2268 59.7415 65.3411 60.0866 65.3919V65.354ZM59.3335 65.0611C59.1675 64.9211 59.0906 64.7176 59.0906 64.5391H59.0524C59.0524 64.7298 59.1288 64.9463 59.3077 65.0991L59.3335 65.0611ZM59.1035 64.5391H59.0653C59.0653 64.2719 59.1675 64.0299 59.3846 63.8519C59.6012 63.6734 59.9205 63.5591 60.3543 63.5591V63.597C59.9334 63.597 59.6141 63.6991 59.4099 63.877C59.2056 64.0555 59.1035 64.2847 59.1035 64.5391ZM60.3543 63.597V63.5591C60.9036 63.5591 61.5416 63.6227 62.0651 64.0806L62.0393 64.1063C61.5287 63.6606 60.9036 63.597 60.3543 63.597ZM62.0651 64.1191L62.0393 64.0934L63.0606 63.1642L63.0864 63.1898L62.0651 64.1191ZM63.0993 63.1642L63.0735 63.1898C62.3715 62.5663 61.5416 62.3114 60.4053 62.3114V62.2734C61.5545 62.2734 62.3844 62.5278 63.0993 63.1642ZM60.4053 62.2734V62.3114C59.512 62.3114 58.7971 62.5406 58.2994 62.9478C57.8017 63.3427 57.5335 63.9155 57.5335 64.5898H57.4953C57.4953 63.9155 57.7759 63.3298 58.2736 62.9227C58.7842 62.515 59.4991 62.2734 60.4053 62.2734ZM57.4953 64.5898H57.5335C57.5335 65.2268 57.7248 65.7104 58.1204 66.0668L58.0951 66.0919C57.6995 65.7232 57.4953 65.2268 57.4953 64.5898ZM58.0951 66.0919L58.1204 66.0668C58.4907 66.3976 59.0143 66.5889 59.7162 66.6904V66.7289C59.0014 66.6268 58.4778 66.4232 58.0951 66.0919ZM59.7162 66.716L60.7117 66.8432V66.8053L59.7162 66.6776V66.716ZM60.7117 66.8432C61.0949 66.894 61.2734 66.9704 61.4395 67.0976L61.4653 67.0724C61.2992 66.9324 61.1078 66.856 60.7246 66.8053L60.7117 66.8432ZM61.4395 67.1104C61.6056 67.2504 61.6819 67.4668 61.6819 67.7345H61.7206C61.7206 67.4668 61.6437 67.2381 61.4524 67.0853L61.4395 67.1104ZM61.6819 67.7345H61.7206C61.7206 68.0396 61.5927 68.2817 61.3373 68.4473C61.082 68.6124 60.7117 68.6889 60.2398 68.6889V68.6509C60.7117 68.6509 61.082 68.5745 61.3244 68.4089C61.5674 68.256 61.6819 68.0273 61.6819 67.7345ZM60.2398 68.6509V68.6889C59.4738 68.6889 58.759 68.5237 58.2225 68.0524L58.2483 68.0268C58.7719 68.4853 59.4738 68.6509 60.2398 68.6509ZM58.2225 68.0145L58.2483 68.0396L57.2013 68.9945L57.176 68.9689L58.2225 68.0145ZM57.176 68.9945L57.2013 68.9689C58.0059 69.7202 58.9632 69.9622 60.214 69.9622V70.0002C58.9632 70.0002 57.993 69.7581 57.176 68.9945ZM60.214 70.0002V69.9622C61.082 69.9622 61.8351 69.7581 62.3844 69.3637C62.9332 68.9817 63.2648 68.4089 63.2648 67.6832H63.3035C63.3035 68.4217 62.9713 69.0073 62.4097 69.3889C61.8609 69.7966 61.082 70.0002 60.214 70.0002Z" fill="white"/>
</g>
<defs>
<clipPath id="clip0_245_2664">
<rect width="86" height="70" fill="white"/>
</clipPath>
</defs>
</svg>
