<svg width="86" height="70" fill="none" xmlns="http://www.w3.org/2000/svg"><g clip-path="url(#a)" fill-rule="evenodd" clip-rule="evenodd" fill="#fff"><path d="M10.748 52.637v-2.432h-6.97l6.97-9.381V38.66H.345v2.431h6.65L.051 50.434v2.203h10.697Zm15.37 0L20.182 38.66h-2.49L11.77 52.637h3.319l.983-2.47h5.782l.958 2.47h3.306Zm-5.106-4.761h-4.047l2.055-5.08 1.992 5.08Zm19.441 4.76-3.638-6.02c1.583-.497 2.975-1.706 2.975-3.666 0-2.33-1.966-4.278-5.285-4.278h-6.37V52.65h3.178v-5.576h2.285l3.179 5.576h3.676v-.013Zm-3.842-9.687c0 1.083-.92 1.846-2.31 1.846h-2.988v-3.691h2.988c1.404 0 2.31.764 2.31 1.846Zm18.19 4.901v-9.178h-3.153v9.09c0 1.603-1.123 2.57-2.833 2.57-1.71 0-2.809-.967-2.809-2.57v-9.09h-3.178v9.178c0 2.966 2.655 4.901 5.987 4.901 3.331.013 5.986-1.935 5.986-4.9Zm15.332.764c0-1.858-1.251-2.75-2.234-3.144.817-.331 2.017-1.337 2.017-2.89 0-2.393-1.851-3.92-5.03-3.92h-6.535v13.977h6.803c2.898 0 4.979-1.413 4.979-4.023Zm-3.179-.127c0 .942-.69 1.731-2.131 1.731h-3.32v-3.437h3.32c1.455 0 2.131.764 2.131 1.706Zm-.217-5.78c0 .968-.753 1.605-2.106 1.605h-3.115V41.09h3.115c1.34.013 2.106.662 2.106 1.617Zm19.212 9.93L80.013 38.66h-2.49l-5.922 13.977h3.319l.983-2.47h5.782l.958 2.47h3.306Zm-5.119-4.761h-4.046l2.055-5.08 1.991 5.08Z"/><path d="M10.748 50.206h.051v-.051h-.05v.05Zm-6.97 0-.038-.026-.064.076h.103v-.05Zm6.97-9.382.039.025.012-.012v-.013h-.05Zm0-2.151h.051v-.051h-.05v.05Zm-10.403 0v-.051H.294v.05h.05Zm0 2.43H.294v.052h.05v-.051Zm6.65 0 .039.026.064-.076h-.103v.05ZM.051 50.448l-.038-.025-.013.013v.012h.051Zm0 2.19H0v.05h.051v-.05Zm20.131-13.965.051-.025-.013-.025h-.038v.05Zm-2.49 0v-.05h-.038l-.012.025.05.026ZM11.77 52.638l-.051-.026-.026.077h.077v-.051Zm3.319 0v.05h.038l.013-.037-.051-.013Zm.982-2.47v-.05h-.038l-.013.038.052.012Zm5.783 0 .051-.012-.013-.039h-.038v.051Zm.958 2.47-.051.013.012.038h.039v-.051Zm-1.8-4.761v.051h.076l-.025-.064-.051.013Zm-4.047 0-.05-.013-.026.077h.076v-.064Zm2.055-5.08.051-.012-.05-.114-.052.114.051.013Zm17.795 3.82-.012-.051-.064.025.038.051.038-.025Zm-8.68-7.944v-.05h-.051v.05h.05Zm0 13.965h-.051v.05h.05v-.05Zm3.178 0v.05h.051v-.05h-.05Zm0-5.563v-.05h-.05v.05h.05Zm2.285 0 .039-.025-.013-.026h-.026v.051Zm3.179 5.563-.051.025.013.026h.025v-.051h.013Zm-5.464-7.842h-.05v.051h.05v-.05Zm0-3.691v-.051h-.05v.05h.05Zm23.488-2.431h.051v-.051h-.05v.05Zm-3.153 0v-.051h-.05v.05h.05Zm-5.642 0h.051v-.051h-.05v.05Zm-3.178 0v-.051h-.051v.05h.05Zm25.07 6.81-.025-.051-.115.05.115.052.026-.051Zm-9.547-6.81v-.051h-.052v.05h.051Zm0 13.964h-.052v.05h.051v-.05Zm3.165-2.431h-.05v.05h.05v-.05Zm0-3.425v-.05h-.05v.05h.05Zm0-2.456h-.05v.05h.05v-.05Zm0-3.221v-.051h-.05v.05h.05Zm18.497-2.431.051-.026-.012-.025h-.04v.05Zm-2.502 0v-.051h-.038l-.013.025.051.026Zm-5.91 13.964-.051-.026-.026.077h.077v-.051Zm3.306 0v.05h.038l.013-.037-.05-.013Zm.983-2.47v-.05h-.038l-.013.038.05.012Zm5.783 0 .05-.012-.012-.039h-.038v.051Zm.957 2.47-.051.013.013.038h.038v-.051Zm-1.8-4.761v.051h.077l-.026-.064-.05.013Zm-4.046 0-.052-.013-.025.077h.077v-.064Zm2.055-5.08.051-.012-.051-.114-.051.114.05.013Zm-68.04 9.84h-.102v-2.43h.102v2.43Zm-.05-2.481v.101h-6.97v-.101h6.97Zm-6.932.089-.077-.064 6.97-9.382.077.064-6.97 9.382Zm6.982-9.42h-.102V38.66h.102v2.164Zm-.05-2.202v.102H.344v-.102h10.403Zm-10.455.05h.102v2.432H.294v-2.431Zm.05 2.483v-.102h6.651v.102H.345Zm6.613-.077.077.064-6.945 9.343-.076-.063 6.944-9.344ZM0 50.448h.102v2.202H0v-2.203Zm.051 2.24v-.102h10.697v.102H.051Zm26.118-.064-.09.038-5.935-13.977.09-.038 5.935 13.977Zm-5.987-14.002v.102h-2.49v-.102h2.49Zm-2.54.025.09.038-5.924 13.977-.09-.038 5.924-13.977Zm-5.872 14.04v-.101h3.319v.102h-3.32Zm3.37-.025-.09-.038.983-2.47.09.039-.983 2.47Zm.931-2.444v-.102h5.783v.102h-5.782Zm5.732-.025.09-.038.957 2.47-.09.037-.957-2.47Zm1.009 2.495v-.102h3.319v.102h-3.32Zm-1.8-4.863v.102h-4.047v-.102h4.047Zm-4.009.064-.089-.039 2.055-5.079.09.039-2.056 5.079Zm1.966-5.08.09-.038 1.991 5.08-.09.038-1.99-5.08Zm21.523 9.802-.09.051-3.638-6.02.09-.052 3.638 6.021Zm-3.651-5.944-.026-.102c1.558-.484 2.936-1.693 2.936-3.615h.102c-.012 1.985-1.43 3.22-3.012 3.717Zm3-3.717c0-2.368-1.992-4.328-5.336-4.328v.102c3.293 0 5.22 1.922 5.22 4.226h.116Zm-5.336-4.328v.102h-6.37v-.102h6.37Zm-6.421.05h.102V52.65h-.102V38.673Zm.05 14.016v-.102h3.18v.102h-3.18Zm3.23-.051h-.102V47.06h.102v5.576Zm-.05-5.512v-.102h2.284v.102h-2.285Zm2.233-.026.09-.05 3.178 5.575-.09.051-3.178-5.575Zm3.23 5.589v-.102h3.676v.102h-3.676Zm-.217-9.738h.102c0 .56-.23 1.03-.651 1.362-.409.33-1.009.534-1.71.534v-.101c.689 0 1.25-.191 1.646-.51a1.6 1.6 0 0 0 .613-1.285Zm-2.26 1.794v.102h-2.987v-.101H34.3Zm-2.936.051h-.102v-3.691h.102v3.691Zm-.05-3.64v-.102H34.3v.102h-2.987Zm2.986 0v-.102c.703 0 1.29.19 1.711.535.408.33.651.814.651 1.362h-.102c0-.522-.217-.968-.613-1.286-.396-.318-.957-.51-1.647-.51Zm20.552 6.695h-.102v-9.178h.102v9.178Zm-.05-9.228v.102h-3.154v-.102h3.153Zm-3.205.05h.103v9.09h-.103v-9.09Zm0 9.09c0 .789-.28 1.425-.753 1.845-.485.433-1.174.675-2.03.675v.102c.869 0 1.584-.242 2.094-.7.51-.459.792-1.108.792-1.922h-.103Zm-2.782 2.52v.102c-.868 0-1.583-.242-2.081-.7-.498-.459-.779-1.108-.779-1.922h.102c0 .789.268 1.425.74 1.845.486.433 1.175.675 2.018.675Zm-2.758-2.52h-.102v-9.09h.102v9.09Zm-.05-9.14v.102h-3.18v-.102h3.18Zm-3.23.05h.102v9.178h-.102v-9.178Zm0 9.178h.102c0 2.928 2.617 4.85 5.936 4.85v.102c-3.358.013-6.038-1.947-6.038-4.952Zm6.038 4.965c3.357 0 6.037-1.96 6.037-4.952h-.102c0 2.928-2.616 4.85-5.935 4.85v.102Zm21.368-4.2h-.102c0-1.834-1.237-2.7-2.208-3.094l.038-.09c.996.396 2.272 1.3 2.272 3.183Zm-2.272-3.081-.038-.09c.817-.33 1.979-1.31 1.979-2.838h.102c0 1.566-1.2 2.584-2.042 2.928Zm2.043-2.94c0-1.21-.472-2.203-1.34-2.903-.869-.688-2.145-1.082-3.74-1.082v.102c1.583 0 2.82.382 3.676 1.056.842.675 1.302 1.642 1.302 2.826h.102Zm-5.08-3.972v.102h-6.536v-.102h6.536Zm-6.575.05h.102V52.65H58.3V38.673Zm.051 14.016v-.102h6.804v.102h-6.803Zm6.804 0c1.456 0 2.72-.357 3.613-1.044.894-.687 1.416-1.706 1.416-3.03h-.102c0 1.286-.51 2.279-1.378 2.954-.868.674-2.106 1.018-3.549 1.018v.102Zm1.75-4.201h.101c0 .484-.179.93-.536 1.26-.358.319-.906.522-1.634.522v-.102c.715 0 1.225-.19 1.57-.496s.498-.726.498-1.184Zm-2.07 1.668v.101h-3.318v-.101h3.319Zm-3.267.05h-.102V46.77h.102v3.437Zm-.05-3.373v-.102h3.318v.102h-3.319Zm3.318 0c.715 0 1.225.191 1.57.484s.511.713.511 1.171h.102c0-.484-.179-.93-.536-1.248-.358-.318-.906-.509-1.634-.509v.102h-.013Zm1.851-4.124c0 .47-.178.853-.524 1.12-.344.267-.855.433-1.519.433v.102c.677 0 1.226-.166 1.583-.459.37-.292.562-.713.562-1.209h-.102v.013Zm-2.055 1.566v.101h-3.115v-.102h3.115Zm-3.064.05h-.102v-3.22h.102v3.22Zm-.05-3.17v-.101h3.114v.102h-3.115Zm3.114 0v-.101c.676 0 1.225.165 1.583.458.37.293.561.713.561 1.21h-.102c0-.471-.178-.853-.523-1.12-.345-.28-.856-.446-1.52-.446ZM86 52.625l-.09.038-5.935-13.977.09-.038L86 52.624Zm-5.987-14.002v.102h-2.49v-.102h2.49Zm-2.54.025.09.038-5.924 13.977-.09-.038 5.924-13.977ZM71.6 52.687v-.101h3.318v.102H71.6Zm3.357-.025-.09-.038.984-2.47.089.039-.983 2.47Zm.932-2.444v-.102h5.783v.102H75.89Zm5.744-.025.09-.038.957 2.47-.09.037-.957-2.47Zm.996 2.495v-.102h3.319v.102h-3.32Zm-1.8-4.863v.102h-4.046v-.102h4.046Zm-3.995.064-.09-.039 2.055-5.079.09.039-2.055 5.079Zm1.965-5.08.09-.038 1.991 5.08-.09.038-1.99-5.08ZM66.099 0c.345.013.549.242.778.471 1.175 1.273 1.75 3.017 1.698 4.735-.179 2.05-1.608 5.372-3.19 6.722-.524.33-1.354.101-1.929-.013a2.22 2.22 0 0 1-1.25-.738c-.384-.637-.422-1.49-.256-2.203.357-1.26 1.264-2.342 2.08-3.335.907-1.095 1.52-2.1 1.763-3.5.012-.09.012-.09.038-.191.05-.395.038-.79.05-1.184V.395A.675.675 0 0 1 66.1 0Zm.842 3.5c-.179.23-.306.472-.421.739-.434.891-1.06 1.655-1.685 2.406-1.29 1.54-1.29 1.54-1.749 3.45.038.267.166.407.37.56.306.203.6.33.97.343.486-.178.728-.738.958-1.17l.102-.179c.09-.178.179-.344.268-.51.026-.05.051-.088.077-.14.74-1.425 1.379-2.825 1.379-4.442V4.38c0-.293-.013-.547-.14-.827-.078-.013-.078-.013-.129-.051ZM27.433 2.24c.038.013.089.039.127.051.524.242 1.034.535 1.545.815a59.686 59.686 0 0 0 5.144 2.482c.473.191.932.395 1.392.599.05.025.102.05.166.076.663.28 1.314.56 1.965.853a183.22 183.22 0 0 0 8.005 3.36c1.493.573 2.986 1.172 4.454 1.808a.455.455 0 0 1 .115.05c.039.014.077.026.115.052.358.165.728.318 1.098.47.064.026.128.052.192.09.102.038.191.076.293.114.97.408 1.94.815 2.885 1.248.37.165.728.331 1.098.484 3.28 1.413 5.974 3.31 7.353 6.708a12.12 12.12 0 0 1 .791 3.132c0 .038.013.089.013.14a7.941 7.941 0 0 1-1.697 5.703c-1.047 1.247-2.643 1.985-4.252 2.164-2.31.203-4.353-.586-6.114-2.037a16.61 16.61 0 0 1-1.404-1.299c-.102-.114-.217-.216-.332-.33-.077-.077-.14-.14-.204-.217a.636.636 0 0 0-.103-.089 8.962 8.962 0 0 1-.472-.51c-.306-.343-.613-.648-.932-.967l-.204-.203c-.14-.14-.294-.28-.434-.42-.179-.179-.358-.357-.536-.548l-.422-.42a1.541 1.541 0 0 0-.204-.204c-.319-.318-.65-.636-.995-.929a4.571 4.571 0 0 0-.268-.242 13.085 13.085 0 0 0-1.022-.865c-.038-.026-.076-.051-.115-.09-.204-.165-.204-.165-.46-.203-.19.09-.344.19-.497.318a.714.714 0 0 1-.102.077 7.426 7.426 0 0 1-.332.267.553.553 0 0 1-.09.076c-.753.611-1.43 1.299-2.118 1.986-.128.127-.256.267-.396.395l-.383.382c-.064.063-.128.114-.192.178-.306.305-.6.61-.893.942a4.302 4.302 0 0 1-.332.356c-.46.51-.855 1.057-1.264 1.604a13.03 13.03 0 0 1-1.072 1.286 1.143 1.143 0 0 0-.115.127 4.534 4.534 0 0 1-3 1.362c-1.264.038-2.464-.356-3.396-1.235-1.608-1.565-1.774-3.628-1.787-5.74.039-1.274.039-1.274-.319-2.483l-.05-.102c-.218-.394-.524-.713-.856-1.018-.038-.038-.077-.09-.115-.127-.587-.548-1.391-.815-2.183-.853-.932.038-1.646.483-2.285 1.12-.74.802-1.238 1.871-1.532 2.902-.012.051-.025.09-.038.14l-.077.268c-.076.254-.14.458-.357.636-.345.14-.715.14-1.085.14h-1.864c-.153-.025-.191-.089-.293-.204-.026-.114-.026-.114-.026-.254v-.484a71.28 71.28 0 0 1-.025-1.667v-9c0-1.273.204-1.82 1.11-2.75.217-.229.421-.47.626-.725.115-.153.242-.293.357-.433.294-.331.562-.675.83-1.019.242-.33.498-.636.791-.942.166-.178.307-.369.46-.56.23-.292.46-.56.715-.827.191-.204.37-.42.536-.624.191-.242.396-.47.6-.7a.818.818 0 0 0 .102-.115c.064-.076.14-.152.204-.229.153-.178.32-.356.473-.547a.783.783 0 0 0 .089-.102c.179-.204.345-.407.51-.624.256-.318.537-.61.817-.903.192-.191.358-.382.537-.586.549-.65.944-.891 1.736-.535Zm-.779 1.312-.09.089c-.063.076-.14.152-.216.216a11.75 11.75 0 0 0-.766.827c-.14.179-.294.344-.434.522-.205.23-.396.459-.6.7-.396.51-.817.993-1.238 1.477-.077.102-.166.191-.243.293-.255.305-.51.598-.766.891-.294.33-.574.662-.842.993-.166.204-.332.394-.498.585-.243.28-.485.573-.715.866-.115.14-.23.267-.358.407-.293.344-.574.688-.842 1.032-.038.038-.064.076-.102.127-.09.114-.179.242-.268.356-.026.038-.051.077-.09.115-.446.636-.42 1.375-.408 2.113V24.3c-.013.19-.013.19.064.343.408.026.714-.165 1.02-.42.18-.19.294-.381.41-.623.025-.064.063-.115.089-.179.012-.025.025-.063.05-.089.46-.916.996-1.756 1.724-2.495.051-.05.09-.089.128-.14.689-.725 1.519-1.12 2.514-1.17 1.328-.026 2.656.356 3.651 1.26.052.038.09.088.14.127.818.814 1.265 2.01 1.367 3.144 0 .05.012.102.012.153.064.712.077 1.425.103 2.138.038 1.515.268 2.775 1.378 3.895l.102.102c.587.548 1.366.7 2.158.688 1.085-.064 1.914-.828 2.604-1.591.293-.331.562-.688.83-1.044.42-.548.88-1.07 1.366-1.579.076-.089.165-.178.242-.267.357-.395.728-.777 1.11-1.146.192-.178.358-.356.537-.56.293-.344.625-.662.957-.993.115-.114.217-.229.332-.33.357-.357.715-.7 1.098-1.02.025-.025.064-.05.09-.075.318-.268.638-.522.982-.764a.384.384 0 0 0 .09-.064c.497-.33.497-.33.842-.267.523.165.983.585 1.391.929.039.026.064.05.103.076.408.344.816.7 1.212 1.057.153.14.307.28.472.42.269.23.511.471.767.726.05.038.102.089.14.14.102.089.191.19.294.292.153.14.293.293.446.433l.421.42c.243.242.473.484.69.739a5.8 5.8 0 0 0 .396.394c.217.204.408.42.612.65.154.178.32.33.498.496.14.14.281.293.409.445 1.2 1.375 2.872 2.445 4.723 2.686.242.013.485.013.727.013h.32c.612 0 1.212-.089 1.761-.382a.277.277 0 0 0 .102-.064c1.354-.712 2.464-1.998 2.936-3.45a7.11 7.11 0 0 0 .077-3.729l-.038-.153a9.839 9.839 0 0 0-.74-2.05.562.562 0 0 0-.065-.126 9.268 9.268 0 0 0-1.085-1.719l-.127-.165c-1.251-1.579-2.821-2.495-4.66-3.247-.319-.127-.625-.267-.944-.394-.051-.013-.09-.038-.154-.064-.102-.038-.204-.089-.306-.127-2.719-1.158-2.719-1.158-5.463-2.24-1.11-.408-2.209-.879-3.294-1.35a81.369 81.369 0 0 0-1.864-.776l-1.761-.726c-.345-.14-.69-.28-1.047-.42a61.584 61.584 0 0 1-2.834-1.235c-.306-.14-.625-.28-.944-.433-.039-.025-.09-.038-.128-.063l-.268-.115c-.74-.343-1.494-.674-2.234-1.018-.077-.026-.14-.064-.204-.09a.383.383 0 0 1-.102-.05c-.23-.102-.473-.217-.703-.318-2.259-1.031-2.259-1.031-3.165-1.515-.409-.217-.817-.408-1.239-.611-.408-.191-.804-.395-1.2-.598-.714-.471-.714-.471-1.442-.471Zm-2.438 60.121v-1.31h-5.464v7.56h1.622v-3.067h3.267v-1.311h-3.267v-1.859h3.842v-.013Zm3.025 6.25v-7.56H25.62v7.56h1.621Zm7.264-6.25v-1.31h-5.949v1.31h2.17v6.238h1.621v-6.238h2.158Zm7.659 6.25v-7.56h-1.621v4.633l-3.281-4.633h-1.443v7.56h1.622V65.29l3.28 4.634h1.443Zm7.378 0v-1.31H45.7v-1.834h3.268v-1.31H45.7v-1.77h3.842v-1.311h-5.45v7.561h5.45v-.025Zm6.944-2.24c0-.674-.204-1.222-.638-1.604-.344-.292-.83-.484-1.582-.585l-.983-.127a1.584 1.584 0 0 1-.766-.293.7.7 0 0 1-.243-.548c0-.521.421-.954 1.277-.954.548 0 1.174.063 1.697.521l1.022-.929c-.715-.623-1.532-.878-2.681-.878-1.787 0-2.885.942-2.885 2.291 0 .637.191 1.12.587 1.49.37.33.894.534 1.609.623l.995.127c.383.052.575.128.728.268.178.153.255.37.255.637 0 .61-.51.929-1.468.929-.766 0-1.48-.153-2.004-.637l-1.047.955c.817.751 1.775.993 3.026.993 1.761.025 3.101-.815 3.101-2.279Z"/><path d="M24.216 62.363h.025v-.026h-.025v.026Zm-5.451 0v-.026h-.026v.026h.026Zm0 7.56h-.026v.026h.026v-.025Zm1.608 0v.026h.026v-.025h-.026Zm0-3.067v-.026h-.025v.026h.025Zm3.268 0v.025h.026v-.025h-.026Zm0-1.324h.026v-.025h-.026v.025Zm-3.268 0h-.025v.026h.025v-.026Zm0-1.859v-.012h-.025v.025h.025v-.013Zm6.868 6.25v.026h.026v-.025h-.026Zm0-7.56h.026v-.026h-.026v.026Zm-1.621 0v-.026h-.026v.026h.026Zm0 7.56h-.026v.026h.026v-.025Zm8.885-6.25v.013h.025v-.013h-.025Zm0-1.31h.025v-.026h-.025v.026Zm-5.949 0v-.026h-.026v.026h.026Zm0 1.31h-.026v.013h.026v-.013Zm2.17 0h.026v-.012h-.026v.012Zm0 6.25h-.025v.026h.025v-.025Zm1.609 0v.026h.025v-.025h-.025Zm0-6.25v-.012h-.026v.025h.026v-.013Zm9.829 6.25v.026h.025v-.025h-.025Zm0-7.56h.025v-.026h-.025v.026Zm-1.621 0v-.026h-.026v.026h.026Zm0 4.62-.013.013.038.05v-.063h-.025Zm-3.281-4.62.013-.013v-.013h-.013v.026Zm-1.443 0v-.026h-.025v.026h.026Zm0 7.56h-.025v.026h.026v-.025Zm1.609 0v.026h.026v-.025h-.026Zm0-4.645.013-.013-.039-.051v.064h.026Zm3.293 4.646-.012.013v.012h.012v-.025Zm8.821-1.324h.026v-.025h-.026v.025Zm-3.83 0h-.025v.025h.026V68.6Zm0-1.833v-.026h-.025v.026h.026Zm3.268 0v.025h.026v-.025h-.026Zm0-1.311h.026v-.026h-.026v.025Zm-3.267 0h-.026v.025h.026v-.025Zm0-1.783v-.012h-.026v.025h.026v-.013Zm3.83 0v.013h.025v-.013h-.026Zm0-1.31h.025v-.026h-.026v.026Zm-5.452 0v-.026h-.025v.026h.025Zm0 7.56h-.025v.026h.025v-.025Zm11.157-5.817-.012.013.013.013.012-.013-.013-.013Zm1.022-.929.012.013.013-.013-.013-.013-.012.013Zm-4.839 4.85.013-.013-.013-.012-.012.013.013.012Zm-1.046.955-.013-.013-.013.013.013.013.013-.013ZM24.24 63.673h-.038v-1.31h.038v1.31Zm-.025-1.336v.038h-5.464v-.038h5.464Zm-5.477.026h.039v7.56h-.038v-7.56Zm.026 7.574v-.039h1.621v.039h-1.621Zm1.634-.013h-.038v-3.068h.038v3.068Zm-.026-3.055v-.039h3.268v.039h-3.268Zm3.294-.013h-.038v-1.311h.038v1.311Zm-.026-1.337v.039h-3.268v-.039h3.268Zm-3.242.013h-.038v-1.859h.038v1.859Zm-.026-1.833v-.038h3.843v.038h-3.843Zm6.894 6.225h-.038v-7.561h.038v7.56Zm-.026-7.587v.038h-1.62v-.038h1.621Zm-1.634.026h.039v7.56h-.039v-7.56Zm.013 7.574v-.039h1.621v.039h-1.62Zm8.897-6.264h-.038v-1.31h.038v1.31Zm-.012-1.336v.038h-5.949v-.038h5.949Zm-5.962.026h.039v1.31h-.039v-1.31Zm.013 1.336v-.038h2.17v.038h-2.17Zm2.145-.026h.038v6.238H30.7v-6.238Zm.025 6.264v-.039h1.621v.039h-1.62Zm1.634-.013h-.038v-6.238h.038v6.238Zm-.025-6.225v-.038h2.17v.038h-2.17Zm9.842 6.225h-.039v-7.561h.039v7.56Zm-.013-7.587v.038h-1.621v-.038h1.62Zm-1.647.026h.038v4.633h-.038v-4.633Zm.038 4.62-.038.026-3.28-4.634.025-.025 3.294 4.633Zm-3.293-4.646v.038h-1.443v-.038h1.443Zm-1.468.026h.038v7.56h-.038v-7.56Zm.026 7.574v-.039h1.62v.039h-1.62Zm1.633-.013h-.038V65.29h.038v4.634Zm-.038-4.634.026-.025 3.28 4.633-.025.026-3.28-4.634Zm3.306 4.647v-.039h1.443v.039H40.72Zm8.847-.013h-.038v-1.312h.038v1.312Zm-.026-1.337v.038H45.7v-.038h3.842Zm-3.817.013h-.038v-1.833h.038V68.6Zm-.012-1.82v-.039h3.267v.039h-3.267Zm3.28-.013h-.038v-1.311h.038v1.31Zm-.013-1.337v.038h-3.267v-.038h3.267Zm-3.255.025h-.038v-1.769h.038v1.77Zm-.012-1.756v-.038h3.842v.038h-3.842Zm3.855-.026h-.038v-1.31h.038v1.31Zm-.026-1.336v.038h-5.45v-.038h5.45Zm-5.476.026h.038v7.56h-.038v-7.56Zm.025 7.574v-.039h5.451v.039h-5.45Zm12.41-2.254c0-.674-.204-1.234-.65-1.616l-.026.025c.434.382.638.93.638 1.591h.038Zm-.65-1.616c-.358-.306-.83-.497-1.596-.586v.038c.753.09 1.225.28 1.57.573l.025-.025Zm-1.583-.586-.983-.127v.038l.983.127v-.038Zm-.983-.127c-.332-.038-.6-.153-.754-.293l-.025.025c.166.14.434.255.779.306v-.038Zm-.754-.293a.692.692 0 0 1-.242-.522h-.038c0 .19.076.407.255.56l.025-.038Zm-.242-.522h-.038a.86.86 0 0 1 .319-.687c.217-.179.536-.293.97-.293v.038c-.434 0-.74.102-.945.28a.857.857 0 0 0-.306.662Zm1.264-.942v-.038c.548 0 1.187.064 1.71.522l-.025.025c-.524-.445-1.137-.509-1.685-.509Zm1.71.522-.025-.026 1.02-.929.026.026-1.021.93Zm1.021-.955-.025.026c-.702-.624-1.532-.879-2.668-.879v-.038c1.149 0 1.978.255 2.693.891Zm-2.68-.89v.037c-.894 0-1.609.23-2.107.637-.497.395-.765.968-.765 1.642h-.039c0-.675.281-1.26.779-1.667.498-.408 1.225-.65 2.132-.65Zm-2.91 2.316h.038c0 .637.19 1.12.587 1.477l-.026.025c-.396-.369-.6-.865-.6-1.502Zm.6 1.502.025-.025c.37.33.893.522 1.595.623v.039c-.715-.102-1.25-.306-1.62-.637Zm1.62.624v-.038l.996.127v.038l-.996-.127Zm.996.127v-.038c.383.051.575.127.74.267l-.025.026c-.153-.128-.332-.191-.715-.255Zm.728.267.025-.025c.179.153.268.382.268.65h-.038c-.013-.268-.09-.485-.255-.625Zm.242.624a.758.758 0 0 1-.37.675c-.242.153-.6.242-1.085.242v.038c.485 0 .855-.077 1.098-.242a.805.805 0 0 0 .383-.713h-.026Zm-1.442.917v.038c-.766 0-1.481-.165-2.017-.637l.025-.025c.524.458 1.226.624 1.992.624Zm-2.017-.636.025.025-1.046.954-.026-.025 1.047-.954Zm-1.047.98.026-.026c.804.751 1.761.993 3.012.993V70c-1.264 0-2.221-.242-3.038-1.005ZM53.41 70v-.038c.868 0 1.634-.204 2.17-.598a1.98 1.98 0 0 0 .881-1.68h.038c0 .738-.331 1.323-.893 1.705-.55.408-1.328.611-2.196.611Zm9.88-2.317c0-.674-.19-1.222-.638-1.604-.345-.292-.83-.484-1.583-.585l-.982-.127a1.582 1.582 0 0 1-.766-.293.7.7 0 0 1-.243-.548c0-.521.421-.954 1.276-.954.55 0 1.175.063 1.698.521l1.022-.929c-.715-.623-1.532-.878-2.681-.878-1.787 0-2.885.942-2.885 2.291 0 .637.204 1.12.587 1.49.37.33.894.534 1.608.623l.996.127c.383.052.574.128.728.268.179.153.255.37.255.637 0 .61-.51.929-1.468.929-.766 0-1.48-.153-2.004-.637l-1.047.955c.817.751 1.774.993 3.026.993 1.761.025 3.102-.815 3.102-2.279Z"/><path d="m62.052 64.106-.013.013.013.013.013-.013-.013-.013Zm1.034-.929.013.013.013-.013-.013-.013-.013.013Zm-4.85 4.85.012-.013-.013-.012-.013.013.013.012Zm-1.047.955-.013-.013-.013.013.013.013.013-.013Zm6.114-1.299c0-.674-.204-1.234-.65-1.616l-.026.025c.434.382.638.93.638 1.591h.038Zm-.638-1.616c-.358-.306-.83-.497-1.596-.586v.038c.754.09 1.226.28 1.57.573l.026-.025Zm-1.596-.586v.038l-.982-.127v-.038l.982.127Zm-.982-.127c-.333-.038-.6-.153-.754-.293l-.025.025c.166.14.434.255.779.306v-.038Zm-.754-.293a.693.693 0 0 1-.242-.522h-.039c0 .19.077.407.256.56l.026-.038Zm-.23-.522h-.038a.86.86 0 0 1 .32-.687c.216-.179.535-.293.97-.293v.038c-.422 0-.74.102-.945.28a.857.857 0 0 0-.306.662Zm1.251-.942v-.038c.55 0 1.188.064 1.711.522l-.026.025c-.51-.445-1.135-.509-1.685-.509Zm1.711.522-.026-.026 1.022-.929.025.026-1.02.93Zm1.034-.955-.025.026c-.703-.624-1.532-.879-2.669-.879v-.038c1.15 0 1.98.255 2.694.891Zm-2.694-.89v.037c-.893 0-1.608.23-2.106.637-.497.395-.766.968-.766 1.642h-.038c0-.675.28-1.26.779-1.667.51-.408 1.225-.65 2.131-.65Zm-2.91 2.316h.038c0 .637.192 1.12.587 1.477l-.025.025c-.395-.369-.6-.865-.6-1.502Zm.6 1.502.025-.025c.37.33.894.522 1.596.623v.039c-.715-.102-1.238-.306-1.62-.637Zm1.621.624.996.127v-.038l-.996-.127v.038Zm.996.127c.383.051.561.127.727.255l.026-.026c-.166-.14-.357-.216-.74-.267l-.013.038Zm.727.267c.167.14.243.357.243.624h.039c0-.267-.077-.496-.269-.649l-.012.025Zm.243.624h.039a.805.805 0 0 1-.384.713c-.255.165-.625.242-1.097.242v-.038c.472 0 .842-.076 1.084-.242.243-.153.358-.382.358-.675Zm-1.442.917v.038c-.766 0-1.481-.165-2.018-.637l.026-.025c.524.458 1.226.624 1.992.624Zm-2.018-.636.026.025-1.047.954-.025-.025 1.046-.954Zm-1.046.98.025-.026c.805.751 1.762.993 3.013.993V70c-1.25 0-2.221-.242-3.038-1.005ZM60.214 70v-.038c.868 0 1.621-.204 2.17-.598.55-.382.88-.955.88-1.68h.04a1.99 1.99 0 0 1-.894 1.705c-.55.408-1.328.611-2.196.611Z"/></g><defs><clipPath id="a"><path fill="#fff" d="M0 0h86v70H0z"/></clipPath></defs></svg>