<svg width="37" height="10" fill="none" xmlns="http://www.w3.org/2000/svg"><path d="M7.162.901H1.258a.845.845 0 0 0-.847.844v5.881c0 .466.38.844.847.844h5.904a.845.845 0 0 0 .847-.844v-5.88A.845.845 0 0 0 7.162.9v.001Z" fill="#B2B2B2"/><path fill-rule="evenodd" clip-rule="evenodd" d="M5.556 6.529H4.65a.048.048 0 0 1-.047-.047v-.224l-.682.68a.048.048 0 0 1-.067 0l-.64-.636a.048.048 0 0 1 0-.067l.158-.158h-.964a.048.048 0 0 1-.048-.047v-.905a.047.047 0 0 1 .048-.047h.224l-.682-.68a.048.048 0 0 1 0-.067l.64-.638a.048.048 0 0 1 .068 0l.158.158v-.96a.047.047 0 0 1 .048-.047h.906a.047.047 0 0 1 .047.047v.223l.682-.68a.048.048 0 0 1 .067 0l.641.64a.048.048 0 0 1 0 .066l-.159.158h.965a.048.048 0 0 1 .047.047v.903a.048.048 0 0 1-.047.047h-.225l.682.68a.048.048 0 0 1 0 .066l-.64.638a.047.047 0 0 1-.034.014.048.048 0 0 1-.034-.014l-.158-.158v.96a.048.048 0 0 1-.048.048ZM5.44 4.014l-.354.28h-.434a.048.048 0 0 1-.047-.046v-.903l-.05.448-.309.306a.049.049 0 0 1-.068 0l-.359-.356-.28-.281.28.353v.434a.048.048 0 0 1-.047.047h-.906l.45.05.307.307a.046.046 0 0 1 0 .067l-.64.638.354-.28h.435a.047.047 0 0 1 .047.048v.902l.052-.447.307-.308a.05.05 0 0 1 .068 0l.64.639-.28-.353v-.433a.047.047 0 0 1 .046-.047h.906l-.45-.052L4.8 4.72a.046.046 0 0 1-.01-.052.047.047 0 0 1 .01-.015l.36-.357.28-.282Z" fill="#fff"/><path fill-rule="evenodd" clip-rule="evenodd" d="M12.066 3.932c.01.352-.268.607-.622.607h-.93V3.35h.936a.595.595 0 0 1 .616.583Zm23.055-2.186v3.54a.107.107 0 0 1-.07.1.108.108 0 0 1-.044.007h-.746a.11.11 0 0 1-.116-.102V1.746h-1.167a.111.111 0 0 1-.102-.115v-.607a.11.11 0 0 1 .027-.08.108.108 0 0 1 .075-.036h3.33a.11.11 0 0 1 .103.116v.607a.11.11 0 0 1-.103.115h-1.187ZM16.484 5.242V4.65a.108.108 0 0 0-.108-.108h-1.74a.32.32 0 0 1-.317-.343V3.35h1.852a.11.11 0 0 0 .106-.104v-.598a.106.106 0 0 0-.076-.105.109.109 0 0 0-.046-.004h-1.839v-.477a.315.315 0 0 1 .196-.292.313.313 0 0 1 .121-.023h1.74a.108.108 0 0 0 .114-.109v-.62a.11.11 0 0 0-.076-.105.11.11 0 0 0-.046-.005L14.555.9a1.218 1.218 0 0 0-1.214 1.19v2.122a1.19 1.19 0 0 0 1.186 1.181h1.847a.107.107 0 0 0 .11-.108v-.043Zm7.381-2.237v-.032c.137-.082.255-.193.345-.325.096-.143.164-.303.2-.472l.296-1.14a.106.106 0 0 0-.06-.118.107.107 0 0 0-.047-.01h-.697a.172.172 0 0 0-.074.014.101.101 0 0 0-.055.076l-.288 1.074a.929.929 0 0 1-.137.312.58.58 0 0 1-.19.172.657.657 0 0 1-.21.074c-.066.01-.133.015-.2.015h-.512V1.017a.105.105 0 0 0-.107-.105h-.753a.11.11 0 0 0-.116.101V5.29a.11.11 0 0 0 .116.102h.746a.107.107 0 0 0 .105-.06.105.105 0 0 0 .01-.042v-1.9h.52c.127-.005.255.01.378.041.1.027.188.083.256.16.078.1.135.214.166.336l.394 1.387a.106.106 0 0 0 .103.077h.746a.108.108 0 0 0 .112-.128l-.398-1.487a2.661 2.661 0 0 0-.083-.26.879.879 0 0 0-.113-.213.709.709 0 0 0-.178-.169 1.192 1.192 0 0 0-.276-.13l.001.001Zm2.7.66.244-.81.244-.907h.038l.238.908.244.81h-1.008Zm1.238.793.25.831c.02.076.061.102.11.102h.812a.108.108 0 0 0 .106-.14l-1.33-3.99c-.064-.193-.156-.35-.384-.35h-.575a.322.322 0 0 0-.293.133.68.68 0 0 0-.102.216l-1.326 3.985a.11.11 0 0 0 .014.1.11.11 0 0 0 .09.045h.78a.106.106 0 0 0 .111-.066.384.384 0 0 0 .02-.056l.25-.81h1.467ZM31.8 2.335a.582.582 0 0 1-.364.542.59.59 0 0 1-.225.045h-.875V1.75h.835a.593.593 0 0 1 .63.586Zm-1.464 2.922v-1.5h1.067a1.433 1.433 0 0 0 1.012-.43 1.422 1.422 0 0 0 .277-1.58 1.39 1.39 0 0 0-.88-.775 1.78 1.78 0 0 0-.494-.064h-1.627a.315.315 0 0 0-.326.307c0 .027-.004.054 0 .083V5.28a.106.106 0 0 0 .068.1.108.108 0 0 0 .042.008h.758a.109.109 0 0 0 .094-.058.163.163 0 0 0 .012-.076l-.003.003Zm-20.48.136h1.684c.83.03 1.512-.547 1.54-1.404.004-.086 0-.172-.015-.257-.148-.704-.706-1.187-1.417-1.187h-1.134v-.799h1.937a.11.11 0 0 0 .116-.12v-.57c0-.083-.028-.143-.116-.14H9.882a.314.314 0 0 0-.34.315v3.85a.31.31 0 0 0 .195.291.32.32 0 0 0 .122.024l-.003-.003Zm7.692-4.052-.058.972c-.019.33-.04.617-.063.862-.035.404-.076 1.374-.602 1.374h-.02a.11.11 0 0 0-.109.105v.623a.108.108 0 0 0 .066.107.11.11 0 0 0 .044.01h.046c.396 0 .746-.045 1.044-.496.1-.15.18-.31.235-.48.064-.198.11-.4.14-.606.038-.244.066-.49.084-.736.021-.267.043-.558.064-.873l.025-.448h1.252v3.53a.108.108 0 0 0 .115.107h.746a.11.11 0 0 0 .116-.115V1.23a.322.322 0 0 0-.339-.316h-2.463a.32.32 0 0 0-.309.302c-.003.032-.012.074-.015.12v.004l.001.001Zm-6.588 5.57-.29.49-.554.892a.958.958 0 0 1-.052.073.215.215 0 0 1-.05.044.159.159 0 0 1-.06.021.601.601 0 0 1-.083.005h-.13a.198.198 0 0 1-.17-.06.283.283 0 0 1-.043-.165V6.22c0-.042.023-.062.07-.062h.35c.03 0 .05.004.056.013.01.014.013.032.012.05v1.46h.02l.277-.456.565-.924c.02-.03.038-.056.053-.075a.16.16 0 0 1 .108-.067.572.572 0 0 1 .082-.005h.134a.222.222 0 0 1 .166.05.266.266 0 0 1 .05.18v1.995c0 .041-.023.062-.07.062h-.354a.092.092 0 0 1-.058-.014.072.072 0 0 1-.014-.048V6.91h-.015v.001Zm1.437 1.46c0 .028-.004.046-.014.054a.11.11 0 0 1-.06.011h-.328c-.048 0-.072-.022-.072-.065V6.788c0-.042.024-.062.072-.062h.328a.11.11 0 0 1 .06.011c.01.008.014.025.014.05v.558h.612v-.557c0-.042.024-.062.073-.062h.332a.09.09 0 0 1 .058.011.068.068 0 0 1 .014.05v1.584c0 .028 0 .046-.014.054a.099.099 0 0 1-.059.011h-.33c-.05 0-.074-.022-.074-.065v-.655h-.612v.655Zm2.332-1.26v1.26c0 .028-.005.046-.015.054a.106.106 0 0 1-.06.011h-.324c-.05 0-.075-.022-.075-.065v-1.26h-.464c-.044 0-.066-.025-.066-.072V6.8a.11.11 0 0 1 .012-.06c.007-.01.025-.015.054-.015H15.2a.066.066 0 0 1 .053.014c.01.018.015.04.013.06v.24c0 .046-.022.07-.066.07h-.47v.002Zm1.432-.428c.255 0 .446.064.573.191a.737.737 0 0 1 .192.546.315.315 0 0 1-.066.231.25.25 0 0 1-.18.062h-.836c0 .06.012.118.034.173a.32.32 0 0 0 .083.11.307.307 0 0 0 .123.06.84.84 0 0 0 .346-.008c.062-.014.123-.034.182-.058a.11.11 0 0 1 .054-.009.059.059 0 0 1 .028.032l.104.234a.05.05 0 0 1 .005.046.084.084 0 0 1-.034.032.83.83 0 0 1-.28.113 1.466 1.466 0 0 1-.298.034c-.286 0-.498-.07-.635-.21-.138-.14-.206-.366-.206-.673-.002-.13.018-.26.058-.383a.817.817 0 0 1 .165-.285.684.684 0 0 1 .256-.177.895.895 0 0 1 .331-.06h.001Zm.01.392a.28.28 0 0 0-.219.094.403.403 0 0 0-.099.241h.612a.56.56 0 0 0-.015-.134.287.287 0 0 0-.047-.105.22.22 0 0 0-.089-.07.337.337 0 0 0-.143-.026Zm1.574 1.97c0 .024 0 .04-.01.045a.104.104 0 0 1-.058.01h-.337a.103.103 0 0 1-.052-.01c-.01-.006-.017-.02-.017-.045V6.92c0-.02.004-.039.012-.057a.127.127 0 0 1 .054-.043c.112-.05.23-.084.351-.1.123-.02.247-.03.372-.03a.963.963 0 0 1 .39.07.664.664 0 0 1 .394.47c.058.227.057.465-.003.692a.811.811 0 0 1-.14.281.667.667 0 0 1-.242.191.78.78 0 0 1-.343.07c-.124 0-.248-.013-.37-.039v.62Zm.645-1.476a.817.817 0 0 0-.026-.224.37.37 0 0 0-.077-.147.282.282 0 0 0-.126-.078.55.55 0 0 0-.165-.023.955.955 0 0 0-.25.037v.89a.98.98 0 0 0 .274.034.353.353 0 0 0 .267-.11c.07-.075.104-.2.104-.379Zm1.33.802c0 .028-.005.046-.015.054a.11.11 0 0 1-.06.011h-.327c-.048 0-.072-.022-.072-.065V6.788c0-.042.024-.062.072-.062h.327a.11.11 0 0 1 .06.011.063.063 0 0 1 .015.05v.558h.612v-.557c0-.042.024-.062.072-.062h.332a.102.102 0 0 1 .06.011.066.066 0 0 1 .013.05v1.584c0 .028-.005.046-.014.054a.102.102 0 0 1-.06.011h-.33c-.049 0-.073-.022-.073-.065v-.655h-.612v.655Zm2.253-1.688c.255 0 .447.064.574.191a.741.741 0 0 1 .191.546.315.315 0 0 1-.066.231.25.25 0 0 1-.18.062h-.836c0 .06.012.118.034.173a.291.291 0 0 0 .205.17.84.84 0 0 0 .346-.008c.062-.014.124-.034.183-.058a.105.105 0 0 1 .054-.009.06.06 0 0 1 .027.032l.104.234a.05.05 0 0 1 .005.046.084.084 0 0 1-.034.032.824.824 0 0 1-.28.113 1.467 1.467 0 0 1-.298.034c-.286 0-.497-.07-.635-.21-.137-.14-.2-.366-.2-.673-.002-.13.017-.26.057-.383a.818.818 0 0 1 .166-.285.692.692 0 0 1 .255-.177.895.895 0 0 1 .331-.06h-.003Zm.01.392a.28.28 0 0 0-.219.094.403.403 0 0 0-.099.241h.612a.57.57 0 0 0-.015-.134.287.287 0 0 0-.047-.105.224.224 0 0 0-.088-.07.344.344 0 0 0-.144-.026Zm1.926.035v1.261c0 .028-.005.046-.015.054a.11.11 0 0 1-.06.011h-.324c-.05 0-.075-.022-.075-.065v-1.26h-.465c-.043 0-.065-.025-.065-.072V6.8a.11.11 0 0 1 .011-.06c.008-.01.026-.015.054-.015h1.413a.07.07 0 0 1 .052.014.1.1 0 0 1 .013.06v.24c0 .046-.022.07-.065.07h-.474v.001Zm2.697 1.264a.066.066 0 0 1-.013.05.09.09 0 0 1-.06.012h-.356c-.045 0-.068-.02-.068-.062V6.586h-.88v1.788a.07.07 0 0 1-.014.05.094.094 0 0 1-.059.012h-.36c-.046 0-.068-.02-.068-.062v-2a.247.247 0 0 1 .047-.165.206.206 0 0 1 .166-.054h1.462a.207.207 0 0 1 .165.054c.034.048.05.106.046.165v2h-.008Zm1.913-.15a.2.2 0 0 1-.012.072.12.12 0 0 1-.057.055.862.862 0 0 1-.162.06 1.93 1.93 0 0 1-.357.054c-.06 0-.119.007-.172.007a1.344 1.344 0 0 1-.367-.042.654.654 0 0 1-.234-.116.413.413 0 0 1-.124-.172.66.66 0 0 1 .007-.447.497.497 0 0 1 .128-.184.599.599 0 0 1 .213-.122.963.963 0 0 1 .306-.044h.357v-.053c0-.03-.003-.06-.01-.088a.148.148 0 0 0-.04-.073.232.232 0 0 0-.087-.05.475.475 0 0 0-.147-.02c-.033 0-.07.001-.112.005l-.123.012a2.358 2.358 0 0 0-.226.045.084.084 0 0 1-.06 0 .06.06 0 0 1-.022-.043l-.052-.228a.07.07 0 0 1 0-.05.055.055 0 0 1 .034-.024c.1-.036.204-.06.31-.075.106-.016.213-.024.32-.024.238 0 .412.051.522.152a.58.58 0 0 1 .166.448v.945h.001Zm-.474-.563h-.258a.681.681 0 0 0-.098.007.249.249 0 0 0-.096.03.2.2 0 0 0-.104.194.17.17 0 0 0 .077.16.404.404 0 0 0 .208.045h.053c.022 0 .044 0 .07-.007.024-.006.05-.007.076-.012a.413.413 0 0 0 .072-.022v-.395Zm1.377 1.384c0 .024-.004.04-.012.045a.1.1 0 0 1-.056.01h-.338a.106.106 0 0 1-.052-.01c-.01-.006-.016-.02-.016-.045V6.92a.124.124 0 0 1 .01-.057.13.13 0 0 1 .055-.043c.112-.05.23-.085.352-.1.122-.02.246-.03.37-.03a.962.962 0 0 1 .391.07.672.672 0 0 1 .394.47c.058.227.057.465-.003.692a.81.81 0 0 1-.14.281.662.662 0 0 1-.242.191.776.776 0 0 1-.343.07 1.79 1.79 0 0 1-.37-.039v.62Zm.644-1.476a.818.818 0 0 0-.027-.224.358.358 0 0 0-.077-.147.276.276 0 0 0-.125-.078.544.544 0 0 0-.166-.023.947.947 0 0 0-.249.037v.89c.09.024.181.036.273.034a.354.354 0 0 0 .267-.11c.07-.075.104-.2.104-.379Zm2.442 0c0 .287-.069.51-.206.66-.138.153-.346.235-.627.235-.28 0-.49-.078-.622-.234-.13-.156-.196-.376-.196-.66a1.166 1.166 0 0 1 .058-.377.716.716 0 0 1 .424-.457.915.915 0 0 1 .345-.062c.274 0 .48.082.62.236.137.153.207.375.207.653l-.003.006Zm-.497.01c0-.067-.005-.135-.017-.202a.452.452 0 0 0-.055-.156.286.286 0 0 0-.1-.102.295.295 0 0 0-.155-.038.284.284 0 0 0-.256.132.665.665 0 0 0-.083.356.727.727 0 0 0 .077.372.275.275 0 0 0 .253.127.295.295 0 0 0 .155-.038.298.298 0 0 0 .105-.104.464.464 0 0 0 .06-.154.933.933 0 0 0 .017-.193Zm2.18-.857a.2.2 0 0 1 .156.048.228.228 0 0 1 .041.151v1.45a.062.062 0 0 1-.015.05.11.11 0 0 1-.06.012h-.332a.088.088 0 0 1-.06-.015.07.07 0 0 1-.015-.05V7.11h-.402l-.01.165c-.01.19-.025.352-.042.49-.013.12-.044.238-.09.35a.599.599 0 0 1-.176.236.908.908 0 0 1-.304.15c-.03.01-.052.012-.065.004a.083.083 0 0 1-.033-.044l-.088-.22a.111.111 0 0 1-.01-.06c0-.014.018-.027.046-.04a.546.546 0 0 0 .142-.09.347.347 0 0 0 .088-.14c.028-.079.046-.16.054-.243.014-.1.025-.234.036-.4l.023-.354a.222.222 0 0 1 .05-.15.22.22 0 0 1 .153-.043l.914.001Zm.83 1.711a.205.205 0 0 1-.166-.05.22.22 0 0 1-.04-.139V6.788c0-.042.025-.062.073-.062h.326a.11.11 0 0 1 .06.011.062.062 0 0 1 .015.05v.473h.406a.884.884 0 0 1 .378.067.568.568 0 0 1 .21.165.457.457 0 0 1 .09.193c.011.054.017.11.018.165a.55.55 0 0 1-.185.42.698.698 0 0 1-.46.17l-.726-.007h.001Zm.882-.596a.225.225 0 0 0-.057-.155.22.22 0 0 0-.172-.064h-.385v.444h.381a.25.25 0 0 0 .114-.024.194.194 0 0 0 .11-.13.28.28 0 0 0 .011-.068l-.002-.003Z" fill="#B2B2B2"/></svg>