<svg width="23" height="24" fill="none" xmlns="http://www.w3.org/2000/svg"><g fill="#B2B2B2"><path d="m7.275 20.735-.047.783c-.013.232-.03.464-.05.695-.029.325-.06 1.107-.484 1.107h-.016c-.038 0-.086.032-.086.084v.502c0 .055.036.093.086.093h.038c.318 0 .597-.035.837-.398.076-.114.142-.242.19-.387.05-.159.088-.322.112-.487.027-.18.05-.377.068-.593.017-.216.034-.45.051-.704l.02-.36H9v2.842c0 .048.042.092.093.087h.596c.063 0 .094-.043.094-.092v-3.262a.262.262 0 0 0-.272-.255H7.535c-.152 0-.242.133-.249.243-.002.032-.01.065-.01.102ZM1.101 24h1.352c.668.024 1.214-.44 1.236-1.132 0-.06.004-.13-.012-.208-.118-.566-.566-.956-1.136-.956h-.91v-.643h1.553c.06.001.095-.04.093-.098v-.458c.001-.063-.022-.115-.093-.113H1.12c-.21 0-.273.154-.273.254v3.1c0 .14.11.254.254.254Zm16.436-.108v-1.207h.855a1.145 1.145 0 0 0 1.036-1.62 1.122 1.122 0 0 0-.707-.623 1.4 1.4 0 0 0-.396-.05H17.02a.251.251 0 0 0-.262.247c0 .02-.003.043-.003.067v3.207a.086.086 0 0 0 .09.088h.606a.088.088 0 0 0 .077-.047.142.142 0 0 0 .01-.062Zm1.174-2.353a.469.469 0 0 1-.473.472h-.7v-.945h.668c.303-.01.505.22.505.473Zm-3.207 1.71.201.67c.017.06.05.081.09.081h.65c.061 0 .1-.05.086-.112l-1.068-3.214c-.05-.157-.125-.282-.308-.282h-.462a.258.258 0 0 0-.235.11.537.537 0 0 0-.08.172l-1.068 3.21c-.024.072.036.116.084.116h.626c.02 0 .063.003.09-.053a.28.28 0 0 0 .015-.045l.2-.653h1.18Zm-.993-.639.195-.652.196-.734h.03l.191.734.196.652h-.808Zm-2.167-.53v-.025a.889.889 0 0 0 .276-.262 1.1 1.1 0 0 0 .162-.38l.237-.92a.086.086 0 0 0-.05-.093.088.088 0 0 0-.037-.008h-.562a.18.18 0 0 0-.06.01c-.02.008-.035.03-.043.062l-.232.866a.74.74 0 0 1-.11.252.463.463 0 0 1-.319.198.988.988 0 0 1-.163.012h-.407v-1.314a.083.083 0 0 0-.025-.06.083.083 0 0 0-.06-.026h-.604c-.052 0-.093.037-.093.082v3.444c0 .048.045.082.093.082h.597c.05 0 .092-.033.092-.082V22.39h.417c.12-.002.22.01.303.034a.42.42 0 0 1 .206.128c.054.063.1.153.135.27l.317 1.118c.017.045.05.061.082.061h.597c.076.004.098-.069.09-.103l-.32-1.194a2.04 2.04 0 0 0-.065-.21.72.72 0 0 0-.09-.17.573.573 0 0 0-.143-.137.939.939 0 0 0-.22-.106Zm-5.923 1.802v-.474c0-.035-.027-.087-.087-.087H4.935a.258.258 0 0 1-.254-.276v-.687h1.486a.087.087 0 0 0 .09-.084v-.483c0-.05-.036-.087-.099-.087H4.681v-.385c0-.163.136-.253.254-.253H6.33a.087.087 0 0 0 .092-.087v-.5c0-.05-.037-.087-.098-.087l-1.452-.007a.974.974 0 0 0-.973.96v1.708a.96.96 0 0 0 .953.947h1.481a.086.086 0 0 0 .09-.087v-.03Zm14.955-2.816v2.852c0 .05-.043.082-.092.082h-.597c-.048 0-.093-.034-.093-.082v-2.852h-.937c-.048 0-.082-.045-.082-.093v-.489c0-.049.033-.092.082-.092h2.672c.05 0 .082.043.082.092v.49c0 .047-.035.092-.082.092h-.953Zm-18.5 1.76c.008.285-.216.49-.5.49H1.63v-.958h.751c.266 0 .486.184.495.47v-.002Z"/><path fill-rule="evenodd" clip-rule="evenodd" d="M14.493 15.18 13.3 17.312v-.94l1.193-1.192Zm2.366-8.378-2.716 2.716a.203.203 0 0 0 0 .286l1.332 1.332 1.868.197h-3.84a.203.203 0 0 0-.203.202v1.803l1.21 1.54-2.716-2.717a.203.203 0 0 0-.285 0l-1.296 1.296-.24 1.925v-3.84a.203.203 0 0 0-.203-.203H7.83L6.4 12.507l2.715-2.716a.203.203 0 0 0 0-.286l-1.36-1.36-1.842-.175h3.84a.202.202 0 0 0 .203-.202V5.934L8.757 4.43l2.716 2.716a.203.203 0 0 0 .286 0l1.335-1.336.197-1.883v3.84c0 .112.091.203.202.203h1.913l1.452-1.168h.001Zm.686 6.403v-1.67l.683 2.354-.683-.684Zm3.685-2.318L18.313 7.97l-1.168-1.168 2.127 1.168a.203.203 0 0 0 .202-.202v-3.84a.202.202 0 0 0-.203-.203h-4.09l.664-.664-.664.664h-1.687l2.351-.664a.2.2 0 0 0 .044-.22.2.2 0 0 0-.044-.066L13.13.06a.2.2 0 0 0-.22-.044.203.203 0 0 0-.066.044L9.957 2.947l-1.235 1.25.001-.003.006-.012L9.957 1.99a.202.202 0 0 0-.202-.202h-3.84a.203.203 0 0 0-.203.202v5.777l-.68-2.348a.203.203 0 0 0-.287 0L2.03 8.135a.202.202 0 0 0 0 .286l4.085 4.085-2.12-1.168a.203.203 0 0 0-.203.202v3.84c0 .112.09.203.202.203h5.777l-2.346.662a.203.203 0 0 0 0 .286l2.716 2.716a.202.202 0 0 0 .285 0l2.875-2.875v.94c0 .11.091.201.202.201h3.841a.203.203 0 0 0 .202-.202v-4.107l.683.684a.203.203 0 0 0 .286 0l2.716-2.716a.203.203 0 0 0 0-.286v.001Z"/></g></svg>