<svg width="65.000000" height="65.000000" viewBox="0 0 65 65" fill="none" xmlns="http://www.w3.org/2000/svg" xmlns:xlink="http://www.w3.org/1999/xlink">
	<desc>
			Created with Pixso.
	</desc>
	<defs>
		<clipPath id="clip138_125">
			<rect id="double-quotes-l" width="65.000000" height="65.000000" fill="white" fill-opacity="0"/>
		</clipPath>
	</defs>
	<rect id="double-quotes-l" width="65.000000" height="65.000000" fill="#FFFFFF" fill-opacity="0"/>
	<g clip-path="url(#clip138_125)">
		<path id="Vector" d="M12.4123 46.911C9.62271 43.9481 8.125 40.625 8.125 35.238C8.125 25.7589 14.7794 17.2629 24.4562 13.0623L26.8748 16.7943C17.8425 21.6802 16.0767 28.0204 15.3725 32.0178C16.8269 31.265 18.7308 31.0022 20.5969 31.1755C25.4827 31.6279 29.334 35.6389 29.334 40.625C29.334 43.139 28.3353 45.55 26.5576 47.3278C24.7799 49.1055 22.3688 50.1041 19.8548 50.1041C16.9487 50.1041 14.17 48.7771 12.4123 46.911ZM39.4956 46.911C36.706 43.9481 35.2083 40.625 35.2083 35.238C35.2083 25.7589 41.8627 17.2629 51.5396 13.0623L53.9581 16.7943C44.9258 21.6802 43.16 28.0204 42.4558 32.0178C43.9102 31.265 45.8142 31.0022 47.6802 31.1755C52.566 31.6279 56.4173 35.6389 56.4173 40.625C56.4173 43.139 55.4186 45.55 53.6409 47.3278C51.8632 49.1055 49.4522 50.1041 46.9381 50.1041C44.0321 50.1041 41.2533 48.7771 39.4956 46.911Z" fill="#323232" fill-opacity="1.000000" fill-rule="nonzero"/>
	</g>
</svg>
