<svg width="499.000000" height="185.000000" viewBox="0 0 499 185" fill="none" xmlns="http://www.w3.org/2000/svg" xmlns:xlink="http://www.w3.org/1999/xlink">
	<desc>
			Created with Pixso.
	</desc>
	<defs>
		<clipPath id="clip12_52">
			<rect id="logo" width="499.000000" height="185.000000" fill="white" fill-opacity="0"/>
		</clipPath>
	</defs>
	<rect id="logo" width="499.000000" height="185.000000" fill="#FFFFFF" fill-opacity="0"/>
	<g clip-path="url(#clip12_52)">
		<path id="Vector" d="M122.661 32.3958L122.661 53.9514L164.816 53.9514L164.816 161.565L193.531 161.565L193.531 53.9514L236.219 53.9514L236.219 32.3958L122.661 32.3958Z" fill="#FFFFFF" fill-opacity="1.000000" fill-rule="nonzero"/>
		<g opacity="0.400000">
			<path id="Vector" d="M179.381 32.3958L179.381 161.565L164.816 161.565L164.816 53.9514L122.661 53.9514L122.661 32.3958L179.381 32.3958Z" fill="#FFFFFF" fill-opacity="1.000000" fill-rule="nonzero"/>
		</g>
		<path id="Vector" d="M91.5181 64.8298L82.5187 43.1096L78.611 33.4014L78.1966 32.3593L51.5535 32.3593L47.9419 41.3545L15.0821 123.408L-0.193207 161.638L29.943 161.638L39.7714 134.981L64.9342 126.59L65.2303 126.48L90.0971 134.981L99.1558 161.419L131.423 161.638L91.5181 64.8298ZM64.9935 106.405L64.8158 106.35L47.5275 113.426L54.8691 92.9672L64.875 65.104L64.9935 65.3783L70.6181 80.9553L82.4003 113.481L64.9935 106.405Z" fill="#FFFFFF" fill-opacity="1.000000" fill-rule="nonzero"/>
		<path id="Vector" d="M365.052 32.3939L365.052 161.563L336.278 161.563L336.278 75.7793L280.387 161.563L251.671 161.563L251.671 32.5036L265.703 43.7476L265.999 43.967L280.387 32.1745L280.387 118.342L330.357 41.4439L335.804 33.1069L336.278 32.3939L365.052 32.3939Z" fill="#FFFFFF" fill-opacity="1.000000" fill-rule="nonzero"/>
		<path id="Vector" d="M494.479 116.644C494.42 115.437 494.302 114.285 494.124 113.133C493.295 107.648 491.4 102.767 488.381 98.4339C486.545 95.856 484.414 93.4426 481.75 91.2487C481.276 90.8099 480.743 90.4259 480.151 89.9871C473.224 84.6668 464.521 81.2662 454.041 79.7852C450.311 79.2368 446.344 78.9625 442.2 78.9625C441.844 78.9625 441.489 78.9625 441.075 78.9625L418.635 78.9625L418.635 53.9514L482.46 53.9514L471.152 43.6947L482.283 32.3958L389.683 32.3958L389.683 161.62L442.2 161.62C449.008 161.565 455.284 160.797 460.909 159.371C461.975 159.097 463.04 158.822 464.106 158.439C470.204 156.519 475.592 153.721 480.21 150.047C489.743 142.423 494.538 132.385 494.538 119.825C494.598 118.728 494.538 117.686 494.479 116.644ZM459.192 134.579C454.929 138.199 449.304 140.064 442.259 140.174C442.081 140.174 441.844 140.174 441.667 140.174L418.754 140.174L418.754 100.408L442.318 100.408C449.6 100.518 455.344 102.273 459.488 105.729C463.692 109.129 465.764 113.737 465.764 119.606C465.764 125.858 463.573 130.85 459.192 134.579Z" fill="#FFFFFF" fill-opacity="1.000000" fill-rule="nonzero"/>
		<path id="Vector" d="M479.23 116.307L479.23 109.341L486.749 109.341L486.749 116.307L479.23 116.307Z" fill="#FBBF0D" fill-opacity="1.000000" fill-rule="evenodd"/>
		<path id="Vector" d="M471.815 123.16L471.815 116.194L479.334 116.194L479.334 123.16L471.815 123.16Z" fill="#FBBF0D" fill-opacity="1.000000" fill-rule="evenodd"/>
		<path id="Vector" d="M479.218 130.085L479.218 123.12L486.738 123.12L486.738 130.085L479.218 130.085Z" fill="#FBBF0D" fill-opacity="1.000000" fill-rule="evenodd"/>
		<path id="Vector" d="M345.72 47.5791L338.201 47.5791L338.201 40.6133L345.72 40.6133L345.72 47.5791Z" fill="#3F94FF" fill-opacity="1.000000" fill-rule="evenodd"/>
		<path id="Vector" d="M353.136 54.4453L345.617 54.4453L345.617 47.4795L353.136 47.4795L353.136 54.4453Z" fill="#3F94FF" fill-opacity="1.000000" fill-rule="evenodd"/>
		<path id="Vector" d="M360.607 47.5791L353.088 47.5791L353.088 40.6133L360.607 40.6133L360.607 47.5791Z" fill="#3F94FF" fill-opacity="1.000000" fill-rule="evenodd"/>
		<path id="Vector" d="M183.114 146.477L190.634 146.477L190.634 153.442L183.114 153.442L183.114 146.477Z" fill="#FF2C60" fill-opacity="1.000000" fill-rule="evenodd"/>
		<path id="Vector" d="M175.647 139.569L183.167 139.569L183.167 146.535L175.647 146.535L175.647 139.569Z" fill="#FF2C60" fill-opacity="1.000000" fill-rule="evenodd"/>
		<path id="Vector" d="M168.25 146.477L175.769 146.477L175.769 153.442L168.25 153.442L168.25 146.477Z" fill="#FF2C60" fill-opacity="1.000000" fill-rule="evenodd"/>
		<path id="Vector" d="M53.926 40.5675L61.4452 40.5675L61.4452 47.5333L53.926 47.5333L53.926 40.5675Z" fill="#7053FF" fill-opacity="1.000000" fill-rule="evenodd"/>
		<path id="Vector" d="M68.8586 54.4028L61.3393 54.4028L61.3393 47.437L68.8586 47.437L68.8586 54.4028Z" fill="#7053FF" fill-opacity="1.000000" fill-rule="evenodd"/>
		<path id="Vector" d="M76.2716 47.5378L68.7523 47.5378L68.7523 40.5719L76.2716 40.5719L76.2716 47.5378Z" fill="#7053FF" fill-opacity="1.000000" fill-rule="evenodd"/>
		<g opacity="0.400000">
			<path id="Vector" d="M389.683 32.3958L405.669 32.3958L405.669 161.62L389.683 161.62L389.683 32.3958Z" fill="#FFFFFF" fill-opacity="1.000000" fill-rule="evenodd"/>
		</g>
		<g opacity="0.400000">
			<path id="Vector" d="M265.703 43.7457L265.703 161.561L251.671 161.561L251.671 32.5016L265.703 43.7457Z" fill="#FFFFFF" fill-opacity="1.000000" fill-rule="nonzero"/>
		</g>
	</g>
</svg>
