<svg width="160.000000" height="34.000000" viewBox="0 0 160 34" fill="none" xmlns="http://www.w3.org/2000/svg" xmlns:xlink="http://www.w3.org/1999/xlink">
	<desc>
			Created with Pixso.
	</desc>
	<defs>
		<clipPath id="clip11_1545">
			<rect id="logo" width="160.000000" height="34.000000" fill="white" fill-opacity="0"/>
		</clipPath>
	</defs>
	<rect id="logo" width="160.000000" height="34.000000" fill="#FFFFFF" fill-opacity="0"/>
	<g clip-path="url(#clip11_1545)">
		<path id="Vector" d="M27.1331 5.95386L27.1331 9.91541L34.8792 9.91541L34.8792 29.6931L40.1558 29.6931L40.1558 9.91541L47.9995 9.91541L47.9995 5.95386L27.1331 5.95386Z" fill="#FFFFFF" fill-opacity="1.000000" fill-rule="nonzero"/>
		<g opacity="0.400000">
			<path id="Vector" d="M37.5554 5.95386L37.5554 29.6931L34.8792 29.6931L34.8792 9.91541L27.1331 9.91541L27.1331 5.95386L37.5554 5.95386Z" fill="#FFFFFF" fill-opacity="1.000000" fill-rule="nonzero"/>
		</g>
		<path id="Vector" d="M21.4106 11.9146L19.7568 7.92285L19.0388 6.13861L18.9626 5.94708L14.0669 5.94708L13.4033 7.60028L7.36523 22.6804L4.55835 29.7064L10.0959 29.7064L11.9019 24.8074L16.5256 23.2651L16.5801 23.2449L21.1494 24.8074L22.814 29.6661L28.7432 29.7064L21.4106 11.9146ZM16.5366 19.5555L16.5039 19.5455L13.3271 20.8458L14.6763 17.0858L16.5149 11.965L16.5366 12.0154L17.5701 14.8782L19.7351 20.8559L16.5366 19.5555Z" fill="#FFFFFF" fill-opacity="1.000000" fill-rule="nonzero"/>
		<g opacity="0.400000">
			<path id="Vector" d="M14.6763 17.0825L13.3271 20.8425L16.5039 19.532L16.5366 19.5522L16.5366 23.2618L11.9019 24.8041L10.0959 29.7031L4.55835 29.7031L7.36523 22.6872L13.4033 7.60706L14.0669 5.95386L16.5366 5.95386L16.5366 12.0021L16.5149 11.9517L14.6763 17.0825Z" fill="#FFFFFF" fill-opacity="1.000000" fill-rule="nonzero"/>
		</g>
		<path id="Vector" d="M71.6729 5.95349L71.6729 29.6926L66.3857 29.6926L66.3857 13.927L56.1152 29.6926L50.8389 29.6926L50.8389 5.97363L53.4175 8.0401L53.4717 8.08044L56.1152 5.91315L56.1152 21.7493L65.2974 7.6167L66.2983 6.08453L66.3857 5.95349L71.6729 5.95349Z" fill="#FFFFFF" fill-opacity="1.000000" fill-rule="nonzero"/>
		<path id="Vector" d="M95.4556 21.4373C95.4448 21.2155 95.4229 21.0038 95.3906 20.7921C95.2383 19.7841 94.8901 18.8869 94.335 18.0906C93.998 17.6168 93.6064 17.1733 93.1167 16.7701C93.0298 16.6894 92.9316 16.6188 92.8228 16.5382C91.5498 15.5604 89.9507 14.9354 88.0249 14.6633C87.3398 14.5624 86.6108 14.5121 85.8491 14.5121C85.7842 14.5121 85.7188 14.5121 85.6426 14.5121L81.519 14.5121L81.519 9.91541L93.2471 9.91541L91.1694 8.0304L93.2144 5.95386L76.1992 5.95386L76.1992 29.7031L85.8491 29.7031C87.1006 29.6931 88.2534 29.5519 89.2871 29.2898C89.4829 29.2394 89.6787 29.189 89.8745 29.1185C90.9951 28.7656 91.9854 28.2515 92.834 27.5762C94.5854 26.175 95.4668 24.3303 95.4668 22.0219C95.4775 21.8203 95.4668 21.6288 95.4556 21.4373ZM88.9717 24.7335C88.1885 25.3988 87.1548 25.7415 85.8604 25.7617C85.8276 25.7617 85.7842 25.7617 85.7515 25.7617L81.541 25.7617L81.541 18.4535L85.8711 18.4535C87.209 18.4736 88.2646 18.7962 89.0259 19.4313C89.7983 20.0562 90.1792 20.903 90.1792 21.9816C90.1792 23.1307 89.7769 24.048 88.9717 24.7335Z" fill="#FFFFFF" fill-opacity="1.000000" fill-rule="nonzero"/>
		<path id="Vector" d="M92.6533 21.3753L92.6533 20.0951L94.0352 20.0951L94.0352 21.3753L92.6533 21.3753Z" fill="#0B0B0C" fill-opacity="1.000000" fill-rule="evenodd"/>
		<path id="Vector" d="M91.291 22.6348L91.291 21.3546L92.6729 21.3546L92.6729 22.6348L91.291 22.6348Z" fill="#0B0B0C" fill-opacity="1.000000" fill-rule="evenodd"/>
		<path id="Vector" d="M92.6514 23.9076L92.6514 22.6274L94.0332 22.6274L94.0332 23.9076L92.6514 23.9076Z" fill="#0B0B0C" fill-opacity="1.000000" fill-rule="evenodd"/>
		<path id="Vector" d="M68.1206 8.74426L66.7388 8.74426L66.7388 7.46405L68.1206 7.46405L68.1206 8.74426Z" fill="#0B0B0C" fill-opacity="1.000000" fill-rule="evenodd"/>
		<path id="Vector" d="M69.4834 10.0062L68.1016 10.0062L68.1016 8.72595L69.4834 8.72595L69.4834 10.0062Z" fill="#0B0B0C" fill-opacity="1.000000" fill-rule="evenodd"/>
		<path id="Vector" d="M70.8564 8.74426L69.4746 8.74426L69.4746 7.46405L70.8564 7.46405L70.8564 8.74426Z" fill="#0B0B0C" fill-opacity="1.000000" fill-rule="evenodd"/>
		<path id="Vector" d="M38.2415 26.92L39.623 26.92L39.623 28.2003L38.2415 28.2003L38.2415 26.92Z" fill="#0B0B0C" fill-opacity="1.000000" fill-rule="evenodd"/>
		<path id="Vector" d="M36.8694 25.6505L38.251 25.6505L38.251 26.9307L36.8694 26.9307L36.8694 25.6505Z" fill="#0B0B0C" fill-opacity="1.000000" fill-rule="evenodd"/>
		<path id="Vector" d="M35.5103 26.92L36.8918 26.92L36.8918 28.2003L35.5103 28.2003L35.5103 26.92Z" fill="#0B0B0C" fill-opacity="1.000000" fill-rule="evenodd"/>
		<path id="Vector" d="M14.5029 7.45563L15.8845 7.45563L15.8845 8.73584L14.5029 8.73584L14.5029 7.45563Z" fill="#0B0B0C" fill-opacity="1.000000" fill-rule="evenodd"/>
		<path id="Vector" d="M17.2468 9.99835L15.8652 9.99835L15.8652 8.71814L17.2468 8.71814L17.2468 9.99835Z" fill="#0B0B0C" fill-opacity="1.000000" fill-rule="evenodd"/>
		<path id="Vector" d="M18.6089 8.73669L17.2273 8.73669L17.2273 7.45648L18.6089 7.45648L18.6089 8.73669Z" fill="#0B0B0C" fill-opacity="1.000000" fill-rule="evenodd"/>
		<g opacity="0.400000">
			<path id="Vector" d="M76.1992 5.95386L79.1367 5.95386L79.1367 29.7031L76.1992 29.7031L76.1992 5.95386Z" fill="#FFFFFF" fill-opacity="1.000000" fill-rule="evenodd"/>
		</g>
		<path id="Vector" d="M36.8694 25.6505L37.5657 25.6505L37.5657 26.9307L36.8694 26.9307L36.8694 25.6505Z" fill="#0B0B0C" fill-opacity="1.000000" fill-rule="evenodd"/>
		<path id="Vector" d="M16.5581 9.99835L15.8728 9.99835L15.8728 8.71814L16.5581 8.71814L16.5581 9.99835Z" fill="#0B0B0C" fill-opacity="1.000000" fill-rule="evenodd"/>
		<g opacity="0.400000">
			<path id="Vector" d="M53.4175 8.03973L53.4175 29.6923L50.8389 29.6923L50.8389 5.97327L53.4175 8.03973Z" fill="#FFFFFF" fill-opacity="1.000000" fill-rule="nonzero"/>
		</g>
		<path id="Vector" d="M107.256 17.1567L108.703 17.1567L108.703 18.4941L107.256 18.4941L107.256 17.1567Z" fill="#FFFFFF" fill-opacity="1.000000" fill-rule="nonzero"/>
		<path id="Vector" d="M109 18L151 18" stroke="#FFFFFF" stroke-opacity="1.000000" stroke-width="0.500000"/>
		<path id="Vector" d="M109 17L109 19L107 19L107 17L109 17Z" fill="#0B0B0C" fill-opacity="1.000000" fill-rule="nonzero"/>
		<path id="Vector" d="M109 19L107 19L107 17L109 17L109 19Z" stroke="#FFFFFF" stroke-opacity="1.000000" stroke-width="0.500000"/>
		<path id="ДИЗАЙН" d="M109.51 9.73242C109.454 10.569 109.295 11.1419 109.031 11.4512L109.031 11.4902L112.107 11.4902L112.107 6.56836L109.71 6.56836L109.51 9.73242ZM108.274 13.9463L107.127 13.9463L107.127 11.4902L107.63 11.4902C108.05 11.2266 108.287 10.6146 108.343 9.6543L108.597 5.50879L113.362 5.50879L113.362 11.4902L114.241 11.4902L114.241 13.9463L113.099 13.9463L113.099 12.5547L108.274 12.5547L108.274 13.9463ZM120.086 7.48633L120.022 7.48633L116.599 12.5547L115.379 12.5547L115.379 5.50879L116.634 5.50879L116.634 10.5918L116.697 10.5918L120.115 5.50879L121.336 5.50879L121.336 12.5547L120.086 12.5547L120.086 7.48633ZM124.324 8.44824L125.261 8.44824C125.645 8.44824 125.956 8.34896 126.194 8.15039C126.432 7.95182 126.55 7.69303 126.55 7.37402C126.55 7.05827 126.438 6.80762 126.213 6.62207C125.992 6.43978 125.688 6.34863 125.3 6.34863C124.91 6.34863 124.594 6.44466 124.353 6.63672C124.112 6.82878 123.979 7.09082 123.953 7.42285L122.776 7.42285C122.809 6.78158 123.054 6.27214 123.513 5.89453C123.972 5.52018 124.579 5.33301 125.335 5.33301C126.054 5.33301 126.64 5.51042 127.092 5.86523C127.545 6.2168 127.771 6.67253 127.771 7.23242C127.771 7.6263 127.649 7.97298 127.405 8.27246C127.161 8.57194 126.843 8.76562 126.453 8.85352L126.453 8.89258C126.925 8.94792 127.299 9.13184 127.576 9.44434C127.852 9.75684 127.991 10.1507 127.991 10.626C127.991 11.2282 127.737 11.7295 127.229 12.1299C126.718 12.5303 126.078 12.7305 125.31 12.7305C124.526 12.7305 123.888 12.5368 123.396 12.1494C122.901 11.762 122.638 11.2493 122.605 10.6113L123.816 10.6113C123.842 10.9401 123.992 11.2021 124.265 11.3975C124.535 11.5895 124.885 11.6855 125.315 11.6855C125.728 11.6855 126.062 11.5814 126.316 11.373C126.57 11.1647 126.697 10.8913 126.697 10.5527C126.697 10.2109 126.572 9.94401 126.321 9.75195C126.074 9.5599 125.728 9.46387 125.286 9.46387L124.324 9.46387L124.324 8.44824ZM133.176 10.7334L130.583 10.7334L129.983 12.5547L128.684 12.5547L131.184 5.50879L132.605 5.50879L135.105 12.5547L133.777 12.5547L133.176 10.7334ZM130.876 9.76172L132.878 9.76172L131.897 6.75391L131.863 6.75391L130.876 9.76172ZM138.288 3.55566C138.295 3.81283 138.378 4.02279 138.537 4.18555C138.697 4.35156 138.902 4.43457 139.153 4.43457C139.403 4.43457 139.608 4.35156 139.768 4.18555C139.927 4.02279 140.01 3.81283 140.017 3.55566L140.779 3.55566C140.779 4.00163 140.627 4.36296 140.324 4.63965C140.025 4.91309 139.634 5.0498 139.153 5.0498C138.671 5.0498 138.28 4.91309 137.981 4.63965C137.678 4.36296 137.527 4.00163 137.527 3.55566L138.288 3.55566ZM140.901 7.48633L140.837 7.48633L137.414 12.5547L136.194 12.5547L136.194 5.50879L137.448 5.50879L137.448 10.5918L137.512 10.5918L140.93 5.50879L142.151 5.50879L142.151 12.5547L140.901 12.5547L140.901 7.48633ZM148.42 12.5547L148.42 9.49805L144.992 9.49805L144.992 12.5547L143.732 12.5547L143.732 5.50879L144.992 5.50879L144.992 8.43848L148.42 8.43848L148.42 5.50879L149.675 5.50879L149.675 12.5547L148.42 12.5547Z" fill="#FFFFFF" fill-opacity="1.000000" fill-rule="evenodd"/>
		<path id="СТУДИЯ" d="M110.711 29.6963C109.705 29.6963 108.908 29.3675 108.318 28.71C107.729 28.0524 107.435 27.1589 107.435 26.0293C107.435 24.9062 107.731 24.0143 108.323 23.3535C108.912 22.696 109.708 22.3672 110.711 22.3672C111.505 22.3672 112.181 22.5902 112.737 23.0361C113.294 23.4854 113.624 24.0713 113.729 24.7939L112.479 24.7939C112.374 24.3903 112.161 24.0664 111.839 23.8223C111.52 23.5814 111.144 23.4609 110.711 23.4609C110.105 23.4609 109.622 23.6921 109.261 24.1543C108.899 24.6198 108.719 25.2448 108.719 26.0293C108.719 26.8203 108.898 27.4469 109.256 27.9092C109.617 28.3714 110.104 28.6025 110.716 28.6025C111.159 28.6025 111.536 28.4951 111.849 28.2803C112.158 28.0622 112.369 27.7594 112.483 27.3721L113.733 27.3721C113.597 28.098 113.261 28.666 112.728 29.0762C112.19 29.4896 111.518 29.6963 110.711 29.6963ZM116.733 29.5547L116.733 23.5732L114.595 23.5732L114.595 22.5088L120.132 22.5088L120.132 23.5732L117.993 23.5732L117.993 29.5547L116.733 29.5547ZM122.502 29.6133C122.248 29.6133 122.071 29.5905 121.97 29.5449L121.97 28.4951C122.09 28.5212 122.229 28.5342 122.385 28.5342C122.85 28.5342 123.202 28.3356 123.439 27.9385L121.076 22.5088L122.409 22.5088L124.089 26.6592L124.128 26.6592L125.744 22.5088L127.067 22.5088L124.909 27.5381C124.584 28.2933 124.25 28.8239 123.908 29.1299C123.544 29.4521 123.075 29.6133 122.502 29.6133ZM129.848 26.7324C129.792 27.569 129.633 28.1419 129.369 28.4512L129.369 28.4902L132.445 28.4902L132.445 23.5684L130.048 23.5684L129.848 26.7324ZM128.612 30.9463L127.465 30.9463L127.465 28.4902L127.968 28.4902C128.388 28.2266 128.625 27.6146 128.681 26.6543L128.935 22.5088L133.7 22.5088L133.7 28.4902L134.579 28.4902L134.579 30.9463L133.437 30.9463L133.437 29.5547L128.612 29.5547L128.612 30.9463ZM140.724 24.4863L140.66 24.4863L137.237 29.5547L136.017 29.5547L136.017 22.5088L137.271 22.5088L137.271 27.5918L137.335 27.5918L140.753 22.5088L141.974 22.5088L141.974 29.5547L140.724 29.5547L140.724 24.4863ZM147.806 23.5342L146.463 23.5342C146.03 23.5342 145.693 23.6416 145.452 23.8564C145.208 24.068 145.086 24.3659 145.086 24.75C145.086 25.1341 145.206 25.4336 145.447 25.6484C145.688 25.86 146.027 25.9658 146.463 25.9658L147.806 25.9658L147.806 23.5342ZM144.871 29.5547L143.455 29.5547L145.369 26.7812C144.894 26.6478 144.516 26.402 144.236 26.0439C143.947 25.6761 143.802 25.2432 143.802 24.7451C143.802 24.0778 144.025 23.5391 144.471 23.1289C144.92 22.7155 145.512 22.5088 146.248 22.5088L149.056 22.5088L149.056 29.5547L147.806 29.5547L147.806 26.9521L146.644 26.9521L144.871 29.5547Z" fill="#FFFFFF" fill-opacity="1.000000" fill-rule="evenodd"/>
	</g>
</svg>
