<svg width="48.292290" height="37.041870" viewBox="0 0 48.2923 37.0419" fill="none" xmlns="http://www.w3.org/2000/svg" xmlns:xlink="http://www.w3.org/1999/xlink">
	<desc>
			Created with Pixso.
	</desc>
	<defs/>
	<path id="Vector" d="M4.28729 33.8488C1.49771 30.8859 0 27.5627 0 22.1758C0 12.6967 6.65437 4.20068 16.3312 0L18.7498 3.73206C9.7175 8.61792 7.95167 14.9581 7.2475 18.9556C8.70187 18.2028 10.6058 17.9399 12.4719 18.1133C17.3577 18.5657 21.209 22.5767 21.209 27.5627C21.209 30.0768 20.2103 32.4878 18.4326 34.2655C16.6549 36.0432 14.2438 37.0419 11.7298 37.0419C8.82375 37.0419 6.045 35.7148 4.28729 33.8488ZM31.3706 33.8488C28.581 30.8859 27.0833 27.5627 27.0833 22.1758C27.0833 12.6967 33.7377 4.20068 43.4146 0L45.8331 3.73206C36.8008 8.61792 35.035 14.9581 34.3308 18.9556C35.7852 18.2028 37.6892 17.9399 39.5552 18.1133C44.441 18.5657 48.2923 22.5767 48.2923 27.5627C48.2923 30.0768 47.2936 32.4878 45.5159 34.2655C43.7382 36.0432 41.3272 37.0419 38.8131 37.0419C35.9071 37.0419 33.1283 35.7148 31.3706 33.8488Z" fill="#323232" fill-opacity="1.000000" fill-rule="nonzero"/>
</svg>
