<svg width="444.823242" height="24.001465" viewBox="0 0 444.823 24.0015" fill="none" xmlns="http://www.w3.org/2000/svg" xmlns:xlink="http://www.w3.org/1999/xlink">
	<desc>
			Created with Pixso.
	</desc>
	<defs/>
	<path id="Alfa" d="M6.5 2.50073C7.87305 2.50073 8.31641 3.43018 8.68164 4.35962C8.77344 4.59082 10.0996 7.99341 11.1689 10.7405L11.1689 10.7419L11.1729 10.75L12.5273 14.2236C12.5371 14.2473 12.542 14.2727 12.541 14.2983C12.54 14.3237 12.5332 14.3489 12.5225 14.3718C12.5107 14.3948 12.4941 14.415 12.4736 14.4314C12.4541 14.4478 12.4307 14.46 12.4053 14.4668C12.3418 14.4866 11.9229 14.6409 11.4756 14.804C10.9434 14.9995 10.3721 15.2095 10.3135 15.2244C10.2637 15.2397 10.21 15.2366 10.1621 15.2153C10.1143 15.1943 10.0762 15.157 10.0557 15.1104C10.0332 15.063 9.85059 14.5896 9.65527 14.0813C9.4375 13.5159 9.20312 12.9072 9.15527 12.7939L3.84473 12.7939C3.54199 13.5652 3.24219 14.3374 2.94434 15.1104C2.91406 15.1958 2.79297 15.2671 2.68555 15.2244C2.63184 15.2031 2.13574 15.0242 1.64062 14.8459C1.14453 14.667 0.649414 14.488 0.594727 14.4668C0.546875 14.4482 0.507812 14.4131 0.485352 14.3682C0.462891 14.3232 0.458984 14.2717 0.472656 14.2236C0.611328 13.8809 4.13477 4.8313 4.31836 4.35962C4.66895 3.44434 5.12695 2.50073 6.5 2.50073ZM0.198242 18.9563C0.171875 18.9568 0.145508 18.9622 0.121094 18.9724C0.0966797 18.9827 0.0751953 18.9976 0.0566406 19.0161C0.0380859 19.0347 0.0234375 19.0564 0.0136719 19.0803C0.00390625 19.1045 0 19.1301 0 19.1558L0 21.3013C0 21.4153 0.0917969 21.5007 0.198242 21.5007L12.8018 21.5007C12.8281 21.5002 12.8545 21.4949 12.8789 21.4846C12.9033 21.4741 12.9248 21.4592 12.9434 21.4407C12.9619 21.4221 12.9766 21.4001 12.9863 21.376C12.9961 21.3521 13.001 21.3262 13 21.3005L13 19.1558C13 19.1301 12.9951 19.1045 12.9863 19.0803C12.9766 19.0564 12.9619 19.0347 12.9434 19.0161C12.9248 18.9976 12.9033 18.9827 12.8789 18.9724C12.8545 18.9622 12.8281 18.9568 12.8018 18.9563L0.198242 18.9563ZM4.69922 10.5496L6.5 5.50269L6.51562 5.50269L8.31641 10.5496L4.7002 10.5496L4.69922 10.5496Z" fill="#C9C9C9" fill-opacity="1.000000" fill-rule="evenodd"/>
	<path id="Visa" d="M55.7275 5.05688L52.6611 18.9839L48.9512 18.9839L52.0215 5.05688L55.7285 5.05688L55.7275 5.05688ZM71.332 14.0488L73.2852 8.81885L74.4082 14.0488L71.332 14.0488ZM75.4697 18.9839L78.9004 18.9839L75.9082 5.05688L72.7412 5.05688C72.4062 5.05127 72.0771 5.14551 71.7959 5.32764C71.5146 5.50952 71.293 5.771 71.1611 6.07886L65.5967 18.9839L69.4922 18.9839L70.2646 16.9038L75.0244 16.9038L75.4697 18.9839ZM65.79 14.4358C65.8066 10.7598 60.5576 10.5569 60.5938 8.91577C60.6035 8.41577 61.0947 7.88379 62.167 7.7478C62.6992 7.68066 64.1621 7.62866 65.8242 8.37183L66.4736 5.4187C65.3623 5.01343 64.1895 4.80444 63.0059 4.80078C59.3398 4.80078 56.7598 6.69385 56.7383 9.40479C56.7148 11.4097 58.5791 12.5288 59.9854 13.1948C61.4297 13.8777 61.915 14.3147 61.9092 14.9248C61.8994 15.8608 60.7559 16.2727 59.6904 16.2888C57.8252 16.3179 56.7432 15.7998 55.8799 15.4087L55.208 18.4607C56.0742 18.8479 57.6738 19.1838 59.333 19.2007C63.2285 19.2007 65.7783 17.3308 65.791 14.4358L65.79 14.4358ZM50.4287 5.05688L44.4209 18.9839L40.5 18.9839L37.541 7.8689C37.3613 7.18481 37.2051 6.93384 36.6592 6.64575C35.7686 6.17578 34.2959 5.73584 33 5.46167L33.0889 5.05688L39.3994 5.05688C40.2031 5.05688 40.9268 5.57666 41.1094 6.47681L42.6719 14.5369L46.5312 5.05688L50.4268 5.05688L50.4287 5.05688Z" fill="#C9C9C9" fill-opacity="1.000000" fill-rule="evenodd"/>
	<path id="Vector" d="M98.8994 10.2754L139.899 10.2754L139.899 19.2754C139.899 20.071 139.579 20.834 139.01 21.3967C138.44 21.9592 137.668 22.2754 136.862 22.2754L101.937 22.2754C101.131 22.2754 100.358 21.9592 99.7891 21.3967C99.2197 20.834 98.8994 20.071 98.8994 19.2754L98.8994 10.2754Z" fill="#C9C9C9" fill-opacity="1.000000" fill-rule="nonzero"/>
	<path id="Vector" d="M112.529 16.9736C112.688 17.0659 112.937 17.1462 113.192 17.1462C113.511 17.1462 113.689 16.9976 113.689 16.7786C113.689 16.574 113.551 16.4546 113.205 16.3301C112.749 16.1748 112.46 15.9348 112.46 15.5518C112.46 15.1077 112.834 14.7761 113.434 14.7761C113.73 14.7761 113.945 14.8398 114.089 14.9082L113.971 15.3079C113.801 15.2229 113.612 15.1792 113.421 15.1804C113.103 15.1804 112.969 15.344 112.969 15.5029C112.969 15.7114 113.128 15.8066 113.494 15.9431C113.971 16.123 114.198 16.3586 114.198 16.7419C114.198 17.1777 113.864 17.5496 113.16 17.5496C112.867 17.5496 112.566 17.4695 112.415 17.3816L112.529 16.9736ZM116.146 16.3145L115.111 16.3145L115.111 17.1057L116.268 17.1057L116.268 17.509L114.609 17.509L114.609 14.8159L116.205 14.8159L116.205 15.2195L115.11 15.2195L115.11 15.9146L116.145 15.9146L116.145 16.3145L116.146 16.3145ZM118.634 17.429C118.516 17.4844 118.255 17.5488 117.921 17.5488C117.05 17.5488 116.521 17.0127 116.521 16.1936C116.521 15.3071 117.151 14.7754 117.99 14.7754C118.319 14.7754 118.552 14.8391 118.654 14.8909L118.548 15.2832C118.378 15.2126 118.195 15.1772 118.011 15.179C117.453 15.179 117.05 15.5232 117.05 16.1704C117.05 16.7615 117.4 17.1372 118.006 17.1372C118.206 17.1372 118.418 17.0974 118.553 17.0413L118.634 17.429ZM119.518 14.8159L119.518 16.3865C119.518 16.9136 119.742 17.1575 120.08 17.1575C120.442 17.1575 120.657 16.9136 120.657 16.3865L120.657 14.8159L121.158 14.8159L121.158 16.3542C121.158 17.1851 120.723 17.5527 120.063 17.5527C119.429 17.5527 119.017 17.2053 119.017 16.3579L119.017 14.8159L119.518 14.8159ZM121.693 14.8557C121.883 14.8196 122.161 14.7957 122.45 14.7957C122.845 14.7957 123.109 14.8594 123.297 15.0117C123.447 15.1355 123.532 15.323 123.532 15.5547C123.532 15.9019 123.293 16.1382 123.032 16.2258L123.032 16.2378C123.231 16.3098 123.35 16.498 123.415 16.7576C123.504 17.0928 123.578 17.4048 123.631 17.509L123.117 17.509C123.076 17.429 123.008 17.2092 122.935 16.873C122.853 16.5215 122.727 16.4097 122.441 16.4021L122.189 16.4021L122.189 17.509L121.692 17.509L121.692 14.8557L121.693 14.8557ZM122.189 16.0422L122.486 16.0422C122.824 16.0422 123.032 15.866 123.032 15.5989C123.032 15.3064 122.824 15.167 122.499 15.167C122.339 15.167 122.238 15.179 122.189 15.1909L122.189 16.0422ZM125.505 16.3145L124.47 16.3145L124.47 17.1057L125.626 17.1057L125.626 17.509L123.969 17.509L123.969 14.8159L125.564 14.8159L125.564 15.2195L124.47 15.2195L124.47 15.9146L125.504 15.9146L125.504 16.3145L125.505 16.3145Z" fill="#FFFFFF" fill-opacity="1.000000" fill-rule="nonzero"/>
	<path id="Vector" d="M116.387 1.82422L114.102 7.19214L112.609 7.19214L111.484 2.90796C111.416 2.64478 111.356 2.5481 111.148 2.43628C110.81 2.25562 110.25 2.08521 109.757 1.98022L109.79 1.82422L112.191 1.82422C112.497 1.82422 112.771 2.02466 112.843 2.37183L113.437 5.47754L114.904 1.8252L116.387 1.82422ZM122.231 5.43921C122.237 4.02344 120.241 3.94458 120.254 3.31152C120.259 3.11963 120.445 2.91406 120.853 2.86157C121.055 2.83618 121.612 2.81592 122.244 3.10156L122.492 1.96387C122.069 1.80811 121.622 1.72778 121.172 1.72607C119.776 1.72607 118.795 2.45581 118.787 3.50049C118.778 4.27319 119.489 4.70435 120.022 4.96167C120.572 5.22412 120.757 5.39355 120.755 5.62915C120.751 5.98901 120.315 6.14819 119.91 6.15405C119.2 6.16455 118.789 5.96509 118.461 5.81519L118.205 6.99194C118.535 7.14038 119.144 7.26929 119.773 7.27686C121.258 7.27686 122.227 6.55542 122.231 5.43921ZM125.915 7.19214L127.22 7.19214L126.08 1.82422L124.876 1.82422C124.747 1.823 124.621 1.85986 124.515 1.93018C124.407 2.00024 124.324 2.10059 124.275 2.21802L122.157 7.19214L123.64 7.19214L123.934 6.39038L125.744 6.39038L125.915 7.19214ZM124.34 5.29077L125.082 3.2749L125.51 5.29077L124.34 5.29077ZM118.403 1.82422L117.236 7.19214L115.825 7.19214L116.992 1.82422L118.403 1.82422Z" fill="#C9C9C9" fill-opacity="1.000000" fill-rule="nonzero"/>
	<path id="Vector" d="M173.179 2.88062L184.425 2.88062L184.425 21.1177L173.179 21.1177L173.179 2.88062Z" fill="#D6D6D6" fill-opacity="1.000000" fill-rule="nonzero"/>
	<path id="Vector" d="M174.338 12.0002C174.338 10.2415 174.74 8.50586 175.513 6.92603C176.286 5.34619 177.41 3.96387 178.799 2.88428C174.009 -0.852539 167.132 -0.308594 162.999 4.13428C161.007 6.27026 159.899 9.08203 159.899 12.0024C159.899 14.9229 161.007 17.7344 162.999 19.8704C167.132 24.3135 174.009 24.8584 178.799 21.1204C177.409 20.0405 176.285 18.6575 175.512 17.0769C174.739 15.4963 174.337 13.76 174.338 12.0002Z" fill="#B2B2B2" fill-opacity="1.000000" fill-rule="nonzero"/>
	<path id="Vector" d="M197.7 12.0005C197.7 16.4404 195.146 20.4915 191.123 22.4324C189.15 23.3833 186.951 23.7639 184.773 23.5315C182.597 23.2993 180.527 22.4631 178.8 21.1174C180.188 20.0369 181.312 18.6543 182.084 17.0745C182.857 15.4946 183.26 13.7593 183.262 12.0005C183.262 8.44141 181.617 5.08032 178.799 2.88135C180.526 1.53564 182.596 0.699463 184.773 0.467285C186.951 0.235107 189.15 0.616211 191.123 1.56738C195.146 3.50732 197.7 7.55737 197.7 11.9983L197.7 12.0005Z" fill="#E2E2E2" fill-opacity="1.000000" fill-rule="nonzero"/>
	<path id="Vector" d="M240.124 17.4338L240.124 15.6899L239.704 15.6899L239.704 16.7019C239.633 16.6101 239.54 16.5364 239.435 16.4871C239.329 16.438 239.213 16.4146 239.097 16.4189C238.829 16.4189 238.571 16.5254 238.382 16.7151C238.192 16.9045 238.086 17.1619 238.086 17.4299C238.086 17.698 238.192 17.9553 238.382 18.1448C238.571 18.3345 238.829 18.4409 239.097 18.4409C239.213 18.4453 239.329 18.4219 239.435 18.3728C239.54 18.3235 239.633 18.25 239.704 18.158L239.704 18.3928L240.124 18.3928L240.124 17.4329L240.124 17.4338ZM227.577 16.4658L228.265 16.4658L228.265 16.844L227.581 16.844L227.581 17.7339C227.581 17.928 227.658 18.0579 227.86 18.0579C227.991 18.0479 228.118 18.0044 228.228 17.9319L228.349 18.292C228.191 18.3904 228.01 18.4424 227.824 18.4419C227.326 18.4419 227.152 18.175 227.152 17.7258L227.152 16.8459L226.76 16.8459L226.76 16.468L227.152 16.468L227.152 15.8818L227.577 15.8818L227.577 16.468L227.577 16.4658ZM221.983 18.406L221.983 17.1919C221.99 17.0901 221.976 16.9878 221.939 16.8918C221.904 16.7961 221.849 16.709 221.776 16.6362C221.704 16.5637 221.618 16.5071 221.522 16.4705C221.427 16.4338 221.325 16.418 221.223 16.4238C221.089 16.415 220.956 16.4421 220.836 16.5024C220.717 16.5627 220.615 16.6541 220.543 16.7668C220.478 16.6575 220.383 16.5679 220.271 16.5073C220.157 16.447 220.03 16.4182 219.903 16.4238C219.792 16.4185 219.681 16.4419 219.582 16.4922C219.482 16.5425 219.398 16.6179 219.337 16.7109L219.337 16.4719L218.917 16.4719L218.917 18.406L219.341 18.406L219.341 17.334C219.332 17.2678 219.338 17.2004 219.357 17.1365C219.378 17.0728 219.411 17.0142 219.457 16.9651C219.502 16.916 219.558 16.8774 219.619 16.8523C219.682 16.8274 219.748 16.8162 219.815 16.8198C220.094 16.8198 220.235 17.002 220.235 17.3298L220.235 18.406L220.66 18.406L220.66 17.334C220.651 17.2678 220.657 17.2007 220.678 17.1372C220.697 17.0737 220.731 17.0154 220.776 16.9663C220.821 16.9172 220.877 16.8787 220.938 16.8535C221 16.8281 221.066 16.8167 221.133 16.8198C221.421 16.8198 221.558 17.002 221.558 17.3298L221.558 18.406L221.983 18.406ZM238.664 22.394L238.278 22.394L238.28 20.1208L237.993 20.1208L237.993 23.761L238.296 23.761L238.296 22.647L238.682 22.647L239.693 23.761L240.06 23.761L238.907 22.5059L240.039 21.384L239.675 21.384L238.665 22.395L238.664 22.394ZM229.988 21.5989C229.923 21.658 229.867 21.7261 229.822 21.801L229.812 20.1331L229.524 20.1331L229.524 23.7729L229.812 23.7729L229.812 22.418C229.811 22.3081 229.832 22.1992 229.874 22.0979C229.914 22.0046 229.972 21.9202 230.044 21.8494C230.116 21.7786 230.203 21.7231 230.297 21.686C230.396 21.6479 230.502 21.6289 230.609 21.6299C230.719 21.627 230.829 21.645 230.932 21.6819C231.022 21.7148 231.104 21.7676 231.172 21.8367C231.24 21.9055 231.291 21.9885 231.322 22.0798C231.357 22.1843 231.374 22.2939 231.373 22.4041L231.373 23.7739L231.663 23.7739L231.663 22.3159C231.665 22.1777 231.641 22.0405 231.59 21.9119C231.545 21.7964 231.476 21.6924 231.386 21.6074C231.296 21.5222 231.188 21.4583 231.07 21.4199C230.782 21.3193 230.467 21.3337 230.19 21.46C230.116 21.4971 230.049 21.5442 229.988 21.5999L229.988 21.5989ZM227.35 20.1838C227.641 20.1843 227.928 20.2515 228.188 20.3799C228.308 20.4409 228.422 20.5178 228.523 20.6079C228.623 20.697 228.709 20.7979 228.78 20.9119L228.523 21.083C228.333 20.7993 228.041 20.5989 227.708 20.5229C227.393 20.447 227.062 20.4705 226.761 20.5898C226.583 20.6599 226.421 20.7659 226.286 20.9009C226.15 21.0359 226.044 21.1973 225.973 21.375C225.819 21.7717 225.819 22.2112 225.973 22.6079C226.044 22.7859 226.15 22.9473 226.286 23.0825C226.422 23.2175 226.584 23.3232 226.762 23.3928C226.949 23.467 227.149 23.5039 227.35 23.5029C227.47 23.5029 227.59 23.489 227.706 23.4619C227.932 23.4124 228.14 23.3064 228.313 23.1541C228.397 23.0798 228.469 22.9949 228.529 22.9019L228.782 23.0859C228.709 23.196 228.621 23.2959 228.522 23.3831C228.312 23.5618 228.063 23.688 227.796 23.751C227.411 23.8386 227.009 23.8091 226.641 23.666C226.427 23.5813 226.231 23.4548 226.066 23.2939C225.902 23.1309 225.772 22.9363 225.686 22.7219C225.502 22.2517 225.502 21.7292 225.686 21.259C225.773 21.0449 225.902 20.8499 226.066 20.687C226.231 20.5269 226.426 20.3999 226.641 20.3149C226.866 20.2258 227.107 20.1819 227.35 20.1838ZM227.35 20.1838L227.342 20.1838L227.35 20.1838ZM221.651 20.2239C221.921 20.22 222.191 20.262 222.448 20.3469C222.673 20.4219 222.879 20.542 223.055 20.7009C223.222 20.8569 223.352 21.0479 223.437 21.259C223.615 21.7329 223.615 22.2549 223.437 22.728C223.353 22.9399 223.222 23.1304 223.055 23.2859C222.879 23.4448 222.673 23.5659 222.448 23.6399C222.191 23.7256 221.922 23.7671 221.651 23.7629L220.359 23.7629L220.359 20.2229L221.651 20.2229L221.651 20.2239ZM218.989 23.7639L219.299 23.7639L219.299 20.2239L218.989 20.2239L218.989 23.7639ZM240.428 23.644L240.383 23.644L240.383 23.7639L240.361 23.7639L240.361 23.644L240.316 23.644L240.316 23.6218L240.43 23.6218L240.428 23.644ZM240.602 23.7639L240.579 23.7639L240.579 23.6479L240.539 23.749L240.515 23.749L240.475 23.6479L240.475 23.7629L240.452 23.7629L240.452 23.6218L240.486 23.6218L240.526 23.7219L240.567 23.6218L240.602 23.6218L240.602 23.7629L240.602 23.7639ZM220.667 23.47L220.667 20.5168L221.652 20.521C221.883 20.5168 222.114 20.552 222.334 20.624C222.519 20.687 222.689 20.7878 222.831 20.9219C222.967 21.052 223.071 21.2119 223.137 21.3889C223.274 21.782 223.274 22.209 223.137 22.6021C223.071 22.7786 222.967 22.9377 222.831 23.0679C222.688 23.2009 222.519 23.302 222.334 23.365C222.113 23.4387 221.882 23.4741 221.65 23.47L220.667 23.47ZM233.55 21.353C233.698 21.3501 233.847 21.3792 233.983 21.4377C234.12 21.4963 234.242 21.5833 234.343 21.6929C234.445 21.804 234.525 21.9351 234.578 22.0769C234.637 22.2329 234.667 22.3989 234.667 22.5659L234.667 22.6851L232.673 22.6851C232.68 22.813 232.712 22.937 232.766 23.053C232.813 23.1558 232.881 23.248 232.965 23.3245C233.048 23.4009 233.146 23.46 233.253 23.498C233.363 23.5378 233.478 23.5579 233.595 23.5569C233.749 23.5601 233.901 23.5278 234.042 23.4658C234.174 23.4041 234.294 23.3198 234.398 23.217L234.551 23.4189C234.359 23.6204 234.105 23.752 233.831 23.793C233.747 23.8049 233.661 23.812 233.577 23.812C233.413 23.8137 233.25 23.783 233.097 23.7219C232.955 23.6646 232.826 23.5784 232.719 23.469C232.61 23.3596 232.527 23.2292 232.472 23.0859C232.411 22.927 232.381 22.7581 232.383 22.5879C232.38 22.2607 232.497 21.9438 232.713 21.698C232.823 21.5864 232.955 21.4978 233.101 21.4373C233.245 21.377 233.4 21.3457 233.558 21.3459L233.55 21.353ZM233.219 21.6699C233.324 21.6274 233.437 21.6062 233.55 21.6069C233.654 21.6062 233.758 21.6262 233.854 21.6655C233.952 21.7051 234.04 21.7634 234.114 21.8369C234.189 21.9124 234.25 22.0012 234.292 22.0989C234.339 22.2061 234.367 22.3198 234.375 22.437L232.675 22.437C232.688 22.3213 232.719 22.2083 232.768 22.103C232.856 21.9058 233.019 21.7505 233.219 21.6699ZM236.43 21.353C236.599 21.3508 236.766 21.3831 236.922 21.448C237.07 21.5081 237.202 21.603 237.308 21.7229L237.122 21.925C237.032 21.8303 236.924 21.7556 236.804 21.7051C236.684 21.6545 236.555 21.6296 236.424 21.6318C236.302 21.6306 236.182 21.6545 236.069 21.7017C235.957 21.749 235.855 21.8188 235.771 21.907C235.684 21.9934 235.615 22.0964 235.569 22.21C235.476 22.4573 235.476 22.7297 235.569 22.9771C235.637 23.1462 235.753 23.2915 235.904 23.3933C236.056 23.4954 236.233 23.5496 236.416 23.5488C236.551 23.5503 236.684 23.5227 236.806 23.468C236.923 23.416 237.03 23.343 237.122 23.2539L237.302 23.4561C237.195 23.5759 237.063 23.6689 236.916 23.731C236.761 23.7952 236.594 23.8276 236.426 23.8259C236.258 23.8279 236.091 23.7964 235.935 23.7329C235.791 23.6743 235.66 23.5869 235.55 23.4758C235.44 23.365 235.354 23.2332 235.298 23.0879C235.178 22.7739 235.178 22.427 235.298 22.113C235.412 21.8188 235.642 21.585 235.935 21.4658C236.091 21.3918 236.261 21.3521 236.435 21.3459L236.43 21.353ZM231.851 16.418C231.748 16.4148 231.646 16.4395 231.557 16.4893C231.467 16.5391 231.393 16.6123 231.341 16.7009L231.341 16.4658L230.925 16.4658L230.925 18.3999L231.345 18.3999L231.345 17.3159C231.345 16.9958 231.483 16.8179 231.75 16.8179C231.84 16.8169 231.93 16.833 232.013 16.8669L232.143 16.4619C232.047 16.4272 231.945 16.4094 231.843 16.4089L231.851 16.418ZM225.638 16.418C225.915 16.408 226.189 16.478 226.428 16.6199L226.241 16.96C226.057 16.8535 225.848 16.7964 225.634 16.7939C225.404 16.7939 225.266 16.8909 225.266 17.02C225.266 17.1499 225.412 17.186 225.594 17.21L225.796 17.239C226.216 17.2988 226.472 17.449 226.472 17.8169C226.472 18.1851 226.148 18.448 225.59 18.448C225.291 18.4565 224.997 18.3689 224.752 18.198L224.955 17.8699C225.14 18.0068 225.367 18.0789 225.598 18.072C225.885 18.072 226.038 17.9871 226.038 17.8369C226.038 17.728 225.93 17.667 225.699 17.635L225.497 17.6069C225.064 17.5469 224.829 17.3521 224.829 17.0369C224.829 16.6519 225.149 16.417 225.639 16.417L225.638 16.418ZM237.694 16.418C237.592 16.4148 237.49 16.4395 237.4 16.4893C237.311 16.5391 237.235 16.6123 237.184 16.7009L237.184 16.4658L236.768 16.4658L236.768 18.3999L237.188 18.3999L237.188 17.3159C237.188 16.9958 237.326 16.8179 237.593 16.8179C237.683 16.8169 237.773 16.833 237.856 16.8669L237.986 16.4619C237.89 16.4275 237.788 16.4094 237.686 16.4089L237.694 16.418ZM232.567 18.1628C232.47 18.0679 232.394 17.9534 232.344 17.8271C232.293 17.7009 232.271 17.5657 232.275 17.4299L232.275 17.4219C232.27 17.2859 232.293 17.1504 232.344 17.0239C232.394 16.8975 232.47 16.783 232.567 16.6877C232.664 16.5925 232.78 16.5186 232.908 16.4707C233.035 16.4229 233.171 16.4021 233.307 16.4099C233.559 16.3979 233.807 16.48 234.002 16.6409L233.8 16.981C233.654 16.8699 233.477 16.8088 233.294 16.8069C233.136 16.8159 232.987 16.885 232.879 17.0002C232.77 17.1152 232.709 17.2676 232.709 17.426C232.709 17.5842 232.77 17.7366 232.879 17.8518C232.987 17.9668 233.136 18.0359 233.294 18.0449C233.477 18.043 233.654 17.9819 233.8 17.8708L234.002 18.2109C233.808 18.3718 233.56 18.4539 233.307 18.4409C233.171 18.4487 233.035 18.428 232.907 18.3801C232.78 18.3323 232.664 18.2583 232.567 18.1628ZM236.215 17.4299L236.215 16.4629L235.795 16.4629L235.795 16.698C235.724 16.606 235.631 16.5322 235.525 16.4829C235.42 16.4338 235.304 16.4104 235.187 16.415C234.919 16.415 234.662 16.5215 234.472 16.7109C234.282 16.9006 234.176 17.1577 234.176 17.426C234.176 17.6941 234.282 17.9512 234.472 18.1409C234.662 18.3303 234.919 18.437 235.187 18.437C235.304 18.4414 235.419 18.418 235.524 18.3687C235.63 18.3196 235.723 18.2458 235.794 18.1541L235.794 18.3889L236.214 18.3889L236.214 17.429L236.215 17.4299ZM235.255 16.8799C235.179 16.877 235.102 16.8894 235.03 16.916C234.958 16.9426 234.892 16.9832 234.836 17.0354C234.779 17.0876 234.733 17.1504 234.702 17.2202C234.67 17.2898 234.652 17.3652 234.649 17.4419C234.646 17.5186 234.658 17.5952 234.685 17.667C234.712 17.739 234.752 17.8052 234.805 17.8613C234.856 17.9177 234.919 17.9631 234.989 17.9951C235.059 18.0271 235.135 18.0452 235.211 18.0479C235.366 18.0537 235.517 17.9978 235.631 17.8923C235.744 17.7871 235.812 17.6409 235.817 17.4858C235.823 17.3311 235.767 17.1802 235.661 17.0667C235.556 16.9529 235.41 16.8857 235.255 16.8799ZM229.573 16.4189C229.44 16.4209 229.31 16.4487 229.188 16.5012C229.065 16.5537 228.955 16.6299 228.862 16.7249C228.77 16.8201 228.696 16.9326 228.647 17.0559C228.599 17.1794 228.574 17.3113 228.576 17.4438C228.578 17.5767 228.605 17.7078 228.658 17.8298C228.711 17.9517 228.787 18.0623 228.882 18.1548C228.978 18.2473 229.09 18.3203 229.213 18.3694C229.336 18.4185 229.468 18.4429 229.601 18.4409C229.89 18.4509 230.172 18.355 230.394 18.1709L230.192 17.8589C230.032 17.9868 229.835 18.0579 229.63 18.061C229.491 18.073 229.353 18.0305 229.244 17.9421C229.137 17.8538 229.066 17.7266 229.051 17.5879L230.489 17.5879L230.489 17.426C230.489 16.8188 230.113 16.415 229.571 16.415L229.573 16.4189ZM229.915 16.928C229.823 16.8401 229.7 16.7922 229.573 16.7949L229.565 16.7949C229.435 16.7905 229.309 16.8372 229.213 16.9248C229.116 17.0125 229.059 17.134 229.051 17.2639L230.062 17.2639C230.06 17.137 230.007 17.0161 229.915 16.928ZM239.165 16.884C239.086 16.8774 239.007 16.887 238.932 16.9119C238.857 16.937 238.788 16.9768 238.729 17.0293C238.67 17.0815 238.622 17.1455 238.588 17.217C238.554 17.2883 238.535 17.366 238.532 17.4448C238.529 17.5239 238.542 17.6025 238.57 17.6765C238.599 17.7502 238.642 17.8176 238.697 17.8743C238.752 17.9309 238.818 17.9761 238.891 18.0066C238.964 18.0371 239.042 18.0525 239.121 18.052C239.271 18.0505 239.416 17.9915 239.523 17.8865C239.632 17.7815 239.695 17.6389 239.7 17.4885C239.706 17.3381 239.653 17.1912 239.554 17.0786C239.453 16.9661 239.314 16.8962 239.164 16.884L239.165 16.884ZM224.355 17.4338L224.355 16.467L223.935 16.467L223.935 16.7019C223.863 16.6101 223.771 16.5364 223.666 16.4871C223.561 16.438 223.444 16.4146 223.328 16.4189C223.06 16.4189 222.803 16.5254 222.613 16.7151C222.424 16.9045 222.317 17.1619 222.317 17.4299C222.317 17.698 222.424 17.9553 222.613 18.1448C222.803 18.3345 223.06 18.4409 223.328 18.4409C223.444 18.4451 223.56 18.4216 223.665 18.3726C223.771 18.3232 223.862 18.2498 223.934 18.158L223.934 18.3928L224.355 18.3928L224.355 17.4329L224.355 17.4338ZM223.395 16.884C223.316 16.8774 223.237 16.887 223.162 16.9119C223.087 16.937 223.018 16.9768 222.959 17.0293C222.899 17.0815 222.852 17.1455 222.818 17.217C222.784 17.2883 222.766 17.366 222.763 17.4448C222.76 17.5239 222.772 17.6025 222.801 17.6765C222.829 17.7502 222.872 17.8176 222.927 17.8743C222.981 17.9309 223.048 17.9761 223.121 18.0066C223.193 18.0371 223.271 18.0525 223.351 18.052C223.502 18.0508 223.646 17.9917 223.754 17.887C223.862 17.782 223.926 17.6394 223.932 17.489C223.938 17.3384 223.885 17.1917 223.784 17.0789C223.685 16.9661 223.545 16.8962 223.395 16.884ZM240.825 18.1189C240.877 18.1189 240.927 18.1384 240.964 18.1738C240.986 18.1958 241.004 18.2231 241.013 18.2534C241.022 18.2837 241.024 18.3157 241.018 18.3467C241.012 18.3777 240.998 18.4067 240.978 18.4309C240.957 18.4551 240.931 18.4736 240.901 18.4849C240.877 18.4958 240.851 18.5017 240.824 18.502C240.786 18.5017 240.748 18.4905 240.716 18.47C240.684 18.4492 240.658 18.4197 240.642 18.385C240.629 18.3555 240.624 18.3232 240.627 18.2913C240.631 18.2593 240.642 18.2288 240.66 18.2021C240.678 18.1758 240.703 18.1543 240.731 18.1399C240.76 18.1255 240.792 18.1187 240.824 18.1199L240.825 18.1189ZM240.883 18.449C240.864 18.457 240.845 18.4612 240.824 18.4609L240.824 18.4629C240.804 18.4624 240.783 18.4575 240.765 18.449C240.747 18.4414 240.73 18.4307 240.717 18.417C240.691 18.3894 240.678 18.3533 240.678 18.3159C240.678 18.2786 240.691 18.2427 240.717 18.2148C240.73 18.2007 240.748 18.1895 240.766 18.1816C240.784 18.1738 240.804 18.1699 240.824 18.1699C240.844 18.1699 240.863 18.1741 240.881 18.1816C240.899 18.1895 240.915 18.2007 240.929 18.2148C240.954 18.2427 240.968 18.2786 240.968 18.3159C240.968 18.3533 240.954 18.3894 240.929 18.417C240.916 18.4304 240.9 18.4412 240.883 18.449ZM240.836 18.2209C240.856 18.22 240.874 18.2258 240.889 18.2371C240.896 18.2419 240.9 18.2485 240.903 18.2559C240.906 18.2632 240.907 18.271 240.907 18.2791C240.907 18.2856 240.906 18.2925 240.904 18.2991C240.901 18.3054 240.897 18.311 240.893 18.3159C240.881 18.3267 240.866 18.333 240.85 18.334L240.909 18.4009L240.862 18.4009L240.808 18.334L240.79 18.334L240.79 18.4009L240.751 18.4009L240.751 18.2229L240.836 18.2209ZM240.792 18.304L240.792 18.2549L240.836 18.2668C240.844 18.2644 240.853 18.2644 240.861 18.2668C240.862 18.2698 240.863 18.2727 240.863 18.2759C240.863 18.2791 240.862 18.2822 240.861 18.2849C240.862 18.2878 240.863 18.291 240.863 18.2944C240.863 18.2979 240.862 18.301 240.861 18.304C240.853 18.3064 240.844 18.3064 240.836 18.304L240.792 18.304Z" fill="#B2B2B2" fill-opacity="1.000000" fill-rule="evenodd"/>
	<path id="Vector" d="M226.293 1.73389L232.664 1.73389L232.664 13.1829L226.293 13.1829L226.293 1.73389Z" fill="#D6D6D6" fill-opacity="1.000000" fill-rule="nonzero"/>
	<path id="Vector" d="M226.697 7.45874C226.695 6.35596 226.945 5.26758 227.428 4.27563C227.909 3.28369 228.61 2.41455 229.478 1.73364C228.403 0.889893 227.114 0.365234 225.756 0.219727C224.397 0.0742188 223.026 0.313477 221.798 0.910645C220.569 1.50781 219.533 2.43848 218.809 3.59619C218.084 4.75415 217.7 6.09229 217.7 7.45825C217.7 8.82397 218.084 10.1624 218.809 11.3203C219.533 12.478 220.569 13.4087 221.798 14.0059C223.026 14.6028 224.397 14.8423 225.756 14.6968C227.114 14.5513 228.403 14.0266 229.478 13.1826C228.61 12.502 227.91 11.6328 227.428 10.6411C226.946 9.64941 226.697 8.56128 226.698 7.45874L226.697 7.45874Z" fill="#B2B2B2" fill-opacity="1.000000" fill-rule="nonzero"/>
	<path id="Vector" d="M241.259 7.45874C241.259 8.82495 240.874 10.1636 240.149 11.3218C239.425 12.4797 238.389 13.4106 237.159 14.0078C235.931 14.6047 234.559 14.844 233.2 14.6982C231.842 14.5522 230.552 14.0271 229.478 13.1826C230.345 12.5015 231.046 11.6323 231.528 10.6404C232.01 9.64868 232.261 8.5603 232.261 7.45776C232.261 6.35498 232.01 5.2666 231.528 4.2749C231.046 3.2832 230.345 2.41382 229.478 1.73267C230.552 0.888184 231.842 0.362793 233.2 0.217041C234.559 0.0710449 235.931 0.310303 237.159 0.907471C238.388 1.50439 239.424 2.4353 240.148 3.59351C240.874 4.75171 241.258 6.09033 241.258 7.45679L241.258 7.45874L241.259 7.45874Z" fill="#E2E2E2" fill-opacity="1.000000" fill-rule="nonzero"/>
	<path id="Pay" d="M267.307 6.95459C267.684 6.48267 267.938 5.84863 267.871 5.20068C267.319 5.22876 266.646 5.56567 266.258 6.0376C265.907 6.44263 265.598 7.10278 265.678 7.72363C266.298 7.77759 266.917 7.41357 267.307 6.95361L267.307 6.95459ZM267.864 7.84473C266.965 7.79077 266.2 8.35571 265.771 8.35571C265.342 8.35571 264.685 7.87158 263.974 7.88477C263.048 7.89868 262.188 8.42261 261.72 9.25659C260.754 10.9248 261.465 13.3987 262.403 14.7576C262.859 15.4297 263.409 16.1697 264.134 16.1438C264.818 16.1167 265.088 15.6997 265.92 15.6997C266.751 15.6997 266.992 16.1438 267.717 16.1296C268.469 16.1167 268.938 15.4578 269.395 14.7847C269.918 14.0188 270.132 13.2786 270.145 13.2378C270.132 13.2246 268.696 12.6726 268.684 11.0176C268.67 9.63379 269.811 8.97461 269.863 8.93359C269.22 7.97974 268.214 7.87158 267.863 7.84375L267.864 7.84473ZM275.692 5.9707C277.646 5.9707 279.008 7.31958 279.008 9.28467C279.008 11.2556 277.618 12.6128 275.644 12.6128L273.48 12.6128L273.48 16.0596L271.917 16.0596L271.917 5.9707L275.692 5.9707ZM273.48 11.2976L275.273 11.2976C276.635 11.2976 277.409 10.5637 277.409 9.29175C277.409 8.0188 276.635 7.29175 275.28 7.29175L273.48 7.29175L273.48 11.2976ZM279.415 13.9688C279.415 12.6826 280.4 11.8926 282.146 11.7947L284.155 11.6758L284.155 11.1096C284.155 10.2908 283.604 9.80176 282.683 9.80176C281.81 9.80176 281.266 10.2217 281.133 10.8787L279.71 10.8787C279.793 9.5498 280.924 8.5708 282.738 8.5708C284.519 8.5708 285.655 9.51465 285.655 10.9907L285.655 16.0608L284.211 16.0608L284.211 14.8506L284.176 14.8506C283.751 15.6687 282.821 16.1858 281.858 16.1858C280.421 16.1858 279.415 15.2908 279.415 13.9688ZM284.155 13.3047L284.155 12.7246L282.348 12.8367C281.447 12.8997 280.938 13.2976 280.938 13.9268C280.938 14.5708 281.468 14.9897 282.277 14.9897C283.331 14.9897 284.154 14.2627 284.154 13.3047L284.155 13.3047ZM287.019 18.7656L287.019 17.5417C287.131 17.5696 287.382 17.5696 287.509 17.5696C288.205 17.5696 288.582 17.2766 288.812 16.5217C288.812 16.5076 288.945 16.0737 288.945 16.0667L286.294 8.70361L287.927 8.70361L289.782 14.6897L289.811 14.6897L291.668 8.70361L293.259 8.70361L290.509 16.4436C289.881 18.2278 289.154 18.8008 287.634 18.8008C287.429 18.7998 287.224 18.7883 287.02 18.7656L287.019 18.7656Z" fill="#B2B2B2" fill-opacity="1.000000" fill-rule="nonzero"/>
	<path id="samsung pay" d="M323.906 12.4863L325.686 12.4863C326.759 12.4863 327.567 13.2961 327.567 14.3083C327.567 15.3213 326.773 16.1453 325.685 16.1453L324.877 16.1453L324.877 17.6062L323.907 17.6062L323.907 12.4863L323.906 12.4863ZM324.876 13.3682L324.876 15.2483L325.611 15.2483C326.185 15.2483 326.582 14.8281 326.582 14.3083C326.582 13.7883 326.186 13.3682 325.611 13.3682L324.877 13.3682L324.876 13.3682ZM327.817 15.5671C327.817 14.2073 328.832 13.4263 329.891 13.4263C330.435 13.4263 330.935 13.6572 331.229 14.0042L331.229 13.5132L332.186 13.5132L332.186 17.6213L331.229 17.6213L331.229 17.0852C331.063 17.2815 330.856 17.4387 330.622 17.5464C330.389 17.6538 330.134 17.7087 329.877 17.7073C329.601 17.7031 329.328 17.6443 329.075 17.5344C328.821 17.4243 328.593 17.2651 328.401 17.0664C328.21 16.8674 328.06 16.6326 327.959 16.3752C327.858 16.1179 327.811 15.8433 327.816 15.5671L327.817 15.5671ZM331.273 15.5522C331.273 14.8582 330.744 14.2942 330.023 14.2942C329.317 14.2942 328.759 14.8442 328.759 15.5522C328.759 16.2612 329.303 16.8252 330.023 16.8252C330.744 16.8252 331.273 16.2612 331.273 15.5522ZM334.289 17.4043L332.582 13.4983L333.611 13.4983L334.773 16.2612L335.877 13.4983L336.891 13.4983L334.406 19.5012L333.436 19.5012L334.288 17.4043L334.289 17.4043ZM314.553 5.87524C314.53 5.79492 314.53 5.70972 314.553 5.62915C314.583 5.47021 314.685 5.31128 314.994 5.31128C315.273 5.31128 315.45 5.48535 315.45 5.74536L315.45 6.03516L316.656 6.03516L316.656 5.70117C316.656 4.65918 315.7 4.50024 315.009 4.50024C314.141 4.50024 313.435 4.77515 313.303 5.57031C313.272 5.78735 313.259 5.97534 313.317 6.22119C313.523 7.20532 315.259 7.48022 315.509 8.10132C315.553 8.21729 315.539 8.3623 315.523 8.44922C315.479 8.60815 315.377 8.76733 315.054 8.76733C314.744 8.76733 314.567 8.59326 314.567 8.33325L314.567 7.87036L313.259 7.87036L313.259 8.23218C313.259 9.30225 314.111 9.62134 315.023 9.62134C315.906 9.62134 316.627 9.3313 316.744 8.52124C316.804 8.10132 316.759 7.84131 316.744 7.74121C316.538 6.72827 314.7 6.43823 314.554 5.87427L314.553 5.87524ZM330.377 5.89014C330.362 5.80884 330.362 5.72559 330.377 5.64429C330.407 5.48413 330.509 5.3252 330.816 5.3252C331.097 5.3252 331.259 5.49927 331.259 5.75928L331.259 6.04932L332.465 6.04932L332.465 5.71631C332.465 4.68921 331.523 4.53027 330.847 4.53027C329.994 4.53027 329.288 4.80518 329.157 5.58618C329.127 5.80322 329.111 5.99121 329.171 6.22217C329.377 7.19214 331.097 7.46631 331.333 8.08813C331.377 8.20435 331.361 8.34814 331.347 8.4353C331.303 8.59521 331.2 8.75415 330.877 8.75415C330.566 8.75415 330.391 8.58032 330.391 8.32031L330.391 7.85718L329.097 7.85718L329.097 8.21826C329.097 9.27417 329.935 9.59326 330.847 9.59326C331.715 9.59326 332.435 9.30322 332.553 8.5083C332.611 8.10327 332.567 7.82812 332.538 7.72729C332.332 6.74316 330.509 6.43921 330.377 5.89014ZM341.421 8.49316L340.273 4.64624L338.464 4.64624L338.464 9.37622L339.656 9.37622L339.583 5.39819L340.817 9.37622L342.553 9.37622L342.553 4.64624L341.347 4.64624L341.421 8.49316ZM318.465 4.64624L317.567 9.43335L318.877 9.43335L319.553 5.00732L320.215 9.43335L321.523 9.43335L320.627 4.64624L318.465 4.64624ZM325.817 4.64624L325.2 8.39233L324.582 4.64624L322.611 4.64624L322.509 9.43335L323.729 9.43335L323.759 5.00732L324.597 9.43335L325.833 9.43335L326.671 5.00732L326.701 9.43335L327.921 9.43335L327.817 4.64624L325.817 4.64624ZM337.111 4.64624L335.877 4.64624L335.877 8.18921C335.877 8.24731 335.877 8.31934 335.861 8.37817C335.838 8.48267 335.777 8.5752 335.691 8.63892C335.604 8.70264 335.499 8.73315 335.392 8.72534C335.053 8.72534 334.95 8.49316 334.921 8.37817C334.906 8.32031 334.906 8.26221 334.906 8.19019L334.906 4.64526L333.671 4.64526L333.671 8.07324C333.671 8.16016 333.671 8.34814 333.686 8.39136C333.773 9.28833 334.479 9.57715 335.376 9.57715C336.273 9.57715 336.994 9.28735 337.067 8.39136C337.067 8.34814 337.082 8.16016 337.082 8.07324L337.082 4.64624L337.111 4.64624ZM345.567 6.74316L345.567 7.43726L346.067 7.43726L346.067 8.13232C346.067 8.19019 346.067 8.26221 346.053 8.32031C346.038 8.4502 345.906 8.66724 345.553 8.66724C345.2 8.66724 345.083 8.4502 345.053 8.32031C345.038 8.26221 345.038 8.20435 345.038 8.13232L345.038 5.94727C345.038 5.87524 345.038 5.78833 345.053 5.71631C345.083 5.60034 345.186 5.36914 345.538 5.36914C345.906 5.36914 346.009 5.61523 346.023 5.71631C346.038 5.78833 346.038 5.9043 346.038 5.9043L346.038 6.16431L347.259 6.16431L347.259 6.00513C347.259 6.00513 347.259 5.84619 347.244 5.68726C347.156 4.79126 346.406 4.50122 345.539 4.50122C344.672 4.50122 343.936 4.79126 343.833 5.68726C343.816 5.79248 343.807 5.89868 343.804 6.00513L343.804 8.01514C343.804 8.10327 343.804 8.17529 343.818 8.33521C343.892 9.20215 344.672 9.52026 345.524 9.52026C346.392 9.52026 347.157 9.21631 347.23 8.33423C347.245 8.17529 347.245 8.10327 347.245 8.01636L347.245 6.74316L345.568 6.74316L345.567 6.74316Z" fill="#B2B2B2" fill-opacity="1.000000" fill-rule="nonzero"/>
	<path id="Vector" d="M373.687 20.7354L373.64 21.5183C373.627 21.7502 373.609 21.9822 373.59 22.2131C373.561 22.5383 373.528 23.3203 373.105 23.3203L373.09 23.3203C373.052 23.3203 373.004 23.3523 373.004 23.4043L373.004 23.9062C373.004 23.9612 373.04 23.9993 373.09 23.9993L373.128 23.9993C373.445 23.9983 373.725 23.9644 373.965 23.6013C374.041 23.4873 374.106 23.3594 374.153 23.2144C374.205 23.0554 374.243 22.8926 374.267 22.7273C374.294 22.5474 374.316 22.3503 374.335 22.1343C374.352 21.9182 374.369 21.6843 374.386 21.4302L374.406 21.0703L375.411 21.0703L375.411 23.9124C375.411 23.9602 375.453 24.0042 375.504 23.9993L376.1 23.9993C376.163 23.9993 376.193 23.9563 376.193 23.9072L376.193 20.6453C376.193 20.6106 376.186 20.5764 376.171 20.5447C376.156 20.5132 376.137 20.4846 376.111 20.4609C376.086 20.4373 376.056 20.4187 376.023 20.4065C375.991 20.3945 375.956 20.3889 375.922 20.3901L373.947 20.3901C373.795 20.3901 373.705 20.5232 373.698 20.6333C373.695 20.6653 373.688 20.6982 373.687 20.7354ZM367.513 24.0002L368.865 24.0002C369.533 24.0242 370.079 23.5603 370.101 22.8682C370.101 22.8083 370.104 22.7383 370.089 22.6602C369.971 22.0942 369.522 21.7043 368.953 21.7043L368.042 21.7043L368.042 21.0613L369.596 21.0613C369.656 21.0623 369.69 21.0212 369.688 20.9631L369.688 20.5054C369.689 20.4421 369.667 20.3901 369.596 20.3923L367.532 20.3923C367.322 20.3923 367.259 20.5461 367.259 20.6462L367.259 23.7463C367.259 23.8862 367.369 24.0002 367.513 24.0002ZM383.949 23.8923L383.949 22.6853L384.804 22.6853C384.995 22.6846 385.184 22.636 385.351 22.5437C385.519 22.4514 385.66 22.3188 385.764 22.1577C385.866 21.9963 385.928 21.812 385.94 21.6211C385.954 21.4304 385.919 21.2393 385.84 21.0652C385.774 20.9163 385.677 20.7834 385.555 20.676C385.433 20.5684 385.289 20.4885 385.133 20.4421C385.004 20.4067 384.87 20.3899 384.736 20.3923L383.431 20.3923C383.397 20.3909 383.364 20.3962 383.332 20.408C383.301 20.4197 383.272 20.4377 383.248 20.4607C383.224 20.4836 383.204 20.5112 383.19 20.542C383.177 20.5728 383.169 20.6057 383.169 20.6392C383.169 20.6592 383.166 20.6824 383.166 20.7063L383.166 23.9133C383.165 23.925 383.168 23.9368 383.172 23.9478C383.177 23.9587 383.184 23.9685 383.191 23.9768C383.2 23.9851 383.21 23.9915 383.221 23.9956C383.232 24 383.244 24.0017 383.256 24.0012L383.861 24.0012C383.878 24.0012 383.894 23.9968 383.907 23.9885C383.921 23.9802 383.932 23.9683 383.938 23.9543C383.946 23.9346 383.95 23.9133 383.949 23.8923ZM385.123 21.5393C385.123 21.6013 385.111 21.6631 385.087 21.7205C385.063 21.7778 385.028 21.8301 384.984 21.874C384.94 21.918 384.889 21.9526 384.831 21.9761C384.773 21.9998 384.712 22.0117 384.649 22.0112L383.95 22.0112L383.95 21.0662L384.618 21.0662C384.921 21.0562 385.123 21.2861 385.123 21.5393ZM381.916 23.2493L382.117 23.9182C382.134 23.9792 382.167 24.0002 382.206 24.0002L382.856 24.0002C382.918 24.0002 382.957 23.9502 382.942 23.8882L381.875 20.6743C381.825 20.5173 381.75 20.3923 381.566 20.3923L381.104 20.3923C381.06 20.3882 381.014 20.396 380.973 20.415C380.932 20.4343 380.896 20.4639 380.87 20.5012C380.833 20.5537 380.806 20.6123 380.789 20.6743L379.722 23.8843C379.698 23.9563 379.758 24.0002 379.806 24.0002L380.432 24.0002C380.452 24.0002 380.495 24.0032 380.521 23.9473C380.528 23.9326 380.533 23.9177 380.537 23.9023L380.736 23.2493L381.917 23.2493L381.916 23.2493ZM380.923 22.6104L381.118 21.9583L381.313 21.2244L381.344 21.2244L381.535 21.9583L381.73 22.6104L380.923 22.6104ZM378.756 22.0803L378.756 22.0552C378.865 21.989 378.96 21.8994 379.032 21.7932C379.109 21.678 379.164 21.5491 379.193 21.4133L379.431 20.4932C379.433 20.4807 379.433 20.4678 379.429 20.4556C379.425 20.4434 379.419 20.4319 379.411 20.4224C379.402 20.4126 379.393 20.405 379.381 20.3999C379.369 20.3948 379.356 20.3921 379.344 20.3923L378.782 20.3923C378.762 20.3916 378.741 20.395 378.722 20.4023C378.702 20.4102 378.687 20.4324 378.679 20.4644L378.447 21.3303C378.426 21.4204 378.389 21.5059 378.337 21.5823C378.298 21.6394 378.246 21.6868 378.186 21.7212C378.134 21.7502 378.077 21.7703 378.018 21.7803C377.964 21.7888 377.909 21.7927 377.854 21.7922L377.448 21.7922L377.448 20.4783C377.448 20.467 377.446 20.4556 377.441 20.4453C377.438 20.4348 377.431 20.4253 377.423 20.4172C377.415 20.4094 377.405 20.4031 377.396 20.3987C377.385 20.3945 377.374 20.3923 377.362 20.3923L376.759 20.3923C376.707 20.3923 376.666 20.4292 376.666 20.4744L376.666 23.9182C376.666 23.9663 376.711 24.0002 376.759 24.0002L377.355 24.0002C377.405 24.0002 377.448 23.9673 377.448 23.9182L377.448 22.3892L377.865 22.3892C377.984 22.3872 378.085 22.3992 378.168 22.4233C378.247 22.4448 378.319 22.4893 378.374 22.5513C378.428 22.6143 378.474 22.7043 378.509 22.8213L378.826 23.9392C378.843 23.9844 378.875 24.0002 378.908 24.0002L379.505 24.0002C379.581 24.0042 379.603 23.9312 379.595 23.8972L379.274 22.7034C379.257 22.6321 379.235 22.562 379.21 22.4932C379.188 22.4329 379.157 22.3757 379.12 22.3232C379.08 22.2698 379.032 22.2234 378.977 22.1863C378.908 22.1414 378.834 22.1057 378.756 22.0803ZM372.833 23.8823L372.833 23.4082C372.833 23.3733 372.806 23.3213 372.746 23.3213L371.347 23.3213C371.312 23.321 371.277 23.3135 371.245 23.2991C371.213 23.2849 371.184 23.2642 371.16 23.2383C371.136 23.2124 371.118 23.1819 371.106 23.1487C371.095 23.1155 371.09 23.0803 371.093 23.0452L371.093 22.3582L372.579 22.3582C372.602 22.3589 372.624 22.3503 372.641 22.3345C372.657 22.3188 372.667 22.2971 372.668 22.2742L372.668 21.7913C372.668 21.7412 372.633 21.7043 372.569 21.7043L371.093 21.7043L371.093 21.3193C371.093 21.1562 371.229 21.0662 371.347 21.0662L372.741 21.0662C372.759 21.0671 372.776 21.0627 372.792 21.0532C372.807 21.0437 372.818 21.0298 372.826 21.0132C372.83 21.0024 372.833 20.991 372.833 20.9792L372.833 20.4792C372.833 20.4292 372.796 20.3923 372.734 20.3923L371.283 20.3853C371.027 20.3857 370.782 20.4866 370.6 20.6663C370.418 20.8457 370.313 21.0896 370.31 21.3452L370.31 23.0532C370.313 23.3044 370.415 23.5442 370.593 23.7212C370.771 23.8982 371.012 23.9985 371.263 24.0002L372.744 24.0002C372.756 24.0007 372.767 23.9988 372.778 23.9944C372.789 23.9902 372.799 23.9839 372.807 23.9758C372.815 23.9678 372.822 23.958 372.826 23.9473C372.831 23.9365 372.833 23.9248 372.833 23.9133L372.833 23.8823ZM387.788 21.0662L387.788 23.9182C387.788 23.9673 387.745 24.0002 387.695 24.0002L387.099 24.0002C387.051 24.0002 387.006 23.9663 387.006 23.9182L387.006 21.0662L386.068 21.0662C386.021 21.0662 385.986 21.0212 385.986 20.9731L385.986 20.4844C385.986 20.4353 386.02 20.3923 386.068 20.3923L388.741 20.3923C388.79 20.3923 388.823 20.4353 388.823 20.4844L388.823 20.9744C388.823 21.0212 388.788 21.0662 388.741 21.0662L387.788 21.0662ZM369.288 22.8262C369.296 23.1113 369.072 23.3162 368.788 23.3162L368.042 23.3162L368.042 22.3582L368.793 22.3582C369.059 22.3582 369.278 22.5422 369.288 22.8271L369.288 22.8262Z" fill="#B2B2B2" fill-opacity="1.000000" fill-rule="nonzero"/>
	<path id="Vector" d="M380.904 15.1804L379.711 17.3123L379.711 16.3723L380.904 15.1804ZM383.271 6.80225L380.554 9.51831C380.517 9.5564 380.495 9.60767 380.495 9.66138C380.495 9.71484 380.517 9.76636 380.554 9.80444L381.886 11.1362L383.754 11.3333L379.914 11.3333C379.86 11.3333 379.809 11.3545 379.771 11.3923C379.733 11.4302 379.712 11.4817 379.711 11.5354L379.711 13.3384L380.921 14.8784L378.205 12.1614C378.167 12.1238 378.116 12.103 378.062 12.103C378.01 12.103 377.958 12.1238 377.92 12.1614L376.624 13.4573L376.384 15.3823L376.384 11.5422C376.384 11.4885 376.362 11.4368 376.325 11.3987C376.287 11.3606 376.235 11.3394 376.182 11.3394L374.241 11.3394L372.812 12.5073L375.526 9.79126C375.563 9.75342 375.585 9.7019 375.585 9.64844C375.585 9.59473 375.563 9.54346 375.526 9.50537L374.166 8.14526L372.324 7.97021L376.164 7.97021C376.19 7.97046 376.217 7.96533 376.242 7.95532C376.267 7.94507 376.289 7.93018 376.308 7.91162C376.326 7.89282 376.342 7.87036 376.352 7.84595C376.362 7.82129 376.367 7.79492 376.367 7.76831L376.367 5.93433L375.168 4.43042L377.884 7.14624C377.922 7.18408 377.974 7.20532 378.027 7.20532C378.081 7.20532 378.132 7.18408 378.17 7.14624L379.505 5.8103L379.702 3.92725L379.702 7.76733C379.702 7.87939 379.793 7.97021 379.904 7.97021L381.817 7.97021L383.27 6.80225L383.271 6.80225ZM383.956 13.2053L383.956 11.5354L384.64 13.8894L383.956 13.2053ZM387.642 10.8872L384.725 7.97021L383.557 6.80225L385.684 7.97021C385.736 7.96997 385.788 7.94873 385.826 7.91089C385.863 7.87305 385.885 7.82178 385.885 7.76831L385.885 3.92822C385.886 3.90161 385.88 3.87524 385.87 3.85059C385.859 3.82568 385.845 3.80347 385.826 3.78442C385.807 3.76562 385.785 3.75073 385.76 3.74048C385.735 3.73047 385.709 3.7251 385.683 3.72534L381.592 3.72534L382.256 3.06128L381.592 3.72534L379.905 3.72534L382.256 3.06128C382.275 3.04248 382.29 3.02026 382.3 2.99585C382.311 2.97119 382.315 2.94482 382.315 2.91821C382.315 2.89185 382.311 2.86548 382.3 2.84082C382.29 2.81641 382.275 2.79419 382.256 2.77539L379.54 0.0593262C379.521 0.0405273 379.499 0.0256348 379.475 0.0153809C379.45 0.00512695 379.424 0 379.397 0C379.37 0 379.345 0.00512695 379.319 0.0153809C379.295 0.0256348 379.272 0.0405273 379.254 0.0593262L376.368 2.94727L375.133 4.19629L375.133 4.19727L375.134 4.19434L375.141 4.18237L376.368 1.99023C376.368 1.93677 376.347 1.88525 376.309 1.84741C376.271 1.80957 376.22 1.78833 376.166 1.78833L372.325 1.78833C372.271 1.78857 372.221 1.81006 372.183 1.8479C372.145 1.8855 372.123 1.93677 372.123 1.99023L372.123 7.76733L371.443 5.41943C371.405 5.38135 371.354 5.35986 371.3 5.35986C371.246 5.35986 371.194 5.38135 371.156 5.41943L368.441 8.13525C368.422 8.15405 368.407 8.17627 368.397 8.20093C368.387 8.22534 368.382 8.25171 368.382 8.27832C368.382 8.30493 368.387 8.3313 368.397 8.35571C368.407 8.38037 368.422 8.40259 368.441 8.42139L372.526 12.5063L370.405 11.3384C370.352 11.3386 370.301 11.3599 370.263 11.3977C370.225 11.4355 370.203 11.4868 370.203 11.5403L370.203 15.3804C370.203 15.4924 370.293 15.5833 370.405 15.5833L376.183 15.5833L373.836 16.2454C373.799 16.2834 373.777 16.3347 373.777 16.3884C373.777 16.4419 373.799 16.4934 373.836 16.5312L376.552 19.2473C376.59 19.2849 376.642 19.3062 376.694 19.3062C376.748 19.3062 376.799 19.2849 376.837 19.2473L379.712 16.3723L379.712 17.3113C379.712 17.4214 379.803 17.5134 379.914 17.5134L383.755 17.5134C383.809 17.5132 383.86 17.4917 383.897 17.4539C383.936 17.416 383.957 17.3647 383.957 17.3113L383.957 13.2043L384.641 13.8884C384.678 13.926 384.729 13.9473 384.783 13.9473C384.837 13.9473 384.888 13.926 384.926 13.8884L387.643 11.1724C387.68 11.1343 387.701 11.083 387.701 11.0293C387.701 10.9758 387.68 10.9243 387.643 10.8862L387.642 10.8872Z" fill="#B2B2B2" fill-opacity="1.000000" fill-rule="evenodd"/>
	<path id="Vector" d="M415.573 7.90137L409.669 7.90137C409.559 7.90112 409.448 7.92285 409.346 7.96509C409.243 8.00732 409.149 8.06934 409.071 8.14771C408.992 8.22632 408.93 8.31934 408.887 8.42188C408.845 8.52441 408.822 8.63428 408.822 8.74536L408.822 14.6265C408.822 15.0923 409.202 15.4705 409.669 15.4705L415.573 15.4705C415.685 15.4707 415.794 15.449 415.897 15.4067C416 15.3645 416.093 15.3022 416.172 15.2239C416.25 15.1455 416.312 15.0525 416.355 14.95C416.398 14.8474 416.42 14.7375 416.42 14.6265L416.42 8.74536C416.42 8.63428 416.398 8.52417 416.355 8.42163C416.313 8.31885 416.251 8.22559 416.172 8.14722C416.094 8.0686 416 8.00659 415.897 7.96411C415.795 7.92188 415.685 7.90015 415.573 7.90039L415.573 7.90137Z" fill="#B2B2B2" fill-opacity="1.000000" fill-rule="nonzero"/>
	<path id="Vector" d="M413.967 13.5286L413.062 13.5286C413.049 13.5283 413.037 13.5232 413.028 13.5144C413.02 13.5059 413.015 13.4939 413.015 13.4814L413.015 13.2576L412.332 13.9375C412.323 13.9463 412.312 13.9512 412.299 13.9512C412.286 13.9512 412.274 13.9463 412.266 13.9375L411.625 13.3015C411.616 13.2925 411.611 13.2805 411.611 13.2681C411.611 13.2556 411.616 13.2434 411.625 13.2346L411.783 13.0767L410.819 13.0767C410.807 13.0764 410.794 13.0715 410.785 13.0625C410.776 13.0537 410.771 13.042 410.771 13.0295L410.771 12.1245C410.771 12.1184 410.772 12.1121 410.775 12.1064C410.777 12.1006 410.781 12.0952 410.785 12.0911C410.79 12.0867 410.795 12.0833 410.801 12.0808C410.807 12.0786 410.813 12.0774 410.819 12.0776L411.043 12.0776L410.361 11.3975C410.353 11.3887 410.348 11.3765 410.348 11.364C410.348 11.3516 410.353 11.3396 410.361 11.3306L411.001 10.6926C411.006 10.688 411.011 10.6846 411.017 10.6821C411.022 10.6797 411.029 10.6785 411.035 10.6785C411.042 10.6785 411.048 10.6797 411.054 10.6821C411.06 10.6846 411.064 10.688 411.069 10.6926L411.228 10.8506L411.228 9.89062C411.228 9.8811 411.23 9.87183 411.235 9.86377C411.241 9.85596 411.248 9.8501 411.257 9.84644C411.263 9.84448 411.27 9.84351 411.275 9.84351L412.182 9.84351C412.188 9.84351 412.193 9.84473 412.199 9.84717C412.205 9.84937 412.21 9.85303 412.215 9.85742C412.219 9.86157 412.223 9.86694 412.225 9.87256C412.228 9.87817 412.229 9.88428 412.229 9.89062L412.229 10.1135L412.91 9.43359C412.919 9.4248 412.932 9.41992 412.943 9.41992C412.956 9.41992 412.969 9.4248 412.978 9.43359L413.618 10.0735C413.627 10.0825 413.632 10.0942 413.632 10.1064C413.632 10.1189 413.627 10.1306 413.618 10.1396L413.459 10.2976L414.424 10.2976C414.437 10.2979 414.448 10.3027 414.457 10.3115C414.466 10.3203 414.471 10.3323 414.472 10.3445L414.472 11.2476C414.471 11.26 414.466 11.2717 414.457 11.2805C414.448 11.2893 414.437 11.2942 414.424 11.2944L414.199 11.2944L414.881 11.9746C414.89 11.9834 414.895 11.9954 414.895 12.0076C414.895 12.0198 414.89 12.0317 414.881 12.0405L414.241 12.6785C414.237 12.6831 414.231 12.6865 414.226 12.689C414.22 12.6914 414.214 12.6926 414.207 12.6926C414.201 12.6926 414.194 12.6914 414.188 12.689C414.183 12.6865 414.178 12.6831 414.173 12.6785L414.016 12.5205L414.016 13.4814C414.015 13.4941 414.01 13.5061 414.001 13.5149C413.992 13.5237 413.979 13.5286 413.967 13.5286ZM413.851 11.0134L413.496 11.2944L413.062 11.2944C413.05 11.2942 413.038 11.2893 413.029 11.2805C413.021 11.2717 413.016 11.26 413.016 11.2476L413.016 10.3445L412.964 10.7925L412.656 11.0986C412.647 11.1074 412.635 11.1123 412.622 11.1123C412.609 11.1123 412.598 11.1074 412.588 11.0986L412.229 10.7424L411.949 10.4614L412.229 10.8145L412.229 11.2485C412.229 11.261 412.224 11.2727 412.215 11.2815C412.206 11.2903 412.194 11.2954 412.183 11.2957L411.276 11.2957L411.727 11.3464L412.033 11.6526C412.038 11.6567 412.041 11.6621 412.044 11.6677C412.047 11.6736 412.048 11.6797 412.048 11.686C412.048 11.6924 412.047 11.6985 412.044 11.7043C412.041 11.71 412.038 11.7153 412.033 11.7195L411.394 12.3577L411.747 12.0776L412.183 12.0776C412.188 12.0776 412.194 12.0789 412.2 12.0813C412.206 12.0837 412.212 12.0872 412.216 12.0916C412.221 12.0962 412.224 12.1013 412.226 12.1072C412.229 12.113 412.229 12.1194 412.229 12.1255L412.229 13.0276L412.281 12.5806L412.588 12.2725C412.598 12.2639 412.609 12.2593 412.622 12.2593C412.635 12.2593 412.647 12.2639 412.656 12.2725L413.296 12.9116L413.016 12.5586L413.016 12.1255C413.016 12.113 413.021 12.1011 413.029 12.0923C413.038 12.0835 413.05 12.0786 413.062 12.0786L413.969 12.0786L413.519 12.0266L413.211 11.7195C413.207 11.7153 413.203 11.7102 413.201 11.7043C413.198 11.6987 413.197 11.6926 413.197 11.6865C413.197 11.6802 413.198 11.6741 413.201 11.6682C413.203 11.6624 413.207 11.657 413.211 11.6526L413.571 11.2957L413.852 11.0134L413.851 11.0134Z" fill="#FFFFFF" fill-opacity="1.000000" fill-rule="evenodd"/>
	<path id="Vector" d="M420.478 10.9324C420.488 11.2844 420.21 11.5393 419.855 11.5393L418.926 11.5393L418.926 10.3494L419.862 10.3494C419.94 10.3467 420.02 10.3596 420.093 10.3875C420.167 10.4153 420.234 10.4575 420.292 10.512C420.35 10.5662 420.396 10.6313 420.427 10.7034C420.459 10.7756 420.477 10.8535 420.478 10.9324ZM443.533 8.74634L443.533 12.2864C443.532 12.3083 443.525 12.3296 443.513 12.3477C443.5 12.3655 443.482 12.3789 443.462 12.3865C443.448 12.3916 443.434 12.394 443.419 12.3933L442.673 12.3933C442.644 12.3948 442.616 12.385 442.594 12.366C442.572 12.3469 442.56 12.3201 442.557 12.2915L442.557 8.74634L441.39 8.74634C441.361 8.74414 441.335 8.73096 441.315 8.70947C441.297 8.68799 441.287 8.65991 441.288 8.63135L441.288 8.02441C441.287 8.01001 441.289 7.99536 441.293 7.98169C441.298 7.96802 441.306 7.95532 441.314 7.94434C441.324 7.93384 441.336 7.92505 441.349 7.91895C441.361 7.9126 441.376 7.90918 441.39 7.90845L444.72 7.90845C444.749 7.91016 444.776 7.92334 444.795 7.94507C444.814 7.9668 444.824 7.99536 444.823 8.02441L444.823 8.63135C444.824 8.66016 444.814 8.68848 444.795 8.70996C444.775 8.73145 444.749 8.74463 444.72 8.74634L443.533 8.74634ZM424.896 12.2424L424.896 11.6504C424.896 11.6218 424.885 11.5942 424.864 11.574C424.844 11.5537 424.816 11.5425 424.788 11.5425L423.048 11.5425C423.004 11.542 422.961 11.5327 422.921 11.5151C422.881 11.4976 422.845 11.4717 422.815 11.4397C422.785 11.4075 422.763 11.3696 422.748 11.3281C422.733 11.2869 422.728 11.2432 422.73 11.1995L422.73 10.3503L424.583 10.3503C424.61 10.3496 424.637 10.3386 424.656 10.3193C424.676 10.3 424.688 10.2739 424.688 10.2463L424.688 9.64844C424.689 9.625 424.683 9.60205 424.669 9.58301C424.655 9.56421 424.635 9.55005 424.613 9.54346C424.598 9.53882 424.582 9.53735 424.566 9.53931L422.728 9.53931L422.728 9.0625C422.728 9.02075 422.735 8.97949 422.751 8.94116C422.768 8.90259 422.791 8.86768 422.82 8.83838C422.85 8.80908 422.885 8.78589 422.924 8.77026C422.962 8.75464 423.003 8.74683 423.045 8.74731L424.785 8.74731C424.8 8.74829 424.814 8.74609 424.828 8.74097C424.842 8.73584 424.854 8.72778 424.865 8.71753C424.876 8.70752 424.885 8.69507 424.891 8.6814C424.896 8.66772 424.899 8.65308 424.898 8.63843L424.898 8.01831C424.898 8.00293 424.896 7.98755 424.89 7.97339C424.883 7.95923 424.874 7.94653 424.862 7.93604C424.851 7.92554 424.837 7.91772 424.822 7.91309C424.808 7.9082 424.792 7.90674 424.776 7.90845L422.967 7.90039C422.649 7.90137 422.345 8.02637 422.118 8.24854C421.892 8.47095 421.76 8.77295 421.753 9.09033L421.753 11.2124C421.755 11.5256 421.881 11.8254 422.104 12.0466C422.325 12.2678 422.625 12.3923 422.938 12.3933L424.786 12.3933C424.8 12.3938 424.814 12.3914 424.828 12.386C424.842 12.3809 424.854 12.3728 424.864 12.3628C424.874 12.3528 424.882 12.3406 424.888 12.3274C424.894 12.314 424.896 12.2998 424.896 12.2854L424.896 12.2424ZM432.276 10.0054L432.276 9.97339C432.414 9.89136 432.532 9.78027 432.622 9.64844C432.718 9.50537 432.786 9.34546 432.822 9.17627L433.118 8.03638C433.123 8.0127 433.119 7.98804 433.108 7.96655C433.097 7.94531 433.079 7.92822 433.057 7.91846C433.042 7.91162 433.026 7.9082 433.011 7.90845L432.313 7.90845C432.288 7.90747 432.263 7.91235 432.24 7.92236C432.226 7.92969 432.213 7.94043 432.203 7.95361C432.193 7.9668 432.188 7.98218 432.185 7.99829L431.896 9.07251C431.871 9.18384 431.824 9.28979 431.76 9.38428C431.71 9.45508 431.646 9.51392 431.569 9.5564C431.505 9.59277 431.434 9.61792 431.359 9.63037C431.294 9.64038 431.227 9.64551 431.16 9.64551L430.647 9.64551L430.647 8.01733C430.647 7.99634 430.642 7.97559 430.63 7.95825C430.618 7.94067 430.602 7.92725 430.582 7.91943C430.568 7.91431 430.555 7.91211 430.541 7.91235L429.788 7.91235C429.759 7.91064 429.73 7.92041 429.709 7.93921C429.688 7.95801 429.674 7.98462 429.672 8.01343L429.672 12.2893C429.674 12.3181 429.688 12.3447 429.709 12.3638C429.73 12.3828 429.759 12.3928 429.788 12.3914L430.534 12.3914C430.556 12.3931 430.577 12.3884 430.596 12.3777C430.614 12.3669 430.63 12.3508 430.639 12.3313C430.645 12.3181 430.648 12.304 430.648 12.2893L430.648 10.3904L431.169 10.3904C431.296 10.3855 431.424 10.4004 431.547 10.4314C431.646 10.4585 431.734 10.5144 431.803 10.5913C431.881 10.6907 431.938 10.8052 431.969 10.9275L432.363 12.3145C432.369 12.3367 432.383 12.3564 432.401 12.3704C432.42 12.3843 432.442 12.3916 432.466 12.3914L433.212 12.3914C433.236 12.3926 433.261 12.3855 433.281 12.3708C433.301 12.3562 433.315 12.3352 433.322 12.3113C433.326 12.2957 433.327 12.2793 433.324 12.2634L432.926 10.7764C432.902 10.6885 432.875 10.6016 432.843 10.5164C432.815 10.4407 432.777 10.3689 432.729 10.3035C432.681 10.2371 432.62 10.1799 432.552 10.1343C432.466 10.0793 432.373 10.0356 432.275 10.0044L432.276 10.0054ZM434.977 10.6653L435.221 9.85547L435.465 8.94849L435.503 8.94849L435.741 9.85645L435.984 10.6665L434.977 10.6665L434.977 10.6653ZM436.215 11.4585L436.465 12.2893C436.484 12.3655 436.525 12.3914 436.575 12.3914L437.387 12.3914C437.404 12.3918 437.421 12.3882 437.437 12.3809C437.452 12.3733 437.466 12.3623 437.476 12.3486C437.486 12.335 437.493 12.3191 437.496 12.302C437.499 12.2852 437.498 12.2678 437.493 12.2515L436.163 8.26147C436.099 8.06836 436.007 7.91138 435.779 7.91138L435.204 7.91138C435.147 7.90601 435.091 7.91528 435.039 7.93872C434.988 7.96191 434.943 7.99854 434.911 8.04443C434.864 8.10986 434.83 8.18286 434.809 8.2605L433.482 12.2454C433.477 12.262 433.476 12.2798 433.478 12.2971C433.48 12.3145 433.486 12.3311 433.497 12.3455C433.507 12.3596 433.521 12.3711 433.536 12.3789C433.552 12.3867 433.569 12.3906 433.587 12.3904L434.367 12.3904C434.39 12.3931 434.413 12.3882 434.434 12.3762C434.453 12.3643 434.469 12.3462 434.478 12.3245C434.486 12.3062 434.492 12.2876 434.498 12.2683L434.747 11.4573L436.215 11.4585ZM440.212 9.33545C440.212 9.45166 440.178 9.56567 440.113 9.66235C440.048 9.75879 439.956 9.83374 439.848 9.87744C439.776 9.90698 439.7 9.92236 439.623 9.92236L438.748 9.92236L438.748 8.75049L439.583 8.75049C439.663 8.74561 439.743 8.75708 439.819 8.78418C439.895 8.81128 439.964 8.85352 440.023 8.90845C440.082 8.96313 440.129 9.02954 440.161 9.10303C440.194 9.17651 440.211 9.2561 440.212 9.33643L440.212 9.33545ZM438.748 12.2573L438.748 10.7573L439.814 10.7573C440.004 10.7559 440.19 10.717 440.363 10.6433C440.537 10.5696 440.694 10.4622 440.827 10.3274C441.026 10.1226 441.16 9.86206 441.209 9.58008C441.259 9.29834 441.222 9.00806 441.104 8.74731C441.022 8.56201 440.901 8.39648 440.749 8.2627C440.598 8.12866 440.418 8.02979 440.224 7.97241C440.062 7.92798 439.896 7.90649 439.729 7.90845L438.103 7.90845C438.062 7.90698 438.02 7.91382 437.98 7.92847C437.941 7.94312 437.906 7.96533 437.876 7.9939C437.846 8.02246 437.821 8.05664 437.804 8.09473C437.787 8.13281 437.778 8.17383 437.776 8.21533C437.776 8.24243 437.772 8.26929 437.776 8.29834L437.776 12.2803C437.776 12.302 437.783 12.3232 437.795 12.3411C437.808 12.3589 437.824 12.3726 437.845 12.3804C437.858 12.3857 437.872 12.3884 437.887 12.3884L438.645 12.3884C438.664 12.3879 438.684 12.3823 438.7 12.3721C438.716 12.3621 438.729 12.3477 438.739 12.3303C438.749 12.3064 438.753 12.2803 438.751 12.2544L438.748 12.2573ZM418.268 12.3933L419.952 12.3933C420.781 12.4224 421.464 11.8464 421.492 10.9895C421.496 10.9033 421.492 10.8174 421.477 10.7324C421.329 10.0283 420.771 9.54541 420.06 9.54541L418.926 9.54541L418.926 8.74634L420.863 8.74634C420.879 8.74731 420.895 8.74487 420.909 8.73901C420.925 8.73315 420.938 8.72412 420.949 8.71265C420.96 8.70117 420.968 8.6875 420.974 8.67236C420.979 8.65723 420.98 8.64136 420.979 8.62549L420.979 8.0564C420.979 7.97339 420.951 7.91333 420.863 7.91528L418.294 7.91528C418.25 7.91187 418.206 7.91724 418.165 7.93164C418.124 7.9458 418.086 7.96851 418.054 7.99829C418.022 8.02808 417.997 8.06421 417.979 8.10425C417.962 8.14453 417.953 8.18774 417.954 8.23145L417.954 12.0813C417.953 12.1438 417.972 12.2051 418.006 12.2571C418.041 12.3091 418.091 12.3491 418.148 12.3723C418.188 12.3882 418.229 12.3965 418.271 12.3965L418.268 12.3933ZM425.96 8.34131L425.901 9.31348C425.883 9.64331 425.862 9.93042 425.839 10.1753C425.804 10.5793 425.763 11.5493 425.237 11.5493L425.216 11.5493C425.188 11.5498 425.161 11.561 425.141 11.5806C425.121 11.6001 425.109 11.6265 425.107 11.6543L425.107 12.2773C425.106 12.2998 425.111 12.3223 425.124 12.3416C425.136 12.3606 425.153 12.3757 425.174 12.3843C425.188 12.3904 425.203 12.3936 425.218 12.3933L425.264 12.3933C425.66 12.3933 426.01 12.3494 426.308 11.8984C426.408 11.7483 426.487 11.5884 426.543 11.4185C426.606 11.2205 426.652 11.0183 426.683 10.8125C426.721 10.5684 426.749 10.3228 426.767 10.0764C426.788 9.80933 426.81 9.51831 426.831 9.20337L426.855 8.75537L428.107 8.75537L428.107 12.2844C428.107 12.3066 428.114 12.3284 428.127 12.3467C428.14 12.365 428.158 12.3787 428.179 12.3865C428.193 12.3914 428.208 12.3933 428.223 12.3923L428.969 12.3923C428.992 12.3938 429.015 12.3877 429.035 12.3752C429.055 12.3625 429.069 12.344 429.078 12.3225C429.083 12.3081 429.086 12.2927 429.085 12.2773L429.085 8.23047C429.083 8.16553 429.062 8.10229 429.024 8.04956C428.987 7.99683 428.934 7.95654 428.873 7.93433C428.832 7.91943 428.789 7.9126 428.746 7.91431L426.283 7.91431C426.203 7.91699 426.127 7.94946 426.069 8.00537C426.013 8.06128 425.979 8.13647 425.974 8.21631C425.971 8.24829 425.962 8.29028 425.959 8.33643L425.959 8.34033L425.96 8.34131ZM419.372 13.9114L419.081 14.4014L418.527 15.2935C418.512 15.3186 418.494 15.3428 418.476 15.3665C418.462 15.3835 418.444 15.3984 418.426 15.4104C418.407 15.4214 418.387 15.4285 418.366 15.4314C418.338 15.4351 418.311 15.4365 418.283 15.4363L418.152 15.4363C418.122 15.4407 418.09 15.4373 418.061 15.4268C418.031 15.4165 418.004 15.3992 417.982 15.3765C417.952 15.3271 417.937 15.2695 417.939 15.2114L417.939 13.2195C417.939 13.1775 417.963 13.1575 418.009 13.1575L418.358 13.1575C418.389 13.1575 418.409 13.1614 418.416 13.1704C418.426 13.1843 418.429 13.2024 418.428 13.2195L418.428 14.6804L418.447 14.6804L418.725 14.2244L419.29 13.3003C419.31 13.2705 419.328 13.2444 419.343 13.2253C419.355 13.2073 419.371 13.1921 419.39 13.1807C419.408 13.1692 419.429 13.1616 419.451 13.1584C419.478 13.1548 419.506 13.1531 419.533 13.1533L419.667 13.1533C419.696 13.1501 419.727 13.1528 419.755 13.1616C419.783 13.1702 419.81 13.1843 419.833 13.2034C419.871 13.2554 419.889 13.3193 419.883 13.3833L419.883 15.3784C419.883 15.4194 419.859 15.4404 419.812 15.4404L419.459 15.4404C419.438 15.4424 419.418 15.4373 419.4 15.4263C419.391 15.4126 419.386 15.3955 419.387 15.3784L419.387 13.9104L419.372 13.9104L419.372 13.9114ZM420.809 15.3713C420.809 15.3994 420.805 15.4175 420.795 15.4253C420.776 15.4346 420.756 15.4385 420.734 15.4363L420.407 15.4363C420.358 15.4363 420.335 15.4143 420.335 15.3713L420.335 13.7883C420.335 13.7463 420.358 13.7263 420.407 13.7263L420.734 13.7263C420.756 13.7244 420.776 13.728 420.795 13.7373C420.805 13.7454 420.809 13.7625 420.809 13.7874L420.809 14.3455L421.421 14.3455L421.421 13.7883C421.421 13.7463 421.444 13.7263 421.494 13.7263L421.826 13.7263C421.846 13.7234 421.866 13.7273 421.884 13.7373C421.895 13.7515 421.9 13.7695 421.897 13.7874L421.897 15.3713C421.897 15.3994 421.897 15.4175 421.884 15.4253C421.866 15.4351 421.845 15.439 421.825 15.4363L421.494 15.4363C421.444 15.4363 421.421 15.4143 421.421 15.3713L421.421 14.7163L420.809 14.7163L420.809 15.3713ZM423.141 14.1113L423.141 15.3713C423.141 15.3994 423.136 15.4175 423.126 15.4253C423.107 15.4348 423.087 15.4387 423.065 15.4363L422.742 15.4363C422.691 15.4363 422.667 15.4143 422.667 15.3713L422.667 14.1113L422.203 14.1113C422.159 14.1113 422.137 14.0864 422.137 14.0393L422.137 13.8003C422.135 13.7795 422.14 13.7588 422.148 13.7405C422.156 13.7305 422.174 13.7253 422.203 13.7253L423.61 13.7253C423.62 13.7239 423.63 13.7241 423.639 13.7266C423.648 13.729 423.656 13.7334 423.664 13.7395C423.674 13.7573 423.679 13.7793 423.677 13.7993L423.677 14.0383C423.677 14.0854 423.655 14.1094 423.61 14.1094L423.141 14.1094L423.141 14.1113ZM424.573 13.6833C424.828 13.6833 425.019 13.7473 425.146 13.8745C425.213 13.9478 425.265 14.0339 425.298 14.1277C425.331 14.2217 425.345 14.321 425.338 14.4204C425.348 14.5032 425.323 14.5862 425.271 14.6514C425.223 14.6951 425.157 14.7173 425.092 14.7134L424.256 14.7134C424.256 14.7734 424.268 14.8313 424.29 14.8865C424.309 14.9285 424.337 14.9663 424.373 14.9963C424.409 15.0251 424.451 15.0452 424.496 15.0554C424.61 15.0774 424.729 15.075 424.842 15.0483C424.904 15.0344 424.965 15.0144 425.023 14.9905C425.041 14.9829 425.06 14.9797 425.078 14.9814C425.091 14.9883 425.101 14.9995 425.105 15.0134L425.21 15.2473C425.214 15.2542 425.217 15.2617 425.218 15.2698C425.219 15.2778 425.218 15.2859 425.215 15.2935C425.207 15.3071 425.195 15.3181 425.181 15.3254C425.095 15.3799 425 15.4182 424.9 15.4385C424.803 15.46 424.703 15.4712 424.603 15.4724C424.316 15.4724 424.104 15.4014 423.968 15.2615C423.83 15.1213 423.762 14.8965 423.762 14.5894C423.76 14.4595 423.78 14.3293 423.819 14.2063C423.854 14.1011 423.911 14.0042 423.984 13.9214C424.056 13.8435 424.143 13.783 424.241 13.7444C424.347 13.7036 424.459 13.6833 424.572 13.6843L424.573 13.6833ZM424.583 14.0754C424.542 14.074 424.501 14.0818 424.463 14.0979C424.425 14.1143 424.392 14.1387 424.364 14.1694C424.305 14.2366 424.271 14.3213 424.265 14.4104L424.877 14.4104C424.877 14.3652 424.872 14.3203 424.862 14.2764C424.854 14.2385 424.837 14.2029 424.814 14.1714C424.792 14.1406 424.761 14.1165 424.726 14.1013C424.681 14.0825 424.632 14.0735 424.583 14.0754ZM426.157 16.0454C426.157 16.0693 426.157 16.0854 426.146 16.0903C426.129 16.0991 426.108 16.1028 426.089 16.1003L425.752 16.1003C425.734 16.1016 425.716 16.0981 425.7 16.0903C425.689 16.0845 425.683 16.0693 425.683 16.0454L425.683 13.9204C425.683 13.9004 425.687 13.8813 425.694 13.8633C425.709 13.8442 425.728 13.8293 425.749 13.8203C425.86 13.7705 425.979 13.7363 426.1 13.7195C426.223 13.6995 426.347 13.6895 426.472 13.6895C426.605 13.6855 426.738 13.7092 426.862 13.7593C426.96 13.8003 427.048 13.8643 427.116 13.9463C427.185 14.0281 427.232 14.1252 427.256 14.2295C427.313 14.4568 427.312 14.6953 427.253 14.9224C427.225 15.0242 427.178 15.1196 427.113 15.2034C427.048 15.2852 426.965 15.3506 426.871 15.3943C426.764 15.4434 426.646 15.4673 426.527 15.4644C426.403 15.4644 426.279 15.4514 426.158 15.4253L426.158 16.0444L426.157 16.0454ZM426.802 14.5693C426.804 14.4939 426.795 14.4185 426.775 14.3455C426.762 14.2913 426.735 14.241 426.699 14.1985C426.664 14.1616 426.621 14.1348 426.573 14.1204C426.52 14.1045 426.464 14.0967 426.408 14.0974C426.323 14.0986 426.239 14.1111 426.158 14.1343L426.158 15.0234C426.247 15.0479 426.339 15.0596 426.432 15.0583C426.481 15.0598 426.531 15.0508 426.577 15.032C426.623 15.0129 426.665 14.9846 426.699 14.9485C426.769 14.8733 426.803 14.7483 426.803 14.5693L426.802 14.5693ZM428.132 15.3713C428.132 15.3994 428.127 15.4175 428.117 15.4253C428.099 15.4346 428.077 15.4385 428.057 15.4363L427.729 15.4363C427.682 15.4363 427.658 15.4143 427.658 15.3713L427.658 13.7883C427.658 13.7463 427.682 13.7263 427.729 13.7263L428.057 13.7263C428.077 13.7244 428.099 13.728 428.117 13.7373C428.123 13.7441 428.127 13.7522 428.13 13.7607C428.133 13.7693 428.133 13.7786 428.132 13.7874L428.132 14.3455L428.744 14.3455L428.744 13.7883C428.744 13.7463 428.768 13.7263 428.815 13.7263L429.147 13.7263C429.169 13.7239 429.189 13.7278 429.208 13.7373C429.213 13.7444 429.217 13.7524 429.22 13.761C429.222 13.7698 429.222 13.7786 429.221 13.7874L429.221 15.3713C429.221 15.3994 429.216 15.4175 429.207 15.4253C429.188 15.4351 429.167 15.439 429.146 15.4363L428.816 15.4363C428.768 15.4363 428.744 15.4143 428.744 15.3713L428.744 14.7163L428.132 14.7163L428.132 15.3713ZM430.385 13.6833C430.64 13.6833 430.832 13.7473 430.959 13.8745C431.025 13.948 431.077 14.0342 431.109 14.1279C431.143 14.2219 431.156 14.3213 431.149 14.4204C431.159 14.5032 431.136 14.5862 431.084 14.6514C431.034 14.6951 430.97 14.7173 430.904 14.7134L430.067 14.7134C430.067 14.7734 430.08 14.8313 430.102 14.8865C430.12 14.929 430.148 14.9663 430.184 14.9958C430.22 15.0251 430.262 15.0457 430.307 15.0554C430.421 15.0774 430.539 15.075 430.652 15.0483C430.715 15.0344 430.776 15.0144 430.836 14.9905C430.853 14.9827 430.871 14.9795 430.89 14.9814C430.902 14.9883 430.912 14.9998 430.917 15.0134L431.021 15.2473C431.025 15.2542 431.028 15.2617 431.029 15.2698C431.029 15.2778 431.028 15.2859 431.025 15.2935C431.018 15.3071 431.006 15.3181 430.992 15.3254C430.906 15.3799 430.812 15.4182 430.712 15.4385C430.614 15.46 430.514 15.4712 430.414 15.4724C430.128 15.4724 429.917 15.4014 429.779 15.2615C429.642 15.1213 429.579 14.8965 429.579 14.5894C429.577 14.4595 429.596 14.3293 429.636 14.2063C429.671 14.1011 429.728 14.0042 429.802 13.9214C429.872 13.8438 429.96 13.7832 430.057 13.7444C430.162 13.7036 430.274 13.6833 430.388 13.6843L430.385 13.6843L430.385 13.6833ZM430.395 14.0754C430.354 14.074 430.312 14.0818 430.274 14.0979C430.237 14.1143 430.203 14.1387 430.176 14.1694C430.117 14.2366 430.082 14.3213 430.077 14.4104L430.688 14.4104C430.689 14.3652 430.684 14.3203 430.674 14.2764C430.665 14.2385 430.649 14.2029 430.627 14.1714C430.604 14.1409 430.573 14.1169 430.539 14.1013C430.493 14.0825 430.444 14.0737 430.395 14.0754ZM432.321 14.1104L432.321 15.3713C432.321 15.3994 432.315 15.4175 432.306 15.4253C432.287 15.4346 432.267 15.4385 432.246 15.4363L431.922 15.4363C431.872 15.4363 431.847 15.4143 431.847 15.3713L431.847 14.1113L431.382 14.1113C431.339 14.1113 431.316 14.0864 431.316 14.0393L431.316 13.8003C431.314 13.7798 431.318 13.759 431.328 13.7405C431.336 13.7305 431.354 13.7253 431.382 13.7253L432.795 13.7253C432.804 13.7241 432.813 13.7249 432.822 13.7273C432.831 13.7295 432.84 13.7336 432.847 13.7395C432.857 13.7576 432.862 13.7786 432.859 13.7993L432.859 14.0383C432.859 14.0854 432.838 14.1094 432.795 14.1094L432.321 14.1094L432.321 14.1104ZM435.018 15.3745C435.02 15.3831 435.019 15.3921 435.017 15.4006C435.014 15.4092 435.01 15.4172 435.005 15.4243C434.987 15.4353 434.966 15.4395 434.944 15.4363L434.589 15.4363C434.544 15.4363 434.521 15.4165 434.521 15.3745L434.521 13.5864L433.64 13.5864L433.64 15.3745C433.642 15.3921 433.638 15.4099 433.627 15.4243C433.609 15.4348 433.588 15.439 433.567 15.4363L433.208 15.4363C433.162 15.4363 433.14 15.4165 433.14 15.3745L433.14 13.3745C433.136 13.3154 433.152 13.2571 433.187 13.2095C433.209 13.1887 433.235 13.1733 433.264 13.1638C433.293 13.1545 433.323 13.1516 433.353 13.1553L434.814 13.1553C434.845 13.1519 434.875 13.155 434.903 13.1643C434.932 13.1736 434.958 13.189 434.979 13.2095C435.014 13.2573 435.03 13.3154 435.025 13.3745L435.025 15.3745L435.018 15.3745ZM436.931 15.2244C436.932 15.249 436.927 15.2734 436.919 15.2964C436.906 15.3206 436.887 15.3401 436.862 15.3513C436.81 15.3765 436.756 15.3962 436.7 15.4104C436.583 15.4399 436.463 15.4583 436.343 15.4653C436.283 15.4653 436.224 15.4724 436.171 15.4724C436.047 15.4753 435.924 15.4612 435.804 15.4304C435.719 15.408 435.64 15.3684 435.569 15.3145C435.515 15.2688 435.472 15.2095 435.446 15.1423C435.396 14.9971 435.398 14.8391 435.453 14.6953C435.48 14.625 435.524 14.5623 435.581 14.5115C435.643 14.4565 435.715 14.4148 435.794 14.3894C435.893 14.3584 435.996 14.3435 436.1 14.3455L436.457 14.3455L436.457 14.2925C436.457 14.2625 436.454 14.2324 436.447 14.2043C436.44 14.1768 436.427 14.1514 436.407 14.1313C436.382 14.1082 436.353 14.0908 436.319 14.0803C436.272 14.0662 436.223 14.0593 436.173 14.0603C436.14 14.0603 436.103 14.0625 436.061 14.0664L435.938 14.0784C435.861 14.0896 435.786 14.1047 435.712 14.1233C435.692 14.1309 435.671 14.1309 435.651 14.1233C435.646 14.1182 435.64 14.1116 435.637 14.1042C435.633 14.0967 435.63 14.0886 435.63 14.0803L435.578 13.8523C435.571 13.8362 435.571 13.8186 435.578 13.8025C435.586 13.7903 435.598 13.7817 435.612 13.7783C435.712 13.7424 435.815 13.7173 435.922 13.7034C436.027 13.6875 436.135 13.6794 436.242 13.6794C436.479 13.6794 436.654 13.7305 436.764 13.8313C436.822 13.8899 436.866 13.9602 436.896 14.0374C436.924 14.1147 436.936 14.1973 436.93 14.2793L436.93 15.2244L436.931 15.2244ZM436.457 14.6614L436.199 14.6614C436.166 14.6614 436.133 14.6638 436.101 14.6685C436.067 14.6719 436.034 14.6819 436.005 14.6985C435.971 14.717 435.942 14.7454 435.924 14.7798C435.905 14.8142 435.897 14.8535 435.9 14.8923C435.897 14.9236 435.903 14.9551 435.917 14.9832C435.931 15.0115 435.951 15.0354 435.978 15.0525C436.042 15.0857 436.113 15.1013 436.186 15.0974L436.239 15.0974C436.261 15.0974 436.283 15.0974 436.309 15.0903C436.333 15.0845 436.358 15.0835 436.385 15.0784C436.409 15.0732 436.434 15.0659 436.457 15.0564L436.457 14.6614ZM437.834 16.0454C437.834 16.0693 437.83 16.0854 437.822 16.0903C437.805 16.0991 437.785 16.1025 437.766 16.1003L437.428 16.1003C437.41 16.1016 437.392 16.0981 437.376 16.0903C437.365 16.0845 437.359 16.0693 437.359 16.0454L437.359 13.9204C437.358 13.9009 437.362 13.8813 437.37 13.8633C437.384 13.8442 437.403 13.8296 437.425 13.8203C437.537 13.7705 437.655 13.7354 437.776 13.7195C437.898 13.6995 438.022 13.6895 438.146 13.6895C438.28 13.6853 438.414 13.7092 438.538 13.7593C438.636 13.8008 438.723 13.865 438.792 13.9468C438.86 14.0286 438.908 14.1255 438.932 14.2295C438.99 14.4568 438.989 14.6953 438.929 14.9224C438.9 15.0244 438.853 15.1199 438.788 15.2034C438.724 15.2852 438.641 15.3506 438.547 15.3943C438.439 15.4436 438.322 15.4675 438.204 15.4644C438.079 15.4644 437.955 15.4512 437.834 15.4253L437.834 16.0444L437.834 16.0454ZM438.478 14.5693C438.479 14.4939 438.47 14.4185 438.451 14.3455C438.438 14.291 438.411 14.2407 438.374 14.1985C438.34 14.1616 438.297 14.1345 438.249 14.1204C438.195 14.1042 438.139 14.0964 438.083 14.0974C437.999 14.0986 437.915 14.1111 437.834 14.1343L437.834 15.0234C437.923 15.0479 438.015 15.0596 438.106 15.0583C438.156 15.0598 438.206 15.0508 438.252 15.0317C438.298 15.0129 438.34 14.9844 438.374 14.9485C438.443 14.8733 438.478 14.7483 438.478 14.5693ZM440.92 14.5693C440.92 14.8564 440.851 15.0784 440.714 15.2295C440.576 15.3823 440.368 15.4644 440.087 15.4644C439.806 15.4644 439.596 15.3865 439.465 15.2305C439.335 15.0745 439.269 14.8545 439.269 14.5703C439.268 14.4424 439.287 14.3149 439.327 14.1934C439.358 14.0901 439.413 13.9954 439.486 13.9163C439.56 13.8372 439.65 13.7756 439.751 13.7363C439.86 13.6936 439.978 13.6726 440.096 13.6743C440.37 13.6743 440.576 13.7563 440.715 13.9104C440.853 14.0635 440.923 14.2854 440.923 14.5635L440.92 14.5693ZM440.423 14.5793C440.423 14.5125 440.418 14.4443 440.406 14.3774C440.397 14.3225 440.379 14.2695 440.351 14.2214C440.326 14.1794 440.292 14.1443 440.25 14.1194C440.203 14.093 440.149 14.0798 440.096 14.0813C440.045 14.0786 439.995 14.0894 439.95 14.1125C439.905 14.1357 439.867 14.1707 439.84 14.2134C439.779 14.322 439.751 14.4453 439.757 14.5693C439.749 14.698 439.775 14.8264 439.834 14.9414C439.86 14.9834 439.898 15.0176 439.942 15.04C439.987 15.0623 440.037 15.0723 440.087 15.0684C440.141 15.0703 440.194 15.0571 440.242 15.0303C440.285 15.0051 440.321 14.9692 440.347 14.9263C440.375 14.8789 440.396 14.8269 440.406 14.7725C440.419 14.7087 440.425 14.6443 440.424 14.5793L440.423 14.5793ZM442.603 13.7224C442.631 13.719 442.659 13.7214 442.686 13.7297C442.713 13.738 442.737 13.752 442.759 13.7705C442.79 13.8142 442.805 13.8677 442.8 13.9214L442.8 15.3713C442.801 15.3804 442.801 15.3894 442.798 15.3979C442.795 15.4067 442.791 15.4146 442.785 15.4214C442.767 15.4309 442.745 15.4351 442.725 15.4333L442.393 15.4333C442.372 15.4358 442.351 15.4304 442.333 15.4185C442.321 15.4043 442.316 15.3865 442.317 15.3684L442.317 14.1104L441.916 14.1104L441.906 14.2754C441.896 14.4653 441.881 14.6274 441.864 14.7654C441.851 14.8857 441.82 15.0034 441.773 15.1155C441.735 15.2075 441.675 15.2886 441.598 15.3513C441.507 15.4197 441.403 15.4702 441.294 15.5005C441.264 15.5115 441.242 15.5134 441.229 15.5054C441.213 15.4949 441.201 15.4795 441.196 15.4614L441.107 15.2405C441.099 15.2219 441.095 15.2009 441.097 15.1804C441.097 15.1675 441.116 15.1543 441.144 15.1404C441.195 15.1179 441.243 15.0876 441.286 15.0503C441.326 15.0115 441.356 14.9634 441.374 14.9104C441.401 14.8323 441.42 14.7505 441.428 14.6685C441.441 14.5674 441.453 14.4343 441.464 14.2683L441.487 13.9143C441.484 13.8599 441.502 13.8066 441.537 13.7644C441.581 13.7314 441.635 13.7161 441.689 13.7214L442.604 13.7224L442.603 13.7224ZM443.433 15.4333C443.403 15.4375 443.373 15.4351 443.344 15.4263C443.315 15.4175 443.289 15.4026 443.267 15.3823C443.238 15.3423 443.225 15.2937 443.227 15.2444L443.227 13.7883C443.227 13.7463 443.252 13.7263 443.3 13.7263L443.626 13.7263C443.646 13.7244 443.667 13.728 443.686 13.7373C443.691 13.7441 443.696 13.7522 443.699 13.7607C443.701 13.7693 443.702 13.7786 443.701 13.7874L443.701 14.2605L444.106 14.2605C444.236 14.2549 444.365 14.2776 444.484 14.3274C444.567 14.365 444.639 14.4214 444.694 14.4924C444.739 14.5488 444.771 14.6147 444.785 14.6853C444.796 14.7395 444.802 14.7954 444.803 14.8503C444.804 14.9297 444.788 15.0081 444.756 15.0806C444.724 15.1531 444.677 15.2178 444.618 15.2705C444.49 15.3809 444.327 15.4412 444.158 15.4404L443.432 15.4333L443.433 15.4333ZM444.314 14.8374C444.316 14.7803 444.296 14.7249 444.258 14.6824C444.235 14.6599 444.209 14.6426 444.179 14.6316C444.149 14.6206 444.117 14.616 444.086 14.6184L443.701 14.6184L443.701 15.0625L444.082 15.0625C444.121 15.0635 444.16 15.0552 444.196 15.0383C444.223 15.0264 444.246 15.0085 444.266 14.9858C444.284 14.9634 444.298 14.937 444.305 14.9084C444.312 14.8862 444.315 14.8635 444.316 14.8403L444.314 14.8374Z" fill="#B2B2B2" fill-opacity="1.000000" fill-rule="evenodd"/>
</svg>
