<svg width="444.822632" height="24.001343" viewBox="0 0 444.823 24.0013" fill="none" xmlns="http://www.w3.org/2000/svg" xmlns:xlink="http://www.w3.org/1999/xlink">
	<desc>
			Created with Pixso.
	</desc>
	<defs/>
	<path id="Alfa" d="M6.49988 2.50073C7.87317 2.50073 8.31604 3.43018 8.68152 4.35962C8.77332 4.5907 10.0992 7.99329 11.1693 10.7404L11.1693 10.7419L11.1727 10.7499L12.527 14.2238C12.537 14.2474 12.5416 14.2728 12.5409 14.2983C12.5399 14.3239 12.5336 14.3489 12.5221 14.3718C12.5104 14.3948 12.4943 14.4152 12.474 14.4315C12.454 14.4479 12.4305 14.4598 12.4052 14.4668C12.3419 14.4866 11.9225 14.641 11.4757 14.8041C10.9435 14.9995 10.3724 15.2094 10.3138 15.2244C10.264 15.2396 10.2101 15.2365 10.1622 15.2155C10.1146 15.1945 10.0765 15.157 10.0555 15.1104C10.0336 15.0629 9.85071 14.5895 9.65564 14.0812C9.43787 13.516 9.20325 12.9072 9.15515 12.7939L3.84473 12.7939C3.54224 13.5652 3.24219 14.3374 2.94446 15.1104C2.91443 15.1959 2.7926 15.2671 2.6853 15.2244C2.63171 15.203 2.13611 15.024 1.6405 14.8459C1.14478 14.6671 0.64917 14.4882 0.594727 14.4668C0.547119 14.4482 0.508179 14.4131 0.485596 14.3682C0.463135 14.3232 0.458496 14.2717 0.4729 14.2238C0.611084 13.881 4.13477 4.83142 4.31848 4.35962C4.66858 3.44446 5.12683 2.50073 6.49988 2.50073ZM0.198242 18.9563C0.171753 18.9568 0.145752 18.9622 0.12146 18.9724C0.097168 18.9827 0.0751953 18.9976 0.0567627 19.0161C0.0383301 19.0345 0.0238037 19.0564 0.0141602 19.0804C0.00439453 19.1044 -0.000366211 19.13 0 19.1558L0 21.3013C0 21.4153 0.0917969 21.5007 0.198242 21.5007L12.8016 21.5007C12.8282 21.5004 12.8544 21.4948 12.8788 21.4845C12.9032 21.4742 12.9252 21.4594 12.9435 21.4407C12.962 21.4221 12.9764 21.4001 12.9862 21.3761C12.9957 21.3521 13.0006 21.3263 12.9999 21.3004L12.9999 19.1558C13.0004 19.13 12.9955 19.1044 12.986 19.0804C12.9762 19.0564 12.9615 19.0345 12.9432 19.0161C12.9249 18.9976 12.903 18.9827 12.8785 18.9724C12.8544 18.9622 12.8282 18.9568 12.8016 18.9563L0.198242 18.9563ZM4.69946 10.5496L6.49988 5.50269L6.5155 5.50269L8.31604 10.5496L4.70032 10.5496L4.69946 10.5496Z" fill="#C9C9C9" fill-opacity="1.000000" fill-rule="evenodd"/>
	<path id="Visa" d="M55.7281 5.05664L52.661 18.9836L48.951 18.9836L52.0211 5.05664L55.7291 5.05664L55.7281 5.05664ZM71.3322 14.0487L73.285 8.8186L74.4081 14.0487L71.3322 14.0487ZM75.4701 18.9836L78.9 18.9836L75.9081 5.05664L72.7411 5.05664C72.4061 5.05115 72.077 5.14539 71.7958 5.32739C71.5143 5.5094 71.2936 5.77087 71.161 6.07861L65.597 18.9836L69.4921 18.9836L70.265 16.9037L75.024 16.9037L75.4701 18.9836ZM65.7902 14.4357C65.807 10.7596 60.5582 10.5566 60.5941 8.91565C60.6041 8.41565 61.0951 7.88367 62.1671 7.74768C62.6991 7.68066 64.1622 7.62866 65.8241 8.3717L66.4742 5.4187C65.3627 5.01343 64.1891 4.80432 63.0062 4.80066C59.3402 4.80066 56.7601 6.6936 56.7382 9.40466C56.7152 11.4097 58.5792 12.5287 59.9852 13.1947C61.4301 13.8777 61.9152 14.3147 61.9091 14.9247C61.899 15.8607 60.7562 16.2727 59.6901 16.2887C57.8251 16.3176 56.743 15.7997 55.88 15.4087L55.2081 18.4607C56.0741 18.8477 57.6742 19.1837 59.3331 19.2007C63.2291 19.2007 65.7782 17.3307 65.7911 14.4357L65.7902 14.4357ZM50.4291 5.05664L44.421 18.9836L40.5001 18.9836L37.5411 7.86865C37.3612 7.18469 37.2052 6.93372 36.6591 6.64563C35.7692 6.17566 34.296 5.73572 33.0001 5.46167L33.0892 5.05664L39.399 5.05664C40.203 5.05664 40.9271 5.57666 41.109 6.47668L42.6722 14.5366L46.5311 5.05664L50.4271 5.05664L50.4291 5.05664Z" fill="#C9C9C9" fill-opacity="1.000000" fill-rule="evenodd"/>
	<path id="Vector" d="M98.9 10.2754L139.9 10.2754L139.9 19.2754C139.9 20.071 139.58 20.8341 139.01 21.3967C138.441 21.9594 137.669 22.2754 136.863 22.2754L101.937 22.2754C101.131 22.2754 100.359 21.9594 99.7897 21.3967C99.2201 20.8341 98.9 20.071 98.9 19.2754L98.9 10.2754Z" fill="#C9C9C9" fill-opacity="1.000000" fill-rule="nonzero"/>
	<path id="Vector" d="M112.529 16.9736C112.688 17.0659 112.937 17.1461 113.193 17.1461C113.511 17.1461 113.69 16.9977 113.69 16.7787C113.69 16.5739 113.551 16.4546 113.204 16.3302C112.749 16.1749 112.46 15.9349 112.46 15.5516C112.46 15.1077 112.834 14.7761 113.433 14.7761C113.73 14.7761 113.946 14.8398 114.088 14.9081L113.971 15.3079C113.8 15.2229 113.612 15.1792 113.421 15.1804C113.103 15.1804 112.968 15.3439 112.968 15.5029C112.968 15.7114 113.128 15.8066 113.494 15.9431C113.971 16.1232 114.198 16.3586 114.198 16.7419C114.198 17.1776 113.864 17.5497 113.16 17.5497C112.867 17.5497 112.566 17.4694 112.415 17.3816L112.529 16.9736ZM116.145 16.3143L115.111 16.3143L115.111 17.1056L116.267 17.1056L116.267 17.5092L114.609 17.5092L114.609 14.8159L116.205 14.8159L116.205 15.2194L115.11 15.2194L115.11 15.9147L116.144 15.9147L116.144 16.3143L116.145 16.3143ZM118.633 17.4288C118.516 17.4844 118.255 17.549 117.921 17.549C117.049 17.549 116.52 17.0127 116.52 16.1936C116.52 15.3071 117.151 14.7754 117.99 14.7754C118.32 14.7754 118.552 14.8391 118.654 14.8909L118.547 15.2831C118.378 15.2128 118.195 15.1772 118.011 15.1788C117.453 15.1788 117.049 15.5232 117.049 16.1704C117.049 16.7614 117.4 17.1371 118.006 17.1371C118.206 17.1371 118.418 17.0974 118.553 17.0411L118.633 17.4288ZM119.518 14.8159L119.518 16.3864C119.518 16.9137 119.742 17.1573 120.08 17.1573C120.442 17.1573 120.657 16.9137 120.657 16.3864L120.657 14.8159L121.159 14.8159L121.159 16.3541C121.159 17.1852 120.723 17.5526 120.063 17.5526C119.428 17.5526 119.017 17.2054 119.017 16.3579L119.017 14.8159L119.518 14.8159ZM121.693 14.8556C121.883 14.8196 122.161 14.7957 122.45 14.7957C122.845 14.7957 123.109 14.8594 123.297 15.0116C123.447 15.1354 123.532 15.3229 123.532 15.5547C123.532 15.9019 123.293 16.1382 123.032 16.2258L123.032 16.2379C123.231 16.3099 123.35 16.4982 123.415 16.7577C123.504 17.0929 123.578 17.4049 123.631 17.5092L123.118 17.5092C123.077 17.4288 123.007 17.2091 122.934 16.8732C122.852 16.5214 122.726 16.4097 122.442 16.4021L122.189 16.4021L122.189 17.5092L121.692 17.5092L121.692 14.8556L121.693 14.8556ZM122.189 16.0421L122.486 16.0421C122.824 16.0421 123.032 15.8658 123.032 15.5989C123.032 15.3064 122.824 15.1669 122.499 15.1669C122.339 15.1669 122.238 15.1788 122.189 15.1909L122.189 16.0421ZM125.505 16.3143L124.47 16.3143L124.47 17.1056L125.626 17.1056L125.626 17.5092L123.969 17.5092L123.969 14.8159L125.565 14.8159L125.565 15.2194L124.47 15.2194L124.47 15.9147L125.504 15.9147L125.504 16.3143L125.505 16.3143Z" fill="#FFFFFF" fill-opacity="1.000000" fill-rule="nonzero"/>
	<path id="Vector" d="M116.387 1.82434L114.102 7.19202L112.61 7.19202L111.485 2.90808C111.416 2.64478 111.357 2.5481 111.149 2.43628C110.81 2.25562 110.25 2.08533 109.757 1.98035L109.791 1.82434L112.192 1.82434C112.498 1.82434 112.773 2.02454 112.843 2.37183L113.437 5.47754L114.905 1.82507L116.387 1.82434ZM122.232 5.43933C122.238 4.02332 120.242 3.94458 120.255 3.31152C120.259 3.11963 120.445 2.91406 120.853 2.86157C121.055 2.83606 121.612 2.8158 122.245 3.10156L122.493 1.96387C122.07 1.80811 121.623 1.72766 121.172 1.72607C119.777 1.72607 118.796 2.45581 118.788 3.50061C118.779 4.27307 119.49 4.70435 120.023 4.96155C120.573 5.22412 120.758 5.39355 120.755 5.62903C120.752 5.98901 120.316 6.14807 119.911 6.15405C119.201 6.16455 118.79 5.96509 118.462 5.81506L118.206 6.99182C118.536 7.14038 119.144 7.26929 119.774 7.27686C121.258 7.27686 122.227 6.5553 122.232 5.43933ZM125.915 7.19202L127.22 7.19202L126.081 1.82434L124.877 1.82434C124.748 1.82312 124.622 1.85999 124.515 1.93018C124.408 2.00037 124.325 2.10059 124.276 2.21802L122.158 7.19202L123.641 7.19202L123.934 6.39038L125.745 6.39038L125.915 7.19202ZM124.34 5.29077L125.083 3.27478L125.511 5.29077L124.34 5.29077ZM118.404 1.82434L117.237 7.19202L115.826 7.19202L116.993 1.82434L118.404 1.82434Z" fill="#C9C9C9" fill-opacity="1.000000" fill-rule="nonzero"/>
	<path id="Vector" d="M173.179 2.88074L184.425 2.88074L184.425 21.1177L173.179 21.1177L173.179 2.88074Z" fill="#D6D6D6" fill-opacity="1.000000" fill-rule="nonzero"/>
	<path id="Vector" d="M174.338 12.0005C174.339 10.2416 174.74 8.50598 175.514 6.92615C176.287 5.34631 177.411 3.96387 178.799 2.88452C174.009 -0.852539 167.132 -0.308472 162.999 4.13452C161.007 6.27039 159.9 9.08203 159.9 12.0024C159.9 14.9229 161.007 17.7346 162.999 19.8705C167.132 24.3135 174.009 24.8585 178.799 21.1205C177.41 20.0406 176.286 18.6576 175.513 17.077C174.74 15.4965 174.338 13.76 174.338 12.0005Z" fill="#B2B2B2" fill-opacity="1.000000" fill-rule="nonzero"/>
	<path id="Vector" d="M197.7 12.0005C197.7 16.4406 195.146 20.4915 191.123 22.4325C189.151 23.3833 186.952 23.764 184.774 23.5317C182.597 23.2994 180.528 22.4631 178.8 21.1176C180.188 20.0371 181.311 18.6544 182.085 17.0746C182.858 15.4948 183.261 13.7594 183.262 12.0005C183.262 8.44153 181.617 5.08044 178.799 2.88147C180.527 1.53577 182.596 0.699707 184.774 0.467529C186.952 0.235352 189.151 0.616333 191.123 1.5675C195.146 3.50745 197.7 7.5575 197.7 11.9985L197.7 12.0005Z" fill="#E2E2E2" fill-opacity="1.000000" fill-rule="nonzero"/>
	<path id="Vector" d="M240.124 17.434L240.124 15.6899L239.704 15.6899L239.704 16.7019C239.633 16.61 239.54 16.5364 239.435 16.4872C239.329 16.438 239.214 16.4146 239.097 16.4189C238.829 16.4189 238.572 16.5255 238.382 16.7151C238.193 16.9047 238.086 17.1619 238.086 17.4299C238.086 17.6981 238.193 17.9552 238.382 18.1448C238.572 18.3345 238.829 18.4409 239.097 18.4409C239.214 18.4453 239.329 18.4219 239.435 18.3727C239.54 18.3235 239.633 18.2499 239.704 18.158L239.704 18.3929L240.124 18.3929L240.124 17.433L240.124 17.434ZM227.577 16.4659L228.265 16.4659L228.265 16.844L227.581 16.844L227.581 17.7339C227.581 17.928 227.658 18.058 227.86 18.058C227.992 18.0479 228.118 18.0045 228.228 17.9319L228.349 18.292C228.192 18.3903 228.01 18.4423 227.824 18.4419C227.326 18.4419 227.152 18.1749 227.152 17.726L227.152 16.8459L226.76 16.8459L226.76 16.4679L227.152 16.4679L227.152 15.882L227.577 15.882L227.577 16.4679L227.577 16.4659ZM221.983 18.4059L221.983 17.1919C221.99 17.09 221.975 16.9877 221.94 16.8918C221.904 16.796 221.849 16.709 221.776 16.6362C221.705 16.5636 221.618 16.5071 221.523 16.4705C221.427 16.434 221.325 16.418 221.223 16.424C221.089 16.4149 220.956 16.4421 220.836 16.5024C220.717 16.5627 220.615 16.6541 220.543 16.767C220.477 16.6575 220.383 16.5677 220.27 16.5074C220.158 16.447 220.031 16.4182 219.903 16.424C219.792 16.4183 219.681 16.4419 219.582 16.4922C219.483 16.5426 219.398 16.6179 219.337 16.7109L219.337 16.4719L218.917 16.4719L218.917 18.4059L219.341 18.4059L219.341 17.334C219.332 17.2677 219.338 17.2003 219.358 17.1366C219.378 17.0728 219.411 17.0143 219.457 16.9651C219.502 16.916 219.558 16.8776 219.62 16.8524C219.682 16.8273 219.748 16.8162 219.815 16.8199C220.094 16.8199 220.235 17.002 220.235 17.33L220.235 18.4059L220.66 18.4059L220.66 17.334C220.651 17.2679 220.657 17.2007 220.677 17.1372C220.697 17.0737 220.731 17.0154 220.776 16.9663C220.821 16.9172 220.877 16.8788 220.939 16.8535C221 16.8281 221.067 16.8168 221.133 16.8199C221.421 16.8199 221.558 17.002 221.558 17.33L221.558 18.4059L221.983 18.4059ZM238.664 22.3939L238.278 22.3939L238.28 20.121L237.993 20.121L237.993 23.761L238.296 23.761L238.296 22.647L238.682 22.647L239.693 23.761L240.06 23.761L238.907 22.506L240.039 21.3839L239.675 21.3839L238.665 22.3949L238.664 22.3939ZM229.988 21.599C229.923 21.658 229.868 21.726 229.822 21.8009L229.812 20.1329L229.524 20.1329L229.524 23.7729L229.812 23.7729L229.812 22.418C229.811 22.3082 229.832 22.1993 229.874 22.0979C229.914 22.0046 229.972 21.92 230.044 21.8494C230.117 21.7786 230.203 21.723 230.297 21.6859C230.397 21.6478 230.503 21.6288 230.609 21.6299C230.719 21.627 230.829 21.6449 230.932 21.6819C231.023 21.7148 231.105 21.7677 231.172 21.8365C231.24 21.9055 231.291 21.9886 231.322 22.08C231.357 22.1843 231.375 22.2938 231.373 22.4039L231.373 23.7739L231.663 23.7739L231.663 22.3159C231.665 22.1777 231.641 22.0405 231.59 21.912C231.545 21.7965 231.475 21.6924 231.386 21.6073C231.296 21.5222 231.188 21.4583 231.07 21.4199C230.783 21.3193 230.467 21.3337 230.19 21.46C230.117 21.4971 230.049 21.5442 229.988 21.6L229.988 21.599ZM227.35 20.184C227.641 20.1843 227.927 20.2513 228.188 20.3799C228.308 20.4409 228.422 20.5179 228.523 20.6079C228.623 20.6969 228.709 20.798 228.78 20.912L228.523 21.0829C228.333 20.7992 228.041 20.5989 227.708 20.5229C227.393 20.447 227.062 20.4705 226.761 20.59C226.583 20.66 226.421 20.7659 226.286 20.9009C226.15 21.0359 226.044 21.1971 225.973 21.375C225.82 21.7716 225.82 22.2113 225.973 22.6079C226.044 22.7859 226.15 22.9474 226.286 23.0824C226.422 23.2174 226.584 23.3231 226.762 23.3929C226.949 23.4669 227.149 23.5039 227.35 23.5029C227.47 23.5029 227.59 23.4889 227.706 23.4619C227.931 23.4124 228.14 23.3064 228.313 23.1539C228.397 23.08 228.469 22.995 228.529 22.902L228.782 23.0859C228.709 23.1959 228.621 23.2959 228.522 23.3829C228.313 23.5618 228.064 23.6879 227.796 23.751C227.411 23.8386 227.009 23.809 226.641 23.6659C226.427 23.5813 226.231 23.4548 226.066 23.2939C225.902 23.1309 225.773 22.9363 225.686 22.7219C225.502 22.2516 225.502 21.7292 225.686 21.2589C225.773 21.0449 225.902 20.85 226.066 20.6869C226.231 20.527 226.426 20.3999 226.641 20.3149C226.866 20.226 227.107 20.1819 227.35 20.184ZM227.35 20.184L227.342 20.184L227.35 20.184ZM221.651 20.224C221.921 20.22 222.191 20.262 222.448 20.3469C222.673 20.422 222.879 20.542 223.055 20.7009C223.222 20.8569 223.352 21.048 223.437 21.2589C223.615 21.7329 223.615 22.2549 223.437 22.7279C223.352 22.9398 223.222 23.1304 223.055 23.2859C222.879 23.4449 222.673 23.5659 222.448 23.6399C222.191 23.7256 221.922 23.7671 221.651 23.7629L220.359 23.7629L220.359 20.2229L221.651 20.2229L221.651 20.224ZM218.989 23.7639L219.299 23.7639L219.299 20.224L218.989 20.224L218.989 23.7639ZM240.428 23.6439L240.383 23.6439L240.383 23.7639L240.361 23.7639L240.361 23.6439L240.316 23.6439L240.316 23.6219L240.43 23.6219L240.428 23.6439ZM240.602 23.7639L240.579 23.7639L240.579 23.6479L240.539 23.7489L240.515 23.7489L240.475 23.6479L240.475 23.7629L240.452 23.7629L240.452 23.6219L240.486 23.6219L240.526 23.7219L240.567 23.6219L240.602 23.6219L240.602 23.7629L240.602 23.7639ZM220.667 23.47L220.667 20.517L221.652 20.521C221.883 20.517 222.114 20.552 222.334 20.6239C222.519 20.6869 222.689 20.788 222.831 20.922C222.967 21.052 223.071 21.2119 223.137 21.3889C223.274 21.782 223.274 22.209 223.137 22.6019C223.072 22.7784 222.967 22.9379 222.831 23.068C222.688 23.2009 222.519 23.3021 222.334 23.365C222.114 23.4386 221.882 23.4741 221.65 23.47L220.667 23.47ZM233.55 21.3529C233.699 21.3502 233.847 21.3792 233.983 21.4377C234.12 21.4963 234.243 21.5834 234.343 21.693C234.445 21.804 234.525 21.9349 234.578 22.0769C234.637 22.2329 234.667 22.3989 234.667 22.5659L234.667 22.6849L232.673 22.6849C232.68 22.813 232.712 22.9369 232.766 23.053C232.814 23.1558 232.881 23.248 232.965 23.3245C233.048 23.4009 233.146 23.4598 233.253 23.4979C233.363 23.538 233.478 23.558 233.595 23.5569C233.749 23.5599 233.901 23.528 234.042 23.4659C234.174 23.4039 234.294 23.3199 234.398 23.2169L234.551 23.4189C234.359 23.6204 234.106 23.752 233.831 23.793C233.747 23.8049 233.661 23.8119 233.577 23.8119C233.413 23.8136 233.25 23.7831 233.097 23.7219C232.955 23.6646 232.826 23.5785 232.718 23.469C232.611 23.3596 232.527 23.2292 232.472 23.0859C232.411 22.927 232.381 22.7581 232.383 22.5879C232.38 22.2607 232.497 21.944 232.713 21.698C232.824 21.5863 232.955 21.4977 233.1 21.4373C233.245 21.3768 233.401 21.3458 233.558 21.3459L233.55 21.3529ZM233.219 21.6699C233.324 21.6276 233.437 21.6061 233.55 21.6069C233.655 21.6062 233.758 21.6262 233.855 21.6656C233.952 21.7051 234.04 21.7633 234.114 21.8369C234.189 21.9124 234.25 22.0012 234.292 22.099C234.339 22.2059 234.367 22.3199 234.375 22.4369L232.675 22.4369C232.687 22.3212 232.719 22.2083 232.768 22.1029C232.857 21.9056 233.018 21.7504 233.219 21.6699ZM236.43 21.3529C236.599 21.351 236.766 21.3829 236.922 21.448C237.07 21.5079 237.202 21.6029 237.308 21.7229L237.122 21.9249C237.032 21.8304 236.924 21.7555 236.804 21.7051C236.684 21.6547 236.554 21.6298 236.424 21.632C236.302 21.6307 236.182 21.6544 236.069 21.7018C235.957 21.749 235.855 21.8188 235.771 21.907C235.684 21.9933 235.615 22.0964 235.569 22.21C235.476 22.4572 235.476 22.7297 235.569 22.9769C235.637 23.1462 235.754 23.2914 235.904 23.3934C236.056 23.4955 236.234 23.5497 236.416 23.549C236.55 23.5503 236.683 23.5226 236.806 23.4679C236.923 23.4159 237.03 23.3429 237.122 23.2539L237.302 23.4559C237.195 23.5759 237.063 23.6689 236.916 23.731C236.761 23.7952 236.594 23.8275 236.426 23.8259C236.258 23.8279 236.091 23.7963 235.935 23.7329C235.791 23.6742 235.66 23.5868 235.55 23.476C235.441 23.365 235.355 23.233 235.298 23.0879C235.178 22.7739 235.178 22.427 235.298 22.1129C235.412 21.819 235.642 21.585 235.935 21.4659C236.091 21.392 236.261 21.3519 236.435 21.3459L236.43 21.3529ZM231.851 16.418C231.748 16.4148 231.647 16.4395 231.557 16.4893C231.467 16.5391 231.393 16.6122 231.341 16.7009L231.341 16.4659L230.925 16.4659L230.925 18.3999L231.345 18.3999L231.345 17.3159C231.345 16.996 231.483 16.818 231.75 16.818C231.84 16.8169 231.93 16.8329 232.013 16.8669L232.143 16.4619C232.047 16.4274 231.945 16.4094 231.843 16.4089L231.851 16.418ZM225.638 16.418C225.915 16.408 226.189 16.4779 226.428 16.62L226.241 16.96C226.056 16.8536 225.847 16.7965 225.634 16.7939C225.404 16.7939 225.266 16.891 225.266 17.0199C225.266 17.1499 225.412 17.1859 225.594 17.21L225.796 17.2389C226.216 17.299 226.472 17.449 226.472 17.8169C226.472 18.1849 226.148 18.448 225.59 18.448C225.291 18.4565 224.997 18.3689 224.752 18.198L224.955 17.87C225.14 18.007 225.367 18.079 225.598 18.0719C225.885 18.0719 226.038 17.9869 226.038 17.8369C226.038 17.7279 225.93 17.667 225.699 17.6349L225.497 17.6069C225.064 17.547 224.829 17.3519 224.829 17.037C224.829 16.652 225.149 16.417 225.639 16.417L225.638 16.418ZM237.694 16.418C237.591 16.4148 237.49 16.4395 237.4 16.4893C237.31 16.5391 237.236 16.6122 237.184 16.7009L237.184 16.4659L236.768 16.4659L236.768 18.3999L237.188 18.3999L237.188 17.3159C237.188 16.996 237.326 16.818 237.593 16.818C237.683 16.8169 237.773 16.8329 237.856 16.8669L237.986 16.4619C237.89 16.4274 237.788 16.4094 237.686 16.4089L237.694 16.418ZM232.567 18.163C232.47 18.0677 232.394 17.9535 232.344 17.8273C232.294 17.701 232.27 17.5657 232.275 17.4299L232.275 17.422C232.27 17.286 232.293 17.1504 232.344 17.024C232.394 16.8976 232.47 16.7831 232.567 16.6877C232.664 16.5925 232.781 16.5186 232.908 16.4707C233.035 16.4229 233.171 16.4022 233.307 16.4099C233.559 16.3979 233.807 16.48 234.002 16.641L233.8 16.981C233.655 16.87 233.477 16.809 233.294 16.8069C233.136 16.8159 232.987 16.885 232.879 17.0001C232.77 17.1152 232.709 17.2676 232.709 17.4259C232.709 17.5842 232.77 17.7366 232.879 17.8517C232.987 17.9668 233.136 18.036 233.294 18.0449C233.477 18.043 233.655 17.9819 233.8 17.871L234.002 18.2109C233.807 18.3717 233.559 18.4537 233.307 18.4409C233.171 18.4487 233.035 18.428 232.908 18.3801C232.78 18.3323 232.664 18.2583 232.567 18.163ZM236.215 17.4299L236.215 16.4629L235.795 16.4629L235.795 16.698C235.724 16.6058 235.631 16.5321 235.525 16.4829C235.42 16.4337 235.304 16.4104 235.187 16.4149C234.919 16.4149 234.662 16.5215 234.472 16.7111C234.283 16.9006 234.176 17.1578 234.176 17.4259C234.176 17.6941 234.283 17.9512 234.472 18.1409C234.662 18.3304 234.919 18.4369 235.187 18.4369C235.304 18.4413 235.419 18.418 235.525 18.3687C235.63 18.3195 235.723 18.2458 235.794 18.1539L235.794 18.3889L236.214 18.3889L236.214 17.429L236.215 17.4299ZM235.255 16.8799C235.178 16.8771 235.102 16.8893 235.03 16.916C234.958 16.9426 234.892 16.9833 234.836 17.0354C234.779 17.0876 234.734 17.1504 234.702 17.2201C234.67 17.2899 234.652 17.3652 234.649 17.4419C234.646 17.5187 234.659 17.5951 234.685 17.6671C234.712 17.739 234.752 17.8051 234.805 17.8613C234.857 17.9176 234.92 17.963 234.989 17.9951C235.059 18.0271 235.134 18.045 235.211 18.048C235.366 18.0538 235.517 17.9978 235.63 17.8925C235.744 17.7871 235.811 17.6409 235.817 17.486C235.823 17.3311 235.767 17.1802 235.661 17.0665C235.556 16.9529 235.41 16.8857 235.255 16.8799ZM229.573 16.4189C229.44 16.4208 229.309 16.4487 229.187 16.5012C229.065 16.5537 228.955 16.6298 228.862 16.725C228.77 16.8202 228.697 16.9326 228.648 17.056C228.599 17.1793 228.574 17.3112 228.576 17.444C228.578 17.5767 228.606 17.7078 228.658 17.8297C228.711 17.9518 228.787 18.0621 228.882 18.1548C228.977 18.2473 229.09 18.3202 229.213 18.3694C229.337 18.4185 229.468 18.4427 229.601 18.4409C229.89 18.4509 230.172 18.355 230.394 18.1709L230.192 17.8589C230.032 17.9869 229.835 18.058 229.63 18.0609C229.491 18.073 229.353 18.0304 229.245 17.942C229.136 17.8538 229.067 17.7267 229.051 17.5879L230.489 17.5879L230.489 17.4259C230.489 16.819 230.113 16.4149 229.571 16.4149L229.573 16.4189ZM229.915 16.928C229.823 16.8401 229.7 16.7922 229.573 16.7949L229.565 16.7949C229.435 16.7905 229.309 16.8372 229.213 16.9248C229.117 17.0125 229.059 17.1342 229.051 17.2639L230.062 17.2639C230.059 17.1368 230.007 17.0161 229.915 16.928ZM239.165 16.8839C239.086 16.8774 239.007 16.887 238.932 16.912C238.857 16.9369 238.788 16.9768 238.729 17.0292C238.67 17.0817 238.622 17.1455 238.588 17.2169C238.554 17.2885 238.535 17.366 238.532 17.4449C238.529 17.5239 238.542 17.6027 238.571 17.6764C238.599 17.7502 238.642 17.8175 238.697 17.8743C238.752 17.931 238.818 17.976 238.891 18.0065C238.964 18.0371 239.042 18.0525 239.121 18.052C239.272 18.0507 239.416 17.9913 239.524 17.8864C239.632 17.7815 239.695 17.6389 239.701 17.4885C239.706 17.338 239.653 17.1913 239.554 17.0786C239.454 16.9661 239.314 16.8964 239.164 16.8839L239.165 16.8839ZM224.355 17.434L224.355 16.4669L223.935 16.4669L223.935 16.7019C223.864 16.61 223.771 16.5364 223.666 16.4872C223.56 16.438 223.444 16.4146 223.328 16.4189C223.06 16.4189 222.803 16.5255 222.613 16.7151C222.424 16.9047 222.317 17.1619 222.317 17.4299C222.317 17.6981 222.424 17.9552 222.613 18.1448C222.803 18.3345 223.06 18.4409 223.328 18.4409C223.444 18.4452 223.56 18.4216 223.665 18.3724C223.771 18.3232 223.863 18.2498 223.934 18.158L223.934 18.3929L224.355 18.3929L224.355 17.433L224.355 17.434ZM223.395 16.8839C223.316 16.8774 223.237 16.887 223.162 16.912C223.087 16.9369 223.018 16.9768 222.959 17.0292C222.9 17.0817 222.852 17.1455 222.818 17.2169C222.784 17.2885 222.765 17.366 222.762 17.4449C222.759 17.5239 222.772 17.6027 222.801 17.6764C222.829 17.7502 222.872 17.8175 222.927 17.8743C222.982 17.931 223.048 17.976 223.121 18.0065C223.194 18.0371 223.272 18.0525 223.351 18.052C223.502 18.0509 223.646 17.9917 223.754 17.8868C223.862 17.782 223.926 17.6395 223.932 17.489C223.937 17.3385 223.885 17.1915 223.785 17.0789C223.685 16.9662 223.545 16.8964 223.395 16.8839ZM240.825 18.1189C240.877 18.1188 240.927 18.1385 240.964 18.174C240.987 18.1959 241.004 18.2233 241.013 18.2534C241.023 18.2837 241.024 18.3157 241.018 18.3468C241.012 18.3778 240.998 18.4067 240.977 18.4308C240.957 18.455 240.931 18.4736 240.901 18.485C240.877 18.496 240.851 18.5017 240.824 18.502C240.786 18.5017 240.748 18.4906 240.716 18.4698C240.684 18.4491 240.658 18.4197 240.642 18.3849C240.63 18.3555 240.624 18.3232 240.628 18.2913C240.631 18.2593 240.642 18.2286 240.66 18.2023C240.678 18.1758 240.703 18.1543 240.732 18.1399C240.76 18.1256 240.792 18.1187 240.824 18.12L240.825 18.1189ZM240.883 18.449C240.865 18.457 240.844 18.4612 240.824 18.4609L240.824 18.4629C240.804 18.4623 240.784 18.4575 240.765 18.449C240.747 18.4415 240.731 18.4307 240.717 18.417C240.692 18.3893 240.678 18.3533 240.678 18.3159C240.678 18.2786 240.692 18.2426 240.717 18.215C240.731 18.2007 240.748 18.1895 240.766 18.1816C240.785 18.174 240.804 18.1699 240.824 18.1699C240.844 18.17 240.863 18.1741 240.881 18.1818C240.899 18.1895 240.916 18.2008 240.929 18.215C240.954 18.2426 240.968 18.2786 240.968 18.3159C240.968 18.3533 240.954 18.3893 240.929 18.417C240.916 18.4303 240.9 18.4412 240.883 18.449ZM240.836 18.2209C240.856 18.22 240.874 18.226 240.889 18.2369C240.895 18.2421 240.9 18.2484 240.903 18.2557C240.906 18.2631 240.908 18.271 240.907 18.2789C240.908 18.2858 240.907 18.2926 240.904 18.299C240.902 18.3053 240.898 18.3112 240.893 18.3159C240.881 18.3267 240.866 18.333 240.85 18.334L240.909 18.401L240.862 18.401L240.808 18.334L240.79 18.334L240.79 18.401L240.751 18.401L240.751 18.2229L240.836 18.2209ZM240.792 18.304L240.792 18.2549L240.836 18.267C240.844 18.2644 240.853 18.2644 240.861 18.267C240.862 18.2698 240.863 18.2728 240.863 18.276C240.863 18.2791 240.862 18.2821 240.861 18.2849C240.863 18.2878 240.863 18.2911 240.863 18.2944C240.863 18.2977 240.863 18.301 240.861 18.304C240.853 18.3064 240.844 18.3064 240.836 18.304L240.792 18.304Z" fill="#B2B2B2" fill-opacity="1.000000" fill-rule="evenodd"/>
	<path id="Vector" d="M226.293 1.73389L232.664 1.73389L232.664 13.1829L226.293 13.1829L226.293 1.73389Z" fill="#D6D6D6" fill-opacity="1.000000" fill-rule="nonzero"/>
	<path id="Vector" d="M226.697 7.45874C226.696 6.35608 226.946 5.26758 227.428 4.27563C227.909 3.28381 228.61 2.41455 229.478 1.73376C228.404 0.889893 227.114 0.365234 225.756 0.219727C224.398 0.0740967 223.026 0.313599 221.798 0.910645C220.569 1.50781 219.534 2.43835 218.809 3.59619C218.085 4.75403 217.7 6.09241 217.7 7.45825C217.7 8.8241 218.085 10.1624 218.809 11.3202C219.534 12.478 220.569 13.4087 221.798 14.0057C223.026 14.6029 224.398 14.8423 225.756 14.6968C227.114 14.5513 228.404 14.0266 229.478 13.1827C228.611 12.502 227.91 11.6328 227.428 10.6411C226.947 9.64941 226.697 8.56116 226.698 7.45874L226.697 7.45874Z" fill="#B2B2B2" fill-opacity="1.000000" fill-rule="nonzero"/>
	<path id="Vector" d="M241.259 7.45862C241.259 8.82495 240.874 10.1636 240.15 11.3218C239.424 12.4799 238.389 13.4106 237.16 14.0077C235.931 14.6047 234.559 14.844 233.2 14.6981C231.842 14.5522 230.552 14.0271 229.478 13.1826C230.345 12.5015 231.046 11.6322 231.528 10.6405C232.01 9.64868 232.261 8.56042 232.261 7.45764C232.261 6.35498 232.01 5.2666 231.528 4.2749C231.046 3.28308 230.345 2.41382 229.478 1.73267C230.552 0.888184 231.842 0.362915 233.2 0.216919C234.558 0.0710449 235.931 0.310303 237.159 0.907349C238.388 1.50452 239.424 2.4353 240.149 3.59351C240.874 4.75171 241.258 6.09045 241.258 7.45667L241.258 7.45862L241.259 7.45862Z" fill="#E2E2E2" fill-opacity="1.000000" fill-rule="nonzero"/>
	<path id="Pay" d="M267.307 6.95471C267.684 6.48267 267.939 5.84863 267.872 5.20068C267.32 5.22864 266.647 5.56567 266.258 6.03772C265.908 6.44263 265.598 7.10266 265.678 7.72363C266.298 7.77771 266.917 7.4137 267.307 6.95374L267.307 6.95471ZM267.865 7.84473C266.965 7.79065 266.201 8.35571 265.772 8.35571C265.342 8.35571 264.685 7.8717 263.974 7.88464C263.048 7.89868 262.189 8.42273 261.72 9.25671C260.754 10.9247 261.465 13.3987 262.404 14.7577C262.86 15.4297 263.41 16.1697 264.134 16.1437C264.819 16.1167 265.088 15.6997 265.92 15.6997C266.751 15.6997 266.993 16.1437 267.717 16.1296C268.469 16.1167 268.938 15.4576 269.395 14.7847C269.918 14.0187 270.132 13.2787 270.145 13.2377C270.132 13.2247 268.697 12.6727 268.684 11.0177C268.67 9.63367 269.811 8.97473 269.864 8.93372C269.22 7.97974 268.214 7.8717 267.864 7.84363L267.865 7.84473ZM275.693 5.9707C277.647 5.9707 279.008 7.3197 279.008 9.28467C279.008 11.2557 277.619 12.6127 275.644 12.6127L273.481 12.6127L273.481 16.0597L271.917 16.0597L271.917 5.9707L275.693 5.9707ZM273.481 11.2977L275.274 11.2977C276.635 11.2977 277.41 10.5637 277.41 9.29163C277.41 8.01868 276.635 7.29163 275.281 7.29163L273.481 7.29163L273.481 11.2977ZM279.416 13.9686C279.416 12.6827 280.401 11.8927 282.146 11.7947L284.156 11.6757L284.156 11.1097C284.156 10.2906 283.604 9.80164 282.683 9.80164C281.81 9.80164 281.266 10.2217 281.133 10.8787L279.71 10.8787C279.793 9.54968 280.924 8.57068 282.739 8.57068C284.519 8.57068 285.656 9.51465 285.656 10.9907L285.656 16.0607L284.211 16.0607L284.211 14.8507L284.176 14.8507C283.751 15.6687 282.822 16.1857 281.859 16.1857C280.421 16.1857 279.416 15.2906 279.416 13.9686ZM284.156 13.3047L284.156 12.7247L282.348 12.8367C281.448 12.8997 280.938 13.2977 280.938 13.9266C280.938 14.5707 281.468 14.9896 282.278 14.9896C283.332 14.9896 284.155 14.2627 284.155 13.3047L284.156 13.3047ZM287.019 18.7656L287.019 17.5416C287.131 17.5697 287.382 17.5697 287.509 17.5697C288.206 17.5697 288.583 17.2767 288.813 16.5217C288.813 16.5077 288.946 16.0737 288.946 16.0667L286.294 8.70374L287.927 8.70374L289.783 14.6897L289.811 14.6897L291.668 8.70374L293.259 8.70374L290.509 16.4437C289.881 18.2277 289.155 18.8007 287.634 18.8007C287.429 18.7999 287.224 18.7882 287.02 18.7656L287.019 18.7656Z" fill="#B2B2B2" fill-opacity="1.000000" fill-rule="nonzero"/>
	<path id="samsung pay" d="M323.905 12.4861L325.685 12.4861C326.758 12.4861 327.568 13.2961 327.568 14.3081C327.568 15.3212 326.773 16.1451 325.684 16.1451L324.876 16.1451L324.876 17.6061L323.906 17.6061L323.906 12.4861L323.905 12.4861ZM324.875 13.3682L324.875 15.2482L325.611 15.2482C326.184 15.2482 326.581 14.8281 326.581 14.3081C326.581 13.7881 326.185 13.3682 325.611 13.3682L324.876 13.3682L324.875 13.3682ZM327.818 15.5671C327.818 14.2072 328.831 13.4261 329.891 13.4261C330.434 13.4261 330.934 13.6571 331.229 14.0042L331.229 13.5132L332.185 13.5132L332.185 17.6211L331.229 17.6211L331.229 17.0851C331.063 17.2814 330.856 17.4387 330.622 17.5461C330.388 17.6537 330.134 17.7086 329.876 17.7072C329.6 17.703 329.328 17.6442 329.075 17.5342C328.821 17.4242 328.592 17.2651 328.401 17.0662C328.209 16.8672 328.059 16.6323 327.959 16.3751C327.859 16.1178 327.81 15.8431 327.817 15.5671L327.818 15.5671ZM331.273 15.5521C331.273 14.8582 330.744 14.2941 330.023 14.2941C329.318 14.2941 328.758 14.8441 328.758 15.5521C328.758 16.2611 329.302 16.8251 330.023 16.8251C330.744 16.8251 331.273 16.2611 331.273 15.5521ZM334.288 17.4042L332.581 13.4982L333.611 13.4982L334.773 16.2611L335.876 13.4982L336.891 13.4982L334.405 19.5011L333.435 19.5011L334.287 17.4042L334.288 17.4042ZM314.552 5.87512C314.53 5.79468 314.53 5.70959 314.552 5.62915C314.582 5.47009 314.684 5.31116 314.994 5.31116C315.273 5.31116 315.449 5.48511 315.449 5.74512L315.449 6.03516L316.655 6.03516L316.655 5.70117C316.655 4.65918 315.699 4.50012 315.008 4.50012C314.141 4.50012 313.434 4.77515 313.302 5.57007C313.272 5.78711 313.258 5.9751 313.318 6.22107C313.523 7.20508 315.258 7.4801 315.508 8.10107C315.552 8.21716 315.538 8.36218 315.523 8.4491C315.479 8.60815 315.376 8.76709 315.053 8.76709C314.744 8.76709 314.568 8.59314 314.568 8.33313L314.568 7.87012L313.258 7.87012L313.258 8.23218C313.258 9.30212 314.111 9.62109 315.023 9.62109C315.905 9.62109 316.626 9.33118 316.744 8.52112C316.803 8.10107 316.758 7.84106 316.744 7.74109C316.537 6.72815 314.699 6.43811 314.553 5.87415L314.552 5.87512ZM330.376 5.89014C330.361 5.80884 330.361 5.72546 330.376 5.64417C330.406 5.48413 330.508 5.32507 330.817 5.32507C331.096 5.32507 331.258 5.49915 331.258 5.75916L331.258 6.04907L332.464 6.04907L332.464 5.71606C332.464 4.68909 331.523 4.53015 330.846 4.53015C329.994 4.53015 329.287 4.80518 329.156 5.58618C329.126 5.8031 329.111 5.99109 329.171 6.22217C329.376 7.19214 331.096 7.46606 331.332 8.08813C331.376 8.2041 331.361 8.34814 331.346 8.43518C331.302 8.59509 331.199 8.75415 330.876 8.75415C330.567 8.75415 330.391 8.58008 330.391 8.32007L330.391 7.85718L329.096 7.85718L329.096 8.21814C329.096 9.27417 329.934 9.59314 330.846 9.59314C331.714 9.59314 332.434 9.3031 332.552 8.50818C332.611 8.10315 332.568 7.82812 332.537 7.72717C332.331 6.74316 330.508 6.43909 330.376 5.89014ZM341.421 8.49316L340.273 4.64612L338.464 4.64612L338.464 9.3761L339.655 9.3761L339.582 5.39807L340.818 9.3761L342.552 9.3761L342.552 4.64612L341.346 4.64612L341.421 8.49316ZM318.464 4.64612L317.568 9.43311L318.876 9.43311L319.552 5.00708L320.214 9.43311L321.523 9.43311L320.626 4.64612L318.464 4.64612ZM325.818 4.64612L325.199 8.39209L324.581 4.64612L322.611 4.64612L322.508 9.43311L323.728 9.43311L323.758 5.00708L324.596 9.43311L325.832 9.43311L326.671 5.00708L326.7 9.43311L327.921 9.43311L327.818 4.64612L325.818 4.64612ZM337.111 4.64612L335.876 4.64612L335.876 8.18909C335.876 8.24707 335.876 8.31909 335.861 8.37817C335.838 8.48267 335.777 8.57507 335.691 8.63879C335.605 8.70239 335.498 8.73303 335.391 8.7251C335.052 8.7251 334.949 8.49316 334.921 8.37817C334.905 8.32007 334.905 8.26208 334.905 8.19006L334.905 4.64514L333.671 4.64514L333.671 8.07312C333.671 8.16016 333.671 8.34814 333.685 8.39111C333.773 9.28809 334.479 9.57715 335.375 9.57715C336.273 9.57715 336.994 9.28711 337.068 8.39111C337.068 8.34814 337.081 8.16016 337.081 8.07312L337.081 4.64612L337.111 4.64612ZM345.568 6.74316L345.568 7.43713L346.068 7.43713L346.068 8.13208C346.068 8.19006 346.068 8.26208 346.052 8.32007C346.037 8.45007 345.905 8.66711 345.552 8.66711C345.199 8.66711 345.082 8.45007 345.052 8.32007C345.037 8.26208 345.037 8.2041 345.037 8.13208L345.037 5.94714C345.037 5.87512 345.037 5.78809 345.052 5.71606C345.082 5.6001 345.185 5.36914 345.537 5.36914C345.905 5.36914 346.008 5.61511 346.023 5.71606C346.037 5.78809 346.037 5.90417 346.037 5.90417L346.037 6.16406L347.258 6.16406L347.258 6.00513C347.258 6.00513 347.258 5.84607 347.244 5.68713C347.155 4.79114 346.405 4.5011 345.538 4.5011C344.672 4.5011 343.935 4.79114 343.832 5.68713C343.816 5.79236 343.806 5.89856 343.803 6.00513L343.803 8.01514C343.803 8.10315 343.803 8.17517 343.818 8.33508C343.891 9.20215 344.672 9.52014 345.525 9.52014C346.391 9.52014 347.156 9.21606 347.23 8.33411C347.245 8.17517 347.245 8.10315 347.245 8.01611L347.245 6.74316L345.568 6.74316L345.568 6.74316Z" fill="#B2B2B2" fill-opacity="1.000000" fill-rule="nonzero"/>
	<path id="Vector" d="M373.686 20.7352L373.64 21.5183C373.626 21.7502 373.609 21.9823 373.589 22.2133C373.56 22.5382 373.528 23.3203 373.105 23.3203L373.089 23.3203C373.051 23.3203 373.004 23.3523 373.004 23.4043L373.004 23.9062C373.004 23.9613 373.039 23.9993 373.089 23.9993L373.127 23.9993C373.445 23.9983 373.724 23.9642 373.964 23.6012C374.04 23.4873 374.106 23.3593 374.153 23.2142C374.205 23.0554 374.243 22.8925 374.266 22.7273C374.293 22.5472 374.317 22.3502 374.334 22.1343C374.351 21.9182 374.369 21.6842 374.385 21.4303L374.405 21.0703L375.411 21.0703L375.411 23.9122C375.411 23.9602 375.453 24.0043 375.504 23.9993L376.099 23.9993C376.162 23.9993 376.193 23.9563 376.193 23.9072L376.193 20.6453C376.193 20.6106 376.185 20.5764 376.171 20.5448C376.156 20.5132 376.136 20.4846 376.111 20.4609C376.085 20.4373 376.056 20.4187 376.023 20.4066C375.991 20.3945 375.956 20.3889 375.922 20.3903L373.946 20.3903C373.794 20.3903 373.704 20.5232 373.697 20.6333C373.695 20.6653 373.687 20.6982 373.686 20.7352ZM367.512 24.0002L368.864 24.0002C369.532 24.0243 370.078 23.5603 370.1 22.8683C370.1 22.8082 370.104 22.7383 370.089 22.6603C369.97 22.0942 369.522 21.7042 368.953 21.7042L368.041 21.7042L368.041 21.0613L369.595 21.0613C369.655 21.0623 369.69 21.0212 369.688 20.9633L369.688 20.5052C369.689 20.4423 369.666 20.3903 369.595 20.3922L367.531 20.3922C367.321 20.3922 367.258 20.5463 367.258 20.6462L367.258 23.7462C367.258 23.8862 367.369 24.0002 367.512 24.0002ZM383.948 23.8922L383.948 22.6853L384.803 22.6853C384.995 22.6846 385.183 22.6359 385.35 22.5437C385.518 22.4515 385.66 22.3187 385.763 22.1576C385.866 21.9965 385.927 21.812 385.94 21.6212C385.954 21.4303 385.919 21.2393 385.839 21.0653C385.774 20.9164 385.677 20.7836 385.555 20.6759C385.432 20.5684 385.288 20.4886 385.132 20.4423C385.004 20.4069 384.87 20.39 384.736 20.3922L383.431 20.3922C383.397 20.3909 383.363 20.3962 383.332 20.4081C383.301 20.4198 383.272 20.4377 383.247 20.4607C383.223 20.4836 383.203 20.5114 383.19 20.542C383.176 20.5726 383.169 20.6057 383.168 20.6393C383.168 20.6593 383.165 20.6823 383.165 20.7063L383.165 23.9132C383.165 23.925 383.167 23.9368 383.172 23.9478C383.176 23.9586 383.183 23.9686 383.191 23.9768C383.2 23.9851 383.21 23.9916 383.221 23.9957C383.232 23.9999 383.244 24.0018 383.255 24.0012L383.861 24.0012C383.877 24.0012 383.893 23.9968 383.906 23.9885C383.92 23.9802 383.931 23.9684 383.938 23.9542C383.946 23.9346 383.95 23.9135 383.948 23.8922ZM385.122 21.5393C385.123 21.6014 385.111 21.663 385.087 21.7205C385.063 21.7778 385.028 21.8301 384.984 21.8739C384.94 21.9178 384.888 21.9526 384.831 21.9762C384.773 21.9998 384.712 22.0116 384.65 22.0112L383.949 22.0112L383.949 21.0663L384.617 21.0663C384.921 21.0563 385.122 21.2863 385.122 21.5393ZM381.915 23.2493L382.116 23.9182C382.133 23.9792 382.166 24.0002 382.205 24.0002L382.856 24.0002C382.917 24.0002 382.956 23.9502 382.943 23.8883L381.874 20.6742C381.824 20.5172 381.749 20.3922 381.567 20.3922L381.104 20.3922C381.059 20.3881 381.014 20.396 380.972 20.4152C380.931 20.4342 380.895 20.464 380.87 20.5012C380.832 20.5536 380.805 20.6122 380.788 20.6742L379.721 23.8843C379.697 23.9563 379.757 24.0002 379.806 24.0002L380.432 24.0002C380.452 24.0002 380.495 24.0033 380.521 23.9473C380.528 23.9327 380.533 23.9176 380.536 23.9022L380.736 23.2493L381.916 23.2493L381.915 23.2493ZM380.922 22.6102L381.117 21.9583L381.313 21.2242L381.343 21.2242L381.534 21.9583L381.73 22.6102L380.922 22.6102ZM378.755 22.0802L378.755 22.0553C378.865 21.9889 378.959 21.8995 379.031 21.7932C379.109 21.678 379.164 21.5491 379.193 21.4132L379.431 20.4933C379.432 20.4807 379.432 20.4678 379.428 20.4556C379.425 20.4432 379.419 20.4319 379.411 20.4222C379.402 20.4127 379.392 20.405 379.38 20.3999C379.369 20.3947 379.356 20.3921 379.343 20.3922L378.781 20.3922C378.761 20.3917 378.741 20.395 378.721 20.4022C378.702 20.4103 378.686 20.4323 378.678 20.4642L378.446 21.3302C378.426 21.4204 378.389 21.5059 378.336 21.5823C378.297 21.6393 378.245 21.6868 378.185 21.7213C378.133 21.7502 378.076 21.7701 378.017 21.7803C377.964 21.7888 377.909 21.7928 377.854 21.7922L377.447 21.7922L377.447 20.4783C377.448 20.4669 377.445 20.4557 377.441 20.4452C377.437 20.4347 377.431 20.4252 377.422 20.4172C377.415 20.4093 377.405 20.403 377.395 20.3987C377.385 20.3944 377.374 20.3922 377.362 20.3922L376.758 20.3922C376.706 20.3922 376.665 20.4292 376.665 20.4742L376.665 23.9182C376.665 23.9663 376.71 24.0002 376.758 24.0002L377.355 24.0002C377.404 24.0002 377.447 23.9673 377.447 23.9182L377.447 22.3893L377.864 22.3893C377.984 22.3872 378.084 22.3993 378.167 22.4232C378.247 22.4447 378.319 22.4893 378.373 22.5513C378.427 22.6143 378.474 22.7042 378.508 22.8213L378.825 23.9392C378.842 23.9843 378.874 24.0002 378.907 24.0002L379.505 24.0002C379.58 24.0043 379.602 23.9313 379.594 23.8972L379.275 22.7032C379.256 22.6322 379.235 22.562 379.209 22.4933C379.187 22.4329 379.157 22.3756 379.12 22.3232C379.08 22.2697 379.032 22.2233 378.976 22.1863C378.908 22.1415 378.833 22.1058 378.755 22.0802ZM372.832 23.8822L372.832 23.4082C372.832 23.3733 372.806 23.3213 372.745 23.3213L371.346 23.3213C371.311 23.3209 371.276 23.3135 371.245 23.2992C371.212 23.2849 371.183 23.2642 371.16 23.2383C371.136 23.2124 371.118 23.182 371.106 23.1487C371.094 23.1155 371.09 23.0803 371.092 23.0453L371.092 22.3583L372.578 22.3583C372.601 22.3588 372.623 22.3502 372.64 22.3346C372.657 22.3188 372.667 22.2971 372.667 22.2743L372.667 21.7913C372.667 21.7412 372.632 21.7042 372.569 21.7042L371.092 21.7042L371.092 21.3192C371.092 21.1562 371.228 21.0663 371.346 21.0663L372.74 21.0663C372.758 21.0673 372.776 21.0627 372.791 21.0532C372.807 21.0437 372.818 21.0298 372.825 21.0133C372.83 21.0026 372.832 20.991 372.832 20.9792L372.832 20.4792C372.832 20.4292 372.796 20.3922 372.734 20.3922L371.282 20.3853C371.027 20.3857 370.782 20.4867 370.599 20.6663C370.418 20.8457 370.313 21.0896 370.309 21.3452L370.309 23.0532C370.313 23.3044 370.414 23.5442 370.593 23.7212C370.771 23.8983 371.011 23.9984 371.262 24.0002L372.744 24.0002C372.755 24.0006 372.767 23.9987 372.777 23.9945C372.788 23.9904 372.798 23.9839 372.807 23.9758C372.815 23.9677 372.821 23.9579 372.826 23.9471C372.83 23.9364 372.833 23.9249 372.832 23.9132L372.832 23.8822ZM387.787 21.0663L387.787 23.9182C387.787 23.9673 387.745 24.0002 387.695 24.0002L387.099 24.0002C387.05 24.0002 387.005 23.9663 387.005 23.9182L387.005 21.0663L386.068 21.0663C386.02 21.0663 385.986 21.0212 385.986 20.9733L385.986 20.4843C385.986 20.4353 386.019 20.3922 386.068 20.3922L388.74 20.3922C388.789 20.3922 388.822 20.4353 388.822 20.4843L388.822 20.9742C388.822 21.0212 388.787 21.0663 388.74 21.0663L387.787 21.0663ZM369.287 22.8263C369.296 23.1112 369.071 23.3163 368.787 23.3163L368.041 23.3163L368.041 22.3583L368.792 22.3583C369.058 22.3583 369.278 22.5422 369.287 22.8273L369.287 22.8263Z" fill="#B2B2B2" fill-opacity="1.000000" fill-rule="nonzero"/>
	<path id="Vector" d="M380.904 15.1803L379.712 17.3124L379.712 16.3723L380.904 15.1803ZM383.271 6.80237L380.555 9.51831C380.517 9.5564 380.496 9.60779 380.496 9.66138C380.496 9.71484 380.517 9.76636 380.555 9.80432L381.887 11.1364L383.755 11.3334L379.914 11.3334C379.861 11.3334 379.809 11.3546 379.771 11.3925C379.733 11.4303 379.712 11.4817 379.712 11.5353L379.712 13.3384L380.922 14.8783L378.205 12.1614C378.168 12.1239 378.116 12.1029 378.063 12.1029C378.01 12.1029 377.959 12.1239 377.921 12.1614L376.625 13.4573L376.385 15.3823L376.385 11.5424C376.385 11.4885 376.363 11.4369 376.325 11.3988C376.287 11.3607 376.235 11.3394 376.182 11.3394L374.242 11.3394L372.812 12.5073L375.526 9.79138C375.564 9.7533 375.585 9.7019 375.585 9.64832C375.585 9.59473 375.564 9.54333 375.526 9.50537L374.167 8.14539L372.325 7.97034L376.164 7.97034C376.191 7.97046 376.217 7.96533 376.242 7.9552C376.267 7.94519 376.289 7.9303 376.308 7.9115C376.327 7.8927 376.342 7.87048 376.352 7.84583C376.362 7.82129 376.368 7.79492 376.368 7.76831L376.368 5.93433L375.169 4.4303L377.885 7.14636C377.922 7.18408 377.974 7.2052 378.027 7.2052C378.081 7.2052 378.132 7.18408 378.171 7.14636L379.505 5.8103L379.703 3.92737L379.703 7.76733C379.703 7.87927 379.794 7.97034 379.904 7.97034L381.818 7.97034L383.27 6.80237L383.271 6.80237ZM383.956 13.2053L383.956 11.5353L384.64 13.8893L383.956 13.2053ZM387.641 10.8873L384.724 7.97034L383.557 6.80237L385.683 7.97034C385.737 7.97009 385.788 7.94873 385.826 7.91089C385.864 7.87305 385.885 7.82178 385.886 7.76831L385.886 3.92834C385.886 3.90161 385.88 3.87512 385.87 3.85046C385.86 3.82581 385.845 3.80334 385.826 3.78455C385.807 3.76562 385.785 3.75061 385.76 3.74048C385.736 3.73035 385.709 3.72522 385.682 3.72534L381.593 3.72534L382.256 3.06128L381.593 3.72534L379.906 3.72534L382.256 3.06128C382.275 3.0426 382.29 3.02026 382.3 2.99573C382.311 2.97119 382.316 2.94495 382.316 2.91833C382.316 2.89172 382.311 2.86548 382.3 2.84094C382.29 2.81641 382.275 2.79407 382.256 2.77527L379.541 0.0593262C379.522 0.0405273 379.499 0.0256348 379.475 0.0153809C379.45 0.00524902 379.424 0 379.398 0C379.371 0 379.345 0.00524902 379.32 0.0153809C379.296 0.0256348 379.273 0.0405273 379.255 0.0593262L376.369 2.94739L375.133 4.19629L375.133 4.19739L375.135 4.19434L375.141 4.18237L376.369 1.99036C376.369 1.93677 376.347 1.88538 376.309 1.84753C376.271 1.80957 376.22 1.78833 376.167 1.78833L372.326 1.78833C372.272 1.78857 372.221 1.80994 372.183 1.84778C372.145 1.88562 372.124 1.93689 372.123 1.99036L372.123 7.76733L371.443 5.41931C371.405 5.38123 371.354 5.35986 371.3 5.35986C371.246 5.35986 371.195 5.38123 371.157 5.41931L368.442 8.13538C368.423 8.15405 368.408 8.17639 368.398 8.20093C368.387 8.22546 368.382 8.25171 368.382 8.27832C368.382 8.30493 368.387 8.33118 368.398 8.35571C368.408 8.38025 368.423 8.40259 368.442 8.42139L372.526 12.5063L370.406 11.3384C370.352 11.3386 370.301 11.36 370.263 11.3978C370.225 11.4357 370.204 11.4868 370.203 11.5403L370.203 15.3804C370.203 15.4923 370.294 15.5834 370.406 15.5834L376.182 15.5834L373.837 16.2454C373.799 16.2833 373.778 16.3347 373.778 16.3883C373.778 16.4419 373.799 16.4933 373.837 16.5314L376.553 19.2473C376.59 19.285 376.642 19.3062 376.695 19.3062C376.748 19.3062 376.8 19.285 376.838 19.2473L379.713 16.3723L379.713 17.3113C379.713 17.4214 379.804 17.5133 379.914 17.5133L383.755 17.5133C383.809 17.5131 383.86 17.4917 383.898 17.4539C383.936 17.416 383.957 17.3649 383.958 17.3113L383.958 13.2043L384.641 13.8883C384.679 13.926 384.73 13.9473 384.784 13.9473C384.837 13.9473 384.889 13.926 384.927 13.8883L387.642 11.1724C387.68 11.1343 387.702 11.0829 387.702 11.0293C387.702 10.9757 387.68 10.9243 387.642 10.8864L387.641 10.8873Z" fill="#B2B2B2" fill-opacity="1.000000" fill-rule="evenodd"/>
	<path id="Vector" d="M415.573 7.90125L409.669 7.90125C409.558 7.901 409.448 7.92261 409.346 7.96497C409.243 8.0072 409.15 8.06934 409.071 8.14771C408.992 8.22607 408.93 8.31921 408.887 8.42175C408.845 8.52429 408.823 8.63428 408.822 8.74524L408.822 14.6262C408.822 15.0923 409.202 15.4702 409.669 15.4702L415.573 15.4702C415.684 15.4706 415.795 15.4489 415.897 15.4066C416 15.3644 416.093 15.3022 416.172 15.2239C416.251 15.1455 416.313 15.0524 416.356 14.9498C416.398 14.8473 416.42 14.7373 416.42 14.6262L416.42 8.74524C416.42 8.63416 416.399 8.52405 416.356 8.42139C416.313 8.31885 416.251 8.22559 416.172 8.14709C416.094 8.0686 416 8.00635 415.897 7.96399C415.795 7.92163 415.684 7.90002 415.573 7.90027L415.573 7.90125Z" fill="#B2B2B2" fill-opacity="1.000000" fill-rule="nonzero"/>
	<path id="Vector" d="M413.967 13.5284L413.061 13.5284C413.049 13.5282 413.037 13.5232 413.028 13.5144C413.02 13.5056 413.015 13.4938 413.014 13.4814L413.014 13.2574L412.332 13.9374C412.323 13.9462 412.311 13.951 412.299 13.951C412.286 13.951 412.274 13.9462 412.266 13.9374L411.625 13.3014C411.617 13.2925 411.612 13.2804 411.612 13.2679C411.612 13.2554 411.617 13.2434 411.625 13.2344L411.783 13.0764L410.819 13.0764C410.807 13.0763 410.795 13.0713 410.786 13.0624C410.777 13.0536 410.772 13.0419 410.771 13.0294L410.771 12.1244C410.771 12.1182 410.773 12.1119 410.775 12.1062C410.777 12.1005 410.781 12.0952 410.786 12.0908C410.79 12.0864 410.795 12.083 410.801 12.0807C410.807 12.0784 410.813 12.0773 410.819 12.0774L411.043 12.0774L410.361 11.3975C410.353 11.3884 410.348 11.3765 410.348 11.3639C410.348 11.3514 410.353 11.3394 410.361 11.3304L411.001 10.6924C411.006 10.688 411.011 10.6844 411.017 10.682C411.023 10.6796 411.029 10.6783 411.036 10.6783C411.042 10.6783 411.048 10.6796 411.054 10.682C411.06 10.6844 411.065 10.688 411.069 10.6924L411.227 10.8505L411.227 9.89038C411.227 9.88086 411.23 9.87158 411.235 9.86377C411.241 9.85596 411.249 9.84985 411.257 9.84644C411.263 9.84424 411.269 9.84326 411.276 9.84338L412.182 9.84338C412.188 9.84338 412.194 9.8446 412.199 9.84705C412.205 9.84937 412.21 9.85278 412.215 9.85718C412.219 9.86157 412.223 9.8667 412.225 9.87244C412.227 9.87817 412.228 9.88428 412.228 9.89038L412.228 10.1134L412.911 9.43347C412.919 9.42468 412.931 9.4198 412.944 9.4198C412.956 9.4198 412.968 9.42468 412.977 9.43347L413.618 10.0734C413.627 10.0824 413.631 10.0941 413.631 10.1064C413.631 10.1187 413.627 10.1305 413.618 10.1394L413.459 10.2974L414.424 10.2974C414.437 10.2977 414.449 10.3027 414.457 10.3115C414.466 10.3202 414.471 10.332 414.471 10.3445L414.471 11.2474C414.471 11.2598 414.466 11.2716 414.457 11.2804C414.449 11.2892 414.437 11.2942 414.424 11.2944L414.199 11.2944L414.881 11.9744C414.89 11.9834 414.895 11.9951 414.895 12.0074C414.895 12.0197 414.89 12.0315 414.881 12.0404L414.241 12.6785C414.237 12.6829 414.232 12.6865 414.226 12.6888C414.22 12.6913 414.214 12.6925 414.207 12.6924C414.201 12.6924 414.195 12.6912 414.189 12.6888C414.183 12.6864 414.178 12.6829 414.173 12.6785L414.016 12.5204L414.016 13.4814C414.015 13.494 414.01 13.506 414.001 13.5148C413.992 13.5236 413.98 13.5284 413.967 13.5284ZM413.85 11.0134L413.496 11.2944L413.062 11.2944C413.05 11.2942 413.038 11.2892 413.029 11.2804C413.021 11.2716 413.016 11.2598 413.016 11.2474L413.016 10.3445L412.964 10.7925L412.656 11.0984C412.647 11.1072 412.635 11.1122 412.622 11.1122C412.61 11.1122 412.598 11.1072 412.589 11.0984L412.229 10.7424L411.949 10.4614L412.229 10.8145L412.229 11.2484C412.229 11.2609 412.224 11.2726 412.215 11.2814C412.207 11.2902 412.195 11.2952 412.182 11.2954L411.276 11.2954L411.726 11.3464L412.033 11.6525C412.038 11.6567 412.042 11.6619 412.044 11.6677C412.047 11.6735 412.048 11.6797 412.048 11.6859C412.048 11.6921 412.047 11.6984 412.044 11.7042C412.042 11.71 412.038 11.7151 412.033 11.7195L411.393 12.3574L411.747 12.0774L412.182 12.0774C412.189 12.0774 412.195 12.0786 412.201 12.0811C412.206 12.0835 412.212 12.087 412.216 12.0916C412.22 12.0961 412.224 12.1013 412.226 12.1072C412.228 12.1129 412.23 12.1191 412.229 12.1254L412.229 13.0275L412.281 12.5804L412.589 12.2725C412.598 12.2638 412.61 12.259 412.622 12.259C412.635 12.259 412.647 12.2638 412.656 12.2725L413.297 12.9114L413.016 12.5585L413.016 12.1254C413.016 12.1129 413.02 12.101 413.029 12.0922C413.038 12.0834 413.05 12.0784 413.062 12.0784L413.968 12.0784L413.518 12.0264L413.211 11.7195C413.207 11.7151 413.203 11.71 413.201 11.7043C413.199 11.6987 413.197 11.6926 413.197 11.6864C413.197 11.6801 413.199 11.6738 413.201 11.668C413.203 11.6621 413.207 11.6569 413.211 11.6525L413.571 11.2954L413.851 11.0134L413.85 11.0134Z" fill="#FFFFFF" fill-opacity="1.000000" fill-rule="evenodd"/>
	<path id="Vector" d="M420.477 10.9323C420.487 11.2843 420.209 11.5393 419.855 11.5393L418.925 11.5393L418.925 10.3492L419.861 10.3492C419.94 10.3464 420.019 10.3594 420.093 10.3873C420.167 10.4152 420.234 10.4575 420.292 10.5117C420.349 10.566 420.395 10.6311 420.427 10.7034C420.459 10.7755 420.476 10.8534 420.477 10.9323ZM443.532 8.74622L443.532 12.2863C443.532 12.3082 443.526 12.3296 443.513 12.3474C443.5 12.3654 443.482 12.3789 443.462 12.3862C443.448 12.3915 443.433 12.3939 443.419 12.3933L442.672 12.3933C442.644 12.3947 442.615 12.3848 442.594 12.3657C442.572 12.3467 442.559 12.3199 442.557 12.2913L442.557 8.74622L441.39 8.74622C441.361 8.74402 441.334 8.73071 441.315 8.70923C441.296 8.68787 441.286 8.65991 441.287 8.63123L441.287 8.02429C441.286 8.00977 441.288 7.99536 441.293 7.98157C441.298 7.9679 441.305 7.9552 441.315 7.94421C441.324 7.93359 441.336 7.92493 441.348 7.9187C441.361 7.9126 441.375 7.90906 441.39 7.90833L444.719 7.90833C444.748 7.91003 444.776 7.92334 444.795 7.94507C444.814 7.9668 444.824 7.99524 444.822 8.02429L444.822 8.63123C444.824 8.66016 444.814 8.68835 444.795 8.70984C444.775 8.73145 444.748 8.74451 444.719 8.74622L443.532 8.74622ZM424.895 12.2423L424.895 11.6503C424.895 11.6216 424.884 11.5941 424.864 11.5739C424.844 11.5536 424.816 11.5422 424.787 11.5422L423.047 11.5422C423.004 11.542 422.96 11.5327 422.92 11.515C422.88 11.4973 422.844 11.4716 422.815 11.4395C422.785 11.4073 422.762 11.3694 422.748 11.3281C422.733 11.2867 422.727 11.2429 422.73 11.1992L422.73 10.3502L424.582 10.3502C424.61 10.3495 424.636 10.3384 424.656 10.3191C424.676 10.2998 424.687 10.2738 424.688 10.2462L424.688 9.64832C424.689 9.62488 424.682 9.60193 424.668 9.58301C424.654 9.56396 424.635 9.55005 424.612 9.54321C424.598 9.5387 424.582 9.53735 424.567 9.53931L422.727 9.53931L422.727 9.06226C422.727 9.02063 422.735 8.97937 422.751 8.94092C422.767 8.90247 422.79 8.86755 422.82 8.83826C422.849 8.80884 422.884 8.78577 422.923 8.77014C422.962 8.75452 423.003 8.7467 423.045 8.74731L424.785 8.74731C424.799 8.74805 424.814 8.74585 424.828 8.74072C424.842 8.7356 424.854 8.72766 424.865 8.71753C424.876 8.70728 424.884 8.69495 424.89 8.6814C424.896 8.66772 424.899 8.65308 424.899 8.63831L424.899 8.01831C424.899 8.00281 424.895 7.98743 424.889 7.97314C424.883 7.95898 424.874 7.94629 424.862 7.93591C424.851 7.92554 424.837 7.91772 424.822 7.91296C424.807 7.9082 424.792 7.90662 424.776 7.90833L422.966 7.90027C422.649 7.90125 422.344 8.02612 422.118 8.24841C421.891 8.4707 421.76 8.77283 421.753 9.09021L421.753 11.2123C421.755 11.5256 421.881 11.8254 422.103 12.0465C422.325 12.2676 422.625 12.3922 422.938 12.3933L424.786 12.3933C424.8 12.3937 424.814 12.3911 424.828 12.3859C424.841 12.3806 424.853 12.3728 424.863 12.3627C424.874 12.3525 424.882 12.3406 424.887 12.3273C424.893 12.314 424.896 12.2997 424.895 12.2853L424.895 12.2423ZM432.276 10.0052L432.276 9.97327C432.413 9.89124 432.531 9.78027 432.621 9.64832C432.717 9.50525 432.786 9.34521 432.821 9.17627L433.118 8.03625C433.122 8.01257 433.119 7.98804 433.108 7.96655C433.097 7.94507 433.078 7.9281 433.057 7.91821C433.042 7.91162 433.026 7.9082 433.01 7.90833L432.313 7.90833C432.288 7.90747 432.263 7.91223 432.239 7.92224C432.225 7.92957 432.212 7.94031 432.203 7.95361C432.193 7.9668 432.187 7.98218 432.184 7.99829L431.896 9.07227C431.87 9.18384 431.824 9.28955 431.759 9.38428C431.71 9.45508 431.645 9.51379 431.569 9.55627C431.504 9.59265 431.433 9.61768 431.359 9.63025C431.294 9.64026 431.226 9.64526 431.16 9.64526L430.647 9.64526L430.647 8.01721C430.648 7.99622 430.641 7.97559 430.63 7.95813C430.618 7.94067 430.601 7.92712 430.581 7.91931C430.568 7.91431 430.555 7.91187 430.54 7.91223L429.787 7.91223C429.759 7.91064 429.731 7.92029 429.709 7.93909C429.687 7.95801 429.674 7.98462 429.672 8.01331L429.672 12.2893C429.674 12.318 429.687 12.3447 429.709 12.3638C429.73 12.3828 429.759 12.3927 429.787 12.3912L430.534 12.3912C430.555 12.3931 430.577 12.3882 430.595 12.3776C430.614 12.3668 430.629 12.3507 430.639 12.3313C430.645 12.3181 430.648 12.3038 430.649 12.2893L430.649 10.3903L431.169 10.3903C431.296 10.3853 431.423 10.4003 431.547 10.4313C431.646 10.4583 431.734 10.5143 431.802 10.5913C431.88 10.6906 431.937 10.8049 431.968 10.9272L432.362 12.3142C432.369 12.3367 432.382 12.3562 432.401 12.3701C432.42 12.384 432.442 12.3915 432.465 12.3912L433.212 12.3912C433.236 12.3926 433.261 12.3854 433.281 12.3707C433.301 12.3562 433.315 12.3352 433.321 12.3113C433.326 12.2957 433.327 12.2792 433.323 12.2633L432.925 10.7762C432.902 10.6882 432.875 10.6014 432.842 10.5162C432.815 10.4404 432.777 10.3688 432.729 10.3032C432.68 10.2371 432.62 10.1798 432.551 10.1343C432.465 10.0793 432.373 10.0356 432.276 10.0043L432.276 10.0052ZM434.976 10.6653L435.22 9.85522L435.464 8.94824L435.503 8.94824L435.74 9.85632L435.984 10.6663L434.976 10.6663L434.976 10.6653ZM436.214 11.4583L436.464 12.2893C436.484 12.3652 436.526 12.3912 436.574 12.3912L437.386 12.3912C437.404 12.3917 437.421 12.3881 437.436 12.3806C437.452 12.3732 437.465 12.3622 437.475 12.3485C437.486 12.3348 437.493 12.3188 437.496 12.302C437.499 12.285 437.497 12.2677 437.493 12.2512L436.162 8.26123C436.099 8.06824 436.006 7.91125 435.778 7.91125L435.203 7.91125C435.147 7.90576 435.091 7.91516 435.039 7.9386C434.988 7.96191 434.943 7.99829 434.911 8.04431C434.864 8.10962 434.829 8.18274 434.808 8.26025L433.483 12.2452C433.476 12.2618 433.475 12.2795 433.477 12.297C433.48 12.3145 433.486 12.3309 433.496 12.3452C433.507 12.3595 433.52 12.371 433.536 12.3788C433.552 12.3866 433.569 12.3905 433.587 12.3903L434.367 12.3903C434.39 12.3931 434.413 12.3881 434.433 12.3761C434.453 12.3641 434.469 12.3459 434.477 12.3242C434.485 12.3062 434.492 12.2875 434.497 12.2683L434.746 11.4573L436.214 11.4583ZM440.212 9.33533C440.212 9.45166 440.178 9.56555 440.113 9.66211C440.048 9.75879 439.955 9.83362 439.848 9.87732C439.776 9.90686 439.7 9.92212 439.622 9.92224L438.747 9.92224L438.747 8.75024L439.582 8.75024C439.663 8.74536 439.743 8.75684 439.819 8.78406C439.894 8.81116 439.964 8.85352 440.023 8.90833C440.082 8.96313 440.129 9.0293 440.161 9.10291C440.193 9.17651 440.211 9.25586 440.212 9.3363L440.212 9.33533ZM438.747 12.2573L438.747 10.7573L439.815 10.7573C440.003 10.7557 440.19 10.717 440.363 10.6432C440.537 10.5695 440.694 10.462 440.827 10.3273C441.026 10.1223 441.16 9.86194 441.209 9.58008C441.258 9.29822 441.222 9.00793 441.103 8.74731C441.022 8.56177 440.901 8.39636 440.749 8.26245C440.597 8.12866 440.418 8.02954 440.224 7.97229C440.063 7.92786 439.896 7.90637 439.729 7.90833L438.102 7.90833C438.061 7.90686 438.019 7.91357 437.98 7.92822C437.941 7.94299 437.906 7.96521 437.875 7.99377C437.845 8.02234 437.821 8.05652 437.804 8.0946C437.787 8.13257 437.777 8.17358 437.776 8.21521C437.776 8.24231 437.772 8.26929 437.776 8.29822L437.776 12.2803C437.776 12.3019 437.783 12.323 437.795 12.3409C437.807 12.3588 437.824 12.3726 437.844 12.3802C437.858 12.3857 437.872 12.3884 437.886 12.3883L438.644 12.3883C438.664 12.3878 438.683 12.3822 438.699 12.3721C438.716 12.3618 438.729 12.3474 438.738 12.3303C438.748 12.3063 438.753 12.2802 438.75 12.2543L438.747 12.2573ZM418.267 12.3933L419.952 12.3933C420.78 12.4222 421.464 11.8463 421.492 10.9893C421.495 10.9033 421.492 10.8173 421.476 10.7323C421.328 10.0283 420.77 9.54529 420.059 9.54529L418.925 9.54529L418.925 8.74622L420.862 8.74622C420.878 8.74719 420.894 8.74475 420.909 8.73889C420.924 8.73303 420.937 8.72412 420.948 8.71265C420.959 8.70105 420.968 8.68726 420.973 8.67224C420.978 8.6571 420.98 8.64111 420.978 8.62524L420.978 8.05627C420.978 7.97327 420.951 7.91321 420.862 7.91528L418.293 7.91528C418.25 7.91162 418.206 7.91711 418.165 7.9314C418.123 7.94568 418.086 7.96851 418.054 7.99817C418.022 8.02795 417.996 8.06396 417.979 8.10413C417.962 8.14429 417.953 8.18762 417.953 8.23132L417.953 12.0813C417.953 12.1438 417.971 12.2051 418.006 12.257C418.041 12.3088 418.09 12.3491 418.149 12.3723C418.187 12.3882 418.229 12.3964 418.27 12.3962L418.267 12.3933ZM425.959 8.34131L425.901 9.31323C425.882 9.64331 425.861 9.9303 425.839 10.1753C425.803 10.5792 425.763 11.5493 425.236 11.5493L425.215 11.5493C425.187 11.5498 425.161 11.5609 425.141 11.5803C425.12 11.5999 425.109 11.6263 425.108 11.6543L425.108 12.2772C425.106 12.2998 425.111 12.3221 425.123 12.3413C425.135 12.3606 425.153 12.3756 425.173 12.3843C425.187 12.3903 425.202 12.3933 425.217 12.3933L425.264 12.3933C425.66 12.3933 426.009 12.3492 426.307 11.8983C426.407 11.7483 426.486 11.5883 426.542 11.4182C426.607 11.2202 426.652 11.0183 426.682 10.8123C426.72 10.5681 426.748 10.3226 426.766 10.0763C426.787 9.80933 426.809 9.51831 426.83 9.20325L426.855 8.75525L428.108 8.75525L428.108 12.2843C428.107 12.3065 428.114 12.3282 428.127 12.3466C428.14 12.3647 428.158 12.3787 428.178 12.3862C428.193 12.3912 428.208 12.3932 428.223 12.3922L428.968 12.3922C428.992 12.3937 429.015 12.3876 429.034 12.375C429.054 12.3624 429.069 12.344 429.078 12.3223C429.083 12.308 429.085 12.2926 429.084 12.2772L429.084 8.23022C429.083 8.16528 429.062 8.10229 429.024 8.04944C428.986 7.99658 428.933 7.95642 428.872 7.93433C428.832 7.91931 428.789 7.91248 428.745 7.91431L426.282 7.91431C426.203 7.91687 426.127 7.94934 426.069 8.00525C426.012 8.06116 425.978 8.13647 425.974 8.21631C425.97 8.24829 425.962 8.29028 425.958 8.3363L425.958 8.34021L425.959 8.34131ZM419.371 13.9113L419.08 14.4012L418.527 15.2932C418.511 15.3184 418.494 15.3428 418.475 15.3662C418.461 15.3834 418.444 15.3983 418.425 15.4103C418.407 15.4213 418.387 15.4283 418.365 15.4313C418.338 15.4348 418.31 15.4365 418.282 15.4363L418.152 15.4363C418.121 15.4404 418.09 15.4371 418.06 15.4268C418.031 15.4163 418.004 15.399 417.983 15.3762C417.952 15.327 417.936 15.2694 417.94 15.2113L417.94 13.2192C417.94 13.1772 417.963 13.1572 418.008 13.1572L418.359 13.1572C418.389 13.1572 418.409 13.1613 418.415 13.1703C418.425 13.1843 418.428 13.2023 418.427 13.2192L418.427 14.6803L418.446 14.6803L418.724 14.2242L419.289 13.3003C419.309 13.2703 419.328 13.2443 419.342 13.2252C419.355 13.2073 419.371 13.192 419.39 13.1805C419.408 13.1689 419.429 13.1614 419.451 13.1583C419.478 13.1547 419.505 13.153 419.532 13.1533L419.666 13.1533C419.696 13.15 419.726 13.1528 419.755 13.1614C419.783 13.17 419.809 13.1842 419.832 13.2032C419.87 13.2552 419.888 13.3192 419.882 13.3833L419.882 15.3783C419.882 15.4193 419.859 15.4403 419.812 15.4403L419.458 15.4403C419.438 15.4421 419.418 15.4373 419.401 15.4263C419.39 15.4125 419.385 15.3954 419.386 15.3783L419.386 13.9103L419.371 13.9103L419.371 13.9113ZM420.808 15.3712C420.808 15.3993 420.805 15.4172 420.795 15.4253C420.776 15.4346 420.755 15.4384 420.734 15.4363L420.406 15.4363C420.359 15.4363 420.334 15.4143 420.334 15.3712L420.334 13.7882C420.334 13.7462 420.359 13.7263 420.406 13.7263L420.734 13.7263C420.755 13.7242 420.776 13.728 420.795 13.7373C420.805 13.7452 420.808 13.7623 420.808 13.7872L420.808 14.3452L421.421 14.3452L421.421 13.7882C421.421 13.7462 421.444 13.7263 421.494 13.7263L421.826 13.7263C421.846 13.7233 421.866 13.7272 421.883 13.7373C421.895 13.7515 421.9 13.7694 421.897 13.7872L421.897 15.3712C421.897 15.3993 421.897 15.4172 421.883 15.4253C421.865 15.4349 421.845 15.4388 421.824 15.4363L421.494 15.4363C421.444 15.4363 421.421 15.4143 421.421 15.3712L421.421 14.7163L420.808 14.7163L420.808 15.3712ZM423.141 14.1113L423.141 15.3712C423.141 15.3993 423.135 15.4172 423.125 15.4253C423.107 15.4347 423.086 15.4386 423.066 15.4363L422.742 15.4363C422.692 15.4363 422.666 15.4143 422.666 15.3712L422.666 14.1113L422.203 14.1113C422.159 14.1113 422.136 14.0863 422.136 14.0393L422.136 13.8003C422.135 13.7795 422.139 13.7588 422.149 13.7402C422.155 13.7302 422.173 13.7252 422.203 13.7252L423.61 13.7252C423.62 13.7236 423.629 13.7241 423.639 13.7266C423.648 13.7289 423.656 13.7333 423.663 13.7393C423.673 13.7573 423.678 13.7793 423.676 13.7993L423.676 14.0382C423.676 14.0853 423.654 14.1093 423.61 14.1093L423.141 14.1093L423.141 14.1113ZM424.572 13.6832C424.828 13.6832 425.018 13.7473 425.145 13.8743C425.213 13.9476 425.264 14.0338 425.297 14.1277C425.33 14.2214 425.344 14.321 425.338 14.4203C425.347 14.5029 425.323 14.5861 425.271 14.6512C425.222 14.6948 425.157 14.7172 425.091 14.7133L424.255 14.7133C424.255 14.7733 424.267 14.8313 424.289 14.8862C424.308 14.9282 424.337 14.9663 424.372 14.9962C424.409 15.0249 424.451 15.045 424.495 15.0553C424.61 15.0773 424.728 15.0748 424.841 15.0482C424.903 15.0343 424.964 15.0143 425.024 14.9902C425.04 14.9828 425.059 14.9796 425.078 14.9813C425.09 14.988 425.1 14.9995 425.105 15.0133L425.209 15.2473C425.214 15.254 425.217 15.2617 425.217 15.2697C425.218 15.2777 425.217 15.2858 425.214 15.2932C425.206 15.3069 425.195 15.318 425.181 15.3253C425.095 15.3798 425 15.4181 424.901 15.4382C424.803 15.4597 424.703 15.4712 424.602 15.4723C424.317 15.4723 424.104 15.4012 423.967 15.2612C423.829 15.1212 423.761 14.8962 423.761 14.5892C423.759 14.4592 423.779 14.3292 423.819 14.2063C423.855 14.1011 423.911 14.004 423.984 13.9213C424.055 13.8434 424.143 13.7828 424.24 13.7443C424.346 13.7035 424.458 13.6832 424.571 13.6843L424.572 13.6832ZM424.582 14.0753C424.541 14.0739 424.5 14.0815 424.463 14.0978C424.425 14.114 424.391 14.1384 424.363 14.1693C424.305 14.2365 424.27 14.3212 424.265 14.4103L424.876 14.4103C424.877 14.3651 424.872 14.3202 424.861 14.2762C424.853 14.2385 424.837 14.2028 424.815 14.1713C424.791 14.1406 424.761 14.1165 424.725 14.1013C424.68 14.0823 424.631 14.0735 424.582 14.0753ZM426.156 16.0453C426.156 16.0692 426.156 16.0853 426.146 16.0902C426.129 16.0991 426.108 16.1025 426.089 16.1002L425.751 16.1002C425.734 16.1016 425.716 16.098 425.699 16.0902C425.69 16.0842 425.682 16.0692 425.682 16.0453L425.682 13.9203C425.682 13.9003 425.686 13.8812 425.694 13.8633C425.708 13.8442 425.727 13.8293 425.748 13.8203C425.86 13.7703 425.978 13.7363 426.099 13.7192C426.223 13.6992 426.347 13.6892 426.472 13.6892C426.605 13.6853 426.738 13.7091 426.861 13.7593C426.96 13.8002 427.047 13.8643 427.116 13.946C427.184 14.0278 427.232 14.125 427.255 14.2292C427.313 14.4568 427.312 14.6953 427.253 14.9222C427.224 15.0242 427.177 15.1196 427.112 15.2032C427.048 15.2849 426.965 15.3503 426.87 15.3943C426.763 15.4432 426.646 15.4673 426.527 15.4642C426.403 15.4642 426.279 15.4512 426.157 15.4253L426.157 16.0443L426.156 16.0453ZM426.801 14.5692C426.803 14.4938 426.794 14.4183 426.776 14.3452C426.761 14.291 426.735 14.2408 426.698 14.1982C426.664 14.1615 426.621 14.1345 426.572 14.1202C426.519 14.1042 426.463 14.0966 426.407 14.0973C426.323 14.0985 426.239 14.111 426.157 14.1343L426.157 15.0233C426.247 15.0477 426.339 15.0594 426.432 15.0582C426.481 15.0598 426.531 15.0508 426.577 15.0319C426.623 15.0128 426.664 14.9844 426.698 14.9482C426.768 14.8733 426.802 14.7483 426.802 14.5692L426.801 14.5692ZM428.131 15.3712C428.131 15.3993 428.126 15.4172 428.117 15.4253C428.098 15.4346 428.077 15.4384 428.057 15.4363L427.729 15.4363C427.682 15.4363 427.657 15.4143 427.657 15.3712L427.657 13.7882C427.657 13.7462 427.682 13.7263 427.729 13.7263L428.057 13.7263C428.077 13.7242 428.098 13.728 428.117 13.7373C428.122 13.744 428.127 13.7521 428.129 13.7606C428.132 13.7693 428.133 13.7783 428.131 13.7872L428.131 14.3452L428.744 14.3452L428.744 13.7882C428.744 13.7462 428.767 13.7263 428.816 13.7263L429.147 13.7263C429.168 13.7238 429.189 13.7275 429.207 13.7373C429.213 13.7444 429.217 13.7524 429.219 13.761C429.221 13.7695 429.222 13.7784 429.22 13.7872L429.22 15.3712C429.22 15.3993 429.215 15.4172 429.206 15.4253C429.188 15.4349 429.167 15.4388 429.146 15.4363L428.817 15.4363C428.767 15.4363 428.744 15.4143 428.744 15.3712L428.744 14.7163L428.131 14.7163L428.131 15.3712ZM430.384 13.6832C430.64 13.6832 430.831 13.7473 430.958 13.8743C431.025 13.9479 431.077 14.0341 431.109 14.1279C431.142 14.2217 431.156 14.3212 431.15 14.4203C431.159 14.5029 431.135 14.5861 431.083 14.6512C431.034 14.6948 430.969 14.7172 430.903 14.7133L430.068 14.7133C430.068 14.7733 430.079 14.8313 430.101 14.8862C430.12 14.9287 430.148 14.9662 430.183 14.9956C430.219 15.025 430.261 15.0454 430.307 15.0553C430.421 15.0773 430.539 15.0748 430.652 15.0482C430.714 15.0343 430.776 15.0143 430.836 14.9902C430.852 14.9825 430.871 14.9795 430.89 14.9813C430.902 14.9883 430.912 14.9996 430.916 15.0133L431.02 15.2473C431.025 15.254 431.028 15.2617 431.028 15.2697C431.029 15.2777 431.028 15.2858 431.026 15.2932C431.017 15.3069 431.005 15.318 430.992 15.3253C430.906 15.3799 430.811 15.4182 430.712 15.4382C430.614 15.4597 430.514 15.4712 430.413 15.4723C430.128 15.4723 429.916 15.4012 429.778 15.2612C429.641 15.1212 429.578 14.8962 429.578 14.5892C429.577 14.4592 429.595 14.3292 429.635 14.2063C429.671 14.101 429.727 14.004 429.801 13.9213C429.872 13.8438 429.959 13.7832 430.057 13.7443C430.162 13.7035 430.274 13.6832 430.388 13.6843L430.384 13.6843L430.384 13.6832ZM430.394 14.0753C430.353 14.0739 430.312 14.0815 430.275 14.0978C430.237 14.114 430.203 14.1384 430.175 14.1693C430.117 14.2365 430.082 14.3212 430.077 14.4103L430.688 14.4103C430.689 14.3651 430.684 14.3202 430.673 14.2762C430.665 14.2385 430.649 14.2028 430.626 14.1713C430.604 14.1409 430.573 14.1167 430.538 14.1013C430.493 14.0824 430.444 14.0735 430.394 14.0753ZM432.32 14.1102L432.32 15.3712C432.32 15.3993 432.316 15.4172 432.306 15.4253C432.287 15.4346 432.266 15.4384 432.245 15.4363L431.922 15.4363C431.871 15.4363 431.847 15.4143 431.847 15.3712L431.847 14.1113L431.381 14.1113C431.339 14.1113 431.317 14.0863 431.317 14.0393L431.317 13.8003C431.314 13.7797 431.318 13.7588 431.328 13.7402C431.336 13.7302 431.353 13.7252 431.381 13.7252L432.795 13.7252C432.804 13.724 432.813 13.7246 432.822 13.7271C432.831 13.7295 432.839 13.7336 432.847 13.7393C432.857 13.7574 432.861 13.7784 432.859 13.7993L432.859 14.0382C432.859 14.0853 432.838 14.1093 432.795 14.1093L432.32 14.1093L432.32 14.1102ZM435.017 15.3743C435.019 15.3831 435.018 15.392 435.016 15.4005C435.014 15.4092 435.01 15.4172 435.005 15.4243C434.986 15.4352 434.965 15.4395 434.944 15.4363L434.589 15.4363C434.544 15.4363 434.52 15.4163 434.52 15.3743L434.52 13.5863L433.64 13.5863L433.64 15.3743C433.641 15.392 433.637 15.4098 433.626 15.4243C433.609 15.4346 433.588 15.4388 433.568 15.4363L433.207 15.4363C433.161 15.4363 433.14 15.4163 433.14 15.3743L433.14 13.3743C433.135 13.3154 433.151 13.2568 433.186 13.2092C433.208 13.1887 433.235 13.1731 433.264 13.1638C433.292 13.1545 433.323 13.1516 433.352 13.1553L434.815 13.1553C434.844 13.1517 434.874 13.1548 434.903 13.1642C434.931 13.1735 434.957 13.1888 434.979 13.2092C435.014 13.2573 435.029 13.3153 435.026 13.3743L435.026 15.3743L435.017 15.3743ZM436.931 15.2242C436.931 15.2488 436.927 15.2732 436.919 15.2963C436.906 15.3206 436.886 15.34 436.861 15.3513C436.809 15.3763 436.755 15.396 436.699 15.4103C436.582 15.4397 436.463 15.4581 436.342 15.4652C436.282 15.4652 436.224 15.4723 436.171 15.4723C436.047 15.4752 435.923 15.4611 435.803 15.4303C435.718 15.4077 435.639 15.3683 435.569 15.3142C435.514 15.2687 435.471 15.2095 435.445 15.1422C435.396 14.9969 435.398 14.8389 435.453 14.6953C435.481 14.625 435.524 14.562 435.58 14.5112C435.642 14.4563 435.715 14.4148 435.794 14.3893C435.892 14.3583 435.996 14.3434 436.099 14.3452L436.456 14.3452L436.456 14.2922C436.456 14.2623 436.453 14.2323 436.446 14.2042C436.44 14.1766 436.426 14.1512 436.406 14.1312C436.381 14.1082 436.352 14.0907 436.319 14.0803C436.272 14.0659 436.222 14.0592 436.172 14.0603C436.14 14.0603 436.102 14.0623 436.06 14.0663L435.937 14.0782C435.861 14.0896 435.786 14.1046 435.712 14.1233C435.692 14.1306 435.671 14.1306 435.651 14.1233C435.645 14.118 435.64 14.1115 435.636 14.1041C435.632 14.0967 435.63 14.0886 435.63 14.0803L435.578 13.8523C435.571 13.8362 435.571 13.8184 435.578 13.8022C435.585 13.7902 435.598 13.7815 435.611 13.7783C435.712 13.7423 435.816 13.7173 435.922 13.7032C436.027 13.6873 436.134 13.6793 436.242 13.6793C436.479 13.6793 436.653 13.7302 436.764 13.8313C436.821 13.8898 436.866 13.9601 436.895 14.0374C436.923 14.1146 436.935 14.197 436.93 14.2793L436.93 15.2242L436.931 15.2242ZM436.456 14.6613L436.198 14.6613C436.166 14.6613 436.133 14.6636 436.1 14.6682C436.067 14.6716 436.034 14.6819 436.005 14.6982C435.97 14.7169 435.942 14.7452 435.923 14.7797C435.905 14.8142 435.897 14.8533 435.901 14.8922C435.897 14.9235 435.903 14.9548 435.916 14.9832C435.93 15.0114 435.951 15.0353 435.977 15.0522C436.042 15.0856 436.113 15.1011 436.185 15.0973L436.238 15.0973C436.26 15.0973 436.282 15.0973 436.308 15.0902C436.332 15.0842 436.359 15.0833 436.384 15.0782C436.409 15.0731 436.433 15.0658 436.456 15.0563L436.456 14.6613ZM437.833 16.0453C437.833 16.0692 437.829 16.0853 437.821 16.0902C437.804 16.099 437.785 16.1024 437.766 16.1002L437.427 16.1002C437.41 16.1014 437.392 16.0979 437.375 16.0902C437.364 16.0842 437.359 16.0692 437.359 16.0453L437.359 13.9203C437.358 13.9008 437.362 13.8812 437.37 13.8633C437.384 13.8442 437.402 13.8293 437.424 13.8203C437.536 13.7703 437.654 13.7352 437.776 13.7192C437.899 13.6992 438.022 13.6892 438.146 13.6892C438.28 13.6852 438.413 13.709 438.537 13.7593C438.636 13.8008 438.723 13.865 438.791 13.9467C438.86 14.0284 438.908 14.1252 438.932 14.2292C438.989 14.4568 438.988 14.6953 438.928 14.9222C438.9 15.0243 438.852 15.1198 438.787 15.2032C438.723 15.2849 438.641 15.3503 438.547 15.3943C438.439 15.4435 438.322 15.4674 438.203 15.4642C438.079 15.4641 437.955 15.451 437.833 15.4253L437.833 16.0443L437.833 16.0453ZM438.477 14.5692C438.479 14.4937 438.47 14.4183 438.451 14.3452C438.437 14.2909 438.41 14.2406 438.373 14.1982C438.34 14.1614 438.297 14.1345 438.248 14.1202C438.195 14.1041 438.139 14.0963 438.082 14.0973C437.998 14.0985 437.914 14.111 437.833 14.1343L437.833 15.0233C437.922 15.0477 438.014 15.0596 438.107 15.0582C438.156 15.0597 438.206 15.0507 438.252 15.0317C438.298 15.0128 438.339 14.9844 438.373 14.9482C438.443 14.8733 438.477 14.7483 438.477 14.5692ZM440.92 14.5692C440.92 14.8563 440.85 15.0782 440.714 15.2292C440.576 15.3823 440.368 15.4642 440.087 15.4642C439.806 15.4642 439.595 15.3862 439.464 15.2302C439.334 15.0742 439.268 14.8542 439.268 14.5703C439.267 14.4423 439.286 14.3149 439.327 14.1932C439.358 14.09 439.412 13.9952 439.486 13.9161C439.559 13.837 439.65 13.7755 439.75 13.7363C439.86 13.6936 439.977 13.6725 440.095 13.6743C440.37 13.6743 440.576 13.7562 440.714 13.9103C440.852 14.0632 440.922 14.2853 440.922 14.5632L440.92 14.5692ZM440.422 14.5792C440.422 14.5123 440.417 14.4442 440.405 14.3773C440.397 14.3224 440.378 14.2694 440.35 14.2213C440.326 14.1792 440.291 14.1442 440.249 14.1193C440.203 14.0928 440.149 14.0796 440.095 14.0813C440.045 14.0785 439.995 14.0892 439.95 14.1124C439.904 14.1356 439.867 14.1704 439.839 14.2133C439.779 14.3219 439.75 14.4452 439.756 14.5692C439.749 14.6979 439.775 14.8263 439.833 14.9413C439.86 14.9834 439.898 15.0175 439.942 15.0398C439.987 15.0621 440.037 15.072 440.087 15.0682C440.141 15.0701 440.194 15.0569 440.241 15.0303C440.285 15.0049 440.321 14.9691 440.347 14.9263C440.375 14.8789 440.395 14.8267 440.405 14.7722C440.418 14.7087 440.424 14.644 440.423 14.5792L440.422 14.5792ZM442.602 13.7223C442.63 13.7189 442.659 13.7213 442.686 13.7296C442.713 13.7379 442.737 13.7517 442.758 13.7703C442.789 13.8142 442.804 13.8677 442.799 13.9213L442.799 15.3712C442.801 15.3802 442.8 15.3893 442.797 15.3979C442.795 15.4066 442.79 15.4146 442.785 15.4213C442.766 15.4309 442.745 15.4351 442.724 15.4332L442.392 15.4332C442.371 15.4357 442.35 15.4304 442.332 15.4182C442.321 15.4042 442.316 15.3862 442.318 15.3683L442.318 14.1102L441.915 14.1102L441.905 14.2753C441.895 14.4652 441.88 14.6273 441.863 14.7653C441.85 14.8855 441.819 15.0033 441.774 15.1152C441.735 15.2074 441.675 15.2885 441.598 15.3513C441.506 15.4196 441.403 15.4701 441.294 15.5002C441.264 15.5112 441.241 15.5133 441.228 15.5052C441.213 15.4948 441.201 15.4792 441.195 15.4613L441.108 15.2402C441.098 15.2217 441.094 15.2009 441.097 15.1803C441.097 15.1672 441.115 15.1543 441.143 15.1403C441.195 15.1178 441.243 15.0874 441.286 15.0503C441.326 15.0114 441.356 14.9634 441.373 14.9103C441.401 14.8323 441.42 14.7502 441.427 14.6682C441.442 14.5673 441.453 14.4343 441.464 14.2683L441.486 13.9143C441.484 13.8599 441.502 13.8064 441.536 13.7643C441.58 13.7313 441.635 13.7161 441.69 13.7213L442.603 13.7223L442.602 13.7223ZM443.432 15.4332C443.403 15.4374 443.372 15.4351 443.344 15.4263C443.315 15.4174 443.289 15.4023 443.266 15.3823C443.238 15.342 443.224 15.2935 443.226 15.2443L443.226 13.7882C443.226 13.7462 443.251 13.7263 443.299 13.7263L443.625 13.7263C443.646 13.7242 443.667 13.728 443.685 13.7373C443.692 13.744 443.696 13.752 443.698 13.7606C443.701 13.7693 443.702 13.7783 443.701 13.7872L443.701 14.2603L444.107 14.2603C444.236 14.2546 444.365 14.2775 444.484 14.3273C444.567 14.3647 444.639 14.4214 444.694 14.4923C444.739 14.5486 444.77 14.6147 444.785 14.6853C444.796 14.7393 444.801 14.7953 444.802 14.8502C444.804 14.9294 444.787 15.0079 444.756 15.0804C444.724 15.1528 444.677 15.2177 444.618 15.2703C444.49 15.3807 444.326 15.4412 444.157 15.4403L443.432 15.4332L443.432 15.4332ZM444.315 14.8373C444.316 14.7803 444.296 14.7249 444.257 14.6823C444.235 14.6598 444.208 14.6426 444.178 14.6315C444.149 14.6205 444.117 14.616 444.086 14.6183L443.701 14.6183L443.701 15.0623L444.081 15.0623C444.121 15.0634 444.16 15.0552 444.195 15.0382C444.222 15.0262 444.246 15.0083 444.265 14.9858C444.284 14.9633 444.297 14.9368 444.305 14.9083C444.311 14.8862 444.315 14.8633 444.317 14.8402L444.315 14.8373Z" fill="#B2B2B2" fill-opacity="1.000000" fill-rule="evenodd"/>
</svg>
