<svg width="444.822754" height="24.001465" viewBox="0 0 444.823 24.0015" fill="none" xmlns="http://www.w3.org/2000/svg" xmlns:xlink="http://www.w3.org/1999/xlink">
	<desc>
			Created with Pixso.
	</desc>
	<defs/>
	<path id="Alfa" d="M6.49999 2.50049C7.87311 2.50049 8.31592 3.42969 8.68154 4.35938C8.77335 4.59033 10.0993 7.99316 11.1694 10.7402L11.1694 10.7417L11.1727 10.7495L12.5271 14.2236C12.537 14.2471 12.5417 14.2725 12.5408 14.2979C12.5399 14.3237 12.5335 14.3486 12.522 14.3716C12.5105 14.3945 12.4941 14.415 12.474 14.4312C12.4539 14.4478 12.4304 14.4595 12.4052 14.4663C12.3418 14.4863 11.9226 14.6406 11.4757 14.8037C10.9435 14.9995 10.3723 15.209 10.3138 15.2241C10.2639 15.2393 10.21 15.2363 10.1623 15.2153C10.1147 15.1943 10.0766 15.1567 10.0555 15.1104C10.0335 15.0625 9.85072 14.5894 9.65573 14.0811C9.43798 13.5156 9.20316 12.9067 9.15523 12.7939L3.84476 12.7939C3.54227 13.5649 3.24219 14.3369 2.94451 15.1104C2.91445 15.1958 2.79258 15.2671 2.68533 15.2241C2.6317 15.2026 2.13608 15.0239 1.64046 14.8457C1.14483 14.667 0.649212 14.4878 0.594774 14.4663C0.547075 14.4482 0.508162 14.4131 0.485626 14.3682C0.463091 14.3232 0.458553 14.2715 0.4729 14.2236C0.611025 13.8809 4.13482 4.83105 4.31844 4.35938C4.66863 3.44434 5.12687 2.50049 6.49999 2.50049ZM0.198275 18.9561C0.171812 18.9565 0.145693 18.9619 0.121408 18.9722C0.0971222 18.9824 0.0751476 18.9971 0.0567379 19.0156C0.0383282 19.0342 0.0238438 19.0562 0.0141144 19.0801C0.00438309 19.104 -0.000404358 19.1299 2.67029e-05 19.1558L2.67029e-05 21.3008C2.67029e-05 21.415 0.0918388 21.5005 0.198275 21.5005L12.8017 21.5005C12.8282 21.5 12.8544 21.4946 12.8788 21.4844C12.9031 21.4741 12.9251 21.459 12.9435 21.4404C12.962 21.4219 12.9764 21.3999 12.9861 21.376C12.9958 21.3516 13.0005 21.3262 13 21.3003L13 19.1558C13.0004 19.1299 12.9956 19.104 12.9859 19.0801C12.9761 19.0562 12.9617 19.0342 12.9432 19.0156C12.9248 18.9971 12.9029 18.9824 12.8786 18.9722C12.8543 18.9619 12.8282 18.9565 12.8017 18.9561L0.198275 18.9561ZM4.6995 10.5493L6.49999 5.50244L6.51543 5.50244L8.31592 10.5493L4.70031 10.5493L4.6995 10.5493Z" fill="#C9C9C9" fill-opacity="1.000000" fill-rule="evenodd"/>
	<path id="Visa" d="M55.728 5.05664L52.661 18.9839L48.951 18.9839L52.021 5.05664L55.729 5.05664L55.728 5.05664ZM71.332 14.0488L73.285 8.81885L74.408 14.0488L71.332 14.0488ZM75.47 18.9839L78.9 18.9839L75.908 5.05664L72.741 5.05664C72.406 5.05127 72.0769 5.14551 71.7956 5.32764C71.5143 5.50928 71.2934 5.771 71.161 6.07861L65.597 18.9839L69.492 18.9839L70.265 16.9038L75.024 16.9038L75.47 18.9839ZM65.79 14.4355C65.807 10.7598 60.558 10.5566 60.594 8.91602C60.604 8.41602 61.095 7.88379 62.167 7.74756C62.699 7.68066 64.162 7.62891 65.824 8.37158L66.474 5.41895C65.3625 5.01367 64.1891 4.8042 63.006 4.80078C59.34 4.80078 56.76 6.69385 56.738 9.40479C56.715 11.4097 58.579 12.5288 59.985 13.1948C61.43 13.8779 61.915 14.3149 61.909 14.9248C61.899 15.8608 60.756 16.2729 59.69 16.2886C57.825 16.3179 56.743 15.7998 55.88 15.4087L55.208 18.4609C56.074 18.8477 57.674 19.1836 59.333 19.2007C63.229 19.2007 65.778 17.3306 65.791 14.4355L65.79 14.4355ZM50.429 5.05664L44.421 18.9839L40.5 18.9839L37.541 7.86865C37.361 7.18457 37.205 6.93359 36.659 6.646C35.769 6.17578 34.296 5.73584 33 5.46191L33.089 5.05664L39.399 5.05664C40.203 5.05664 40.927 5.57666 41.109 6.47656L42.672 14.5366L46.531 5.05664L50.427 5.05664L50.429 5.05664Z" fill="#C9C9C9" fill-opacity="1.000000" fill-rule="evenodd"/>
	<path id="Vector" d="M98.9 10.2754L139.9 10.2754L139.9 19.2754C139.9 20.0708 139.58 20.834 139.01 21.3965C138.441 21.9595 137.668 22.2754 136.863 22.2754L101.937 22.2754C101.132 22.2754 100.359 21.9595 99.7896 21.3965C99.22 20.834 98.9 20.0708 98.9 19.2754L98.9 10.2754Z" fill="#C9C9C9" fill-opacity="1.000000" fill-rule="nonzero"/>
	<path id="Vector" d="M112.529 16.9736C112.688 17.0659 112.937 17.146 113.192 17.146C113.511 17.146 113.69 16.9976 113.69 16.7788C113.69 16.5737 113.551 16.4546 113.205 16.3301C112.749 16.1748 112.46 15.9351 112.46 15.5518C112.46 15.1074 112.834 14.7764 113.433 14.7764C113.73 14.7764 113.946 14.8398 114.088 14.9082L113.971 15.3081C113.8 15.2227 113.612 15.1792 113.421 15.1802C113.103 15.1802 112.968 15.3438 112.968 15.5029C112.968 15.7114 113.128 15.8066 113.494 15.9434C113.971 16.123 114.198 16.3584 114.198 16.7417C114.198 17.1777 113.864 17.5498 113.16 17.5498C112.867 17.5498 112.566 17.4692 112.415 17.3818L112.529 16.9736ZM116.145 16.3145L115.111 16.3145L115.111 17.1055L116.267 17.1055L116.267 17.5093L114.609 17.5093L114.609 14.8159L116.205 14.8159L116.205 15.2192L115.11 15.2192L115.11 15.9146L116.144 15.9146L116.144 16.3145L116.145 16.3145ZM118.633 17.4287C118.516 17.4844 118.255 17.5488 117.921 17.5488C117.049 17.5488 116.52 17.0127 116.52 16.1938C116.52 15.3071 117.151 14.7754 117.99 14.7754C118.32 14.7754 118.552 14.8394 118.654 14.8911L118.547 15.2832C118.378 15.2129 118.195 15.1772 118.011 15.1787C117.453 15.1787 117.049 15.5229 117.049 16.1704C117.049 16.7612 117.4 17.1372 118.006 17.1372C118.206 17.1372 118.418 17.0972 118.553 17.041L118.633 17.4287ZM119.518 14.8159L119.518 16.3862C119.518 16.9136 119.742 17.1572 120.08 17.1572C120.442 17.1572 120.657 16.9136 120.657 16.3862L120.657 14.8159L121.159 14.8159L121.159 16.354C121.159 17.1851 120.723 17.5527 120.063 17.5527C119.428 17.5527 119.017 17.2056 119.017 16.3579L119.017 14.8159L119.518 14.8159ZM121.693 14.8555C121.883 14.8198 122.161 14.7954 122.45 14.7954C122.845 14.7954 123.109 14.8594 123.297 15.0117C123.447 15.1353 123.532 15.3228 123.532 15.5547C123.532 15.9019 123.293 16.1382 123.032 16.2261L123.032 16.2378C123.231 16.3101 123.35 16.498 123.415 16.7578C123.504 17.0928 123.578 17.4048 123.631 17.5093L123.117 17.5093C123.076 17.4287 123.007 17.209 122.934 16.873C122.852 16.5215 122.726 16.4097 122.442 16.4023L122.189 16.4023L122.189 17.5093L121.692 17.5093L121.692 14.8555L121.693 14.8555ZM122.189 16.042L122.486 16.042C122.824 16.042 123.032 15.8657 123.032 15.5991C123.032 15.3062 122.824 15.167 122.499 15.167C122.339 15.167 122.238 15.1787 122.189 15.1909L122.189 16.042ZM125.505 16.3145L124.47 16.3145L124.47 17.1055L125.626 17.1055L125.626 17.5093L123.969 17.5093L123.969 14.8159L125.565 14.8159L125.565 15.2192L124.47 15.2192L124.47 15.9146L125.504 15.9146L125.504 16.3145L125.505 16.3145Z" fill="#FFFFFF" fill-opacity="1.000000" fill-rule="nonzero"/>
	<path id="Vector" d="M116.387 1.82422L114.102 7.19189L112.61 7.19189L111.485 2.9082C111.416 2.64502 111.357 2.54785 111.149 2.43652C110.811 2.25537 110.25 2.08545 109.757 1.98047L109.791 1.82422L112.192 1.82422C112.498 1.82422 112.772 2.02441 112.843 2.37158L113.437 5.47754L114.905 1.8252L116.387 1.82422ZM122.232 5.43945C122.238 4.02344 120.242 3.94434 120.255 3.31152C120.26 3.11963 120.446 2.91406 120.853 2.86182C121.055 2.83594 121.613 2.81592 122.245 3.10156L122.492 1.96387C122.07 1.80811 121.623 1.72754 121.172 1.72607C119.777 1.72607 118.796 2.45605 118.788 3.50049C118.779 4.27295 119.49 4.7041 120.023 4.96143C120.573 5.22412 120.758 5.39355 120.755 5.62891C120.752 5.98926 120.316 6.14795 119.911 6.1543C119.201 6.16455 118.79 5.96484 118.462 5.81494L118.206 6.9917C118.536 7.14014 119.144 7.26953 119.774 7.27686C121.258 7.27686 122.227 6.55518 122.232 5.43945ZM125.915 7.19189L127.22 7.19189L126.081 1.82422L124.877 1.82422C124.748 1.82324 124.622 1.85986 124.515 1.93018C124.408 2.00049 124.325 2.10059 124.276 2.21826L122.158 7.19189L123.641 7.19189L123.934 6.39014L125.744 6.39014L125.915 7.19189ZM124.341 5.29102L125.083 3.2749L125.511 5.29102L124.341 5.29102ZM118.404 1.82422L117.237 7.19189L115.826 7.19189L116.993 1.82422L118.404 1.82422Z" fill="#C9C9C9" fill-opacity="1.000000" fill-rule="nonzero"/>
	<path id="Vector" d="M173.179 2.88086L184.425 2.88086L184.425 21.1177L173.179 21.1177L173.179 2.88086Z" fill="#D6D6D6" fill-opacity="1.000000" fill-rule="nonzero"/>
	<path id="Vector" d="M174.338 12.0005C174.338 10.2417 174.74 8.50635 175.514 6.92627C176.287 5.34619 177.41 3.96387 178.799 2.88477C174.009 -0.852539 167.132 -0.308594 162.999 4.13477C161.008 6.27051 159.9 9.08203 159.9 12.0024C159.9 14.9229 161.008 17.7349 162.999 19.8706C167.132 24.3135 174.009 24.8584 178.799 21.1206C177.41 20.0405 176.286 18.6577 175.513 17.0771C174.74 15.4966 174.338 13.7603 174.338 12.0005Z" fill="#B2B2B2" fill-opacity="1.000000" fill-rule="nonzero"/>
	<path id="Vector" d="M197.7 12.0005C197.7 16.4404 195.146 20.4917 191.123 22.4326C189.151 23.3833 186.952 23.7642 184.774 23.5317C182.597 23.2993 180.528 22.4634 178.8 21.1177C180.188 20.0371 181.311 18.6543 182.085 17.0747C182.858 15.4946 183.261 13.7593 183.262 12.0005C183.262 8.44141 181.617 5.08057 178.799 2.88184C180.527 1.53613 182.596 0.699707 184.774 0.467773C186.951 0.235352 189.151 0.616211 191.123 1.56738C195.146 3.50781 197.7 7.55762 197.7 11.9985L197.7 12.0005Z" fill="#E2E2E2" fill-opacity="1.000000" fill-rule="nonzero"/>
	<path id="Vector" d="M240.124 17.4341L240.124 15.6899L239.704 15.6899L239.704 16.7021C239.633 16.6099 239.54 16.5366 239.435 16.4873C239.329 16.438 239.213 16.4146 239.097 16.4189C238.829 16.4189 238.572 16.5254 238.382 16.7148C238.193 16.9048 238.086 17.1616 238.086 17.4302C238.086 17.6982 238.193 17.9551 238.382 18.145C238.572 18.3345 238.829 18.4409 239.097 18.4409C239.213 18.4453 239.329 18.4219 239.435 18.3726C239.54 18.3237 239.633 18.25 239.704 18.1577L239.704 18.3931L240.124 18.3931L240.124 17.4331L240.124 17.4341ZM227.577 16.4658L228.265 16.4658L228.265 16.8438L227.581 16.8438L227.581 17.7339C227.581 17.9277 227.658 18.0581 227.86 18.0581C227.991 18.0479 228.118 18.0044 228.228 17.9321L228.349 18.292C228.192 18.3901 228.01 18.4424 227.824 18.4419C227.326 18.4419 227.152 18.1748 227.152 17.7261L227.152 16.8457L226.76 16.8457L226.76 16.4678L227.152 16.4678L227.152 15.8818L227.577 15.8818L227.577 16.4678L227.577 16.4658ZM221.983 18.4058L221.983 17.1919C221.99 17.0898 221.975 16.9878 221.94 16.8921C221.904 16.7959 221.848 16.709 221.776 16.6362C221.705 16.5635 221.618 16.5073 221.523 16.4707C221.427 16.4341 221.325 16.418 221.223 16.4238C221.089 16.415 220.956 16.4419 220.836 16.5024C220.716 16.563 220.615 16.6543 220.543 16.7671C220.477 16.6572 220.383 16.5679 220.27 16.5073C220.158 16.4473 220.031 16.4185 219.903 16.4238C219.792 16.4185 219.681 16.4419 219.582 16.4922C219.483 16.5425 219.398 16.6182 219.337 16.7109L219.337 16.4722L218.917 16.4722L218.917 18.4058L219.341 18.4058L219.341 17.334C219.332 17.2676 219.338 17.2002 219.358 17.1367C219.378 17.0728 219.411 17.0142 219.457 16.9653C219.502 16.916 219.558 16.8774 219.62 16.8525C219.682 16.8271 219.748 16.8164 219.815 16.8198C220.094 16.8198 220.235 17.002 220.235 17.3301L220.235 18.4058L220.66 18.4058L220.66 17.334C220.651 17.2681 220.657 17.2007 220.677 17.1372C220.697 17.0737 220.731 17.0151 220.776 16.9663C220.821 16.9175 220.877 16.8789 220.938 16.8535C221 16.8281 221.066 16.8169 221.133 16.8198C221.421 16.8198 221.558 17.002 221.558 17.3301L221.558 18.4058L221.983 18.4058ZM238.664 22.394L238.278 22.394L238.28 20.1211L237.993 20.1211L237.993 23.7607L238.296 23.7607L238.296 22.647L238.682 22.647L239.693 23.7607L240.06 23.7607L238.907 22.5059L240.039 21.3838L239.675 21.3838L238.665 22.395L238.664 22.394ZM229.988 21.5991C229.923 21.6582 229.867 21.7261 229.822 21.8008L229.812 20.1328L229.524 20.1328L229.524 23.7729L229.812 23.7729L229.812 22.418C229.811 22.3081 229.832 22.1992 229.874 22.0981C229.914 22.0044 229.971 21.9199 230.044 21.8491C230.117 21.7788 230.203 21.7231 230.297 21.686C230.397 21.6479 230.502 21.6289 230.609 21.6299C230.719 21.627 230.829 21.645 230.932 21.6821C231.023 21.7148 231.105 21.7676 231.172 21.8364C231.24 21.9053 231.291 21.9888 231.322 22.0801C231.357 22.1841 231.374 22.2939 231.373 22.4038L231.373 23.7739L231.663 23.7739L231.663 22.3159C231.665 22.1777 231.641 22.0405 231.59 21.9121C231.545 21.7964 231.475 21.6924 231.385 21.6074C231.296 21.522 231.188 21.458 231.07 21.4199C230.782 21.3193 230.467 21.3335 230.19 21.46C230.117 21.4971 230.049 21.5439 229.988 21.6001L229.988 21.5991ZM227.35 20.1841C227.641 20.1841 227.927 20.2515 228.188 20.3799C228.308 20.4409 228.422 20.5181 228.523 20.6079C228.623 20.6968 228.709 20.7979 228.78 20.9121L228.523 21.083C228.333 20.7993 228.041 20.5991 227.708 20.5229C227.393 20.4468 227.062 20.4702 226.761 20.5898C226.583 20.6602 226.421 20.7656 226.286 20.9009C226.15 21.0356 226.044 21.1973 225.973 21.375C225.82 21.7715 225.82 22.2114 225.973 22.6079C226.044 22.7856 226.15 22.9473 226.286 23.0825C226.422 23.2173 226.584 23.3232 226.762 23.3931C226.949 23.4668 227.149 23.5039 227.35 23.5029C227.47 23.5029 227.59 23.4888 227.706 23.4619C227.931 23.4126 228.14 23.3066 228.313 23.1538C228.397 23.0801 228.469 22.9951 228.529 22.9019L228.782 23.0859C228.709 23.1958 228.621 23.2959 228.522 23.3828C228.313 23.5615 228.064 23.688 227.796 23.751C227.411 23.8384 227.009 23.8091 226.641 23.666C226.427 23.5815 226.231 23.4551 226.066 23.2939C225.902 23.1309 225.773 22.9365 225.686 22.7222C225.502 22.2515 225.502 21.7295 225.686 21.2588C225.773 21.0449 225.902 20.8501 226.066 20.687C226.231 20.5269 226.426 20.3999 226.641 20.3149C226.866 20.2261 227.107 20.1821 227.35 20.1841ZM227.35 20.1841L227.342 20.1841L227.35 20.1841ZM221.651 20.2241C221.921 20.2197 222.191 20.2617 222.448 20.3472C222.673 20.4219 222.879 20.542 223.055 20.7012C223.222 20.8569 223.352 21.0479 223.437 21.2588C223.615 21.7329 223.615 22.2549 223.437 22.728C223.352 22.9399 223.222 23.1304 223.055 23.2861C222.879 23.4448 222.673 23.5659 222.448 23.6401C222.191 23.7256 221.922 23.7671 221.651 23.7632L220.359 23.7632L220.359 20.2231L221.651 20.2231L221.651 20.2241ZM218.989 23.7642L219.299 23.7642L219.299 20.2241L218.989 20.2241L218.989 23.7642ZM240.428 23.644L240.383 23.644L240.383 23.7642L240.361 23.7642L240.361 23.644L240.316 23.644L240.316 23.6221L240.43 23.6221L240.428 23.644ZM240.602 23.7642L240.579 23.7642L240.579 23.6479L240.539 23.749L240.515 23.749L240.475 23.6479L240.475 23.7632L240.452 23.7632L240.452 23.6221L240.486 23.6221L240.526 23.7222L240.567 23.6221L240.602 23.6221L240.602 23.7632L240.602 23.7642ZM220.667 23.4697L220.667 20.5171L221.652 20.521C221.883 20.5171 222.114 20.5518 222.334 20.624C222.519 20.687 222.689 20.7881 222.831 20.9219C222.967 21.0518 223.071 21.2119 223.137 21.3892C223.274 21.7817 223.274 22.209 223.137 22.6021C223.072 22.7783 222.967 22.938 222.831 23.0679C222.688 23.2007 222.519 23.3022 222.334 23.3647C222.114 23.4385 221.882 23.4741 221.65 23.4697L220.667 23.4697ZM233.55 21.353C233.699 21.3501 233.846 21.3789 233.983 21.4375C234.12 21.4966 234.242 21.5835 234.343 21.6929C234.445 21.8037 234.525 21.9351 234.578 22.0771C234.637 22.2329 234.667 22.3989 234.667 22.5659L234.667 22.6851L232.673 22.6851C232.68 22.813 232.712 22.937 232.766 23.0527C232.814 23.1558 232.881 23.248 232.965 23.3247C233.048 23.4009 233.146 23.46 233.253 23.498C233.363 23.5381 233.478 23.5581 233.595 23.5571C233.749 23.5601 233.901 23.5278 234.042 23.4658C234.174 23.4038 234.294 23.3198 234.398 23.2168L234.551 23.4189C234.359 23.6201 234.106 23.752 233.831 23.793C233.747 23.8052 233.661 23.812 233.577 23.812C233.413 23.8135 233.25 23.7832 233.097 23.7222C232.955 23.6646 232.826 23.5786 232.718 23.4692C232.611 23.3594 232.527 23.229 232.472 23.0859C232.411 22.9272 232.381 22.7583 232.383 22.5879C232.38 22.2607 232.497 21.9438 232.713 21.6978C232.824 21.5864 232.955 21.4976 233.1 21.4375C233.245 21.377 233.401 21.3457 233.558 21.3457L233.55 21.353ZM233.219 21.6699C233.324 21.6274 233.437 21.606 233.55 21.6069C233.655 21.6064 233.758 21.626 233.855 21.6655C233.952 21.7051 234.04 21.7632 234.114 21.8369C234.189 21.9121 234.25 22.001 234.292 22.0991C234.339 22.2061 234.367 22.3198 234.375 22.437L232.675 22.437C232.687 22.3213 232.719 22.2085 232.768 22.103C232.857 21.9058 233.018 21.7505 233.219 21.6699ZM236.43 21.353C236.599 21.3511 236.766 21.3828 236.922 21.4478C237.07 21.5078 237.202 21.603 237.308 21.7231L237.122 21.9248C237.032 21.8306 236.924 21.7554 236.804 21.7051C236.684 21.6548 236.554 21.6299 236.424 21.6318C236.302 21.6309 236.181 21.6543 236.069 21.7017C235.957 21.749 235.855 21.8188 235.771 21.9067C235.684 21.9932 235.615 22.0962 235.569 22.21C235.476 22.457 235.476 22.7295 235.569 22.9771C235.636 23.1465 235.753 23.2915 235.904 23.3936C236.055 23.4956 236.234 23.5498 236.416 23.5488C236.55 23.5503 236.683 23.5225 236.806 23.4678C236.923 23.416 237.03 23.3428 237.122 23.2539L237.302 23.4561C237.195 23.5762 237.063 23.6689 236.916 23.731C236.761 23.7954 236.594 23.8276 236.426 23.8262C236.258 23.8281 236.091 23.7964 235.935 23.7329C235.791 23.6743 235.66 23.5869 235.55 23.4761C235.441 23.3652 235.355 23.2329 235.298 23.0879C235.178 22.7739 235.178 22.4268 235.298 22.1128C235.412 21.8188 235.642 21.585 235.935 21.4658C236.091 21.3921 236.261 21.3521 236.435 21.3457L236.43 21.353ZM231.851 16.418C231.748 16.415 231.647 16.4395 231.557 16.4893C231.467 16.5391 231.393 16.6123 231.341 16.7012L231.341 16.4658L230.925 16.4658L230.925 18.3999L231.345 18.3999L231.345 17.3159C231.345 16.9961 231.483 16.8179 231.75 16.8179C231.84 16.8169 231.93 16.833 232.013 16.8667L232.143 16.4619C232.047 16.4272 231.945 16.4097 231.843 16.4092L231.851 16.418ZM225.638 16.418C225.915 16.4077 226.189 16.478 226.428 16.6201L226.241 16.96C226.056 16.8535 225.847 16.7964 225.634 16.7939C225.404 16.7939 225.266 16.8911 225.266 17.02C225.266 17.1499 225.412 17.186 225.594 17.21L225.796 17.2388C226.216 17.2988 226.472 17.4487 226.472 17.8169C226.472 18.1851 226.148 18.4478 225.59 18.4478C225.291 18.4565 224.997 18.3687 224.752 18.1978L224.955 17.8701C225.14 18.0068 225.367 18.0791 225.598 18.0718C225.885 18.0718 226.038 17.9868 226.038 17.8369C226.038 17.728 225.93 17.667 225.699 17.6348L225.497 17.6069C225.064 17.5469 224.829 17.3521 224.829 17.0371C224.829 16.6519 225.149 16.417 225.639 16.417L225.638 16.418ZM237.694 16.418C237.591 16.415 237.49 16.4395 237.4 16.4893C237.31 16.5391 237.236 16.6123 237.184 16.7012L237.184 16.4658L236.768 16.4658L236.768 18.3999L237.188 18.3999L237.188 17.3159C237.188 16.9961 237.326 16.8179 237.593 16.8179C237.683 16.8169 237.773 16.833 237.856 16.8667L237.986 16.4619C237.89 16.4272 237.788 16.4097 237.686 16.4092L237.694 16.418ZM232.567 18.1631C232.47 18.0679 232.394 17.9536 232.344 17.8271C232.293 17.7012 232.27 17.5659 232.275 17.4302L232.275 17.4219C232.27 17.2861 232.293 17.1504 232.344 17.0239C232.394 16.8975 232.47 16.7832 232.567 16.688C232.664 16.5923 232.78 16.5186 232.908 16.4707C233.035 16.4229 233.171 16.4023 233.307 16.4102C233.559 16.3979 233.807 16.48 234.002 16.6411L233.8 16.981C233.654 16.8701 233.477 16.8091 233.294 16.8071C233.136 16.8159 232.987 16.8853 232.879 17C232.77 17.1152 232.709 17.2676 232.709 17.4258C232.709 17.5845 232.77 17.7368 232.879 17.8516C232.987 17.9668 233.136 18.0361 233.294 18.0449C233.477 18.043 233.654 17.9819 233.8 17.8711L234.002 18.2109C233.807 18.3716 233.559 18.4536 233.307 18.4409C233.171 18.4487 233.035 18.4282 232.908 18.3799C232.78 18.332 232.664 18.2583 232.567 18.1631ZM236.215 17.4302L236.215 16.4629L235.795 16.4629L235.795 16.6978C235.723 16.606 235.631 16.5322 235.525 16.4829C235.419 16.4336 235.304 16.4106 235.187 16.415C234.919 16.415 234.662 16.5215 234.472 16.7109C234.283 16.9009 234.176 17.1577 234.176 17.4258C234.176 17.6938 234.283 17.9512 234.472 18.1406C234.662 18.3306 234.919 18.437 235.187 18.437C235.303 18.4414 235.419 18.418 235.525 18.3687C235.63 18.3193 235.723 18.2461 235.794 18.1538L235.794 18.3892L236.214 18.3892L236.214 17.4287L236.215 17.4302ZM235.255 16.8799C235.178 16.877 235.102 16.8892 235.03 16.916C234.958 16.9429 234.892 16.9834 234.836 17.0356C234.779 17.0874 234.734 17.1504 234.702 17.2202C234.67 17.29 234.652 17.3652 234.649 17.4419C234.646 17.5186 234.658 17.5952 234.685 17.667C234.712 17.7393 234.752 17.8052 234.804 17.8613C234.857 17.9175 234.919 17.9629 234.989 17.9951C235.059 18.0269 235.134 18.0449 235.211 18.0479C235.366 18.0537 235.517 17.998 235.63 17.8926C235.744 17.7871 235.811 17.6406 235.817 17.4858C235.823 17.3311 235.767 17.1802 235.661 17.0664C235.556 16.9531 235.41 16.8857 235.255 16.8799ZM229.573 16.4189C229.44 16.4209 229.309 16.4487 229.187 16.5015C229.065 16.5537 228.955 16.6299 228.862 16.7251C228.77 16.8203 228.697 16.9326 228.648 17.0562C228.598 17.1792 228.574 17.311 228.576 17.4438C228.578 17.5767 228.606 17.708 228.658 17.8296C228.711 17.9517 228.787 18.062 228.882 18.1548C228.977 18.2471 229.09 18.3203 229.213 18.3691C229.336 18.4185 229.468 18.4429 229.601 18.4409C229.89 18.4512 230.172 18.355 230.394 18.1709L230.192 17.8589C230.032 17.9868 229.835 18.0581 229.63 18.061C229.491 18.0732 229.353 18.0303 229.244 17.9419C229.136 17.8535 229.067 17.7266 229.051 17.5879L230.489 17.5879L230.489 17.4258C230.489 16.8188 230.113 16.415 229.571 16.415L229.573 16.4189ZM229.915 16.9277C229.823 16.8398 229.7 16.792 229.573 16.7949L229.565 16.7949C229.435 16.7905 229.309 16.8369 229.212 16.9248C229.116 17.0122 229.059 17.1343 229.051 17.2642L230.062 17.2642C230.059 17.1367 230.007 17.0161 229.915 16.9277ZM239.165 16.8838C239.086 16.8774 239.007 16.8867 238.932 16.9121C238.857 16.937 238.788 16.9766 238.729 17.0293C238.67 17.0815 238.622 17.1455 238.588 17.2168C238.554 17.2886 238.535 17.3657 238.532 17.4448C238.529 17.5239 238.542 17.6025 238.571 17.6763C238.599 17.75 238.642 17.8174 238.697 17.874C238.752 17.9312 238.818 17.9761 238.891 18.0063C238.964 18.0371 239.042 18.0527 239.121 18.0518C239.272 18.0508 239.416 17.9912 239.524 17.8862C239.632 17.7812 239.695 17.6392 239.701 17.4883C239.706 17.3379 239.653 17.1914 239.553 17.0786C239.454 16.9658 239.314 16.8965 239.164 16.8838L239.165 16.8838ZM224.355 17.4341L224.355 16.4668L223.935 16.4668L223.935 16.7021C223.864 16.6099 223.771 16.5366 223.666 16.4873C223.56 16.438 223.444 16.4146 223.328 16.4189C223.06 16.4189 222.803 16.5254 222.613 16.7148C222.424 16.9048 222.317 17.1616 222.317 17.4302C222.317 17.6982 222.424 17.9551 222.613 18.145C222.803 18.3345 223.06 18.4409 223.328 18.4409C223.444 18.4453 223.56 18.4219 223.665 18.3726C223.77 18.3232 223.863 18.2495 223.934 18.1577L223.934 18.3931L224.355 18.3931L224.355 17.4331L224.355 17.4341ZM223.395 16.8838C223.316 16.8774 223.237 16.8867 223.162 16.9121C223.087 16.937 223.018 16.9766 222.959 17.0293C222.9 17.0815 222.852 17.1455 222.818 17.2168C222.784 17.2886 222.765 17.3657 222.762 17.4448C222.759 17.5239 222.772 17.6025 222.801 17.6763C222.829 17.75 222.872 17.8174 222.927 17.874C222.982 17.9312 223.048 17.9761 223.121 18.0063C223.194 18.0371 223.272 18.0527 223.351 18.0518C223.502 18.0508 223.646 17.9917 223.754 17.8867C223.862 17.7822 223.926 17.6396 223.931 17.4888C223.937 17.3384 223.884 17.1914 223.785 17.0791C223.685 16.9663 223.545 16.8965 223.395 16.8838ZM240.825 18.1191C240.877 18.1187 240.926 18.1387 240.964 18.1738C240.987 18.1958 241.004 18.2231 241.013 18.2534C241.023 18.2837 241.024 18.3159 241.018 18.3467C241.012 18.3779 240.998 18.4067 240.977 18.4307C240.957 18.4551 240.931 18.4736 240.901 18.4849C240.877 18.4961 240.851 18.502 240.824 18.502C240.786 18.5015 240.748 18.4907 240.716 18.4697C240.684 18.4492 240.658 18.4199 240.642 18.3848C240.629 18.3555 240.624 18.3232 240.627 18.2915C240.631 18.2593 240.642 18.2285 240.66 18.2021C240.678 18.1758 240.703 18.1543 240.731 18.1401C240.76 18.1255 240.792 18.1187 240.824 18.1201L240.825 18.1191ZM240.883 18.4487C240.864 18.457 240.844 18.4609 240.824 18.4609L240.824 18.4629C240.804 18.4624 240.784 18.4575 240.765 18.4487C240.747 18.4414 240.731 18.4307 240.717 18.417C240.692 18.3892 240.678 18.3535 240.678 18.3159C240.678 18.2788 240.692 18.2427 240.717 18.2148C240.731 18.2007 240.748 18.1895 240.766 18.1816C240.784 18.1738 240.804 18.1699 240.824 18.1699C240.844 18.1699 240.863 18.1738 240.881 18.1816C240.899 18.1895 240.915 18.2007 240.929 18.2148C240.954 18.2427 240.968 18.2788 240.968 18.3159C240.968 18.3535 240.954 18.3892 240.929 18.417C240.916 18.4302 240.9 18.4414 240.883 18.4487ZM240.836 18.2207C240.856 18.2197 240.874 18.2261 240.889 18.2368C240.895 18.2422 240.9 18.2485 240.903 18.2559C240.906 18.2632 240.908 18.271 240.907 18.2788C240.907 18.2856 240.906 18.2925 240.904 18.2988C240.902 18.3052 240.898 18.311 240.893 18.3159C240.881 18.3267 240.866 18.333 240.85 18.334L240.909 18.4009L240.862 18.4009L240.808 18.334L240.79 18.334L240.79 18.4009L240.751 18.4009L240.751 18.2231L240.836 18.2207ZM240.792 18.3037L240.792 18.2549L240.836 18.2671C240.844 18.2646 240.853 18.2646 240.861 18.2671C240.862 18.2695 240.863 18.2729 240.863 18.2759C240.863 18.2793 240.862 18.2822 240.861 18.2852C240.863 18.2881 240.863 18.291 240.863 18.2944C240.863 18.2979 240.863 18.3008 240.861 18.3037C240.853 18.3062 240.844 18.3062 240.836 18.3037L240.792 18.3037Z" fill="#B2B2B2" fill-opacity="1.000000" fill-rule="evenodd"/>
	<path id="Vector" d="M226.293 1.73389L232.664 1.73389L232.664 13.1831L226.293 13.1831L226.293 1.73389Z" fill="#D6D6D6" fill-opacity="1.000000" fill-rule="nonzero"/>
	<path id="Vector" d="M226.697 7.4585C226.696 6.35596 226.946 5.26758 227.427 4.27588C227.909 3.28369 228.61 2.41455 229.478 1.73389C228.404 0.889648 227.114 0.365234 225.756 0.219727C224.398 0.0742188 223.026 0.313477 221.798 0.910645C220.569 1.50781 219.534 2.43848 218.809 3.59619C218.084 4.75391 217.7 6.09229 217.7 7.45801C217.7 8.82422 218.084 10.1626 218.809 11.3203C219.534 12.478 220.569 13.4087 221.798 14.0059C223.026 14.603 224.398 14.8423 225.756 14.6968C227.114 14.5513 228.404 14.0264 229.478 13.1826C228.611 12.502 227.91 11.6328 227.428 10.6411C226.947 9.64941 226.697 8.56104 226.698 7.4585L226.697 7.4585Z" fill="#B2B2B2" fill-opacity="1.000000" fill-rule="nonzero"/>
	<path id="Vector" d="M241.259 7.4585C241.259 8.82471 240.874 10.1636 240.15 11.3218C239.425 12.48 238.389 13.4106 237.16 14.0078C235.931 14.605 234.559 14.8442 233.2 14.6982C231.842 14.5522 230.552 14.0269 229.478 13.1826C230.345 12.5015 231.046 11.6323 231.528 10.6406C232.01 9.64893 232.261 8.56055 232.261 7.45752C232.261 6.35498 232.01 5.2666 231.528 4.2749C231.046 3.2832 230.345 2.41406 229.478 1.73291C230.552 0.888184 231.842 0.362793 233.2 0.216797C234.559 0.0708008 235.931 0.310059 237.159 0.907227C238.388 1.50439 239.424 2.43555 240.149 3.59375C240.874 4.75146 241.258 6.09033 241.258 7.45654L241.258 7.4585L241.259 7.4585Z" fill="#E2E2E2" fill-opacity="1.000000" fill-rule="nonzero"/>
	<path id="Pay" d="M267.307 6.95459C267.684 6.48291 267.939 5.84863 267.872 5.20068C267.32 5.22852 266.647 5.56592 266.258 6.0376C265.908 6.44287 265.598 7.10254 265.678 7.72363C266.298 7.77783 266.917 7.41357 267.307 6.95361L267.307 6.95459ZM267.865 7.84473C266.965 7.79053 266.201 8.35547 265.772 8.35547C265.341 8.35547 264.685 7.87158 263.974 7.88477C263.048 7.89893 262.189 8.42285 261.72 9.25684C260.754 10.9248 261.465 13.3989 262.404 14.7578C262.859 15.4297 263.41 16.1699 264.134 16.1436C264.819 16.1167 265.087 15.6997 265.919 15.6997C266.751 15.6997 266.992 16.1436 267.716 16.1299C268.469 16.1167 268.938 15.4575 269.395 14.7847C269.918 14.0186 270.132 13.2788 270.145 13.2378C270.132 13.2246 268.697 12.6729 268.684 11.0176C268.669 9.63379 269.811 8.97461 269.863 8.93359C269.22 7.97949 268.214 7.87158 267.863 7.84375L267.865 7.84473ZM275.693 5.9707C277.647 5.9707 279.008 7.31982 279.008 9.28467C279.008 11.2559 277.618 12.6128 275.643 12.6128L273.48 12.6128L273.48 16.0596L271.917 16.0596L271.917 5.9707L275.693 5.9707ZM273.48 11.2979L275.273 11.2979C276.635 11.2979 277.41 10.5635 277.41 9.2915C277.41 8.01855 276.635 7.2915 275.281 7.2915L273.48 7.2915L273.48 11.2979ZM279.415 13.9688C279.415 12.6826 280.401 11.8926 282.146 11.7949L284.156 11.6758L284.156 11.1099C284.156 10.2905 283.604 9.80176 282.682 9.80176C281.81 9.80176 281.266 10.2217 281.133 10.8789L279.71 10.8789C279.793 9.5498 280.923 8.5708 282.738 8.5708C284.518 8.5708 285.656 9.51465 285.656 10.9907L285.656 16.0605L284.211 16.0605L284.211 14.8506L284.176 14.8506C283.751 15.6685 282.822 16.1855 281.859 16.1855C280.421 16.1855 279.415 15.2905 279.415 13.9688ZM284.156 13.3047L284.156 12.7246L282.348 12.8369C281.448 12.8999 280.938 13.2979 280.938 13.9268C280.938 14.5708 281.467 14.9897 282.277 14.9897C283.332 14.9897 284.155 14.2627 284.155 13.3047L284.156 13.3047ZM287.018 18.7656L287.018 17.5415C287.13 17.5698 287.382 17.5698 287.509 17.5698C288.206 17.5698 288.583 17.2769 288.812 16.5215C288.812 16.5078 288.945 16.0737 288.945 16.0669L286.294 8.70361L287.927 8.70361L289.783 14.6895L289.811 14.6895L291.668 8.70361L293.259 8.70361L290.509 16.4438C289.88 18.2275 289.155 18.8008 287.634 18.8008C287.428 18.7998 287.223 18.7881 287.02 18.7656L287.018 18.7656Z" fill="#B2B2B2" fill-opacity="1.000000" fill-rule="nonzero"/>
	<path id="samsung pay" d="M323.905 12.4858L325.685 12.4858C326.758 12.4858 327.567 13.2959 327.567 14.3081C327.567 15.3208 326.773 16.145 325.684 16.145L324.876 16.145L324.876 17.606L323.906 17.606L323.906 12.4858L323.905 12.4858ZM324.875 13.3682L324.875 15.248L325.611 15.248C326.184 15.248 326.581 14.8281 326.581 14.3081C326.581 13.7881 326.185 13.3682 325.611 13.3682L324.876 13.3682L324.875 13.3682ZM327.817 15.5669C327.817 14.207 328.831 13.4258 329.89 13.4258C330.434 13.4258 330.934 13.6572 331.229 14.0039L331.229 13.5132L332.185 13.5132L332.185 17.6211L331.229 17.6211L331.229 17.085C331.063 17.2812 330.856 17.4385 330.622 17.5459C330.388 17.6533 330.134 17.7085 329.876 17.707C329.6 17.7026 329.328 17.644 329.075 17.5342C328.821 17.4238 328.592 17.2651 328.401 17.0659C328.209 16.8672 328.059 16.6323 327.959 16.375C327.858 16.1177 327.81 15.8433 327.816 15.5669L327.817 15.5669ZM331.273 15.5518C331.273 14.8579 330.743 14.2939 330.023 14.2939C329.317 14.2939 328.758 14.8442 328.758 15.5518C328.758 16.2612 329.302 16.8252 330.023 16.8252C330.743 16.8252 331.273 16.2612 331.273 15.5518ZM334.288 17.4038L332.581 13.498L333.611 13.498L334.773 16.2612L335.876 13.498L336.89 13.498L334.405 19.501L333.435 19.501L334.287 17.4038L334.288 17.4038ZM314.552 5.875C314.53 5.79443 314.53 5.70947 314.552 5.62891C314.582 5.47021 314.684 5.31104 314.993 5.31104C315.273 5.31104 315.449 5.48486 315.449 5.74512L315.449 6.03516L316.655 6.03516L316.655 5.70117C316.655 4.65918 315.699 4.5 315.008 4.5C314.14 4.5 313.434 4.7749 313.302 5.56982C313.272 5.78711 313.258 5.9751 313.317 6.22119C313.523 7.20508 315.258 7.47998 315.508 8.10107C315.552 8.2168 315.538 8.36182 315.523 8.44922C315.479 8.60791 315.376 8.76709 315.053 8.76709C314.743 8.76709 314.567 8.59277 314.567 8.33301L314.567 7.87012L313.258 7.87012L313.258 8.23193C313.258 9.30176 314.111 9.62109 315.023 9.62109C315.905 9.62109 316.626 9.33105 316.743 8.521C316.803 8.10107 316.758 7.84082 316.743 7.74121C316.537 6.72803 314.699 6.43799 314.553 5.87402L314.552 5.875ZM330.376 5.89014C330.362 5.80859 330.362 5.7251 330.376 5.64404C330.406 5.48389 330.508 5.3252 330.816 5.3252C331.096 5.3252 331.258 5.49902 331.258 5.75879L331.258 6.04883L332.464 6.04883L332.464 5.71582C332.464 4.68896 331.523 4.52979 330.846 4.52979C329.993 4.52979 329.287 4.80518 329.156 5.58594C329.126 5.80322 329.111 5.99121 329.17 6.22217C329.376 7.19189 331.096 7.46582 331.332 8.08789C331.376 8.2041 331.361 8.34814 331.346 8.43506C331.302 8.59521 331.199 8.75391 330.876 8.75391C330.566 8.75391 330.39 8.58008 330.39 8.31982L330.39 7.85693L329.096 7.85693L329.096 8.21777C329.096 9.27393 329.934 9.59277 330.846 9.59277C331.714 9.59277 332.434 9.30322 332.552 8.50781C332.611 8.10303 332.567 7.82812 332.537 7.72705C332.331 6.74316 330.508 6.43896 330.376 5.89014ZM341.42 8.49316L340.273 4.646L338.463 4.646L338.463 9.37598L339.655 9.37598L339.582 5.39795L340.817 9.37598L342.552 9.37598L342.552 4.646L341.346 4.646L341.42 8.49316ZM318.464 4.646L317.567 9.43311L318.876 9.43311L319.552 5.00684L320.214 9.43311L321.523 9.43311L320.626 4.646L318.464 4.646ZM325.817 4.646L325.199 8.39209L324.581 4.646L322.611 4.646L322.508 9.43311L323.728 9.43311L323.758 5.00684L324.596 9.43311L325.832 9.43311L326.67 5.00684L326.7 9.43311L327.92 9.43311L327.817 4.646L325.817 4.646ZM337.111 4.646L335.876 4.646L335.876 8.18896C335.876 8.24707 335.876 8.31885 335.861 8.37793C335.838 8.48242 335.777 8.5752 335.691 8.63867C335.605 8.70215 335.498 8.73291 335.391 8.7251C335.052 8.7251 334.949 8.49316 334.92 8.37793C334.905 8.31982 334.905 8.26221 334.905 8.18994L334.905 4.64502L333.67 4.64502L333.67 8.07324C333.67 8.16016 333.67 8.34814 333.685 8.39111C333.773 9.28809 334.479 9.57715 335.375 9.57715C336.273 9.57715 336.993 9.28711 337.067 8.39111C337.067 8.34814 337.081 8.16016 337.081 8.07324L337.081 4.646L337.111 4.646ZM345.567 6.74316L345.567 7.43701L346.067 7.43701L346.067 8.13184C346.067 8.18994 346.067 8.26221 346.052 8.31982C346.037 8.4502 345.905 8.66699 345.552 8.66699C345.199 8.66699 345.082 8.4502 345.052 8.31982C345.037 8.26221 345.037 8.2041 345.037 8.13184L345.037 5.94678C345.037 5.875 345.037 5.78809 345.052 5.71582C345.082 5.6001 345.185 5.36914 345.537 5.36914C345.905 5.36914 346.008 5.61523 346.023 5.71582C346.037 5.78809 346.037 5.90381 346.037 5.90381L346.037 6.16406L347.258 6.16406L347.258 6.00488C347.258 6.00488 347.258 5.84619 347.243 5.68701C347.155 4.79102 346.405 4.50098 345.538 4.50098C344.671 4.50098 343.935 4.79102 343.832 5.68701C343.816 5.79248 343.806 5.89844 343.803 6.00488L343.803 8.01514C343.803 8.10303 343.803 8.1748 343.818 8.33496C343.891 9.20215 344.671 9.52002 345.524 9.52002C346.391 9.52002 347.156 9.21582 347.23 8.33398C347.244 8.1748 347.244 8.10303 347.244 8.01611L347.244 6.74316L345.568 6.74316L345.567 6.74316Z" fill="#B2B2B2" fill-opacity="1.000000" fill-rule="nonzero"/>
	<path id="Vector" d="M373.686 20.7354L373.639 21.5181C373.626 21.7505 373.609 21.9824 373.589 22.2134C373.56 22.5381 373.528 23.3203 373.105 23.3203L373.089 23.3203C373.051 23.3203 373.003 23.3521 373.003 23.4043L373.003 23.9062C373.003 23.9614 373.039 23.999 373.089 23.999L373.127 23.999C373.445 23.998 373.724 23.9644 373.964 23.6011C374.04 23.4873 374.106 23.3594 374.153 23.2144C374.205 23.0552 374.243 22.8926 374.266 22.7271C374.293 22.5474 374.316 22.3501 374.334 22.1343C374.351 21.9185 374.368 21.6841 374.385 21.4302L374.405 21.0703L375.41 21.0703L375.41 23.9121C375.41 23.9604 375.452 24.0044 375.503 23.999L376.099 23.999C376.162 23.999 376.193 23.9561 376.193 23.9072L376.193 20.645C376.193 20.6104 376.185 20.5767 376.171 20.5449C376.156 20.5132 376.136 20.4849 376.111 20.4609C376.085 20.437 376.056 20.4189 376.023 20.4067C375.991 20.3945 375.956 20.3892 375.921 20.3901L373.946 20.3901C373.794 20.3901 373.704 20.5234 373.697 20.6333C373.695 20.665 373.687 20.6982 373.686 20.7354ZM367.512 24.0005L368.864 24.0005C369.532 24.0244 370.078 23.5601 370.1 22.8682C370.1 22.8081 370.104 22.7383 370.088 22.6602C369.97 22.0942 369.522 21.7041 368.952 21.7041L368.041 21.7041L368.041 21.061L369.595 21.061C369.655 21.062 369.69 21.0215 369.688 20.9634L369.688 20.5054C369.689 20.4424 369.666 20.3901 369.595 20.3921L367.531 20.3921C367.321 20.3921 367.258 20.5464 367.258 20.6465L367.258 23.7461C367.258 23.8862 367.368 24.0005 367.512 24.0005ZM383.948 23.8921L383.948 22.6851L384.803 22.6851C384.995 22.6846 385.183 22.6357 385.35 22.5435C385.518 22.4517 385.66 22.3188 385.763 22.1577C385.866 21.9966 385.927 21.812 385.94 21.6211C385.954 21.4302 385.919 21.2393 385.839 21.0654C385.774 20.9165 385.677 20.7837 385.555 20.6758C385.432 20.5684 385.288 20.4888 385.132 20.4424C385.004 20.4067 384.87 20.3901 384.736 20.3921L383.43 20.3921C383.397 20.3911 383.364 20.3965 383.332 20.4082C383.301 20.4199 383.272 20.4375 383.248 20.4604C383.223 20.4839 383.204 20.5112 383.19 20.542C383.176 20.5728 383.169 20.606 383.168 20.6392C383.168 20.6592 383.165 20.6821 383.165 20.7061L383.165 23.9131C383.165 23.9253 383.167 23.937 383.172 23.9478C383.176 23.9585 383.183 23.9688 383.191 23.9771C383.2 23.9849 383.21 23.9917 383.221 23.9956C383.232 24 383.244 24.002 383.255 24.0015L383.861 24.0015C383.877 24.001 383.893 23.9966 383.907 23.9883C383.92 23.9805 383.931 23.9683 383.938 23.9541C383.946 23.9346 383.95 23.9136 383.948 23.8921ZM385.122 21.5391C385.123 21.6016 385.111 21.6631 385.087 21.7202C385.063 21.7778 385.028 21.8301 384.984 21.874C384.94 21.918 384.888 21.9526 384.831 21.9761C384.773 21.9995 384.712 22.0117 384.649 22.0112L383.949 22.0112L383.949 21.0664L384.617 21.0664C384.92 21.0562 385.122 21.2861 385.122 21.5391ZM381.915 23.249L382.116 23.9185C382.133 23.9795 382.166 24.0005 382.205 24.0005L382.856 24.0005C382.917 24.0005 382.956 23.9502 382.942 23.8882L381.874 20.6743C381.824 20.5171 381.749 20.3921 381.566 20.3921L381.104 20.3921C381.059 20.3882 381.014 20.396 380.972 20.415C380.931 20.4341 380.896 20.4639 380.869 20.5015C380.832 20.5537 380.805 20.6123 380.788 20.6743L379.721 23.8843C379.697 23.9561 379.757 24.0005 379.805 24.0005L380.431 24.0005C380.451 24.0005 380.494 24.0034 380.521 23.9473C380.528 23.9326 380.533 23.9175 380.536 23.9023L380.736 23.249L381.916 23.249L381.915 23.249ZM380.922 22.6104L381.117 21.9585L381.313 21.2241L381.343 21.2241L381.534 21.9585L381.73 22.6104L380.922 22.6104ZM378.755 22.0801L378.755 22.0552C378.865 21.9888 378.96 21.8994 379.031 21.7935C379.109 21.6777 379.164 21.5488 379.193 21.4131L379.43 20.4932C379.433 20.4805 379.432 20.4678 379.428 20.4556C379.425 20.4434 379.419 20.4321 379.41 20.4224C379.402 20.4126 379.392 20.4048 379.38 20.3999C379.369 20.3945 379.356 20.3921 379.343 20.3921L378.781 20.3921C378.761 20.3916 378.741 20.395 378.721 20.4023C378.701 20.4102 378.686 20.4321 378.678 20.4644L378.446 21.3301C378.426 21.4204 378.389 21.5059 378.336 21.582C378.297 21.6392 378.246 21.687 378.185 21.7212C378.133 21.75 378.076 21.77 378.017 21.7803C377.964 21.7886 377.909 21.793 377.854 21.7925L377.447 21.7925L377.447 20.478C377.448 20.4668 377.446 20.4556 377.441 20.4453C377.437 20.4346 377.431 20.4253 377.422 20.4175C377.415 20.4092 377.405 20.4028 377.395 20.3989C377.385 20.3945 377.374 20.3921 377.362 20.3921L376.758 20.3921C376.706 20.3921 376.665 20.4292 376.665 20.4741L376.665 23.9185C376.665 23.9663 376.71 24.0005 376.758 24.0005L377.355 24.0005C377.404 24.0005 377.447 23.9673 377.447 23.9185L377.447 22.3892L377.864 22.3892C377.984 22.3872 378.084 22.3994 378.167 22.4233C378.247 22.4448 378.319 22.4893 378.373 22.5513C378.427 22.6143 378.473 22.7041 378.508 22.8213L378.825 23.9395C378.842 23.9844 378.874 24.0005 378.907 24.0005L379.504 24.0005C379.58 24.0044 379.602 23.9312 379.594 23.8975L379.274 22.7031C379.257 22.6323 379.235 22.562 379.209 22.4932C379.187 22.4326 379.157 22.3755 379.119 22.3232C379.08 22.2695 379.032 22.2231 378.976 22.186C378.908 22.1416 378.833 22.106 378.755 22.0801ZM372.832 23.8823L372.832 23.4082C372.832 23.373 372.805 23.3213 372.745 23.3213L371.346 23.3213C371.311 23.3208 371.277 23.3135 371.244 23.2993C371.212 23.2847 371.183 23.2642 371.16 23.2383C371.136 23.2124 371.118 23.1821 371.106 23.1489C371.095 23.1157 371.09 23.0801 371.092 23.0454L371.092 22.3584L372.578 22.3584C372.601 22.3589 372.624 22.3501 372.64 22.3345C372.657 22.3188 372.667 22.2974 372.667 22.2744L372.667 21.791C372.667 21.7412 372.632 21.7041 372.569 21.7041L371.092 21.7041L371.092 21.3193C371.092 21.1562 371.228 21.0664 371.346 21.0664L372.74 21.0664C372.758 21.0674 372.776 21.0625 372.791 21.0532C372.807 21.0439 372.819 21.0298 372.825 21.0132C372.83 21.0024 372.832 20.9907 372.832 20.9795L372.832 20.4795C372.832 20.4292 372.795 20.3921 372.734 20.3921L371.282 20.3853C371.027 20.3857 370.782 20.4868 370.6 20.666C370.418 20.8457 370.313 21.0898 370.309 21.3452L370.309 23.0532C370.313 23.3042 370.415 23.5444 370.593 23.7212C370.771 23.8984 371.011 23.9985 371.262 24.0005L372.743 24.0005C372.755 24.0005 372.767 23.9985 372.778 23.9946C372.788 23.9902 372.798 23.9839 372.807 23.9756C372.815 23.9678 372.822 23.958 372.826 23.9473C372.83 23.9365 372.833 23.9248 372.832 23.9131L372.832 23.8823ZM387.787 21.0664L387.787 23.9185C387.787 23.9673 387.744 24.0005 387.695 24.0005L387.098 24.0005C387.05 24.0005 387.005 23.9663 387.005 23.9185L387.005 21.0664L386.068 21.0664C386.02 21.0664 385.986 21.0215 385.986 20.9731L385.986 20.4844C385.986 20.4351 386.019 20.3921 386.068 20.3921L388.74 20.3921C388.789 20.3921 388.822 20.4351 388.822 20.4844L388.822 20.9741C388.822 21.0215 388.787 21.0664 388.74 21.0664L387.787 21.0664ZM369.287 22.8262C369.295 23.1113 369.071 23.3164 368.787 23.3164L368.041 23.3164L368.041 22.3584L368.792 22.3584C369.058 22.3584 369.278 22.5425 369.287 22.8271L369.287 22.8262Z" fill="#B2B2B2" fill-opacity="1.000000" fill-rule="nonzero"/>
	<path id="Vector" d="M380.905 15.1802L379.712 17.3125L379.712 16.3726L380.905 15.1802ZM383.271 6.80225L380.555 9.51855C380.517 9.55615 380.496 9.60791 380.496 9.66113C380.496 9.71484 380.517 9.76611 380.555 9.8042L381.887 11.1362L383.755 11.3335L379.915 11.3335C379.861 11.3335 379.809 11.3545 379.771 11.3926C379.733 11.4302 379.712 11.4814 379.712 11.5352L379.712 13.3384L380.922 14.8784L378.206 12.1611C378.168 12.124 378.116 12.103 378.063 12.103C378.01 12.103 377.959 12.124 377.921 12.1611L376.625 13.4575L376.385 15.3823L376.385 11.5425C376.385 11.4883 376.363 11.437 376.325 11.3989C376.287 11.3608 376.235 11.3394 376.182 11.3394L374.242 11.3394L372.812 12.5073L375.527 9.7915C375.564 9.75342 375.586 9.70166 375.586 9.64844C375.586 9.59473 375.564 9.54346 375.527 9.50537L374.167 8.14551L372.325 7.97021L376.165 7.97021C376.191 7.9707 376.218 7.96533 376.242 7.95508C376.267 7.94531 376.289 7.93018 376.308 7.91162C376.327 7.89258 376.342 7.87061 376.352 7.8457C376.362 7.82129 376.368 7.79492 376.368 7.76855L376.368 5.93457L375.169 4.43018L377.885 7.14648C377.923 7.18408 377.974 7.20508 378.028 7.20508C378.081 7.20508 378.133 7.18408 378.171 7.14648L379.506 5.81055L379.703 3.92725L379.703 7.76709C379.703 7.87939 379.794 7.97021 379.905 7.97021L381.818 7.97021L383.27 6.80225L383.271 6.80225ZM383.957 13.2056L383.957 11.5352L384.64 13.8892L383.957 13.2056ZM387.642 10.8872L384.725 7.97021L383.557 6.80225L385.684 7.97021C385.737 7.97021 385.788 7.94873 385.826 7.91064C385.864 7.87305 385.885 7.82178 385.886 7.76855L385.886 3.92822C385.886 3.90186 385.881 3.875 385.87 3.85059C385.86 3.82568 385.845 3.80322 385.826 3.78467C385.808 3.76562 385.785 3.75049 385.76 3.74072C385.736 3.73047 385.709 3.7251 385.683 3.7251L381.593 3.7251L382.257 3.06152L381.593 3.7251L379.906 3.7251L382.257 3.06152C382.275 3.04248 382.29 3.02051 382.301 2.99561C382.311 2.97119 382.316 2.94482 382.316 2.91846C382.316 2.8916 382.311 2.86523 382.301 2.84082C382.29 2.81641 382.275 2.79395 382.257 2.77539L379.541 0.0595703C379.522 0.0405273 379.5 0.0253906 379.475 0.015625C379.45 0.00537109 379.424 0 379.398 0C379.371 0 379.345 0.00537109 379.32 0.015625C379.296 0.0253906 379.273 0.0405273 379.255 0.0595703L376.369 2.94727L375.134 4.19629L375.134 4.19727L375.135 4.19434L375.141 4.18213L376.369 1.99023C376.369 1.93652 376.347 1.88525 376.309 1.84766C376.272 1.80957 376.22 1.78809 376.167 1.78809L372.326 1.78809C372.272 1.78857 372.221 1.81006 372.183 1.84766C372.145 1.88574 372.124 1.93701 372.124 1.99023L372.124 7.76709L371.444 5.41943C371.406 5.38135 371.354 5.35986 371.3 5.35986C371.246 5.35986 371.195 5.38135 371.157 5.41943L368.442 8.13525C368.423 8.1543 368.408 8.17627 368.398 8.20068C368.388 8.22559 368.382 8.25195 368.382 8.27832C368.382 8.30469 368.388 8.33105 368.398 8.35596C368.408 8.38037 368.423 8.40234 368.442 8.42139L372.527 12.5063L370.406 11.3384C370.352 11.3384 370.301 11.3599 370.263 11.3979C370.225 11.4355 370.204 11.4868 370.204 11.5405L370.204 15.3804C370.204 15.4922 370.294 15.5835 370.406 15.5835L376.183 15.5835L373.837 16.2451C373.799 16.2832 373.778 16.335 373.778 16.3882C373.778 16.4419 373.799 16.4932 373.837 16.5312L376.553 19.2476C376.59 19.2852 376.642 19.3062 376.695 19.3062C376.749 19.3062 376.8 19.2852 376.838 19.2476L379.713 16.3726L379.713 17.3115C379.713 17.4214 379.804 17.5132 379.915 17.5132L383.756 17.5132C383.809 17.5132 383.86 17.4917 383.898 17.4541C383.936 17.416 383.957 17.3647 383.958 17.3115L383.958 13.2041L384.641 13.8882C384.679 13.9263 384.73 13.9473 384.784 13.9473C384.837 13.9473 384.889 13.9263 384.927 13.8882L387.643 11.1724C387.68 11.1343 387.702 11.083 387.702 11.0293C387.702 10.9756 387.68 10.9243 387.643 10.8862L387.642 10.8872Z" fill="#B2B2B2" fill-opacity="1.000000" fill-rule="evenodd"/>
	<path id="Vector" d="M415.574 7.90137L409.669 7.90137C409.558 7.90137 409.448 7.92285 409.346 7.96484C409.243 8.00732 409.15 8.06934 409.071 8.14795C408.992 8.22607 408.93 8.31934 408.887 8.42188C408.845 8.52441 408.823 8.63428 408.823 8.74561L408.823 14.6265C408.823 15.0923 409.203 15.4702 409.669 15.4702L415.574 15.4702C415.685 15.4707 415.795 15.4492 415.897 15.4067C416 15.3643 416.093 15.3022 416.172 15.2241C416.251 15.1455 416.313 15.0522 416.356 14.9497C416.398 14.8472 416.42 14.7373 416.421 14.6265L416.421 8.74561C416.421 8.63428 416.399 8.52441 416.356 8.42139C416.313 8.31885 416.251 8.22559 416.172 8.14697C416.094 8.06885 416 8.00635 415.897 7.96436C415.795 7.92188 415.685 7.8999 415.574 7.90039L415.574 7.90137Z" fill="#B2B2B2" fill-opacity="1.000000" fill-rule="nonzero"/>
	<path id="Vector" d="M413.968 13.5283L413.062 13.5283C413.049 13.5283 413.037 13.5234 413.029 13.5146C413.02 13.5059 413.015 13.4941 413.015 13.4814L413.015 13.2573L412.333 13.9375C412.324 13.9463 412.312 13.9512 412.299 13.9512C412.286 13.9512 412.274 13.9463 412.266 13.9375L411.626 13.3018C411.617 13.2925 411.612 13.2808 411.612 13.2681C411.612 13.2554 411.617 13.2437 411.626 13.2344L411.784 13.0767L410.82 13.0767C410.807 13.0767 410.795 13.0713 410.786 13.0625C410.777 13.0537 410.772 13.042 410.772 13.0298L410.772 12.1245C410.772 12.1182 410.773 12.1123 410.775 12.1064C410.778 12.1006 410.781 12.0952 410.786 12.0908C410.79 12.0864 410.795 12.083 410.801 12.0811C410.807 12.0786 410.813 12.0776 410.82 12.0776L411.044 12.0776L410.362 11.3975C410.353 11.3887 410.348 11.3765 410.348 11.3643C410.348 11.3516 410.353 11.3394 410.362 11.3306L411.002 10.6924C411.006 10.688 411.011 10.6846 411.017 10.6821C411.023 10.6797 411.029 10.6782 411.036 10.6782C411.042 10.6782 411.048 10.6797 411.054 10.6821C411.06 10.6846 411.065 10.688 411.07 10.6924L411.228 10.8506L411.228 9.89062C411.227 9.88086 411.23 9.87158 411.236 9.86377C411.241 9.85596 411.249 9.8501 411.258 9.84668C411.263 9.84424 411.269 9.84326 411.276 9.84375L412.182 9.84375C412.188 9.84375 412.194 9.84473 412.2 9.84717C412.205 9.84961 412.21 9.85303 412.215 9.85742C412.219 9.86182 412.223 9.8667 412.225 9.87256C412.227 9.87842 412.229 9.88428 412.229 9.89062L412.229 10.1138L412.911 9.43359C412.919 9.4248 412.932 9.41992 412.944 9.41992C412.957 9.41992 412.969 9.4248 412.978 9.43359L413.619 10.0737C413.627 10.0825 413.632 10.0942 413.632 10.1064C413.632 10.1187 413.627 10.1309 413.619 10.1396L413.46 10.2974L414.425 10.2974C414.437 10.2979 414.449 10.3027 414.457 10.3115C414.466 10.3203 414.471 10.332 414.472 10.3447L414.472 11.2476C414.471 11.2598 414.466 11.272 414.457 11.2803C414.449 11.2891 414.437 11.2944 414.425 11.2944L414.2 11.2944L414.882 11.9746C414.89 11.9834 414.895 11.9951 414.895 12.0073C414.895 12.02 414.89 12.0317 414.882 12.0405L414.242 12.6787C414.237 12.6831 414.232 12.6865 414.226 12.689C414.22 12.6914 414.214 12.6924 414.208 12.6924C414.201 12.6924 414.195 12.6914 414.189 12.689C414.183 12.6865 414.178 12.6831 414.174 12.6787L414.016 12.5205L414.016 13.4814C414.015 13.4941 414.01 13.5059 414.001 13.5146C413.992 13.5234 413.98 13.5283 413.968 13.5283ZM413.851 11.0137L413.497 11.2944L413.063 11.2944C413.05 11.2944 413.038 11.2891 413.03 11.2803C413.021 11.272 413.016 11.2598 413.016 11.2476L413.016 10.3447L412.965 10.7925L412.657 11.0986C412.647 11.1074 412.635 11.1123 412.623 11.1123C412.61 11.1123 412.598 11.1074 412.589 11.0986L412.23 10.7427L411.95 10.4614L412.23 10.8145L412.23 11.2485C412.229 11.2607 412.224 11.2729 412.215 11.2817C412.207 11.29 412.195 11.2954 412.183 11.2954L411.277 11.2954L411.727 11.3467L412.034 11.6523C412.038 11.6567 412.042 11.6621 412.044 11.668C412.047 11.6733 412.048 11.6797 412.048 11.686C412.048 11.6924 412.047 11.6987 412.044 11.7041C412.042 11.71 412.038 11.7153 412.034 11.7197L411.394 12.3574L411.748 12.0776L412.183 12.0776C412.189 12.0776 412.195 12.0786 412.201 12.0811C412.207 12.0835 412.212 12.0874 412.216 12.0918C412.22 12.0962 412.224 12.1016 412.226 12.1074C412.229 12.1133 412.23 12.1191 412.23 12.1255L412.23 13.0273L412.282 12.5806L412.589 12.2725C412.598 12.2642 412.61 12.2593 412.623 12.2593C412.635 12.2593 412.647 12.2642 412.657 12.2725L413.297 12.9116L413.016 12.5586L413.016 12.1255C413.016 12.1133 413.02 12.1011 413.029 12.0923C413.038 12.0835 413.05 12.0786 413.063 12.0786L413.969 12.0786L413.519 12.0264L413.212 11.7197C413.207 11.7153 413.204 11.71 413.201 11.7046C413.199 11.6987 413.198 11.6929 413.198 11.6865C413.197 11.6802 413.199 11.6738 413.201 11.668C413.203 11.6621 413.207 11.6567 413.212 11.6523L413.572 11.2954L413.852 11.0137L413.851 11.0137Z" fill="#FFFFFF" fill-opacity="1.000000" fill-rule="evenodd"/>
	<path id="Vector" d="M420.478 10.9326C420.488 11.2842 420.21 11.5396 419.856 11.5396L418.926 11.5396L418.926 10.3496L419.862 10.3496C419.94 10.3467 420.019 10.3594 420.093 10.3872C420.167 10.4155 420.234 10.4575 420.292 10.5117C420.349 10.5659 420.395 10.6313 420.427 10.7036C420.459 10.7759 420.476 10.8535 420.478 10.9326ZM443.533 8.74658L443.533 12.2866C443.532 12.3081 443.526 12.3296 443.513 12.3477C443.5 12.3652 443.482 12.3789 443.462 12.3862C443.448 12.3916 443.433 12.394 443.419 12.3936L442.673 12.3936C442.644 12.395 442.616 12.3848 442.594 12.3657C442.572 12.3467 442.559 12.3203 442.557 12.2915L442.557 8.74658L441.39 8.74658C441.361 8.74414 441.334 8.73096 441.315 8.70947C441.296 8.68799 441.286 8.66016 441.288 8.63135L441.288 8.02441C441.287 8.00977 441.288 7.99561 441.293 7.98193C441.298 7.96777 441.305 7.95508 441.315 7.94434C441.324 7.93359 441.336 7.92529 441.348 7.91895C441.361 7.9126 441.375 7.90918 441.39 7.9082L444.72 7.9082C444.749 7.91016 444.776 7.92334 444.795 7.94531C444.814 7.9668 444.824 7.99561 444.823 8.02441L444.823 8.63135C444.824 8.66016 444.814 8.68848 444.795 8.70996C444.775 8.73145 444.748 8.74463 444.72 8.74658L443.533 8.74658ZM424.896 12.2422L424.896 11.6504C424.896 11.6216 424.884 11.5942 424.864 11.5742C424.844 11.5537 424.816 11.5425 424.788 11.5425L423.048 11.5425C423.004 11.542 422.961 11.5327 422.921 11.5151C422.88 11.4976 422.844 11.4717 422.815 11.4395C422.785 11.4072 422.762 11.3696 422.748 11.3281C422.733 11.2871 422.727 11.2432 422.731 11.1992L422.731 10.3506L424.583 10.3506C424.61 10.3496 424.636 10.3384 424.656 10.3193C424.676 10.2998 424.687 10.2739 424.689 10.2466L424.689 9.64844C424.689 9.625 424.682 9.60205 424.668 9.58301C424.655 9.56396 424.635 9.55029 424.613 9.54346C424.598 9.53857 424.582 9.5376 424.567 9.53955L422.728 9.53955L422.728 9.0625C422.727 9.021 422.735 8.97949 422.751 8.94092C422.767 8.90283 422.79 8.86768 422.82 8.83838C422.849 8.80908 422.885 8.78564 422.923 8.77002C422.962 8.75439 423.003 8.74707 423.045 8.74756L424.785 8.74756C424.799 8.74805 424.814 8.74609 424.828 8.74072C424.842 8.73584 424.855 8.72803 424.865 8.71777C424.876 8.70752 424.884 8.69531 424.89 8.68164C424.896 8.66797 424.899 8.65332 424.899 8.63818L424.899 8.01855C424.899 8.00293 424.895 7.9873 424.889 7.97314C424.883 7.95898 424.874 7.94629 424.862 7.93604C424.851 7.92578 424.837 7.91797 424.822 7.91309C424.808 7.9082 424.792 7.90674 424.777 7.9082L422.967 7.90039C422.649 7.90137 422.344 8.02637 422.118 8.24854C421.891 8.4707 421.76 8.77295 421.753 9.09033L421.753 11.2124C421.755 11.5259 421.881 11.8257 422.103 12.0464C422.325 12.2676 422.625 12.3926 422.939 12.3936L424.786 12.3936C424.8 12.3936 424.814 12.3911 424.828 12.3862C424.841 12.3809 424.853 12.373 424.864 12.3628C424.874 12.3525 424.882 12.3408 424.887 12.3271C424.893 12.314 424.896 12.2998 424.896 12.2852L424.896 12.2422ZM432.277 10.0054L432.277 9.97363C432.414 9.8916 432.532 9.78027 432.622 9.64844C432.718 9.50537 432.786 9.34521 432.822 9.17627L433.118 8.03662C433.122 8.0127 433.119 7.98828 433.108 7.9668C433.097 7.94531 433.079 7.92822 433.057 7.91846C433.042 7.91162 433.026 7.9082 433.011 7.9082L432.314 7.9082C432.288 7.90771 432.263 7.91211 432.24 7.92236C432.225 7.92969 432.212 7.94043 432.203 7.95361C432.193 7.9668 432.187 7.98242 432.185 7.99854L431.897 9.07227C431.871 9.18408 431.824 9.28955 431.76 9.38428C431.71 9.45508 431.645 9.51416 431.57 9.55615C431.504 9.59277 431.433 9.61768 431.36 9.63037C431.294 9.64062 431.227 9.64551 431.16 9.64551L430.648 9.64551L430.648 8.01758C430.648 7.99609 430.641 7.97559 430.63 7.95801C430.618 7.94092 430.601 7.92725 430.582 7.91943C430.569 7.91455 430.555 7.91211 430.541 7.9126L429.788 7.9126C429.759 7.91064 429.731 7.92041 429.709 7.93945C429.687 7.95801 429.674 7.98486 429.672 8.01318L429.672 12.2896C429.674 12.3184 429.687 12.3447 429.709 12.3638C429.731 12.3828 429.759 12.3926 429.788 12.3916L430.534 12.3916C430.555 12.3931 430.577 12.3882 430.595 12.3774C430.614 12.3667 430.629 12.3506 430.639 12.3315C430.645 12.3184 430.648 12.3037 430.649 12.2896L430.649 10.3906L431.169 10.3906C431.296 10.3853 431.424 10.4004 431.547 10.4312C431.647 10.4585 431.735 10.5142 431.803 10.5913C431.881 10.6904 431.937 10.8052 431.969 10.9272L432.363 12.3145C432.369 12.3369 432.382 12.3564 432.401 12.3701C432.42 12.3843 432.442 12.3916 432.466 12.3916L433.212 12.3916C433.236 12.3926 433.261 12.3853 433.281 12.3711C433.301 12.3564 433.315 12.3354 433.322 12.3115C433.326 12.2959 433.327 12.2793 433.324 12.2632L432.926 10.7764C432.902 10.6885 432.875 10.6016 432.843 10.5166C432.815 10.4404 432.777 10.3687 432.73 10.3032C432.681 10.2373 432.62 10.1802 432.552 10.1343C432.466 10.0796 432.373 10.0356 432.276 10.0044L432.277 10.0054ZM434.977 10.6655L435.221 9.85547L435.465 8.94824L435.503 8.94824L435.741 9.85645L435.985 10.6665L434.977 10.6665L434.977 10.6655ZM436.215 11.4585L436.465 12.2896C436.485 12.3652 436.526 12.3916 436.575 12.3916L437.387 12.3916C437.404 12.3916 437.421 12.3882 437.436 12.3809C437.452 12.3735 437.465 12.3623 437.476 12.3486C437.486 12.335 437.493 12.3188 437.496 12.3022C437.499 12.2852 437.498 12.2676 437.493 12.2515L436.163 8.26123C436.099 8.06836 436.007 7.91162 435.779 7.91162L435.204 7.91162C435.147 7.90576 435.091 7.91553 435.039 7.93848C434.988 7.96191 434.943 7.99854 434.911 8.04443C434.864 8.10986 434.83 8.18311 434.809 8.26025L433.483 12.2456C433.477 12.2617 433.475 12.2798 433.477 12.2969C433.48 12.3145 433.486 12.3311 433.497 12.3452C433.507 12.3594 433.52 12.3711 433.536 12.3789C433.552 12.3867 433.569 12.3906 433.587 12.3906L434.367 12.3906C434.39 12.3931 434.413 12.3882 434.433 12.3765C434.453 12.3643 434.469 12.3462 434.478 12.3242C434.486 12.3062 434.492 12.2876 434.498 12.2686L434.747 11.4575L436.215 11.4585ZM440.212 9.33545C440.212 9.45166 440.178 9.56543 440.113 9.66211C440.048 9.75879 439.956 9.83398 439.848 9.87744C439.776 9.90674 439.7 9.92236 439.623 9.92236L438.748 9.92236L438.748 8.75049L439.583 8.75049C439.663 8.74561 439.743 8.75684 439.819 8.78418C439.895 8.81152 439.964 8.85352 440.023 8.9082C440.082 8.96338 440.129 9.0293 440.161 9.10303C440.194 9.17676 440.211 9.25586 440.212 9.33643L440.212 9.33545ZM438.748 12.2573L438.748 10.7573L439.815 10.7573C440.003 10.7559 440.19 10.7173 440.363 10.6436C440.537 10.5693 440.695 10.4624 440.827 10.3271C441.026 10.1226 441.16 9.8623 441.209 9.58008C441.259 9.29834 441.222 9.00781 441.104 8.74756C441.022 8.56201 440.901 8.39648 440.749 8.2627C440.597 8.12891 440.418 8.02979 440.224 7.97217C440.063 7.92822 439.896 7.90625 439.73 7.9082L438.103 7.9082C438.061 7.90674 438.019 7.91357 437.98 7.92822C437.942 7.94287 437.906 7.96533 437.876 7.99365C437.845 8.02246 437.821 8.05664 437.804 8.09473C437.787 8.13281 437.778 8.17383 437.777 8.21533C437.777 8.24219 437.773 8.26953 437.777 8.29834L437.777 12.2803C437.776 12.3022 437.783 12.3232 437.795 12.3408C437.807 12.3589 437.824 12.3726 437.845 12.3804C437.858 12.3857 437.872 12.3887 437.887 12.3882L438.645 12.3882C438.664 12.3882 438.683 12.3823 438.699 12.3721C438.716 12.3618 438.729 12.3477 438.739 12.3306C438.749 12.3062 438.753 12.2803 438.751 12.2544L438.748 12.2573ZM418.268 12.3936L419.952 12.3936C420.781 12.4224 421.464 11.8462 421.492 10.9893C421.496 10.9033 421.492 10.8174 421.477 10.7324C421.329 10.0283 420.771 9.54541 420.06 9.54541L418.926 9.54541L418.926 8.74658L420.863 8.74658C420.878 8.74756 420.894 8.74463 420.909 8.73877C420.924 8.7334 420.938 8.72412 420.949 8.71289C420.96 8.70117 420.968 8.6875 420.973 8.67236C420.978 8.65723 420.98 8.64111 420.979 8.62549L420.979 8.05615C420.979 7.97363 420.951 7.91357 420.863 7.91553L418.294 7.91553C418.25 7.91162 418.206 7.91748 418.165 7.93164C418.124 7.9458 418.086 7.96875 418.054 7.99854C418.022 8.02783 417.996 8.06396 417.979 8.10449C417.962 8.14453 417.953 8.1875 417.954 8.23145L417.954 12.0815C417.953 12.144 417.971 12.2051 418.006 12.2568C418.041 12.3091 418.091 12.3491 418.149 12.3726C418.187 12.3882 418.229 12.3965 418.271 12.3965L418.268 12.3936ZM425.96 8.34131L425.902 9.31348C425.883 9.64355 425.862 9.93018 425.839 10.1753C425.804 10.5796 425.763 11.5493 425.237 11.5493L425.216 11.5493C425.188 11.5498 425.161 11.561 425.141 11.5806C425.121 11.6001 425.109 11.6265 425.108 11.6543L425.108 12.2773C425.106 12.2998 425.112 12.3223 425.123 12.3413C425.135 12.3608 425.153 12.3755 425.174 12.3843C425.187 12.3906 425.202 12.3936 425.218 12.3936L425.264 12.3936C425.66 12.3936 426.01 12.3496 426.308 11.8984C426.408 11.7485 426.487 11.5884 426.543 11.4185C426.607 11.2202 426.653 11.0186 426.683 10.8125C426.72 10.5684 426.748 10.3228 426.767 10.0762C426.788 9.80957 426.81 9.51855 426.831 9.20361L426.856 8.75537L428.108 8.75537L428.108 12.2842C428.107 12.3066 428.114 12.3286 428.127 12.3467C428.14 12.3647 428.158 12.3789 428.179 12.3862C428.193 12.3911 428.208 12.3936 428.223 12.3926L428.969 12.3926C428.992 12.3936 429.015 12.3877 429.034 12.375C429.054 12.3628 429.069 12.3442 429.078 12.3223C429.083 12.3081 429.085 12.2925 429.085 12.2773L429.085 8.23047C429.083 8.16553 429.062 8.10254 429.024 8.04932C428.987 7.99658 428.934 7.95654 428.873 7.93457C428.832 7.91943 428.789 7.9126 428.746 7.91455L426.283 7.91455C426.203 7.91699 426.127 7.94971 426.069 8.00537C426.012 8.06104 425.978 8.13672 425.974 8.21631C425.971 8.24854 425.962 8.29053 425.959 8.33643L425.959 8.34033L425.96 8.34131ZM419.372 13.9116L419.081 14.4014L418.528 15.2935C418.511 15.3184 418.494 15.3428 418.476 15.3662C418.461 15.3838 418.444 15.3984 418.426 15.4102C418.407 15.4214 418.387 15.4287 418.366 15.4312C418.338 15.4351 418.31 15.4365 418.283 15.4365L418.153 15.4365C418.122 15.4404 418.09 15.4375 418.06 15.4268C418.031 15.4165 418.004 15.3989 417.983 15.3765C417.952 15.3271 417.937 15.2695 417.94 15.2114L417.94 13.2192C417.94 13.1772 417.963 13.1572 418.009 13.1572L418.359 13.1572C418.389 13.1572 418.409 13.1616 418.416 13.1704C418.426 13.1846 418.429 13.2021 418.428 13.2192L418.428 14.6802L418.447 14.6802L418.725 14.2246L419.29 13.3003C419.31 13.2705 419.328 13.2446 419.343 13.2256C419.355 13.2075 419.371 13.1924 419.39 13.1807C419.408 13.1689 419.429 13.1616 419.451 13.1582C419.478 13.1548 419.505 13.1533 419.533 13.1533L419.667 13.1533C419.696 13.1504 419.726 13.1528 419.755 13.1616C419.783 13.1699 419.81 13.1846 419.833 13.2036C419.87 13.2554 419.888 13.3193 419.883 13.3833L419.883 15.3784C419.883 15.4194 419.86 15.4404 419.813 15.4404L419.459 15.4404C419.438 15.4424 419.418 15.4375 419.401 15.4263C419.39 15.4126 419.385 15.3955 419.387 15.3784L419.387 13.9102L419.372 13.9102L419.372 13.9116ZM420.809 15.3716C420.809 15.3994 420.805 15.4175 420.795 15.4253C420.776 15.4346 420.755 15.4385 420.735 15.4365L420.407 15.4365C420.359 15.4365 420.335 15.4146 420.335 15.3716L420.335 13.7886C420.335 13.7466 420.359 13.7266 420.407 13.7266L420.735 13.7266C420.755 13.7241 420.776 13.728 420.795 13.7373C420.805 13.7456 420.809 13.7622 420.809 13.7876L420.809 14.3452L421.421 14.3452L421.421 13.7886C421.421 13.7466 421.445 13.7266 421.494 13.7266L421.826 13.7266C421.846 13.7236 421.866 13.7275 421.884 13.7373C421.895 13.7515 421.9 13.7695 421.898 13.7876L421.898 15.3716C421.898 15.3994 421.898 15.4175 421.884 15.4253C421.866 15.4351 421.845 15.439 421.825 15.4365L421.494 15.4365C421.445 15.4365 421.421 15.4146 421.421 15.3716L421.421 14.7163L420.809 14.7163L420.809 15.3716ZM423.141 14.1113L423.141 15.3716C423.141 15.3994 423.136 15.4175 423.126 15.4253C423.107 15.4351 423.086 15.4385 423.066 15.4365L422.742 15.4365C422.692 15.4365 422.667 15.4146 422.667 15.3716L422.667 14.1113L422.203 14.1113C422.159 14.1113 422.137 14.0864 422.137 14.0396L422.137 13.8003C422.135 13.7798 422.139 13.7588 422.149 13.7402C422.156 13.7305 422.174 13.7256 422.203 13.7256L423.611 13.7256C423.62 13.7236 423.629 13.7241 423.639 13.7266C423.648 13.729 423.656 13.7334 423.664 13.7393C423.674 13.7573 423.679 13.7793 423.677 13.7993L423.677 14.0386C423.677 14.0854 423.655 14.1094 423.611 14.1094L423.141 14.1094L423.141 14.1113ZM424.573 13.6836C424.828 13.6836 425.019 13.7476 425.146 13.8745C425.213 13.9478 425.264 14.0337 425.297 14.1279C425.33 14.2217 425.344 14.3213 425.338 14.4204C425.347 14.5029 425.323 14.5859 425.272 14.6514C425.222 14.6948 425.157 14.7173 425.092 14.7134L424.256 14.7134C424.256 14.7734 424.268 14.8315 424.29 14.8862C424.309 14.9282 424.337 14.9663 424.373 14.9966C424.409 15.0249 424.451 15.0454 424.496 15.0552C424.61 15.0771 424.728 15.0752 424.842 15.0483C424.904 15.0342 424.965 15.0142 425.024 14.9902C425.041 14.9829 425.059 14.98 425.078 14.9814C425.091 14.9883 425.101 14.9995 425.106 15.0132L425.21 15.2476C425.214 15.2539 425.217 15.2617 425.218 15.27C425.218 15.2778 425.217 15.2856 425.215 15.2935C425.206 15.3071 425.195 15.3184 425.181 15.3252C425.095 15.3799 425 15.418 424.901 15.4385C424.803 15.46 424.703 15.4712 424.603 15.4722C424.317 15.4722 424.105 15.4014 423.968 15.2612C423.83 15.1216 423.762 14.8965 423.762 14.5894C423.76 14.4595 423.78 14.3296 423.82 14.2065C423.855 14.1011 423.911 14.0044 423.985 13.9214C424.055 13.8433 424.143 13.7827 424.241 13.7446C424.346 13.7036 424.458 13.6831 424.572 13.6846L424.573 13.6836ZM424.583 14.0752C424.541 14.0742 424.5 14.0815 424.463 14.0981C424.425 14.1143 424.391 14.1387 424.364 14.1694C424.305 14.2363 424.27 14.3213 424.265 14.4102L424.877 14.4102C424.877 14.3652 424.872 14.3203 424.862 14.2764C424.853 14.2388 424.837 14.2026 424.815 14.1714C424.792 14.1406 424.761 14.1167 424.726 14.1016C424.68 14.0825 424.632 14.0737 424.583 14.0752ZM426.157 16.0454C426.157 16.0693 426.157 16.0854 426.147 16.0903C426.129 16.0991 426.108 16.1025 426.089 16.1006L425.752 16.1006C425.734 16.1016 425.716 16.0981 425.7 16.0903C425.69 16.0845 425.683 16.0693 425.683 16.0454L425.683 13.9204C425.683 13.9004 425.687 13.8813 425.695 13.8633C425.708 13.8442 425.727 13.8296 425.749 13.8203C425.861 13.7705 425.979 13.7363 426.1 13.7192C426.223 13.6992 426.347 13.6895 426.472 13.6895C426.605 13.6855 426.738 13.7095 426.862 13.7593C426.96 13.8003 427.048 13.8643 427.116 13.9463C427.185 14.0278 427.233 14.125 427.256 14.2295C427.314 14.457 427.313 14.6953 427.253 14.9224C427.225 15.0244 427.177 15.1196 427.113 15.2036C427.048 15.2852 426.965 15.3506 426.871 15.3945C426.763 15.4434 426.646 15.4673 426.528 15.4644C426.403 15.4644 426.279 15.4512 426.158 15.4253L426.158 16.0444L426.157 16.0454ZM426.802 14.5693C426.803 14.4937 426.794 14.4185 426.776 14.3452C426.761 14.291 426.735 14.2407 426.699 14.1982C426.664 14.1616 426.621 14.1348 426.573 14.1206C426.519 14.1045 426.463 14.0967 426.408 14.0972C426.323 14.0986 426.239 14.1108 426.158 14.1343L426.158 15.0234C426.247 15.0479 426.339 15.0596 426.432 15.0586C426.481 15.0601 426.531 15.0508 426.577 15.0317C426.623 15.0132 426.664 14.9844 426.699 14.9482C426.769 14.8735 426.803 14.7485 426.803 14.5693L426.802 14.5693ZM428.132 15.3716C428.132 15.3994 428.127 15.4175 428.117 15.4253C428.098 15.4346 428.077 15.4385 428.057 15.4365L427.73 15.4365C427.682 15.4365 427.658 15.4146 427.658 15.3716L427.658 13.7886C427.658 13.7466 427.682 13.7266 427.73 13.7266L428.057 13.7266C428.077 13.7241 428.098 13.728 428.117 13.7373C428.122 13.7441 428.127 13.752 428.13 13.7607C428.132 13.7695 428.133 13.7783 428.132 13.7876L428.132 14.3452L428.744 14.3452L428.744 13.7886C428.744 13.7466 428.768 13.7266 428.816 13.7266L429.148 13.7266C429.168 13.7236 429.189 13.7275 429.208 13.7373C429.213 13.7446 429.217 13.7524 429.219 13.7612C429.221 13.7695 429.222 13.7788 429.221 13.7876L429.221 15.3716C429.221 15.3994 429.216 15.4175 429.207 15.4253C429.188 15.4351 429.167 15.439 429.147 15.4365L428.817 15.4365C428.768 15.4365 428.744 15.4146 428.744 15.3716L428.744 14.7163L428.132 14.7163L428.132 15.3716ZM430.385 13.6836C430.64 13.6836 430.832 13.7476 430.959 13.8745C431.025 13.9478 431.077 14.0342 431.109 14.1279C431.142 14.2217 431.156 14.3213 431.15 14.4204C431.159 14.5029 431.135 14.5859 431.084 14.6514C431.034 14.6948 430.969 14.7173 430.904 14.7134L430.068 14.7134C430.068 14.7734 430.08 14.8315 430.102 14.8862C430.12 14.9287 430.148 14.9663 430.184 14.9956C430.219 15.0249 430.261 15.0454 430.307 15.0552C430.421 15.0771 430.539 15.0752 430.653 15.0483C430.715 15.0342 430.777 15.0142 430.836 14.9902C430.852 14.9829 430.871 14.9795 430.89 14.9814C430.902 14.9883 430.912 15 430.917 15.0132L431.021 15.2476C431.025 15.2539 431.028 15.2617 431.029 15.27C431.029 15.2778 431.028 15.2856 431.026 15.2935C431.017 15.3071 431.006 15.3184 430.992 15.3252C430.906 15.3799 430.811 15.4185 430.712 15.4385C430.614 15.46 430.514 15.4712 430.414 15.4722C430.128 15.4722 429.917 15.4014 429.779 15.2612C429.642 15.1216 429.579 14.8965 429.579 14.5894C429.577 14.4595 429.596 14.3296 429.636 14.2065C429.671 14.1011 429.727 14.0039 429.802 13.9214C429.872 13.8438 429.959 13.7832 430.057 13.7446C430.162 13.7036 430.274 13.6831 430.388 13.6846L430.385 13.6846L430.385 13.6836ZM430.395 14.0752C430.353 14.0742 430.312 14.0815 430.275 14.0981C430.237 14.1143 430.203 14.1387 430.176 14.1694C430.117 14.2363 430.082 14.3213 430.077 14.4102L430.689 14.4102C430.689 14.3652 430.684 14.3203 430.674 14.2764C430.665 14.2388 430.649 14.2026 430.627 14.1714C430.604 14.1411 430.573 14.1167 430.539 14.1016C430.493 14.0825 430.444 14.0737 430.395 14.0752ZM432.321 14.1104L432.321 15.3716C432.321 15.3994 432.316 15.4175 432.306 15.4253C432.287 15.4346 432.266 15.4385 432.246 15.4365L431.922 15.4365C431.872 15.4365 431.847 15.4146 431.847 15.3716L431.847 14.1113L431.382 14.1113C431.339 14.1113 431.317 14.0864 431.317 14.0396L431.317 13.8003C431.314 13.7798 431.318 13.7588 431.328 13.7402C431.336 13.7305 431.354 13.7256 431.382 13.7256L432.795 13.7256C432.804 13.7241 432.813 13.7246 432.822 13.7271C432.831 13.7295 432.839 13.7339 432.847 13.7393C432.857 13.7573 432.862 13.7783 432.86 13.7993L432.86 14.0386C432.86 14.0854 432.838 14.1094 432.795 14.1094L432.321 14.1094L432.321 14.1104ZM435.018 15.3745C435.019 15.3833 435.018 15.3921 435.016 15.4009C435.014 15.4092 435.01 15.4175 435.005 15.4243C434.987 15.4351 434.965 15.4395 434.945 15.4365L434.589 15.4365C434.544 15.4365 434.521 15.4165 434.521 15.3745L434.521 13.5864L433.64 13.5864L433.64 15.3745C433.642 15.3921 433.637 15.4102 433.627 15.4243C433.609 15.4346 433.588 15.439 433.568 15.4365L433.208 15.4365C433.162 15.4365 433.14 15.4165 433.14 15.3745L433.14 13.3745C433.135 13.3154 433.152 13.2568 433.187 13.2095C433.209 13.189 433.235 13.1733 433.264 13.1641C433.292 13.1548 433.323 13.1519 433.353 13.1553L434.815 13.1553C434.844 13.1519 434.875 13.1548 434.903 13.1641C434.931 13.1733 434.958 13.189 434.98 13.2095C435.014 13.2573 435.03 13.3154 435.026 13.3745L435.026 15.3745L435.018 15.3745ZM436.931 15.2246C436.931 15.249 436.927 15.2734 436.919 15.2964C436.906 15.3208 436.886 15.3398 436.862 15.3516C436.81 15.3765 436.755 15.396 436.7 15.4102C436.583 15.4399 436.463 15.4585 436.343 15.4653C436.283 15.4653 436.224 15.4722 436.171 15.4722C436.047 15.4756 435.923 15.4614 435.804 15.4302C435.719 15.4077 435.639 15.3682 435.57 15.3145C435.514 15.269 435.471 15.2095 435.446 15.1426C435.396 14.9971 435.398 14.8389 435.453 14.6953C435.481 14.625 435.524 14.562 435.581 14.5112C435.642 14.4565 435.715 14.415 435.794 14.3892C435.893 14.3584 435.996 14.3433 436.1 14.3452L436.457 14.3452L436.457 14.2925C436.457 14.2622 436.454 14.2324 436.447 14.2046C436.44 14.1768 436.427 14.1514 436.407 14.1313C436.382 14.1084 436.352 14.0908 436.32 14.0806C436.272 14.0659 436.222 14.0596 436.173 14.0605C436.14 14.0605 436.103 14.0625 436.061 14.0664L435.938 14.0786C435.862 14.0898 435.786 14.1045 435.712 14.1235C435.692 14.1309 435.671 14.1309 435.652 14.1235C435.645 14.1182 435.64 14.1118 435.636 14.104C435.632 14.0967 435.63 14.0889 435.63 14.0806L435.578 13.8525C435.571 13.8364 435.571 13.8184 435.578 13.8022C435.585 13.79 435.598 13.7817 435.612 13.7783C435.712 13.7422 435.816 13.7173 435.922 13.7036C436.028 13.6875 436.135 13.6792 436.242 13.6792C436.48 13.6792 436.654 13.7305 436.764 13.8315C436.822 13.8901 436.866 13.96 436.895 14.0376C436.924 14.1147 436.935 14.1973 436.93 14.2793L436.93 15.2246L436.931 15.2246ZM436.457 14.6616L436.199 14.6616C436.166 14.6611 436.133 14.6636 436.101 14.6685C436.067 14.6719 436.034 14.6821 436.005 14.6982C435.97 14.7168 435.942 14.7451 435.923 14.7798C435.905 14.8145 435.897 14.8535 435.901 14.8926C435.897 14.9233 435.903 14.9551 435.917 14.9834C435.93 15.0117 435.951 15.0356 435.978 15.0522C436.042 15.0859 436.113 15.1011 436.186 15.0972L436.239 15.0972C436.261 15.0972 436.283 15.0972 436.309 15.0903C436.333 15.0845 436.359 15.0835 436.385 15.0786C436.409 15.0732 436.433 15.0659 436.457 15.0562L436.457 14.6616ZM437.834 16.0454C437.834 16.0693 437.83 16.0854 437.822 16.0903C437.804 16.0991 437.785 16.1025 437.766 16.1006L437.428 16.1006C437.41 16.1016 437.392 16.0981 437.376 16.0903C437.365 16.0845 437.36 16.0693 437.36 16.0454L437.36 13.9204C437.358 13.9009 437.362 13.8813 437.37 13.8633C437.384 13.8442 437.403 13.8296 437.425 13.8203C437.537 13.7705 437.655 13.7354 437.777 13.7192C437.899 13.6992 438.023 13.6895 438.147 13.6895C438.28 13.6851 438.414 13.709 438.538 13.7593C438.636 13.8008 438.723 13.8652 438.791 13.9468C438.86 14.0283 438.908 14.1255 438.932 14.2295C438.99 14.457 438.989 14.6953 438.929 14.9224C438.9 15.0244 438.852 15.1196 438.788 15.2036C438.723 15.2852 438.641 15.3506 438.547 15.3945C438.439 15.4434 438.322 15.4673 438.204 15.4644C438.079 15.4644 437.955 15.4512 437.834 15.4253L437.834 16.0444L437.834 16.0454ZM438.478 14.5693C438.479 14.4937 438.47 14.4185 438.451 14.3452C438.437 14.291 438.41 14.2407 438.374 14.1982C438.34 14.1616 438.297 14.1348 438.249 14.1206C438.195 14.104 438.139 14.0967 438.083 14.0972C437.998 14.0986 437.915 14.1108 437.834 14.1343L437.834 15.0234C437.922 15.0479 438.014 15.0596 438.107 15.0586C438.156 15.0601 438.206 15.0508 438.252 15.0317C438.298 15.0127 438.339 14.9844 438.374 14.9482C438.444 14.8735 438.478 14.7485 438.478 14.5693ZM440.92 14.5693C440.92 14.8564 440.851 15.0786 440.714 15.2295C440.576 15.3823 440.368 15.4644 440.087 15.4644C439.806 15.4644 439.596 15.3862 439.465 15.2305C439.335 15.0742 439.269 14.8545 439.269 14.5703C439.267 14.4424 439.287 14.3149 439.327 14.1934C439.358 14.0903 439.413 13.9956 439.486 13.916C439.56 13.8369 439.65 13.7754 439.751 13.7363C439.861 13.6938 439.978 13.6729 440.096 13.6743C440.37 13.6743 440.576 13.7563 440.715 13.9102C440.853 14.0635 440.923 14.2852 440.923 14.5635L440.92 14.5693ZM440.423 14.5796C440.423 14.5122 440.418 14.4443 440.406 14.3774C440.397 14.3223 440.378 14.2695 440.351 14.2212C440.326 14.1792 440.291 14.144 440.25 14.1196C440.203 14.0928 440.149 14.0796 440.096 14.0815C440.045 14.0786 439.995 14.0894 439.95 14.1123C439.905 14.1357 439.867 14.1704 439.84 14.2134C439.779 14.3218 439.75 14.4453 439.757 14.5693C439.749 14.6982 439.775 14.8262 439.834 14.9414C439.86 14.9834 439.898 15.0176 439.942 15.04C439.987 15.0625 440.037 15.0723 440.087 15.0684C440.141 15.0703 440.194 15.0571 440.242 15.0303C440.285 15.0049 440.321 14.9692 440.347 14.9263C440.375 14.8789 440.395 14.8267 440.406 14.7725C440.418 14.709 440.424 14.644 440.424 14.5796L440.423 14.5796ZM442.603 13.7222C442.63 13.7188 442.659 13.7217 442.686 13.73C442.713 13.7378 442.737 13.752 442.759 13.7705C442.79 13.8145 442.804 13.8677 442.8 13.9214L442.8 15.3716C442.801 15.3804 442.8 15.3896 442.798 15.3979C442.795 15.4067 442.791 15.4146 442.785 15.4214C442.766 15.4312 442.745 15.4351 442.725 15.4336L442.393 15.4336C442.371 15.436 442.35 15.4307 442.333 15.4185C442.321 15.4043 442.316 15.3862 442.318 15.3682L442.318 14.1104L441.916 14.1104L441.906 14.2754C441.896 14.4653 441.881 14.6274 441.864 14.7656C441.85 14.8857 441.82 15.0034 441.774 15.1152C441.735 15.2075 441.675 15.2886 441.598 15.3516C441.506 15.4194 441.403 15.4702 441.294 15.5005C441.264 15.5112 441.242 15.5132 441.229 15.5054C441.213 15.4951 441.201 15.4795 441.196 15.4614L441.108 15.2402C441.098 15.2217 441.095 15.2012 441.097 15.1802C441.097 15.1675 441.116 15.1543 441.144 15.1406C441.195 15.1177 441.243 15.0874 441.286 15.0503C441.326 15.0112 441.356 14.9634 441.374 14.9102C441.402 14.8325 441.42 14.7505 441.428 14.6685C441.442 14.5674 441.453 14.4346 441.464 14.2686L441.487 13.9146C441.484 13.8599 441.502 13.8066 441.537 13.7642C441.58 13.7314 441.635 13.7163 441.69 13.7212L442.604 13.7222L442.603 13.7222ZM443.433 15.4336C443.403 15.4375 443.373 15.4351 443.344 15.4263C443.315 15.4175 443.289 15.4023 443.267 15.3823C443.238 15.3423 443.224 15.2935 443.227 15.2446L443.227 13.7886C443.227 13.7466 443.252 13.7266 443.3 13.7266L443.626 13.7266C443.646 13.7241 443.667 13.728 443.686 13.7373C443.692 13.7441 443.696 13.752 443.699 13.7607C443.701 13.7695 443.702 13.7783 443.701 13.7876L443.701 14.2603L444.107 14.2603C444.236 14.2549 444.365 14.2778 444.485 14.3271C444.567 14.3647 444.639 14.4214 444.695 14.4922C444.739 14.5488 444.77 14.6147 444.785 14.6855C444.796 14.7393 444.802 14.7954 444.803 14.8506C444.804 14.9297 444.788 15.0083 444.756 15.0806C444.724 15.1528 444.677 15.2178 444.618 15.2705C444.49 15.3809 444.326 15.4414 444.158 15.4404L443.432 15.4336L443.433 15.4336ZM444.315 14.8374C444.316 14.7803 444.296 14.7251 444.258 14.6826C444.235 14.6602 444.208 14.6426 444.179 14.6318C444.149 14.6206 444.117 14.6162 444.086 14.6182L443.701 14.6182L443.701 15.0625L444.082 15.0625C444.121 15.0635 444.16 15.0552 444.196 15.0386C444.222 15.0264 444.246 15.0083 444.265 14.9858C444.284 14.9634 444.297 14.937 444.305 14.9082C444.311 14.8862 444.315 14.8633 444.317 14.8403L444.315 14.8374Z" fill="#B2B2B2" fill-opacity="1.000000" fill-rule="evenodd"/>
</svg>
